M48
; DRILL file {KiCad 6.0.7-f9a2dced07~116~ubuntu20.04.1} date Mon 31 Oct 2022 02:43:52 PM CET
; FORMAT={-:-/ absolute / metric / decimal}
; #@! TF.CreationDate,2022-10-31T14:43:52+01:00
; #@! TF.GenerationSoftware,Kicad,Pcbnew,6.0.7-f9a2dced07~116~ubuntu20.04.1
; #@! TF.FileFunction,Plated,1,2,PTH
FMAT,2
METRIC
; #@! TA.AperFunction,Plated,PTH,ViaDrill
T1C0.400
; #@! TA.AperFunction,Plated,PTH,ComponentDrill
T2C0.762
; #@! TA.AperFunction,Plated,PTH,ComponentDrill
T3C0.800
; #@! TA.AperFunction,Plated,PTH,ComponentDrill
T4C1.000
; #@! TA.AperFunction,Plated,PTH,ComponentDrill
T5C1.100
; #@! TA.AperFunction,Plated,PTH,ComponentDrill
T6C1.500
; #@! TA.AperFunction,Plated,PTH,ComponentDrill
T7C1.524
%
G90
G05
T1
X113.792Y-252.984
X118.491Y-222.758
X120.396Y-245.872
X123.317Y-198.882
X123.444Y-207.391
X123.571Y-203.2
X125.984Y-232.41
X127.508Y-202.946
X127.635Y-198.628
X135.382Y-257.048
X136.144Y-248.666
X137.541Y-223.647
X138.938Y-231.013
X142.621Y-220.726
X146.05Y-249.047
X146.558Y-207.01
X148.59Y-200.152
X150.241Y-252.349
X152.146Y-251.079
X156.21Y-238.379
X156.21Y-240.538
X157.632Y-249.072
X157.734Y-238.379
X157.734Y-240.538
X161.798Y-246.761
X163.449Y-251.46
X170.434Y-260.35
X176.911Y-264.414
X185.293Y-254.381
X193.04Y-245.745
T2
X110.871Y-198.374
X110.871Y-200.914
X110.871Y-203.454
X110.871Y-205.994
X143.256Y-178.689
X143.256Y-181.229
X143.256Y-183.769
X143.256Y-186.309
T3
X164.211Y-260.669
X164.211Y-263.169
T4
X110.236Y-171.704
X110.236Y-174.244
X110.236Y-263.144
X110.236Y-265.684
X112.776Y-171.704
X112.776Y-174.244
X112.776Y-263.144
X112.776Y-265.684
X115.316Y-171.704
X115.316Y-174.244
X115.316Y-263.144
X115.316Y-265.684
X117.856Y-171.704
X117.856Y-174.244
X117.856Y-263.144
X117.856Y-265.684
X120.396Y-171.704
X120.396Y-174.244
X120.396Y-263.144
X120.396Y-265.684
X122.936Y-171.704
X122.936Y-174.244
X122.936Y-263.144
X122.936Y-265.684
X125.476Y-171.704
X125.476Y-174.244
X125.476Y-263.144
X125.476Y-265.684
X128.016Y-171.704
X128.016Y-174.244
X128.016Y-263.144
X128.016Y-265.684
X130.556Y-171.704
X130.556Y-174.244
X130.556Y-263.144
X130.556Y-265.684
X133.096Y-171.704
X133.096Y-174.244
X133.096Y-263.144
X133.096Y-265.684
X181.356Y-171.704
X181.356Y-174.244
X181.356Y-263.144
X181.356Y-265.684
X183.896Y-171.704
X183.896Y-174.244
X183.896Y-263.144
X183.896Y-265.684
X186.436Y-171.704
X186.436Y-174.244
X186.436Y-263.144
X186.436Y-265.684
X188.976Y-171.704
X188.976Y-174.244
X188.976Y-263.144
X188.976Y-265.684
X191.516Y-171.704
X191.516Y-174.244
X191.516Y-263.144
X191.516Y-265.684
X194.056Y-171.704
X194.056Y-174.244
X194.056Y-263.144
X194.056Y-265.684
X196.596Y-171.704
X196.596Y-174.244
X196.596Y-263.144
X196.596Y-265.684
X199.136Y-171.704
X199.136Y-174.244
X199.136Y-263.144
X199.136Y-265.684
X201.676Y-171.704
X201.676Y-174.244
X201.676Y-263.144
X201.676Y-265.684
X204.216Y-171.704
X204.216Y-174.244
X204.216Y-263.144
X204.216Y-265.684
T5
X146.741Y-252.984
X146.741Y-255.524
X146.741Y-258.064
T6
X141.986Y-243.459
T7
X111.506Y-235.839
X111.506Y-243.459
X141.986Y-235.839
T4
G00X196.438Y-254.941
M15
G01X196.438Y-252.941
M16
G05
G00X200.438Y-249.242
M15
G01X198.438Y-249.242
M16
G05
G00X202.438Y-254.941
M15
G01X202.438Y-252.941
M16
G05
T0
M30
