M48
; DRILL file {KiCad 6.0.7-f9a2dced07~116~ubuntu20.04.1} date Mon 31 Oct 2022 03:29:01 PM CET
; FORMAT={-:-/ absolute / metric / decimal}
; #@! TF.CreationDate,2022-10-31T15:29:01+01:00
; #@! TF.GenerationSoftware,Kicad,Pcbnew,6.0.7-f9a2dced07~116~ubuntu20.04.1
; #@! TF.FileFunction,Plated,1,2,PTH
FMAT,2
METRIC
; #@! TA.AperFunction,Plated,PTH,ViaDrill
T1C0.400
; #@! TA.AperFunction,Plated,PTH,ComponentDrill
T2C0.762
; #@! TA.AperFunction,Plated,PTH,ComponentDrill
T3C0.800
; #@! TA.AperFunction,Plated,PTH,ComponentDrill
T4C1.000
; #@! TA.AperFunction,Plated,PTH,ComponentDrill
T5C1.100
; #@! TA.AperFunction,Plated,PTH,ComponentDrill
T6C1.500
; #@! TA.AperFunction,Plated,PTH,ComponentDrill
T7C1.524
%
G90
G05
T1
X5.372Y-59.154
X6.435Y-78.807
X6.535Y-96.607
X10.07Y-28.928
X11.976Y-52.042
X14.309Y-80.966
X14.409Y-98.766
X14.896Y-5.052
X15.023Y-13.561
X15.15Y-9.37
X17.563Y-38.58
X19.087Y-9.116
X19.214Y-4.798
X26.961Y-63.218
X27.723Y-54.836
X29.12Y-29.817
X29.235Y-96.607
X29.335Y-78.807
X30.517Y-37.183
X34.2Y-26.896
X37.109Y-98.766
X37.209Y-80.966
X37.63Y-55.217
X38.137Y-13.18
X40.169Y-6.322
X41.82Y-58.519
X43.725Y-57.249
X47.789Y-44.549
X47.789Y-46.708
X49.212Y-55.242
X49.313Y-44.549
X49.313Y-46.708
X52.335Y-78.907
X52.557Y-96.892
X53.377Y-52.931
X55.028Y-57.63
X60.209Y-81.066
X60.431Y-99.051
X62.014Y-66.52
X68.49Y-70.584
X76.873Y-60.551
X84.62Y-51.915
T2
X2.45Y-4.544
X2.45Y-7.084
X2.45Y-9.624
X2.45Y-12.164
X34.835Y15.141
X34.835Y12.601
X34.835Y10.061
X34.835Y7.521
T3
X55.79Y-66.839
X55.79Y-69.339
T4
X1.736Y-79.569
X1.736Y-82.109
X1.736Y-87.189
X1.736Y-89.729
X1.815Y22.126
X1.815Y19.586
X1.815Y-69.314
X1.815Y-71.854
X1.836Y-97.369
X1.836Y-99.909
X1.836Y-104.989
X1.836Y-107.529
X4.356Y22.126
X4.356Y19.586
X4.356Y-69.314
X4.356Y-71.854
X6.895Y22.126
X6.895Y19.586
X6.895Y-69.314
X6.895Y-71.854
X9.435Y22.126
X9.435Y19.586
X9.435Y-69.314
X9.435Y-71.854
X11.976Y22.126
X11.976Y19.586
X11.976Y-69.314
X11.976Y-71.854
X14.515Y22.126
X14.515Y19.586
X14.515Y-69.314
X14.515Y-71.854
X16.976Y-79.569
X16.976Y-82.109
X16.976Y-87.189
X16.976Y-89.729
X17.055Y22.126
X17.055Y19.586
X17.055Y-69.314
X17.055Y-71.854
X17.076Y-97.369
X17.076Y-99.909
X17.076Y-104.989
X17.076Y-107.529
X19.595Y22.126
X19.595Y19.586
X19.595Y-69.314
X19.595Y-71.854
X22.136Y22.126
X22.136Y19.586
X22.136Y-69.314
X22.136Y-71.854
X24.536Y-97.369
X24.536Y-99.909
X24.536Y-104.989
X24.536Y-107.529
X24.636Y-79.569
X24.636Y-82.109
X24.636Y-87.189
X24.636Y-89.729
X24.675Y22.126
X24.675Y19.586
X24.675Y-69.314
X24.675Y-71.854
X39.776Y-97.369
X39.776Y-99.909
X39.776Y-104.989
X39.776Y-107.529
X39.876Y-79.569
X39.876Y-82.109
X39.876Y-87.189
X39.876Y-89.729
X47.636Y-79.669
X47.636Y-82.209
X47.636Y-87.289
X47.636Y-89.829
X47.858Y-97.654
X47.858Y-100.194
X47.858Y-105.274
X47.858Y-107.814
X62.876Y-79.669
X62.876Y-82.209
X62.876Y-87.289
X62.876Y-89.829
X63.098Y-97.654
X63.098Y-100.194
X63.098Y-105.274
X63.098Y-107.814
X72.935Y22.126
X72.935Y19.586
X72.935Y-69.314
X72.935Y-71.854
X75.475Y22.126
X75.475Y19.586
X75.475Y-69.314
X75.475Y-71.854
X78.016Y22.126
X78.016Y19.586
X78.016Y-69.314
X78.016Y-71.854
X80.555Y22.126
X80.555Y19.586
X80.555Y-69.314
X80.555Y-71.854
X83.096Y22.126
X83.096Y19.586
X83.096Y-69.314
X83.096Y-71.854
X85.635Y22.126
X85.635Y19.586
X85.635Y-69.314
X85.635Y-71.854
X88.175Y22.126
X88.175Y19.586
X88.175Y-69.314
X88.175Y-71.854
X90.715Y22.126
X90.715Y19.586
X90.715Y-69.314
X90.715Y-71.854
X93.255Y22.126
X93.255Y19.586
X93.255Y-69.314
X93.255Y-71.854
X95.795Y22.126
X95.795Y19.586
X95.795Y-69.314
X95.795Y-71.854
T5
X38.32Y-59.154
X38.32Y-61.694
X38.32Y-64.234
T6
X33.566Y-49.629
T7
X3.085Y-42.009
X3.085Y-49.629
X33.566Y-42.009
T4
G00X88.017Y-61.111
M15
G01X88.017Y-59.111
M16
G05
G00X92.017Y-55.411
M15
G01X90.017Y-55.411
M16
G05
G00X94.017Y-61.111
M15
G01X94.017Y-59.111
M16
G05
T0
M30
