%TF.GenerationSoftware,KiCad,Pcbnew,6.0.7-f9a2dced07~116~ubuntu20.04.1*%
%TF.CreationDate,2022-10-31T15:28:57+01:00*%
%TF.ProjectId,av_citynode_hw,61765f63-6974-4796-9e6f-64655f68772e,rev?*%
%TF.SameCoordinates,Original*%
%TF.FileFunction,Soldermask,Bot*%
%TF.FilePolarity,Negative*%
%FSLAX46Y46*%
G04 Gerber Fmt 4.6, Leading zero omitted, Abs format (unit mm)*
G04 Created by KiCad (PCBNEW 6.0.7-f9a2dced07~116~ubuntu20.04.1) date 2022-10-31 15:28:57*
%MOMM*%
%LPD*%
G01*
G04 APERTURE LIST*
G04 Aperture macros list*
%AMRoundRect*
0 Rectangle with rounded corners*
0 $1 Rounding radius*
0 $2 $3 $4 $5 $6 $7 $8 $9 X,Y pos of 4 corners*
0 Add a 4 corners polygon primitive as box body*
4,1,4,$2,$3,$4,$5,$6,$7,$8,$9,$2,$3,0*
0 Add four circle primitives for the rounded corners*
1,1,$1+$1,$2,$3*
1,1,$1+$1,$4,$5*
1,1,$1+$1,$6,$7*
1,1,$1+$1,$8,$9*
0 Add four rect primitives between the rounded corners*
20,1,$1+$1,$2,$3,$4,$5,0*
20,1,$1+$1,$4,$5,$6,$7,0*
20,1,$1+$1,$6,$7,$8,$9,0*
20,1,$1+$1,$8,$9,$2,$3,0*%
G04 Aperture macros list end*
%ADD10R,1.700000X1.700000*%
%ADD11O,1.700000X1.700000*%
%ADD12C,4.300000*%
%ADD13C,3.000000*%
%ADD14C,14.000000*%
%ADD15C,1.524000*%
%ADD16R,2.000000X1.905000*%
%ADD17O,2.000000X1.905000*%
%ADD18C,4.000000*%
%ADD19R,1.600000X1.600000*%
%ADD20C,1.600000*%
%ADD21R,3.500000X3.500000*%
%ADD22RoundRect,0.750000X0.750000X1.000000X-0.750000X1.000000X-0.750000X-1.000000X0.750000X-1.000000X0*%
%ADD23RoundRect,0.875000X0.875000X0.875000X-0.875000X0.875000X-0.875000X-0.875000X0.875000X-0.875000X0*%
%ADD24RoundRect,0.250000X0.450000X-0.262500X0.450000X0.262500X-0.450000X0.262500X-0.450000X-0.262500X0*%
%ADD25RoundRect,0.250000X-0.450000X0.262500X-0.450000X-0.262500X0.450000X-0.262500X0.450000X0.262500X0*%
G04 APERTURE END LIST*
D10*
%TO.C,J10*%
X1815500Y22126000D03*
D11*
X4355500Y22126000D03*
X6895500Y22126000D03*
X9435500Y22126000D03*
X11975500Y22126000D03*
X14515500Y22126000D03*
X17055500Y22126000D03*
X19595500Y22126000D03*
X22135500Y22126000D03*
X24675500Y22126000D03*
%TD*%
D10*
%TO.C,J11*%
X72935500Y-71854000D03*
D11*
X75475500Y-71854000D03*
X78015500Y-71854000D03*
X80555500Y-71854000D03*
X83095500Y-71854000D03*
X85635500Y-71854000D03*
X88175500Y-71854000D03*
X90715500Y-71854000D03*
X93255500Y-71854000D03*
X95795500Y-71854000D03*
%TD*%
D12*
%TO.C,H5*%
X31025500Y17046000D03*
%TD*%
D10*
%TO.C,J17*%
X1815500Y19586000D03*
D11*
X4355500Y19586000D03*
X6895500Y19586000D03*
X9435500Y19586000D03*
X11975500Y19586000D03*
X14515500Y19586000D03*
X17055500Y19586000D03*
X19595500Y19586000D03*
X22135500Y19586000D03*
X24675500Y19586000D03*
%TD*%
D13*
%TO.C,U5*%
X33565500Y-49629000D03*
X33565500Y-42009000D03*
X3085500Y-42009000D03*
X3085500Y-49629000D03*
%TD*%
D10*
%TO.C,J19*%
X1815500Y-69314000D03*
D11*
X4355500Y-69314000D03*
X6895500Y-69314000D03*
X9435500Y-69314000D03*
X11975500Y-69314000D03*
X14515500Y-69314000D03*
X17055500Y-69314000D03*
X19595500Y-69314000D03*
X22135500Y-69314000D03*
X24675500Y-69314000D03*
%TD*%
D14*
%TO.C,H8*%
X28180700Y-15872400D03*
%TD*%
D10*
%TO.C,J12*%
X1815500Y-71854000D03*
D11*
X4355500Y-71854000D03*
X6895500Y-71854000D03*
X9435500Y-71854000D03*
X11975500Y-71854000D03*
X14515500Y-71854000D03*
X17055500Y-71854000D03*
X19595500Y-71854000D03*
X22135500Y-71854000D03*
X24675500Y-71854000D03*
%TD*%
D15*
%TO.C,U4*%
X2450500Y-4544000D03*
X2450500Y-7084000D03*
X2450500Y-9624000D03*
X2450500Y-12164000D03*
%TD*%
D10*
%TO.C,J16*%
X72935500Y19586000D03*
D11*
X75475500Y19586000D03*
X78015500Y19586000D03*
X80555500Y19586000D03*
X83095500Y19586000D03*
X85635500Y19586000D03*
X88175500Y19586000D03*
X90715500Y19586000D03*
X93255500Y19586000D03*
X95795500Y19586000D03*
%TD*%
D10*
%TO.C,J18*%
X72935500Y-69314000D03*
D11*
X75475500Y-69314000D03*
X78015500Y-69314000D03*
X80555500Y-69314000D03*
X83095500Y-69314000D03*
X85635500Y-69314000D03*
X88175500Y-69314000D03*
X90715500Y-69314000D03*
X93255500Y-69314000D03*
X95795500Y-69314000D03*
%TD*%
D16*
%TO.C,U8*%
X38320500Y-64234000D03*
D17*
X38320500Y-61694000D03*
X38320500Y-59154000D03*
%TD*%
D12*
%TO.C,H6*%
X31787500Y-70076000D03*
%TD*%
D13*
%TO.C,U14*%
X66585500Y21831000D03*
X35585500Y831000D03*
X35585500Y21831000D03*
D18*
X65835500Y10081000D03*
D13*
X66585500Y831000D03*
D15*
X34835500Y15141000D03*
X34835500Y12601000D03*
X34835500Y10061000D03*
X34835500Y7521000D03*
%TD*%
D19*
%TO.C,C20*%
X55790500Y-66838888D03*
D20*
X55790500Y-69338888D03*
%TD*%
D21*
%TO.C,J8*%
X88017500Y-60111500D03*
D22*
X94017500Y-60111500D03*
D23*
X91017500Y-55411500D03*
%TD*%
D10*
%TO.C,J9*%
X72935500Y22126000D03*
D11*
X75475500Y22126000D03*
X78015500Y22126000D03*
X80555500Y22126000D03*
X83095500Y22126000D03*
X85635500Y22126000D03*
X88175500Y22126000D03*
X90715500Y22126000D03*
X93255500Y22126000D03*
X95795500Y22126000D03*
%TD*%
D10*
%TO.C,J4*%
X24536000Y-104989000D03*
D11*
X24536000Y-107529000D03*
%TD*%
D24*
%TO.C,R1*%
X35585000Y-105497000D03*
X35585000Y-103672000D03*
%TD*%
D10*
%TO.C,J3*%
X47858000Y-97654000D03*
D11*
X47858000Y-100194000D03*
%TD*%
D10*
%TO.C,J2*%
X39776000Y-104989000D03*
D11*
X39776000Y-107529000D03*
%TD*%
D25*
%TO.C,R2*%
X12758000Y-98592000D03*
X12758000Y-100417000D03*
%TD*%
D10*
%TO.C,J1*%
X39776000Y-97369000D03*
D11*
X39776000Y-99909000D03*
%TD*%
D10*
%TO.C,J3*%
X1736000Y-79569000D03*
D11*
X1736000Y-82109000D03*
%TD*%
D10*
%TO.C,J2*%
X17076000Y-104989000D03*
D11*
X17076000Y-107529000D03*
%TD*%
D24*
%TO.C,R1*%
X58907000Y-105782000D03*
X58907000Y-103957000D03*
%TD*%
%TO.C,R1*%
X58685000Y-87797000D03*
X58685000Y-85972000D03*
%TD*%
D10*
%TO.C,J3*%
X24536000Y-97369000D03*
D11*
X24536000Y-99909000D03*
%TD*%
D10*
%TO.C,J3*%
X24636000Y-79569000D03*
D11*
X24636000Y-82109000D03*
%TD*%
D24*
%TO.C,R1*%
X12885000Y-105497000D03*
X12885000Y-103672000D03*
%TD*%
D10*
%TO.C,J4*%
X1736000Y-87189000D03*
D11*
X1736000Y-89729000D03*
%TD*%
D10*
%TO.C,J1*%
X39876000Y-79569000D03*
D11*
X39876000Y-82109000D03*
%TD*%
D25*
%TO.C,R2*%
X35458000Y-98592000D03*
X35458000Y-100417000D03*
%TD*%
D10*
%TO.C,J3*%
X1836000Y-97369000D03*
D11*
X1836000Y-99909000D03*
%TD*%
D10*
%TO.C,J4*%
X47636000Y-87289000D03*
D11*
X47636000Y-89829000D03*
%TD*%
D10*
%TO.C,J2*%
X63098000Y-105274000D03*
D11*
X63098000Y-107814000D03*
%TD*%
D10*
%TO.C,J4*%
X24636000Y-87189000D03*
D11*
X24636000Y-89729000D03*
%TD*%
D25*
%TO.C,R2*%
X12658000Y-80792000D03*
X12658000Y-82617000D03*
%TD*%
D10*
%TO.C,J1*%
X63098000Y-97654000D03*
D11*
X63098000Y-100194000D03*
%TD*%
D10*
%TO.C,J1*%
X17076000Y-97369000D03*
D11*
X17076000Y-99909000D03*
%TD*%
D10*
%TO.C,J2*%
X16976000Y-87189000D03*
D11*
X16976000Y-89729000D03*
%TD*%
D10*
%TO.C,J2*%
X39876000Y-87189000D03*
D11*
X39876000Y-89729000D03*
%TD*%
D10*
%TO.C,J2*%
X62876000Y-87289000D03*
D11*
X62876000Y-89829000D03*
%TD*%
D25*
%TO.C,R2*%
X58558000Y-80892000D03*
X58558000Y-82717000D03*
%TD*%
D10*
%TO.C,J4*%
X47858000Y-105274000D03*
D11*
X47858000Y-107814000D03*
%TD*%
D10*
%TO.C,J4*%
X1836000Y-104989000D03*
D11*
X1836000Y-107529000D03*
%TD*%
D24*
%TO.C,R1*%
X12785000Y-87697000D03*
X12785000Y-85872000D03*
%TD*%
%TO.C,R1*%
X35685000Y-87697000D03*
X35685000Y-85872000D03*
%TD*%
D10*
%TO.C,J3*%
X47636000Y-79669000D03*
D11*
X47636000Y-82209000D03*
%TD*%
D10*
%TO.C,J1*%
X62876000Y-79669000D03*
D11*
X62876000Y-82209000D03*
%TD*%
D10*
%TO.C,J1*%
X16976000Y-79569000D03*
D11*
X16976000Y-82109000D03*
%TD*%
D25*
%TO.C,R2*%
X35558000Y-80792000D03*
X35558000Y-82617000D03*
%TD*%
%TO.C,R2*%
X58780000Y-98877000D03*
X58780000Y-100702000D03*
%TD*%
M02*
