%TF.GenerationSoftware,KiCad,Pcbnew,6.0.7-f9a2dced07~116~ubuntu20.04.1*%
%TF.CreationDate,2022-10-31T14:47:35+01:00*%
%TF.ProjectId,sht40_board,73687434-305f-4626-9f61-72642e6b6963,rev?*%
%TF.SameCoordinates,Original*%
%TF.FileFunction,Legend,Top*%
%TF.FilePolarity,Positive*%
%FSLAX46Y46*%
G04 Gerber Fmt 4.6, Leading zero omitted, Abs format (unit mm)*
G04 Created by KiCad (PCBNEW 6.0.7-f9a2dced07~116~ubuntu20.04.1) date 2022-10-31 14:47:35*
%MOMM*%
%LPD*%
G01*
G04 APERTURE LIST*
%ADD10C,0.150000*%
%ADD11C,0.120000*%
G04 APERTURE END LIST*
D10*
X135128000Y-64008000D02*
X136144000Y-64008000D01*
X136144000Y-64008000D02*
X136144000Y-65024000D01*
X136144000Y-65024000D02*
X135128000Y-65024000D01*
X135128000Y-65024000D02*
X135128000Y-64008000D01*
X143907142Y-77747761D02*
X144050000Y-77795380D01*
X144288095Y-77795380D01*
X144383333Y-77747761D01*
X144430952Y-77700142D01*
X144478571Y-77604904D01*
X144478571Y-77509666D01*
X144430952Y-77414428D01*
X144383333Y-77366809D01*
X144288095Y-77319190D01*
X144097619Y-77271571D01*
X144002380Y-77223952D01*
X143954761Y-77176333D01*
X143907142Y-77081095D01*
X143907142Y-76985857D01*
X143954761Y-76890619D01*
X144002380Y-76843000D01*
X144097619Y-76795380D01*
X144335714Y-76795380D01*
X144478571Y-76843000D01*
X144907142Y-77795380D02*
X144907142Y-76795380D01*
X144907142Y-77271571D02*
X145478571Y-77271571D01*
X145478571Y-77795380D02*
X145478571Y-76795380D01*
X145811904Y-76795380D02*
X146383333Y-76795380D01*
X146097619Y-77795380D02*
X146097619Y-76795380D01*
X147145238Y-77128714D02*
X147145238Y-77795380D01*
X146907142Y-76747761D02*
X146669047Y-77462047D01*
X147288095Y-77462047D01*
X147859523Y-76795380D02*
X147954761Y-76795380D01*
X148050000Y-76843000D01*
X148097619Y-76890619D01*
X148145238Y-76985857D01*
X148192857Y-77176333D01*
X148192857Y-77414428D01*
X148145238Y-77604904D01*
X148097619Y-77700142D01*
X148050000Y-77747761D01*
X147954761Y-77795380D01*
X147859523Y-77795380D01*
X147764285Y-77747761D01*
X147716666Y-77700142D01*
X147669047Y-77604904D01*
X147621428Y-77414428D01*
X147621428Y-77176333D01*
X147669047Y-76985857D01*
X147716666Y-76890619D01*
X147764285Y-76843000D01*
X147859523Y-76795380D01*
%TO.C,C1*%
X141250333Y-74877142D02*
X141202714Y-74924761D01*
X141059857Y-74972380D01*
X140964619Y-74972380D01*
X140821761Y-74924761D01*
X140726523Y-74829523D01*
X140678904Y-74734285D01*
X140631285Y-74543809D01*
X140631285Y-74400952D01*
X140678904Y-74210476D01*
X140726523Y-74115238D01*
X140821761Y-74020000D01*
X140964619Y-73972380D01*
X141059857Y-73972380D01*
X141202714Y-74020000D01*
X141250333Y-74067619D01*
X142202714Y-74972380D02*
X141631285Y-74972380D01*
X141917000Y-74972380D02*
X141917000Y-73972380D01*
X141821761Y-74115238D01*
X141726523Y-74210476D01*
X141631285Y-74258095D01*
%TO.C,U1*%
X143675095Y-68413380D02*
X143675095Y-69222904D01*
X143722714Y-69318142D01*
X143770333Y-69365761D01*
X143865571Y-69413380D01*
X144056047Y-69413380D01*
X144151285Y-69365761D01*
X144198904Y-69318142D01*
X144246523Y-69222904D01*
X144246523Y-68413380D01*
X145246523Y-69413380D02*
X144675095Y-69413380D01*
X144960809Y-69413380D02*
X144960809Y-68413380D01*
X144865571Y-68556238D01*
X144770333Y-68651476D01*
X144675095Y-68699095D01*
D11*
%TO.C,C1*%
X141155748Y-75465000D02*
X141678252Y-75465000D01*
X141155748Y-76935000D02*
X141678252Y-76935000D01*
%TO.C,U1*%
X145337000Y-69893000D02*
X145337000Y-69693000D01*
X145337000Y-71493000D02*
X143537000Y-71493000D01*
X145437000Y-71393000D02*
X145437000Y-71593000D01*
X143537000Y-71493000D02*
X143537000Y-71293000D01*
X145337000Y-69693000D02*
X143537000Y-69693000D01*
X143537000Y-69693000D02*
X143537000Y-69893000D01*
X145337000Y-71293000D02*
X145337000Y-71493000D01*
X145437000Y-71593000D02*
X145237000Y-71593000D01*
%TD*%
M02*
