%TF.GenerationSoftware,KiCad,Pcbnew,7.0.8-7.0.8~ubuntu20.04.1*%
%TF.CreationDate,2023-10-29T20:49:58+01:00*%
%TF.ProjectId,atecc_board,61746563-635f-4626-9f61-72642e6b6963,rev?*%
%TF.SameCoordinates,Original*%
%TF.FileFunction,Legend,Top*%
%TF.FilePolarity,Positive*%
%FSLAX46Y46*%
G04 Gerber Fmt 4.6, Leading zero omitted, Abs format (unit mm)*
G04 Created by KiCad (PCBNEW 7.0.8-7.0.8~ubuntu20.04.1) date 2023-10-29 20:49:58*
%MOMM*%
%LPD*%
G01*
G04 APERTURE LIST*
%ADD10C,0.150000*%
%ADD11C,0.120000*%
G04 APERTURE END LIST*
D10*
X78096819Y-55117904D02*
X78906342Y-55117904D01*
X78906342Y-55117904D02*
X79001580Y-55070285D01*
X79001580Y-55070285D02*
X79049200Y-55022666D01*
X79049200Y-55022666D02*
X79096819Y-54927428D01*
X79096819Y-54927428D02*
X79096819Y-54736952D01*
X79096819Y-54736952D02*
X79049200Y-54641714D01*
X79049200Y-54641714D02*
X79001580Y-54594095D01*
X79001580Y-54594095D02*
X78906342Y-54546476D01*
X78906342Y-54546476D02*
X78096819Y-54546476D01*
X78192057Y-54117904D02*
X78144438Y-54070285D01*
X78144438Y-54070285D02*
X78096819Y-53975047D01*
X78096819Y-53975047D02*
X78096819Y-53736952D01*
X78096819Y-53736952D02*
X78144438Y-53641714D01*
X78144438Y-53641714D02*
X78192057Y-53594095D01*
X78192057Y-53594095D02*
X78287295Y-53546476D01*
X78287295Y-53546476D02*
X78382533Y-53546476D01*
X78382533Y-53546476D02*
X78525390Y-53594095D01*
X78525390Y-53594095D02*
X79096819Y-54165523D01*
X79096819Y-54165523D02*
X79096819Y-53546476D01*
X88566666Y-47924819D02*
X88566666Y-48639104D01*
X88566666Y-48639104D02*
X88519047Y-48781961D01*
X88519047Y-48781961D02*
X88423809Y-48877200D01*
X88423809Y-48877200D02*
X88280952Y-48924819D01*
X88280952Y-48924819D02*
X88185714Y-48924819D01*
X88995238Y-48020057D02*
X89042857Y-47972438D01*
X89042857Y-47972438D02*
X89138095Y-47924819D01*
X89138095Y-47924819D02*
X89376190Y-47924819D01*
X89376190Y-47924819D02*
X89471428Y-47972438D01*
X89471428Y-47972438D02*
X89519047Y-48020057D01*
X89519047Y-48020057D02*
X89566666Y-48115295D01*
X89566666Y-48115295D02*
X89566666Y-48210533D01*
X89566666Y-48210533D02*
X89519047Y-48353390D01*
X89519047Y-48353390D02*
X88947619Y-48924819D01*
X88947619Y-48924819D02*
X89566666Y-48924819D01*
X75358666Y-47924819D02*
X75358666Y-48639104D01*
X75358666Y-48639104D02*
X75311047Y-48781961D01*
X75311047Y-48781961D02*
X75215809Y-48877200D01*
X75215809Y-48877200D02*
X75072952Y-48924819D01*
X75072952Y-48924819D02*
X74977714Y-48924819D01*
X76358666Y-48924819D02*
X75787238Y-48924819D01*
X76072952Y-48924819D02*
X76072952Y-47924819D01*
X76072952Y-47924819D02*
X75977714Y-48067676D01*
X75977714Y-48067676D02*
X75882476Y-48162914D01*
X75882476Y-48162914D02*
X75787238Y-48210533D01*
D11*
%TO.C,U2*%
X79482000Y-54356000D02*
X79482000Y-52406000D01*
X84602000Y-54356000D02*
X84602000Y-52406000D01*
X79482000Y-54356000D02*
X79482000Y-57806000D01*
X84602000Y-54356000D02*
X84602000Y-56306000D01*
%TO.C,J2*%
X90230000Y-52070000D02*
X90230000Y-59750000D01*
X87570000Y-50800000D02*
X87570000Y-49470000D01*
X87570000Y-59750000D02*
X90230000Y-59750000D01*
X87570000Y-52070000D02*
X90230000Y-52070000D01*
X87570000Y-49470000D02*
X88900000Y-49470000D01*
X87570000Y-52070000D02*
X87570000Y-59750000D01*
%TO.C,J1*%
X77022000Y-52070000D02*
X77022000Y-59750000D01*
X74362000Y-50800000D02*
X74362000Y-49470000D01*
X74362000Y-59750000D02*
X77022000Y-59750000D01*
X74362000Y-52070000D02*
X77022000Y-52070000D01*
X74362000Y-49470000D02*
X75692000Y-49470000D01*
X74362000Y-52070000D02*
X74362000Y-59750000D01*
%TD*%
M02*
