M48
; DRILL file {KiCad 6.0.7-f9a2dced07~116~ubuntu20.04.1} date Mon 31 Oct 2022 03:28:32 PM CET
; FORMAT={-:-/ absolute / metric / decimal}
; #@! TF.CreationDate,2022-10-31T15:28:32+01:00
; #@! TF.GenerationSoftware,Kicad,Pcbnew,6.0.7-f9a2dced07~116~ubuntu20.04.1
; #@! TF.FileFunction,Plated,1,2,PTH
FMAT,2
METRIC
; #@! TA.AperFunction,Plated,PTH,ViaDrill
T1C0.400
; #@! TA.AperFunction,Plated,PTH,ComponentDrill
T2C0.762
; #@! TA.AperFunction,Plated,PTH,ComponentDrill
T3C0.800
; #@! TA.AperFunction,Plated,PTH,ComponentDrill
T4C1.000
; #@! TA.AperFunction,Plated,PTH,ComponentDrill
T5C1.500
; #@! TA.AperFunction,Plated,PTH,ComponentDrill
T6C2.000
%
G90
G05
T1
X-25.361Y119.599
X-24.641Y137.431
X-18.376Y126.838
X-17.656Y144.67
X-16.585Y229.179
X-14.439Y125.06
X-13.719Y142.892
X-13.41Y210.51
X0.39Y119.523
X1.504Y137.026
X4.438Y229.814
X4.819Y231.211
X5.441Y135.248
X6.529Y199.969
X7.375Y126.762
X9.958Y226.004
X10.593Y234.746
X11.312Y124.984
X12.426Y142.487
X13.133Y235.473
X15.673Y236.2
X18.213Y236.926
X20.753Y237.738
X23.293Y238.465
X25.408Y137.295
X25.833Y239.191
X26.139Y119.499
X28.373Y239.918
X30.913Y240.644
X32.393Y144.534
X33.124Y126.738
X33.453Y241.371
X36.33Y142.756
X37.061Y124.96
X40.311Y239.339
X46.407Y230.449
X46.788Y208.478
X51.995Y204.414
X56.821Y204.795
X58.091Y238.577
X61.139Y231.973
X62.155Y209.367
X62.155Y207.335
X62.155Y205.049
T2
X-25.407Y176.601
X-25.407Y158.821
X-25.399Y201.239
X-25.399Y183.459
X-22.867Y176.601
X-22.867Y158.821
X-22.859Y201.239
X-22.859Y183.459
X-22.232Y239.728
X-22.232Y237.188
X-22.232Y232.108
X-22.232Y229.568
X-17.787Y176.601
X-17.787Y158.821
X-17.779Y201.239
X-17.779Y183.459
X-15.247Y176.601
X-15.247Y158.821
X-15.239Y201.239
X-15.239Y183.459
X-4.452Y239.728
X-4.452Y237.188
X-4.452Y232.108
X-4.452Y229.568
X10.085Y245.435
X10.085Y222.575
X12.625Y245.435
X12.625Y222.575
X15.165Y245.435
X15.165Y222.575
X17.705Y245.435
X17.705Y222.575
X20.245Y245.435
X20.245Y222.575
X22.658Y214.066
X22.658Y211.526
X22.658Y206.446
X22.658Y203.906
X22.785Y245.435
X22.785Y222.575
X25.325Y245.435
X25.325Y222.575
X27.865Y245.435
X27.865Y222.575
X30.405Y245.435
X30.405Y222.575
X32.945Y245.435
X32.945Y222.575
X35.485Y245.435
X35.485Y222.575
X38.025Y245.435
X38.025Y222.575
X40.438Y214.066
X40.438Y211.526
X40.438Y206.446
X40.438Y203.906
X40.565Y245.435
X40.565Y222.575
X48.058Y214.066
X48.058Y211.526
X48.058Y206.446
X48.058Y203.906
X65.838Y214.066
X65.838Y211.526
X65.838Y206.446
X65.838Y203.906
T3
X-27.517Y222.321
X-27.517Y219.781
X-27.517Y217.241
X-25.998Y211.494
X-25.998Y209.494
X-25.998Y207.494
X-19.897Y222.321
X-19.897Y219.781
X-19.897Y217.241
T4
X-28.282Y127.219
X-28.282Y124.679
X-28.282Y119.599
X-28.282Y117.059
X-27.562Y145.051
X-27.562Y142.511
X-27.562Y137.431
X-27.562Y134.891
X-27.507Y246.451
X-27.507Y152.471
X-26.872Y240.228
X-26.872Y237.688
X-26.872Y235.148
X-26.872Y232.608
X-24.967Y246.451
X-24.967Y152.471
X-22.427Y246.451
X-22.427Y152.471
X-19.887Y246.451
X-19.887Y152.471
X-17.347Y246.451
X-17.347Y152.471
X-14.807Y246.451
X-14.807Y152.471
X-12.267Y246.451
X-12.267Y152.471
X-10.502Y127.219
X-10.502Y124.679
X-10.502Y119.599
X-10.502Y117.059
X-9.782Y145.051
X-9.782Y142.511
X-9.782Y137.431
X-9.782Y134.891
X-9.727Y246.451
X-9.727Y152.471
X-7.187Y246.451
X-7.187Y152.471
X-4.647Y246.451
X-4.647Y152.471
X-2.531Y127.143
X-2.531Y124.603
X-2.531Y119.523
X-2.531Y116.983
X-2.433Y145.027
X-2.433Y142.487
X-2.433Y137.407
X-2.433Y134.867
X15.249Y127.143
X15.249Y124.603
X15.249Y119.523
X15.249Y116.983
X15.347Y145.027
X15.347Y142.487
X15.347Y137.407
X15.347Y134.867
X22.487Y144.915
X22.487Y142.375
X22.487Y137.295
X22.487Y134.755
X23.218Y127.119
X23.218Y124.579
X23.218Y119.499
X23.218Y116.959
X40.267Y144.915
X40.267Y142.375
X40.267Y137.295
X40.267Y134.755
X40.998Y127.119
X40.998Y124.579
X40.998Y119.499
X40.998Y116.959
X43.613Y246.451
X43.613Y152.471
X46.153Y246.451
X46.153Y152.471
X48.693Y246.451
X48.693Y152.471
X51.233Y246.451
X51.233Y152.471
X53.773Y246.451
X53.773Y152.471
X56.313Y246.451
X56.313Y152.471
X58.853Y246.451
X58.853Y152.471
X61.393Y246.451
X61.393Y152.471
X62.663Y228.671
X62.663Y226.131
X63.933Y246.451
X63.933Y152.471
X66.473Y246.451
X66.473Y152.471
T5
X-25.998Y213.594
X-25.998Y205.394
T6
X-6.865Y188.539
X-6.797Y166.695
X65.135Y188.539
X65.203Y166.695
T0
M30
