%TF.GenerationSoftware,KiCad,Pcbnew,6.0.7-f9a2dced07~116~ubuntu20.04.1*%
%TF.CreationDate,2022-10-31T15:28:21+01:00*%
%TF.ProjectId,av_citynode_hw,61765f63-6974-4796-9e6f-64655f68772e,rev?*%
%TF.SameCoordinates,Original*%
%TF.FileFunction,Paste,Top*%
%TF.FilePolarity,Positive*%
%FSLAX46Y46*%
G04 Gerber Fmt 4.6, Leading zero omitted, Abs format (unit mm)*
G04 Created by KiCad (PCBNEW 6.0.7-f9a2dced07~116~ubuntu20.04.1) date 2022-10-31 15:28:21*
%MOMM*%
%LPD*%
G01*
G04 APERTURE LIST*
G04 Aperture macros list*
%AMRoundRect*
0 Rectangle with rounded corners*
0 $1 Rounding radius*
0 $2 $3 $4 $5 $6 $7 $8 $9 X,Y pos of 4 corners*
0 Add a 4 corners polygon primitive as box body*
4,1,4,$2,$3,$4,$5,$6,$7,$8,$9,$2,$3,0*
0 Add four circle primitives for the rounded corners*
1,1,$1+$1,$2,$3*
1,1,$1+$1,$4,$5*
1,1,$1+$1,$6,$7*
1,1,$1+$1,$8,$9*
0 Add four rect primitives between the rounded corners*
20,1,$1+$1,$2,$3,$4,$5,0*
20,1,$1+$1,$4,$5,$6,$7,0*
20,1,$1+$1,$6,$7,$8,$9,0*
20,1,$1+$1,$8,$9,$2,$3,0*%
G04 Aperture macros list end*
%ADD10RoundRect,0.250000X0.450000X-0.262500X0.450000X0.262500X-0.450000X0.262500X-0.450000X-0.262500X0*%
%ADD11RoundRect,0.250000X0.337500X0.475000X-0.337500X0.475000X-0.337500X-0.475000X0.337500X-0.475000X0*%
%ADD12RoundRect,0.250000X0.475000X-0.250000X0.475000X0.250000X-0.475000X0.250000X-0.475000X-0.250000X0*%
%ADD13RoundRect,0.250000X-0.262500X-0.450000X0.262500X-0.450000X0.262500X0.450000X-0.262500X0.450000X0*%
%ADD14RoundRect,0.250000X-0.475000X0.337500X-0.475000X-0.337500X0.475000X-0.337500X0.475000X0.337500X0*%
%ADD15RoundRect,0.100000X-0.900000X-0.100000X0.900000X-0.100000X0.900000X0.100000X-0.900000X0.100000X0*%
%ADD16RoundRect,0.262500X-0.262500X-0.487500X0.262500X-0.487500X0.262500X0.487500X-0.262500X0.487500X0*%
%ADD17RoundRect,0.250000X-0.450000X0.262500X-0.450000X-0.262500X0.450000X-0.262500X0.450000X0.262500X0*%
%ADD18RoundRect,0.250000X0.350000X0.450000X-0.350000X0.450000X-0.350000X-0.450000X0.350000X-0.450000X0*%
%ADD19RoundRect,0.250000X-0.250000X-0.475000X0.250000X-0.475000X0.250000X0.475000X-0.250000X0.475000X0*%
%ADD20RoundRect,0.250000X-0.475000X0.250000X-0.475000X-0.250000X0.475000X-0.250000X0.475000X0.250000X0*%
%ADD21RoundRect,0.250000X0.250000X0.475000X-0.250000X0.475000X-0.250000X-0.475000X0.250000X-0.475000X0*%
%ADD22RoundRect,0.250000X0.475000X-0.337500X0.475000X0.337500X-0.475000X0.337500X-0.475000X-0.337500X0*%
%ADD23RoundRect,0.250000X0.262500X0.450000X-0.262500X0.450000X-0.262500X-0.450000X0.262500X-0.450000X0*%
%ADD24RoundRect,0.100000X0.900000X0.100000X-0.900000X0.100000X-0.900000X-0.100000X0.900000X-0.100000X0*%
%ADD25RoundRect,0.262500X0.262500X0.487500X-0.262500X0.487500X-0.262500X-0.487500X0.262500X-0.487500X0*%
G04 APERTURE END LIST*
D10*
%TO.C,R9*%
X63933000Y237561000D03*
X63933000Y239386000D03*
%TD*%
D11*
%TO.C,C23*%
X-19141000Y169235000D03*
X-21216000Y169235000D03*
%TD*%
D12*
%TO.C,C1*%
X898000Y126259000D03*
X898000Y128159000D03*
%TD*%
%TO.C,C1*%
X25916000Y144031000D03*
X25916000Y145931000D03*
%TD*%
D13*
%TO.C,R2*%
X29695000Y128008000D03*
X31520000Y128008000D03*
%TD*%
D14*
%TO.C,C4*%
X30278000Y209388500D03*
X30278000Y207313500D03*
%TD*%
D15*
%TO.C,U1*%
X-19914000Y140771000D03*
X-19914000Y139971000D03*
X-19914000Y139171000D03*
X-16114000Y139171000D03*
X-16114000Y139971000D03*
X-16114000Y140771000D03*
D16*
X-18064000Y139971000D03*
%TD*%
D10*
%TO.C,R11*%
X56313000Y237641000D03*
X56313000Y239466000D03*
%TD*%
D17*
%TO.C,R13*%
X-15374000Y187951000D03*
X-15374000Y186126000D03*
%TD*%
D15*
%TO.C,U1*%
X30866000Y122839000D03*
X30866000Y122039000D03*
X30866000Y121239000D03*
X34666000Y121239000D03*
X34666000Y122039000D03*
X34666000Y122839000D03*
D16*
X32716000Y122039000D03*
%TD*%
D10*
%TO.C,R10*%
X54408000Y233196000D03*
X54408000Y235021000D03*
%TD*%
D15*
%TO.C,U1*%
X5117000Y122863000D03*
X5117000Y122063000D03*
X5117000Y121263000D03*
X8917000Y121263000D03*
X8917000Y122063000D03*
X8917000Y122863000D03*
D16*
X6967000Y122063000D03*
%TD*%
D18*
%TO.C,R3*%
X-14807000Y216591000D03*
X-16807000Y216591000D03*
%TD*%
D12*
%TO.C,C1*%
X-24853000Y126335000D03*
X-24853000Y128235000D03*
%TD*%
D11*
%TO.C,C1*%
X-19268000Y196921000D03*
X-21343000Y196921000D03*
%TD*%
D19*
%TO.C,C2*%
X747000Y144900000D03*
X2647000Y144900000D03*
%TD*%
D20*
%TO.C,C1*%
X11918000Y135751000D03*
X11918000Y133851000D03*
%TD*%
D13*
%TO.C,R2*%
X3946000Y128032000D03*
X5771000Y128032000D03*
%TD*%
D15*
%TO.C,U1*%
X-20634000Y122939000D03*
X-20634000Y122139000D03*
X-20634000Y121339000D03*
X-16834000Y121339000D03*
X-16834000Y122139000D03*
X-16834000Y122939000D03*
D16*
X-18784000Y122139000D03*
%TD*%
D21*
%TO.C,C2*%
X-12962000Y135018000D03*
X-14862000Y135018000D03*
%TD*%
D12*
%TO.C,C22*%
X53138000Y237566000D03*
X53138000Y239466000D03*
%TD*%
%TO.C,C21*%
X60758000Y237523500D03*
X60758000Y239423500D03*
%TD*%
%TO.C,C1*%
X26647000Y126235000D03*
X26647000Y128135000D03*
%TD*%
%TO.C,C17*%
X45518000Y237561000D03*
X45518000Y239461000D03*
%TD*%
D14*
%TO.C,C24*%
X-18549000Y236185500D03*
X-18549000Y234110500D03*
%TD*%
D10*
%TO.C,R7*%
X48693000Y237561000D03*
X48693000Y239386000D03*
%TD*%
D22*
%TO.C,C7*%
X-26872000Y225311000D03*
X-26872000Y227386000D03*
%TD*%
D13*
%TO.C,R2*%
X-21085000Y145940000D03*
X-19260000Y145940000D03*
%TD*%
D22*
%TO.C,C3*%
X-20522000Y225311000D03*
X-20522000Y227386000D03*
%TD*%
D15*
%TO.C,U1*%
X30135000Y140635000D03*
X30135000Y139835000D03*
X30135000Y139035000D03*
X33935000Y139035000D03*
X33935000Y139835000D03*
X33935000Y140635000D03*
D16*
X31985000Y139835000D03*
%TD*%
D10*
%TO.C,R8*%
X62028000Y233196000D03*
X62028000Y235021000D03*
%TD*%
D12*
%TO.C,C1*%
X-24133000Y144167000D03*
X-24133000Y146067000D03*
%TD*%
D11*
%TO.C,C26*%
X-19141000Y172537000D03*
X-21216000Y172537000D03*
%TD*%
D22*
%TO.C,C5*%
X-23697000Y225311000D03*
X-23697000Y227386000D03*
%TD*%
D17*
%TO.C,R12*%
X-22613000Y187951000D03*
X-22613000Y186126000D03*
%TD*%
D21*
%TO.C,C2*%
X37818000Y117086000D03*
X35918000Y117086000D03*
%TD*%
%TO.C,C2*%
X12069000Y117110000D03*
X10169000Y117110000D03*
%TD*%
D13*
%TO.C,R2*%
X28964000Y145804000D03*
X30789000Y145804000D03*
%TD*%
D14*
%TO.C,C25*%
X-15120000Y236185500D03*
X-15120000Y234110500D03*
%TD*%
D21*
%TO.C,C2*%
X37087000Y134882000D03*
X35187000Y134882000D03*
%TD*%
D23*
%TO.C,R2*%
X8870000Y133978000D03*
X7045000Y133978000D03*
%TD*%
D18*
%TO.C,R1*%
X-14807000Y222941000D03*
X-16807000Y222941000D03*
%TD*%
D14*
%TO.C,C9*%
X58218000Y209388500D03*
X58218000Y207313500D03*
%TD*%
D10*
%TO.C,R6*%
X46788000Y233196000D03*
X46788000Y235021000D03*
%TD*%
D14*
%TO.C,C6*%
X27103000Y209388500D03*
X27103000Y207313500D03*
%TD*%
D11*
%TO.C,C2*%
X-19184000Y194127000D03*
X-21259000Y194127000D03*
%TD*%
D21*
%TO.C,C2*%
X-13682000Y117186000D03*
X-15582000Y117186000D03*
%TD*%
D18*
%TO.C,R2*%
X-14807000Y219766000D03*
X-16807000Y219766000D03*
%TD*%
D24*
%TO.C,U1*%
X7699000Y139147000D03*
X7699000Y139947000D03*
X7699000Y140747000D03*
X3899000Y140747000D03*
X3899000Y139947000D03*
X3899000Y139147000D03*
D25*
X5849000Y139947000D03*
%TD*%
D14*
%TO.C,C8*%
X55043000Y209388500D03*
X55043000Y207313500D03*
%TD*%
D13*
%TO.C,R2*%
X-21805000Y128108000D03*
X-19980000Y128108000D03*
%TD*%
M02*
