%TF.GenerationSoftware,KiCad,Pcbnew,6.0.7-f9a2dced07~116~ubuntu20.04.1*%
%TF.CreationDate,2022-10-31T14:46:07+01:00*%
%TF.ProjectId,scd40_board,73636434-305f-4626-9f61-72642e6b6963,rev?*%
%TF.SameCoordinates,Original*%
%TF.FileFunction,Legend,Bot*%
%TF.FilePolarity,Positive*%
%FSLAX46Y46*%
G04 Gerber Fmt 4.6, Leading zero omitted, Abs format (unit mm)*
G04 Created by KiCad (PCBNEW 6.0.7-f9a2dced07~116~ubuntu20.04.1) date 2022-10-31 14:46:07*
%MOMM*%
%LPD*%
G01*
G04 APERTURE LIST*
%ADD10C,0.150000*%
%ADD11C,0.120000*%
G04 APERTURE END LIST*
D10*
%TO.C,J2*%
X154511333Y-29932380D02*
X154511333Y-30646666D01*
X154558952Y-30789523D01*
X154654190Y-30884761D01*
X154797047Y-30932380D01*
X154892285Y-30932380D01*
X154082761Y-30027619D02*
X154035142Y-29980000D01*
X153939904Y-29932380D01*
X153701809Y-29932380D01*
X153606571Y-29980000D01*
X153558952Y-30027619D01*
X153511333Y-30122857D01*
X153511333Y-30218095D01*
X153558952Y-30360952D01*
X154130380Y-30932380D01*
X153511333Y-30932380D01*
%TO.C,J3*%
X167211333Y-29932380D02*
X167211333Y-30646666D01*
X167258952Y-30789523D01*
X167354190Y-30884761D01*
X167497047Y-30932380D01*
X167592285Y-30932380D01*
X166830380Y-29932380D02*
X166211333Y-29932380D01*
X166544666Y-30313333D01*
X166401809Y-30313333D01*
X166306571Y-30360952D01*
X166258952Y-30408571D01*
X166211333Y-30503809D01*
X166211333Y-30741904D01*
X166258952Y-30837142D01*
X166306571Y-30884761D01*
X166401809Y-30932380D01*
X166687523Y-30932380D01*
X166782761Y-30884761D01*
X166830380Y-30837142D01*
%TO.C,R2*%
X160980380Y-36028333D02*
X160504190Y-35695000D01*
X160980380Y-35456904D02*
X159980380Y-35456904D01*
X159980380Y-35837857D01*
X160028000Y-35933095D01*
X160075619Y-35980714D01*
X160170857Y-36028333D01*
X160313714Y-36028333D01*
X160408952Y-35980714D01*
X160456571Y-35933095D01*
X160504190Y-35837857D01*
X160504190Y-35456904D01*
X160075619Y-36409285D02*
X160028000Y-36456904D01*
X159980380Y-36552142D01*
X159980380Y-36790238D01*
X160028000Y-36885476D01*
X160075619Y-36933095D01*
X160170857Y-36980714D01*
X160266095Y-36980714D01*
X160408952Y-36933095D01*
X160980380Y-36361666D01*
X160980380Y-36980714D01*
%TO.C,J4*%
X167211333Y-36663380D02*
X167211333Y-37377666D01*
X167258952Y-37520523D01*
X167354190Y-37615761D01*
X167497047Y-37663380D01*
X167592285Y-37663380D01*
X166306571Y-36996714D02*
X166306571Y-37663380D01*
X166544666Y-36615761D02*
X166782761Y-37330047D01*
X166163714Y-37330047D01*
%TO.C,J1*%
X154257333Y-36663380D02*
X154257333Y-37377666D01*
X154304952Y-37520523D01*
X154400190Y-37615761D01*
X154543047Y-37663380D01*
X154638285Y-37663380D01*
X153257333Y-37663380D02*
X153828761Y-37663380D01*
X153543047Y-37663380D02*
X153543047Y-36663380D01*
X153638285Y-36806238D01*
X153733523Y-36901476D01*
X153828761Y-36949095D01*
%TO.C,R1*%
X163393380Y-36028333D02*
X162917190Y-35695000D01*
X163393380Y-35456904D02*
X162393380Y-35456904D01*
X162393380Y-35837857D01*
X162441000Y-35933095D01*
X162488619Y-35980714D01*
X162583857Y-36028333D01*
X162726714Y-36028333D01*
X162821952Y-35980714D01*
X162869571Y-35933095D01*
X162917190Y-35837857D01*
X162917190Y-35456904D01*
X163393380Y-36980714D02*
X163393380Y-36409285D01*
X163393380Y-36695000D02*
X162393380Y-36695000D01*
X162536238Y-36599761D01*
X162631476Y-36504523D01*
X162679095Y-36409285D01*
D11*
%TO.C,J2*%
X152968000Y-32699000D02*
X150308000Y-32699000D01*
X152968000Y-27499000D02*
X151638000Y-27499000D01*
X152968000Y-30099000D02*
X152968000Y-32699000D01*
X150308000Y-30099000D02*
X150308000Y-32699000D01*
X152968000Y-28829000D02*
X152968000Y-27499000D01*
X152968000Y-30099000D02*
X150308000Y-30099000D01*
%TO.C,J3*%
X170748000Y-28829000D02*
X170748000Y-27499000D01*
X170748000Y-30099000D02*
X168088000Y-30099000D01*
X168088000Y-30099000D02*
X168088000Y-32699000D01*
X170748000Y-30099000D02*
X170748000Y-32699000D01*
X170748000Y-27499000D02*
X169418000Y-27499000D01*
X170748000Y-32699000D02*
X168088000Y-32699000D01*
%TO.C,R2*%
X161263000Y-38618936D02*
X161263000Y-39073064D01*
X159793000Y-38618936D02*
X159793000Y-39073064D01*
%TO.C,J4*%
X170748000Y-40319000D02*
X168088000Y-40319000D01*
X168088000Y-37719000D02*
X168088000Y-40319000D01*
X170748000Y-36449000D02*
X170748000Y-35119000D01*
X170748000Y-35119000D02*
X169418000Y-35119000D01*
X170748000Y-37719000D02*
X170748000Y-40319000D01*
X170748000Y-37719000D02*
X168088000Y-37719000D01*
%TO.C,J1*%
X150308000Y-37719000D02*
X150308000Y-40319000D01*
X152968000Y-37719000D02*
X152968000Y-40319000D01*
X152968000Y-36449000D02*
X152968000Y-35119000D01*
X152968000Y-40319000D02*
X150308000Y-40319000D01*
X152968000Y-37719000D02*
X150308000Y-37719000D01*
X152968000Y-35119000D02*
X151638000Y-35119000D01*
%TO.C,R1*%
X162333000Y-38618936D02*
X162333000Y-39073064D01*
X163803000Y-38618936D02*
X163803000Y-39073064D01*
%TD*%
M02*
