%TF.GenerationSoftware,KiCad,Pcbnew,6.0.7-f9a2dced07~116~ubuntu20.04.1*%
%TF.CreationDate,2022-10-31T14:46:07+01:00*%
%TF.ProjectId,scd40_board,73636434-305f-4626-9f61-72642e6b6963,rev?*%
%TF.SameCoordinates,Original*%
%TF.FileFunction,Copper,L2,Bot*%
%TF.FilePolarity,Positive*%
%FSLAX46Y46*%
G04 Gerber Fmt 4.6, Leading zero omitted, Abs format (unit mm)*
G04 Created by KiCad (PCBNEW 6.0.7-f9a2dced07~116~ubuntu20.04.1) date 2022-10-31 14:46:07*
%MOMM*%
%LPD*%
G01*
G04 APERTURE LIST*
G04 Aperture macros list*
%AMRoundRect*
0 Rectangle with rounded corners*
0 $1 Rounding radius*
0 $2 $3 $4 $5 $6 $7 $8 $9 X,Y pos of 4 corners*
0 Add a 4 corners polygon primitive as box body*
4,1,4,$2,$3,$4,$5,$6,$7,$8,$9,$2,$3,0*
0 Add four circle primitives for the rounded corners*
1,1,$1+$1,$2,$3*
1,1,$1+$1,$4,$5*
1,1,$1+$1,$6,$7*
1,1,$1+$1,$8,$9*
0 Add four rect primitives between the rounded corners*
20,1,$1+$1,$2,$3,$4,$5,0*
20,1,$1+$1,$4,$5,$6,$7,0*
20,1,$1+$1,$6,$7,$8,$9,0*
20,1,$1+$1,$8,$9,$2,$3,0*%
G04 Aperture macros list end*
%TA.AperFunction,ComponentPad*%
%ADD10R,1.700000X1.700000*%
%TD*%
%TA.AperFunction,ComponentPad*%
%ADD11O,1.700000X1.700000*%
%TD*%
%TA.AperFunction,SMDPad,CuDef*%
%ADD12RoundRect,0.250000X-0.450000X0.262500X-0.450000X-0.262500X0.450000X-0.262500X0.450000X0.262500X0*%
%TD*%
%TA.AperFunction,ViaPad*%
%ADD13C,0.800000*%
%TD*%
%TA.AperFunction,Conductor*%
%ADD14C,0.250000*%
%TD*%
G04 APERTURE END LIST*
D10*
%TO.P,J2,1,Pin_1*%
%TO.N,GND*%
X151638000Y-28829000D03*
D11*
%TO.P,J2,2,Pin_2*%
X151638000Y-31369000D03*
%TD*%
D10*
%TO.P,J3,1,Pin_1*%
%TO.N,Net-(J3-Pad1)*%
X169418000Y-28829000D03*
D11*
%TO.P,J3,2,Pin_2*%
X169418000Y-31369000D03*
%TD*%
D12*
%TO.P,R2,1*%
%TO.N,Net-(J1-Pad1)*%
X160528000Y-37933500D03*
%TO.P,R2,2*%
%TO.N,Net-(J4-Pad1)*%
X160528000Y-39758500D03*
%TD*%
D10*
%TO.P,J4,1,Pin_1*%
%TO.N,Net-(J4-Pad1)*%
X169418000Y-36449000D03*
D11*
%TO.P,J4,2,Pin_2*%
X169418000Y-38989000D03*
%TD*%
D10*
%TO.P,J1,1,Pin_1*%
%TO.N,Net-(J1-Pad1)*%
X151638000Y-36449000D03*
D11*
%TO.P,J1,2,Pin_2*%
X151638000Y-38989000D03*
%TD*%
D12*
%TO.P,R1,1*%
%TO.N,Net-(J1-Pad1)*%
X163068000Y-37933500D03*
%TO.P,R1,2*%
%TO.N,Net-(J3-Pad1)*%
X163068000Y-39758500D03*
%TD*%
D13*
%TO.N,Net-(J1-Pad1)*%
X158750000Y-40005000D03*
X159258000Y-28067000D03*
%TO.N,GND*%
X162052000Y-35306000D03*
X159004000Y-32512000D03*
X162179000Y-32512000D03*
X159004000Y-35433000D03*
%TO.N,Net-(J3-Pad1)*%
X164846000Y-40132000D03*
%TO.N,Net-(J4-Pad1)*%
X161671000Y-40386000D03*
%TD*%
D14*
%TO.N,Net-(J1-Pad1)*%
X151638000Y-36449000D02*
X159258000Y-28829000D01*
X158750000Y-40005000D02*
X159004000Y-39751000D01*
X159004000Y-39751000D02*
X159004000Y-37592000D01*
X159004000Y-37592000D02*
X160274000Y-37592000D01*
X159258000Y-28829000D02*
X159258000Y-28067000D01*
X160528000Y-37846000D02*
X163068000Y-37846000D01*
X160274000Y-37592000D02*
X160528000Y-37846000D01*
%TO.N,GND*%
X151638000Y-28829000D02*
X151638000Y-31369000D01*
%TO.N,Net-(J3-Pad1)*%
X163068000Y-39846000D02*
X164560000Y-39846000D01*
X164560000Y-39846000D02*
X164846000Y-40132000D01*
%TO.N,Net-(J4-Pad1)*%
X161131000Y-39846000D02*
X161671000Y-40386000D01*
X169418000Y-36449000D02*
X169418000Y-38989000D01*
X160528000Y-39846000D02*
X161131000Y-39846000D01*
%TD*%
%TA.AperFunction,Conductor*%
%TO.N,GND*%
G36*
X171391621Y-26817502D02*
G01*
X171438114Y-26871158D01*
X171449500Y-26923500D01*
X171449500Y-40894500D01*
X171429498Y-40962621D01*
X171375842Y-41009114D01*
X171323500Y-41020500D01*
X165551498Y-41020500D01*
X165483377Y-41000498D01*
X165436884Y-40946842D01*
X165426780Y-40876568D01*
X165457862Y-40810190D01*
X165580621Y-40673852D01*
X165580622Y-40673851D01*
X165585040Y-40668944D01*
X165680527Y-40503556D01*
X165739542Y-40321928D01*
X165746087Y-40259661D01*
X165758814Y-40138565D01*
X165759504Y-40132000D01*
X165741735Y-39962938D01*
X165740232Y-39948635D01*
X165740232Y-39948633D01*
X165739542Y-39942072D01*
X165680527Y-39760444D01*
X165585040Y-39595056D01*
X165491178Y-39490811D01*
X165461675Y-39458045D01*
X165461674Y-39458044D01*
X165457253Y-39453134D01*
X165302752Y-39340882D01*
X165296724Y-39338198D01*
X165296722Y-39338197D01*
X165134319Y-39265891D01*
X165134318Y-39265891D01*
X165128288Y-39263206D01*
X165034888Y-39243353D01*
X164947944Y-39224872D01*
X164947939Y-39224872D01*
X164941487Y-39223500D01*
X164750513Y-39223500D01*
X164744053Y-39224873D01*
X164742952Y-39225107D01*
X164741455Y-39225146D01*
X164737488Y-39225563D01*
X164737455Y-39225251D01*
X164697027Y-39226306D01*
X164695922Y-39226131D01*
X164694459Y-39225899D01*
X164682857Y-39223495D01*
X164647711Y-39214472D01*
X164647710Y-39214472D01*
X164640030Y-39212500D01*
X164619776Y-39212500D01*
X164600065Y-39210949D01*
X164587886Y-39209020D01*
X164580057Y-39207780D01*
X164572165Y-39208526D01*
X164536039Y-39211941D01*
X164524181Y-39212500D01*
X164304781Y-39212500D01*
X164236660Y-39192498D01*
X164197637Y-39152803D01*
X164135407Y-39052240D01*
X164116478Y-39021652D01*
X164050406Y-38955695D01*
X168055251Y-38955695D01*
X168055548Y-38960848D01*
X168055548Y-38960851D01*
X168066616Y-39152803D01*
X168068110Y-39178715D01*
X168069247Y-39183761D01*
X168069248Y-39183767D01*
X168078835Y-39226306D01*
X168117222Y-39396639D01*
X168201266Y-39603616D01*
X168317987Y-39794088D01*
X168464250Y-39962938D01*
X168636126Y-40105632D01*
X168829000Y-40218338D01*
X169037692Y-40298030D01*
X169042760Y-40299061D01*
X169042763Y-40299062D01*
X169150017Y-40320883D01*
X169256597Y-40342567D01*
X169261772Y-40342757D01*
X169261774Y-40342757D01*
X169474673Y-40350564D01*
X169474677Y-40350564D01*
X169479837Y-40350753D01*
X169484957Y-40350097D01*
X169484959Y-40350097D01*
X169696288Y-40323025D01*
X169696289Y-40323025D01*
X169701416Y-40322368D01*
X169724758Y-40315365D01*
X169910429Y-40259661D01*
X169910434Y-40259659D01*
X169915384Y-40258174D01*
X170115994Y-40159896D01*
X170297860Y-40030173D01*
X170456096Y-39872489D01*
X170515594Y-39789689D01*
X170583435Y-39695277D01*
X170586453Y-39691077D01*
X170617766Y-39627721D01*
X170683136Y-39495453D01*
X170683137Y-39495451D01*
X170685430Y-39490811D01*
X170730982Y-39340882D01*
X170748865Y-39282023D01*
X170748865Y-39282021D01*
X170750370Y-39277069D01*
X170779529Y-39055590D01*
X170779611Y-39052240D01*
X170781074Y-38992365D01*
X170781074Y-38992361D01*
X170781156Y-38989000D01*
X170762852Y-38766361D01*
X170708431Y-38549702D01*
X170619354Y-38344840D01*
X170498014Y-38157277D01*
X170494532Y-38153450D01*
X170350798Y-37995488D01*
X170319746Y-37931642D01*
X170328141Y-37861143D01*
X170373317Y-37806375D01*
X170399761Y-37792706D01*
X170506297Y-37752767D01*
X170514705Y-37749615D01*
X170631261Y-37662261D01*
X170718615Y-37545705D01*
X170769745Y-37409316D01*
X170776500Y-37347134D01*
X170776500Y-35550866D01*
X170769745Y-35488684D01*
X170718615Y-35352295D01*
X170631261Y-35235739D01*
X170514705Y-35148385D01*
X170378316Y-35097255D01*
X170316134Y-35090500D01*
X168519866Y-35090500D01*
X168457684Y-35097255D01*
X168321295Y-35148385D01*
X168204739Y-35235739D01*
X168117385Y-35352295D01*
X168066255Y-35488684D01*
X168059500Y-35550866D01*
X168059500Y-37347134D01*
X168066255Y-37409316D01*
X168117385Y-37545705D01*
X168204739Y-37662261D01*
X168321295Y-37749615D01*
X168329704Y-37752767D01*
X168329705Y-37752768D01*
X168438451Y-37793535D01*
X168495216Y-37836176D01*
X168519916Y-37902738D01*
X168504709Y-37972087D01*
X168485316Y-37998568D01*
X168358629Y-38131138D01*
X168232743Y-38315680D01*
X168185716Y-38416992D01*
X168141712Y-38511791D01*
X168138688Y-38518305D01*
X168078989Y-38733570D01*
X168055251Y-38955695D01*
X164050406Y-38955695D01*
X164029891Y-38935216D01*
X163995812Y-38872934D01*
X164000815Y-38802114D01*
X164029736Y-38757025D01*
X164112134Y-38674483D01*
X164117305Y-38669303D01*
X164121146Y-38663072D01*
X164206275Y-38524968D01*
X164206276Y-38524966D01*
X164210115Y-38518738D01*
X164265797Y-38350861D01*
X164266860Y-38340492D01*
X164276172Y-38249598D01*
X164276500Y-38246400D01*
X164276500Y-37620600D01*
X164276163Y-37617350D01*
X164266238Y-37521692D01*
X164266237Y-37521688D01*
X164265526Y-37514834D01*
X164246422Y-37457571D01*
X164211868Y-37354002D01*
X164209550Y-37347054D01*
X164116478Y-37196652D01*
X164095520Y-37175730D01*
X163996483Y-37076866D01*
X163991303Y-37071695D01*
X163985072Y-37067854D01*
X163846968Y-36982725D01*
X163846966Y-36982724D01*
X163840738Y-36978885D01*
X163680254Y-36925655D01*
X163679389Y-36925368D01*
X163679387Y-36925368D01*
X163672861Y-36923203D01*
X163666025Y-36922503D01*
X163666022Y-36922502D01*
X163622969Y-36918091D01*
X163568400Y-36912500D01*
X162567600Y-36912500D01*
X162564354Y-36912837D01*
X162564350Y-36912837D01*
X162468692Y-36922762D01*
X162468688Y-36922763D01*
X162461834Y-36923474D01*
X162455298Y-36925655D01*
X162455296Y-36925655D01*
X162355362Y-36958996D01*
X162294054Y-36979450D01*
X162143652Y-37072522D01*
X162138479Y-37077704D01*
X162040835Y-37175518D01*
X161978552Y-37209597D01*
X161951662Y-37212500D01*
X161644480Y-37212500D01*
X161576359Y-37192498D01*
X161555462Y-37175673D01*
X161506232Y-37126528D01*
X161451303Y-37071695D01*
X161445072Y-37067854D01*
X161306968Y-36982725D01*
X161306966Y-36982724D01*
X161300738Y-36978885D01*
X161140254Y-36925655D01*
X161139389Y-36925368D01*
X161139387Y-36925368D01*
X161132861Y-36923203D01*
X161126025Y-36922503D01*
X161126022Y-36922502D01*
X161082969Y-36918091D01*
X161028400Y-36912500D01*
X160027600Y-36912500D01*
X160024354Y-36912837D01*
X160024350Y-36912837D01*
X159928692Y-36922762D01*
X159928688Y-36922763D01*
X159921834Y-36923474D01*
X159915292Y-36925657D01*
X159915290Y-36925657D01*
X159836261Y-36952023D01*
X159796384Y-36958500D01*
X159075793Y-36958500D01*
X159052184Y-36956268D01*
X159051881Y-36956210D01*
X159051877Y-36956210D01*
X159044094Y-36954725D01*
X158988049Y-36958251D01*
X158980138Y-36958500D01*
X158964144Y-36958500D01*
X158948270Y-36960506D01*
X158940410Y-36961248D01*
X158912951Y-36962976D01*
X158892263Y-36964277D01*
X158892262Y-36964277D01*
X158884350Y-36964775D01*
X158876809Y-36967225D01*
X158876513Y-36967321D01*
X158853369Y-36972494D01*
X158853065Y-36972532D01*
X158853060Y-36972533D01*
X158845203Y-36973526D01*
X158837838Y-36976442D01*
X158837834Y-36976443D01*
X158792989Y-36994199D01*
X158785570Y-36996871D01*
X158732125Y-37014236D01*
X158725429Y-37018486D01*
X158725428Y-37018486D01*
X158725169Y-37018650D01*
X158704042Y-37029415D01*
X158703754Y-37029529D01*
X158703749Y-37029532D01*
X158696383Y-37032448D01*
X158689975Y-37037104D01*
X158689969Y-37037107D01*
X158650948Y-37065458D01*
X158644411Y-37069901D01*
X158596982Y-37100000D01*
X158591556Y-37105778D01*
X158591555Y-37105779D01*
X158591341Y-37106007D01*
X158573554Y-37121688D01*
X158573309Y-37121866D01*
X158573307Y-37121868D01*
X158566893Y-37126528D01*
X158561839Y-37132637D01*
X158561838Y-37132638D01*
X158531097Y-37169796D01*
X158525866Y-37175730D01*
X158492842Y-37210898D01*
X158492840Y-37210901D01*
X158487414Y-37216679D01*
X158483445Y-37223899D01*
X158470119Y-37243506D01*
X158469920Y-37243746D01*
X158469916Y-37243753D01*
X158464867Y-37249856D01*
X158461493Y-37257027D01*
X158440953Y-37300676D01*
X158437371Y-37307708D01*
X158410305Y-37356940D01*
X158408335Y-37364615D01*
X158408332Y-37364621D01*
X158408256Y-37364919D01*
X158400224Y-37387228D01*
X158400094Y-37387503D01*
X158400091Y-37387511D01*
X158396717Y-37394682D01*
X158395231Y-37402474D01*
X158386195Y-37449843D01*
X158384471Y-37457558D01*
X158370500Y-37511970D01*
X158370500Y-37520207D01*
X158368268Y-37543816D01*
X158366725Y-37551906D01*
X158367223Y-37559817D01*
X158370251Y-37607951D01*
X158370500Y-37615862D01*
X158370500Y-39097661D01*
X158350498Y-39165782D01*
X158303820Y-39205847D01*
X158305001Y-39207893D01*
X158299278Y-39211197D01*
X158293248Y-39213882D01*
X158287907Y-39217762D01*
X158287906Y-39217763D01*
X158276708Y-39225899D01*
X158138747Y-39326134D01*
X158010960Y-39468056D01*
X157994093Y-39497271D01*
X157930152Y-39608020D01*
X157915473Y-39633444D01*
X157856458Y-39815072D01*
X157836496Y-40005000D01*
X157856458Y-40194928D01*
X157915473Y-40376556D01*
X158010960Y-40541944D01*
X158015378Y-40546851D01*
X158015379Y-40546852D01*
X158129730Y-40673852D01*
X158138747Y-40683866D01*
X158182176Y-40715419D01*
X158288356Y-40792564D01*
X158331710Y-40848787D01*
X158337785Y-40919523D01*
X158304653Y-40982314D01*
X158242833Y-41017226D01*
X158214295Y-41020500D01*
X149732500Y-41020500D01*
X149664379Y-41000498D01*
X149617886Y-40946842D01*
X149606500Y-40894500D01*
X149606500Y-38955695D01*
X150275251Y-38955695D01*
X150275548Y-38960848D01*
X150275548Y-38960851D01*
X150286616Y-39152803D01*
X150288110Y-39178715D01*
X150289247Y-39183761D01*
X150289248Y-39183767D01*
X150298835Y-39226306D01*
X150337222Y-39396639D01*
X150421266Y-39603616D01*
X150537987Y-39794088D01*
X150684250Y-39962938D01*
X150856126Y-40105632D01*
X151049000Y-40218338D01*
X151257692Y-40298030D01*
X151262760Y-40299061D01*
X151262763Y-40299062D01*
X151370017Y-40320883D01*
X151476597Y-40342567D01*
X151481772Y-40342757D01*
X151481774Y-40342757D01*
X151694673Y-40350564D01*
X151694677Y-40350564D01*
X151699837Y-40350753D01*
X151704957Y-40350097D01*
X151704959Y-40350097D01*
X151916288Y-40323025D01*
X151916289Y-40323025D01*
X151921416Y-40322368D01*
X151944758Y-40315365D01*
X152130429Y-40259661D01*
X152130434Y-40259659D01*
X152135384Y-40258174D01*
X152335994Y-40159896D01*
X152517860Y-40030173D01*
X152676096Y-39872489D01*
X152735594Y-39789689D01*
X152803435Y-39695277D01*
X152806453Y-39691077D01*
X152837766Y-39627721D01*
X152903136Y-39495453D01*
X152903137Y-39495451D01*
X152905430Y-39490811D01*
X152950982Y-39340882D01*
X152968865Y-39282023D01*
X152968865Y-39282021D01*
X152970370Y-39277069D01*
X152999529Y-39055590D01*
X152999611Y-39052240D01*
X153001074Y-38992365D01*
X153001074Y-38992361D01*
X153001156Y-38989000D01*
X152982852Y-38766361D01*
X152928431Y-38549702D01*
X152839354Y-38344840D01*
X152718014Y-38157277D01*
X152714532Y-38153450D01*
X152570798Y-37995488D01*
X152539746Y-37931642D01*
X152548141Y-37861143D01*
X152593317Y-37806375D01*
X152619761Y-37792706D01*
X152726297Y-37752767D01*
X152734705Y-37749615D01*
X152851261Y-37662261D01*
X152938615Y-37545705D01*
X152989745Y-37409316D01*
X152996500Y-37347134D01*
X152996500Y-36038594D01*
X153016502Y-35970473D01*
X153033405Y-35949499D01*
X157647209Y-31335695D01*
X168055251Y-31335695D01*
X168055548Y-31340848D01*
X168055548Y-31340851D01*
X168061011Y-31435590D01*
X168068110Y-31558715D01*
X168069247Y-31563761D01*
X168069248Y-31563767D01*
X168083449Y-31626778D01*
X168117222Y-31776639D01*
X168201266Y-31983616D01*
X168317987Y-32174088D01*
X168464250Y-32342938D01*
X168636126Y-32485632D01*
X168829000Y-32598338D01*
X169037692Y-32678030D01*
X169042760Y-32679061D01*
X169042763Y-32679062D01*
X169137862Y-32698410D01*
X169256597Y-32722567D01*
X169261772Y-32722757D01*
X169261774Y-32722757D01*
X169474673Y-32730564D01*
X169474677Y-32730564D01*
X169479837Y-32730753D01*
X169484957Y-32730097D01*
X169484959Y-32730097D01*
X169696288Y-32703025D01*
X169696289Y-32703025D01*
X169701416Y-32702368D01*
X169706366Y-32700883D01*
X169910429Y-32639661D01*
X169910434Y-32639659D01*
X169915384Y-32638174D01*
X170115994Y-32539896D01*
X170297860Y-32410173D01*
X170456096Y-32252489D01*
X170515594Y-32169689D01*
X170583435Y-32075277D01*
X170586453Y-32071077D01*
X170685430Y-31870811D01*
X170750370Y-31657069D01*
X170779529Y-31435590D01*
X170781156Y-31369000D01*
X170762852Y-31146361D01*
X170708431Y-30929702D01*
X170619354Y-30724840D01*
X170498014Y-30537277D01*
X170478405Y-30515727D01*
X170350798Y-30375488D01*
X170319746Y-30311642D01*
X170328141Y-30241143D01*
X170373317Y-30186375D01*
X170399761Y-30172706D01*
X170506297Y-30132767D01*
X170514705Y-30129615D01*
X170631261Y-30042261D01*
X170718615Y-29925705D01*
X170769745Y-29789316D01*
X170776500Y-29727134D01*
X170776500Y-27930866D01*
X170769745Y-27868684D01*
X170718615Y-27732295D01*
X170631261Y-27615739D01*
X170514705Y-27528385D01*
X170378316Y-27477255D01*
X170316134Y-27470500D01*
X168519866Y-27470500D01*
X168457684Y-27477255D01*
X168321295Y-27528385D01*
X168204739Y-27615739D01*
X168117385Y-27732295D01*
X168066255Y-27868684D01*
X168059500Y-27930866D01*
X168059500Y-29727134D01*
X168066255Y-29789316D01*
X168117385Y-29925705D01*
X168204739Y-30042261D01*
X168321295Y-30129615D01*
X168329704Y-30132767D01*
X168329705Y-30132768D01*
X168438451Y-30173535D01*
X168495216Y-30216176D01*
X168519916Y-30282738D01*
X168504709Y-30352087D01*
X168485316Y-30378568D01*
X168358629Y-30511138D01*
X168355715Y-30515410D01*
X168355714Y-30515411D01*
X168343409Y-30533450D01*
X168232743Y-30695680D01*
X168138688Y-30898305D01*
X168078989Y-31113570D01*
X168055251Y-31335695D01*
X157647209Y-31335695D01*
X159650247Y-29332657D01*
X159658537Y-29325113D01*
X159665018Y-29321000D01*
X159711659Y-29271332D01*
X159714413Y-29268491D01*
X159734134Y-29248770D01*
X159736612Y-29245575D01*
X159744318Y-29236553D01*
X159769158Y-29210101D01*
X159774586Y-29204321D01*
X159784346Y-29186568D01*
X159795199Y-29170045D01*
X159802753Y-29160306D01*
X159807613Y-29154041D01*
X159825176Y-29113457D01*
X159830383Y-29102827D01*
X159851695Y-29064060D01*
X159853666Y-29056383D01*
X159853668Y-29056378D01*
X159856732Y-29044442D01*
X159863138Y-29025730D01*
X159868034Y-29014417D01*
X159871181Y-29007145D01*
X159878097Y-28963481D01*
X159880504Y-28951860D01*
X159889528Y-28916711D01*
X159889528Y-28916710D01*
X159891500Y-28909030D01*
X159891500Y-28888769D01*
X159893051Y-28869058D01*
X159894979Y-28856885D01*
X159896219Y-28849057D01*
X159892059Y-28805046D01*
X159891500Y-28793189D01*
X159891500Y-28769524D01*
X159911502Y-28701403D01*
X159923858Y-28685221D01*
X159997040Y-28603944D01*
X160092527Y-28438556D01*
X160151542Y-28256928D01*
X160171504Y-28067000D01*
X160151542Y-27877072D01*
X160092527Y-27695444D01*
X159997040Y-27530056D01*
X159960178Y-27489116D01*
X159873675Y-27393045D01*
X159873674Y-27393044D01*
X159869253Y-27388134D01*
X159714752Y-27275882D01*
X159708724Y-27273198D01*
X159708722Y-27273197D01*
X159546319Y-27200891D01*
X159546318Y-27200891D01*
X159540288Y-27198206D01*
X159446888Y-27178353D01*
X159359944Y-27159872D01*
X159359939Y-27159872D01*
X159353487Y-27158500D01*
X159162513Y-27158500D01*
X159156061Y-27159872D01*
X159156056Y-27159872D01*
X159069112Y-27178353D01*
X158975712Y-27198206D01*
X158969682Y-27200891D01*
X158969681Y-27200891D01*
X158807278Y-27273197D01*
X158807276Y-27273198D01*
X158801248Y-27275882D01*
X158646747Y-27388134D01*
X158642326Y-27393044D01*
X158642325Y-27393045D01*
X158555823Y-27489116D01*
X158518960Y-27530056D01*
X158423473Y-27695444D01*
X158364458Y-27877072D01*
X158344496Y-28067000D01*
X158364458Y-28256928D01*
X158423473Y-28438556D01*
X158426776Y-28444278D01*
X158426777Y-28444279D01*
X158495578Y-28563446D01*
X158512316Y-28632442D01*
X158489095Y-28699533D01*
X158475554Y-28715541D01*
X152137500Y-35053595D01*
X152075188Y-35087621D01*
X152048405Y-35090500D01*
X150739866Y-35090500D01*
X150677684Y-35097255D01*
X150541295Y-35148385D01*
X150424739Y-35235739D01*
X150337385Y-35352295D01*
X150286255Y-35488684D01*
X150279500Y-35550866D01*
X150279500Y-37347134D01*
X150286255Y-37409316D01*
X150337385Y-37545705D01*
X150424739Y-37662261D01*
X150541295Y-37749615D01*
X150549704Y-37752767D01*
X150549705Y-37752768D01*
X150658451Y-37793535D01*
X150715216Y-37836176D01*
X150739916Y-37902738D01*
X150724709Y-37972087D01*
X150705316Y-37998568D01*
X150578629Y-38131138D01*
X150452743Y-38315680D01*
X150405716Y-38416992D01*
X150361712Y-38511791D01*
X150358688Y-38518305D01*
X150298989Y-38733570D01*
X150275251Y-38955695D01*
X149606500Y-38955695D01*
X149606500Y-31636966D01*
X150306257Y-31636966D01*
X150336565Y-31771446D01*
X150339645Y-31781275D01*
X150419770Y-31978603D01*
X150424413Y-31987794D01*
X150535694Y-32169388D01*
X150541777Y-32177699D01*
X150681213Y-32338667D01*
X150688580Y-32345883D01*
X150852434Y-32481916D01*
X150860881Y-32487831D01*
X151044756Y-32595279D01*
X151054042Y-32599729D01*
X151253001Y-32675703D01*
X151262899Y-32678579D01*
X151366250Y-32699606D01*
X151380299Y-32698410D01*
X151384000Y-32688065D01*
X151384000Y-32687517D01*
X151892000Y-32687517D01*
X151896064Y-32701359D01*
X151909478Y-32703393D01*
X151916184Y-32702534D01*
X151926262Y-32700392D01*
X152130255Y-32639191D01*
X152139842Y-32635433D01*
X152331095Y-32541739D01*
X152339945Y-32536464D01*
X152513328Y-32412792D01*
X152521200Y-32406139D01*
X152672052Y-32255812D01*
X152678730Y-32247965D01*
X152803003Y-32075020D01*
X152808313Y-32066183D01*
X152902670Y-31875267D01*
X152906469Y-31865672D01*
X152968377Y-31661910D01*
X152970555Y-31651837D01*
X152971986Y-31640962D01*
X152969775Y-31626778D01*
X152956617Y-31623000D01*
X151910115Y-31623000D01*
X151894876Y-31627475D01*
X151893671Y-31628865D01*
X151892000Y-31636548D01*
X151892000Y-32687517D01*
X151384000Y-32687517D01*
X151384000Y-31641115D01*
X151379525Y-31625876D01*
X151378135Y-31624671D01*
X151370452Y-31623000D01*
X150321225Y-31623000D01*
X150307694Y-31626973D01*
X150306257Y-31636966D01*
X149606500Y-31636966D01*
X149606500Y-29723669D01*
X150280001Y-29723669D01*
X150280371Y-29730490D01*
X150285895Y-29781352D01*
X150289521Y-29796604D01*
X150334676Y-29917054D01*
X150343214Y-29932649D01*
X150419715Y-30034724D01*
X150432276Y-30047285D01*
X150534351Y-30123786D01*
X150549946Y-30132324D01*
X150659337Y-30173333D01*
X150716101Y-30215975D01*
X150740801Y-30282536D01*
X150725594Y-30351885D01*
X150706201Y-30378366D01*
X150582590Y-30507717D01*
X150576104Y-30515727D01*
X150456098Y-30691649D01*
X150451000Y-30700623D01*
X150361338Y-30893783D01*
X150357775Y-30903470D01*
X150302389Y-31103183D01*
X150303912Y-31111607D01*
X150316292Y-31115000D01*
X151365885Y-31115000D01*
X151381124Y-31110525D01*
X151382329Y-31109135D01*
X151384000Y-31101452D01*
X151384000Y-31096885D01*
X151892000Y-31096885D01*
X151896475Y-31112124D01*
X151897865Y-31113329D01*
X151905548Y-31115000D01*
X152956344Y-31115000D01*
X152969875Y-31111027D01*
X152971180Y-31101947D01*
X152929214Y-30934875D01*
X152925894Y-30925124D01*
X152840972Y-30729814D01*
X152836105Y-30720739D01*
X152720426Y-30541926D01*
X152714136Y-30533757D01*
X152569931Y-30375279D01*
X152538879Y-30311433D01*
X152547273Y-30240934D01*
X152592450Y-30186166D01*
X152618894Y-30172497D01*
X152726054Y-30132324D01*
X152741649Y-30123786D01*
X152843724Y-30047285D01*
X152856285Y-30034724D01*
X152932786Y-29932649D01*
X152941324Y-29917054D01*
X152986478Y-29796606D01*
X152990105Y-29781351D01*
X152995631Y-29730486D01*
X152996000Y-29723672D01*
X152996000Y-29101115D01*
X152991525Y-29085876D01*
X152990135Y-29084671D01*
X152982452Y-29083000D01*
X151910115Y-29083000D01*
X151894876Y-29087475D01*
X151893671Y-29088865D01*
X151892000Y-29096548D01*
X151892000Y-31096885D01*
X151384000Y-31096885D01*
X151384000Y-29101115D01*
X151379525Y-29085876D01*
X151378135Y-29084671D01*
X151370452Y-29083000D01*
X150298116Y-29083000D01*
X150282877Y-29087475D01*
X150281672Y-29088865D01*
X150280001Y-29096548D01*
X150280001Y-29723669D01*
X149606500Y-29723669D01*
X149606500Y-28556885D01*
X150280000Y-28556885D01*
X150284475Y-28572124D01*
X150285865Y-28573329D01*
X150293548Y-28575000D01*
X151365885Y-28575000D01*
X151381124Y-28570525D01*
X151382329Y-28569135D01*
X151384000Y-28561452D01*
X151384000Y-28556885D01*
X151892000Y-28556885D01*
X151896475Y-28572124D01*
X151897865Y-28573329D01*
X151905548Y-28575000D01*
X152977884Y-28575000D01*
X152993123Y-28570525D01*
X152994328Y-28569135D01*
X152995999Y-28561452D01*
X152995999Y-27934331D01*
X152995629Y-27927510D01*
X152990105Y-27876648D01*
X152986479Y-27861396D01*
X152941324Y-27740946D01*
X152932786Y-27725351D01*
X152856285Y-27623276D01*
X152843724Y-27610715D01*
X152741649Y-27534214D01*
X152726054Y-27525676D01*
X152605606Y-27480522D01*
X152590351Y-27476895D01*
X152539486Y-27471369D01*
X152532672Y-27471000D01*
X151910115Y-27471000D01*
X151894876Y-27475475D01*
X151893671Y-27476865D01*
X151892000Y-27484548D01*
X151892000Y-28556885D01*
X151384000Y-28556885D01*
X151384000Y-27489116D01*
X151379525Y-27473877D01*
X151378135Y-27472672D01*
X151370452Y-27471001D01*
X150743331Y-27471001D01*
X150736510Y-27471371D01*
X150685648Y-27476895D01*
X150670396Y-27480521D01*
X150549946Y-27525676D01*
X150534351Y-27534214D01*
X150432276Y-27610715D01*
X150419715Y-27623276D01*
X150343214Y-27725351D01*
X150334676Y-27740946D01*
X150289522Y-27861394D01*
X150285895Y-27876649D01*
X150280369Y-27927514D01*
X150280000Y-27934328D01*
X150280000Y-28556885D01*
X149606500Y-28556885D01*
X149606500Y-26923500D01*
X149626502Y-26855379D01*
X149680158Y-26808886D01*
X149732500Y-26797500D01*
X171323500Y-26797500D01*
X171391621Y-26817502D01*
G37*
%TD.AperFunction*%
%TD*%
M02*
