%TF.GenerationSoftware,KiCad,Pcbnew,6.0.7-f9a2dced07~116~ubuntu20.04.1*%
%TF.CreationDate,2022-10-31T14:46:07+01:00*%
%TF.ProjectId,scd40_board,73636434-305f-4626-9f61-72642e6b6963,rev?*%
%TF.SameCoordinates,Original*%
%TF.FileFunction,Copper,L1,Top*%
%TF.FilePolarity,Positive*%
%FSLAX46Y46*%
G04 Gerber Fmt 4.6, Leading zero omitted, Abs format (unit mm)*
G04 Created by KiCad (PCBNEW 6.0.7-f9a2dced07~116~ubuntu20.04.1) date 2022-10-31 14:46:07*
%MOMM*%
%LPD*%
G01*
G04 APERTURE LIST*
G04 Aperture macros list*
%AMRoundRect*
0 Rectangle with rounded corners*
0 $1 Rounding radius*
0 $2 $3 $4 $5 $6 $7 $8 $9 X,Y pos of 4 corners*
0 Add a 4 corners polygon primitive as box body*
4,1,4,$2,$3,$4,$5,$6,$7,$8,$9,$2,$3,0*
0 Add four circle primitives for the rounded corners*
1,1,$1+$1,$2,$3*
1,1,$1+$1,$4,$5*
1,1,$1+$1,$6,$7*
1,1,$1+$1,$8,$9*
0 Add four rect primitives between the rounded corners*
20,1,$1+$1,$2,$3,$4,$5,0*
20,1,$1+$1,$4,$5,$6,$7,0*
20,1,$1+$1,$6,$7,$8,$9,0*
20,1,$1+$1,$8,$9,$2,$3,0*%
G04 Aperture macros list end*
%TA.AperFunction,SMDPad,CuDef*%
%ADD10RoundRect,0.200000X-0.550000X-0.200000X0.550000X-0.200000X0.550000X0.200000X-0.550000X0.200000X0*%
%TD*%
%TA.AperFunction,SMDPad,CuDef*%
%ADD11RoundRect,0.200000X-0.200000X0.550000X-0.200000X-0.550000X0.200000X-0.550000X0.200000X0.550000X0*%
%TD*%
%TA.AperFunction,SMDPad,CuDef*%
%ADD12RoundRect,0.200000X0.550000X0.200000X-0.550000X0.200000X-0.550000X-0.200000X0.550000X-0.200000X0*%
%TD*%
%TA.AperFunction,SMDPad,CuDef*%
%ADD13RoundRect,0.200000X0.200000X-0.550000X0.200000X0.550000X-0.200000X0.550000X-0.200000X-0.550000X0*%
%TD*%
%TA.AperFunction,SMDPad,CuDef*%
%ADD14R,2.300000X2.300000*%
%TD*%
%TA.AperFunction,ComponentPad*%
%ADD15R,1.700000X1.700000*%
%TD*%
%TA.AperFunction,ComponentPad*%
%ADD16O,1.700000X1.700000*%
%TD*%
%TA.AperFunction,ViaPad*%
%ADD17C,0.800000*%
%TD*%
%TA.AperFunction,Conductor*%
%ADD18C,0.250000*%
%TD*%
G04 APERTURE END LIST*
D10*
%TO.P,U1,1,dnc*%
%TO.N,unconnected-(U1-Pad1)*%
X156278000Y-31409000D03*
%TO.P,U1,2,dnc*%
%TO.N,unconnected-(U1-Pad2)*%
X156278000Y-32659000D03*
%TO.P,U1,3,dnc*%
%TO.N,unconnected-(U1-Pad3)*%
X156278000Y-33909000D03*
%TO.P,U1,4,dnc*%
%TO.N,unconnected-(U1-Pad4)*%
X156278000Y-35159000D03*
%TO.P,U1,5,dnc*%
%TO.N,unconnected-(U1-Pad5)*%
X156278000Y-36409000D03*
D11*
%TO.P,U1,6,GND*%
%TO.N,GND*%
X158028000Y-38159000D03*
%TO.P,U1,7,VDD*%
%TO.N,Net-(J1-Pad1)*%
X159278000Y-38159000D03*
%TO.P,U1,8,dnc*%
%TO.N,unconnected-(U1-Pad8)*%
X160528000Y-38159000D03*
%TO.P,U1,9,SCL*%
%TO.N,Net-(J4-Pad1)*%
X161778000Y-38159000D03*
%TO.P,U1,10,SDA*%
%TO.N,Net-(J3-Pad1)*%
X163028000Y-38159000D03*
D12*
%TO.P,U1,11,dnc*%
%TO.N,unconnected-(U1-Pad11)*%
X164778000Y-36409000D03*
%TO.P,U1,12,dnc*%
%TO.N,unconnected-(U1-Pad12)*%
X164778000Y-35159000D03*
%TO.P,U1,13,dnc*%
%TO.N,unconnected-(U1-Pad13)*%
X164778000Y-33909000D03*
%TO.P,U1,14,dnc*%
%TO.N,unconnected-(U1-Pad14)*%
X164778000Y-32659000D03*
%TO.P,U1,15,dnc*%
%TO.N,unconnected-(U1-Pad15)*%
X164778000Y-31409000D03*
D13*
%TO.P,U1,16,dnc*%
%TO.N,unconnected-(U1-Pad16)*%
X163028000Y-29659000D03*
%TO.P,U1,17,dnc*%
%TO.N,unconnected-(U1-Pad17)*%
X161778000Y-29659000D03*
%TO.P,U1,18,dnc*%
%TO.N,unconnected-(U1-Pad18)*%
X160528000Y-29659000D03*
%TO.P,U1,19,VDDH*%
%TO.N,Net-(J1-Pad1)*%
X159278000Y-29659000D03*
%TO.P,U1,20,GND*%
%TO.N,GND*%
X158028000Y-29659000D03*
D14*
%TO.P,U1,21,GNDpad*%
X159028000Y-35409000D03*
%TO.P,U1,22,gndpad*%
X162028000Y-35409000D03*
%TO.P,U1,23,gndpad*%
X162028000Y-32409000D03*
%TO.P,U1,24,gndpad*%
X159028000Y-32409000D03*
%TD*%
D15*
%TO.P,J2,1,Pin_1*%
%TO.N,GND*%
X151638000Y-28829000D03*
D16*
%TO.P,J2,2,Pin_2*%
X151638000Y-31369000D03*
%TD*%
D15*
%TO.P,J3,1,Pin_1*%
%TO.N,Net-(J3-Pad1)*%
X169418000Y-28829000D03*
D16*
%TO.P,J3,2,Pin_2*%
X169418000Y-31369000D03*
%TD*%
D15*
%TO.P,J4,1,Pin_1*%
%TO.N,Net-(J4-Pad1)*%
X169418000Y-36449000D03*
D16*
%TO.P,J4,2,Pin_2*%
X169418000Y-38989000D03*
%TD*%
D15*
%TO.P,J1,1,Pin_1*%
%TO.N,Net-(J1-Pad1)*%
X151638000Y-36449000D03*
D16*
%TO.P,J1,2,Pin_2*%
X151638000Y-38989000D03*
%TD*%
D17*
%TO.N,Net-(J1-Pad1)*%
X158750000Y-40005000D03*
X159258000Y-28067000D03*
%TO.N,GND*%
X162052000Y-35306000D03*
X159004000Y-32512000D03*
X162179000Y-32512000D03*
X159004000Y-35433000D03*
%TO.N,Net-(J3-Pad1)*%
X164846000Y-40132000D03*
%TO.N,Net-(J4-Pad1)*%
X161671000Y-40386000D03*
%TD*%
D18*
%TO.N,Net-(J1-Pad1)*%
X155067000Y-40005000D02*
X158750000Y-40005000D01*
X159258000Y-28067000D02*
X159258000Y-29639000D01*
X151638000Y-38989000D02*
X151638000Y-36449000D01*
X151638000Y-38989000D02*
X154051000Y-38989000D01*
X159278000Y-39477000D02*
X158750000Y-40005000D01*
X159258000Y-29639000D02*
X159278000Y-29659000D01*
X159278000Y-38159000D02*
X159278000Y-39477000D01*
X154051000Y-38989000D02*
X155067000Y-40005000D01*
%TO.N,Net-(J3-Pad1)*%
X164846000Y-40132000D02*
X166751000Y-38227000D01*
X164846000Y-40132000D02*
X163028000Y-38314000D01*
X166751000Y-38227000D02*
X166751000Y-34036000D01*
X169418000Y-28829000D02*
X169418000Y-31369000D01*
X163028000Y-38314000D02*
X163028000Y-38159000D01*
X166751000Y-34036000D02*
X169418000Y-31369000D01*
%TO.N,Net-(J4-Pad1)*%
X162306000Y-41021000D02*
X161671000Y-40386000D01*
X169418000Y-38989000D02*
X167386000Y-38989000D01*
X167386000Y-38989000D02*
X165354000Y-41021000D01*
X161778000Y-40279000D02*
X161778000Y-38159000D01*
X165354000Y-41021000D02*
X162306000Y-41021000D01*
X161671000Y-40386000D02*
X161778000Y-40279000D01*
%TD*%
%TA.AperFunction,Conductor*%
%TO.N,GND*%
G36*
X171391621Y-26817502D02*
G01*
X171438114Y-26871158D01*
X171449500Y-26923500D01*
X171449500Y-40894500D01*
X171429498Y-40962621D01*
X171375842Y-41009114D01*
X171323500Y-41020500D01*
X166554594Y-41020500D01*
X166486473Y-41000498D01*
X166439980Y-40946842D01*
X166429876Y-40876568D01*
X166459370Y-40811988D01*
X166465499Y-40805405D01*
X166950022Y-40320883D01*
X167611500Y-39659405D01*
X167673812Y-39625379D01*
X167700595Y-39622500D01*
X168142274Y-39622500D01*
X168210395Y-39642502D01*
X168249707Y-39682665D01*
X168317987Y-39794088D01*
X168464250Y-39962938D01*
X168636126Y-40105632D01*
X168829000Y-40218338D01*
X169037692Y-40298030D01*
X169042760Y-40299061D01*
X169042763Y-40299062D01*
X169115410Y-40313842D01*
X169256597Y-40342567D01*
X169261772Y-40342757D01*
X169261774Y-40342757D01*
X169474673Y-40350564D01*
X169474677Y-40350564D01*
X169479837Y-40350753D01*
X169484957Y-40350097D01*
X169484959Y-40350097D01*
X169696288Y-40323025D01*
X169696289Y-40323025D01*
X169701416Y-40322368D01*
X169706366Y-40320883D01*
X169910429Y-40259661D01*
X169910434Y-40259659D01*
X169915384Y-40258174D01*
X170115994Y-40159896D01*
X170297860Y-40030173D01*
X170456096Y-39872489D01*
X170466436Y-39858100D01*
X170583435Y-39695277D01*
X170586453Y-39691077D01*
X170590145Y-39683608D01*
X170683136Y-39495453D01*
X170683137Y-39495451D01*
X170685430Y-39490811D01*
X170735463Y-39326134D01*
X170748865Y-39282023D01*
X170748865Y-39282021D01*
X170750370Y-39277069D01*
X170779529Y-39055590D01*
X170780821Y-39002699D01*
X170781074Y-38992365D01*
X170781074Y-38992361D01*
X170781156Y-38989000D01*
X170762852Y-38766361D01*
X170708431Y-38549702D01*
X170619354Y-38344840D01*
X170523793Y-38197125D01*
X170500822Y-38161617D01*
X170500820Y-38161614D01*
X170498014Y-38157277D01*
X170494532Y-38153450D01*
X170350798Y-37995488D01*
X170319746Y-37931642D01*
X170328141Y-37861143D01*
X170373317Y-37806375D01*
X170399761Y-37792706D01*
X170506297Y-37752767D01*
X170514705Y-37749615D01*
X170631261Y-37662261D01*
X170718615Y-37545705D01*
X170769745Y-37409316D01*
X170776500Y-37347134D01*
X170776500Y-35550866D01*
X170769745Y-35488684D01*
X170718615Y-35352295D01*
X170631261Y-35235739D01*
X170514705Y-35148385D01*
X170378316Y-35097255D01*
X170316134Y-35090500D01*
X168519866Y-35090500D01*
X168457684Y-35097255D01*
X168321295Y-35148385D01*
X168204739Y-35235739D01*
X168117385Y-35352295D01*
X168066255Y-35488684D01*
X168059500Y-35550866D01*
X168059500Y-37347134D01*
X168066255Y-37409316D01*
X168117385Y-37545705D01*
X168204739Y-37662261D01*
X168321295Y-37749615D01*
X168329704Y-37752767D01*
X168329705Y-37752768D01*
X168438451Y-37793535D01*
X168495216Y-37836176D01*
X168519916Y-37902738D01*
X168504709Y-37972087D01*
X168485316Y-37998568D01*
X168358629Y-38131138D01*
X168355715Y-38135410D01*
X168355714Y-38135411D01*
X168243095Y-38300504D01*
X168188184Y-38345507D01*
X168139007Y-38355500D01*
X167514122Y-38355500D01*
X167446001Y-38335498D01*
X167399508Y-38281842D01*
X167388681Y-38241357D01*
X167385059Y-38203038D01*
X167384500Y-38191181D01*
X167384500Y-34350594D01*
X167404502Y-34282473D01*
X167421405Y-34261499D01*
X168962549Y-32720355D01*
X169024861Y-32686329D01*
X169076762Y-32685979D01*
X169256597Y-32722567D01*
X169261772Y-32722757D01*
X169261774Y-32722757D01*
X169474673Y-32730564D01*
X169474677Y-32730564D01*
X169479837Y-32730753D01*
X169484957Y-32730097D01*
X169484959Y-32730097D01*
X169696288Y-32703025D01*
X169696289Y-32703025D01*
X169701416Y-32702368D01*
X169706366Y-32700883D01*
X169910429Y-32639661D01*
X169910434Y-32639659D01*
X169915384Y-32638174D01*
X170115994Y-32539896D01*
X170297860Y-32410173D01*
X170305695Y-32402366D01*
X170452435Y-32256137D01*
X170456096Y-32252489D01*
X170586453Y-32071077D01*
X170603118Y-32037359D01*
X170683136Y-31875453D01*
X170683137Y-31875451D01*
X170685430Y-31870811D01*
X170746897Y-31668501D01*
X170748865Y-31662023D01*
X170748865Y-31662021D01*
X170750370Y-31657069D01*
X170779529Y-31435590D01*
X170781156Y-31369000D01*
X170762852Y-31146361D01*
X170708431Y-30929702D01*
X170619354Y-30724840D01*
X170498014Y-30537277D01*
X170494532Y-30533450D01*
X170350798Y-30375488D01*
X170319746Y-30311642D01*
X170328141Y-30241143D01*
X170373317Y-30186375D01*
X170399761Y-30172706D01*
X170506297Y-30132767D01*
X170514705Y-30129615D01*
X170631261Y-30042261D01*
X170718615Y-29925705D01*
X170769745Y-29789316D01*
X170776500Y-29727134D01*
X170776500Y-27930866D01*
X170769745Y-27868684D01*
X170718615Y-27732295D01*
X170631261Y-27615739D01*
X170514705Y-27528385D01*
X170378316Y-27477255D01*
X170316134Y-27470500D01*
X168519866Y-27470500D01*
X168457684Y-27477255D01*
X168321295Y-27528385D01*
X168204739Y-27615739D01*
X168117385Y-27732295D01*
X168066255Y-27868684D01*
X168059500Y-27930866D01*
X168059500Y-29727134D01*
X168066255Y-29789316D01*
X168117385Y-29925705D01*
X168204739Y-30042261D01*
X168321295Y-30129615D01*
X168329704Y-30132767D01*
X168329705Y-30132768D01*
X168438451Y-30173535D01*
X168495216Y-30216176D01*
X168519916Y-30282738D01*
X168504709Y-30352087D01*
X168485316Y-30378568D01*
X168366694Y-30502699D01*
X168358629Y-30511138D01*
X168355715Y-30515410D01*
X168355714Y-30515411D01*
X168326302Y-30558528D01*
X168232743Y-30695680D01*
X168185715Y-30796993D01*
X168156714Y-30859472D01*
X168138688Y-30898305D01*
X168078989Y-31113570D01*
X168055251Y-31335695D01*
X168055548Y-31340848D01*
X168055548Y-31340851D01*
X168061011Y-31435590D01*
X168068110Y-31558715D01*
X168069247Y-31563761D01*
X168069248Y-31563767D01*
X168101453Y-31706668D01*
X168096917Y-31777520D01*
X168067631Y-31823464D01*
X166358747Y-33532348D01*
X166350461Y-33539888D01*
X166343982Y-33544000D01*
X166338557Y-33549777D01*
X166297357Y-33593651D01*
X166294602Y-33596493D01*
X166274865Y-33616230D01*
X166272385Y-33619427D01*
X166264678Y-33628451D01*
X166246005Y-33648335D01*
X166184792Y-33684299D01*
X166113852Y-33681460D01*
X166055709Y-33640718D01*
X166030610Y-33586824D01*
X166030365Y-33585601D01*
X166029753Y-33578938D01*
X165978472Y-33415301D01*
X165938483Y-33349271D01*
X165920304Y-33280641D01*
X165938483Y-33218729D01*
X165974537Y-33159196D01*
X165978472Y-33152699D01*
X166029753Y-32989062D01*
X166036500Y-32915635D01*
X166036499Y-32402366D01*
X166036234Y-32399474D01*
X166030364Y-32335592D01*
X166029753Y-32328938D01*
X166014730Y-32281000D01*
X165980744Y-32172550D01*
X165980743Y-32172548D01*
X165978472Y-32165301D01*
X165938483Y-32099271D01*
X165920304Y-32030641D01*
X165938483Y-31968729D01*
X165974537Y-31909196D01*
X165978472Y-31902699D01*
X165987011Y-31875453D01*
X166027752Y-31745446D01*
X166029753Y-31739062D01*
X166036500Y-31665635D01*
X166036499Y-31152366D01*
X166036234Y-31149474D01*
X166030364Y-31085592D01*
X166029753Y-31078938D01*
X165982985Y-30929702D01*
X165980744Y-30922550D01*
X165980743Y-30922548D01*
X165978472Y-30915301D01*
X165889639Y-30768619D01*
X165768381Y-30647361D01*
X165621699Y-30558528D01*
X165614452Y-30556257D01*
X165614450Y-30556256D01*
X165541675Y-30533450D01*
X165458062Y-30507247D01*
X165384635Y-30500500D01*
X165381737Y-30500500D01*
X164776426Y-30500501D01*
X164171366Y-30500501D01*
X164168508Y-30500764D01*
X164168499Y-30500764D01*
X164132996Y-30504026D01*
X164097938Y-30507247D01*
X164082975Y-30511936D01*
X164011992Y-30513219D01*
X163951582Y-30475921D01*
X163920926Y-30411884D01*
X163925064Y-30354023D01*
X163925734Y-30351885D01*
X163929753Y-30339062D01*
X163936500Y-30265635D01*
X163936499Y-29052366D01*
X163929753Y-28978938D01*
X163878472Y-28815301D01*
X163789639Y-28668619D01*
X163668381Y-28547361D01*
X163521699Y-28458528D01*
X163514452Y-28456257D01*
X163514450Y-28456256D01*
X163448164Y-28435483D01*
X163358062Y-28407247D01*
X163284635Y-28400500D01*
X163281737Y-28400500D01*
X163027335Y-28400501D01*
X162771366Y-28400501D01*
X162768508Y-28400764D01*
X162768499Y-28400764D01*
X162734619Y-28403877D01*
X162697938Y-28407247D01*
X162691560Y-28409246D01*
X162691559Y-28409246D01*
X162541550Y-28456256D01*
X162541548Y-28456257D01*
X162534301Y-28458528D01*
X162468271Y-28498517D01*
X162399641Y-28516696D01*
X162337729Y-28498517D01*
X162271699Y-28458528D01*
X162264452Y-28456257D01*
X162264450Y-28456256D01*
X162198164Y-28435483D01*
X162108062Y-28407247D01*
X162034635Y-28400500D01*
X162031737Y-28400500D01*
X161777335Y-28400501D01*
X161521366Y-28400501D01*
X161518508Y-28400764D01*
X161518499Y-28400764D01*
X161484619Y-28403877D01*
X161447938Y-28407247D01*
X161441560Y-28409246D01*
X161441559Y-28409246D01*
X161291550Y-28456256D01*
X161291548Y-28456257D01*
X161284301Y-28458528D01*
X161218271Y-28498517D01*
X161149641Y-28516696D01*
X161087729Y-28498517D01*
X161021699Y-28458528D01*
X161014452Y-28456257D01*
X161014450Y-28456256D01*
X160948164Y-28435483D01*
X160858062Y-28407247D01*
X160784635Y-28400500D01*
X160584923Y-28400500D01*
X160275916Y-28400501D01*
X160207795Y-28380499D01*
X160161302Y-28326844D01*
X160151339Y-28257552D01*
X160151542Y-28256928D01*
X160171504Y-28067000D01*
X160151542Y-27877072D01*
X160092527Y-27695444D01*
X159997040Y-27530056D01*
X159960178Y-27489116D01*
X159873675Y-27393045D01*
X159873674Y-27393044D01*
X159869253Y-27388134D01*
X159714752Y-27275882D01*
X159708724Y-27273198D01*
X159708722Y-27273197D01*
X159546319Y-27200891D01*
X159546318Y-27200891D01*
X159540288Y-27198206D01*
X159446888Y-27178353D01*
X159359944Y-27159872D01*
X159359939Y-27159872D01*
X159353487Y-27158500D01*
X159162513Y-27158500D01*
X159156061Y-27159872D01*
X159156056Y-27159872D01*
X159069112Y-27178353D01*
X158975712Y-27198206D01*
X158969682Y-27200891D01*
X158969681Y-27200891D01*
X158807278Y-27273197D01*
X158807276Y-27273198D01*
X158801248Y-27275882D01*
X158646747Y-27388134D01*
X158642326Y-27393044D01*
X158642325Y-27393045D01*
X158555823Y-27489116D01*
X158518960Y-27530056D01*
X158423473Y-27695444D01*
X158364458Y-27877072D01*
X158344496Y-28067000D01*
X158364458Y-28256928D01*
X158365832Y-28261157D01*
X158360491Y-28331149D01*
X158317674Y-28387782D01*
X158286967Y-28403061D01*
X158283671Y-28406865D01*
X158282000Y-28414548D01*
X158282000Y-29787000D01*
X158261998Y-29855121D01*
X158208342Y-29901614D01*
X158156000Y-29913000D01*
X157138116Y-29913000D01*
X157122877Y-29917475D01*
X157121672Y-29918865D01*
X157120001Y-29926548D01*
X157120001Y-30262705D01*
X157120264Y-30268454D01*
X157126132Y-30332315D01*
X157128742Y-30345349D01*
X157131518Y-30354207D01*
X157132801Y-30425192D01*
X157095502Y-30485602D01*
X157031465Y-30516257D01*
X156973602Y-30512117D01*
X156968851Y-30510628D01*
X156964445Y-30509247D01*
X156964442Y-30509246D01*
X156958062Y-30507247D01*
X156884635Y-30500500D01*
X156881737Y-30500500D01*
X156276426Y-30500501D01*
X155671366Y-30500501D01*
X155668508Y-30500764D01*
X155668499Y-30500764D01*
X155632996Y-30504026D01*
X155597938Y-30507247D01*
X155591560Y-30509246D01*
X155591559Y-30509246D01*
X155441550Y-30556256D01*
X155441548Y-30556257D01*
X155434301Y-30558528D01*
X155287619Y-30647361D01*
X155166361Y-30768619D01*
X155077528Y-30915301D01*
X155075257Y-30922548D01*
X155075256Y-30922550D01*
X155073015Y-30929702D01*
X155026247Y-31078938D01*
X155019500Y-31152365D01*
X155019501Y-31665634D01*
X155019764Y-31668492D01*
X155019764Y-31668501D01*
X155023026Y-31704004D01*
X155026247Y-31739062D01*
X155028246Y-31745440D01*
X155028246Y-31745441D01*
X155068990Y-31875453D01*
X155077528Y-31902699D01*
X155081463Y-31909196D01*
X155117517Y-31968729D01*
X155135696Y-32037359D01*
X155117517Y-32099270D01*
X155077528Y-32165301D01*
X155075257Y-32172548D01*
X155075256Y-32172550D01*
X155062618Y-32212879D01*
X155026247Y-32328938D01*
X155019500Y-32402365D01*
X155019501Y-32915634D01*
X155019764Y-32918492D01*
X155019764Y-32918501D01*
X155023026Y-32954004D01*
X155026247Y-32989062D01*
X155077528Y-33152699D01*
X155081463Y-33159196D01*
X155117517Y-33218729D01*
X155135696Y-33287359D01*
X155117517Y-33349270D01*
X155077528Y-33415301D01*
X155026247Y-33578938D01*
X155019500Y-33652365D01*
X155019501Y-34165634D01*
X155026247Y-34239062D01*
X155077528Y-34402699D01*
X155081463Y-34409196D01*
X155117517Y-34468729D01*
X155135696Y-34537359D01*
X155117517Y-34599270D01*
X155077528Y-34665301D01*
X155026247Y-34828938D01*
X155019500Y-34902365D01*
X155019501Y-35415634D01*
X155026247Y-35489062D01*
X155077528Y-35652699D01*
X155117517Y-35718729D01*
X155135696Y-35787359D01*
X155117517Y-35849270D01*
X155077528Y-35915301D01*
X155026247Y-36078938D01*
X155019500Y-36152365D01*
X155019501Y-36665634D01*
X155026247Y-36739062D01*
X155077528Y-36902699D01*
X155166361Y-37049381D01*
X155287619Y-37170639D01*
X155434301Y-37259472D01*
X155441548Y-37261743D01*
X155441550Y-37261744D01*
X155507836Y-37282517D01*
X155597938Y-37310753D01*
X155671365Y-37317500D01*
X155674263Y-37317500D01*
X156279574Y-37317499D01*
X156884634Y-37317499D01*
X156887492Y-37317236D01*
X156887501Y-37317236D01*
X156923004Y-37313974D01*
X156958062Y-37310753D01*
X156973602Y-37305883D01*
X157044586Y-37304597D01*
X157104997Y-37341892D01*
X157135655Y-37405928D01*
X157131518Y-37463793D01*
X157128744Y-37472646D01*
X157126131Y-37485694D01*
X157120266Y-37549521D01*
X157120000Y-37555309D01*
X157120000Y-37886885D01*
X157124475Y-37902124D01*
X157125865Y-37903329D01*
X157133548Y-37905000D01*
X158156000Y-37905000D01*
X158224121Y-37925002D01*
X158270614Y-37978658D01*
X158282000Y-38031000D01*
X158282000Y-38287000D01*
X158261998Y-38355121D01*
X158208342Y-38401614D01*
X158156000Y-38413000D01*
X157138116Y-38413000D01*
X157122877Y-38417475D01*
X157121672Y-38418865D01*
X157120001Y-38426548D01*
X157120001Y-38762705D01*
X157120264Y-38768454D01*
X157126132Y-38832315D01*
X157128743Y-38845351D01*
X157175715Y-38995243D01*
X157181921Y-39008988D01*
X157262824Y-39142574D01*
X157272131Y-39154443D01*
X157274093Y-39156405D01*
X157275064Y-39158184D01*
X157276814Y-39160415D01*
X157276442Y-39160707D01*
X157308119Y-39218717D01*
X157303054Y-39289532D01*
X157260507Y-39346368D01*
X157193987Y-39371179D01*
X157184998Y-39371500D01*
X155381595Y-39371500D01*
X155313474Y-39351498D01*
X155292499Y-39334595D01*
X154554647Y-38596742D01*
X154547113Y-38588463D01*
X154543000Y-38581982D01*
X154493348Y-38535356D01*
X154490507Y-38532602D01*
X154470770Y-38512865D01*
X154467573Y-38510385D01*
X154458551Y-38502680D01*
X154432100Y-38477841D01*
X154426321Y-38472414D01*
X154419375Y-38468595D01*
X154419372Y-38468593D01*
X154408566Y-38462652D01*
X154392047Y-38451801D01*
X154391583Y-38451441D01*
X154376041Y-38439386D01*
X154368772Y-38436241D01*
X154368768Y-38436238D01*
X154335463Y-38421826D01*
X154324813Y-38416609D01*
X154286060Y-38395305D01*
X154266437Y-38390267D01*
X154247734Y-38383863D01*
X154236420Y-38378967D01*
X154236419Y-38378967D01*
X154229145Y-38375819D01*
X154221322Y-38374580D01*
X154221312Y-38374577D01*
X154185476Y-38368901D01*
X154173856Y-38366495D01*
X154138711Y-38357472D01*
X154138710Y-38357472D01*
X154131030Y-38355500D01*
X154110776Y-38355500D01*
X154091065Y-38353949D01*
X154078886Y-38352020D01*
X154071057Y-38350780D01*
X154063165Y-38351526D01*
X154027039Y-38354941D01*
X154015181Y-38355500D01*
X152914805Y-38355500D01*
X152846684Y-38335498D01*
X152809013Y-38297940D01*
X152720822Y-38161617D01*
X152720820Y-38161614D01*
X152718014Y-38157277D01*
X152714532Y-38153450D01*
X152570798Y-37995488D01*
X152539746Y-37931642D01*
X152548141Y-37861143D01*
X152593317Y-37806375D01*
X152619761Y-37792706D01*
X152726297Y-37752767D01*
X152734705Y-37749615D01*
X152851261Y-37662261D01*
X152938615Y-37545705D01*
X152989745Y-37409316D01*
X152996500Y-37347134D01*
X152996500Y-35550866D01*
X152989745Y-35488684D01*
X152938615Y-35352295D01*
X152851261Y-35235739D01*
X152734705Y-35148385D01*
X152598316Y-35097255D01*
X152536134Y-35090500D01*
X150739866Y-35090500D01*
X150677684Y-35097255D01*
X150541295Y-35148385D01*
X150424739Y-35235739D01*
X150337385Y-35352295D01*
X150286255Y-35488684D01*
X150279500Y-35550866D01*
X150279500Y-37347134D01*
X150286255Y-37409316D01*
X150337385Y-37545705D01*
X150424739Y-37662261D01*
X150541295Y-37749615D01*
X150549704Y-37752767D01*
X150549705Y-37752768D01*
X150658451Y-37793535D01*
X150715216Y-37836176D01*
X150739916Y-37902738D01*
X150724709Y-37972087D01*
X150705316Y-37998568D01*
X150578629Y-38131138D01*
X150452743Y-38315680D01*
X150414011Y-38399121D01*
X150377471Y-38477841D01*
X150358688Y-38518305D01*
X150298989Y-38733570D01*
X150275251Y-38955695D01*
X150275548Y-38960848D01*
X150275548Y-38960851D01*
X150286824Y-39156405D01*
X150288110Y-39178715D01*
X150289247Y-39183761D01*
X150289248Y-39183767D01*
X150296035Y-39213882D01*
X150337222Y-39396639D01*
X150377346Y-39495453D01*
X150412228Y-39581357D01*
X150421266Y-39603616D01*
X150457301Y-39662420D01*
X150535291Y-39789688D01*
X150537987Y-39794088D01*
X150684250Y-39962938D01*
X150856126Y-40105632D01*
X151049000Y-40218338D01*
X151257692Y-40298030D01*
X151262760Y-40299061D01*
X151262763Y-40299062D01*
X151335410Y-40313842D01*
X151476597Y-40342567D01*
X151481772Y-40342757D01*
X151481774Y-40342757D01*
X151694673Y-40350564D01*
X151694677Y-40350564D01*
X151699837Y-40350753D01*
X151704957Y-40350097D01*
X151704959Y-40350097D01*
X151916288Y-40323025D01*
X151916289Y-40323025D01*
X151921416Y-40322368D01*
X151926366Y-40320883D01*
X152130429Y-40259661D01*
X152130434Y-40259659D01*
X152135384Y-40258174D01*
X152335994Y-40159896D01*
X152517860Y-40030173D01*
X152676096Y-39872489D01*
X152686436Y-39858100D01*
X152803435Y-39695277D01*
X152806453Y-39691077D01*
X152808746Y-39686437D01*
X152810446Y-39683608D01*
X152862674Y-39635518D01*
X152918451Y-39622500D01*
X153736405Y-39622500D01*
X153804526Y-39642502D01*
X153825501Y-39659405D01*
X154196268Y-40030173D01*
X154563353Y-40397258D01*
X154570887Y-40405537D01*
X154575000Y-40412018D01*
X154624651Y-40458643D01*
X154627493Y-40461398D01*
X154647230Y-40481135D01*
X154650427Y-40483615D01*
X154659447Y-40491318D01*
X154691679Y-40521586D01*
X154698625Y-40525405D01*
X154698628Y-40525407D01*
X154709434Y-40531348D01*
X154725953Y-40542199D01*
X154741959Y-40554614D01*
X154749228Y-40557759D01*
X154749232Y-40557762D01*
X154782537Y-40572174D01*
X154793187Y-40577391D01*
X154831940Y-40598695D01*
X154839615Y-40600666D01*
X154839616Y-40600666D01*
X154851562Y-40603733D01*
X154870267Y-40610137D01*
X154888855Y-40618181D01*
X154896678Y-40619420D01*
X154896688Y-40619423D01*
X154932524Y-40625099D01*
X154944144Y-40627505D01*
X154979289Y-40636528D01*
X154986970Y-40638500D01*
X155007224Y-40638500D01*
X155026934Y-40640051D01*
X155046943Y-40643220D01*
X155054835Y-40642474D01*
X155090961Y-40639059D01*
X155102819Y-40638500D01*
X158041800Y-40638500D01*
X158109921Y-40658502D01*
X158129147Y-40674843D01*
X158129420Y-40674540D01*
X158134332Y-40678963D01*
X158138747Y-40683866D01*
X158157278Y-40697330D01*
X158288356Y-40792564D01*
X158331710Y-40848787D01*
X158337785Y-40919523D01*
X158304653Y-40982314D01*
X158242833Y-41017226D01*
X158214295Y-41020500D01*
X149732500Y-41020500D01*
X149664379Y-41000498D01*
X149617886Y-40946842D01*
X149606500Y-40894500D01*
X149606500Y-31636966D01*
X150306257Y-31636966D01*
X150336565Y-31771446D01*
X150339645Y-31781275D01*
X150419770Y-31978603D01*
X150424413Y-31987794D01*
X150535694Y-32169388D01*
X150541777Y-32177699D01*
X150681213Y-32338667D01*
X150688580Y-32345883D01*
X150852434Y-32481916D01*
X150860881Y-32487831D01*
X151044756Y-32595279D01*
X151054042Y-32599729D01*
X151253001Y-32675703D01*
X151262899Y-32678579D01*
X151366250Y-32699606D01*
X151380299Y-32698410D01*
X151384000Y-32688065D01*
X151384000Y-32687517D01*
X151892000Y-32687517D01*
X151896064Y-32701359D01*
X151909478Y-32703393D01*
X151916184Y-32702534D01*
X151926262Y-32700392D01*
X152130255Y-32639191D01*
X152139842Y-32635433D01*
X152331095Y-32541739D01*
X152339945Y-32536464D01*
X152513328Y-32412792D01*
X152521200Y-32406139D01*
X152672052Y-32255812D01*
X152678730Y-32247965D01*
X152803003Y-32075020D01*
X152808313Y-32066183D01*
X152902670Y-31875267D01*
X152906469Y-31865672D01*
X152968377Y-31661910D01*
X152970555Y-31651837D01*
X152971986Y-31640962D01*
X152969775Y-31626778D01*
X152956617Y-31623000D01*
X151910115Y-31623000D01*
X151894876Y-31627475D01*
X151893671Y-31628865D01*
X151892000Y-31636548D01*
X151892000Y-32687517D01*
X151384000Y-32687517D01*
X151384000Y-31641115D01*
X151379525Y-31625876D01*
X151378135Y-31624671D01*
X151370452Y-31623000D01*
X150321225Y-31623000D01*
X150307694Y-31626973D01*
X150306257Y-31636966D01*
X149606500Y-31636966D01*
X149606500Y-29723669D01*
X150280001Y-29723669D01*
X150280371Y-29730490D01*
X150285895Y-29781352D01*
X150289521Y-29796604D01*
X150334676Y-29917054D01*
X150343214Y-29932649D01*
X150419715Y-30034724D01*
X150432276Y-30047285D01*
X150534351Y-30123786D01*
X150549946Y-30132324D01*
X150659337Y-30173333D01*
X150716101Y-30215975D01*
X150740801Y-30282536D01*
X150725594Y-30351885D01*
X150706201Y-30378366D01*
X150582590Y-30507717D01*
X150576104Y-30515727D01*
X150456098Y-30691649D01*
X150451000Y-30700623D01*
X150361338Y-30893783D01*
X150357775Y-30903470D01*
X150302389Y-31103183D01*
X150303912Y-31111607D01*
X150316292Y-31115000D01*
X151365885Y-31115000D01*
X151381124Y-31110525D01*
X151382329Y-31109135D01*
X151384000Y-31101452D01*
X151384000Y-31096885D01*
X151892000Y-31096885D01*
X151896475Y-31112124D01*
X151897865Y-31113329D01*
X151905548Y-31115000D01*
X152956344Y-31115000D01*
X152969875Y-31111027D01*
X152971180Y-31101947D01*
X152929214Y-30934875D01*
X152925894Y-30925124D01*
X152840972Y-30729814D01*
X152836105Y-30720739D01*
X152720426Y-30541926D01*
X152714136Y-30533757D01*
X152569931Y-30375279D01*
X152538879Y-30311433D01*
X152547273Y-30240934D01*
X152592450Y-30186166D01*
X152618894Y-30172497D01*
X152726054Y-30132324D01*
X152741649Y-30123786D01*
X152843724Y-30047285D01*
X152856285Y-30034724D01*
X152932786Y-29932649D01*
X152941324Y-29917054D01*
X152986478Y-29796606D01*
X152990105Y-29781351D01*
X152995631Y-29730486D01*
X152996000Y-29723672D01*
X152996000Y-29386885D01*
X157120000Y-29386885D01*
X157124475Y-29402124D01*
X157125865Y-29403329D01*
X157133548Y-29405000D01*
X157755885Y-29405000D01*
X157771124Y-29400525D01*
X157772329Y-29399135D01*
X157774000Y-29391452D01*
X157774000Y-28419116D01*
X157769525Y-28403877D01*
X157768135Y-28402672D01*
X157763706Y-28401709D01*
X157704685Y-28407132D01*
X157691649Y-28409743D01*
X157541757Y-28456715D01*
X157528012Y-28462921D01*
X157394426Y-28543824D01*
X157382557Y-28553131D01*
X157272131Y-28663557D01*
X157262824Y-28675426D01*
X157181921Y-28809012D01*
X157175715Y-28822757D01*
X157128744Y-28972644D01*
X157126131Y-28985694D01*
X157120266Y-29049521D01*
X157120000Y-29055309D01*
X157120000Y-29386885D01*
X152996000Y-29386885D01*
X152996000Y-29101115D01*
X152991525Y-29085876D01*
X152990135Y-29084671D01*
X152982452Y-29083000D01*
X151910115Y-29083000D01*
X151894876Y-29087475D01*
X151893671Y-29088865D01*
X151892000Y-29096548D01*
X151892000Y-31096885D01*
X151384000Y-31096885D01*
X151384000Y-29101115D01*
X151379525Y-29085876D01*
X151378135Y-29084671D01*
X151370452Y-29083000D01*
X150298116Y-29083000D01*
X150282877Y-29087475D01*
X150281672Y-29088865D01*
X150280001Y-29096548D01*
X150280001Y-29723669D01*
X149606500Y-29723669D01*
X149606500Y-28556885D01*
X150280000Y-28556885D01*
X150284475Y-28572124D01*
X150285865Y-28573329D01*
X150293548Y-28575000D01*
X151365885Y-28575000D01*
X151381124Y-28570525D01*
X151382329Y-28569135D01*
X151384000Y-28561452D01*
X151384000Y-28556885D01*
X151892000Y-28556885D01*
X151896475Y-28572124D01*
X151897865Y-28573329D01*
X151905548Y-28575000D01*
X152977884Y-28575000D01*
X152993123Y-28570525D01*
X152994328Y-28569135D01*
X152995999Y-28561452D01*
X152995999Y-27934331D01*
X152995629Y-27927510D01*
X152990105Y-27876648D01*
X152986479Y-27861396D01*
X152941324Y-27740946D01*
X152932786Y-27725351D01*
X152856285Y-27623276D01*
X152843724Y-27610715D01*
X152741649Y-27534214D01*
X152726054Y-27525676D01*
X152605606Y-27480522D01*
X152590351Y-27476895D01*
X152539486Y-27471369D01*
X152532672Y-27471000D01*
X151910115Y-27471000D01*
X151894876Y-27475475D01*
X151893671Y-27476865D01*
X151892000Y-27484548D01*
X151892000Y-28556885D01*
X151384000Y-28556885D01*
X151384000Y-27489116D01*
X151379525Y-27473877D01*
X151378135Y-27472672D01*
X151370452Y-27471001D01*
X150743331Y-27471001D01*
X150736510Y-27471371D01*
X150685648Y-27476895D01*
X150670396Y-27480521D01*
X150549946Y-27525676D01*
X150534351Y-27534214D01*
X150432276Y-27610715D01*
X150419715Y-27623276D01*
X150343214Y-27725351D01*
X150334676Y-27740946D01*
X150289522Y-27861394D01*
X150285895Y-27876649D01*
X150280369Y-27927514D01*
X150280000Y-27934328D01*
X150280000Y-28556885D01*
X149606500Y-28556885D01*
X149606500Y-26923500D01*
X149626502Y-26855379D01*
X149680158Y-26808886D01*
X149732500Y-26797500D01*
X171323500Y-26797500D01*
X171391621Y-26817502D01*
G37*
%TD.AperFunction*%
%TA.AperFunction,Conductor*%
G36*
X162224121Y-32175002D02*
G01*
X162270614Y-32228658D01*
X162282000Y-32281000D01*
X162282000Y-35537000D01*
X162261998Y-35605121D01*
X162208342Y-35651614D01*
X162156000Y-35663000D01*
X158900000Y-35663000D01*
X158831879Y-35642998D01*
X158785386Y-35589342D01*
X158774000Y-35537000D01*
X158774000Y-35136885D01*
X159282000Y-35136885D01*
X159286475Y-35152124D01*
X159287865Y-35153329D01*
X159295548Y-35155000D01*
X161755885Y-35155000D01*
X161771124Y-35150525D01*
X161772329Y-35149135D01*
X161774000Y-35141452D01*
X161774000Y-32681115D01*
X161769525Y-32665876D01*
X161768135Y-32664671D01*
X161760452Y-32663000D01*
X159300115Y-32663000D01*
X159284876Y-32667475D01*
X159283671Y-32668865D01*
X159282000Y-32676548D01*
X159282000Y-35136885D01*
X158774000Y-35136885D01*
X158774000Y-32281000D01*
X158794002Y-32212879D01*
X158847658Y-32166386D01*
X158900000Y-32155000D01*
X162156000Y-32155000D01*
X162224121Y-32175002D01*
G37*
%TD.AperFunction*%
%TD*%
M02*
