%TF.GenerationSoftware,KiCad,Pcbnew,6.0.7-f9a2dced07~116~ubuntu20.04.1*%
%TF.CreationDate,2022-10-31T14:46:48+01:00*%
%TF.ProjectId,sgp41_board,73677034-315f-4626-9f61-72642e6b6963,rev?*%
%TF.SameCoordinates,Original*%
%TF.FileFunction,Legend,Top*%
%TF.FilePolarity,Positive*%
%FSLAX46Y46*%
G04 Gerber Fmt 4.6, Leading zero omitted, Abs format (unit mm)*
G04 Created by KiCad (PCBNEW 6.0.7-f9a2dced07~116~ubuntu20.04.1) date 2022-10-31 14:46:48*
%MOMM*%
%LPD*%
G01*
G04 APERTURE LIST*
%ADD10C,0.150000*%
%ADD11C,0.300000*%
%ADD12C,0.120000*%
G04 APERTURE END LIST*
D10*
X99568000Y-30988000D02*
X100838000Y-30988000D01*
X100838000Y-30988000D02*
X100838000Y-32258000D01*
X100838000Y-32258000D02*
X99568000Y-32258000D01*
X99568000Y-32258000D02*
X99568000Y-30988000D01*
D11*
X103957857Y-44168142D02*
X104172142Y-44239571D01*
X104529285Y-44239571D01*
X104672142Y-44168142D01*
X104743571Y-44096714D01*
X104815000Y-43953857D01*
X104815000Y-43811000D01*
X104743571Y-43668142D01*
X104672142Y-43596714D01*
X104529285Y-43525285D01*
X104243571Y-43453857D01*
X104100714Y-43382428D01*
X104029285Y-43311000D01*
X103957857Y-43168142D01*
X103957857Y-43025285D01*
X104029285Y-42882428D01*
X104100714Y-42811000D01*
X104243571Y-42739571D01*
X104600714Y-42739571D01*
X104815000Y-42811000D01*
X106243571Y-42811000D02*
X106100714Y-42739571D01*
X105886428Y-42739571D01*
X105672142Y-42811000D01*
X105529285Y-42953857D01*
X105457857Y-43096714D01*
X105386428Y-43382428D01*
X105386428Y-43596714D01*
X105457857Y-43882428D01*
X105529285Y-44025285D01*
X105672142Y-44168142D01*
X105886428Y-44239571D01*
X106029285Y-44239571D01*
X106243571Y-44168142D01*
X106315000Y-44096714D01*
X106315000Y-43596714D01*
X106029285Y-43596714D01*
X106957857Y-44239571D02*
X106957857Y-42739571D01*
X107529285Y-42739571D01*
X107672142Y-42811000D01*
X107743571Y-42882428D01*
X107815000Y-43025285D01*
X107815000Y-43239571D01*
X107743571Y-43382428D01*
X107672142Y-43453857D01*
X107529285Y-43525285D01*
X106957857Y-43525285D01*
X109100714Y-43239571D02*
X109100714Y-44239571D01*
X108743571Y-42668142D02*
X108386428Y-43739571D01*
X109315000Y-43739571D01*
X110672142Y-44239571D02*
X109815000Y-44239571D01*
X110243571Y-44239571D02*
X110243571Y-42739571D01*
X110100714Y-42953857D01*
X109957857Y-43096714D01*
X109815000Y-43168142D01*
D10*
%TO.C,C2*%
X114895333Y-41759142D02*
X114847714Y-41806761D01*
X114704857Y-41854380D01*
X114609619Y-41854380D01*
X114466761Y-41806761D01*
X114371523Y-41711523D01*
X114323904Y-41616285D01*
X114276285Y-41425809D01*
X114276285Y-41282952D01*
X114323904Y-41092476D01*
X114371523Y-40997238D01*
X114466761Y-40902000D01*
X114609619Y-40854380D01*
X114704857Y-40854380D01*
X114847714Y-40902000D01*
X114895333Y-40949619D01*
X115276285Y-40949619D02*
X115323904Y-40902000D01*
X115419142Y-40854380D01*
X115657238Y-40854380D01*
X115752476Y-40902000D01*
X115800095Y-40949619D01*
X115847714Y-41044857D01*
X115847714Y-41140095D01*
X115800095Y-41282952D01*
X115228666Y-41854380D01*
X115847714Y-41854380D01*
%TO.C,C1*%
X107037142Y-34583666D02*
X107084761Y-34631285D01*
X107132380Y-34774142D01*
X107132380Y-34869380D01*
X107084761Y-35012238D01*
X106989523Y-35107476D01*
X106894285Y-35155095D01*
X106703809Y-35202714D01*
X106560952Y-35202714D01*
X106370476Y-35155095D01*
X106275238Y-35107476D01*
X106180000Y-35012238D01*
X106132380Y-34869380D01*
X106132380Y-34774142D01*
X106180000Y-34631285D01*
X106227619Y-34583666D01*
X107132380Y-33631285D02*
X107132380Y-34202714D01*
X107132380Y-33917000D02*
X106132380Y-33917000D01*
X106275238Y-34012238D01*
X106370476Y-34107476D01*
X106418095Y-34202714D01*
%TO.C,U1*%
X110536095Y-35052380D02*
X110536095Y-35861904D01*
X110583714Y-35957142D01*
X110631333Y-36004761D01*
X110726571Y-36052380D01*
X110917047Y-36052380D01*
X111012285Y-36004761D01*
X111059904Y-35957142D01*
X111107523Y-35861904D01*
X111107523Y-35052380D01*
X112107523Y-36052380D02*
X111536095Y-36052380D01*
X111821809Y-36052380D02*
X111821809Y-35052380D01*
X111726571Y-35195238D01*
X111631333Y-35290476D01*
X111536095Y-35338095D01*
%TO.C,R2*%
X108799333Y-34488380D02*
X108466000Y-34012190D01*
X108227904Y-34488380D02*
X108227904Y-33488380D01*
X108608857Y-33488380D01*
X108704095Y-33536000D01*
X108751714Y-33583619D01*
X108799333Y-33678857D01*
X108799333Y-33821714D01*
X108751714Y-33916952D01*
X108704095Y-33964571D01*
X108608857Y-34012190D01*
X108227904Y-34012190D01*
X109180285Y-33583619D02*
X109227904Y-33536000D01*
X109323142Y-33488380D01*
X109561238Y-33488380D01*
X109656476Y-33536000D01*
X109704095Y-33583619D01*
X109751714Y-33678857D01*
X109751714Y-33774095D01*
X109704095Y-33916952D01*
X109132666Y-34488380D01*
X109751714Y-34488380D01*
D12*
%TO.C,C2*%
X115511252Y-43788000D02*
X114988748Y-43788000D01*
X115511252Y-42318000D02*
X114988748Y-42318000D01*
%TO.C,C1*%
X104294000Y-33215252D02*
X104294000Y-32692748D01*
X105764000Y-33215252D02*
X105764000Y-32692748D01*
%TO.C,U1*%
X109698000Y-36600000D02*
X112598000Y-36600000D01*
X109398000Y-36300000D02*
X109798000Y-36300000D01*
X109398000Y-36700000D02*
X109398000Y-36300000D01*
X112598000Y-36600000D02*
X112598000Y-37000000D01*
X109698000Y-37000000D02*
X109698000Y-36600000D01*
X112598000Y-39600000D02*
X112598000Y-39200000D01*
X109698000Y-39600000D02*
X112598000Y-39600000D01*
X109698000Y-39200000D02*
X109698000Y-39600000D01*
%TO.C,R2*%
X108762436Y-31396000D02*
X109216564Y-31396000D01*
X108762436Y-32866000D02*
X109216564Y-32866000D01*
%TD*%
M02*
