%TF.GenerationSoftware,KiCad,Pcbnew,6.0.7-f9a2dced07~116~ubuntu20.04.1*%
%TF.CreationDate,2022-10-31T14:46:48+01:00*%
%TF.ProjectId,sgp41_board,73677034-315f-4626-9f61-72642e6b6963,rev?*%
%TF.SameCoordinates,Original*%
%TF.FileFunction,Legend,Bot*%
%TF.FilePolarity,Positive*%
%FSLAX46Y46*%
G04 Gerber Fmt 4.6, Leading zero omitted, Abs format (unit mm)*
G04 Created by KiCad (PCBNEW 6.0.7-f9a2dced07~116~ubuntu20.04.1) date 2022-10-31 14:46:48*
%MOMM*%
%LPD*%
G01*
G04 APERTURE LIST*
%ADD10C,0.150000*%
%ADD11C,0.120000*%
G04 APERTURE END LIST*
D10*
%TO.C,J3*%
X122126333Y-39457380D02*
X122126333Y-40171666D01*
X122173952Y-40314523D01*
X122269190Y-40409761D01*
X122412047Y-40457380D01*
X122507285Y-40457380D01*
X121745380Y-39457380D02*
X121126333Y-39457380D01*
X121459666Y-39838333D01*
X121316809Y-39838333D01*
X121221571Y-39885952D01*
X121173952Y-39933571D01*
X121126333Y-40028809D01*
X121126333Y-40266904D01*
X121173952Y-40362142D01*
X121221571Y-40409761D01*
X121316809Y-40457380D01*
X121602523Y-40457380D01*
X121697761Y-40409761D01*
X121745380Y-40362142D01*
%TO.C,J4*%
X122253333Y-32472380D02*
X122253333Y-33186666D01*
X122300952Y-33329523D01*
X122396190Y-33424761D01*
X122539047Y-33472380D01*
X122634285Y-33472380D01*
X121348571Y-32805714D02*
X121348571Y-33472380D01*
X121586666Y-32424761D02*
X121824761Y-33139047D01*
X121205714Y-33139047D01*
%TO.C,R3*%
X115513380Y-34099833D02*
X115037190Y-33766500D01*
X115513380Y-33528404D02*
X114513380Y-33528404D01*
X114513380Y-33909357D01*
X114561000Y-34004595D01*
X114608619Y-34052214D01*
X114703857Y-34099833D01*
X114846714Y-34099833D01*
X114941952Y-34052214D01*
X114989571Y-34004595D01*
X115037190Y-33909357D01*
X115037190Y-33528404D01*
X114513380Y-34433166D02*
X114513380Y-35052214D01*
X114894333Y-34718880D01*
X114894333Y-34861738D01*
X114941952Y-34956976D01*
X114989571Y-35004595D01*
X115084809Y-35052214D01*
X115322904Y-35052214D01*
X115418142Y-35004595D01*
X115465761Y-34956976D01*
X115513380Y-34861738D01*
X115513380Y-34576023D01*
X115465761Y-34480785D01*
X115418142Y-34433166D01*
%TO.C,J1*%
X99647333Y-38949380D02*
X99647333Y-39663666D01*
X99694952Y-39806523D01*
X99790190Y-39901761D01*
X99933047Y-39949380D01*
X100028285Y-39949380D01*
X98647333Y-39949380D02*
X99218761Y-39949380D01*
X98933047Y-39949380D02*
X98933047Y-38949380D01*
X99028285Y-39092238D01*
X99123523Y-39187476D01*
X99218761Y-39235095D01*
%TO.C,J2*%
X99647333Y-35647380D02*
X99647333Y-36361666D01*
X99694952Y-36504523D01*
X99790190Y-36599761D01*
X99933047Y-36647380D01*
X100028285Y-36647380D01*
X99218761Y-35742619D02*
X99171142Y-35695000D01*
X99075904Y-35647380D01*
X98837809Y-35647380D01*
X98742571Y-35695000D01*
X98694952Y-35742619D01*
X98647333Y-35837857D01*
X98647333Y-35933095D01*
X98694952Y-36075952D01*
X99266380Y-36647380D01*
X98647333Y-36647380D01*
%TO.C,R1*%
X110052380Y-41639833D02*
X109576190Y-41306500D01*
X110052380Y-41068404D02*
X109052380Y-41068404D01*
X109052380Y-41449357D01*
X109100000Y-41544595D01*
X109147619Y-41592214D01*
X109242857Y-41639833D01*
X109385714Y-41639833D01*
X109480952Y-41592214D01*
X109528571Y-41544595D01*
X109576190Y-41449357D01*
X109576190Y-41068404D01*
X110052380Y-42592214D02*
X110052380Y-42020785D01*
X110052380Y-42306500D02*
X109052380Y-42306500D01*
X109195238Y-42211261D01*
X109290476Y-42116023D01*
X109338095Y-42020785D01*
D11*
%TO.C,J3*%
X120710000Y-41910000D02*
X118050000Y-41910000D01*
X120710000Y-39310000D02*
X119380000Y-39310000D01*
X120710000Y-44510000D02*
X118050000Y-44510000D01*
X118050000Y-41910000D02*
X118050000Y-44510000D01*
X120710000Y-40640000D02*
X120710000Y-39310000D01*
X120710000Y-41910000D02*
X120710000Y-44510000D01*
%TO.C,J4*%
X118050000Y-31690000D02*
X120710000Y-31690000D01*
X120710000Y-34290000D02*
X120710000Y-31690000D01*
X118050000Y-34290000D02*
X120710000Y-34290000D01*
X118050000Y-35560000D02*
X118050000Y-36890000D01*
X118050000Y-36890000D02*
X119380000Y-36890000D01*
X118050000Y-34290000D02*
X118050000Y-31690000D01*
%TO.C,R3*%
X112676000Y-34493564D02*
X112676000Y-34039436D01*
X114146000Y-34493564D02*
X114146000Y-34039436D01*
%TO.C,J1*%
X100270000Y-41910000D02*
X100270000Y-44510000D01*
X102930000Y-41910000D02*
X102930000Y-44510000D01*
X102930000Y-44510000D02*
X100270000Y-44510000D01*
X102930000Y-41910000D02*
X100270000Y-41910000D01*
X102930000Y-39310000D02*
X101600000Y-39310000D01*
X102930000Y-40640000D02*
X102930000Y-39310000D01*
%TO.C,J2*%
X100270000Y-34290000D02*
X100270000Y-31690000D01*
X100270000Y-34290000D02*
X102930000Y-34290000D01*
X102930000Y-34290000D02*
X102930000Y-31690000D01*
X100270000Y-36890000D02*
X101600000Y-36890000D01*
X100270000Y-35560000D02*
X100270000Y-36890000D01*
X100270000Y-31690000D02*
X102930000Y-31690000D01*
%TO.C,R1*%
X107215000Y-42033564D02*
X107215000Y-41579436D01*
X108685000Y-42033564D02*
X108685000Y-41579436D01*
%TD*%
M02*
