%TF.GenerationSoftware,KiCad,Pcbnew,6.0.7-f9a2dced07~116~ubuntu20.04.1*%
%TF.CreationDate,2022-10-31T14:46:48+01:00*%
%TF.ProjectId,sgp41_board,73677034-315f-4626-9f61-72642e6b6963,rev?*%
%TF.SameCoordinates,Original*%
%TF.FileFunction,Copper,L1,Top*%
%TF.FilePolarity,Positive*%
%FSLAX46Y46*%
G04 Gerber Fmt 4.6, Leading zero omitted, Abs format (unit mm)*
G04 Created by KiCad (PCBNEW 6.0.7-f9a2dced07~116~ubuntu20.04.1) date 2022-10-31 14:46:48*
%MOMM*%
%LPD*%
G01*
G04 APERTURE LIST*
G04 Aperture macros list*
%AMRoundRect*
0 Rectangle with rounded corners*
0 $1 Rounding radius*
0 $2 $3 $4 $5 $6 $7 $8 $9 X,Y pos of 4 corners*
0 Add a 4 corners polygon primitive as box body*
4,1,4,$2,$3,$4,$5,$6,$7,$8,$9,$2,$3,0*
0 Add four circle primitives for the rounded corners*
1,1,$1+$1,$2,$3*
1,1,$1+$1,$4,$5*
1,1,$1+$1,$6,$7*
1,1,$1+$1,$8,$9*
0 Add four rect primitives between the rounded corners*
20,1,$1+$1,$2,$3,$4,$5,0*
20,1,$1+$1,$4,$5,$6,$7,0*
20,1,$1+$1,$6,$7,$8,$9,0*
20,1,$1+$1,$8,$9,$2,$3,0*%
G04 Aperture macros list end*
%TA.AperFunction,SMDPad,CuDef*%
%ADD10RoundRect,0.250000X0.250000X0.475000X-0.250000X0.475000X-0.250000X-0.475000X0.250000X-0.475000X0*%
%TD*%
%TA.AperFunction,SMDPad,CuDef*%
%ADD11RoundRect,0.250000X0.475000X-0.250000X0.475000X0.250000X-0.475000X0.250000X-0.475000X-0.250000X0*%
%TD*%
%TA.AperFunction,SMDPad,CuDef*%
%ADD12RoundRect,0.100000X-0.900000X-0.100000X0.900000X-0.100000X0.900000X0.100000X-0.900000X0.100000X0*%
%TD*%
%TA.AperFunction,SMDPad,CuDef*%
%ADD13RoundRect,0.262500X-0.262500X-0.487500X0.262500X-0.487500X0.262500X0.487500X-0.262500X0.487500X0*%
%TD*%
%TA.AperFunction,SMDPad,CuDef*%
%ADD14RoundRect,0.250000X-0.262500X-0.450000X0.262500X-0.450000X0.262500X0.450000X-0.262500X0.450000X0*%
%TD*%
%TA.AperFunction,ComponentPad*%
%ADD15R,1.700000X1.700000*%
%TD*%
%TA.AperFunction,ComponentPad*%
%ADD16O,1.700000X1.700000*%
%TD*%
%TA.AperFunction,ViaPad*%
%ADD17C,0.800000*%
%TD*%
%TA.AperFunction,Conductor*%
%ADD18C,0.250000*%
%TD*%
G04 APERTURE END LIST*
D10*
%TO.P,C2,1*%
%TO.N,Net-(C2-Pad1)*%
X116200000Y-43053000D03*
%TO.P,C2,2*%
%TO.N,GND*%
X114300000Y-43053000D03*
%TD*%
D11*
%TO.P,C1,1*%
%TO.N,GND*%
X105029000Y-33904000D03*
%TO.P,C1,2*%
%TO.N,Net-(C1-Pad2)*%
X105029000Y-32004000D03*
%TD*%
D12*
%TO.P,U1,1,VDD*%
%TO.N,Net-(C1-Pad2)*%
X109248000Y-37300000D03*
%TO.P,U1,2,VSS*%
%TO.N,GND*%
X109248000Y-38100000D03*
%TO.P,U1,3,SDA*%
%TO.N,Net-(R1-Pad2)*%
X109248000Y-38900000D03*
%TO.P,U1,4,n/a*%
%TO.N,GND*%
X113048000Y-38900000D03*
%TO.P,U1,5,VDDH*%
%TO.N,Net-(C2-Pad1)*%
X113048000Y-38100000D03*
%TO.P,U1,6,SCL*%
%TO.N,Net-(R3-Pad2)*%
X113048000Y-37300000D03*
D13*
%TO.P,U1,7,diepad*%
%TO.N,GND*%
X111098000Y-38100000D03*
%TD*%
D14*
%TO.P,R2,1*%
%TO.N,Net-(C1-Pad2)*%
X108077000Y-32131000D03*
%TO.P,R2,2*%
%TO.N,Net-(C2-Pad1)*%
X109902000Y-32131000D03*
%TD*%
D15*
%TO.P,J3,1,Pin_1*%
%TO.N,Net-(R3-Pad2)*%
X119380000Y-40640000D03*
D16*
%TO.P,J3,2,Pin_2*%
X119380000Y-43180000D03*
%TD*%
D15*
%TO.P,J4,1,Pin_1*%
%TO.N,Net-(R1-Pad2)*%
X119380000Y-35560000D03*
D16*
%TO.P,J4,2,Pin_2*%
X119380000Y-33020000D03*
%TD*%
D15*
%TO.P,J1,1,Pin_1*%
%TO.N,Net-(C2-Pad1)*%
X101600000Y-40640000D03*
D16*
%TO.P,J1,2,Pin_2*%
X101600000Y-43180000D03*
%TD*%
D15*
%TO.P,J2,1,Pin_1*%
%TO.N,GND*%
X101600000Y-35560000D03*
D16*
%TO.P,J2,2,Pin_2*%
X101600000Y-33020000D03*
%TD*%
D17*
%TO.N,Net-(C2-Pad1)*%
X115443000Y-35179000D03*
%TO.N,Net-(R3-Pad2)*%
X111506000Y-33401000D03*
%TO.N,Net-(R1-Pad2)*%
X104521000Y-40640000D03*
%TD*%
D18*
%TO.N,Net-(C1-Pad2)*%
X105029000Y-32004000D02*
X107950000Y-32004000D01*
X108331000Y-32385000D02*
X108331000Y-37084000D01*
X108077000Y-32131000D02*
X108331000Y-32385000D01*
X107950000Y-32004000D02*
X108077000Y-32131000D01*
%TO.N,Net-(C2-Pad1)*%
X114681000Y-38100000D02*
X113020000Y-38100000D01*
X115506500Y-44386500D02*
X107124500Y-44386500D01*
X114681000Y-39243000D02*
X116713000Y-41275000D01*
X105918000Y-43180000D02*
X107124500Y-44386500D01*
X101600000Y-40640000D02*
X101600000Y-43180000D01*
X116200000Y-43693000D02*
X115506500Y-44386500D01*
X114681000Y-38100000D02*
X114681000Y-39243000D01*
X115443000Y-35179000D02*
X115189000Y-35433000D01*
X115189000Y-37592000D02*
X114681000Y-38100000D01*
X116713000Y-42540000D02*
X116200000Y-43053000D01*
X116713000Y-41275000D02*
X116713000Y-42540000D01*
X116200000Y-43053000D02*
X116200000Y-43693000D01*
X115189000Y-35433000D02*
X115189000Y-35687000D01*
X112014000Y-32131000D02*
X115189000Y-35306000D01*
X115189000Y-35306000D02*
X115189000Y-35687000D01*
X115189000Y-35687000D02*
X115189000Y-37592000D01*
X101600000Y-43180000D02*
X105918000Y-43180000D01*
X109902000Y-32131000D02*
X112014000Y-32131000D01*
%TO.N,Net-(R3-Pad2)*%
X113020000Y-34915000D02*
X111506000Y-33401000D01*
X113020000Y-37300000D02*
X113020000Y-34915000D01*
X119380000Y-43180000D02*
X119380000Y-40640000D01*
%TO.N,Net-(R1-Pad2)*%
X106261000Y-38900000D02*
X104521000Y-40640000D01*
X109220000Y-38900000D02*
X106261000Y-38900000D01*
X119380000Y-33020000D02*
X119380000Y-35560000D01*
%TO.N,GND*%
X111125000Y-38100000D02*
X111925000Y-38900000D01*
X101600000Y-33020000D02*
X101600000Y-35560000D01*
X111070000Y-38100000D02*
X111125000Y-38100000D01*
X107442000Y-38100000D02*
X109220000Y-38100000D01*
X113020000Y-41773000D02*
X113020000Y-38900000D01*
X114300000Y-43053000D02*
X113020000Y-41773000D01*
X111925000Y-38900000D02*
X113020000Y-38900000D01*
X104145000Y-33020000D02*
X105029000Y-33904000D01*
X111070000Y-38100000D02*
X109220000Y-38100000D01*
X101600000Y-33020000D02*
X104145000Y-33020000D01*
X105029000Y-33904000D02*
X107315000Y-36190000D01*
X107315000Y-36190000D02*
X107315000Y-37973000D01*
X107315000Y-37973000D02*
X107442000Y-38100000D01*
%TD*%
%TA.AperFunction,Conductor*%
%TO.N,GND*%
G36*
X104010688Y-31008502D02*
G01*
X104057181Y-31062158D01*
X104067285Y-31132432D01*
X104037791Y-31197012D01*
X104031746Y-31203512D01*
X103954695Y-31280697D01*
X103950855Y-31286927D01*
X103950854Y-31286928D01*
X103907628Y-31357054D01*
X103861885Y-31431262D01*
X103859581Y-31438209D01*
X103813136Y-31578238D01*
X103806203Y-31599139D01*
X103795500Y-31703600D01*
X103795500Y-32304400D01*
X103795837Y-32307646D01*
X103795837Y-32307650D01*
X103803429Y-32380814D01*
X103806474Y-32410166D01*
X103862450Y-32577946D01*
X103955522Y-32728348D01*
X103960704Y-32733521D01*
X103987364Y-32760135D01*
X104080697Y-32853305D01*
X104085235Y-32856102D01*
X104125824Y-32913353D01*
X104129054Y-32984276D01*
X104093428Y-33045687D01*
X104084932Y-33053062D01*
X104074793Y-33061098D01*
X103960261Y-33175829D01*
X103951249Y-33187240D01*
X103866184Y-33325243D01*
X103860037Y-33338424D01*
X103808862Y-33492710D01*
X103805995Y-33506086D01*
X103796328Y-33600438D01*
X103796000Y-33606855D01*
X103796000Y-33631885D01*
X103800475Y-33647124D01*
X103801865Y-33648329D01*
X103809548Y-33650000D01*
X106243884Y-33650000D01*
X106259123Y-33645525D01*
X106260328Y-33644135D01*
X106261999Y-33636452D01*
X106261999Y-33606905D01*
X106261662Y-33600386D01*
X106251743Y-33504794D01*
X106248851Y-33491400D01*
X106197412Y-33337216D01*
X106191239Y-33324038D01*
X106105937Y-33186193D01*
X106096901Y-33174792D01*
X105982172Y-33060262D01*
X105973238Y-33053206D01*
X105932177Y-32995288D01*
X105928947Y-32924365D01*
X105964574Y-32862954D01*
X105972407Y-32856154D01*
X105978348Y-32852478D01*
X106103305Y-32727303D01*
X106121749Y-32697382D01*
X106174522Y-32649890D01*
X106229008Y-32637500D01*
X106944526Y-32637500D01*
X107012647Y-32657502D01*
X107059140Y-32711158D01*
X107066610Y-32733661D01*
X107066974Y-32737166D01*
X107069156Y-32743705D01*
X107069156Y-32743707D01*
X107103716Y-32847296D01*
X107122950Y-32904946D01*
X107216022Y-33055348D01*
X107221204Y-33060521D01*
X107250642Y-33089908D01*
X107341197Y-33180305D01*
X107347427Y-33184145D01*
X107347428Y-33184146D01*
X107388909Y-33209715D01*
X107491762Y-33273115D01*
X107549046Y-33292115D01*
X107611167Y-33312720D01*
X107669527Y-33353151D01*
X107696764Y-33418715D01*
X107697500Y-33432313D01*
X107697500Y-37123856D01*
X107712526Y-37242797D01*
X107715443Y-37250163D01*
X107715443Y-37250165D01*
X107730653Y-37288580D01*
X107739501Y-37334964D01*
X107739501Y-37439884D01*
X107755162Y-37558850D01*
X107793927Y-37652438D01*
X107801516Y-37723025D01*
X107793927Y-37748872D01*
X107758811Y-37833649D01*
X107754572Y-37849469D01*
X107750284Y-37882040D01*
X107752495Y-37896222D01*
X107765652Y-37900000D01*
X107957270Y-37900000D01*
X108025391Y-37920002D01*
X108033972Y-37926035D01*
X108041125Y-37931524D01*
X108127547Y-37967321D01*
X108166826Y-37983591D01*
X108222107Y-38028139D01*
X108244528Y-38095503D01*
X108226970Y-38164294D01*
X108175008Y-38212672D01*
X108166826Y-38216409D01*
X108069050Y-38256909D01*
X108020832Y-38266500D01*
X106339768Y-38266500D01*
X106328585Y-38265973D01*
X106321092Y-38264298D01*
X106313166Y-38264547D01*
X106313165Y-38264547D01*
X106253002Y-38266438D01*
X106249044Y-38266500D01*
X106221144Y-38266500D01*
X106217154Y-38267004D01*
X106205320Y-38267936D01*
X106161111Y-38269326D01*
X106153495Y-38271539D01*
X106153493Y-38271539D01*
X106141652Y-38274979D01*
X106122293Y-38278988D01*
X106120983Y-38279154D01*
X106102203Y-38281526D01*
X106094837Y-38284442D01*
X106094831Y-38284444D01*
X106061098Y-38297800D01*
X106049868Y-38301645D01*
X106015017Y-38311770D01*
X106007407Y-38313981D01*
X106000584Y-38318016D01*
X105989966Y-38324295D01*
X105972213Y-38332992D01*
X105964568Y-38336019D01*
X105953383Y-38340448D01*
X105934730Y-38354000D01*
X105917612Y-38366437D01*
X105907695Y-38372951D01*
X105869638Y-38395458D01*
X105855317Y-38409779D01*
X105840284Y-38422619D01*
X105823893Y-38434528D01*
X105818842Y-38440634D01*
X105795702Y-38468605D01*
X105787712Y-38477384D01*
X104570500Y-39694595D01*
X104508188Y-39728621D01*
X104481405Y-39731500D01*
X104425513Y-39731500D01*
X104419061Y-39732872D01*
X104419056Y-39732872D01*
X104360669Y-39745283D01*
X104238712Y-39771206D01*
X104232682Y-39773891D01*
X104232681Y-39773891D01*
X104070278Y-39846197D01*
X104070276Y-39846198D01*
X104064248Y-39848882D01*
X103909747Y-39961134D01*
X103781960Y-40103056D01*
X103686473Y-40268444D01*
X103627458Y-40450072D01*
X103607496Y-40640000D01*
X103627458Y-40829928D01*
X103686473Y-41011556D01*
X103781960Y-41176944D01*
X103786378Y-41181851D01*
X103786379Y-41181852D01*
X103905325Y-41313955D01*
X103909747Y-41318866D01*
X104064248Y-41431118D01*
X104070276Y-41433802D01*
X104070278Y-41433803D01*
X104220083Y-41500500D01*
X104238712Y-41508794D01*
X104332113Y-41528647D01*
X104419056Y-41547128D01*
X104419061Y-41547128D01*
X104425513Y-41548500D01*
X104616487Y-41548500D01*
X104622939Y-41547128D01*
X104622944Y-41547128D01*
X104709888Y-41528647D01*
X104803288Y-41508794D01*
X104821917Y-41500500D01*
X104971722Y-41433803D01*
X104971724Y-41433802D01*
X104977752Y-41431118D01*
X105132253Y-41318866D01*
X105136675Y-41313955D01*
X105255621Y-41181852D01*
X105255622Y-41181851D01*
X105260040Y-41176944D01*
X105355527Y-41011556D01*
X105414542Y-40829928D01*
X105431907Y-40664706D01*
X105458920Y-40599050D01*
X105468122Y-40588782D01*
X106486499Y-39570405D01*
X106548811Y-39536379D01*
X106575594Y-39533500D01*
X108020832Y-39533500D01*
X108069050Y-39543091D01*
X108189150Y-39592838D01*
X108197338Y-39593916D01*
X108304021Y-39607961D01*
X108308115Y-39608500D01*
X109247886Y-39608500D01*
X110187884Y-39608499D01*
X110191969Y-39607961D01*
X110191973Y-39607961D01*
X110298663Y-39593916D01*
X110298665Y-39593916D01*
X110306850Y-39592838D01*
X110380863Y-39562181D01*
X110447248Y-39534684D01*
X110447250Y-39534683D01*
X110454876Y-39531524D01*
X110500398Y-39496593D01*
X110575436Y-39439014D01*
X110575437Y-39439013D01*
X110581987Y-39433987D01*
X110602666Y-39407037D01*
X110607095Y-39401266D01*
X110664433Y-39359400D01*
X110735396Y-39355200D01*
X110741181Y-39356535D01*
X110751062Y-39357950D01*
X110752783Y-39358000D01*
X110825885Y-39358000D01*
X110841124Y-39353525D01*
X110842329Y-39352135D01*
X110844000Y-39344452D01*
X110844000Y-38372115D01*
X110839525Y-38356876D01*
X110838135Y-38355671D01*
X110830452Y-38354000D01*
X110609102Y-38354000D01*
X110540981Y-38333998D01*
X110532398Y-38327962D01*
X110511297Y-38311770D01*
X110506414Y-38308023D01*
X110461428Y-38273504D01*
X110461426Y-38273503D01*
X110454875Y-38268476D01*
X110329174Y-38216409D01*
X110273893Y-38171861D01*
X110251472Y-38104497D01*
X110269030Y-38035706D01*
X110320992Y-37987328D01*
X110329174Y-37983591D01*
X110454876Y-37931524D01*
X110473751Y-37917041D01*
X110532399Y-37872038D01*
X110598619Y-37846437D01*
X110609103Y-37846000D01*
X110825885Y-37846000D01*
X110841124Y-37841525D01*
X110842329Y-37840135D01*
X110844000Y-37832452D01*
X110844000Y-36860116D01*
X110839525Y-36844877D01*
X110838135Y-36843672D01*
X110830452Y-36842001D01*
X110752753Y-36842001D01*
X110751071Y-36842049D01*
X110741179Y-36843465D01*
X110735399Y-36844799D01*
X110664525Y-36840632D01*
X110607096Y-36798734D01*
X110587016Y-36772566D01*
X110587013Y-36772563D01*
X110581987Y-36766013D01*
X110575437Y-36760987D01*
X110575434Y-36760984D01*
X110511300Y-36711773D01*
X110454875Y-36668476D01*
X110306850Y-36607162D01*
X110298662Y-36606084D01*
X110191972Y-36592038D01*
X110191971Y-36592038D01*
X110187885Y-36591500D01*
X110149131Y-36591500D01*
X109090500Y-36591501D01*
X109022379Y-36571499D01*
X108975886Y-36517843D01*
X108964500Y-36465501D01*
X108964500Y-33279998D01*
X108984502Y-33211877D01*
X109038158Y-33165384D01*
X109108432Y-33155280D01*
X109165816Y-33179924D01*
X109166197Y-33180305D01*
X109172428Y-33184146D01*
X109172431Y-33184148D01*
X109216110Y-33211072D01*
X109316762Y-33273115D01*
X109373584Y-33291962D01*
X109478111Y-33326632D01*
X109478113Y-33326632D01*
X109484639Y-33328797D01*
X109491475Y-33329497D01*
X109491478Y-33329498D01*
X109534531Y-33333909D01*
X109589100Y-33339500D01*
X110214900Y-33339500D01*
X110218146Y-33339163D01*
X110218150Y-33339163D01*
X110313808Y-33329238D01*
X110313812Y-33329237D01*
X110320666Y-33328526D01*
X110327202Y-33326345D01*
X110327204Y-33326345D01*
X110427310Y-33292947D01*
X110498260Y-33290363D01*
X110559343Y-33326547D01*
X110591168Y-33390011D01*
X110592159Y-33401035D01*
X110592496Y-33401000D01*
X110605194Y-33521811D01*
X110612458Y-33590928D01*
X110671473Y-33772556D01*
X110766960Y-33937944D01*
X110771378Y-33942851D01*
X110771379Y-33942852D01*
X110829793Y-34007727D01*
X110894747Y-34079866D01*
X111049248Y-34192118D01*
X111055276Y-34194802D01*
X111055278Y-34194803D01*
X111212430Y-34264771D01*
X111223712Y-34269794D01*
X111317113Y-34289647D01*
X111404056Y-34308128D01*
X111404061Y-34308128D01*
X111410513Y-34309500D01*
X111466406Y-34309500D01*
X111534527Y-34329502D01*
X111555501Y-34346405D01*
X112349595Y-35140499D01*
X112383621Y-35202811D01*
X112386500Y-35229594D01*
X112386500Y-36465501D01*
X112366498Y-36533622D01*
X112312842Y-36580115D01*
X112260500Y-36591501D01*
X112108116Y-36591501D01*
X112104031Y-36592039D01*
X112104027Y-36592039D01*
X111997337Y-36606084D01*
X111997335Y-36606084D01*
X111989150Y-36607162D01*
X111915137Y-36637819D01*
X111848752Y-36665316D01*
X111848750Y-36665317D01*
X111841124Y-36668476D01*
X111714013Y-36766013D01*
X111708990Y-36772559D01*
X111673858Y-36818344D01*
X111616520Y-36860211D01*
X111545552Y-36864411D01*
X111454820Y-36843465D01*
X111444939Y-36842050D01*
X111443217Y-36842000D01*
X111370115Y-36842000D01*
X111354876Y-36846475D01*
X111353671Y-36847865D01*
X111352000Y-36855548D01*
X111352000Y-39339884D01*
X111356475Y-39355123D01*
X111357865Y-39356328D01*
X111365548Y-39357999D01*
X111443247Y-39357999D01*
X111444931Y-39357951D01*
X111454818Y-39356536D01*
X111546088Y-39335465D01*
X111616962Y-39339631D01*
X111674393Y-39381531D01*
X111709347Y-39427083D01*
X111720920Y-39438656D01*
X111834824Y-39526059D01*
X111849007Y-39534247D01*
X111981650Y-39589190D01*
X111997468Y-39593428D01*
X112104066Y-39607462D01*
X112112275Y-39608000D01*
X112829885Y-39608000D01*
X112845124Y-39603525D01*
X112846329Y-39602135D01*
X112848000Y-39594452D01*
X112848000Y-38934500D01*
X112868002Y-38866379D01*
X112921658Y-38819886D01*
X112973999Y-38808500D01*
X113047999Y-38808500D01*
X113122001Y-38808499D01*
X113190120Y-38828501D01*
X113236613Y-38882156D01*
X113248000Y-38934499D01*
X113248000Y-39589884D01*
X113252475Y-39605123D01*
X113253865Y-39606328D01*
X113261548Y-39607999D01*
X113983723Y-39607999D01*
X113991933Y-39607461D01*
X114069881Y-39597199D01*
X114140030Y-39608138D01*
X114174804Y-39636016D01*
X114176458Y-39634362D01*
X114190779Y-39648683D01*
X114203619Y-39663716D01*
X114215528Y-39680107D01*
X114221634Y-39685158D01*
X114249605Y-39708298D01*
X114258384Y-39716288D01*
X116042595Y-41500500D01*
X116076621Y-41562812D01*
X116079500Y-41589595D01*
X116079500Y-41693500D01*
X116059498Y-41761621D01*
X116005842Y-41808114D01*
X115953500Y-41819500D01*
X115899600Y-41819500D01*
X115896354Y-41819837D01*
X115896350Y-41819837D01*
X115800692Y-41829762D01*
X115800688Y-41829763D01*
X115793834Y-41830474D01*
X115787298Y-41832655D01*
X115787296Y-41832655D01*
X115770928Y-41838116D01*
X115626054Y-41886450D01*
X115475652Y-41979522D01*
X115350695Y-42104697D01*
X115347898Y-42109235D01*
X115290647Y-42149824D01*
X115219724Y-42153054D01*
X115158313Y-42117428D01*
X115150938Y-42108932D01*
X115142902Y-42098793D01*
X115028171Y-41984261D01*
X115016760Y-41975249D01*
X114878757Y-41890184D01*
X114865576Y-41884037D01*
X114711290Y-41832862D01*
X114697914Y-41829995D01*
X114603562Y-41820328D01*
X114597145Y-41820000D01*
X114572115Y-41820000D01*
X114556876Y-41824475D01*
X114555671Y-41825865D01*
X114554000Y-41833548D01*
X114554000Y-43181000D01*
X114533998Y-43249121D01*
X114480342Y-43295614D01*
X114428000Y-43307000D01*
X113310116Y-43307000D01*
X113294877Y-43311475D01*
X113293672Y-43312865D01*
X113292001Y-43320548D01*
X113292001Y-43575095D01*
X113292339Y-43581617D01*
X113295698Y-43613998D01*
X113282833Y-43683819D01*
X113234261Y-43735600D01*
X113170371Y-43753000D01*
X107439095Y-43753000D01*
X107370974Y-43732998D01*
X107349999Y-43716095D01*
X106421647Y-42787742D01*
X106415407Y-42780885D01*
X113292000Y-42780885D01*
X113296475Y-42796124D01*
X113297865Y-42797329D01*
X113305548Y-42799000D01*
X114027885Y-42799000D01*
X114043124Y-42794525D01*
X114044329Y-42793135D01*
X114046000Y-42785452D01*
X114046000Y-41838116D01*
X114041525Y-41822877D01*
X114040135Y-41821672D01*
X114032452Y-41820001D01*
X114002905Y-41820001D01*
X113996386Y-41820338D01*
X113900794Y-41830257D01*
X113887400Y-41833149D01*
X113733216Y-41884588D01*
X113720038Y-41890761D01*
X113582193Y-41976063D01*
X113570792Y-41985099D01*
X113456261Y-42099829D01*
X113447249Y-42111240D01*
X113362184Y-42249243D01*
X113356037Y-42262424D01*
X113304862Y-42416710D01*
X113301995Y-42430086D01*
X113292328Y-42524438D01*
X113292000Y-42530855D01*
X113292000Y-42780885D01*
X106415407Y-42780885D01*
X106414113Y-42779463D01*
X106410000Y-42772982D01*
X106360348Y-42726356D01*
X106357507Y-42723602D01*
X106337770Y-42703865D01*
X106334573Y-42701385D01*
X106325551Y-42693680D01*
X106299100Y-42668841D01*
X106293321Y-42663414D01*
X106286375Y-42659595D01*
X106286372Y-42659593D01*
X106275566Y-42653652D01*
X106259047Y-42642801D01*
X106258583Y-42642441D01*
X106243041Y-42630386D01*
X106235772Y-42627241D01*
X106235768Y-42627238D01*
X106202463Y-42612826D01*
X106191813Y-42607609D01*
X106153060Y-42586305D01*
X106133437Y-42581267D01*
X106114734Y-42574863D01*
X106103420Y-42569967D01*
X106103419Y-42569967D01*
X106096145Y-42566819D01*
X106088322Y-42565580D01*
X106088312Y-42565577D01*
X106052476Y-42559901D01*
X106040856Y-42557495D01*
X106005711Y-42548472D01*
X106005710Y-42548472D01*
X105998030Y-42546500D01*
X105977776Y-42546500D01*
X105958065Y-42544949D01*
X105945886Y-42543020D01*
X105938057Y-42541780D01*
X105930165Y-42542526D01*
X105894039Y-42545941D01*
X105882181Y-42546500D01*
X102876805Y-42546500D01*
X102808684Y-42526498D01*
X102771013Y-42488940D01*
X102682822Y-42352617D01*
X102682820Y-42352614D01*
X102680014Y-42348277D01*
X102676532Y-42344450D01*
X102532798Y-42186488D01*
X102501746Y-42122642D01*
X102510141Y-42052143D01*
X102555317Y-41997375D01*
X102581761Y-41983706D01*
X102688297Y-41943767D01*
X102696705Y-41940615D01*
X102813261Y-41853261D01*
X102900615Y-41736705D01*
X102951745Y-41600316D01*
X102958500Y-41538134D01*
X102958500Y-39741866D01*
X102951745Y-39679684D01*
X102900615Y-39543295D01*
X102813261Y-39426739D01*
X102696705Y-39339385D01*
X102560316Y-39288255D01*
X102498134Y-39281500D01*
X100701866Y-39281500D01*
X100639684Y-39288255D01*
X100503295Y-39339385D01*
X100386739Y-39426739D01*
X100299385Y-39543295D01*
X100248255Y-39679684D01*
X100241500Y-39741866D01*
X100241500Y-41538134D01*
X100248255Y-41600316D01*
X100299385Y-41736705D01*
X100386739Y-41853261D01*
X100503295Y-41940615D01*
X100511704Y-41943767D01*
X100511705Y-41943768D01*
X100620451Y-41984535D01*
X100677216Y-42027176D01*
X100701916Y-42093738D01*
X100686709Y-42163087D01*
X100667316Y-42189568D01*
X100540629Y-42322138D01*
X100414743Y-42506680D01*
X100376133Y-42589858D01*
X100339471Y-42668841D01*
X100320688Y-42709305D01*
X100260989Y-42924570D01*
X100237251Y-43146695D01*
X100237548Y-43151848D01*
X100237548Y-43151851D01*
X100243011Y-43246590D01*
X100250110Y-43369715D01*
X100251247Y-43374761D01*
X100251248Y-43374767D01*
X100271119Y-43462939D01*
X100299222Y-43587639D01*
X100383266Y-43794616D01*
X100499987Y-43985088D01*
X100646250Y-44153938D01*
X100818126Y-44296632D01*
X101011000Y-44409338D01*
X101219692Y-44489030D01*
X101224760Y-44490061D01*
X101224763Y-44490062D01*
X101332017Y-44511883D01*
X101438597Y-44533567D01*
X101443772Y-44533757D01*
X101443774Y-44533757D01*
X101656673Y-44541564D01*
X101656677Y-44541564D01*
X101661837Y-44541753D01*
X101666957Y-44541097D01*
X101666959Y-44541097D01*
X101878288Y-44514025D01*
X101878289Y-44514025D01*
X101883416Y-44513368D01*
X101888366Y-44511883D01*
X102092429Y-44450661D01*
X102092434Y-44450659D01*
X102097384Y-44449174D01*
X102297994Y-44350896D01*
X102479860Y-44221173D01*
X102638096Y-44063489D01*
X102697594Y-43980689D01*
X102765435Y-43886277D01*
X102768453Y-43882077D01*
X102770746Y-43877437D01*
X102772446Y-43874608D01*
X102824674Y-43826518D01*
X102880451Y-43813500D01*
X105603406Y-43813500D01*
X105671527Y-43833502D01*
X105692501Y-43850405D01*
X106620843Y-44778747D01*
X106628387Y-44787037D01*
X106632500Y-44793518D01*
X106638277Y-44798943D01*
X106682167Y-44840158D01*
X106685009Y-44842913D01*
X106704731Y-44862635D01*
X106707855Y-44865058D01*
X106707859Y-44865062D01*
X106707924Y-44865112D01*
X106716945Y-44872817D01*
X106749179Y-44903086D01*
X106756127Y-44906905D01*
X106756129Y-44906907D01*
X106766932Y-44912846D01*
X106783459Y-44923702D01*
X106793198Y-44931257D01*
X106793200Y-44931258D01*
X106799460Y-44936114D01*
X106840040Y-44953674D01*
X106850688Y-44958891D01*
X106880146Y-44975086D01*
X106930204Y-45025432D01*
X106945097Y-45094849D01*
X106920095Y-45161298D01*
X106863138Y-45203681D01*
X106819444Y-45211500D01*
X99694500Y-45211500D01*
X99626379Y-45191498D01*
X99579886Y-45137842D01*
X99568500Y-45085500D01*
X99568500Y-36454669D01*
X100242001Y-36454669D01*
X100242371Y-36461490D01*
X100247895Y-36512352D01*
X100251521Y-36527604D01*
X100296676Y-36648054D01*
X100305214Y-36663649D01*
X100381715Y-36765724D01*
X100394276Y-36778285D01*
X100496351Y-36854786D01*
X100511946Y-36863324D01*
X100632394Y-36908478D01*
X100647649Y-36912105D01*
X100698514Y-36917631D01*
X100705328Y-36918000D01*
X101327885Y-36918000D01*
X101343124Y-36913525D01*
X101344329Y-36912135D01*
X101346000Y-36904452D01*
X101346000Y-36899884D01*
X101854000Y-36899884D01*
X101858475Y-36915123D01*
X101859865Y-36916328D01*
X101867548Y-36917999D01*
X102494669Y-36917999D01*
X102501490Y-36917629D01*
X102552352Y-36912105D01*
X102567604Y-36908479D01*
X102688054Y-36863324D01*
X102703649Y-36854786D01*
X102805724Y-36778285D01*
X102818285Y-36765724D01*
X102894786Y-36663649D01*
X102903324Y-36648054D01*
X102948478Y-36527606D01*
X102952105Y-36512351D01*
X102957631Y-36461486D01*
X102958000Y-36454672D01*
X102958000Y-35832115D01*
X102953525Y-35816876D01*
X102952135Y-35815671D01*
X102944452Y-35814000D01*
X101872115Y-35814000D01*
X101856876Y-35818475D01*
X101855671Y-35819865D01*
X101854000Y-35827548D01*
X101854000Y-36899884D01*
X101346000Y-36899884D01*
X101346000Y-35832115D01*
X101341525Y-35816876D01*
X101340135Y-35815671D01*
X101332452Y-35814000D01*
X100260116Y-35814000D01*
X100244877Y-35818475D01*
X100243672Y-35819865D01*
X100242001Y-35827548D01*
X100242001Y-36454669D01*
X99568500Y-36454669D01*
X99568500Y-35287885D01*
X100242000Y-35287885D01*
X100246475Y-35303124D01*
X100247865Y-35304329D01*
X100255548Y-35306000D01*
X101327885Y-35306000D01*
X101343124Y-35301525D01*
X101344329Y-35300135D01*
X101346000Y-35292452D01*
X101346000Y-35287885D01*
X101854000Y-35287885D01*
X101858475Y-35303124D01*
X101859865Y-35304329D01*
X101867548Y-35306000D01*
X102939884Y-35306000D01*
X102955123Y-35301525D01*
X102956328Y-35300135D01*
X102957999Y-35292452D01*
X102957999Y-34665331D01*
X102957629Y-34658510D01*
X102952105Y-34607648D01*
X102948479Y-34592396D01*
X102903324Y-34471946D01*
X102894786Y-34456351D01*
X102818285Y-34354276D01*
X102805724Y-34341715D01*
X102703649Y-34265214D01*
X102688054Y-34256676D01*
X102577297Y-34215155D01*
X102558581Y-34201095D01*
X103796001Y-34201095D01*
X103796338Y-34207614D01*
X103806257Y-34303206D01*
X103809149Y-34316600D01*
X103860588Y-34470784D01*
X103866761Y-34483962D01*
X103952063Y-34621807D01*
X103961099Y-34633208D01*
X104075829Y-34747739D01*
X104087240Y-34756751D01*
X104225243Y-34841816D01*
X104238424Y-34847963D01*
X104392710Y-34899138D01*
X104406086Y-34902005D01*
X104500438Y-34911672D01*
X104506854Y-34912000D01*
X104756885Y-34912000D01*
X104772124Y-34907525D01*
X104773329Y-34906135D01*
X104775000Y-34898452D01*
X104775000Y-34893884D01*
X105283000Y-34893884D01*
X105287475Y-34909123D01*
X105288865Y-34910328D01*
X105296548Y-34911999D01*
X105551095Y-34911999D01*
X105557614Y-34911662D01*
X105653206Y-34901743D01*
X105666600Y-34898851D01*
X105820784Y-34847412D01*
X105833962Y-34841239D01*
X105971807Y-34755937D01*
X105983208Y-34746901D01*
X106097739Y-34632171D01*
X106106751Y-34620760D01*
X106191816Y-34482757D01*
X106197963Y-34469576D01*
X106249138Y-34315290D01*
X106252005Y-34301914D01*
X106261672Y-34207562D01*
X106262000Y-34201146D01*
X106262000Y-34176115D01*
X106257525Y-34160876D01*
X106256135Y-34159671D01*
X106248452Y-34158000D01*
X105301115Y-34158000D01*
X105285876Y-34162475D01*
X105284671Y-34163865D01*
X105283000Y-34171548D01*
X105283000Y-34893884D01*
X104775000Y-34893884D01*
X104775000Y-34176115D01*
X104770525Y-34160876D01*
X104769135Y-34159671D01*
X104761452Y-34158000D01*
X103814116Y-34158000D01*
X103798877Y-34162475D01*
X103797672Y-34163865D01*
X103796001Y-34171548D01*
X103796001Y-34201095D01*
X102558581Y-34201095D01*
X102520533Y-34172513D01*
X102495833Y-34105952D01*
X102511040Y-34036603D01*
X102532587Y-34007922D01*
X102634057Y-33906805D01*
X102640730Y-33898965D01*
X102765003Y-33726020D01*
X102770313Y-33717183D01*
X102864670Y-33526267D01*
X102868469Y-33516672D01*
X102930377Y-33312910D01*
X102932555Y-33302837D01*
X102933986Y-33291962D01*
X102931775Y-33277778D01*
X102918617Y-33274000D01*
X101872115Y-33274000D01*
X101856876Y-33278475D01*
X101855671Y-33279865D01*
X101854000Y-33287548D01*
X101854000Y-35287885D01*
X101346000Y-35287885D01*
X101346000Y-33292115D01*
X101341525Y-33276876D01*
X101340135Y-33275671D01*
X101332452Y-33274000D01*
X100283225Y-33274000D01*
X100269694Y-33277973D01*
X100268257Y-33287966D01*
X100298565Y-33422446D01*
X100301645Y-33432275D01*
X100381770Y-33629603D01*
X100386413Y-33638794D01*
X100497694Y-33820388D01*
X100503777Y-33828699D01*
X100643213Y-33989667D01*
X100650578Y-33996881D01*
X100655966Y-34001354D01*
X100695599Y-34060258D01*
X100697095Y-34131239D01*
X100659978Y-34191761D01*
X100619707Y-34216278D01*
X100511948Y-34256675D01*
X100496351Y-34265214D01*
X100394276Y-34341715D01*
X100381715Y-34354276D01*
X100305214Y-34456351D01*
X100296676Y-34471946D01*
X100251522Y-34592394D01*
X100247895Y-34607649D01*
X100242369Y-34658514D01*
X100242000Y-34665328D01*
X100242000Y-35287885D01*
X99568500Y-35287885D01*
X99568500Y-32754183D01*
X100264389Y-32754183D01*
X100265912Y-32762607D01*
X100278292Y-32766000D01*
X101327885Y-32766000D01*
X101343124Y-32761525D01*
X101344329Y-32760135D01*
X101346000Y-32752452D01*
X101346000Y-32747885D01*
X101854000Y-32747885D01*
X101858475Y-32763124D01*
X101859865Y-32764329D01*
X101867548Y-32766000D01*
X102918344Y-32766000D01*
X102931875Y-32762027D01*
X102933180Y-32752947D01*
X102891214Y-32585875D01*
X102887894Y-32576124D01*
X102802972Y-32380814D01*
X102798105Y-32371739D01*
X102682426Y-32192926D01*
X102676136Y-32184757D01*
X102532806Y-32027240D01*
X102525273Y-32020215D01*
X102358139Y-31888222D01*
X102349552Y-31882517D01*
X102163117Y-31779599D01*
X102153705Y-31775369D01*
X101952959Y-31704280D01*
X101942988Y-31701646D01*
X101871837Y-31688972D01*
X101858540Y-31690432D01*
X101854000Y-31704989D01*
X101854000Y-32747885D01*
X101346000Y-32747885D01*
X101346000Y-31703102D01*
X101342082Y-31689758D01*
X101327806Y-31687771D01*
X101289324Y-31693660D01*
X101279288Y-31696051D01*
X101076868Y-31762212D01*
X101067359Y-31766209D01*
X100878463Y-31864542D01*
X100869738Y-31870036D01*
X100699433Y-31997905D01*
X100691726Y-32004748D01*
X100544590Y-32158717D01*
X100538104Y-32166727D01*
X100418098Y-32342649D01*
X100413000Y-32351623D01*
X100323338Y-32544783D01*
X100319775Y-32554470D01*
X100264389Y-32754183D01*
X99568500Y-32754183D01*
X99568500Y-31114500D01*
X99588502Y-31046379D01*
X99642158Y-30999886D01*
X99694500Y-30988500D01*
X103942567Y-30988500D01*
X104010688Y-31008502D01*
G37*
%TD.AperFunction*%
%TD*%
M02*
