%TF.GenerationSoftware,KiCad,Pcbnew,6.0.7-f9a2dced07~116~ubuntu20.04.1*%
%TF.CreationDate,2022-10-31T14:46:48+01:00*%
%TF.ProjectId,sgp41_board,73677034-315f-4626-9f61-72642e6b6963,rev?*%
%TF.SameCoordinates,Original*%
%TF.FileFunction,Copper,L2,Bot*%
%TF.FilePolarity,Positive*%
%FSLAX46Y46*%
G04 Gerber Fmt 4.6, Leading zero omitted, Abs format (unit mm)*
G04 Created by KiCad (PCBNEW 6.0.7-f9a2dced07~116~ubuntu20.04.1) date 2022-10-31 14:46:48*
%MOMM*%
%LPD*%
G01*
G04 APERTURE LIST*
G04 Aperture macros list*
%AMRoundRect*
0 Rectangle with rounded corners*
0 $1 Rounding radius*
0 $2 $3 $4 $5 $6 $7 $8 $9 X,Y pos of 4 corners*
0 Add a 4 corners polygon primitive as box body*
4,1,4,$2,$3,$4,$5,$6,$7,$8,$9,$2,$3,0*
0 Add four circle primitives for the rounded corners*
1,1,$1+$1,$2,$3*
1,1,$1+$1,$4,$5*
1,1,$1+$1,$6,$7*
1,1,$1+$1,$8,$9*
0 Add four rect primitives between the rounded corners*
20,1,$1+$1,$2,$3,$4,$5,0*
20,1,$1+$1,$4,$5,$6,$7,0*
20,1,$1+$1,$6,$7,$8,$9,0*
20,1,$1+$1,$8,$9,$2,$3,0*%
G04 Aperture macros list end*
%TA.AperFunction,ComponentPad*%
%ADD10R,1.700000X1.700000*%
%TD*%
%TA.AperFunction,ComponentPad*%
%ADD11O,1.700000X1.700000*%
%TD*%
%TA.AperFunction,SMDPad,CuDef*%
%ADD12RoundRect,0.250000X0.450000X-0.262500X0.450000X0.262500X-0.450000X0.262500X-0.450000X-0.262500X0*%
%TD*%
%TA.AperFunction,ViaPad*%
%ADD13C,0.800000*%
%TD*%
%TA.AperFunction,Conductor*%
%ADD14C,0.250000*%
%TD*%
G04 APERTURE END LIST*
D10*
%TO.P,J3,1,Pin_1*%
%TO.N,Net-(R3-Pad2)*%
X119380000Y-40640000D03*
D11*
%TO.P,J3,2,Pin_2*%
X119380000Y-43180000D03*
%TD*%
D10*
%TO.P,J4,1,Pin_1*%
%TO.N,Net-(R1-Pad2)*%
X119380000Y-35560000D03*
D11*
%TO.P,J4,2,Pin_2*%
X119380000Y-33020000D03*
%TD*%
D12*
%TO.P,R3,1*%
%TO.N,Net-(C2-Pad1)*%
X113411000Y-35179000D03*
%TO.P,R3,2*%
%TO.N,Net-(R3-Pad2)*%
X113411000Y-33354000D03*
%TD*%
D10*
%TO.P,J1,1,Pin_1*%
%TO.N,Net-(C2-Pad1)*%
X101600000Y-40640000D03*
D11*
%TO.P,J1,2,Pin_2*%
X101600000Y-43180000D03*
%TD*%
D10*
%TO.P,J2,1,Pin_1*%
%TO.N,GND*%
X101600000Y-35560000D03*
D11*
%TO.P,J2,2,Pin_2*%
X101600000Y-33020000D03*
%TD*%
D12*
%TO.P,R1,1*%
%TO.N,Net-(C2-Pad1)*%
X107950000Y-42719000D03*
%TO.P,R1,2*%
%TO.N,Net-(R1-Pad2)*%
X107950000Y-40894000D03*
%TD*%
D13*
%TO.N,Net-(C2-Pad1)*%
X115443000Y-35179000D03*
%TO.N,Net-(R3-Pad2)*%
X111506000Y-33401000D03*
%TO.N,Net-(R1-Pad2)*%
X104521000Y-40640000D03*
%TD*%
D14*
%TO.N,Net-(C2-Pad1)*%
X102061000Y-42719000D02*
X101600000Y-43180000D01*
X113411000Y-35179000D02*
X115443000Y-35179000D01*
X107950000Y-42719000D02*
X102061000Y-42719000D01*
%TO.N,Net-(R3-Pad2)*%
X111506000Y-33401000D02*
X113364000Y-33401000D01*
X112649000Y-36576000D02*
X116205000Y-36576000D01*
X111506000Y-33401000D02*
X111506000Y-35433000D01*
X116205000Y-36576000D02*
X119380000Y-39751000D01*
X119380000Y-39751000D02*
X119380000Y-40640000D01*
X111506000Y-35433000D02*
X112649000Y-36576000D01*
X113364000Y-33401000D02*
X113411000Y-33354000D01*
%TO.N,Net-(R1-Pad2)*%
X110363000Y-32766000D02*
X110871000Y-32258000D01*
X110871000Y-32258000D02*
X118618000Y-32258000D01*
X104521000Y-40640000D02*
X107696000Y-40640000D01*
X107696000Y-40640000D02*
X107950000Y-40894000D01*
X118618000Y-32258000D02*
X119380000Y-33020000D01*
X107950000Y-40894000D02*
X110363000Y-38481000D01*
X110363000Y-38481000D02*
X110363000Y-32766000D01*
%TD*%
%TA.AperFunction,Conductor*%
%TO.N,GND*%
G36*
X121353621Y-31008502D02*
G01*
X121400114Y-31062158D01*
X121411500Y-31114500D01*
X121411500Y-45085500D01*
X121391498Y-45153621D01*
X121337842Y-45200114D01*
X121285500Y-45211500D01*
X99694500Y-45211500D01*
X99626379Y-45191498D01*
X99579886Y-45137842D01*
X99568500Y-45085500D01*
X99568500Y-43146695D01*
X100237251Y-43146695D01*
X100237548Y-43151848D01*
X100237548Y-43151851D01*
X100243011Y-43246590D01*
X100250110Y-43369715D01*
X100251247Y-43374761D01*
X100251248Y-43374767D01*
X100269286Y-43454803D01*
X100299222Y-43587639D01*
X100383266Y-43794616D01*
X100499987Y-43985088D01*
X100646250Y-44153938D01*
X100818126Y-44296632D01*
X101011000Y-44409338D01*
X101219692Y-44489030D01*
X101224760Y-44490061D01*
X101224763Y-44490062D01*
X101332017Y-44511883D01*
X101438597Y-44533567D01*
X101443772Y-44533757D01*
X101443774Y-44533757D01*
X101656673Y-44541564D01*
X101656677Y-44541564D01*
X101661837Y-44541753D01*
X101666957Y-44541097D01*
X101666959Y-44541097D01*
X101878288Y-44514025D01*
X101878289Y-44514025D01*
X101883416Y-44513368D01*
X101888366Y-44511883D01*
X102092429Y-44450661D01*
X102092434Y-44450659D01*
X102097384Y-44449174D01*
X102297994Y-44350896D01*
X102479860Y-44221173D01*
X102638096Y-44063489D01*
X102697594Y-43980689D01*
X102765435Y-43886277D01*
X102768453Y-43882077D01*
X102838672Y-43740000D01*
X102865136Y-43686453D01*
X102865137Y-43686451D01*
X102867430Y-43681811D01*
X102896951Y-43584646D01*
X102930866Y-43473021D01*
X102930867Y-43473015D01*
X102932370Y-43468069D01*
X102933046Y-43462939D01*
X102933162Y-43462051D01*
X102933310Y-43461717D01*
X102934138Y-43457886D01*
X102934929Y-43458057D01*
X102961886Y-43397125D01*
X103021152Y-43358034D01*
X103058084Y-43352500D01*
X106767366Y-43352500D01*
X106835487Y-43372502D01*
X106874509Y-43412196D01*
X106901522Y-43455848D01*
X107026697Y-43580805D01*
X107032927Y-43584645D01*
X107032928Y-43584646D01*
X107170090Y-43669194D01*
X107177262Y-43673615D01*
X107215968Y-43686453D01*
X107338611Y-43727132D01*
X107338613Y-43727132D01*
X107345139Y-43729297D01*
X107351975Y-43729997D01*
X107351978Y-43729998D01*
X107395031Y-43734409D01*
X107449600Y-43740000D01*
X108450400Y-43740000D01*
X108453646Y-43739663D01*
X108453650Y-43739663D01*
X108549308Y-43729738D01*
X108549312Y-43729737D01*
X108556166Y-43729026D01*
X108562702Y-43726845D01*
X108562704Y-43726845D01*
X108712535Y-43676857D01*
X108723946Y-43673050D01*
X108874348Y-43579978D01*
X108999305Y-43454803D01*
X109025568Y-43412197D01*
X109088275Y-43310468D01*
X109088276Y-43310466D01*
X109092115Y-43304238D01*
X109142659Y-43151851D01*
X109145632Y-43142889D01*
X109145632Y-43142887D01*
X109147797Y-43136361D01*
X109158500Y-43031900D01*
X109158500Y-42406100D01*
X109152951Y-42352617D01*
X109148238Y-42307192D01*
X109148237Y-42307188D01*
X109147526Y-42300334D01*
X109091550Y-42132554D01*
X108998478Y-41982152D01*
X108911891Y-41895716D01*
X108877812Y-41833434D01*
X108882815Y-41762614D01*
X108911736Y-41717525D01*
X108994134Y-41634983D01*
X108999305Y-41629803D01*
X109073051Y-41510166D01*
X109088275Y-41485468D01*
X109088276Y-41485466D01*
X109092115Y-41479238D01*
X109147797Y-41311361D01*
X109158500Y-41206900D01*
X109158500Y-40633594D01*
X109178502Y-40565473D01*
X109195405Y-40544499D01*
X110755247Y-38984657D01*
X110763537Y-38977113D01*
X110770018Y-38973000D01*
X110816659Y-38923332D01*
X110819413Y-38920491D01*
X110839134Y-38900770D01*
X110841612Y-38897575D01*
X110849318Y-38888553D01*
X110874158Y-38862101D01*
X110879586Y-38856321D01*
X110889346Y-38838568D01*
X110900199Y-38822045D01*
X110907753Y-38812306D01*
X110912613Y-38806041D01*
X110930176Y-38765457D01*
X110935383Y-38754827D01*
X110956695Y-38716060D01*
X110958666Y-38708383D01*
X110958668Y-38708378D01*
X110961732Y-38696442D01*
X110968138Y-38677730D01*
X110973033Y-38666419D01*
X110976181Y-38659145D01*
X110977421Y-38651317D01*
X110977423Y-38651310D01*
X110983099Y-38615476D01*
X110985505Y-38603856D01*
X110994528Y-38568711D01*
X110994528Y-38568710D01*
X110996500Y-38561030D01*
X110996500Y-38540776D01*
X110998051Y-38521065D01*
X110999980Y-38508886D01*
X111001220Y-38501057D01*
X110997059Y-38457038D01*
X110996500Y-38445181D01*
X110996500Y-36123594D01*
X111016502Y-36055473D01*
X111070158Y-36008980D01*
X111140432Y-35998876D01*
X111205012Y-36028370D01*
X111211580Y-36034484D01*
X112145359Y-36968264D01*
X112152888Y-36976538D01*
X112157000Y-36983018D01*
X112162777Y-36988443D01*
X112206651Y-37029643D01*
X112209493Y-37032398D01*
X112229230Y-37052135D01*
X112232427Y-37054615D01*
X112241447Y-37062318D01*
X112273679Y-37092586D01*
X112280625Y-37096405D01*
X112280628Y-37096407D01*
X112291434Y-37102348D01*
X112307953Y-37113199D01*
X112323959Y-37125614D01*
X112331228Y-37128759D01*
X112331232Y-37128762D01*
X112364537Y-37143174D01*
X112375187Y-37148391D01*
X112413940Y-37169695D01*
X112421615Y-37171666D01*
X112421616Y-37171666D01*
X112433562Y-37174733D01*
X112452267Y-37181137D01*
X112470855Y-37189181D01*
X112478678Y-37190420D01*
X112478688Y-37190423D01*
X112514524Y-37196099D01*
X112526144Y-37198505D01*
X112561289Y-37207528D01*
X112568970Y-37209500D01*
X112589224Y-37209500D01*
X112608934Y-37211051D01*
X112628943Y-37214220D01*
X112636835Y-37213474D01*
X112672961Y-37210059D01*
X112684819Y-37209500D01*
X115890406Y-37209500D01*
X115958527Y-37229502D01*
X115979501Y-37246405D01*
X118086536Y-39353441D01*
X118120562Y-39415753D01*
X118115497Y-39486569D01*
X118098267Y-39518101D01*
X118079385Y-39543295D01*
X118028255Y-39679684D01*
X118021500Y-39741866D01*
X118021500Y-41538134D01*
X118028255Y-41600316D01*
X118079385Y-41736705D01*
X118166739Y-41853261D01*
X118283295Y-41940615D01*
X118291704Y-41943767D01*
X118291705Y-41943768D01*
X118400451Y-41984535D01*
X118457216Y-42027176D01*
X118481916Y-42093738D01*
X118466709Y-42163087D01*
X118447316Y-42189568D01*
X118320629Y-42322138D01*
X118194743Y-42506680D01*
X118100688Y-42709305D01*
X118040989Y-42924570D01*
X118017251Y-43146695D01*
X118017548Y-43151848D01*
X118017548Y-43151851D01*
X118023011Y-43246590D01*
X118030110Y-43369715D01*
X118031247Y-43374761D01*
X118031248Y-43374767D01*
X118049286Y-43454803D01*
X118079222Y-43587639D01*
X118163266Y-43794616D01*
X118279987Y-43985088D01*
X118426250Y-44153938D01*
X118598126Y-44296632D01*
X118791000Y-44409338D01*
X118999692Y-44489030D01*
X119004760Y-44490061D01*
X119004763Y-44490062D01*
X119112017Y-44511883D01*
X119218597Y-44533567D01*
X119223772Y-44533757D01*
X119223774Y-44533757D01*
X119436673Y-44541564D01*
X119436677Y-44541564D01*
X119441837Y-44541753D01*
X119446957Y-44541097D01*
X119446959Y-44541097D01*
X119658288Y-44514025D01*
X119658289Y-44514025D01*
X119663416Y-44513368D01*
X119668366Y-44511883D01*
X119872429Y-44450661D01*
X119872434Y-44450659D01*
X119877384Y-44449174D01*
X120077994Y-44350896D01*
X120259860Y-44221173D01*
X120418096Y-44063489D01*
X120477594Y-43980689D01*
X120545435Y-43886277D01*
X120548453Y-43882077D01*
X120618672Y-43740000D01*
X120645136Y-43686453D01*
X120645137Y-43686451D01*
X120647430Y-43681811D01*
X120712370Y-43468069D01*
X120741529Y-43246590D01*
X120743156Y-43180000D01*
X120724852Y-42957361D01*
X120670431Y-42740702D01*
X120581354Y-42535840D01*
X120499534Y-42409366D01*
X120462822Y-42352617D01*
X120462820Y-42352614D01*
X120460014Y-42348277D01*
X120456532Y-42344450D01*
X120312798Y-42186488D01*
X120281746Y-42122642D01*
X120290141Y-42052143D01*
X120335317Y-41997375D01*
X120361761Y-41983706D01*
X120468297Y-41943767D01*
X120476705Y-41940615D01*
X120593261Y-41853261D01*
X120680615Y-41736705D01*
X120731745Y-41600316D01*
X120738500Y-41538134D01*
X120738500Y-39741866D01*
X120731745Y-39679684D01*
X120680615Y-39543295D01*
X120593261Y-39426739D01*
X120476705Y-39339385D01*
X120340316Y-39288255D01*
X120278134Y-39281500D01*
X119858594Y-39281500D01*
X119790473Y-39261498D01*
X119769499Y-39244595D01*
X116708652Y-36183747D01*
X116701112Y-36175461D01*
X116697000Y-36168982D01*
X116647348Y-36122356D01*
X116644507Y-36119602D01*
X116624770Y-36099865D01*
X116621573Y-36097385D01*
X116612551Y-36089680D01*
X116586100Y-36064841D01*
X116580321Y-36059414D01*
X116573375Y-36055595D01*
X116573372Y-36055593D01*
X116562566Y-36049652D01*
X116546047Y-36038801D01*
X116545583Y-36038441D01*
X116530041Y-36026386D01*
X116522772Y-36023241D01*
X116522768Y-36023238D01*
X116489463Y-36008826D01*
X116478813Y-36003609D01*
X116440060Y-35982305D01*
X116420437Y-35977267D01*
X116401734Y-35970863D01*
X116390420Y-35965967D01*
X116390419Y-35965967D01*
X116383145Y-35962819D01*
X116375322Y-35961580D01*
X116375312Y-35961577D01*
X116339476Y-35955901D01*
X116327856Y-35953495D01*
X116292711Y-35944472D01*
X116292710Y-35944472D01*
X116285030Y-35942500D01*
X116264776Y-35942500D01*
X116245060Y-35940948D01*
X116241795Y-35940431D01*
X116177644Y-35910015D01*
X116140120Y-35849744D01*
X116141138Y-35778755D01*
X116167876Y-35731675D01*
X116182040Y-35715944D01*
X116277527Y-35550556D01*
X116336542Y-35368928D01*
X116356504Y-35179000D01*
X116336542Y-34989072D01*
X116277527Y-34807444D01*
X116182040Y-34642056D01*
X116054253Y-34500134D01*
X115899752Y-34387882D01*
X115893724Y-34385198D01*
X115893722Y-34385197D01*
X115731319Y-34312891D01*
X115731318Y-34312891D01*
X115725288Y-34310206D01*
X115631888Y-34290353D01*
X115544944Y-34271872D01*
X115544939Y-34271872D01*
X115538487Y-34270500D01*
X115347513Y-34270500D01*
X115341061Y-34271872D01*
X115341056Y-34271872D01*
X115254112Y-34290353D01*
X115160712Y-34310206D01*
X115154682Y-34312891D01*
X115154681Y-34312891D01*
X114992278Y-34385197D01*
X114992276Y-34385198D01*
X114986248Y-34387882D01*
X114980907Y-34391762D01*
X114980906Y-34391763D01*
X114912912Y-34441164D01*
X114831747Y-34500134D01*
X114827332Y-34505037D01*
X114822420Y-34509460D01*
X114821295Y-34508211D01*
X114767986Y-34541051D01*
X114734800Y-34545500D01*
X114593634Y-34545500D01*
X114525513Y-34525498D01*
X114486490Y-34485803D01*
X114484277Y-34482226D01*
X114459478Y-34442152D01*
X114372891Y-34355716D01*
X114338812Y-34293434D01*
X114343815Y-34222614D01*
X114372736Y-34177525D01*
X114455134Y-34094983D01*
X114460305Y-34089803D01*
X114478517Y-34060258D01*
X114549275Y-33945468D01*
X114549276Y-33945466D01*
X114553115Y-33939238D01*
X114579564Y-33859495D01*
X114606632Y-33777889D01*
X114606632Y-33777887D01*
X114608797Y-33771361D01*
X114619500Y-33666900D01*
X114619500Y-33041100D01*
X114618400Y-33030499D01*
X114631268Y-32960678D01*
X114679841Y-32908898D01*
X114743728Y-32891500D01*
X117892818Y-32891500D01*
X117960939Y-32911502D01*
X118007432Y-32965158D01*
X118018609Y-33010247D01*
X118030110Y-33209715D01*
X118031247Y-33214761D01*
X118031248Y-33214767D01*
X118045449Y-33277778D01*
X118079222Y-33427639D01*
X118163266Y-33634616D01*
X118165965Y-33639020D01*
X118251064Y-33777889D01*
X118279987Y-33825088D01*
X118426250Y-33993938D01*
X118430230Y-33997242D01*
X118434981Y-34001187D01*
X118474616Y-34060090D01*
X118476113Y-34131071D01*
X118438997Y-34191593D01*
X118398725Y-34216112D01*
X118381381Y-34222614D01*
X118283295Y-34259385D01*
X118166739Y-34346739D01*
X118079385Y-34463295D01*
X118028255Y-34599684D01*
X118021500Y-34661866D01*
X118021500Y-36458134D01*
X118028255Y-36520316D01*
X118079385Y-36656705D01*
X118166739Y-36773261D01*
X118283295Y-36860615D01*
X118419684Y-36911745D01*
X118481866Y-36918500D01*
X120278134Y-36918500D01*
X120340316Y-36911745D01*
X120476705Y-36860615D01*
X120593261Y-36773261D01*
X120680615Y-36656705D01*
X120731745Y-36520316D01*
X120738500Y-36458134D01*
X120738500Y-34661866D01*
X120731745Y-34599684D01*
X120680615Y-34463295D01*
X120593261Y-34346739D01*
X120476705Y-34259385D01*
X120423838Y-34239566D01*
X120358203Y-34214960D01*
X120301439Y-34172318D01*
X120276739Y-34105756D01*
X120291947Y-34036408D01*
X120313493Y-34007727D01*
X120414435Y-33907137D01*
X120418096Y-33903489D01*
X120477594Y-33820689D01*
X120545435Y-33726277D01*
X120548453Y-33722077D01*
X120574143Y-33670098D01*
X120645136Y-33526453D01*
X120645137Y-33526451D01*
X120647430Y-33521811D01*
X120712370Y-33308069D01*
X120741529Y-33086590D01*
X120742561Y-33044366D01*
X120743074Y-33023365D01*
X120743074Y-33023361D01*
X120743156Y-33020000D01*
X120724852Y-32797361D01*
X120670431Y-32580702D01*
X120581354Y-32375840D01*
X120460014Y-32188277D01*
X120309670Y-32023051D01*
X120305619Y-32019852D01*
X120305615Y-32019848D01*
X120138414Y-31887800D01*
X120138410Y-31887798D01*
X120134359Y-31884598D01*
X120098028Y-31864542D01*
X120082136Y-31855769D01*
X119938789Y-31776638D01*
X119933920Y-31774914D01*
X119933916Y-31774912D01*
X119733087Y-31703795D01*
X119733083Y-31703794D01*
X119728212Y-31702069D01*
X119723119Y-31701162D01*
X119723116Y-31701161D01*
X119513373Y-31663800D01*
X119513367Y-31663799D01*
X119508284Y-31662894D01*
X119434452Y-31661992D01*
X119290081Y-31660228D01*
X119290079Y-31660228D01*
X119284911Y-31660165D01*
X119064091Y-31693955D01*
X119050345Y-31698448D01*
X119021505Y-31707874D01*
X118950541Y-31710025D01*
X118932320Y-31703746D01*
X118902463Y-31690826D01*
X118891813Y-31685609D01*
X118853060Y-31664305D01*
X118839986Y-31660948D01*
X118833438Y-31659267D01*
X118814734Y-31652863D01*
X118803420Y-31647967D01*
X118803419Y-31647967D01*
X118796145Y-31644819D01*
X118788322Y-31643580D01*
X118788312Y-31643577D01*
X118752476Y-31637901D01*
X118740856Y-31635495D01*
X118705711Y-31626472D01*
X118705710Y-31626472D01*
X118698030Y-31624500D01*
X118677776Y-31624500D01*
X118658065Y-31622949D01*
X118655534Y-31622548D01*
X118638057Y-31619780D01*
X118630165Y-31620526D01*
X118594039Y-31623941D01*
X118582181Y-31624500D01*
X110949763Y-31624500D01*
X110938579Y-31623973D01*
X110931091Y-31622299D01*
X110923168Y-31622548D01*
X110863033Y-31624438D01*
X110859075Y-31624500D01*
X110831144Y-31624500D01*
X110827229Y-31624995D01*
X110827225Y-31624995D01*
X110827167Y-31625003D01*
X110827138Y-31625006D01*
X110815296Y-31625939D01*
X110771110Y-31627327D01*
X110753744Y-31632372D01*
X110751658Y-31632978D01*
X110732306Y-31636986D01*
X110720068Y-31638532D01*
X110720066Y-31638533D01*
X110712203Y-31639526D01*
X110671086Y-31655806D01*
X110659885Y-31659641D01*
X110617406Y-31671982D01*
X110610587Y-31676015D01*
X110610582Y-31676017D01*
X110599971Y-31682293D01*
X110582221Y-31690990D01*
X110563383Y-31698448D01*
X110556967Y-31703109D01*
X110556966Y-31703110D01*
X110527625Y-31724428D01*
X110517701Y-31730947D01*
X110486460Y-31749422D01*
X110486455Y-31749426D01*
X110479637Y-31753458D01*
X110465313Y-31767782D01*
X110450281Y-31780621D01*
X110433893Y-31792528D01*
X110405712Y-31826593D01*
X110397722Y-31835373D01*
X109970747Y-32262348D01*
X109962461Y-32269888D01*
X109955982Y-32274000D01*
X109950557Y-32279777D01*
X109909357Y-32323651D01*
X109906602Y-32326493D01*
X109886865Y-32346230D01*
X109884385Y-32349427D01*
X109876682Y-32358447D01*
X109846414Y-32390679D01*
X109842595Y-32397625D01*
X109842593Y-32397628D01*
X109836652Y-32408434D01*
X109825801Y-32424953D01*
X109813386Y-32440959D01*
X109810241Y-32448228D01*
X109810238Y-32448232D01*
X109795826Y-32481537D01*
X109790609Y-32492187D01*
X109769305Y-32530940D01*
X109767334Y-32538615D01*
X109767334Y-32538616D01*
X109764267Y-32550562D01*
X109757863Y-32569266D01*
X109749819Y-32587855D01*
X109748580Y-32595678D01*
X109748577Y-32595688D01*
X109742901Y-32631524D01*
X109740495Y-32643144D01*
X109729500Y-32685970D01*
X109729500Y-32706224D01*
X109727949Y-32725934D01*
X109724780Y-32745943D01*
X109725526Y-32753835D01*
X109728941Y-32789961D01*
X109729500Y-32801819D01*
X109729500Y-38166405D01*
X109709498Y-38234526D01*
X109692595Y-38255500D01*
X108112000Y-39836095D01*
X108049688Y-39870121D01*
X108022905Y-39873000D01*
X107449600Y-39873000D01*
X107446354Y-39873337D01*
X107446350Y-39873337D01*
X107350692Y-39883262D01*
X107350688Y-39883263D01*
X107343834Y-39883974D01*
X107337298Y-39886155D01*
X107337296Y-39886155D01*
X107205194Y-39930228D01*
X107176054Y-39939950D01*
X107169826Y-39943804D01*
X107169824Y-39943805D01*
X107098982Y-39987644D01*
X107032679Y-40006500D01*
X105229200Y-40006500D01*
X105161079Y-39986498D01*
X105141853Y-39970157D01*
X105141580Y-39970460D01*
X105136668Y-39966037D01*
X105132253Y-39961134D01*
X105025072Y-39883262D01*
X104983094Y-39852763D01*
X104983093Y-39852762D01*
X104977752Y-39848882D01*
X104971724Y-39846198D01*
X104971722Y-39846197D01*
X104809319Y-39773891D01*
X104809318Y-39773891D01*
X104803288Y-39771206D01*
X104681331Y-39745283D01*
X104622944Y-39732872D01*
X104622939Y-39732872D01*
X104616487Y-39731500D01*
X104425513Y-39731500D01*
X104419061Y-39732872D01*
X104419056Y-39732872D01*
X104360669Y-39745283D01*
X104238712Y-39771206D01*
X104232682Y-39773891D01*
X104232681Y-39773891D01*
X104070278Y-39846197D01*
X104070276Y-39846198D01*
X104064248Y-39848882D01*
X104058907Y-39852762D01*
X104058906Y-39852763D01*
X104030589Y-39873337D01*
X103909747Y-39961134D01*
X103781960Y-40103056D01*
X103686473Y-40268444D01*
X103627458Y-40450072D01*
X103607496Y-40640000D01*
X103627458Y-40829928D01*
X103686473Y-41011556D01*
X103781960Y-41176944D01*
X103786378Y-41181851D01*
X103786379Y-41181852D01*
X103905325Y-41313955D01*
X103909747Y-41318866D01*
X104064248Y-41431118D01*
X104070276Y-41433802D01*
X104070278Y-41433803D01*
X104232681Y-41506109D01*
X104238712Y-41508794D01*
X104332113Y-41528647D01*
X104419056Y-41547128D01*
X104419061Y-41547128D01*
X104425513Y-41548500D01*
X104616487Y-41548500D01*
X104622939Y-41547128D01*
X104622944Y-41547128D01*
X104709888Y-41528647D01*
X104803288Y-41508794D01*
X104809319Y-41506109D01*
X104971722Y-41433803D01*
X104971724Y-41433802D01*
X104977752Y-41431118D01*
X105132253Y-41318866D01*
X105136668Y-41313963D01*
X105141580Y-41309540D01*
X105142705Y-41310789D01*
X105196014Y-41277949D01*
X105229200Y-41273500D01*
X106648616Y-41273500D01*
X106716737Y-41293502D01*
X106763230Y-41347158D01*
X106768139Y-41359623D01*
X106805729Y-41472291D01*
X106808450Y-41480446D01*
X106901522Y-41630848D01*
X106906704Y-41636021D01*
X106988109Y-41717284D01*
X107022188Y-41779566D01*
X107017185Y-41850386D01*
X106988264Y-41895475D01*
X106940056Y-41943767D01*
X106900695Y-41983197D01*
X106896853Y-41989429D01*
X106896852Y-41989431D01*
X106874546Y-42025617D01*
X106821774Y-42073110D01*
X106767287Y-42085500D01*
X102881603Y-42085500D01*
X102813482Y-42065498D01*
X102766989Y-42011842D01*
X102756885Y-41941568D01*
X102786379Y-41876988D01*
X102806041Y-41858672D01*
X102806081Y-41858642D01*
X102813261Y-41853261D01*
X102900615Y-41736705D01*
X102951745Y-41600316D01*
X102958500Y-41538134D01*
X102958500Y-39741866D01*
X102951745Y-39679684D01*
X102900615Y-39543295D01*
X102813261Y-39426739D01*
X102696705Y-39339385D01*
X102560316Y-39288255D01*
X102498134Y-39281500D01*
X100701866Y-39281500D01*
X100639684Y-39288255D01*
X100503295Y-39339385D01*
X100386739Y-39426739D01*
X100299385Y-39543295D01*
X100248255Y-39679684D01*
X100241500Y-39741866D01*
X100241500Y-41538134D01*
X100248255Y-41600316D01*
X100299385Y-41736705D01*
X100386739Y-41853261D01*
X100503295Y-41940615D01*
X100511704Y-41943767D01*
X100511705Y-41943768D01*
X100620451Y-41984535D01*
X100677216Y-42027176D01*
X100701916Y-42093738D01*
X100686709Y-42163087D01*
X100667316Y-42189568D01*
X100540629Y-42322138D01*
X100414743Y-42506680D01*
X100320688Y-42709305D01*
X100260989Y-42924570D01*
X100237251Y-43146695D01*
X99568500Y-43146695D01*
X99568500Y-36454669D01*
X100242001Y-36454669D01*
X100242371Y-36461490D01*
X100247895Y-36512352D01*
X100251521Y-36527604D01*
X100296676Y-36648054D01*
X100305214Y-36663649D01*
X100381715Y-36765724D01*
X100394276Y-36778285D01*
X100496351Y-36854786D01*
X100511946Y-36863324D01*
X100632394Y-36908478D01*
X100647649Y-36912105D01*
X100698514Y-36917631D01*
X100705328Y-36918000D01*
X101327885Y-36918000D01*
X101343124Y-36913525D01*
X101344329Y-36912135D01*
X101346000Y-36904452D01*
X101346000Y-36899884D01*
X101854000Y-36899884D01*
X101858475Y-36915123D01*
X101859865Y-36916328D01*
X101867548Y-36917999D01*
X102494669Y-36917999D01*
X102501490Y-36917629D01*
X102552352Y-36912105D01*
X102567604Y-36908479D01*
X102688054Y-36863324D01*
X102703649Y-36854786D01*
X102805724Y-36778285D01*
X102818285Y-36765724D01*
X102894786Y-36663649D01*
X102903324Y-36648054D01*
X102948478Y-36527606D01*
X102952105Y-36512351D01*
X102957631Y-36461486D01*
X102958000Y-36454672D01*
X102958000Y-35832115D01*
X102953525Y-35816876D01*
X102952135Y-35815671D01*
X102944452Y-35814000D01*
X101872115Y-35814000D01*
X101856876Y-35818475D01*
X101855671Y-35819865D01*
X101854000Y-35827548D01*
X101854000Y-36899884D01*
X101346000Y-36899884D01*
X101346000Y-35832115D01*
X101341525Y-35816876D01*
X101340135Y-35815671D01*
X101332452Y-35814000D01*
X100260116Y-35814000D01*
X100244877Y-35818475D01*
X100243672Y-35819865D01*
X100242001Y-35827548D01*
X100242001Y-36454669D01*
X99568500Y-36454669D01*
X99568500Y-35287885D01*
X100242000Y-35287885D01*
X100246475Y-35303124D01*
X100247865Y-35304329D01*
X100255548Y-35306000D01*
X101327885Y-35306000D01*
X101343124Y-35301525D01*
X101344329Y-35300135D01*
X101346000Y-35292452D01*
X101346000Y-35287885D01*
X101854000Y-35287885D01*
X101858475Y-35303124D01*
X101859865Y-35304329D01*
X101867548Y-35306000D01*
X102939884Y-35306000D01*
X102955123Y-35301525D01*
X102956328Y-35300135D01*
X102957999Y-35292452D01*
X102957999Y-34665331D01*
X102957629Y-34658510D01*
X102952105Y-34607648D01*
X102948479Y-34592396D01*
X102903324Y-34471946D01*
X102894786Y-34456351D01*
X102818285Y-34354276D01*
X102805724Y-34341715D01*
X102703649Y-34265214D01*
X102688054Y-34256676D01*
X102577297Y-34215155D01*
X102520533Y-34172513D01*
X102495833Y-34105952D01*
X102511040Y-34036603D01*
X102532587Y-34007922D01*
X102634057Y-33906805D01*
X102640730Y-33898965D01*
X102765003Y-33726020D01*
X102770313Y-33717183D01*
X102864670Y-33526267D01*
X102868469Y-33516672D01*
X102930377Y-33312910D01*
X102932555Y-33302837D01*
X102933986Y-33291962D01*
X102931775Y-33277778D01*
X102918617Y-33274000D01*
X101872115Y-33274000D01*
X101856876Y-33278475D01*
X101855671Y-33279865D01*
X101854000Y-33287548D01*
X101854000Y-35287885D01*
X101346000Y-35287885D01*
X101346000Y-33292115D01*
X101341525Y-33276876D01*
X101340135Y-33275671D01*
X101332452Y-33274000D01*
X100283225Y-33274000D01*
X100269694Y-33277973D01*
X100268257Y-33287966D01*
X100298565Y-33422446D01*
X100301645Y-33432275D01*
X100381770Y-33629603D01*
X100386413Y-33638794D01*
X100497694Y-33820388D01*
X100503777Y-33828699D01*
X100643213Y-33989667D01*
X100650578Y-33996881D01*
X100655966Y-34001354D01*
X100695599Y-34060258D01*
X100697095Y-34131239D01*
X100659978Y-34191761D01*
X100619707Y-34216278D01*
X100511948Y-34256675D01*
X100496351Y-34265214D01*
X100394276Y-34341715D01*
X100381715Y-34354276D01*
X100305214Y-34456351D01*
X100296676Y-34471946D01*
X100251522Y-34592394D01*
X100247895Y-34607649D01*
X100242369Y-34658514D01*
X100242000Y-34665328D01*
X100242000Y-35287885D01*
X99568500Y-35287885D01*
X99568500Y-32754183D01*
X100264389Y-32754183D01*
X100265912Y-32762607D01*
X100278292Y-32766000D01*
X101327885Y-32766000D01*
X101343124Y-32761525D01*
X101344329Y-32760135D01*
X101346000Y-32752452D01*
X101346000Y-32747885D01*
X101854000Y-32747885D01*
X101858475Y-32763124D01*
X101859865Y-32764329D01*
X101867548Y-32766000D01*
X102918344Y-32766000D01*
X102931875Y-32762027D01*
X102933180Y-32752947D01*
X102891214Y-32585875D01*
X102887894Y-32576124D01*
X102802972Y-32380814D01*
X102798105Y-32371739D01*
X102682426Y-32192926D01*
X102676136Y-32184757D01*
X102532806Y-32027240D01*
X102525273Y-32020215D01*
X102358139Y-31888222D01*
X102349552Y-31882517D01*
X102163117Y-31779599D01*
X102153705Y-31775369D01*
X101952959Y-31704280D01*
X101942988Y-31701646D01*
X101871837Y-31688972D01*
X101858540Y-31690432D01*
X101854000Y-31704989D01*
X101854000Y-32747885D01*
X101346000Y-32747885D01*
X101346000Y-31703102D01*
X101342082Y-31689758D01*
X101327806Y-31687771D01*
X101289324Y-31693660D01*
X101279288Y-31696051D01*
X101076868Y-31762212D01*
X101067359Y-31766209D01*
X100878463Y-31864542D01*
X100869738Y-31870036D01*
X100699433Y-31997905D01*
X100691726Y-32004748D01*
X100544590Y-32158717D01*
X100538104Y-32166727D01*
X100418098Y-32342649D01*
X100413000Y-32351623D01*
X100323338Y-32544783D01*
X100319775Y-32554470D01*
X100264389Y-32754183D01*
X99568500Y-32754183D01*
X99568500Y-31114500D01*
X99588502Y-31046379D01*
X99642158Y-30999886D01*
X99694500Y-30988500D01*
X121285500Y-30988500D01*
X121353621Y-31008502D01*
G37*
%TD.AperFunction*%
%TD*%
M02*
