M48
; DRILL file {KiCad 6.0.7-f9a2dced07~116~ubuntu20.04.1} date Wed 23 Nov 2022 01:07:18 PM CET
; FORMAT={-:-/ absolute / metric / decimal}
; #@! TF.CreationDate,2022-11-23T13:07:18+01:00
; #@! TF.GenerationSoftware,Kicad,Pcbnew,6.0.7-f9a2dced07~116~ubuntu20.04.1
; #@! TF.FileFunction,NonPlated,1,2,NPTH
FMAT,2
METRIC
; #@! TA.AperFunction,NonPlated,NPTH,ComponentDrill
T1C3.000
; #@! TA.AperFunction,NonPlated,NPTH,ComponentDrill
T2C3.500
; #@! TA.AperFunction,NonPlated,NPTH,ComponentDrill
T3C4.000
; #@! TA.AperFunction,NonPlated,NPTH,ComponentDrill
T4C4.300
; #@! TA.AperFunction,NonPlated,NPTH,ComponentDrill
T5C14.000
%
G90
G05
T1
X307.721Y-139.192
X308.281Y-37.162
X312.301Y-174.752
X312.301Y-200.66
X312.861Y-72.722
X312.861Y-98.63
T2
X268.478Y-140.462
X268.478Y-186.182
X269.038Y-38.432
X269.038Y-84.152
X300.482Y-140.462
X300.482Y-173.736
X300.482Y-186.182
X300.482Y-219.456
X301.042Y-38.432
X301.042Y-71.706
X301.042Y-84.152
X301.042Y-117.426
X320.421Y-135.636
X320.421Y-168.91
X320.421Y-186.182
X320.421Y-219.456
X320.981Y-33.606
X320.981Y-66.88
X320.981Y-84.152
X320.981Y-117.426
X352.425Y-168.91
X352.425Y-186.182
X352.985Y-66.88
X352.985Y-84.152
T3
X275.714Y-146.578
X275.714Y-190.578
X276.274Y-44.548
X276.274Y-88.548
X300.714Y-146.578
X301.274Y-44.548
T4
X288.544Y-141.986
X289.104Y-39.956
X309.88Y-222.631
X310.44Y-120.601
T5
X286.714Y-168.578
X287.274Y-66.548
T0
M30
