%TF.GenerationSoftware,KiCad,Pcbnew,6.0.7-f9a2dced07~116~ubuntu20.04.1*%
%TF.CreationDate,2022-11-23T13:07:14+01:00*%
%TF.ProjectId,board,626f6172-642e-46b6-9963-61645f706362,rev?*%
%TF.SameCoordinates,Original*%
%TF.FileFunction,Soldermask,Bot*%
%TF.FilePolarity,Negative*%
%FSLAX46Y46*%
G04 Gerber Fmt 4.6, Leading zero omitted, Abs format (unit mm)*
G04 Created by KiCad (PCBNEW 6.0.7-f9a2dced07~116~ubuntu20.04.1) date 2022-11-23 13:07:14*
%MOMM*%
%LPD*%
G01*
G04 APERTURE LIST*
G04 Aperture macros list*
%AMRoundRect*
0 Rectangle with rounded corners*
0 $1 Rounding radius*
0 $2 $3 $4 $5 $6 $7 $8 $9 X,Y pos of 4 corners*
0 Add a 4 corners polygon primitive as box body*
4,1,4,$2,$3,$4,$5,$6,$7,$8,$9,$2,$3,0*
0 Add four circle primitives for the rounded corners*
1,1,$1+$1,$2,$3*
1,1,$1+$1,$4,$5*
1,1,$1+$1,$6,$7*
1,1,$1+$1,$8,$9*
0 Add four rect primitives between the rounded corners*
20,1,$1+$1,$2,$3,$4,$5,0*
20,1,$1+$1,$4,$5,$6,$7,0*
20,1,$1+$1,$6,$7,$8,$9,0*
20,1,$1+$1,$8,$9,$2,$3,0*%
G04 Aperture macros list end*
%ADD10C,1.524000*%
%ADD11C,3.500000*%
%ADD12RoundRect,0.250000X-0.250000X-0.475000X0.250000X-0.475000X0.250000X0.475000X-0.250000X0.475000X0*%
%ADD13O,1.700000X1.700000*%
%ADD14R,1.700000X1.700000*%
%ADD15C,2.000000*%
%ADD16R,2.000000X2.000000*%
%ADD17C,3.000000*%
%ADD18C,14.000000*%
%ADD19C,4.000000*%
%ADD20C,4.300000*%
G04 APERTURE END LIST*
D10*
%TO.C,AFE3*%
X291390000Y-34876000D03*
X288850000Y-34876000D03*
X286310000Y-34876000D03*
X283770000Y-34876000D03*
X281230000Y-34876000D03*
X278690000Y-34876000D03*
D11*
X301042000Y-71706000D03*
X269038000Y-38432000D03*
X301042000Y-38432000D03*
%TD*%
D10*
%TO.C,AFE1*%
X330633000Y-70436000D03*
X333173000Y-70436000D03*
X335713000Y-70436000D03*
X338253000Y-70436000D03*
X340793000Y-70436000D03*
X343333000Y-70436000D03*
D11*
X320981000Y-33606000D03*
X320981000Y-66880000D03*
X352985000Y-66880000D03*
%TD*%
D12*
%TO.C,C14*%
X280148000Y-116156000D03*
X278248000Y-116156000D03*
%TD*%
D13*
%TO.C,J24*%
X283770000Y-122506000D03*
X281230000Y-122506000D03*
X278690000Y-122506000D03*
X276150000Y-122506000D03*
X273610000Y-122506000D03*
X271070000Y-122506000D03*
X268530000Y-122506000D03*
X265990000Y-122506000D03*
X263450000Y-122506000D03*
D14*
X260910000Y-122506000D03*
%TD*%
D15*
%TO.C,C15*%
X287176323Y-110060000D03*
D16*
X283676323Y-110060000D03*
%TD*%
D14*
%TO.C,J22*%
X260350000Y-130556000D03*
D13*
X262890000Y-130556000D03*
X265430000Y-130556000D03*
X267970000Y-130556000D03*
X270510000Y-130556000D03*
X273050000Y-130556000D03*
X275590000Y-130556000D03*
X278130000Y-130556000D03*
X280670000Y-130556000D03*
X283210000Y-130556000D03*
%TD*%
D10*
%TO.C,AFE2*%
X343333000Y-80596000D03*
X340793000Y-80596000D03*
X338253000Y-80596000D03*
X335713000Y-80596000D03*
X333173000Y-80596000D03*
X330633000Y-80596000D03*
D11*
X320981000Y-84152000D03*
X320981000Y-117426000D03*
X352985000Y-84152000D03*
%TD*%
D17*
%TO.C,U11*%
X312301000Y-200660000D03*
D10*
X307221000Y-201930000D03*
X307221000Y-199390000D03*
X307221000Y-196850000D03*
X307221000Y-194310000D03*
X307221000Y-191770000D03*
X307221000Y-189230000D03*
X307221000Y-186690000D03*
X307221000Y-184150000D03*
X307221000Y-181610000D03*
X307221000Y-179070000D03*
%TD*%
D13*
%TO.C,J23*%
X354890000Y-122506000D03*
X352350000Y-122506000D03*
X349810000Y-122506000D03*
X347270000Y-122506000D03*
X344730000Y-122506000D03*
X342190000Y-122506000D03*
X339650000Y-122506000D03*
X337110000Y-122506000D03*
X334570000Y-122506000D03*
D14*
X332030000Y-122506000D03*
%TD*%
D13*
%TO.C,J21*%
X354890000Y-28526000D03*
X352350000Y-28526000D03*
X349810000Y-28526000D03*
X347270000Y-28526000D03*
X344730000Y-28526000D03*
X342190000Y-28526000D03*
X339650000Y-28526000D03*
X337110000Y-28526000D03*
X334570000Y-28526000D03*
D14*
X332030000Y-28526000D03*
%TD*%
%TO.C,J23*%
X331470000Y-224536000D03*
D13*
X334010000Y-224536000D03*
X336550000Y-224536000D03*
X339090000Y-224536000D03*
X341630000Y-224536000D03*
X344170000Y-224536000D03*
X346710000Y-224536000D03*
X349250000Y-224536000D03*
X351790000Y-224536000D03*
X354330000Y-224536000D03*
%TD*%
%TO.C,J3*%
X354890000Y-31066000D03*
X352350000Y-31066000D03*
X349810000Y-31066000D03*
X347270000Y-31066000D03*
X344730000Y-31066000D03*
X342190000Y-31066000D03*
X339650000Y-31066000D03*
X337110000Y-31066000D03*
X334570000Y-31066000D03*
D14*
X332030000Y-31066000D03*
%TD*%
D11*
%TO.C,AFE3*%
X300482000Y-140462000D03*
X268478000Y-140462000D03*
X300482000Y-173736000D03*
D10*
X278130000Y-136906000D03*
X280670000Y-136906000D03*
X283210000Y-136906000D03*
X285750000Y-136906000D03*
X288290000Y-136906000D03*
X290830000Y-136906000D03*
%TD*%
%TO.C,U11*%
X307781000Y-77040000D03*
X307781000Y-79580000D03*
X307781000Y-82120000D03*
X307781000Y-84660000D03*
X307781000Y-87200000D03*
X307781000Y-89740000D03*
X307781000Y-92280000D03*
X307781000Y-94820000D03*
X307781000Y-97360000D03*
X307781000Y-99900000D03*
D17*
X312861000Y-98630000D03*
%TD*%
D10*
%TO.C,U10*%
X314631000Y-28272000D03*
X312091000Y-28272000D03*
X309551000Y-28272000D03*
X307011000Y-28272000D03*
D17*
X308281000Y-37162000D03*
%TD*%
D18*
%TO.C,U12*%
X287274000Y-66548000D03*
D19*
X276274000Y-88548000D03*
X301274000Y-44548000D03*
X276274000Y-44548000D03*
%TD*%
D14*
%TO.C,J24*%
X260350000Y-224536000D03*
D13*
X262890000Y-224536000D03*
X265430000Y-224536000D03*
X267970000Y-224536000D03*
X270510000Y-224536000D03*
X273050000Y-224536000D03*
X275590000Y-224536000D03*
X278130000Y-224536000D03*
X280670000Y-224536000D03*
X283210000Y-224536000D03*
%TD*%
%TO.C,J15*%
X283770000Y-119966000D03*
X281230000Y-119966000D03*
X278690000Y-119966000D03*
X276150000Y-119966000D03*
X273610000Y-119966000D03*
X271070000Y-119966000D03*
X268530000Y-119966000D03*
X265990000Y-119966000D03*
X263450000Y-119966000D03*
D14*
X260910000Y-119966000D03*
%TD*%
D13*
%TO.C,J5*%
X283770000Y-31066000D03*
X281230000Y-31066000D03*
X278690000Y-31066000D03*
X276150000Y-31066000D03*
X273610000Y-31066000D03*
X271070000Y-31066000D03*
X268530000Y-31066000D03*
X265990000Y-31066000D03*
X263450000Y-31066000D03*
D14*
X260910000Y-31066000D03*
%TD*%
D20*
%TO.C,H2*%
X310440000Y-120601000D03*
%TD*%
D13*
%TO.C,J14*%
X354890000Y-119941000D03*
X352350000Y-119941000D03*
X349810000Y-119941000D03*
X347270000Y-119941000D03*
X344730000Y-119941000D03*
X342190000Y-119941000D03*
X339650000Y-119941000D03*
X337110000Y-119941000D03*
X334570000Y-119941000D03*
D14*
X332030000Y-119941000D03*
%TD*%
D13*
%TO.C,J13*%
X300280000Y-110827000D03*
X300280000Y-108287000D03*
X300280000Y-105747000D03*
X300280000Y-103207000D03*
D14*
X300280000Y-100667000D03*
%TD*%
D13*
%TO.C,J20*%
X293676000Y-99392000D03*
X293676000Y-101932000D03*
X293676000Y-104472000D03*
X293676000Y-107012000D03*
X293676000Y-109552000D03*
D14*
X293676000Y-112092000D03*
%TD*%
D20*
%TO.C,H2*%
X309880000Y-222631000D03*
%TD*%
D10*
%TO.C,AFE4*%
X291390000Y-80596000D03*
X288850000Y-80596000D03*
X286310000Y-80596000D03*
X283770000Y-80596000D03*
X281230000Y-80596000D03*
X278690000Y-80596000D03*
D11*
X301042000Y-117426000D03*
X301042000Y-84152000D03*
X269038000Y-84152000D03*
%TD*%
D10*
%TO.C,U8*%
X307781000Y-51132000D03*
X307781000Y-53672000D03*
X307781000Y-56212000D03*
X307781000Y-58752000D03*
X307781000Y-61292000D03*
X307781000Y-63832000D03*
X307781000Y-66372000D03*
X307781000Y-68912000D03*
X307781000Y-71452000D03*
X307781000Y-73992000D03*
D17*
X312861000Y-72722000D03*
%TD*%
D13*
%TO.C,J22*%
X283770000Y-28526000D03*
X281230000Y-28526000D03*
X278690000Y-28526000D03*
X276150000Y-28526000D03*
X273610000Y-28526000D03*
X271070000Y-28526000D03*
X268530000Y-28526000D03*
X265990000Y-28526000D03*
X263450000Y-28526000D03*
D14*
X260910000Y-28526000D03*
%TD*%
%TO.C,J20*%
X293116000Y-214122000D03*
D13*
X293116000Y-211582000D03*
X293116000Y-209042000D03*
X293116000Y-206502000D03*
X293116000Y-203962000D03*
X293116000Y-201422000D03*
%TD*%
D20*
%TO.C,H1*%
X288544000Y-141986000D03*
%TD*%
D11*
%TO.C,AFE2*%
X320421000Y-186182000D03*
X352425000Y-186182000D03*
X320421000Y-219456000D03*
D10*
X330073000Y-182626000D03*
X332613000Y-182626000D03*
X335153000Y-182626000D03*
X337693000Y-182626000D03*
X340233000Y-182626000D03*
X342773000Y-182626000D03*
%TD*%
D14*
%TO.C,J13*%
X299720000Y-202697000D03*
D13*
X299720000Y-205237000D03*
X299720000Y-207777000D03*
X299720000Y-210317000D03*
X299720000Y-212857000D03*
%TD*%
D11*
%TO.C,AFE4*%
X300482000Y-219456000D03*
X268478000Y-186182000D03*
X300482000Y-186182000D03*
D10*
X278130000Y-182626000D03*
X280670000Y-182626000D03*
X283210000Y-182626000D03*
X285750000Y-182626000D03*
X288290000Y-182626000D03*
X290830000Y-182626000D03*
%TD*%
D20*
%TO.C,H1*%
X289104000Y-39956000D03*
%TD*%
D16*
%TO.C,C15*%
X283116323Y-212090000D03*
D15*
X286616323Y-212090000D03*
%TD*%
D14*
%TO.C,J14*%
X331470000Y-221971000D03*
D13*
X334010000Y-221971000D03*
X336550000Y-221971000D03*
X339090000Y-221971000D03*
X341630000Y-221971000D03*
X344170000Y-221971000D03*
X346710000Y-221971000D03*
X349250000Y-221971000D03*
X351790000Y-221971000D03*
X354330000Y-221971000D03*
%TD*%
D19*
%TO.C,U12*%
X300714000Y-146578000D03*
X275714000Y-190578000D03*
D18*
X286714000Y-168578000D03*
D19*
X275714000Y-146578000D03*
%TD*%
D14*
%TO.C,J5*%
X260350000Y-133096000D03*
D13*
X262890000Y-133096000D03*
X265430000Y-133096000D03*
X267970000Y-133096000D03*
X270510000Y-133096000D03*
X273050000Y-133096000D03*
X275590000Y-133096000D03*
X278130000Y-133096000D03*
X280670000Y-133096000D03*
X283210000Y-133096000D03*
%TD*%
D17*
%TO.C,U10*%
X307721000Y-139192000D03*
D10*
X306451000Y-130302000D03*
X308991000Y-130302000D03*
X311531000Y-130302000D03*
X314071000Y-130302000D03*
%TD*%
D14*
%TO.C,J21*%
X331470000Y-130556000D03*
D13*
X334010000Y-130556000D03*
X336550000Y-130556000D03*
X339090000Y-130556000D03*
X341630000Y-130556000D03*
X344170000Y-130556000D03*
X346710000Y-130556000D03*
X349250000Y-130556000D03*
X351790000Y-130556000D03*
X354330000Y-130556000D03*
%TD*%
D11*
%TO.C,AFE1*%
X320421000Y-135636000D03*
X320421000Y-168910000D03*
X352425000Y-168910000D03*
D10*
X342773000Y-172466000D03*
X340233000Y-172466000D03*
X337693000Y-172466000D03*
X335153000Y-172466000D03*
X332613000Y-172466000D03*
X330073000Y-172466000D03*
%TD*%
D17*
%TO.C,U8*%
X312301000Y-174752000D03*
D10*
X307221000Y-176022000D03*
X307221000Y-173482000D03*
X307221000Y-170942000D03*
X307221000Y-168402000D03*
X307221000Y-165862000D03*
X307221000Y-163322000D03*
X307221000Y-160782000D03*
X307221000Y-158242000D03*
X307221000Y-155702000D03*
X307221000Y-153162000D03*
%TD*%
D14*
%TO.C,J15*%
X260350000Y-221996000D03*
D13*
X262890000Y-221996000D03*
X265430000Y-221996000D03*
X267970000Y-221996000D03*
X270510000Y-221996000D03*
X273050000Y-221996000D03*
X275590000Y-221996000D03*
X278130000Y-221996000D03*
X280670000Y-221996000D03*
X283210000Y-221996000D03*
%TD*%
D12*
%TO.C,C14*%
X277688000Y-218186000D03*
X279588000Y-218186000D03*
%TD*%
D14*
%TO.C,J3*%
X331470000Y-133096000D03*
D13*
X334010000Y-133096000D03*
X336550000Y-133096000D03*
X339090000Y-133096000D03*
X341630000Y-133096000D03*
X344170000Y-133096000D03*
X346710000Y-133096000D03*
X349250000Y-133096000D03*
X351790000Y-133096000D03*
X354330000Y-133096000D03*
%TD*%
M02*
