%TF.GenerationSoftware,KiCad,Pcbnew,6.0.7-f9a2dced07~116~ubuntu20.04.1*%
%TF.CreationDate,2022-11-23T13:07:14+01:00*%
%TF.ProjectId,board,626f6172-642e-46b6-9963-61645f706362,rev?*%
%TF.SameCoordinates,Original*%
%TF.FileFunction,Legend,Bot*%
%TF.FilePolarity,Positive*%
%FSLAX46Y46*%
G04 Gerber Fmt 4.6, Leading zero omitted, Abs format (unit mm)*
G04 Created by KiCad (PCBNEW 6.0.7-f9a2dced07~116~ubuntu20.04.1) date 2022-11-23 13:07:14*
%MOMM*%
%LPD*%
G01*
G04 APERTURE LIST*
%ADD10C,0.150000*%
%ADD11C,0.120000*%
G04 APERTURE END LIST*
D10*
%TO.C,AFE3*%
X294366761Y-28740333D02*
X294842952Y-28740333D01*
X294271523Y-28454619D02*
X294604857Y-29454619D01*
X294938190Y-28454619D01*
X295604857Y-28978428D02*
X295271523Y-28978428D01*
X295271523Y-28454619D02*
X295271523Y-29454619D01*
X295747714Y-29454619D01*
X296128666Y-28978428D02*
X296462000Y-28978428D01*
X296604857Y-28454619D02*
X296128666Y-28454619D01*
X296128666Y-29454619D01*
X296604857Y-29454619D01*
X296938190Y-29454619D02*
X297557238Y-29454619D01*
X297223904Y-29073666D01*
X297366761Y-29073666D01*
X297462000Y-29026047D01*
X297509619Y-28978428D01*
X297557238Y-28883190D01*
X297557238Y-28645095D01*
X297509619Y-28549857D01*
X297462000Y-28502238D01*
X297366761Y-28454619D01*
X297081047Y-28454619D01*
X296985809Y-28502238D01*
X296938190Y-28549857D01*
%TO.C,AFE1*%
X322957238Y-122037666D02*
X322481047Y-122037666D01*
X323052476Y-122323380D02*
X322719142Y-121323380D01*
X322385809Y-122323380D01*
X321719142Y-121799571D02*
X322052476Y-121799571D01*
X322052476Y-122323380D02*
X322052476Y-121323380D01*
X321576285Y-121323380D01*
X321195333Y-121799571D02*
X320862000Y-121799571D01*
X320719142Y-122323380D02*
X321195333Y-122323380D01*
X321195333Y-121323380D01*
X320719142Y-121323380D01*
X319766761Y-122323380D02*
X320338190Y-122323380D01*
X320052476Y-122323380D02*
X320052476Y-121323380D01*
X320147714Y-121466238D01*
X320242952Y-121561476D01*
X320338190Y-121609095D01*
%TO.C,C14*%
X279840857Y-118193142D02*
X279888476Y-118240761D01*
X280031333Y-118288380D01*
X280126571Y-118288380D01*
X280269428Y-118240761D01*
X280364666Y-118145523D01*
X280412285Y-118050285D01*
X280459904Y-117859809D01*
X280459904Y-117716952D01*
X280412285Y-117526476D01*
X280364666Y-117431238D01*
X280269428Y-117336000D01*
X280126571Y-117288380D01*
X280031333Y-117288380D01*
X279888476Y-117336000D01*
X279840857Y-117383619D01*
X278888476Y-118288380D02*
X279459904Y-118288380D01*
X279174190Y-118288380D02*
X279174190Y-117288380D01*
X279269428Y-117431238D01*
X279364666Y-117526476D01*
X279459904Y-117574095D01*
X278031333Y-117621714D02*
X278031333Y-118288380D01*
X278269428Y-117240761D02*
X278507523Y-117955047D01*
X277888476Y-117955047D01*
%TO.C,C15*%
X286069180Y-116667142D02*
X286116799Y-116714761D01*
X286259656Y-116762380D01*
X286354894Y-116762380D01*
X286497751Y-116714761D01*
X286592989Y-116619523D01*
X286640608Y-116524285D01*
X286688227Y-116333809D01*
X286688227Y-116190952D01*
X286640608Y-116000476D01*
X286592989Y-115905238D01*
X286497751Y-115810000D01*
X286354894Y-115762380D01*
X286259656Y-115762380D01*
X286116799Y-115810000D01*
X286069180Y-115857619D01*
X285116799Y-116762380D02*
X285688227Y-116762380D01*
X285402513Y-116762380D02*
X285402513Y-115762380D01*
X285497751Y-115905238D01*
X285592989Y-116000476D01*
X285688227Y-116048095D01*
X284212037Y-115762380D02*
X284688227Y-115762380D01*
X284735846Y-116238571D01*
X284688227Y-116190952D01*
X284592989Y-116143333D01*
X284354894Y-116143333D01*
X284259656Y-116190952D01*
X284212037Y-116238571D01*
X284164418Y-116333809D01*
X284164418Y-116571904D01*
X284212037Y-116667142D01*
X284259656Y-116714761D01*
X284354894Y-116762380D01*
X284592989Y-116762380D01*
X284688227Y-116714761D01*
X284735846Y-116667142D01*
%TO.C,AFE2*%
X319258761Y-28994333D02*
X319734952Y-28994333D01*
X319163523Y-28708619D02*
X319496857Y-29708619D01*
X319830190Y-28708619D01*
X320496857Y-29232428D02*
X320163523Y-29232428D01*
X320163523Y-28708619D02*
X320163523Y-29708619D01*
X320639714Y-29708619D01*
X321020666Y-29232428D02*
X321354000Y-29232428D01*
X321496857Y-28708619D02*
X321020666Y-28708619D01*
X321020666Y-29708619D01*
X321496857Y-29708619D01*
X321877809Y-29613380D02*
X321925428Y-29661000D01*
X322020666Y-29708619D01*
X322258761Y-29708619D01*
X322354000Y-29661000D01*
X322401619Y-29613380D01*
X322449238Y-29518142D01*
X322449238Y-29422904D01*
X322401619Y-29280047D01*
X321830190Y-28708619D01*
X322449238Y-28708619D01*
%TO.C,U11*%
X305474619Y-202914095D02*
X304665095Y-202914095D01*
X304569857Y-202866476D01*
X304522238Y-202818857D01*
X304474619Y-202723619D01*
X304474619Y-202533142D01*
X304522238Y-202437904D01*
X304569857Y-202390285D01*
X304665095Y-202342666D01*
X305474619Y-202342666D01*
X304474619Y-201342666D02*
X304474619Y-201914095D01*
X304474619Y-201628380D02*
X305474619Y-201628380D01*
X305331761Y-201723619D01*
X305236523Y-201818857D01*
X305188904Y-201914095D01*
X304474619Y-200390285D02*
X304474619Y-200961714D01*
X304474619Y-200676000D02*
X305474619Y-200676000D01*
X305331761Y-200771238D01*
X305236523Y-200866476D01*
X305188904Y-200961714D01*
%TO.C,AFE3*%
X293806761Y-130770333D02*
X294282952Y-130770333D01*
X293711523Y-130484619D02*
X294044857Y-131484619D01*
X294378190Y-130484619D01*
X295044857Y-131008428D02*
X294711523Y-131008428D01*
X294711523Y-130484619D02*
X294711523Y-131484619D01*
X295187714Y-131484619D01*
X295568666Y-131008428D02*
X295902000Y-131008428D01*
X296044857Y-130484619D02*
X295568666Y-130484619D01*
X295568666Y-131484619D01*
X296044857Y-131484619D01*
X296378190Y-131484619D02*
X296997238Y-131484619D01*
X296663904Y-131103666D01*
X296806761Y-131103666D01*
X296902000Y-131056047D01*
X296949619Y-131008428D01*
X296997238Y-130913190D01*
X296997238Y-130675095D01*
X296949619Y-130579857D01*
X296902000Y-130532238D01*
X296806761Y-130484619D01*
X296521047Y-130484619D01*
X296425809Y-130532238D01*
X296378190Y-130579857D01*
%TO.C,U11*%
X306034619Y-100884095D02*
X305225095Y-100884095D01*
X305129857Y-100836476D01*
X305082238Y-100788857D01*
X305034619Y-100693619D01*
X305034619Y-100503142D01*
X305082238Y-100407904D01*
X305129857Y-100360285D01*
X305225095Y-100312666D01*
X306034619Y-100312666D01*
X305034619Y-99312666D02*
X305034619Y-99884095D01*
X305034619Y-99598380D02*
X306034619Y-99598380D01*
X305891761Y-99693619D01*
X305796523Y-99788857D01*
X305748904Y-99884095D01*
X305034619Y-98360285D02*
X305034619Y-98931714D01*
X305034619Y-98646000D02*
X306034619Y-98646000D01*
X305891761Y-98741238D01*
X305796523Y-98836476D01*
X305748904Y-98931714D01*
%TO.C,U10*%
X302851904Y-28184619D02*
X302851904Y-27375095D01*
X302899523Y-27279857D01*
X302947142Y-27232238D01*
X303042380Y-27184619D01*
X303232857Y-27184619D01*
X303328095Y-27232238D01*
X303375714Y-27279857D01*
X303423333Y-27375095D01*
X303423333Y-28184619D01*
X304423333Y-27184619D02*
X303851904Y-27184619D01*
X304137619Y-27184619D02*
X304137619Y-28184619D01*
X304042380Y-28041761D01*
X303947142Y-27946523D01*
X303851904Y-27898904D01*
X305042380Y-28184619D02*
X305137619Y-28184619D01*
X305232857Y-28137000D01*
X305280476Y-28089380D01*
X305328095Y-27994142D01*
X305375714Y-27803666D01*
X305375714Y-27565571D01*
X305328095Y-27375095D01*
X305280476Y-27279857D01*
X305232857Y-27232238D01*
X305137619Y-27184619D01*
X305042380Y-27184619D01*
X304947142Y-27232238D01*
X304899523Y-27279857D01*
X304851904Y-27375095D01*
X304804285Y-27565571D01*
X304804285Y-27803666D01*
X304851904Y-27994142D01*
X304899523Y-28089380D01*
X304947142Y-28137000D01*
X305042380Y-28184619D01*
%TO.C,U12*%
X264434095Y-115227380D02*
X264434095Y-116036904D01*
X264386476Y-116132142D01*
X264338857Y-116179761D01*
X264243619Y-116227380D01*
X264053142Y-116227380D01*
X263957904Y-116179761D01*
X263910285Y-116132142D01*
X263862666Y-116036904D01*
X263862666Y-115227380D01*
X262862666Y-116227380D02*
X263434095Y-116227380D01*
X263148380Y-116227380D02*
X263148380Y-115227380D01*
X263243619Y-115370238D01*
X263338857Y-115465476D01*
X263434095Y-115513095D01*
X262481714Y-115322619D02*
X262434095Y-115275000D01*
X262338857Y-115227380D01*
X262100761Y-115227380D01*
X262005523Y-115275000D01*
X261957904Y-115322619D01*
X261910285Y-115417857D01*
X261910285Y-115513095D01*
X261957904Y-115655952D01*
X262529333Y-116227380D01*
X261910285Y-116227380D01*
%TO.C,J13*%
X301089523Y-97789380D02*
X301089523Y-98503666D01*
X301137142Y-98646523D01*
X301232380Y-98741761D01*
X301375238Y-98789380D01*
X301470476Y-98789380D01*
X300089523Y-98789380D02*
X300660952Y-98789380D01*
X300375238Y-98789380D02*
X300375238Y-97789380D01*
X300470476Y-97932238D01*
X300565714Y-98027476D01*
X300660952Y-98075095D01*
X299756190Y-97789380D02*
X299137142Y-97789380D01*
X299470476Y-98170333D01*
X299327619Y-98170333D01*
X299232380Y-98217952D01*
X299184761Y-98265571D01*
X299137142Y-98360809D01*
X299137142Y-98598904D01*
X299184761Y-98694142D01*
X299232380Y-98741761D01*
X299327619Y-98789380D01*
X299613333Y-98789380D01*
X299708571Y-98741761D01*
X299756190Y-98694142D01*
%TO.C,J20*%
X294485523Y-113874380D02*
X294485523Y-114588666D01*
X294533142Y-114731523D01*
X294628380Y-114826761D01*
X294771238Y-114874380D01*
X294866476Y-114874380D01*
X294056952Y-113969619D02*
X294009333Y-113922000D01*
X293914095Y-113874380D01*
X293676000Y-113874380D01*
X293580761Y-113922000D01*
X293533142Y-113969619D01*
X293485523Y-114064857D01*
X293485523Y-114160095D01*
X293533142Y-114302952D01*
X294104571Y-114874380D01*
X293485523Y-114874380D01*
X292866476Y-113874380D02*
X292771238Y-113874380D01*
X292676000Y-113922000D01*
X292628380Y-113969619D01*
X292580761Y-114064857D01*
X292533142Y-114255333D01*
X292533142Y-114493428D01*
X292580761Y-114683904D01*
X292628380Y-114779142D01*
X292676000Y-114826761D01*
X292771238Y-114874380D01*
X292866476Y-114874380D01*
X292961714Y-114826761D01*
X293009333Y-114779142D01*
X293056952Y-114683904D01*
X293104571Y-114493428D01*
X293104571Y-114255333D01*
X293056952Y-114064857D01*
X293009333Y-113969619D01*
X292961714Y-113922000D01*
X292866476Y-113874380D01*
%TO.C,AFE4*%
X296906761Y-121704333D02*
X297382952Y-121704333D01*
X296811523Y-121418619D02*
X297144857Y-122418619D01*
X297478190Y-121418619D01*
X298144857Y-121942428D02*
X297811523Y-121942428D01*
X297811523Y-121418619D02*
X297811523Y-122418619D01*
X298287714Y-122418619D01*
X298668666Y-121942428D02*
X299002000Y-121942428D01*
X299144857Y-121418619D02*
X298668666Y-121418619D01*
X298668666Y-122418619D01*
X299144857Y-122418619D01*
X300002000Y-122085285D02*
X300002000Y-121418619D01*
X299763904Y-122466238D02*
X299525809Y-121751952D01*
X300144857Y-121751952D01*
%TO.C,U8*%
X317718619Y-74753904D02*
X316909095Y-74753904D01*
X316813857Y-74706285D01*
X316766238Y-74658666D01*
X316718619Y-74563428D01*
X316718619Y-74372952D01*
X316766238Y-74277714D01*
X316813857Y-74230095D01*
X316909095Y-74182476D01*
X317718619Y-74182476D01*
X317290047Y-73563428D02*
X317337666Y-73658666D01*
X317385285Y-73706285D01*
X317480523Y-73753904D01*
X317528142Y-73753904D01*
X317623380Y-73706285D01*
X317671000Y-73658666D01*
X317718619Y-73563428D01*
X317718619Y-73372952D01*
X317671000Y-73277714D01*
X317623380Y-73230095D01*
X317528142Y-73182476D01*
X317480523Y-73182476D01*
X317385285Y-73230095D01*
X317337666Y-73277714D01*
X317290047Y-73372952D01*
X317290047Y-73563428D01*
X317242428Y-73658666D01*
X317194809Y-73706285D01*
X317099571Y-73753904D01*
X316909095Y-73753904D01*
X316813857Y-73706285D01*
X316766238Y-73658666D01*
X316718619Y-73563428D01*
X316718619Y-73372952D01*
X316766238Y-73277714D01*
X316813857Y-73230095D01*
X316909095Y-73182476D01*
X317099571Y-73182476D01*
X317194809Y-73230095D01*
X317242428Y-73277714D01*
X317290047Y-73372952D01*
%TO.C,J20*%
X293925523Y-215904380D02*
X293925523Y-216618666D01*
X293973142Y-216761523D01*
X294068380Y-216856761D01*
X294211238Y-216904380D01*
X294306476Y-216904380D01*
X293496952Y-215999619D02*
X293449333Y-215952000D01*
X293354095Y-215904380D01*
X293116000Y-215904380D01*
X293020761Y-215952000D01*
X292973142Y-215999619D01*
X292925523Y-216094857D01*
X292925523Y-216190095D01*
X292973142Y-216332952D01*
X293544571Y-216904380D01*
X292925523Y-216904380D01*
X292306476Y-215904380D02*
X292211238Y-215904380D01*
X292116000Y-215952000D01*
X292068380Y-215999619D01*
X292020761Y-216094857D01*
X291973142Y-216285333D01*
X291973142Y-216523428D01*
X292020761Y-216713904D01*
X292068380Y-216809142D01*
X292116000Y-216856761D01*
X292211238Y-216904380D01*
X292306476Y-216904380D01*
X292401714Y-216856761D01*
X292449333Y-216809142D01*
X292496952Y-216713904D01*
X292544571Y-216523428D01*
X292544571Y-216285333D01*
X292496952Y-216094857D01*
X292449333Y-215999619D01*
X292401714Y-215952000D01*
X292306476Y-215904380D01*
%TO.C,AFE2*%
X318698761Y-131024333D02*
X319174952Y-131024333D01*
X318603523Y-130738619D02*
X318936857Y-131738619D01*
X319270190Y-130738619D01*
X319936857Y-131262428D02*
X319603523Y-131262428D01*
X319603523Y-130738619D02*
X319603523Y-131738619D01*
X320079714Y-131738619D01*
X320460666Y-131262428D02*
X320794000Y-131262428D01*
X320936857Y-130738619D02*
X320460666Y-130738619D01*
X320460666Y-131738619D01*
X320936857Y-131738619D01*
X321317809Y-131643380D02*
X321365428Y-131691000D01*
X321460666Y-131738619D01*
X321698761Y-131738619D01*
X321794000Y-131691000D01*
X321841619Y-131643380D01*
X321889238Y-131548142D01*
X321889238Y-131452904D01*
X321841619Y-131310047D01*
X321270190Y-130738619D01*
X321889238Y-130738619D01*
%TO.C,J13*%
X300529523Y-199819380D02*
X300529523Y-200533666D01*
X300577142Y-200676523D01*
X300672380Y-200771761D01*
X300815238Y-200819380D01*
X300910476Y-200819380D01*
X299529523Y-200819380D02*
X300100952Y-200819380D01*
X299815238Y-200819380D02*
X299815238Y-199819380D01*
X299910476Y-199962238D01*
X300005714Y-200057476D01*
X300100952Y-200105095D01*
X299196190Y-199819380D02*
X298577142Y-199819380D01*
X298910476Y-200200333D01*
X298767619Y-200200333D01*
X298672380Y-200247952D01*
X298624761Y-200295571D01*
X298577142Y-200390809D01*
X298577142Y-200628904D01*
X298624761Y-200724142D01*
X298672380Y-200771761D01*
X298767619Y-200819380D01*
X299053333Y-200819380D01*
X299148571Y-200771761D01*
X299196190Y-200724142D01*
%TO.C,AFE4*%
X296346761Y-223734333D02*
X296822952Y-223734333D01*
X296251523Y-223448619D02*
X296584857Y-224448619D01*
X296918190Y-223448619D01*
X297584857Y-223972428D02*
X297251523Y-223972428D01*
X297251523Y-223448619D02*
X297251523Y-224448619D01*
X297727714Y-224448619D01*
X298108666Y-223972428D02*
X298442000Y-223972428D01*
X298584857Y-223448619D02*
X298108666Y-223448619D01*
X298108666Y-224448619D01*
X298584857Y-224448619D01*
X299442000Y-224115285D02*
X299442000Y-223448619D01*
X299203904Y-224496238D02*
X298965809Y-223781952D01*
X299584857Y-223781952D01*
%TO.C,C15*%
X285509180Y-218697142D02*
X285556799Y-218744761D01*
X285699656Y-218792380D01*
X285794894Y-218792380D01*
X285937751Y-218744761D01*
X286032989Y-218649523D01*
X286080608Y-218554285D01*
X286128227Y-218363809D01*
X286128227Y-218220952D01*
X286080608Y-218030476D01*
X286032989Y-217935238D01*
X285937751Y-217840000D01*
X285794894Y-217792380D01*
X285699656Y-217792380D01*
X285556799Y-217840000D01*
X285509180Y-217887619D01*
X284556799Y-218792380D02*
X285128227Y-218792380D01*
X284842513Y-218792380D02*
X284842513Y-217792380D01*
X284937751Y-217935238D01*
X285032989Y-218030476D01*
X285128227Y-218078095D01*
X283652037Y-217792380D02*
X284128227Y-217792380D01*
X284175846Y-218268571D01*
X284128227Y-218220952D01*
X284032989Y-218173333D01*
X283794894Y-218173333D01*
X283699656Y-218220952D01*
X283652037Y-218268571D01*
X283604418Y-218363809D01*
X283604418Y-218601904D01*
X283652037Y-218697142D01*
X283699656Y-218744761D01*
X283794894Y-218792380D01*
X284032989Y-218792380D01*
X284128227Y-218744761D01*
X284175846Y-218697142D01*
%TO.C,U12*%
X263874095Y-217257380D02*
X263874095Y-218066904D01*
X263826476Y-218162142D01*
X263778857Y-218209761D01*
X263683619Y-218257380D01*
X263493142Y-218257380D01*
X263397904Y-218209761D01*
X263350285Y-218162142D01*
X263302666Y-218066904D01*
X263302666Y-217257380D01*
X262302666Y-218257380D02*
X262874095Y-218257380D01*
X262588380Y-218257380D02*
X262588380Y-217257380D01*
X262683619Y-217400238D01*
X262778857Y-217495476D01*
X262874095Y-217543095D01*
X261921714Y-217352619D02*
X261874095Y-217305000D01*
X261778857Y-217257380D01*
X261540761Y-217257380D01*
X261445523Y-217305000D01*
X261397904Y-217352619D01*
X261350285Y-217447857D01*
X261350285Y-217543095D01*
X261397904Y-217685952D01*
X261969333Y-218257380D01*
X261350285Y-218257380D01*
%TO.C,U10*%
X302291904Y-130214619D02*
X302291904Y-129405095D01*
X302339523Y-129309857D01*
X302387142Y-129262238D01*
X302482380Y-129214619D01*
X302672857Y-129214619D01*
X302768095Y-129262238D01*
X302815714Y-129309857D01*
X302863333Y-129405095D01*
X302863333Y-130214619D01*
X303863333Y-129214619D02*
X303291904Y-129214619D01*
X303577619Y-129214619D02*
X303577619Y-130214619D01*
X303482380Y-130071761D01*
X303387142Y-129976523D01*
X303291904Y-129928904D01*
X304482380Y-130214619D02*
X304577619Y-130214619D01*
X304672857Y-130167000D01*
X304720476Y-130119380D01*
X304768095Y-130024142D01*
X304815714Y-129833666D01*
X304815714Y-129595571D01*
X304768095Y-129405095D01*
X304720476Y-129309857D01*
X304672857Y-129262238D01*
X304577619Y-129214619D01*
X304482380Y-129214619D01*
X304387142Y-129262238D01*
X304339523Y-129309857D01*
X304291904Y-129405095D01*
X304244285Y-129595571D01*
X304244285Y-129833666D01*
X304291904Y-130024142D01*
X304339523Y-130119380D01*
X304387142Y-130167000D01*
X304482380Y-130214619D01*
%TO.C,AFE1*%
X322397238Y-224067666D02*
X321921047Y-224067666D01*
X322492476Y-224353380D02*
X322159142Y-223353380D01*
X321825809Y-224353380D01*
X321159142Y-223829571D02*
X321492476Y-223829571D01*
X321492476Y-224353380D02*
X321492476Y-223353380D01*
X321016285Y-223353380D01*
X320635333Y-223829571D02*
X320302000Y-223829571D01*
X320159142Y-224353380D02*
X320635333Y-224353380D01*
X320635333Y-223353380D01*
X320159142Y-223353380D01*
X319206761Y-224353380D02*
X319778190Y-224353380D01*
X319492476Y-224353380D02*
X319492476Y-223353380D01*
X319587714Y-223496238D01*
X319682952Y-223591476D01*
X319778190Y-223639095D01*
%TO.C,U8*%
X317158619Y-176783904D02*
X316349095Y-176783904D01*
X316253857Y-176736285D01*
X316206238Y-176688666D01*
X316158619Y-176593428D01*
X316158619Y-176402952D01*
X316206238Y-176307714D01*
X316253857Y-176260095D01*
X316349095Y-176212476D01*
X317158619Y-176212476D01*
X316730047Y-175593428D02*
X316777666Y-175688666D01*
X316825285Y-175736285D01*
X316920523Y-175783904D01*
X316968142Y-175783904D01*
X317063380Y-175736285D01*
X317111000Y-175688666D01*
X317158619Y-175593428D01*
X317158619Y-175402952D01*
X317111000Y-175307714D01*
X317063380Y-175260095D01*
X316968142Y-175212476D01*
X316920523Y-175212476D01*
X316825285Y-175260095D01*
X316777666Y-175307714D01*
X316730047Y-175402952D01*
X316730047Y-175593428D01*
X316682428Y-175688666D01*
X316634809Y-175736285D01*
X316539571Y-175783904D01*
X316349095Y-175783904D01*
X316253857Y-175736285D01*
X316206238Y-175688666D01*
X316158619Y-175593428D01*
X316158619Y-175402952D01*
X316206238Y-175307714D01*
X316253857Y-175260095D01*
X316349095Y-175212476D01*
X316539571Y-175212476D01*
X316634809Y-175260095D01*
X316682428Y-175307714D01*
X316730047Y-175402952D01*
%TO.C,C14*%
X279280857Y-220223142D02*
X279328476Y-220270761D01*
X279471333Y-220318380D01*
X279566571Y-220318380D01*
X279709428Y-220270761D01*
X279804666Y-220175523D01*
X279852285Y-220080285D01*
X279899904Y-219889809D01*
X279899904Y-219746952D01*
X279852285Y-219556476D01*
X279804666Y-219461238D01*
X279709428Y-219366000D01*
X279566571Y-219318380D01*
X279471333Y-219318380D01*
X279328476Y-219366000D01*
X279280857Y-219413619D01*
X278328476Y-220318380D02*
X278899904Y-220318380D01*
X278614190Y-220318380D02*
X278614190Y-219318380D01*
X278709428Y-219461238D01*
X278804666Y-219556476D01*
X278899904Y-219604095D01*
X277471333Y-219651714D02*
X277471333Y-220318380D01*
X277709428Y-219270761D02*
X277947523Y-219985047D01*
X277328476Y-219985047D01*
D11*
%TO.C,AFE3*%
X303328000Y-38432000D02*
G75*
G03*
X303328000Y-38432000I-2286000J0D01*
G01*
X300536082Y-55704000D02*
G75*
G03*
X300536082Y-55704000I-15496082J0D01*
G01*
X271338068Y-38432000D02*
G75*
G03*
X271338068Y-38432000I-2300068J0D01*
G01*
X303212177Y-71706000D02*
G75*
G03*
X303212177Y-71706000I-2170177J0D01*
G01*
X304598000Y-30050000D02*
X283516000Y-30050000D01*
X265482000Y-75262000D02*
X304598000Y-75262000D01*
X304598000Y-75262000D02*
X304598000Y-30050000D01*
X265482000Y-30050000D02*
X265482000Y-75008000D01*
X265482000Y-75008000D02*
X265482000Y-75262000D01*
X283516000Y-30050000D02*
X265482000Y-30050000D01*
%TO.C,AFE1*%
X355285068Y-66880000D02*
G75*
G03*
X355285068Y-66880000I-2300068J0D01*
G01*
X323151177Y-33606000D02*
G75*
G03*
X323151177Y-33606000I-2170177J0D01*
G01*
X323267000Y-66880000D02*
G75*
G03*
X323267000Y-66880000I-2286000J0D01*
G01*
X352479082Y-49608000D02*
G75*
G03*
X352479082Y-49608000I-15496082J0D01*
G01*
X356541000Y-30050000D02*
X317425000Y-30050000D01*
X317425000Y-30050000D02*
X317425000Y-75262000D01*
X356541000Y-75262000D02*
X356541000Y-30304000D01*
X338507000Y-75262000D02*
X356541000Y-75262000D01*
X356541000Y-30304000D02*
X356541000Y-30050000D01*
X317425000Y-75262000D02*
X338507000Y-75262000D01*
%TO.C,C14*%
X278936748Y-116891000D02*
X279459252Y-116891000D01*
X278936748Y-115421000D02*
X279459252Y-115421000D01*
%TO.C,C15*%
X290546323Y-110060000D02*
G75*
G03*
X290546323Y-110060000I-5120000J0D01*
G01*
X286947323Y-114910000D02*
X286947323Y-111301000D01*
X287427323Y-108819000D02*
X287427323Y-105386000D01*
X286867323Y-108819000D02*
X286867323Y-105186000D01*
X289747323Y-112769000D02*
X289747323Y-107351000D01*
X288267323Y-108819000D02*
X288267323Y-105839000D01*
X288307323Y-108819000D02*
X288307323Y-105866000D01*
X288107323Y-108819000D02*
X288107323Y-105737000D01*
X288067323Y-114407000D02*
X288067323Y-111301000D01*
X287467323Y-114717000D02*
X287467323Y-111301000D01*
X288347323Y-114226000D02*
X288347323Y-111301000D01*
X286227323Y-115078000D02*
X286227323Y-111301000D01*
X287667323Y-114624000D02*
X287667323Y-111301000D01*
X285706323Y-115133000D02*
X285706323Y-104987000D01*
X287547323Y-114681000D02*
X287547323Y-111301000D01*
X287347323Y-108819000D02*
X287347323Y-105353000D01*
X289707323Y-112830000D02*
X289707323Y-107290000D01*
X286106323Y-115095000D02*
X286106323Y-111301000D01*
X285826323Y-115125000D02*
X285826323Y-104995000D01*
X287387323Y-108819000D02*
X287387323Y-105370000D01*
X287107323Y-108819000D02*
X287107323Y-105263000D01*
X290387323Y-111290000D02*
X290387323Y-108830000D01*
X287827323Y-108819000D02*
X287827323Y-105577000D01*
X286707323Y-108819000D02*
X286707323Y-105142000D01*
X285586323Y-115138000D02*
X285586323Y-104982000D01*
X286187323Y-108819000D02*
X286187323Y-105036000D01*
X289547323Y-113060000D02*
X289547323Y-107060000D01*
X287427323Y-114734000D02*
X287427323Y-111301000D01*
X289987323Y-112349000D02*
X289987323Y-107771000D01*
X287747323Y-114585000D02*
X287747323Y-111301000D01*
X289307323Y-113361000D02*
X289307323Y-106759000D01*
X287707323Y-114605000D02*
X287707323Y-111301000D01*
X288387323Y-108819000D02*
X288387323Y-105922000D01*
X289147323Y-113538000D02*
X289147323Y-106582000D01*
X287227323Y-114814000D02*
X287227323Y-111301000D01*
X287907323Y-114500000D02*
X287907323Y-111301000D01*
X286187323Y-115084000D02*
X286187323Y-111301000D01*
X289947323Y-112425000D02*
X289947323Y-107695000D01*
X286347323Y-115057000D02*
X286347323Y-111301000D01*
X288347323Y-108819000D02*
X288347323Y-105894000D01*
X290027323Y-112269000D02*
X290027323Y-107851000D01*
X286066323Y-115100000D02*
X286066323Y-111301000D01*
X285626323Y-115137000D02*
X285626323Y-104983000D01*
X287707323Y-108819000D02*
X287707323Y-105515000D01*
X287587323Y-108819000D02*
X287587323Y-105457000D01*
X289787323Y-112705000D02*
X289787323Y-107415000D01*
X287947323Y-108819000D02*
X287947323Y-105643000D01*
X287987323Y-108819000D02*
X287987323Y-105665000D01*
X286307323Y-108819000D02*
X286307323Y-105056000D01*
X286667323Y-108819000D02*
X286667323Y-105132000D01*
X288507323Y-114110000D02*
X288507323Y-106010000D01*
X286387323Y-115050000D02*
X286387323Y-111301000D01*
X286867323Y-114934000D02*
X286867323Y-111301000D01*
X286066323Y-108819000D02*
X286066323Y-105020000D01*
X288547323Y-114080000D02*
X288547323Y-106040000D01*
X287507323Y-108819000D02*
X287507323Y-105421000D01*
X288427323Y-114170000D02*
X288427323Y-105950000D01*
X287147323Y-114843000D02*
X287147323Y-111301000D01*
X286787323Y-108819000D02*
X286787323Y-105163000D01*
X286947323Y-108819000D02*
X286947323Y-105210000D01*
X287307323Y-114783000D02*
X287307323Y-111301000D01*
X287027323Y-114884000D02*
X287027323Y-111301000D01*
X287827323Y-114543000D02*
X287827323Y-111301000D01*
X286987323Y-108819000D02*
X286987323Y-105223000D01*
X288387323Y-114198000D02*
X288387323Y-111301000D01*
X286307323Y-115064000D02*
X286307323Y-111301000D01*
X287507323Y-114699000D02*
X287507323Y-111301000D01*
X287027323Y-108819000D02*
X287027323Y-105236000D01*
X286427323Y-108819000D02*
X286427323Y-105078000D01*
X289507323Y-113114000D02*
X289507323Y-107006000D01*
X287627323Y-114644000D02*
X287627323Y-111301000D01*
X285986323Y-115110000D02*
X285986323Y-111301000D01*
X288867323Y-113813000D02*
X288867323Y-106307000D01*
X287107323Y-114857000D02*
X287107323Y-111301000D01*
X287147323Y-108819000D02*
X287147323Y-105277000D01*
X287867323Y-114522000D02*
X287867323Y-111301000D01*
X287347323Y-114767000D02*
X287347323Y-111301000D01*
X290347323Y-111438000D02*
X290347323Y-108682000D01*
X289667323Y-112890000D02*
X289667323Y-107230000D01*
X287067323Y-114871000D02*
X287067323Y-111301000D01*
X289067323Y-113621000D02*
X289067323Y-106499000D01*
X290467323Y-110922000D02*
X290467323Y-109198000D01*
X289867323Y-112570000D02*
X289867323Y-107550000D01*
X290147323Y-112004000D02*
X290147323Y-108116000D01*
X288907323Y-113776000D02*
X288907323Y-106344000D01*
X289427323Y-113216000D02*
X289427323Y-106904000D01*
X288947323Y-113739000D02*
X288947323Y-106381000D01*
X287467323Y-108819000D02*
X287467323Y-105403000D01*
X289107323Y-113580000D02*
X289107323Y-106540000D01*
X285866323Y-115122000D02*
X285866323Y-104998000D01*
X288787323Y-113884000D02*
X288787323Y-106236000D01*
X286547323Y-115016000D02*
X286547323Y-111301000D01*
X286427323Y-115042000D02*
X286427323Y-111301000D01*
X286267323Y-108819000D02*
X286267323Y-105049000D01*
X287787323Y-108819000D02*
X287787323Y-105556000D01*
X286507323Y-108819000D02*
X286507323Y-105095000D01*
X286147323Y-115090000D02*
X286147323Y-111301000D01*
X280446677Y-113435000D02*
X280446677Y-112435000D01*
X286147323Y-108819000D02*
X286147323Y-105030000D01*
X287587323Y-114663000D02*
X287587323Y-111301000D01*
X285546323Y-115139000D02*
X285546323Y-104981000D01*
X289907323Y-112499000D02*
X289907323Y-107621000D01*
X287747323Y-108819000D02*
X287747323Y-105535000D01*
X286507323Y-115025000D02*
X286507323Y-111301000D01*
X286667323Y-114988000D02*
X286667323Y-111301000D01*
X288107323Y-114383000D02*
X288107323Y-111301000D01*
X286026323Y-108819000D02*
X286026323Y-105015000D01*
X288187323Y-114333000D02*
X288187323Y-111301000D01*
X287267323Y-114798000D02*
X287267323Y-111301000D01*
X287867323Y-108819000D02*
X287867323Y-105598000D01*
X290507323Y-110659000D02*
X290507323Y-109461000D01*
X285906323Y-115118000D02*
X285906323Y-105002000D01*
X286547323Y-108819000D02*
X286547323Y-105104000D01*
X279946677Y-112935000D02*
X280946677Y-112935000D01*
X288307323Y-114254000D02*
X288307323Y-111301000D01*
X288187323Y-108819000D02*
X288187323Y-105787000D01*
X289467323Y-113166000D02*
X289467323Y-106954000D01*
X290067323Y-112185000D02*
X290067323Y-107935000D01*
X288067323Y-108819000D02*
X288067323Y-105713000D01*
X286987323Y-114897000D02*
X286987323Y-111301000D01*
X286787323Y-114957000D02*
X286787323Y-111301000D01*
X290107323Y-112097000D02*
X290107323Y-108023000D01*
X286467323Y-115034000D02*
X286467323Y-111301000D01*
X288467323Y-114140000D02*
X288467323Y-105980000D01*
X288267323Y-114281000D02*
X288267323Y-111301000D01*
X288147323Y-114358000D02*
X288147323Y-111301000D01*
X286827323Y-114945000D02*
X286827323Y-111301000D01*
X286347323Y-108819000D02*
X286347323Y-105063000D01*
X288227323Y-108819000D02*
X288227323Y-105813000D01*
X287067323Y-108819000D02*
X287067323Y-105249000D01*
X290227323Y-111802000D02*
X290227323Y-108318000D01*
X288627323Y-114017000D02*
X288627323Y-106103000D01*
X286707323Y-114978000D02*
X286707323Y-111301000D01*
X286026323Y-115105000D02*
X286026323Y-111301000D01*
X289187323Y-113496000D02*
X289187323Y-106624000D01*
X285746323Y-115130000D02*
X285746323Y-104990000D01*
X289347323Y-113314000D02*
X289347323Y-106806000D01*
X289627323Y-112949000D02*
X289627323Y-107171000D01*
X288707323Y-113952000D02*
X288707323Y-106168000D01*
X286106323Y-108819000D02*
X286106323Y-105025000D01*
X288827323Y-113849000D02*
X288827323Y-106271000D01*
X286587323Y-115007000D02*
X286587323Y-111301000D01*
X287627323Y-108819000D02*
X287627323Y-105476000D01*
X288987323Y-113700000D02*
X288987323Y-106420000D01*
X286267323Y-115071000D02*
X286267323Y-111301000D01*
X288587323Y-114049000D02*
X288587323Y-106071000D01*
X287547323Y-108819000D02*
X287547323Y-105439000D01*
X287307323Y-108819000D02*
X287307323Y-105337000D01*
X290427323Y-111122000D02*
X290427323Y-108998000D01*
X288147323Y-108819000D02*
X288147323Y-105762000D01*
X288747323Y-113918000D02*
X288747323Y-106202000D01*
X288227323Y-114307000D02*
X288227323Y-111301000D01*
X286747323Y-108819000D02*
X286747323Y-105153000D01*
X289267323Y-113407000D02*
X289267323Y-106713000D01*
X286227323Y-108819000D02*
X286227323Y-105042000D01*
X285986323Y-108819000D02*
X285986323Y-105010000D01*
X287667323Y-108819000D02*
X287667323Y-105496000D01*
X290267323Y-111690000D02*
X290267323Y-108430000D01*
X287787323Y-114564000D02*
X287787323Y-111301000D01*
X286627323Y-114998000D02*
X286627323Y-111301000D01*
X286467323Y-108819000D02*
X286467323Y-105086000D01*
X289387323Y-113266000D02*
X289387323Y-106854000D01*
X287187323Y-114828000D02*
X287187323Y-111301000D01*
X286827323Y-108819000D02*
X286827323Y-105175000D01*
X286907323Y-108819000D02*
X286907323Y-105198000D01*
X290187323Y-111906000D02*
X290187323Y-108214000D01*
X289227323Y-113452000D02*
X289227323Y-106668000D01*
X289027323Y-113661000D02*
X289027323Y-106459000D01*
X285466323Y-115140000D02*
X285466323Y-104980000D01*
X286587323Y-108819000D02*
X286587323Y-105113000D01*
X285666323Y-115135000D02*
X285666323Y-104985000D01*
X287947323Y-114477000D02*
X287947323Y-111301000D01*
X287987323Y-114455000D02*
X287987323Y-111301000D01*
X286747323Y-114967000D02*
X286747323Y-111301000D01*
X285946323Y-115114000D02*
X285946323Y-111301000D01*
X287187323Y-108819000D02*
X287187323Y-105292000D01*
X288667323Y-113985000D02*
X288667323Y-106135000D01*
X290307323Y-111570000D02*
X290307323Y-108550000D01*
X285506323Y-115140000D02*
X285506323Y-104980000D01*
X288027323Y-114431000D02*
X288027323Y-111301000D01*
X285946323Y-108819000D02*
X285946323Y-105006000D01*
X287387323Y-114750000D02*
X287387323Y-111301000D01*
X289587323Y-113005000D02*
X289587323Y-107115000D01*
X285426323Y-115140000D02*
X285426323Y-104980000D01*
X285786323Y-115128000D02*
X285786323Y-104992000D01*
X289827323Y-112639000D02*
X289827323Y-107481000D01*
X286387323Y-108819000D02*
X286387323Y-105070000D01*
X287907323Y-108819000D02*
X287907323Y-105620000D01*
X288027323Y-108819000D02*
X288027323Y-105689000D01*
X287267323Y-108819000D02*
X287267323Y-105322000D01*
X286907323Y-114922000D02*
X286907323Y-111301000D01*
X287227323Y-108819000D02*
X287227323Y-105306000D01*
X286627323Y-108819000D02*
X286627323Y-105122000D01*
%TO.C,AFE2*%
X323281068Y-84152000D02*
G75*
G03*
X323281068Y-84152000I-2300068J0D01*
G01*
X355271000Y-84152000D02*
G75*
G03*
X355271000Y-84152000I-2286000J0D01*
G01*
X352479082Y-101424000D02*
G75*
G03*
X352479082Y-101424000I-15496082J0D01*
G01*
X323165991Y-117426000D02*
G75*
G03*
X323165991Y-117426000I-2184991J0D01*
G01*
X356541000Y-75770000D02*
X335459000Y-75770000D01*
X317425000Y-120982000D02*
X356541000Y-120982000D01*
X335459000Y-75770000D02*
X317425000Y-75770000D01*
X317425000Y-120728000D02*
X317425000Y-120982000D01*
X317425000Y-75770000D02*
X317425000Y-120728000D01*
X356541000Y-120982000D02*
X356541000Y-75770000D01*
%TO.C,U11*%
X305951000Y-203200000D02*
X314841000Y-203200000D01*
X314841000Y-203200000D02*
X314841000Y-177800000D01*
X314841000Y-177800000D02*
X305951000Y-177800000D01*
X305951000Y-177800000D02*
X305951000Y-203200000D01*
%TO.C,AFE3*%
X264922000Y-177292000D02*
X304038000Y-177292000D01*
X264922000Y-177038000D02*
X264922000Y-177292000D01*
X282956000Y-132080000D02*
X264922000Y-132080000D01*
X304038000Y-177292000D02*
X304038000Y-132080000D01*
X264922000Y-132080000D02*
X264922000Y-177038000D01*
X304038000Y-132080000D02*
X282956000Y-132080000D01*
X270778068Y-140462000D02*
G75*
G03*
X270778068Y-140462000I-2300068J0D01*
G01*
X302768000Y-140462000D02*
G75*
G03*
X302768000Y-140462000I-2286000J0D01*
G01*
X299976082Y-157734000D02*
G75*
G03*
X299976082Y-157734000I-15496082J0D01*
G01*
X302652177Y-173736000D02*
G75*
G03*
X302652177Y-173736000I-2170177J0D01*
G01*
%TO.C,U11*%
X306511000Y-101170000D02*
X315401000Y-101170000D01*
X315401000Y-101170000D02*
X315401000Y-75770000D01*
X315401000Y-75770000D02*
X306511000Y-75770000D01*
X306511000Y-75770000D02*
X306511000Y-101170000D01*
%TO.C,U10*%
X312091000Y-38432000D02*
X314631000Y-38432000D01*
X314631000Y-38432000D02*
X314631000Y-35892000D01*
X314631000Y-35892000D02*
X312091000Y-35892000D01*
X312091000Y-35892000D02*
X312091000Y-38432000D01*
X305741000Y-27002000D02*
X315901000Y-27002000D01*
X315901000Y-27002000D02*
X315901000Y-39702000D01*
X315901000Y-39702000D02*
X305741000Y-39702000D01*
X305741000Y-39702000D02*
X305741000Y-27002000D01*
%TO.C,U12*%
X252274000Y-111548000D02*
G75*
G03*
X255774000Y-115048000I3499999J-1D01*
G01*
X255774000Y-40048000D02*
G75*
G03*
X252274000Y-43548000I0J-3500000D01*
G01*
X315774000Y-43548000D02*
G75*
G03*
X312274000Y-40048000I-3500000J0D01*
G01*
X312274000Y-93048000D02*
G75*
G03*
X315774000Y-89548000I1J3499999D01*
G01*
X276274000Y-115048000D02*
X287274000Y-93048000D01*
X255774000Y-115048000D02*
X276274000Y-115048000D01*
X287274000Y-93048000D02*
X312274000Y-93048000D01*
X315774000Y-43548000D02*
X315774000Y-89548000D01*
X312274000Y-40048000D02*
X255774000Y-40048000D01*
X252274000Y-43548000D02*
X252274000Y-111548000D01*
%TO.C,J13*%
X301610000Y-112157000D02*
X298950000Y-112157000D01*
X298950000Y-101937000D02*
X298950000Y-112157000D01*
X301610000Y-100667000D02*
X301610000Y-99337000D01*
X301610000Y-101937000D02*
X298950000Y-101937000D01*
X301610000Y-99337000D02*
X300280000Y-99337000D01*
X301610000Y-101937000D02*
X301610000Y-112157000D01*
%TO.C,J20*%
X292346000Y-110822000D02*
X292346000Y-98062000D01*
X292346000Y-110822000D02*
X295006000Y-110822000D01*
X292346000Y-113422000D02*
X293676000Y-113422000D01*
X292346000Y-112092000D02*
X292346000Y-113422000D01*
X292346000Y-98062000D02*
X295006000Y-98062000D01*
X295006000Y-110822000D02*
X295006000Y-98062000D01*
%TO.C,AFE4*%
X303328000Y-84152000D02*
G75*
G03*
X303328000Y-84152000I-2286000J0D01*
G01*
X271338068Y-84152000D02*
G75*
G03*
X271338068Y-84152000I-2300068J0D01*
G01*
X300536082Y-101424000D02*
G75*
G03*
X300536082Y-101424000I-15496082J0D01*
G01*
X303212177Y-117426000D02*
G75*
G03*
X303212177Y-117426000I-2170177J0D01*
G01*
X265482000Y-120982000D02*
X304598000Y-120982000D01*
X265482000Y-75770000D02*
X265482000Y-120728000D01*
X265482000Y-120728000D02*
X265482000Y-120982000D01*
X304598000Y-75770000D02*
X283516000Y-75770000D01*
X283516000Y-75770000D02*
X265482000Y-75770000D01*
X304598000Y-120982000D02*
X304598000Y-75770000D01*
%TO.C,U8*%
X306511000Y-75262000D02*
X315401000Y-75262000D01*
X315401000Y-75262000D02*
X315401000Y-49862000D01*
X315401000Y-49862000D02*
X306511000Y-49862000D01*
X306511000Y-49862000D02*
X306511000Y-75262000D01*
%TO.C,J20*%
X291786000Y-200092000D02*
X294446000Y-200092000D01*
X291786000Y-214122000D02*
X291786000Y-215452000D01*
X291786000Y-212852000D02*
X291786000Y-200092000D01*
X291786000Y-212852000D02*
X294446000Y-212852000D01*
X294446000Y-212852000D02*
X294446000Y-200092000D01*
X291786000Y-215452000D02*
X293116000Y-215452000D01*
%TO.C,AFE2*%
X334899000Y-177800000D02*
X316865000Y-177800000D01*
X355981000Y-177800000D02*
X334899000Y-177800000D01*
X316865000Y-223012000D02*
X355981000Y-223012000D01*
X316865000Y-222758000D02*
X316865000Y-223012000D01*
X355981000Y-223012000D02*
X355981000Y-177800000D01*
X316865000Y-177800000D02*
X316865000Y-222758000D01*
X322605991Y-219456000D02*
G75*
G03*
X322605991Y-219456000I-2184991J0D01*
G01*
X322721068Y-186182000D02*
G75*
G03*
X322721068Y-186182000I-2300068J0D01*
G01*
X354711000Y-186182000D02*
G75*
G03*
X354711000Y-186182000I-2286000J0D01*
G01*
X351919082Y-203454000D02*
G75*
G03*
X351919082Y-203454000I-15496082J0D01*
G01*
%TO.C,J13*%
X301050000Y-203967000D02*
X298390000Y-203967000D01*
X301050000Y-214187000D02*
X298390000Y-214187000D01*
X301050000Y-203967000D02*
X301050000Y-214187000D01*
X301050000Y-201367000D02*
X299720000Y-201367000D01*
X298390000Y-203967000D02*
X298390000Y-214187000D01*
X301050000Y-202697000D02*
X301050000Y-201367000D01*
%TO.C,AFE4*%
X264922000Y-177800000D02*
X264922000Y-222758000D01*
X304038000Y-223012000D02*
X304038000Y-177800000D01*
X282956000Y-177800000D02*
X264922000Y-177800000D01*
X264922000Y-222758000D02*
X264922000Y-223012000D01*
X304038000Y-177800000D02*
X282956000Y-177800000D01*
X264922000Y-223012000D02*
X304038000Y-223012000D01*
X302652177Y-219456000D02*
G75*
G03*
X302652177Y-219456000I-2170177J0D01*
G01*
X302768000Y-186182000D02*
G75*
G03*
X302768000Y-186182000I-2286000J0D01*
G01*
X299976082Y-203454000D02*
G75*
G03*
X299976082Y-203454000I-15496082J0D01*
G01*
X270778068Y-186182000D02*
G75*
G03*
X270778068Y-186182000I-2300068J0D01*
G01*
%TO.C,C15*%
X286347323Y-216952000D02*
X286347323Y-213331000D01*
X288667323Y-215482000D02*
X288667323Y-208698000D01*
X288187323Y-215948000D02*
X288187323Y-208232000D01*
X285466323Y-217135000D02*
X285466323Y-213331000D01*
X287467323Y-210849000D02*
X287467323Y-207719000D01*
X287347323Y-210849000D02*
X287347323Y-207650000D01*
X287187323Y-210849000D02*
X287187323Y-207565000D01*
X285306323Y-217152000D02*
X285306323Y-207028000D01*
X289027323Y-215035000D02*
X289027323Y-209145000D01*
X288227323Y-215914000D02*
X288227323Y-208266000D01*
X289867323Y-213152000D02*
X289867323Y-211028000D01*
X289827323Y-213320000D02*
X289827323Y-210860000D01*
X286507323Y-216901000D02*
X286507323Y-213331000D01*
X287027323Y-210849000D02*
X287027323Y-207487000D01*
X286107323Y-217018000D02*
X286107323Y-213331000D01*
X285587323Y-210849000D02*
X285587323Y-207060000D01*
X289347323Y-214529000D02*
X289347323Y-209651000D01*
X285987323Y-210849000D02*
X285987323Y-207134000D01*
X285747323Y-217094000D02*
X285747323Y-213331000D01*
X285987323Y-217046000D02*
X285987323Y-213331000D01*
X287707323Y-210849000D02*
X287707323Y-207869000D01*
X288307323Y-215843000D02*
X288307323Y-208337000D01*
X285867323Y-217072000D02*
X285867323Y-213331000D01*
X286907323Y-216747000D02*
X286907323Y-213331000D01*
X286987323Y-210849000D02*
X286987323Y-207469000D01*
X286907323Y-210849000D02*
X286907323Y-207433000D01*
X289067323Y-214979000D02*
X289067323Y-209201000D01*
X288347323Y-215806000D02*
X288347323Y-208374000D01*
X284866323Y-217170000D02*
X284866323Y-207010000D01*
X285907323Y-210849000D02*
X285907323Y-207116000D01*
X287347323Y-216530000D02*
X287347323Y-213331000D01*
X287387323Y-216507000D02*
X287387323Y-213331000D01*
X286507323Y-210849000D02*
X286507323Y-207279000D01*
X285546323Y-210849000D02*
X285546323Y-207055000D01*
X285787323Y-217087000D02*
X285787323Y-213331000D01*
X288947323Y-215144000D02*
X288947323Y-209036000D01*
X288987323Y-215090000D02*
X288987323Y-209090000D01*
X289467323Y-214299000D02*
X289467323Y-209881000D01*
X287667323Y-216337000D02*
X287667323Y-213331000D01*
X288707323Y-215437000D02*
X288707323Y-208743000D01*
X285506323Y-217130000D02*
X285506323Y-213331000D01*
X288787323Y-215344000D02*
X288787323Y-208836000D01*
X289507323Y-214215000D02*
X289507323Y-209965000D01*
X286427323Y-210849000D02*
X286427323Y-207253000D01*
X287667323Y-210849000D02*
X287667323Y-207843000D01*
X285426323Y-210849000D02*
X285426323Y-207040000D01*
X288907323Y-215196000D02*
X288907323Y-208984000D01*
X285787323Y-210849000D02*
X285787323Y-207093000D01*
X286147323Y-210849000D02*
X286147323Y-207172000D01*
X285827323Y-210849000D02*
X285827323Y-207100000D01*
X285386323Y-210849000D02*
X285386323Y-207036000D01*
X289267323Y-214669000D02*
X289267323Y-209511000D01*
X285426323Y-217140000D02*
X285426323Y-213331000D01*
X286827323Y-210849000D02*
X286827323Y-207400000D01*
X286947323Y-210849000D02*
X286947323Y-207451000D01*
X287627323Y-210849000D02*
X287627323Y-207817000D01*
X288427323Y-215730000D02*
X288427323Y-208450000D01*
X285627323Y-210849000D02*
X285627323Y-207066000D01*
X285066323Y-217167000D02*
X285066323Y-207013000D01*
X287507323Y-210849000D02*
X287507323Y-207743000D01*
X287067323Y-210849000D02*
X287067323Y-207506000D01*
X286947323Y-216729000D02*
X286947323Y-213331000D01*
X287267323Y-210849000D02*
X287267323Y-207607000D01*
X287947323Y-216140000D02*
X287947323Y-208040000D01*
X286347323Y-210849000D02*
X286347323Y-207228000D01*
X287907323Y-216170000D02*
X287907323Y-208010000D01*
X289387323Y-214455000D02*
X289387323Y-209725000D01*
X286387323Y-210849000D02*
X286387323Y-207240000D01*
X288107323Y-216015000D02*
X288107323Y-208165000D01*
X284906323Y-217170000D02*
X284906323Y-207010000D01*
X286107323Y-210849000D02*
X286107323Y-207162000D01*
X286067323Y-210849000D02*
X286067323Y-207152000D01*
X286627323Y-216858000D02*
X286627323Y-213331000D01*
X288747323Y-215391000D02*
X288747323Y-208789000D01*
X288827323Y-215296000D02*
X288827323Y-208884000D01*
X289627323Y-213936000D02*
X289627323Y-210244000D01*
X289147323Y-214860000D02*
X289147323Y-209320000D01*
X286587323Y-216873000D02*
X286587323Y-213331000D01*
X287747323Y-210849000D02*
X287747323Y-207896000D01*
X285546323Y-217125000D02*
X285546323Y-213331000D01*
X289427323Y-214379000D02*
X289427323Y-209801000D01*
X286147323Y-217008000D02*
X286147323Y-213331000D01*
X287867323Y-216200000D02*
X287867323Y-207980000D01*
X286067323Y-217028000D02*
X286067323Y-213331000D01*
X289107323Y-214920000D02*
X289107323Y-209260000D01*
X289947323Y-212689000D02*
X289947323Y-211491000D01*
X289307323Y-214600000D02*
X289307323Y-209580000D01*
X288267323Y-215879000D02*
X288267323Y-208301000D01*
X285506323Y-210849000D02*
X285506323Y-207050000D01*
X287107323Y-216654000D02*
X287107323Y-213331000D01*
X288467323Y-215691000D02*
X288467323Y-208489000D01*
X285707323Y-210849000D02*
X285707323Y-207079000D01*
X286467323Y-216914000D02*
X286467323Y-213331000D01*
X287227323Y-216594000D02*
X287227323Y-213331000D01*
X288067323Y-216047000D02*
X288067323Y-208133000D01*
X289227323Y-214735000D02*
X289227323Y-209445000D01*
X287147323Y-210849000D02*
X287147323Y-207545000D01*
X286747323Y-210849000D02*
X286747323Y-207367000D01*
X287027323Y-216693000D02*
X287027323Y-213331000D01*
X287547323Y-216413000D02*
X287547323Y-213331000D01*
X287707323Y-216311000D02*
X287707323Y-213331000D01*
X285947323Y-217055000D02*
X285947323Y-213331000D01*
X285146323Y-217163000D02*
X285146323Y-207017000D01*
X285667323Y-217108000D02*
X285667323Y-213331000D01*
X286187323Y-210849000D02*
X286187323Y-207183000D01*
X289907323Y-212952000D02*
X289907323Y-211228000D01*
X286467323Y-210849000D02*
X286467323Y-207266000D01*
X289787323Y-213468000D02*
X289787323Y-210712000D01*
X287587323Y-216388000D02*
X287587323Y-213331000D01*
X287787323Y-216256000D02*
X287787323Y-213331000D01*
X285667323Y-210849000D02*
X285667323Y-207072000D01*
X289667323Y-213832000D02*
X289667323Y-210348000D01*
X287747323Y-216284000D02*
X287747323Y-213331000D01*
X286307323Y-216964000D02*
X286307323Y-213331000D01*
X285186323Y-217160000D02*
X285186323Y-207020000D01*
X285466323Y-210849000D02*
X285466323Y-207045000D01*
X286707323Y-210849000D02*
X286707323Y-207352000D01*
X285386323Y-217144000D02*
X285386323Y-213331000D01*
X288147323Y-215982000D02*
X288147323Y-208198000D01*
X286427323Y-216927000D02*
X286427323Y-213331000D01*
X286787323Y-216797000D02*
X286787323Y-213331000D01*
X285827323Y-217080000D02*
X285827323Y-213331000D01*
X285346323Y-217148000D02*
X285346323Y-207032000D01*
X285627323Y-217114000D02*
X285627323Y-213331000D01*
X285106323Y-217165000D02*
X285106323Y-207015000D01*
X286547323Y-210849000D02*
X286547323Y-207293000D01*
X287307323Y-216552000D02*
X287307323Y-213331000D01*
X289747323Y-213600000D02*
X289747323Y-210580000D01*
X279886677Y-215465000D02*
X279886677Y-214465000D01*
X288627323Y-215526000D02*
X288627323Y-208654000D01*
X286707323Y-216828000D02*
X286707323Y-213331000D01*
X287587323Y-210849000D02*
X287587323Y-207792000D01*
X287227323Y-210849000D02*
X287227323Y-207586000D01*
X287507323Y-216437000D02*
X287507323Y-213331000D01*
X288507323Y-215651000D02*
X288507323Y-208529000D01*
X287427323Y-216485000D02*
X287427323Y-213331000D01*
X285747323Y-210849000D02*
X285747323Y-207086000D01*
X287627323Y-216363000D02*
X287627323Y-213331000D01*
X287267323Y-216573000D02*
X287267323Y-213331000D01*
X286027323Y-217037000D02*
X286027323Y-213331000D01*
X287787323Y-210849000D02*
X287787323Y-207924000D01*
X289707323Y-213720000D02*
X289707323Y-210460000D01*
X285026323Y-217168000D02*
X285026323Y-207012000D01*
X287307323Y-210849000D02*
X287307323Y-207628000D01*
X286627323Y-210849000D02*
X286627323Y-207322000D01*
X287187323Y-216615000D02*
X287187323Y-213331000D01*
X287387323Y-210849000D02*
X287387323Y-207673000D01*
X279386677Y-214965000D02*
X280386677Y-214965000D01*
X286027323Y-210849000D02*
X286027323Y-207143000D01*
X286667323Y-216844000D02*
X286667323Y-213331000D01*
X286827323Y-216780000D02*
X286827323Y-213331000D01*
X285587323Y-217120000D02*
X285587323Y-213331000D01*
X287547323Y-210849000D02*
X287547323Y-207767000D01*
X287427323Y-210849000D02*
X287427323Y-207695000D01*
X286267323Y-216975000D02*
X286267323Y-213331000D01*
X287147323Y-216635000D02*
X287147323Y-213331000D01*
X286227323Y-216987000D02*
X286227323Y-213331000D01*
X287467323Y-216461000D02*
X287467323Y-213331000D01*
X286187323Y-216997000D02*
X286187323Y-213331000D01*
X289547323Y-214127000D02*
X289547323Y-210053000D01*
X288027323Y-216079000D02*
X288027323Y-208101000D01*
X285266323Y-217155000D02*
X285266323Y-207025000D01*
X285226323Y-217158000D02*
X285226323Y-207022000D01*
X287987323Y-216110000D02*
X287987323Y-208070000D01*
X284986323Y-217169000D02*
X284986323Y-207011000D01*
X286867323Y-216764000D02*
X286867323Y-213331000D01*
X286787323Y-210849000D02*
X286787323Y-207383000D01*
X286987323Y-216711000D02*
X286987323Y-213331000D01*
X286387323Y-216940000D02*
X286387323Y-213331000D01*
X286867323Y-210849000D02*
X286867323Y-207416000D01*
X288387323Y-215769000D02*
X288387323Y-208411000D01*
X286667323Y-210849000D02*
X286667323Y-207336000D01*
X288867323Y-215246000D02*
X288867323Y-208934000D01*
X285907323Y-217064000D02*
X285907323Y-213331000D01*
X285707323Y-217101000D02*
X285707323Y-213331000D01*
X285867323Y-210849000D02*
X285867323Y-207108000D01*
X286747323Y-216813000D02*
X286747323Y-213331000D01*
X288587323Y-215568000D02*
X288587323Y-208612000D01*
X288547323Y-215610000D02*
X288547323Y-208570000D01*
X286267323Y-210849000D02*
X286267323Y-207205000D01*
X289587323Y-214034000D02*
X289587323Y-210146000D01*
X287827323Y-210849000D02*
X287827323Y-207952000D01*
X286547323Y-216887000D02*
X286547323Y-213331000D01*
X287107323Y-210849000D02*
X287107323Y-207526000D01*
X285947323Y-210849000D02*
X285947323Y-207125000D01*
X286227323Y-210849000D02*
X286227323Y-207193000D01*
X287067323Y-216674000D02*
X287067323Y-213331000D01*
X284946323Y-217170000D02*
X284946323Y-207010000D01*
X286307323Y-210849000D02*
X286307323Y-207216000D01*
X287827323Y-216228000D02*
X287827323Y-213331000D01*
X289187323Y-214799000D02*
X289187323Y-209381000D01*
X286587323Y-210849000D02*
X286587323Y-207307000D01*
X289986323Y-212090000D02*
G75*
G03*
X289986323Y-212090000I-5120000J0D01*
G01*
%TO.C,U12*%
X255214000Y-217078000D02*
X275714000Y-217078000D01*
X251714000Y-145578000D02*
X251714000Y-213578000D01*
X315214000Y-145578000D02*
X315214000Y-191578000D01*
X311714000Y-142078000D02*
X255214000Y-142078000D01*
X286714000Y-195078000D02*
X311714000Y-195078000D01*
X275714000Y-217078000D02*
X286714000Y-195078000D01*
X311714000Y-195078000D02*
G75*
G03*
X315214000Y-191578000I1J3499999D01*
G01*
X251714000Y-213578000D02*
G75*
G03*
X255214000Y-217078000I3499999J-1D01*
G01*
X315214000Y-145578000D02*
G75*
G03*
X311714000Y-142078000I-3500000J0D01*
G01*
X255214000Y-142078000D02*
G75*
G03*
X251714000Y-145578000I0J-3500000D01*
G01*
%TO.C,U10*%
X311531000Y-140462000D02*
X314071000Y-140462000D01*
X314071000Y-140462000D02*
X314071000Y-137922000D01*
X314071000Y-137922000D02*
X311531000Y-137922000D01*
X311531000Y-137922000D02*
X311531000Y-140462000D01*
X305181000Y-129032000D02*
X315341000Y-129032000D01*
X315341000Y-129032000D02*
X315341000Y-141732000D01*
X315341000Y-141732000D02*
X305181000Y-141732000D01*
X305181000Y-141732000D02*
X305181000Y-129032000D01*
%TO.C,AFE1*%
X337947000Y-177292000D02*
X355981000Y-177292000D01*
X355981000Y-177292000D02*
X355981000Y-132334000D01*
X355981000Y-132334000D02*
X355981000Y-132080000D01*
X355981000Y-132080000D02*
X316865000Y-132080000D01*
X316865000Y-132080000D02*
X316865000Y-177292000D01*
X316865000Y-177292000D02*
X337947000Y-177292000D01*
X354725068Y-168910000D02*
G75*
G03*
X354725068Y-168910000I-2300068J0D01*
G01*
X322591177Y-135636000D02*
G75*
G03*
X322591177Y-135636000I-2170177J0D01*
G01*
X351919082Y-151638000D02*
G75*
G03*
X351919082Y-151638000I-15496082J0D01*
G01*
X322707000Y-168910000D02*
G75*
G03*
X322707000Y-168910000I-2286000J0D01*
G01*
%TO.C,U8*%
X305951000Y-177292000D02*
X314841000Y-177292000D01*
X314841000Y-177292000D02*
X314841000Y-151892000D01*
X314841000Y-151892000D02*
X305951000Y-151892000D01*
X305951000Y-151892000D02*
X305951000Y-177292000D01*
%TO.C,C14*%
X278376748Y-217451000D02*
X278899252Y-217451000D01*
X278376748Y-218921000D02*
X278899252Y-218921000D01*
%TD*%
M02*
