M48
; DRILL file {KiCad 6.0.7-f9a2dced07~116~ubuntu20.04.1} date Wed 23 Nov 2022 01:07:18 PM CET
; FORMAT={-:-/ absolute / metric / decimal}
; #@! TF.CreationDate,2022-11-23T13:07:18+01:00
; #@! TF.GenerationSoftware,Kicad,Pcbnew,6.0.7-f9a2dced07~116~ubuntu20.04.1
; #@! TF.FileFunction,Plated,1,2,PTH
FMAT,2
METRIC
; #@! TA.AperFunction,Plated,PTH,ViaDrill
T1C0.400
; #@! TA.AperFunction,Plated,PTH,ComponentDrill
T2C0.762
; #@! TA.AperFunction,Plated,PTH,ComponentDrill
T3C1.000
%
G90
G05
T1
X330.708Y-215.265
X331.268Y-113.235
T2
X278.13Y-136.906
X278.13Y-182.626
X278.69Y-34.876
X278.69Y-80.596
X280.67Y-136.906
X280.67Y-182.626
X281.23Y-34.876
X281.23Y-80.596
X283.21Y-136.906
X283.21Y-182.626
X283.77Y-34.876
X283.77Y-80.596
X285.75Y-136.906
X285.75Y-182.626
X286.31Y-34.876
X286.31Y-80.596
X288.29Y-136.906
X288.29Y-182.626
X288.85Y-34.876
X288.85Y-80.596
X290.83Y-136.906
X290.83Y-182.626
X291.39Y-34.876
X291.39Y-80.596
X306.451Y-130.302
X307.011Y-28.272
X307.221Y-153.162
X307.221Y-155.702
X307.221Y-158.242
X307.221Y-160.782
X307.221Y-163.322
X307.221Y-165.862
X307.221Y-168.402
X307.221Y-170.942
X307.221Y-173.482
X307.221Y-176.022
X307.221Y-179.07
X307.221Y-181.61
X307.221Y-184.15
X307.221Y-186.69
X307.221Y-189.23
X307.221Y-191.77
X307.221Y-194.31
X307.221Y-196.85
X307.221Y-199.39
X307.221Y-201.93
X307.781Y-51.132
X307.781Y-53.672
X307.781Y-56.212
X307.781Y-58.752
X307.781Y-61.292
X307.781Y-63.832
X307.781Y-66.372
X307.781Y-68.912
X307.781Y-71.452
X307.781Y-73.992
X307.781Y-77.04
X307.781Y-79.58
X307.781Y-82.12
X307.781Y-84.66
X307.781Y-87.2
X307.781Y-89.74
X307.781Y-92.28
X307.781Y-94.82
X307.781Y-97.36
X307.781Y-99.9
X308.991Y-130.302
X309.551Y-28.272
X311.531Y-130.302
X312.091Y-28.272
X314.071Y-130.302
X314.631Y-28.272
X330.073Y-172.466
X330.073Y-182.626
X330.633Y-70.436
X330.633Y-80.596
X332.613Y-172.466
X332.613Y-182.626
X333.173Y-70.436
X333.173Y-80.596
X335.153Y-172.466
X335.153Y-182.626
X335.713Y-70.436
X335.713Y-80.596
X337.693Y-172.466
X337.693Y-182.626
X338.253Y-70.436
X338.253Y-80.596
X340.233Y-172.466
X340.233Y-182.626
X340.793Y-70.436
X340.793Y-80.596
X342.773Y-172.466
X342.773Y-182.626
X343.333Y-70.436
X343.333Y-80.596
T3
X260.35Y-130.556
X260.35Y-133.096
X260.35Y-221.996
X260.35Y-224.536
X260.91Y-28.526
X260.91Y-31.066
X260.91Y-119.966
X260.91Y-122.506
X262.89Y-130.556
X262.89Y-133.096
X262.89Y-221.996
X262.89Y-224.536
X263.45Y-28.526
X263.45Y-31.066
X263.45Y-119.966
X263.45Y-122.506
X265.43Y-130.556
X265.43Y-133.096
X265.43Y-221.996
X265.43Y-224.536
X265.99Y-28.526
X265.99Y-31.066
X265.99Y-119.966
X265.99Y-122.506
X267.97Y-130.556
X267.97Y-133.096
X267.97Y-221.996
X267.97Y-224.536
X268.53Y-28.526
X268.53Y-31.066
X268.53Y-119.966
X268.53Y-122.506
X270.51Y-130.556
X270.51Y-133.096
X270.51Y-221.996
X270.51Y-224.536
X271.07Y-28.526
X271.07Y-31.066
X271.07Y-119.966
X271.07Y-122.506
X273.05Y-130.556
X273.05Y-133.096
X273.05Y-221.996
X273.05Y-224.536
X273.61Y-28.526
X273.61Y-31.066
X273.61Y-119.966
X273.61Y-122.506
X275.59Y-130.556
X275.59Y-133.096
X275.59Y-221.996
X275.59Y-224.536
X276.15Y-28.526
X276.15Y-31.066
X276.15Y-119.966
X276.15Y-122.506
X278.13Y-130.556
X278.13Y-133.096
X278.13Y-221.996
X278.13Y-224.536
X278.69Y-28.526
X278.69Y-31.066
X278.69Y-119.966
X278.69Y-122.506
X280.67Y-130.556
X280.67Y-133.096
X280.67Y-221.996
X280.67Y-224.536
X281.23Y-28.526
X281.23Y-31.066
X281.23Y-119.966
X281.23Y-122.506
X283.116Y-212.09
X283.21Y-130.556
X283.21Y-133.096
X283.21Y-221.996
X283.21Y-224.536
X283.676Y-110.06
X283.77Y-28.526
X283.77Y-31.066
X283.77Y-119.966
X283.77Y-122.506
X286.616Y-212.09
X287.176Y-110.06
X293.116Y-201.422
X293.116Y-203.962
X293.116Y-206.502
X293.116Y-209.042
X293.116Y-211.582
X293.116Y-214.122
X293.676Y-99.392
X293.676Y-101.932
X293.676Y-104.472
X293.676Y-107.012
X293.676Y-109.552
X293.676Y-112.092
X299.72Y-202.697
X299.72Y-205.237
X299.72Y-207.777
X299.72Y-210.317
X299.72Y-212.857
X300.28Y-100.667
X300.28Y-103.207
X300.28Y-105.747
X300.28Y-108.287
X300.28Y-110.827
X331.47Y-130.556
X331.47Y-133.096
X331.47Y-221.971
X331.47Y-224.536
X332.03Y-28.526
X332.03Y-31.066
X332.03Y-119.941
X332.03Y-122.506
X334.01Y-130.556
X334.01Y-133.096
X334.01Y-221.971
X334.01Y-224.536
X334.57Y-28.526
X334.57Y-31.066
X334.57Y-119.941
X334.57Y-122.506
X336.55Y-130.556
X336.55Y-133.096
X336.55Y-221.971
X336.55Y-224.536
X337.11Y-28.526
X337.11Y-31.066
X337.11Y-119.941
X337.11Y-122.506
X339.09Y-130.556
X339.09Y-133.096
X339.09Y-221.971
X339.09Y-224.536
X339.65Y-28.526
X339.65Y-31.066
X339.65Y-119.941
X339.65Y-122.506
X341.63Y-130.556
X341.63Y-133.096
X341.63Y-221.971
X341.63Y-224.536
X342.19Y-28.526
X342.19Y-31.066
X342.19Y-119.941
X342.19Y-122.506
X344.17Y-130.556
X344.17Y-133.096
X344.17Y-221.971
X344.17Y-224.536
X344.73Y-28.526
X344.73Y-31.066
X344.73Y-119.941
X344.73Y-122.506
X346.71Y-130.556
X346.71Y-133.096
X346.71Y-221.971
X346.71Y-224.536
X347.27Y-28.526
X347.27Y-31.066
X347.27Y-119.941
X347.27Y-122.506
X349.25Y-130.556
X349.25Y-133.096
X349.25Y-221.971
X349.25Y-224.536
X349.81Y-28.526
X349.81Y-31.066
X349.81Y-119.941
X349.81Y-122.506
X351.79Y-130.556
X351.79Y-133.096
X351.79Y-221.971
X351.79Y-224.536
X352.35Y-28.526
X352.35Y-31.066
X352.35Y-119.941
X352.35Y-122.506
X354.33Y-130.556
X354.33Y-133.096
X354.33Y-221.971
X354.33Y-224.536
X354.89Y-28.526
X354.89Y-31.066
X354.89Y-119.941
X354.89Y-122.506
T0
M30
