%TF.GenerationSoftware,KiCad,Pcbnew,6.0.7-f9a2dced07~116~ubuntu20.04.1*%
%TF.CreationDate,2022-11-23T13:07:14+01:00*%
%TF.ProjectId,board,626f6172-642e-46b6-9963-61645f706362,rev?*%
%TF.SameCoordinates,Original*%
%TF.FileFunction,Legend,Top*%
%TF.FilePolarity,Positive*%
%FSLAX46Y46*%
G04 Gerber Fmt 4.6, Leading zero omitted, Abs format (unit mm)*
G04 Created by KiCad (PCBNEW 6.0.7-f9a2dced07~116~ubuntu20.04.1) date 2022-11-23 13:07:14*
%MOMM*%
%LPD*%
G01*
G04 APERTURE LIST*
%ADD10C,0.150000*%
%ADD11C,0.120000*%
G04 APERTURE END LIST*
D10*
%TO.C,J24*%
X257592380Y-123315523D02*
X258306666Y-123315523D01*
X258449523Y-123363142D01*
X258544761Y-123458380D01*
X258592380Y-123601238D01*
X258592380Y-123696476D01*
X257687619Y-122886952D02*
X257640000Y-122839333D01*
X257592380Y-122744095D01*
X257592380Y-122506000D01*
X257640000Y-122410761D01*
X257687619Y-122363142D01*
X257782857Y-122315523D01*
X257878095Y-122315523D01*
X258020952Y-122363142D01*
X258592380Y-122934571D01*
X258592380Y-122315523D01*
X257925714Y-121458380D02*
X258592380Y-121458380D01*
X257544761Y-121696476D02*
X258259047Y-121934571D01*
X258259047Y-121315523D01*
%TO.C,J22*%
X285329380Y-131238523D02*
X286043666Y-131238523D01*
X286186523Y-131286142D01*
X286281761Y-131381380D01*
X286329380Y-131524238D01*
X286329380Y-131619476D01*
X285424619Y-130809952D02*
X285377000Y-130762333D01*
X285329380Y-130667095D01*
X285329380Y-130429000D01*
X285377000Y-130333761D01*
X285424619Y-130286142D01*
X285519857Y-130238523D01*
X285615095Y-130238523D01*
X285757952Y-130286142D01*
X286329380Y-130857571D01*
X286329380Y-130238523D01*
X285424619Y-129857571D02*
X285377000Y-129809952D01*
X285329380Y-129714714D01*
X285329380Y-129476619D01*
X285377000Y-129381380D01*
X285424619Y-129333761D01*
X285519857Y-129286142D01*
X285615095Y-129286142D01*
X285757952Y-129333761D01*
X286329380Y-129905190D01*
X286329380Y-129286142D01*
%TO.C,J23*%
X328712380Y-123315523D02*
X329426666Y-123315523D01*
X329569523Y-123363142D01*
X329664761Y-123458380D01*
X329712380Y-123601238D01*
X329712380Y-123696476D01*
X328807619Y-122886952D02*
X328760000Y-122839333D01*
X328712380Y-122744095D01*
X328712380Y-122506000D01*
X328760000Y-122410761D01*
X328807619Y-122363142D01*
X328902857Y-122315523D01*
X328998095Y-122315523D01*
X329140952Y-122363142D01*
X329712380Y-122934571D01*
X329712380Y-122315523D01*
X328712380Y-121982190D02*
X328712380Y-121363142D01*
X329093333Y-121696476D01*
X329093333Y-121553619D01*
X329140952Y-121458380D01*
X329188571Y-121410761D01*
X329283809Y-121363142D01*
X329521904Y-121363142D01*
X329617142Y-121410761D01*
X329664761Y-121458380D01*
X329712380Y-121553619D01*
X329712380Y-121839333D01*
X329664761Y-121934571D01*
X329617142Y-121982190D01*
%TO.C,J21*%
X328712380Y-29335523D02*
X329426666Y-29335523D01*
X329569523Y-29383142D01*
X329664761Y-29478380D01*
X329712380Y-29621238D01*
X329712380Y-29716476D01*
X328807619Y-28906952D02*
X328760000Y-28859333D01*
X328712380Y-28764095D01*
X328712380Y-28526000D01*
X328760000Y-28430761D01*
X328807619Y-28383142D01*
X328902857Y-28335523D01*
X328998095Y-28335523D01*
X329140952Y-28383142D01*
X329712380Y-28954571D01*
X329712380Y-28335523D01*
X329712380Y-27383142D02*
X329712380Y-27954571D01*
X329712380Y-27668857D02*
X328712380Y-27668857D01*
X328855238Y-27764095D01*
X328950476Y-27859333D01*
X328998095Y-27954571D01*
%TO.C,J23*%
X328152380Y-225345523D02*
X328866666Y-225345523D01*
X329009523Y-225393142D01*
X329104761Y-225488380D01*
X329152380Y-225631238D01*
X329152380Y-225726476D01*
X328247619Y-224916952D02*
X328200000Y-224869333D01*
X328152380Y-224774095D01*
X328152380Y-224536000D01*
X328200000Y-224440761D01*
X328247619Y-224393142D01*
X328342857Y-224345523D01*
X328438095Y-224345523D01*
X328580952Y-224393142D01*
X329152380Y-224964571D01*
X329152380Y-224345523D01*
X328152380Y-224012190D02*
X328152380Y-223393142D01*
X328533333Y-223726476D01*
X328533333Y-223583619D01*
X328580952Y-223488380D01*
X328628571Y-223440761D01*
X328723809Y-223393142D01*
X328961904Y-223393142D01*
X329057142Y-223440761D01*
X329104761Y-223488380D01*
X329152380Y-223583619D01*
X329152380Y-223869333D01*
X329104761Y-223964571D01*
X329057142Y-224012190D01*
%TO.C,J3*%
X328712380Y-31399333D02*
X329426666Y-31399333D01*
X329569523Y-31446952D01*
X329664761Y-31542190D01*
X329712380Y-31685047D01*
X329712380Y-31780285D01*
X328712380Y-31018380D02*
X328712380Y-30399333D01*
X329093333Y-30732666D01*
X329093333Y-30589809D01*
X329140952Y-30494571D01*
X329188571Y-30446952D01*
X329283809Y-30399333D01*
X329521904Y-30399333D01*
X329617142Y-30446952D01*
X329664761Y-30494571D01*
X329712380Y-30589809D01*
X329712380Y-30875523D01*
X329664761Y-30970761D01*
X329617142Y-31018380D01*
%TO.C,J24*%
X257032380Y-225345523D02*
X257746666Y-225345523D01*
X257889523Y-225393142D01*
X257984761Y-225488380D01*
X258032380Y-225631238D01*
X258032380Y-225726476D01*
X257127619Y-224916952D02*
X257080000Y-224869333D01*
X257032380Y-224774095D01*
X257032380Y-224536000D01*
X257080000Y-224440761D01*
X257127619Y-224393142D01*
X257222857Y-224345523D01*
X257318095Y-224345523D01*
X257460952Y-224393142D01*
X258032380Y-224964571D01*
X258032380Y-224345523D01*
X257365714Y-223488380D02*
X258032380Y-223488380D01*
X256984761Y-223726476D02*
X257699047Y-223964571D01*
X257699047Y-223345523D01*
%TO.C,J15*%
X259846476Y-116624380D02*
X259846476Y-117338666D01*
X259798857Y-117481523D01*
X259703619Y-117576761D01*
X259560761Y-117624380D01*
X259465523Y-117624380D01*
X260846476Y-117624380D02*
X260275047Y-117624380D01*
X260560761Y-117624380D02*
X260560761Y-116624380D01*
X260465523Y-116767238D01*
X260370285Y-116862476D01*
X260275047Y-116910095D01*
X261751238Y-116624380D02*
X261275047Y-116624380D01*
X261227428Y-117100571D01*
X261275047Y-117052952D01*
X261370285Y-117005333D01*
X261608380Y-117005333D01*
X261703619Y-117052952D01*
X261751238Y-117100571D01*
X261798857Y-117195809D01*
X261798857Y-117433904D01*
X261751238Y-117529142D01*
X261703619Y-117576761D01*
X261608380Y-117624380D01*
X261370285Y-117624380D01*
X261275047Y-117576761D01*
X261227428Y-117529142D01*
%TO.C,J5*%
X285889380Y-31907333D02*
X286603666Y-31907333D01*
X286746523Y-31954952D01*
X286841761Y-32050190D01*
X286889380Y-32193047D01*
X286889380Y-32288285D01*
X285889380Y-30954952D02*
X285889380Y-31431142D01*
X286365571Y-31478761D01*
X286317952Y-31431142D01*
X286270333Y-31335904D01*
X286270333Y-31097809D01*
X286317952Y-31002571D01*
X286365571Y-30954952D01*
X286460809Y-30907333D01*
X286698904Y-30907333D01*
X286794142Y-30954952D01*
X286841761Y-31002571D01*
X286889380Y-31097809D01*
X286889380Y-31335904D01*
X286841761Y-31431142D01*
X286794142Y-31478761D01*
%TO.C,J14*%
X328712380Y-120750523D02*
X329426666Y-120750523D01*
X329569523Y-120798142D01*
X329664761Y-120893380D01*
X329712380Y-121036238D01*
X329712380Y-121131476D01*
X329712380Y-119750523D02*
X329712380Y-120321952D01*
X329712380Y-120036238D02*
X328712380Y-120036238D01*
X328855238Y-120131476D01*
X328950476Y-120226714D01*
X328998095Y-120321952D01*
X329045714Y-118893380D02*
X329712380Y-118893380D01*
X328664761Y-119131476D02*
X329379047Y-119369571D01*
X329379047Y-118750523D01*
%TO.C,J22*%
X285889380Y-29208523D02*
X286603666Y-29208523D01*
X286746523Y-29256142D01*
X286841761Y-29351380D01*
X286889380Y-29494238D01*
X286889380Y-29589476D01*
X285984619Y-28779952D02*
X285937000Y-28732333D01*
X285889380Y-28637095D01*
X285889380Y-28399000D01*
X285937000Y-28303761D01*
X285984619Y-28256142D01*
X286079857Y-28208523D01*
X286175095Y-28208523D01*
X286317952Y-28256142D01*
X286889380Y-28827571D01*
X286889380Y-28208523D01*
X285984619Y-27827571D02*
X285937000Y-27779952D01*
X285889380Y-27684714D01*
X285889380Y-27446619D01*
X285937000Y-27351380D01*
X285984619Y-27303761D01*
X286079857Y-27256142D01*
X286175095Y-27256142D01*
X286317952Y-27303761D01*
X286889380Y-27875190D01*
X286889380Y-27256142D01*
%TO.C,J14*%
X328152380Y-222780523D02*
X328866666Y-222780523D01*
X329009523Y-222828142D01*
X329104761Y-222923380D01*
X329152380Y-223066238D01*
X329152380Y-223161476D01*
X329152380Y-221780523D02*
X329152380Y-222351952D01*
X329152380Y-222066238D02*
X328152380Y-222066238D01*
X328295238Y-222161476D01*
X328390476Y-222256714D01*
X328438095Y-222351952D01*
X328485714Y-220923380D02*
X329152380Y-220923380D01*
X328104761Y-221161476D02*
X328819047Y-221399571D01*
X328819047Y-220780523D01*
%TO.C,J5*%
X285329380Y-133937333D02*
X286043666Y-133937333D01*
X286186523Y-133984952D01*
X286281761Y-134080190D01*
X286329380Y-134223047D01*
X286329380Y-134318285D01*
X285329380Y-132984952D02*
X285329380Y-133461142D01*
X285805571Y-133508761D01*
X285757952Y-133461142D01*
X285710333Y-133365904D01*
X285710333Y-133127809D01*
X285757952Y-133032571D01*
X285805571Y-132984952D01*
X285900809Y-132937333D01*
X286138904Y-132937333D01*
X286234142Y-132984952D01*
X286281761Y-133032571D01*
X286329380Y-133127809D01*
X286329380Y-133365904D01*
X286281761Y-133461142D01*
X286234142Y-133508761D01*
%TO.C,J21*%
X328152380Y-131365523D02*
X328866666Y-131365523D01*
X329009523Y-131413142D01*
X329104761Y-131508380D01*
X329152380Y-131651238D01*
X329152380Y-131746476D01*
X328247619Y-130936952D02*
X328200000Y-130889333D01*
X328152380Y-130794095D01*
X328152380Y-130556000D01*
X328200000Y-130460761D01*
X328247619Y-130413142D01*
X328342857Y-130365523D01*
X328438095Y-130365523D01*
X328580952Y-130413142D01*
X329152380Y-130984571D01*
X329152380Y-130365523D01*
X329152380Y-129413142D02*
X329152380Y-129984571D01*
X329152380Y-129698857D02*
X328152380Y-129698857D01*
X328295238Y-129794095D01*
X328390476Y-129889333D01*
X328438095Y-129984571D01*
%TO.C,J15*%
X259286476Y-218654380D02*
X259286476Y-219368666D01*
X259238857Y-219511523D01*
X259143619Y-219606761D01*
X259000761Y-219654380D01*
X258905523Y-219654380D01*
X260286476Y-219654380D02*
X259715047Y-219654380D01*
X260000761Y-219654380D02*
X260000761Y-218654380D01*
X259905523Y-218797238D01*
X259810285Y-218892476D01*
X259715047Y-218940095D01*
X261191238Y-218654380D02*
X260715047Y-218654380D01*
X260667428Y-219130571D01*
X260715047Y-219082952D01*
X260810285Y-219035333D01*
X261048380Y-219035333D01*
X261143619Y-219082952D01*
X261191238Y-219130571D01*
X261238857Y-219225809D01*
X261238857Y-219463904D01*
X261191238Y-219559142D01*
X261143619Y-219606761D01*
X261048380Y-219654380D01*
X260810285Y-219654380D01*
X260715047Y-219606761D01*
X260667428Y-219559142D01*
%TO.C,J3*%
X328152380Y-133429333D02*
X328866666Y-133429333D01*
X329009523Y-133476952D01*
X329104761Y-133572190D01*
X329152380Y-133715047D01*
X329152380Y-133810285D01*
X328152380Y-133048380D02*
X328152380Y-132429333D01*
X328533333Y-132762666D01*
X328533333Y-132619809D01*
X328580952Y-132524571D01*
X328628571Y-132476952D01*
X328723809Y-132429333D01*
X328961904Y-132429333D01*
X329057142Y-132476952D01*
X329104761Y-132524571D01*
X329152380Y-132619809D01*
X329152380Y-132905523D01*
X329104761Y-133000761D01*
X329057142Y-133048380D01*
D11*
%TO.C,J24*%
X285100000Y-123836000D02*
X285100000Y-121176000D01*
X262180000Y-123836000D02*
X262180000Y-121176000D01*
X262180000Y-123836000D02*
X285100000Y-123836000D01*
X259580000Y-122506000D02*
X259580000Y-121176000D01*
X262180000Y-121176000D02*
X285100000Y-121176000D01*
X259580000Y-121176000D02*
X260910000Y-121176000D01*
%TO.C,J22*%
X284540000Y-131886000D02*
X284540000Y-129226000D01*
X261620000Y-131886000D02*
X261620000Y-129226000D01*
X259020000Y-129226000D02*
X260350000Y-129226000D01*
X261620000Y-131886000D02*
X284540000Y-131886000D01*
X261620000Y-129226000D02*
X284540000Y-129226000D01*
X259020000Y-130556000D02*
X259020000Y-129226000D01*
%TO.C,J23*%
X333300000Y-123836000D02*
X333300000Y-121176000D01*
X330700000Y-121176000D02*
X332030000Y-121176000D01*
X356220000Y-123836000D02*
X356220000Y-121176000D01*
X333300000Y-121176000D02*
X356220000Y-121176000D01*
X333300000Y-123836000D02*
X356220000Y-123836000D01*
X330700000Y-122506000D02*
X330700000Y-121176000D01*
%TO.C,J21*%
X333300000Y-29856000D02*
X356220000Y-29856000D01*
X333300000Y-29856000D02*
X333300000Y-27196000D01*
X330700000Y-27196000D02*
X332030000Y-27196000D01*
X333300000Y-27196000D02*
X356220000Y-27196000D01*
X356220000Y-29856000D02*
X356220000Y-27196000D01*
X330700000Y-28526000D02*
X330700000Y-27196000D01*
%TO.C,J23*%
X330140000Y-224536000D02*
X330140000Y-223206000D01*
X332740000Y-225866000D02*
X355660000Y-225866000D01*
X330140000Y-223206000D02*
X331470000Y-223206000D01*
X355660000Y-225866000D02*
X355660000Y-223206000D01*
X332740000Y-223206000D02*
X355660000Y-223206000D01*
X332740000Y-225866000D02*
X332740000Y-223206000D01*
%TO.C,J3*%
X356220000Y-32396000D02*
X356220000Y-29736000D01*
X333300000Y-32396000D02*
X333300000Y-29736000D01*
X333300000Y-32396000D02*
X356220000Y-32396000D01*
X330700000Y-29736000D02*
X332030000Y-29736000D01*
X333300000Y-29736000D02*
X356220000Y-29736000D01*
X330700000Y-31066000D02*
X330700000Y-29736000D01*
%TO.C,J24*%
X261620000Y-225866000D02*
X284540000Y-225866000D01*
X284540000Y-225866000D02*
X284540000Y-223206000D01*
X261620000Y-223206000D02*
X284540000Y-223206000D01*
X261620000Y-225866000D02*
X261620000Y-223206000D01*
X259020000Y-224536000D02*
X259020000Y-223206000D01*
X259020000Y-223206000D02*
X260350000Y-223206000D01*
%TO.C,J15*%
X285100000Y-121296000D02*
X285100000Y-118636000D01*
X259580000Y-118636000D02*
X260910000Y-118636000D01*
X259580000Y-119966000D02*
X259580000Y-118636000D01*
X262180000Y-118636000D02*
X285100000Y-118636000D01*
X262180000Y-121296000D02*
X285100000Y-121296000D01*
X262180000Y-121296000D02*
X262180000Y-118636000D01*
%TO.C,J5*%
X262180000Y-32396000D02*
X285100000Y-32396000D01*
X259580000Y-29736000D02*
X260910000Y-29736000D01*
X262180000Y-32396000D02*
X262180000Y-29736000D01*
X262180000Y-29736000D02*
X285100000Y-29736000D01*
X285100000Y-32396000D02*
X285100000Y-29736000D01*
X259580000Y-31066000D02*
X259580000Y-29736000D01*
%TO.C,J14*%
X356220000Y-121271000D02*
X356220000Y-118611000D01*
X333300000Y-121271000D02*
X356220000Y-121271000D01*
X330700000Y-118611000D02*
X332030000Y-118611000D01*
X333300000Y-121271000D02*
X333300000Y-118611000D01*
X330700000Y-119941000D02*
X330700000Y-118611000D01*
X333300000Y-118611000D02*
X356220000Y-118611000D01*
%TO.C,J22*%
X259580000Y-28526000D02*
X259580000Y-27196000D01*
X259580000Y-27196000D02*
X260910000Y-27196000D01*
X262180000Y-29856000D02*
X285100000Y-29856000D01*
X285100000Y-29856000D02*
X285100000Y-27196000D01*
X262180000Y-29856000D02*
X262180000Y-27196000D01*
X262180000Y-27196000D02*
X285100000Y-27196000D01*
%TO.C,J14*%
X332740000Y-223301000D02*
X332740000Y-220641000D01*
X332740000Y-220641000D02*
X355660000Y-220641000D01*
X330140000Y-220641000D02*
X331470000Y-220641000D01*
X355660000Y-223301000D02*
X355660000Y-220641000D01*
X332740000Y-223301000D02*
X355660000Y-223301000D01*
X330140000Y-221971000D02*
X330140000Y-220641000D01*
%TO.C,J5*%
X284540000Y-134426000D02*
X284540000Y-131766000D01*
X261620000Y-131766000D02*
X284540000Y-131766000D01*
X261620000Y-134426000D02*
X284540000Y-134426000D01*
X259020000Y-133096000D02*
X259020000Y-131766000D01*
X259020000Y-131766000D02*
X260350000Y-131766000D01*
X261620000Y-134426000D02*
X261620000Y-131766000D01*
%TO.C,J21*%
X332740000Y-131886000D02*
X355660000Y-131886000D01*
X332740000Y-131886000D02*
X332740000Y-129226000D01*
X330140000Y-129226000D02*
X331470000Y-129226000D01*
X330140000Y-130556000D02*
X330140000Y-129226000D01*
X355660000Y-131886000D02*
X355660000Y-129226000D01*
X332740000Y-129226000D02*
X355660000Y-129226000D01*
%TO.C,J15*%
X259020000Y-221996000D02*
X259020000Y-220666000D01*
X261620000Y-220666000D02*
X284540000Y-220666000D01*
X284540000Y-223326000D02*
X284540000Y-220666000D01*
X261620000Y-223326000D02*
X261620000Y-220666000D01*
X261620000Y-223326000D02*
X284540000Y-223326000D01*
X259020000Y-220666000D02*
X260350000Y-220666000D01*
%TO.C,J3*%
X332740000Y-131766000D02*
X355660000Y-131766000D01*
X330140000Y-133096000D02*
X330140000Y-131766000D01*
X355660000Y-134426000D02*
X355660000Y-131766000D01*
X332740000Y-134426000D02*
X332740000Y-131766000D01*
X330140000Y-131766000D02*
X331470000Y-131766000D01*
X332740000Y-134426000D02*
X355660000Y-134426000D01*
%TD*%
M02*
