M48
; DRILL file {KiCad 6.0.7-f9a2dced07~116~ubuntu20.04.1} date Mon 31 Oct 2022 02:41:31 PM CET
; FORMAT={-:-/ absolute / metric / decimal}
; #@! TF.CreationDate,2022-10-31T14:41:31+01:00
; #@! TF.GenerationSoftware,Kicad,Pcbnew,6.0.7-f9a2dced07~116~ubuntu20.04.1
; #@! TF.FileFunction,Plated,1,2,PTH
FMAT,2
METRIC
; #@! TA.AperFunction,Plated,PTH,ViaDrill
T1C0.400
; #@! TA.AperFunction,Plated,PTH,ComponentDrill
T2C0.762
; #@! TA.AperFunction,Plated,PTH,ComponentDrill
T3C0.800
; #@! TA.AperFunction,Plated,PTH,ComponentDrill
T4C1.000
; #@! TA.AperFunction,Plated,PTH,ComponentDrill
T5C1.500
; #@! TA.AperFunction,Plated,PTH,ComponentDrill
T6C2.000
%
G90
G05
T1
X120.201Y-66.04
X123.376Y-84.709
X141.224Y-65.405
X141.605Y-64.008
X143.315Y-95.25
X146.744Y-69.215
X147.379Y-60.472
X149.919Y-59.746
X152.459Y-59.02
X154.999Y-58.293
X157.539Y-57.48
X160.079Y-56.754
X162.619Y-56.027
X165.159Y-55.301
X167.699Y-54.575
X170.239Y-53.848
X177.097Y-55.88
X183.193Y-64.77
X183.574Y-86.741
X188.781Y-90.805
X193.607Y-90.424
X194.877Y-56.642
X197.925Y-63.246
X198.941Y-85.852
X198.941Y-87.884
X198.941Y-90.17
T2
X111.379Y-118.618
X111.379Y-136.398
X111.387Y-93.98
X111.387Y-111.76
X113.919Y-118.618
X113.919Y-136.398
X113.927Y-93.98
X113.927Y-111.76
X114.554Y-55.491
X114.554Y-58.031
X114.554Y-63.111
X114.554Y-65.651
X118.999Y-118.618
X118.999Y-136.398
X119.007Y-93.98
X119.007Y-111.76
X121.539Y-118.618
X121.539Y-136.398
X121.547Y-93.98
X121.547Y-111.76
X132.334Y-55.491
X132.334Y-58.031
X132.334Y-63.111
X132.334Y-65.651
X146.871Y-49.784
X146.871Y-72.644
X149.411Y-49.784
X149.411Y-72.644
X151.951Y-49.784
X151.951Y-72.644
X154.491Y-49.784
X154.491Y-72.644
X157.031Y-49.784
X157.031Y-72.644
X159.444Y-81.153
X159.444Y-83.693
X159.444Y-88.773
X159.444Y-91.313
X159.571Y-49.784
X159.571Y-72.644
X162.111Y-49.784
X162.111Y-72.644
X164.651Y-49.784
X164.651Y-72.644
X167.191Y-49.784
X167.191Y-72.644
X169.731Y-49.784
X169.731Y-72.644
X172.271Y-49.784
X172.271Y-72.644
X174.811Y-49.784
X174.811Y-72.644
X177.224Y-81.153
X177.224Y-83.693
X177.224Y-88.773
X177.224Y-91.313
X177.351Y-49.784
X177.351Y-72.644
X184.844Y-81.153
X184.844Y-83.693
X184.844Y-88.773
X184.844Y-91.313
X202.624Y-81.153
X202.624Y-83.693
X202.624Y-88.773
X202.624Y-91.313
T3
X109.269Y-72.898
X109.269Y-75.438
X109.269Y-77.978
X110.787Y-83.725
X110.787Y-85.725
X110.787Y-87.725
X116.889Y-72.898
X116.889Y-75.438
X116.889Y-77.978
T4
X109.279Y-48.768
X109.279Y-142.748
X109.914Y-54.991
X109.914Y-57.531
X109.914Y-60.071
X109.914Y-62.611
X111.819Y-48.768
X111.819Y-142.748
X114.359Y-48.768
X114.359Y-142.748
X116.899Y-48.768
X116.899Y-142.748
X119.439Y-48.768
X119.439Y-142.748
X121.979Y-48.768
X121.979Y-142.748
X124.519Y-48.768
X124.519Y-142.748
X127.059Y-48.768
X127.059Y-142.748
X129.599Y-48.768
X129.599Y-142.748
X132.139Y-48.768
X132.139Y-142.748
X180.399Y-48.768
X180.399Y-142.748
X182.939Y-48.768
X182.939Y-142.748
X185.479Y-48.768
X185.479Y-142.748
X188.019Y-48.768
X188.019Y-142.748
X190.559Y-48.768
X190.559Y-142.748
X193.099Y-48.768
X193.099Y-142.748
X195.639Y-48.768
X195.639Y-142.748
X198.179Y-48.768
X198.179Y-142.748
X199.449Y-66.548
X199.449Y-69.088
X200.719Y-48.768
X200.719Y-142.748
X203.259Y-48.768
X203.259Y-142.748
T5
X110.787Y-81.625
X110.787Y-89.825
T6
X129.921Y-106.68
X129.989Y-128.524
X201.921Y-106.68
X201.989Y-128.524
T0
M30
