%TF.GenerationSoftware,KiCad,Pcbnew,6.0.7-f9a2dced07~116~ubuntu20.04.1*%
%TF.CreationDate,2022-10-31T14:41:35+01:00*%
%TF.ProjectId,av_citynode_hw,61765f63-6974-4796-9e6f-64655f68772e,rev?*%
%TF.SameCoordinates,Original*%
%TF.FileFunction,Legend,Top*%
%TF.FilePolarity,Positive*%
%FSLAX46Y46*%
G04 Gerber Fmt 4.6, Leading zero omitted, Abs format (unit mm)*
G04 Created by KiCad (PCBNEW 6.0.7-f9a2dced07~116~ubuntu20.04.1) date 2022-10-31 14:41:35*
%MOMM*%
%LPD*%
G01*
G04 APERTURE LIST*
%ADD10C,0.150000*%
%ADD11C,0.120000*%
G04 APERTURE END LIST*
D10*
%TO.C,JP2*%
X195948666Y-72858380D02*
X195948666Y-73572666D01*
X195901047Y-73715523D01*
X195805809Y-73810761D01*
X195662952Y-73858380D01*
X195567714Y-73858380D01*
X196424857Y-73858380D02*
X196424857Y-72858380D01*
X196805809Y-72858380D01*
X196901047Y-72906000D01*
X196948666Y-72953619D01*
X196996285Y-73048857D01*
X196996285Y-73191714D01*
X196948666Y-73286952D01*
X196901047Y-73334571D01*
X196805809Y-73382190D01*
X196424857Y-73382190D01*
X197377238Y-72953619D02*
X197424857Y-72906000D01*
X197520095Y-72858380D01*
X197758190Y-72858380D01*
X197853428Y-72906000D01*
X197901047Y-72953619D01*
X197948666Y-73048857D01*
X197948666Y-73144095D01*
X197901047Y-73286952D01*
X197329619Y-73858380D01*
X197948666Y-73858380D01*
%TO.C,R9*%
X201171380Y-54268666D02*
X200695190Y-54602000D01*
X201171380Y-54840095D02*
X200171380Y-54840095D01*
X200171380Y-54459142D01*
X200219000Y-54363904D01*
X200266619Y-54316285D01*
X200361857Y-54268666D01*
X200504714Y-54268666D01*
X200599952Y-54316285D01*
X200647571Y-54363904D01*
X200695190Y-54459142D01*
X200695190Y-54840095D01*
X201171380Y-53792476D02*
X201171380Y-53602000D01*
X201123761Y-53506761D01*
X201076142Y-53459142D01*
X200933285Y-53363904D01*
X200742809Y-53316285D01*
X200361857Y-53316285D01*
X200266619Y-53363904D01*
X200219000Y-53411523D01*
X200171380Y-53506761D01*
X200171380Y-53697238D01*
X200219000Y-53792476D01*
X200266619Y-53840095D01*
X200361857Y-53887714D01*
X200599952Y-53887714D01*
X200695190Y-53840095D01*
X200742809Y-53792476D01*
X200790428Y-53697238D01*
X200790428Y-53506761D01*
X200742809Y-53411523D01*
X200695190Y-53363904D01*
X200599952Y-53316285D01*
%TO.C,C23*%
X115964642Y-128021142D02*
X115917023Y-128068761D01*
X115774166Y-128116380D01*
X115678928Y-128116380D01*
X115536071Y-128068761D01*
X115440833Y-127973523D01*
X115393214Y-127878285D01*
X115345595Y-127687809D01*
X115345595Y-127544952D01*
X115393214Y-127354476D01*
X115440833Y-127259238D01*
X115536071Y-127164000D01*
X115678928Y-127116380D01*
X115774166Y-127116380D01*
X115917023Y-127164000D01*
X115964642Y-127211619D01*
X116345595Y-127211619D02*
X116393214Y-127164000D01*
X116488452Y-127116380D01*
X116726547Y-127116380D01*
X116821785Y-127164000D01*
X116869404Y-127211619D01*
X116917023Y-127306857D01*
X116917023Y-127402095D01*
X116869404Y-127544952D01*
X116297976Y-128116380D01*
X116917023Y-128116380D01*
X117250357Y-127116380D02*
X117869404Y-127116380D01*
X117536071Y-127497333D01*
X117678928Y-127497333D01*
X117774166Y-127544952D01*
X117821785Y-127592571D01*
X117869404Y-127687809D01*
X117869404Y-127925904D01*
X117821785Y-128021142D01*
X117774166Y-128068761D01*
X117678928Y-128116380D01*
X117393214Y-128116380D01*
X117297976Y-128068761D01*
X117250357Y-128021142D01*
%TO.C,J4*%
X201441380Y-68151333D02*
X202155666Y-68151333D01*
X202298523Y-68198952D01*
X202393761Y-68294190D01*
X202441380Y-68437047D01*
X202441380Y-68532285D01*
X201774714Y-67246571D02*
X202441380Y-67246571D01*
X201393761Y-67484666D02*
X202108047Y-67722761D01*
X202108047Y-67103714D01*
%TO.C,C4*%
X167548142Y-83732666D02*
X167595761Y-83780285D01*
X167643380Y-83923142D01*
X167643380Y-84018380D01*
X167595761Y-84161238D01*
X167500523Y-84256476D01*
X167405285Y-84304095D01*
X167214809Y-84351714D01*
X167071952Y-84351714D01*
X166881476Y-84304095D01*
X166786238Y-84256476D01*
X166691000Y-84161238D01*
X166643380Y-84018380D01*
X166643380Y-83923142D01*
X166691000Y-83780285D01*
X166738619Y-83732666D01*
X166976714Y-82875523D02*
X167643380Y-82875523D01*
X166595761Y-83113619D02*
X167310047Y-83351714D01*
X167310047Y-82732666D01*
%TO.C,R11*%
X193551380Y-54236857D02*
X193075190Y-54570190D01*
X193551380Y-54808285D02*
X192551380Y-54808285D01*
X192551380Y-54427333D01*
X192599000Y-54332095D01*
X192646619Y-54284476D01*
X192741857Y-54236857D01*
X192884714Y-54236857D01*
X192979952Y-54284476D01*
X193027571Y-54332095D01*
X193075190Y-54427333D01*
X193075190Y-54808285D01*
X193551380Y-53284476D02*
X193551380Y-53855904D01*
X193551380Y-53570190D02*
X192551380Y-53570190D01*
X192694238Y-53665428D01*
X192789476Y-53760666D01*
X192837095Y-53855904D01*
X193551380Y-52332095D02*
X193551380Y-52903523D01*
X193551380Y-52617809D02*
X192551380Y-52617809D01*
X192694238Y-52713047D01*
X192789476Y-52808285D01*
X192837095Y-52903523D01*
%TO.C,R13*%
X123514380Y-108823357D02*
X123038190Y-109156690D01*
X123514380Y-109394785D02*
X122514380Y-109394785D01*
X122514380Y-109013833D01*
X122562000Y-108918595D01*
X122609619Y-108870976D01*
X122704857Y-108823357D01*
X122847714Y-108823357D01*
X122942952Y-108870976D01*
X122990571Y-108918595D01*
X123038190Y-109013833D01*
X123038190Y-109394785D01*
X123514380Y-107870976D02*
X123514380Y-108442404D01*
X123514380Y-108156690D02*
X122514380Y-108156690D01*
X122657238Y-108251928D01*
X122752476Y-108347166D01*
X122800095Y-108442404D01*
X122514380Y-107537642D02*
X122514380Y-106918595D01*
X122895333Y-107251928D01*
X122895333Y-107109071D01*
X122942952Y-107013833D01*
X122990571Y-106966214D01*
X123085809Y-106918595D01*
X123323904Y-106918595D01*
X123419142Y-106966214D01*
X123466761Y-107013833D01*
X123514380Y-107109071D01*
X123514380Y-107394785D01*
X123466761Y-107490023D01*
X123419142Y-107537642D01*
%TO.C,J1*%
X180065666Y-50760380D02*
X180065666Y-51474666D01*
X180018047Y-51617523D01*
X179922809Y-51712761D01*
X179779952Y-51760380D01*
X179684714Y-51760380D01*
X181065666Y-51760380D02*
X180494238Y-51760380D01*
X180779952Y-51760380D02*
X180779952Y-50760380D01*
X180684714Y-50903238D01*
X180589476Y-50998476D01*
X180494238Y-51046095D01*
%TO.C,U19*%
X134905904Y-67067380D02*
X134905904Y-67876904D01*
X134953523Y-67972142D01*
X135001142Y-68019761D01*
X135096380Y-68067380D01*
X135286857Y-68067380D01*
X135382095Y-68019761D01*
X135429714Y-67972142D01*
X135477333Y-67876904D01*
X135477333Y-67067380D01*
X136477333Y-68067380D02*
X135905904Y-68067380D01*
X136191619Y-68067380D02*
X136191619Y-67067380D01*
X136096380Y-67210238D01*
X136001142Y-67305476D01*
X135905904Y-67353095D01*
X136953523Y-68067380D02*
X137144000Y-68067380D01*
X137239238Y-68019761D01*
X137286857Y-67972142D01*
X137382095Y-67829285D01*
X137429714Y-67638809D01*
X137429714Y-67257857D01*
X137382095Y-67162619D01*
X137334476Y-67115000D01*
X137239238Y-67067380D01*
X137048761Y-67067380D01*
X136953523Y-67115000D01*
X136905904Y-67162619D01*
X136858285Y-67257857D01*
X136858285Y-67495952D01*
X136905904Y-67591190D01*
X136953523Y-67638809D01*
X137048761Y-67686428D01*
X137239238Y-67686428D01*
X137334476Y-67638809D01*
X137382095Y-67591190D01*
X137429714Y-67495952D01*
%TO.C,R10*%
X189996380Y-61753357D02*
X189520190Y-62086690D01*
X189996380Y-62324785D02*
X188996380Y-62324785D01*
X188996380Y-61943833D01*
X189044000Y-61848595D01*
X189091619Y-61800976D01*
X189186857Y-61753357D01*
X189329714Y-61753357D01*
X189424952Y-61800976D01*
X189472571Y-61848595D01*
X189520190Y-61943833D01*
X189520190Y-62324785D01*
X189996380Y-60800976D02*
X189996380Y-61372404D01*
X189996380Y-61086690D02*
X188996380Y-61086690D01*
X189139238Y-61181928D01*
X189234476Y-61277166D01*
X189282095Y-61372404D01*
X188996380Y-60181928D02*
X188996380Y-60086690D01*
X189044000Y-59991452D01*
X189091619Y-59943833D01*
X189186857Y-59896214D01*
X189377333Y-59848595D01*
X189615428Y-59848595D01*
X189805904Y-59896214D01*
X189901142Y-59943833D01*
X189948761Y-59991452D01*
X189996380Y-60086690D01*
X189996380Y-60181928D01*
X189948761Y-60277166D01*
X189901142Y-60324785D01*
X189805904Y-60372404D01*
X189615428Y-60420023D01*
X189377333Y-60420023D01*
X189186857Y-60372404D01*
X189091619Y-60324785D01*
X189044000Y-60277166D01*
X188996380Y-60181928D01*
%TO.C,R3*%
X123844333Y-79192380D02*
X123511000Y-78716190D01*
X123272904Y-79192380D02*
X123272904Y-78192380D01*
X123653857Y-78192380D01*
X123749095Y-78240000D01*
X123796714Y-78287619D01*
X123844333Y-78382857D01*
X123844333Y-78525714D01*
X123796714Y-78620952D01*
X123749095Y-78668571D01*
X123653857Y-78716190D01*
X123272904Y-78716190D01*
X124177666Y-78192380D02*
X124796714Y-78192380D01*
X124463380Y-78573333D01*
X124606238Y-78573333D01*
X124701476Y-78620952D01*
X124749095Y-78668571D01*
X124796714Y-78763809D01*
X124796714Y-79001904D01*
X124749095Y-79097142D01*
X124701476Y-79144761D01*
X124606238Y-79192380D01*
X124320523Y-79192380D01*
X124225285Y-79144761D01*
X124177666Y-79097142D01*
%TO.C,U17*%
X116174095Y-139993714D02*
X116412190Y-140660380D01*
X116650285Y-139993714D01*
X117221714Y-139660380D02*
X117316952Y-139660380D01*
X117412190Y-139708000D01*
X117459809Y-139755619D01*
X117507428Y-139850857D01*
X117555047Y-140041333D01*
X117555047Y-140279428D01*
X117507428Y-140469904D01*
X117459809Y-140565142D01*
X117412190Y-140612761D01*
X117316952Y-140660380D01*
X117221714Y-140660380D01*
X117126476Y-140612761D01*
X117078857Y-140565142D01*
X117031238Y-140469904D01*
X116983619Y-140279428D01*
X116983619Y-140041333D01*
X117031238Y-139850857D01*
X117078857Y-139755619D01*
X117126476Y-139708000D01*
X117221714Y-139660380D01*
X117983619Y-140565142D02*
X118031238Y-140612761D01*
X117983619Y-140660380D01*
X117936000Y-140612761D01*
X117983619Y-140565142D01*
X117983619Y-140660380D01*
X118983619Y-140660380D02*
X118412190Y-140660380D01*
X118697904Y-140660380D02*
X118697904Y-139660380D01*
X118602666Y-139803238D01*
X118507428Y-139898476D01*
X118412190Y-139946095D01*
X120459809Y-140993714D02*
X120221714Y-140993714D01*
X120221714Y-139565142D01*
X120459809Y-139565142D01*
X120840761Y-139993714D02*
X120840761Y-140993714D01*
X120840761Y-140041333D02*
X120936000Y-139993714D01*
X121126476Y-139993714D01*
X121221714Y-140041333D01*
X121269333Y-140088952D01*
X121316952Y-140184190D01*
X121316952Y-140469904D01*
X121269333Y-140565142D01*
X121221714Y-140612761D01*
X121126476Y-140660380D01*
X120936000Y-140660380D01*
X120840761Y-140612761D01*
X121507428Y-140755619D02*
X122269333Y-140755619D01*
X122507428Y-139993714D02*
X122507428Y-140993714D01*
X122507428Y-140041333D02*
X122602666Y-139993714D01*
X122793142Y-139993714D01*
X122888380Y-140041333D01*
X122936000Y-140088952D01*
X122983619Y-140184190D01*
X122983619Y-140469904D01*
X122936000Y-140565142D01*
X122888380Y-140612761D01*
X122793142Y-140660380D01*
X122602666Y-140660380D01*
X122507428Y-140612761D01*
X123316952Y-140993714D02*
X123555047Y-140993714D01*
X123555047Y-139565142D01*
X123316952Y-139565142D01*
%TO.C,C1*%
X119615833Y-98655142D02*
X119568214Y-98702761D01*
X119425357Y-98750380D01*
X119330119Y-98750380D01*
X119187261Y-98702761D01*
X119092023Y-98607523D01*
X119044404Y-98512285D01*
X118996785Y-98321809D01*
X118996785Y-98178952D01*
X119044404Y-97988476D01*
X119092023Y-97893238D01*
X119187261Y-97798000D01*
X119330119Y-97750380D01*
X119425357Y-97750380D01*
X119568214Y-97798000D01*
X119615833Y-97845619D01*
X120568214Y-98750380D02*
X119996785Y-98750380D01*
X120282500Y-98750380D02*
X120282500Y-97750380D01*
X120187261Y-97893238D01*
X120092023Y-97988476D01*
X119996785Y-98036095D01*
%TO.C,J7*%
X107929666Y-139660380D02*
X107929666Y-140374666D01*
X107882047Y-140517523D01*
X107786809Y-140612761D01*
X107643952Y-140660380D01*
X107548714Y-140660380D01*
X108310619Y-139660380D02*
X108977285Y-139660380D01*
X108548714Y-140660380D01*
%TO.C,U9*%
X204822619Y-72644095D02*
X204013095Y-72644095D01*
X203917857Y-72691714D01*
X203870238Y-72739333D01*
X203822619Y-72834571D01*
X203822619Y-73025047D01*
X203870238Y-73120285D01*
X203917857Y-73167904D01*
X204013095Y-73215523D01*
X204822619Y-73215523D01*
X203822619Y-73739333D02*
X203822619Y-73929809D01*
X203870238Y-74025047D01*
X203917857Y-74072666D01*
X204060714Y-74167904D01*
X204251190Y-74215523D01*
X204632142Y-74215523D01*
X204727380Y-74167904D01*
X204775000Y-74120285D01*
X204822619Y-74025047D01*
X204822619Y-73834571D01*
X204775000Y-73739333D01*
X204727380Y-73691714D01*
X204632142Y-73644095D01*
X204394047Y-73644095D01*
X204298809Y-73691714D01*
X204251190Y-73739333D01*
X204203571Y-73834571D01*
X204203571Y-74025047D01*
X204251190Y-74120285D01*
X204298809Y-74167904D01*
X204394047Y-74215523D01*
%TO.C,J2*%
X108437666Y-50760380D02*
X108437666Y-51474666D01*
X108390047Y-51617523D01*
X108294809Y-51712761D01*
X108151952Y-51760380D01*
X108056714Y-51760380D01*
X108866238Y-50855619D02*
X108913857Y-50808000D01*
X109009095Y-50760380D01*
X109247190Y-50760380D01*
X109342428Y-50808000D01*
X109390047Y-50855619D01*
X109437666Y-50950857D01*
X109437666Y-51046095D01*
X109390047Y-51188952D01*
X108818619Y-51760380D01*
X109437666Y-51760380D01*
%TO.C,C22*%
X190408142Y-54236857D02*
X190455761Y-54284476D01*
X190503380Y-54427333D01*
X190503380Y-54522571D01*
X190455761Y-54665428D01*
X190360523Y-54760666D01*
X190265285Y-54808285D01*
X190074809Y-54855904D01*
X189931952Y-54855904D01*
X189741476Y-54808285D01*
X189646238Y-54760666D01*
X189551000Y-54665428D01*
X189503380Y-54522571D01*
X189503380Y-54427333D01*
X189551000Y-54284476D01*
X189598619Y-54236857D01*
X189598619Y-53855904D02*
X189551000Y-53808285D01*
X189503380Y-53713047D01*
X189503380Y-53474952D01*
X189551000Y-53379714D01*
X189598619Y-53332095D01*
X189693857Y-53284476D01*
X189789095Y-53284476D01*
X189931952Y-53332095D01*
X190503380Y-53903523D01*
X190503380Y-53284476D01*
X189598619Y-52903523D02*
X189551000Y-52855904D01*
X189503380Y-52760666D01*
X189503380Y-52522571D01*
X189551000Y-52427333D01*
X189598619Y-52379714D01*
X189693857Y-52332095D01*
X189789095Y-52332095D01*
X189931952Y-52379714D01*
X190503380Y-52951142D01*
X190503380Y-52332095D01*
%TO.C,C21*%
X198028142Y-54236857D02*
X198075761Y-54284476D01*
X198123380Y-54427333D01*
X198123380Y-54522571D01*
X198075761Y-54665428D01*
X197980523Y-54760666D01*
X197885285Y-54808285D01*
X197694809Y-54855904D01*
X197551952Y-54855904D01*
X197361476Y-54808285D01*
X197266238Y-54760666D01*
X197171000Y-54665428D01*
X197123380Y-54522571D01*
X197123380Y-54427333D01*
X197171000Y-54284476D01*
X197218619Y-54236857D01*
X197218619Y-53855904D02*
X197171000Y-53808285D01*
X197123380Y-53713047D01*
X197123380Y-53474952D01*
X197171000Y-53379714D01*
X197218619Y-53332095D01*
X197313857Y-53284476D01*
X197409095Y-53284476D01*
X197551952Y-53332095D01*
X198123380Y-53903523D01*
X198123380Y-53284476D01*
X198123380Y-52332095D02*
X198123380Y-52903523D01*
X198123380Y-52617809D02*
X197123380Y-52617809D01*
X197266238Y-52713047D01*
X197361476Y-52808285D01*
X197409095Y-52903523D01*
%TO.C,U20*%
X125388619Y-136302904D02*
X124579095Y-136302904D01*
X124483857Y-136350523D01*
X124436238Y-136398142D01*
X124388619Y-136493380D01*
X124388619Y-136683857D01*
X124436238Y-136779095D01*
X124483857Y-136826714D01*
X124579095Y-136874333D01*
X125388619Y-136874333D01*
X125293380Y-137302904D02*
X125341000Y-137350523D01*
X125388619Y-137445761D01*
X125388619Y-137683857D01*
X125341000Y-137779095D01*
X125293380Y-137826714D01*
X125198142Y-137874333D01*
X125102904Y-137874333D01*
X124960047Y-137826714D01*
X124388619Y-137255285D01*
X124388619Y-137874333D01*
X125388619Y-138493380D02*
X125388619Y-138588619D01*
X125341000Y-138683857D01*
X125293380Y-138731476D01*
X125198142Y-138779095D01*
X125007666Y-138826714D01*
X124769571Y-138826714D01*
X124579095Y-138779095D01*
X124483857Y-138731476D01*
X124436238Y-138683857D01*
X124388619Y-138588619D01*
X124388619Y-138493380D01*
X124436238Y-138398142D01*
X124483857Y-138350523D01*
X124579095Y-138302904D01*
X124769571Y-138255285D01*
X125007666Y-138255285D01*
X125198142Y-138302904D01*
X125293380Y-138350523D01*
X125341000Y-138398142D01*
X125388619Y-138493380D01*
%TO.C,C17*%
X182788142Y-54236857D02*
X182835761Y-54284476D01*
X182883380Y-54427333D01*
X182883380Y-54522571D01*
X182835761Y-54665428D01*
X182740523Y-54760666D01*
X182645285Y-54808285D01*
X182454809Y-54855904D01*
X182311952Y-54855904D01*
X182121476Y-54808285D01*
X182026238Y-54760666D01*
X181931000Y-54665428D01*
X181883380Y-54522571D01*
X181883380Y-54427333D01*
X181931000Y-54284476D01*
X181978619Y-54236857D01*
X182883380Y-53284476D02*
X182883380Y-53855904D01*
X182883380Y-53570190D02*
X181883380Y-53570190D01*
X182026238Y-53665428D01*
X182121476Y-53760666D01*
X182169095Y-53855904D01*
X181883380Y-52951142D02*
X181883380Y-52284476D01*
X182883380Y-52713047D01*
%TO.C,C24*%
X120274142Y-60713857D02*
X120321761Y-60761476D01*
X120369380Y-60904333D01*
X120369380Y-60999571D01*
X120321761Y-61142428D01*
X120226523Y-61237666D01*
X120131285Y-61285285D01*
X119940809Y-61332904D01*
X119797952Y-61332904D01*
X119607476Y-61285285D01*
X119512238Y-61237666D01*
X119417000Y-61142428D01*
X119369380Y-60999571D01*
X119369380Y-60904333D01*
X119417000Y-60761476D01*
X119464619Y-60713857D01*
X119464619Y-60332904D02*
X119417000Y-60285285D01*
X119369380Y-60190047D01*
X119369380Y-59951952D01*
X119417000Y-59856714D01*
X119464619Y-59809095D01*
X119559857Y-59761476D01*
X119655095Y-59761476D01*
X119797952Y-59809095D01*
X120369380Y-60380523D01*
X120369380Y-59761476D01*
X119702714Y-58904333D02*
X120369380Y-58904333D01*
X119321761Y-59142428D02*
X120036047Y-59380523D01*
X120036047Y-58761476D01*
%TO.C,R7*%
X185931380Y-54268666D02*
X185455190Y-54602000D01*
X185931380Y-54840095D02*
X184931380Y-54840095D01*
X184931380Y-54459142D01*
X184979000Y-54363904D01*
X185026619Y-54316285D01*
X185121857Y-54268666D01*
X185264714Y-54268666D01*
X185359952Y-54316285D01*
X185407571Y-54363904D01*
X185455190Y-54459142D01*
X185455190Y-54840095D01*
X184931380Y-53935333D02*
X184931380Y-53268666D01*
X185931380Y-53697238D01*
%TO.C,C7*%
X110144142Y-65952666D02*
X110191761Y-66000285D01*
X110239380Y-66143142D01*
X110239380Y-66238380D01*
X110191761Y-66381238D01*
X110096523Y-66476476D01*
X110001285Y-66524095D01*
X109810809Y-66571714D01*
X109667952Y-66571714D01*
X109477476Y-66524095D01*
X109382238Y-66476476D01*
X109287000Y-66381238D01*
X109239380Y-66238380D01*
X109239380Y-66143142D01*
X109287000Y-66000285D01*
X109334619Y-65952666D01*
X109239380Y-65619333D02*
X109239380Y-64952666D01*
X110239380Y-65381238D01*
%TO.C,C3*%
X116748142Y-65952666D02*
X116795761Y-66000285D01*
X116843380Y-66143142D01*
X116843380Y-66238380D01*
X116795761Y-66381238D01*
X116700523Y-66476476D01*
X116605285Y-66524095D01*
X116414809Y-66571714D01*
X116271952Y-66571714D01*
X116081476Y-66524095D01*
X115986238Y-66476476D01*
X115891000Y-66381238D01*
X115843380Y-66238380D01*
X115843380Y-66143142D01*
X115891000Y-66000285D01*
X115938619Y-65952666D01*
X115843380Y-65619333D02*
X115843380Y-65000285D01*
X116224333Y-65333619D01*
X116224333Y-65190761D01*
X116271952Y-65095523D01*
X116319571Y-65047904D01*
X116414809Y-65000285D01*
X116652904Y-65000285D01*
X116748142Y-65047904D01*
X116795761Y-65095523D01*
X116843380Y-65190761D01*
X116843380Y-65476476D01*
X116795761Y-65571714D01*
X116748142Y-65619333D01*
%TO.C,SW1*%
X115887666Y-80795761D02*
X116030523Y-80843380D01*
X116268619Y-80843380D01*
X116363857Y-80795761D01*
X116411476Y-80748142D01*
X116459095Y-80652904D01*
X116459095Y-80557666D01*
X116411476Y-80462428D01*
X116363857Y-80414809D01*
X116268619Y-80367190D01*
X116078142Y-80319571D01*
X115982904Y-80271952D01*
X115935285Y-80224333D01*
X115887666Y-80129095D01*
X115887666Y-80033857D01*
X115935285Y-79938619D01*
X115982904Y-79891000D01*
X116078142Y-79843380D01*
X116316238Y-79843380D01*
X116459095Y-79891000D01*
X116792428Y-79843380D02*
X117030523Y-80843380D01*
X117221000Y-80129095D01*
X117411476Y-80843380D01*
X117649571Y-79843380D01*
X118554333Y-80843380D02*
X117982904Y-80843380D01*
X118268619Y-80843380D02*
X118268619Y-79843380D01*
X118173380Y-79986238D01*
X118078142Y-80081476D01*
X117982904Y-80129095D01*
%TO.C,R8*%
X197616380Y-61277166D02*
X197140190Y-61610500D01*
X197616380Y-61848595D02*
X196616380Y-61848595D01*
X196616380Y-61467642D01*
X196664000Y-61372404D01*
X196711619Y-61324785D01*
X196806857Y-61277166D01*
X196949714Y-61277166D01*
X197044952Y-61324785D01*
X197092571Y-61372404D01*
X197140190Y-61467642D01*
X197140190Y-61848595D01*
X197044952Y-60705738D02*
X196997333Y-60800976D01*
X196949714Y-60848595D01*
X196854476Y-60896214D01*
X196806857Y-60896214D01*
X196711619Y-60848595D01*
X196664000Y-60800976D01*
X196616380Y-60705738D01*
X196616380Y-60515261D01*
X196664000Y-60420023D01*
X196711619Y-60372404D01*
X196806857Y-60324785D01*
X196854476Y-60324785D01*
X196949714Y-60372404D01*
X196997333Y-60420023D01*
X197044952Y-60515261D01*
X197044952Y-60705738D01*
X197092571Y-60800976D01*
X197140190Y-60848595D01*
X197235428Y-60896214D01*
X197425904Y-60896214D01*
X197521142Y-60848595D01*
X197568761Y-60800976D01*
X197616380Y-60705738D01*
X197616380Y-60515261D01*
X197568761Y-60420023D01*
X197521142Y-60372404D01*
X197425904Y-60324785D01*
X197235428Y-60324785D01*
X197140190Y-60372404D01*
X197092571Y-60420023D01*
X197044952Y-60515261D01*
%TO.C,C26*%
X115964642Y-124719142D02*
X115917023Y-124766761D01*
X115774166Y-124814380D01*
X115678928Y-124814380D01*
X115536071Y-124766761D01*
X115440833Y-124671523D01*
X115393214Y-124576285D01*
X115345595Y-124385809D01*
X115345595Y-124242952D01*
X115393214Y-124052476D01*
X115440833Y-123957238D01*
X115536071Y-123862000D01*
X115678928Y-123814380D01*
X115774166Y-123814380D01*
X115917023Y-123862000D01*
X115964642Y-123909619D01*
X116345595Y-123909619D02*
X116393214Y-123862000D01*
X116488452Y-123814380D01*
X116726547Y-123814380D01*
X116821785Y-123862000D01*
X116869404Y-123909619D01*
X116917023Y-124004857D01*
X116917023Y-124100095D01*
X116869404Y-124242952D01*
X116297976Y-124814380D01*
X116917023Y-124814380D01*
X117774166Y-123814380D02*
X117583690Y-123814380D01*
X117488452Y-123862000D01*
X117440833Y-123909619D01*
X117345595Y-124052476D01*
X117297976Y-124242952D01*
X117297976Y-124623904D01*
X117345595Y-124719142D01*
X117393214Y-124766761D01*
X117488452Y-124814380D01*
X117678928Y-124814380D01*
X117774166Y-124766761D01*
X117821785Y-124719142D01*
X117869404Y-124623904D01*
X117869404Y-124385809D01*
X117821785Y-124290571D01*
X117774166Y-124242952D01*
X117678928Y-124195333D01*
X117488452Y-124195333D01*
X117393214Y-124242952D01*
X117345595Y-124290571D01*
X117297976Y-124385809D01*
%TO.C,C5*%
X113446142Y-65952666D02*
X113493761Y-66000285D01*
X113541380Y-66143142D01*
X113541380Y-66238380D01*
X113493761Y-66381238D01*
X113398523Y-66476476D01*
X113303285Y-66524095D01*
X113112809Y-66571714D01*
X112969952Y-66571714D01*
X112779476Y-66524095D01*
X112684238Y-66476476D01*
X112589000Y-66381238D01*
X112541380Y-66238380D01*
X112541380Y-66143142D01*
X112589000Y-66000285D01*
X112636619Y-65952666D01*
X112541380Y-65047904D02*
X112541380Y-65524095D01*
X113017571Y-65571714D01*
X112969952Y-65524095D01*
X112922333Y-65428857D01*
X112922333Y-65190761D01*
X112969952Y-65095523D01*
X113017571Y-65047904D01*
X113112809Y-65000285D01*
X113350904Y-65000285D01*
X113446142Y-65047904D01*
X113493761Y-65095523D01*
X113541380Y-65190761D01*
X113541380Y-65428857D01*
X113493761Y-65524095D01*
X113446142Y-65571714D01*
%TO.C,BT1*%
X165135285Y-107608571D02*
X165278142Y-107656190D01*
X165325761Y-107703809D01*
X165373380Y-107799047D01*
X165373380Y-107941904D01*
X165325761Y-108037142D01*
X165278142Y-108084761D01*
X165182904Y-108132380D01*
X164801952Y-108132380D01*
X164801952Y-107132380D01*
X165135285Y-107132380D01*
X165230523Y-107180000D01*
X165278142Y-107227619D01*
X165325761Y-107322857D01*
X165325761Y-107418095D01*
X165278142Y-107513333D01*
X165230523Y-107560952D01*
X165135285Y-107608571D01*
X164801952Y-107608571D01*
X165659095Y-107132380D02*
X166230523Y-107132380D01*
X165944809Y-108132380D02*
X165944809Y-107132380D01*
X167087666Y-108132380D02*
X166516238Y-108132380D01*
X166801952Y-108132380D02*
X166801952Y-107132380D01*
X166706714Y-107275238D01*
X166611476Y-107370476D01*
X166516238Y-107418095D01*
%TO.C,R12*%
X116275380Y-108823357D02*
X115799190Y-109156690D01*
X116275380Y-109394785D02*
X115275380Y-109394785D01*
X115275380Y-109013833D01*
X115323000Y-108918595D01*
X115370619Y-108870976D01*
X115465857Y-108823357D01*
X115608714Y-108823357D01*
X115703952Y-108870976D01*
X115751571Y-108918595D01*
X115799190Y-109013833D01*
X115799190Y-109394785D01*
X116275380Y-107870976D02*
X116275380Y-108442404D01*
X116275380Y-108156690D02*
X115275380Y-108156690D01*
X115418238Y-108251928D01*
X115513476Y-108347166D01*
X115561095Y-108442404D01*
X115370619Y-107490023D02*
X115323000Y-107442404D01*
X115275380Y-107347166D01*
X115275380Y-107109071D01*
X115323000Y-107013833D01*
X115370619Y-106966214D01*
X115465857Y-106918595D01*
X115561095Y-106918595D01*
X115703952Y-106966214D01*
X116275380Y-107537642D01*
X116275380Y-106918595D01*
%TO.C,BT2*%
X165203285Y-129452571D02*
X165346142Y-129500190D01*
X165393761Y-129547809D01*
X165441380Y-129643047D01*
X165441380Y-129785904D01*
X165393761Y-129881142D01*
X165346142Y-129928761D01*
X165250904Y-129976380D01*
X164869952Y-129976380D01*
X164869952Y-128976380D01*
X165203285Y-128976380D01*
X165298523Y-129024000D01*
X165346142Y-129071619D01*
X165393761Y-129166857D01*
X165393761Y-129262095D01*
X165346142Y-129357333D01*
X165298523Y-129404952D01*
X165203285Y-129452571D01*
X164869952Y-129452571D01*
X165727095Y-128976380D02*
X166298523Y-128976380D01*
X166012809Y-129976380D02*
X166012809Y-128976380D01*
X166584238Y-129071619D02*
X166631857Y-129024000D01*
X166727095Y-128976380D01*
X166965190Y-128976380D01*
X167060428Y-129024000D01*
X167108047Y-129071619D01*
X167155666Y-129166857D01*
X167155666Y-129262095D01*
X167108047Y-129404952D01*
X166536619Y-129976380D01*
X167155666Y-129976380D01*
%TO.C,C25*%
X123703142Y-60713857D02*
X123750761Y-60761476D01*
X123798380Y-60904333D01*
X123798380Y-60999571D01*
X123750761Y-61142428D01*
X123655523Y-61237666D01*
X123560285Y-61285285D01*
X123369809Y-61332904D01*
X123226952Y-61332904D01*
X123036476Y-61285285D01*
X122941238Y-61237666D01*
X122846000Y-61142428D01*
X122798380Y-60999571D01*
X122798380Y-60904333D01*
X122846000Y-60761476D01*
X122893619Y-60713857D01*
X122893619Y-60332904D02*
X122846000Y-60285285D01*
X122798380Y-60190047D01*
X122798380Y-59951952D01*
X122846000Y-59856714D01*
X122893619Y-59809095D01*
X122988857Y-59761476D01*
X123084095Y-59761476D01*
X123226952Y-59809095D01*
X123798380Y-60380523D01*
X123798380Y-59761476D01*
X122798380Y-58856714D02*
X122798380Y-59332904D01*
X123274571Y-59380523D01*
X123226952Y-59332904D01*
X123179333Y-59237666D01*
X123179333Y-58999571D01*
X123226952Y-58904333D01*
X123274571Y-58856714D01*
X123369809Y-58809095D01*
X123607904Y-58809095D01*
X123703142Y-58856714D01*
X123750761Y-58904333D01*
X123798380Y-58999571D01*
X123798380Y-59237666D01*
X123750761Y-59332904D01*
X123703142Y-59380523D01*
%TO.C,JP1*%
X121765666Y-65978380D02*
X121765666Y-66692666D01*
X121718047Y-66835523D01*
X121622809Y-66930761D01*
X121479952Y-66978380D01*
X121384714Y-66978380D01*
X122241857Y-66978380D02*
X122241857Y-65978380D01*
X122622809Y-65978380D01*
X122718047Y-66026000D01*
X122765666Y-66073619D01*
X122813285Y-66168857D01*
X122813285Y-66311714D01*
X122765666Y-66406952D01*
X122718047Y-66454571D01*
X122622809Y-66502190D01*
X122241857Y-66502190D01*
X123765666Y-66978380D02*
X123194238Y-66978380D01*
X123479952Y-66978380D02*
X123479952Y-65978380D01*
X123384714Y-66121238D01*
X123289476Y-66216476D01*
X123194238Y-66264095D01*
%TO.C,R1*%
X123844333Y-72842380D02*
X123511000Y-72366190D01*
X123272904Y-72842380D02*
X123272904Y-71842380D01*
X123653857Y-71842380D01*
X123749095Y-71890000D01*
X123796714Y-71937619D01*
X123844333Y-72032857D01*
X123844333Y-72175714D01*
X123796714Y-72270952D01*
X123749095Y-72318571D01*
X123653857Y-72366190D01*
X123272904Y-72366190D01*
X124796714Y-72842380D02*
X124225285Y-72842380D01*
X124511000Y-72842380D02*
X124511000Y-71842380D01*
X124415761Y-71985238D01*
X124320523Y-72080476D01*
X124225285Y-72128095D01*
%TO.C,C9*%
X195234142Y-83732666D02*
X195281761Y-83780285D01*
X195329380Y-83923142D01*
X195329380Y-84018380D01*
X195281761Y-84161238D01*
X195186523Y-84256476D01*
X195091285Y-84304095D01*
X194900809Y-84351714D01*
X194757952Y-84351714D01*
X194567476Y-84304095D01*
X194472238Y-84256476D01*
X194377000Y-84161238D01*
X194329380Y-84018380D01*
X194329380Y-83923142D01*
X194377000Y-83780285D01*
X194424619Y-83732666D01*
X195329380Y-83256476D02*
X195329380Y-83066000D01*
X195281761Y-82970761D01*
X195234142Y-82923142D01*
X195091285Y-82827904D01*
X194900809Y-82780285D01*
X194519857Y-82780285D01*
X194424619Y-82827904D01*
X194377000Y-82875523D01*
X194329380Y-82970761D01*
X194329380Y-83161238D01*
X194377000Y-83256476D01*
X194424619Y-83304095D01*
X194519857Y-83351714D01*
X194757952Y-83351714D01*
X194853190Y-83304095D01*
X194900809Y-83256476D01*
X194948428Y-83161238D01*
X194948428Y-82970761D01*
X194900809Y-82875523D01*
X194853190Y-82827904D01*
X194757952Y-82780285D01*
%TO.C,R6*%
X182376380Y-61277166D02*
X181900190Y-61610500D01*
X182376380Y-61848595D02*
X181376380Y-61848595D01*
X181376380Y-61467642D01*
X181424000Y-61372404D01*
X181471619Y-61324785D01*
X181566857Y-61277166D01*
X181709714Y-61277166D01*
X181804952Y-61324785D01*
X181852571Y-61372404D01*
X181900190Y-61467642D01*
X181900190Y-61848595D01*
X181376380Y-60420023D02*
X181376380Y-60610500D01*
X181424000Y-60705738D01*
X181471619Y-60753357D01*
X181614476Y-60848595D01*
X181804952Y-60896214D01*
X182185904Y-60896214D01*
X182281142Y-60848595D01*
X182328761Y-60800976D01*
X182376380Y-60705738D01*
X182376380Y-60515261D01*
X182328761Y-60420023D01*
X182281142Y-60372404D01*
X182185904Y-60324785D01*
X181947809Y-60324785D01*
X181852571Y-60372404D01*
X181804952Y-60420023D01*
X181757333Y-60515261D01*
X181757333Y-60705738D01*
X181804952Y-60800976D01*
X181852571Y-60848595D01*
X181947809Y-60896214D01*
%TO.C,J6*%
X177081380Y-143081333D02*
X177795666Y-143081333D01*
X177938523Y-143128952D01*
X178033761Y-143224190D01*
X178081380Y-143367047D01*
X178081380Y-143462285D01*
X177081380Y-142176571D02*
X177081380Y-142367047D01*
X177129000Y-142462285D01*
X177176619Y-142509904D01*
X177319476Y-142605142D01*
X177509952Y-142652761D01*
X177890904Y-142652761D01*
X177986142Y-142605142D01*
X178033761Y-142557523D01*
X178081380Y-142462285D01*
X178081380Y-142271809D01*
X178033761Y-142176571D01*
X177986142Y-142128952D01*
X177890904Y-142081333D01*
X177652809Y-142081333D01*
X177557571Y-142128952D01*
X177509952Y-142176571D01*
X177462333Y-142271809D01*
X177462333Y-142462285D01*
X177509952Y-142557523D01*
X177557571Y-142605142D01*
X177652809Y-142652761D01*
%TO.C,C6*%
X164246142Y-83732666D02*
X164293761Y-83780285D01*
X164341380Y-83923142D01*
X164341380Y-84018380D01*
X164293761Y-84161238D01*
X164198523Y-84256476D01*
X164103285Y-84304095D01*
X163912809Y-84351714D01*
X163769952Y-84351714D01*
X163579476Y-84304095D01*
X163484238Y-84256476D01*
X163389000Y-84161238D01*
X163341380Y-84018380D01*
X163341380Y-83923142D01*
X163389000Y-83780285D01*
X163436619Y-83732666D01*
X163341380Y-82875523D02*
X163341380Y-83066000D01*
X163389000Y-83161238D01*
X163436619Y-83208857D01*
X163579476Y-83304095D01*
X163769952Y-83351714D01*
X164150904Y-83351714D01*
X164246142Y-83304095D01*
X164293761Y-83256476D01*
X164341380Y-83161238D01*
X164341380Y-82970761D01*
X164293761Y-82875523D01*
X164246142Y-82827904D01*
X164150904Y-82780285D01*
X163912809Y-82780285D01*
X163817571Y-82827904D01*
X163769952Y-82875523D01*
X163722333Y-82970761D01*
X163722333Y-83161238D01*
X163769952Y-83256476D01*
X163817571Y-83304095D01*
X163912809Y-83351714D01*
%TO.C,SW2*%
X114704761Y-91122333D02*
X114752380Y-90979476D01*
X114752380Y-90741380D01*
X114704761Y-90646142D01*
X114657142Y-90598523D01*
X114561904Y-90550904D01*
X114466666Y-90550904D01*
X114371428Y-90598523D01*
X114323809Y-90646142D01*
X114276190Y-90741380D01*
X114228571Y-90931857D01*
X114180952Y-91027095D01*
X114133333Y-91074714D01*
X114038095Y-91122333D01*
X113942857Y-91122333D01*
X113847619Y-91074714D01*
X113800000Y-91027095D01*
X113752380Y-90931857D01*
X113752380Y-90693761D01*
X113800000Y-90550904D01*
X113752380Y-90217571D02*
X114752380Y-89979476D01*
X114038095Y-89789000D01*
X114752380Y-89598523D01*
X113752380Y-89360428D01*
X113847619Y-89027095D02*
X113800000Y-88979476D01*
X113752380Y-88884238D01*
X113752380Y-88646142D01*
X113800000Y-88550904D01*
X113847619Y-88503285D01*
X113942857Y-88455666D01*
X114038095Y-88455666D01*
X114180952Y-88503285D01*
X114752380Y-89074714D01*
X114752380Y-88455666D01*
%TO.C,C2*%
X119699833Y-101449142D02*
X119652214Y-101496761D01*
X119509357Y-101544380D01*
X119414119Y-101544380D01*
X119271261Y-101496761D01*
X119176023Y-101401523D01*
X119128404Y-101306285D01*
X119080785Y-101115809D01*
X119080785Y-100972952D01*
X119128404Y-100782476D01*
X119176023Y-100687238D01*
X119271261Y-100592000D01*
X119414119Y-100544380D01*
X119509357Y-100544380D01*
X119652214Y-100592000D01*
X119699833Y-100639619D01*
X120080785Y-100639619D02*
X120128404Y-100592000D01*
X120223642Y-100544380D01*
X120461738Y-100544380D01*
X120556976Y-100592000D01*
X120604595Y-100639619D01*
X120652214Y-100734857D01*
X120652214Y-100830095D01*
X120604595Y-100972952D01*
X120033166Y-101544380D01*
X120652214Y-101544380D01*
%TO.C,U3*%
X201989095Y-76930380D02*
X201989095Y-77739904D01*
X202036714Y-77835142D01*
X202084333Y-77882761D01*
X202179571Y-77930380D01*
X202370047Y-77930380D01*
X202465285Y-77882761D01*
X202512904Y-77835142D01*
X202560523Y-77739904D01*
X202560523Y-76930380D01*
X202941476Y-76930380D02*
X203560523Y-76930380D01*
X203227190Y-77311333D01*
X203370047Y-77311333D01*
X203465285Y-77358952D01*
X203512904Y-77406571D01*
X203560523Y-77501809D01*
X203560523Y-77739904D01*
X203512904Y-77835142D01*
X203465285Y-77882761D01*
X203370047Y-77930380D01*
X203084333Y-77930380D01*
X202989095Y-77882761D01*
X202941476Y-77835142D01*
%TO.C,U2*%
X176589095Y-77176380D02*
X176589095Y-77985904D01*
X176636714Y-78081142D01*
X176684333Y-78128761D01*
X176779571Y-78176380D01*
X176970047Y-78176380D01*
X177065285Y-78128761D01*
X177112904Y-78081142D01*
X177160523Y-77985904D01*
X177160523Y-77176380D01*
X177589095Y-77271619D02*
X177636714Y-77224000D01*
X177731952Y-77176380D01*
X177970047Y-77176380D01*
X178065285Y-77224000D01*
X178112904Y-77271619D01*
X178160523Y-77366857D01*
X178160523Y-77462095D01*
X178112904Y-77604952D01*
X177541476Y-78176380D01*
X178160523Y-78176380D01*
%TO.C,JP5*%
X121795666Y-80456380D02*
X121795666Y-81170666D01*
X121748047Y-81313523D01*
X121652809Y-81408761D01*
X121509952Y-81456380D01*
X121414714Y-81456380D01*
X122271857Y-81456380D02*
X122271857Y-80456380D01*
X122652809Y-80456380D01*
X122748047Y-80504000D01*
X122795666Y-80551619D01*
X122843285Y-80646857D01*
X122843285Y-80789714D01*
X122795666Y-80884952D01*
X122748047Y-80932571D01*
X122652809Y-80980190D01*
X122271857Y-80980190D01*
X123748047Y-80456380D02*
X123271857Y-80456380D01*
X123224238Y-80932571D01*
X123271857Y-80884952D01*
X123367095Y-80837333D01*
X123605190Y-80837333D01*
X123700428Y-80884952D01*
X123748047Y-80932571D01*
X123795666Y-81027809D01*
X123795666Y-81265904D01*
X123748047Y-81361142D01*
X123700428Y-81408761D01*
X123605190Y-81456380D01*
X123367095Y-81456380D01*
X123271857Y-81408761D01*
X123224238Y-81361142D01*
%TO.C,R2*%
X123844333Y-75890380D02*
X123511000Y-75414190D01*
X123272904Y-75890380D02*
X123272904Y-74890380D01*
X123653857Y-74890380D01*
X123749095Y-74938000D01*
X123796714Y-74985619D01*
X123844333Y-75080857D01*
X123844333Y-75223714D01*
X123796714Y-75318952D01*
X123749095Y-75366571D01*
X123653857Y-75414190D01*
X123272904Y-75414190D01*
X124225285Y-74985619D02*
X124272904Y-74938000D01*
X124368142Y-74890380D01*
X124606238Y-74890380D01*
X124701476Y-74938000D01*
X124749095Y-74985619D01*
X124796714Y-75080857D01*
X124796714Y-75176095D01*
X124749095Y-75318952D01*
X124177666Y-75890380D01*
X124796714Y-75890380D01*
%TO.C,U1*%
X125515619Y-112649095D02*
X124706095Y-112649095D01*
X124610857Y-112696714D01*
X124563238Y-112744333D01*
X124515619Y-112839571D01*
X124515619Y-113030047D01*
X124563238Y-113125285D01*
X124610857Y-113172904D01*
X124706095Y-113220523D01*
X125515619Y-113220523D01*
X124515619Y-114220523D02*
X124515619Y-113649095D01*
X124515619Y-113934809D02*
X125515619Y-113934809D01*
X125372761Y-113839571D01*
X125277523Y-113744333D01*
X125229904Y-113649095D01*
%TO.C,J25*%
X111906380Y-57578523D02*
X112620666Y-57578523D01*
X112763523Y-57626142D01*
X112858761Y-57721380D01*
X112906380Y-57864238D01*
X112906380Y-57959476D01*
X112001619Y-57149952D02*
X111954000Y-57102333D01*
X111906380Y-57007095D01*
X111906380Y-56769000D01*
X111954000Y-56673761D01*
X112001619Y-56626142D01*
X112096857Y-56578523D01*
X112192095Y-56578523D01*
X112334952Y-56626142D01*
X112906380Y-57197571D01*
X112906380Y-56578523D01*
X111906380Y-55673761D02*
X111906380Y-56149952D01*
X112382571Y-56197571D01*
X112334952Y-56149952D01*
X112287333Y-56054714D01*
X112287333Y-55816619D01*
X112334952Y-55721380D01*
X112382571Y-55673761D01*
X112477809Y-55626142D01*
X112715904Y-55626142D01*
X112811142Y-55673761D01*
X112858761Y-55721380D01*
X112906380Y-55816619D01*
X112906380Y-56054714D01*
X112858761Y-56149952D01*
X112811142Y-56197571D01*
%TO.C,C8*%
X192186142Y-83732666D02*
X192233761Y-83780285D01*
X192281380Y-83923142D01*
X192281380Y-84018380D01*
X192233761Y-84161238D01*
X192138523Y-84256476D01*
X192043285Y-84304095D01*
X191852809Y-84351714D01*
X191709952Y-84351714D01*
X191519476Y-84304095D01*
X191424238Y-84256476D01*
X191329000Y-84161238D01*
X191281380Y-84018380D01*
X191281380Y-83923142D01*
X191329000Y-83780285D01*
X191376619Y-83732666D01*
X191709952Y-83161238D02*
X191662333Y-83256476D01*
X191614714Y-83304095D01*
X191519476Y-83351714D01*
X191471857Y-83351714D01*
X191376619Y-83304095D01*
X191329000Y-83256476D01*
X191281380Y-83161238D01*
X191281380Y-82970761D01*
X191329000Y-82875523D01*
X191376619Y-82827904D01*
X191471857Y-82780285D01*
X191519476Y-82780285D01*
X191614714Y-82827904D01*
X191662333Y-82875523D01*
X191709952Y-82970761D01*
X191709952Y-83161238D01*
X191757571Y-83256476D01*
X191805190Y-83304095D01*
X191900428Y-83351714D01*
X192090904Y-83351714D01*
X192186142Y-83304095D01*
X192233761Y-83256476D01*
X192281380Y-83161238D01*
X192281380Y-82970761D01*
X192233761Y-82875523D01*
X192186142Y-82827904D01*
X192090904Y-82780285D01*
X191900428Y-82780285D01*
X191805190Y-82827904D01*
X191757571Y-82875523D01*
X191709952Y-82970761D01*
D11*
%TO.C,JP2*%
X199149000Y-72006000D02*
X199749000Y-72006000D01*
X199749000Y-74806000D02*
X199149000Y-74806000D01*
X198449000Y-74106000D02*
X198449000Y-72706000D01*
X200449000Y-72706000D02*
X200449000Y-74106000D01*
X200449000Y-72706000D02*
G75*
G03*
X199749000Y-72006000I-699999J1D01*
G01*
X199149000Y-72006000D02*
G75*
G03*
X198449000Y-72706000I-1J-699999D01*
G01*
X198449000Y-74106000D02*
G75*
G03*
X199149000Y-74806000I700000J0D01*
G01*
X199749000Y-74806000D02*
G75*
G03*
X200449000Y-74106000I0J700000D01*
G01*
%TO.C,R9*%
X201454000Y-56972564D02*
X201454000Y-56518436D01*
X199984000Y-56972564D02*
X199984000Y-56518436D01*
%TO.C,C23*%
X116868752Y-126719000D02*
X116346248Y-126719000D01*
X116868752Y-125249000D02*
X116346248Y-125249000D01*
%TO.C,J4*%
X200779000Y-67818000D02*
X200779000Y-65218000D01*
X198119000Y-70418000D02*
X198119000Y-69088000D01*
X200779000Y-67818000D02*
X198119000Y-67818000D01*
X198119000Y-67818000D02*
X198119000Y-65218000D01*
X200779000Y-65218000D02*
X198119000Y-65218000D01*
X199449000Y-70418000D02*
X198119000Y-70418000D01*
%TO.C,C4*%
X167799000Y-86606748D02*
X167799000Y-87129252D01*
X166329000Y-86606748D02*
X166329000Y-87129252D01*
%TO.C,R11*%
X192364000Y-56892564D02*
X192364000Y-56438436D01*
X193834000Y-56892564D02*
X193834000Y-56438436D01*
%TO.C,R13*%
X120677000Y-107953436D02*
X120677000Y-108407564D01*
X122147000Y-107953436D02*
X122147000Y-108407564D01*
%TO.C,J1*%
X204589000Y-50098000D02*
X204589000Y-47438000D01*
X181669000Y-47438000D02*
X204589000Y-47438000D01*
X181669000Y-50098000D02*
X181669000Y-47438000D01*
X179069000Y-48768000D02*
X179069000Y-47438000D01*
X181669000Y-50098000D02*
X204589000Y-50098000D01*
X179069000Y-47438000D02*
X180399000Y-47438000D01*
%TO.C,U19*%
X112014000Y-52951000D02*
X113644000Y-52951000D01*
X113644000Y-52951000D02*
X113644000Y-54536000D01*
X113644000Y-54536000D02*
X112014000Y-54536000D01*
X112014000Y-54536000D02*
X112014000Y-52951000D01*
X112014000Y-52951000D02*
X134874000Y-52951000D01*
X134874000Y-52951000D02*
X134874000Y-68191000D01*
X134874000Y-68191000D02*
X112014000Y-68191000D01*
X112014000Y-68191000D02*
X112014000Y-52951000D01*
%TO.C,R10*%
X190459000Y-61337564D02*
X190459000Y-60883436D01*
X191929000Y-61337564D02*
X191929000Y-60883436D01*
%TO.C,R3*%
X121206064Y-79363000D02*
X120751936Y-79363000D01*
X121206064Y-77893000D02*
X120751936Y-77893000D01*
%TO.C,C1*%
X116741752Y-99033000D02*
X116219248Y-99033000D01*
X116741752Y-97563000D02*
X116219248Y-97563000D01*
%TO.C,J7*%
X133469000Y-144078000D02*
X133469000Y-141418000D01*
X107949000Y-141418000D02*
X109279000Y-141418000D01*
X107949000Y-142748000D02*
X107949000Y-141418000D01*
X110549000Y-144078000D02*
X110549000Y-141418000D01*
X110549000Y-144078000D02*
X133469000Y-144078000D01*
X110549000Y-141418000D02*
X133469000Y-141418000D01*
%TO.C,U9*%
X205291000Y-75184000D02*
X205291000Y-47244000D01*
X140521000Y-75184000D02*
X205291000Y-75184000D01*
X207831000Y-67564000D02*
X205291000Y-67564000D01*
X193861000Y-48514000D02*
X184971000Y-48514000D01*
X184971000Y-48514000D02*
X184971000Y-47244000D01*
X205291000Y-47244000D02*
X140521000Y-47244000D01*
X154491000Y-68834000D02*
X154491000Y-54864000D01*
X154491000Y-54864000D02*
X179891000Y-54864000D01*
X207831000Y-73914000D02*
X207831000Y-67564000D01*
X193861000Y-47244000D02*
X193861000Y-48514000D01*
X179891000Y-54864000D02*
X179891000Y-68834000D01*
X205291000Y-73914000D02*
X207831000Y-73914000D01*
X179891000Y-68834000D02*
X154491000Y-68834000D01*
X140521000Y-47244000D02*
X140521000Y-75184000D01*
%TO.C,J2*%
X110549000Y-47438000D02*
X133469000Y-47438000D01*
X110549000Y-50098000D02*
X110549000Y-47438000D01*
X107949000Y-48768000D02*
X107949000Y-47438000D01*
X133469000Y-50098000D02*
X133469000Y-47438000D01*
X107949000Y-47438000D02*
X109279000Y-47438000D01*
X110549000Y-50098000D02*
X133469000Y-50098000D01*
%TO.C,C22*%
X190659000Y-56964252D02*
X190659000Y-56441748D01*
X189189000Y-56964252D02*
X189189000Y-56441748D01*
%TO.C,C21*%
X196809000Y-57006752D02*
X196809000Y-56484248D01*
X198279000Y-57006752D02*
X198279000Y-56484248D01*
%TO.C,U20*%
X124079000Y-116078000D02*
X108839000Y-116078000D01*
X108839000Y-116078000D02*
X108839000Y-138938000D01*
X108839000Y-138938000D02*
X124079000Y-138938000D01*
X124079000Y-138938000D02*
X124079000Y-116078000D01*
X124079000Y-116078000D02*
X122494000Y-116078000D01*
X122494000Y-116078000D02*
X122494000Y-117708000D01*
X122494000Y-117708000D02*
X124079000Y-117708000D01*
X124079000Y-117708000D02*
X124079000Y-116078000D01*
%TO.C,C17*%
X181569000Y-56969252D02*
X181569000Y-56446748D01*
X183039000Y-56969252D02*
X183039000Y-56446748D01*
%TO.C,C24*%
X118972000Y-59809748D02*
X118972000Y-60332252D01*
X117502000Y-59809748D02*
X117502000Y-60332252D01*
%TO.C,R7*%
X186214000Y-56972564D02*
X186214000Y-56518436D01*
X184744000Y-56972564D02*
X184744000Y-56518436D01*
%TO.C,C7*%
X110649000Y-69131752D02*
X110649000Y-68609248D01*
X109179000Y-69131752D02*
X109179000Y-68609248D01*
%TO.C,C3*%
X116999000Y-69131752D02*
X116999000Y-68609248D01*
X115529000Y-69131752D02*
X115529000Y-68609248D01*
%TO.C,SW1*%
X115729000Y-79308000D02*
X115729000Y-71568000D01*
X110429000Y-79308000D02*
X112079000Y-79308000D01*
X115729000Y-71568000D02*
X110429000Y-71568000D01*
X114079000Y-79308000D02*
X115729000Y-79308000D01*
X110429000Y-71568000D02*
X110429000Y-79308000D01*
X114079000Y-79308000D02*
G75*
G03*
X112079000Y-79308000I-1000000J0D01*
G01*
%TO.C,R8*%
X199549000Y-61337564D02*
X199549000Y-60883436D01*
X198079000Y-61337564D02*
X198079000Y-60883436D01*
%TO.C,C26*%
X116868752Y-123417000D02*
X116346248Y-123417000D01*
X116868752Y-121947000D02*
X116346248Y-121947000D01*
%TO.C,C5*%
X113824000Y-69131752D02*
X113824000Y-68609248D01*
X112354000Y-69131752D02*
X112354000Y-68609248D01*
%TO.C,BT1*%
X204921000Y-116730000D02*
X126921000Y-116730000D01*
X126921000Y-96630000D02*
X204921000Y-96630000D01*
X204921000Y-96630000D02*
X204921000Y-116730000D01*
X126921000Y-116730000D02*
X126921000Y-96630000D01*
%TO.C,R12*%
X114908000Y-107953436D02*
X114908000Y-108407564D01*
X113438000Y-107953436D02*
X113438000Y-108407564D01*
%TO.C,BT2*%
X204989000Y-138574000D02*
X126989000Y-138574000D01*
X204989000Y-118474000D02*
X204989000Y-138574000D01*
X126989000Y-118474000D02*
X204989000Y-118474000D01*
X126989000Y-138574000D02*
X126989000Y-118474000D01*
%TO.C,C25*%
X120931000Y-59809748D02*
X120931000Y-60332252D01*
X122401000Y-59809748D02*
X122401000Y-60332252D01*
%TO.C,JP1*%
X123999000Y-69326000D02*
X121199000Y-69326000D01*
X121199000Y-69326000D02*
X121199000Y-67326000D01*
X123999000Y-67326000D02*
X123999000Y-69326000D01*
X121199000Y-67326000D02*
X123999000Y-67326000D01*
%TO.C,R1*%
X121206064Y-71543000D02*
X120751936Y-71543000D01*
X121206064Y-73013000D02*
X120751936Y-73013000D01*
%TO.C,C9*%
X194269000Y-86606748D02*
X194269000Y-87129252D01*
X195739000Y-86606748D02*
X195739000Y-87129252D01*
%TO.C,R6*%
X184309000Y-61337564D02*
X184309000Y-60883436D01*
X182839000Y-61337564D02*
X182839000Y-60883436D01*
%TO.C,J6*%
X179069000Y-141418000D02*
X180399000Y-141418000D01*
X179069000Y-142748000D02*
X179069000Y-141418000D01*
X181669000Y-144078000D02*
X181669000Y-141418000D01*
X181669000Y-141418000D02*
X204589000Y-141418000D01*
X204589000Y-144078000D02*
X204589000Y-141418000D01*
X181669000Y-144078000D02*
X204589000Y-144078000D01*
%TO.C,C6*%
X163154000Y-86606748D02*
X163154000Y-87129252D01*
X164624000Y-86606748D02*
X164624000Y-87129252D01*
%TO.C,SW2*%
X107827500Y-88225000D02*
X108327500Y-87725000D01*
X108527500Y-90135000D02*
X108527500Y-81315000D01*
X107827500Y-87225000D02*
X107827500Y-88225000D01*
X108837500Y-90135000D02*
X108527500Y-90135000D01*
X108527500Y-81315000D02*
X108837500Y-81315000D01*
X113047500Y-81315000D02*
X113047500Y-90135000D01*
X113047500Y-90135000D02*
X112737500Y-90135000D01*
X108327500Y-87725000D02*
X107827500Y-87225000D01*
X113047500Y-81315000D02*
X112737500Y-81315000D01*
%TO.C,C2*%
X116825752Y-100357000D02*
X116303248Y-100357000D01*
X116825752Y-101827000D02*
X116303248Y-101827000D01*
%TO.C,U3*%
X182304000Y-78613000D02*
X205164000Y-78613000D01*
X205164000Y-78613000D02*
X205164000Y-93853000D01*
X205164000Y-93853000D02*
X182304000Y-93853000D01*
X182304000Y-93853000D02*
X182304000Y-78613000D01*
X182304000Y-78613000D02*
X183934000Y-78613000D01*
X183934000Y-78613000D02*
X183934000Y-80198000D01*
X183934000Y-80198000D02*
X182304000Y-80198000D01*
X182304000Y-80198000D02*
X182304000Y-78613000D01*
%TO.C,U2*%
X156904000Y-78613000D02*
X179764000Y-78613000D01*
X179764000Y-78613000D02*
X179764000Y-93853000D01*
X179764000Y-93853000D02*
X156904000Y-93853000D01*
X156904000Y-93853000D02*
X156904000Y-78613000D01*
X156904000Y-78613000D02*
X158534000Y-78613000D01*
X158534000Y-78613000D02*
X158534000Y-80198000D01*
X158534000Y-80198000D02*
X156904000Y-80198000D01*
X156904000Y-80198000D02*
X156904000Y-78613000D01*
%TO.C,JP5*%
X124029000Y-83804000D02*
X121229000Y-83804000D01*
X121229000Y-83804000D02*
X121229000Y-81804000D01*
X121229000Y-81804000D02*
X124029000Y-81804000D01*
X124029000Y-81804000D02*
X124029000Y-83804000D01*
%TO.C,R2*%
X121206064Y-76188000D02*
X120751936Y-76188000D01*
X121206064Y-74718000D02*
X120751936Y-74718000D01*
%TO.C,U1*%
X124087000Y-91440000D02*
X108847000Y-91440000D01*
X108847000Y-91440000D02*
X108847000Y-114300000D01*
X108847000Y-114300000D02*
X124087000Y-114300000D01*
X124087000Y-114300000D02*
X124087000Y-91440000D01*
X124087000Y-91440000D02*
X122502000Y-91440000D01*
X122502000Y-91440000D02*
X122502000Y-93070000D01*
X122502000Y-93070000D02*
X124087000Y-93070000D01*
X124087000Y-93070000D02*
X124087000Y-91440000D01*
%TO.C,J25*%
X108584000Y-63941000D02*
X111244000Y-63941000D01*
X109914000Y-53661000D02*
X111244000Y-53661000D01*
X111244000Y-53661000D02*
X111244000Y-54991000D01*
X108584000Y-56261000D02*
X108584000Y-63941000D01*
X108584000Y-56261000D02*
X111244000Y-56261000D01*
X111244000Y-56261000D02*
X111244000Y-63941000D01*
%TO.C,C8*%
X191094000Y-86606748D02*
X191094000Y-87129252D01*
X192564000Y-86606748D02*
X192564000Y-87129252D01*
%TD*%
M02*
