%TF.GenerationSoftware,KiCad,Pcbnew,6.0.7-f9a2dced07~116~ubuntu20.04.1*%
%TF.CreationDate,2022-10-31T14:41:35+01:00*%
%TF.ProjectId,av_citynode_hw,61765f63-6974-4796-9e6f-64655f68772e,rev?*%
%TF.SameCoordinates,Original*%
%TF.FileFunction,Soldermask,Top*%
%TF.FilePolarity,Negative*%
%FSLAX46Y46*%
G04 Gerber Fmt 4.6, Leading zero omitted, Abs format (unit mm)*
G04 Created by KiCad (PCBNEW 6.0.7-f9a2dced07~116~ubuntu20.04.1) date 2022-10-31 14:41:35*
%MOMM*%
%LPD*%
G01*
G04 APERTURE LIST*
G04 Aperture macros list*
%AMRoundRect*
0 Rectangle with rounded corners*
0 $1 Rounding radius*
0 $2 $3 $4 $5 $6 $7 $8 $9 X,Y pos of 4 corners*
0 Add a 4 corners polygon primitive as box body*
4,1,4,$2,$3,$4,$5,$6,$7,$8,$9,$2,$3,0*
0 Add four circle primitives for the rounded corners*
1,1,$1+$1,$2,$3*
1,1,$1+$1,$4,$5*
1,1,$1+$1,$6,$7*
1,1,$1+$1,$8,$9*
0 Add four rect primitives between the rounded corners*
20,1,$1+$1,$2,$3,$4,$5,0*
20,1,$1+$1,$4,$5,$6,$7,0*
20,1,$1+$1,$6,$7,$8,$9,0*
20,1,$1+$1,$8,$9,$2,$3,0*%
%AMFreePoly0*
4,1,22,0.500000,-0.750000,0.000000,-0.750000,0.000000,-0.745033,-0.079941,-0.743568,-0.215256,-0.701293,-0.333266,-0.622738,-0.424486,-0.514219,-0.481581,-0.384460,-0.499164,-0.250000,-0.500000,-0.250000,-0.500000,0.250000,-0.499164,0.250000,-0.499963,0.256109,-0.478152,0.396186,-0.417904,0.524511,-0.324060,0.630769,-0.204165,0.706417,-0.067858,0.745374,0.000000,0.744959,0.000000,0.750000,
0.500000,0.750000,0.500000,-0.750000,0.500000,-0.750000,$1*%
%AMFreePoly1*
4,1,20,0.000000,0.744959,0.073905,0.744508,0.209726,0.703889,0.328688,0.626782,0.421226,0.519385,0.479903,0.390333,0.500000,0.250000,0.500000,-0.250000,0.499851,-0.262216,0.476331,-0.402017,0.414519,-0.529596,0.319384,-0.634700,0.198574,-0.708877,0.061801,-0.746166,0.000000,-0.745033,0.000000,-0.750000,-0.500000,-0.750000,-0.500000,0.750000,0.000000,0.750000,0.000000,0.744959,
0.000000,0.744959,$1*%
G04 Aperture macros list end*
%ADD10FreePoly0,270.000000*%
%ADD11FreePoly1,270.000000*%
%ADD12RoundRect,0.250000X0.450000X-0.262500X0.450000X0.262500X-0.450000X0.262500X-0.450000X-0.262500X0*%
%ADD13RoundRect,0.250000X0.337500X0.475000X-0.337500X0.475000X-0.337500X-0.475000X0.337500X-0.475000X0*%
%ADD14R,1.700000X1.700000*%
%ADD15O,1.700000X1.700000*%
%ADD16RoundRect,0.250000X-0.475000X0.337500X-0.475000X-0.337500X0.475000X-0.337500X0.475000X0.337500X0*%
%ADD17RoundRect,0.250000X-0.450000X0.262500X-0.450000X-0.262500X0.450000X-0.262500X0.450000X0.262500X0*%
%ADD18C,1.524000*%
%ADD19RoundRect,0.250000X0.350000X0.450000X-0.350000X0.450000X-0.350000X-0.450000X0.350000X-0.450000X0*%
%ADD20C,4.300000*%
%ADD21C,14.000000*%
%ADD22RoundRect,0.250000X0.475000X-0.250000X0.475000X0.250000X-0.475000X0.250000X-0.475000X-0.250000X0*%
%ADD23RoundRect,0.250000X0.475000X-0.337500X0.475000X0.337500X-0.475000X0.337500X-0.475000X-0.337500X0*%
%ADD24R,1.600000X1.600000*%
%ADD25O,1.600000X1.600000*%
%ADD26C,3.200000*%
%ADD27R,3.500000X3.500000*%
%ADD28C,3.500000*%
%ADD29R,1.000000X1.500000*%
%ADD30O,3.500000X2.200000*%
%ADD31R,2.500000X1.500000*%
%ADD32O,2.500000X1.500000*%
G04 APERTURE END LIST*
D10*
%TO.C,JP2*%
X199449000Y-72756000D03*
D11*
X199449000Y-74056000D03*
%TD*%
D12*
%TO.C,R9*%
X200719000Y-57658000D03*
X200719000Y-55833000D03*
%TD*%
D13*
%TO.C,C23*%
X117645000Y-125984000D03*
X115570000Y-125984000D03*
%TD*%
D14*
%TO.C,J4*%
X199449000Y-69088000D03*
D15*
X199449000Y-66548000D03*
%TD*%
D16*
%TO.C,C4*%
X167064000Y-85830500D03*
X167064000Y-87905500D03*
%TD*%
D12*
%TO.C,R11*%
X193099000Y-57578000D03*
X193099000Y-55753000D03*
%TD*%
D17*
%TO.C,R13*%
X121412000Y-107268000D03*
X121412000Y-109093000D03*
%TD*%
D14*
%TO.C,J1*%
X180399000Y-48768000D03*
D15*
X182939000Y-48768000D03*
X185479000Y-48768000D03*
X188019000Y-48768000D03*
X190559000Y-48768000D03*
X193099000Y-48768000D03*
X195639000Y-48768000D03*
X198179000Y-48768000D03*
X200719000Y-48768000D03*
X203259000Y-48768000D03*
%TD*%
D18*
%TO.C,U19*%
X114554000Y-55491000D03*
X114554000Y-58031000D03*
X114554000Y-63111000D03*
X114554000Y-65651000D03*
X132334000Y-65651000D03*
X132334000Y-63111000D03*
X132334000Y-58031000D03*
X132334000Y-55491000D03*
%TD*%
D12*
%TO.C,R10*%
X191194000Y-62023000D03*
X191194000Y-60198000D03*
%TD*%
D19*
%TO.C,R3*%
X121979000Y-78628000D03*
X119979000Y-78628000D03*
%TD*%
D13*
%TO.C,C1*%
X117518000Y-98298000D03*
X115443000Y-98298000D03*
%TD*%
D14*
%TO.C,J7*%
X109279000Y-142748000D03*
D15*
X111819000Y-142748000D03*
X114359000Y-142748000D03*
X116899000Y-142748000D03*
X119439000Y-142748000D03*
X121979000Y-142748000D03*
X124519000Y-142748000D03*
X127059000Y-142748000D03*
X129599000Y-142748000D03*
X132139000Y-142748000D03*
%TD*%
D18*
%TO.C,U9*%
X177351000Y-49784000D03*
X174811000Y-49784000D03*
X172271000Y-49784000D03*
X169731000Y-49784000D03*
X167191000Y-49784000D03*
X164651000Y-49784000D03*
X162111000Y-49784000D03*
X159571000Y-49784000D03*
X157031000Y-49784000D03*
X154491000Y-49784000D03*
X151951000Y-49784000D03*
X149411000Y-49784000D03*
X146871000Y-49784000D03*
X146871000Y-72644000D03*
X149411000Y-72644000D03*
X151951000Y-72644000D03*
X154491000Y-72644000D03*
X157031000Y-72644000D03*
X159571000Y-72644000D03*
X162111000Y-72644000D03*
X164651000Y-72644000D03*
X167191000Y-72644000D03*
X169731000Y-72644000D03*
X172271000Y-72644000D03*
X174811000Y-72644000D03*
X177351000Y-72644000D03*
%TD*%
D14*
%TO.C,J2*%
X109279000Y-48768000D03*
D15*
X111819000Y-48768000D03*
X114359000Y-48768000D03*
X116899000Y-48768000D03*
X119439000Y-48768000D03*
X121979000Y-48768000D03*
X124519000Y-48768000D03*
X127059000Y-48768000D03*
X129599000Y-48768000D03*
X132139000Y-48768000D03*
%TD*%
D20*
%TO.C,H3*%
X138489000Y-53848000D03*
%TD*%
%TO.C,H4*%
X139251000Y-140970000D03*
%TD*%
D21*
%TO.C,H7*%
X135644200Y-86766400D03*
%TD*%
D22*
%TO.C,C22*%
X189924000Y-57653000D03*
X189924000Y-55753000D03*
%TD*%
%TO.C,C21*%
X197544000Y-57695500D03*
X197544000Y-55795500D03*
%TD*%
D18*
%TO.C,U20*%
X121539000Y-118618000D03*
X118999000Y-118618000D03*
X113919000Y-118618000D03*
X111379000Y-118618000D03*
X111379000Y-136398000D03*
X113919000Y-136398000D03*
X118999000Y-136398000D03*
X121539000Y-136398000D03*
%TD*%
D22*
%TO.C,C17*%
X182304000Y-57658000D03*
X182304000Y-55758000D03*
%TD*%
D16*
%TO.C,C24*%
X118237000Y-59033500D03*
X118237000Y-61108500D03*
%TD*%
D12*
%TO.C,R7*%
X185479000Y-57658000D03*
X185479000Y-55833000D03*
%TD*%
D23*
%TO.C,C7*%
X109914000Y-69908000D03*
X109914000Y-67833000D03*
%TD*%
%TO.C,C3*%
X116264000Y-69908000D03*
X116264000Y-67833000D03*
%TD*%
D24*
%TO.C,SW1*%
X116889000Y-77978000D03*
D25*
X116889000Y-75438000D03*
X116889000Y-72898000D03*
X109269000Y-72898000D03*
X109269000Y-75438000D03*
X109269000Y-77978000D03*
%TD*%
D12*
%TO.C,R8*%
X198814000Y-62023000D03*
X198814000Y-60198000D03*
%TD*%
D13*
%TO.C,C26*%
X117645000Y-122682000D03*
X115570000Y-122682000D03*
%TD*%
D23*
%TO.C,C5*%
X113089000Y-69908000D03*
X113089000Y-67833000D03*
%TD*%
D26*
%TO.C,BT1*%
X194176000Y-106680000D03*
X138566000Y-106680000D03*
D27*
X129921000Y-106680000D03*
D28*
X201921000Y-106680000D03*
%TD*%
D17*
%TO.C,R12*%
X114173000Y-107268000D03*
X114173000Y-109093000D03*
%TD*%
D26*
%TO.C,BT2*%
X138634000Y-128524000D03*
X194244000Y-128524000D03*
D27*
X129989000Y-128524000D03*
D28*
X201989000Y-128524000D03*
%TD*%
D16*
%TO.C,C25*%
X121666000Y-59033500D03*
X121666000Y-61108500D03*
%TD*%
D29*
%TO.C,JP1*%
X121949000Y-68326000D03*
X123249000Y-68326000D03*
%TD*%
D19*
%TO.C,R1*%
X121979000Y-72278000D03*
X119979000Y-72278000D03*
%TD*%
D16*
%TO.C,C9*%
X195004000Y-85830500D03*
X195004000Y-87905500D03*
%TD*%
D12*
%TO.C,R6*%
X183574000Y-62023000D03*
X183574000Y-60198000D03*
%TD*%
D14*
%TO.C,J6*%
X180399000Y-142748000D03*
D15*
X182939000Y-142748000D03*
X185479000Y-142748000D03*
X188019000Y-142748000D03*
X190559000Y-142748000D03*
X193099000Y-142748000D03*
X195639000Y-142748000D03*
X198179000Y-142748000D03*
X200719000Y-142748000D03*
X203259000Y-142748000D03*
%TD*%
D16*
%TO.C,C6*%
X163889000Y-85830500D03*
X163889000Y-87905500D03*
%TD*%
D30*
%TO.C,SW2*%
X110787500Y-89825000D03*
X110787500Y-81625000D03*
D31*
X110787500Y-87725000D03*
D32*
X110787500Y-85725000D03*
X110787500Y-83725000D03*
%TD*%
D13*
%TO.C,C2*%
X117602000Y-101092000D03*
X115527000Y-101092000D03*
%TD*%
D18*
%TO.C,U3*%
X184844000Y-81153000D03*
X184844000Y-83693000D03*
X184844000Y-88773000D03*
X184844000Y-91313000D03*
X202624000Y-91313000D03*
X202624000Y-88773000D03*
X202624000Y-83693000D03*
X202624000Y-81153000D03*
%TD*%
%TO.C,U2*%
X159444000Y-81153000D03*
X159444000Y-83693000D03*
X159444000Y-88773000D03*
X159444000Y-91313000D03*
X177224000Y-91313000D03*
X177224000Y-88773000D03*
X177224000Y-83693000D03*
X177224000Y-81153000D03*
%TD*%
D29*
%TO.C,JP5*%
X121979000Y-82804000D03*
X123279000Y-82804000D03*
%TD*%
D19*
%TO.C,R2*%
X121979000Y-75453000D03*
X119979000Y-75453000D03*
%TD*%
D18*
%TO.C,U1*%
X121547000Y-93980000D03*
X119007000Y-93980000D03*
X113927000Y-93980000D03*
X111387000Y-93980000D03*
X111387000Y-111760000D03*
X113927000Y-111760000D03*
X119007000Y-111760000D03*
X121547000Y-111760000D03*
%TD*%
D14*
%TO.C,J25*%
X109914000Y-54991000D03*
D15*
X109914000Y-57531000D03*
X109914000Y-60071000D03*
X109914000Y-62611000D03*
%TD*%
D16*
%TO.C,C8*%
X191829000Y-85830500D03*
X191829000Y-87905500D03*
%TD*%
M02*
