%TF.GenerationSoftware,KiCad,Pcbnew,6.0.7-f9a2dced07~116~ubuntu20.04.1*%
%TF.CreationDate,2022-10-31T14:42:26+01:00*%
%TF.ProjectId,av_citynode_hw,61765f63-6974-4796-9e6f-64655f68772e,rev?*%
%TF.SameCoordinates,Original*%
%TF.FileFunction,Legend,Top*%
%TF.FilePolarity,Positive*%
%FSLAX46Y46*%
G04 Gerber Fmt 4.6, Leading zero omitted, Abs format (unit mm)*
G04 Created by KiCad (PCBNEW 6.0.7-f9a2dced07~116~ubuntu20.04.1) date 2022-10-31 14:42:26*
%MOMM*%
%LPD*%
G01*
G04 APERTURE LIST*
%ADD10C,0.150000*%
%ADD11C,0.120000*%
G04 APERTURE END LIST*
D10*
%TO.C,J10*%
X135334476Y-170902380D02*
X135334476Y-171616666D01*
X135286857Y-171759523D01*
X135191619Y-171854761D01*
X135048761Y-171902380D01*
X134953523Y-171902380D01*
X136334476Y-171902380D02*
X135763047Y-171902380D01*
X136048761Y-171902380D02*
X136048761Y-170902380D01*
X135953523Y-171045238D01*
X135858285Y-171140476D01*
X135763047Y-171188095D01*
X136953523Y-170902380D02*
X137048761Y-170902380D01*
X137144000Y-170950000D01*
X137191619Y-170997619D01*
X137239238Y-171092857D01*
X137286857Y-171283333D01*
X137286857Y-171521428D01*
X137239238Y-171711904D01*
X137191619Y-171807142D01*
X137144000Y-171854761D01*
X137048761Y-171902380D01*
X136953523Y-171902380D01*
X136858285Y-171854761D01*
X136810666Y-171807142D01*
X136763047Y-171711904D01*
X136715428Y-171521428D01*
X136715428Y-171283333D01*
X136763047Y-171092857D01*
X136810666Y-170997619D01*
X136858285Y-170950000D01*
X136953523Y-170902380D01*
%TO.C,U7*%
X146264380Y-244855904D02*
X147073904Y-244855904D01*
X147169142Y-244808285D01*
X147216761Y-244760666D01*
X147264380Y-244665428D01*
X147264380Y-244474952D01*
X147216761Y-244379714D01*
X147169142Y-244332095D01*
X147073904Y-244284476D01*
X146264380Y-244284476D01*
X146264380Y-243903523D02*
X146264380Y-243236857D01*
X147264380Y-243665428D01*
%TO.C,U6*%
X145710380Y-219020904D02*
X146519904Y-219020904D01*
X146615142Y-218973285D01*
X146662761Y-218925666D01*
X146710380Y-218830428D01*
X146710380Y-218639952D01*
X146662761Y-218544714D01*
X146615142Y-218497095D01*
X146519904Y-218449476D01*
X145710380Y-218449476D01*
X145710380Y-217544714D02*
X145710380Y-217735190D01*
X145758000Y-217830428D01*
X145805619Y-217878047D01*
X145948476Y-217973285D01*
X146138952Y-218020904D01*
X146519904Y-218020904D01*
X146615142Y-217973285D01*
X146662761Y-217925666D01*
X146710380Y-217830428D01*
X146710380Y-217639952D01*
X146662761Y-217544714D01*
X146615142Y-217497095D01*
X146519904Y-217449476D01*
X146281809Y-217449476D01*
X146186571Y-217497095D01*
X146138952Y-217544714D01*
X146091333Y-217639952D01*
X146091333Y-217830428D01*
X146138952Y-217925666D01*
X146186571Y-217973285D01*
X146281809Y-218020904D01*
%TO.C,Q1*%
X119487619Y-256508238D02*
X119440000Y-256603476D01*
X119344761Y-256698714D01*
X119201904Y-256841571D01*
X119154285Y-256936809D01*
X119154285Y-257032047D01*
X119392380Y-256984428D02*
X119344761Y-257079666D01*
X119249523Y-257174904D01*
X119059047Y-257222523D01*
X118725714Y-257222523D01*
X118535238Y-257174904D01*
X118440000Y-257079666D01*
X118392380Y-256984428D01*
X118392380Y-256793952D01*
X118440000Y-256698714D01*
X118535238Y-256603476D01*
X118725714Y-256555857D01*
X119059047Y-256555857D01*
X119249523Y-256603476D01*
X119344761Y-256698714D01*
X119392380Y-256793952D01*
X119392380Y-256984428D01*
X119392380Y-255603476D02*
X119392380Y-256174904D01*
X119392380Y-255889190D02*
X118392380Y-255889190D01*
X118535238Y-255984428D01*
X118630476Y-256079666D01*
X118678095Y-256174904D01*
%TO.C,C13*%
X155297142Y-242638857D02*
X155344761Y-242686476D01*
X155392380Y-242829333D01*
X155392380Y-242924571D01*
X155344761Y-243067428D01*
X155249523Y-243162666D01*
X155154285Y-243210285D01*
X154963809Y-243257904D01*
X154820952Y-243257904D01*
X154630476Y-243210285D01*
X154535238Y-243162666D01*
X154440000Y-243067428D01*
X154392380Y-242924571D01*
X154392380Y-242829333D01*
X154440000Y-242686476D01*
X154487619Y-242638857D01*
X155392380Y-241686476D02*
X155392380Y-242257904D01*
X155392380Y-241972190D02*
X154392380Y-241972190D01*
X154535238Y-242067428D01*
X154630476Y-242162666D01*
X154678095Y-242257904D01*
X154392380Y-241353142D02*
X154392380Y-240734095D01*
X154773333Y-241067428D01*
X154773333Y-240924571D01*
X154820952Y-240829333D01*
X154868571Y-240781714D01*
X154963809Y-240734095D01*
X155201904Y-240734095D01*
X155297142Y-240781714D01*
X155344761Y-240829333D01*
X155392380Y-240924571D01*
X155392380Y-241210285D01*
X155344761Y-241305523D01*
X155297142Y-241353142D01*
%TO.C,J11*%
X177244476Y-265390380D02*
X177244476Y-266104666D01*
X177196857Y-266247523D01*
X177101619Y-266342761D01*
X176958761Y-266390380D01*
X176863523Y-266390380D01*
X178244476Y-266390380D02*
X177673047Y-266390380D01*
X177958761Y-266390380D02*
X177958761Y-265390380D01*
X177863523Y-265533238D01*
X177768285Y-265628476D01*
X177673047Y-265676095D01*
X179196857Y-266390380D02*
X178625428Y-266390380D01*
X178911142Y-266390380D02*
X178911142Y-265390380D01*
X178815904Y-265533238D01*
X178720666Y-265628476D01*
X178625428Y-265676095D01*
%TO.C,J17*%
X135334476Y-173950380D02*
X135334476Y-174664666D01*
X135286857Y-174807523D01*
X135191619Y-174902761D01*
X135048761Y-174950380D01*
X134953523Y-174950380D01*
X136334476Y-174950380D02*
X135763047Y-174950380D01*
X136048761Y-174950380D02*
X136048761Y-173950380D01*
X135953523Y-174093238D01*
X135858285Y-174188476D01*
X135763047Y-174236095D01*
X136667809Y-173950380D02*
X137334476Y-173950380D01*
X136905904Y-174950380D01*
%TO.C,U5*%
X111632904Y-250991619D02*
X111632904Y-250182095D01*
X111585285Y-250086857D01*
X111537666Y-250039238D01*
X111442428Y-249991619D01*
X111251952Y-249991619D01*
X111156714Y-250039238D01*
X111109095Y-250086857D01*
X111061476Y-250182095D01*
X111061476Y-250991619D01*
X110109095Y-250991619D02*
X110585285Y-250991619D01*
X110632904Y-250515428D01*
X110585285Y-250563047D01*
X110490047Y-250610666D01*
X110251952Y-250610666D01*
X110156714Y-250563047D01*
X110109095Y-250515428D01*
X110061476Y-250420190D01*
X110061476Y-250182095D01*
X110109095Y-250086857D01*
X110156714Y-250039238D01*
X110251952Y-249991619D01*
X110490047Y-249991619D01*
X110585285Y-250039238D01*
X110632904Y-250086857D01*
%TO.C,J19*%
X109172476Y-259802380D02*
X109172476Y-260516666D01*
X109124857Y-260659523D01*
X109029619Y-260754761D01*
X108886761Y-260802380D01*
X108791523Y-260802380D01*
X110172476Y-260802380D02*
X109601047Y-260802380D01*
X109886761Y-260802380D02*
X109886761Y-259802380D01*
X109791523Y-259945238D01*
X109696285Y-260040476D01*
X109601047Y-260088095D01*
X110648666Y-260802380D02*
X110839142Y-260802380D01*
X110934380Y-260754761D01*
X110982000Y-260707142D01*
X111077238Y-260564285D01*
X111124857Y-260373809D01*
X111124857Y-259992857D01*
X111077238Y-259897619D01*
X111029619Y-259850000D01*
X110934380Y-259802380D01*
X110743904Y-259802380D01*
X110648666Y-259850000D01*
X110601047Y-259897619D01*
X110553428Y-259992857D01*
X110553428Y-260230952D01*
X110601047Y-260326190D01*
X110648666Y-260373809D01*
X110743904Y-260421428D01*
X110934380Y-260421428D01*
X111029619Y-260373809D01*
X111077238Y-260326190D01*
X111124857Y-260230952D01*
%TO.C,JP6*%
X154472666Y-249366380D02*
X154472666Y-250080666D01*
X154425047Y-250223523D01*
X154329809Y-250318761D01*
X154186952Y-250366380D01*
X154091714Y-250366380D01*
X154948857Y-250366380D02*
X154948857Y-249366380D01*
X155329809Y-249366380D01*
X155425047Y-249414000D01*
X155472666Y-249461619D01*
X155520285Y-249556857D01*
X155520285Y-249699714D01*
X155472666Y-249794952D01*
X155425047Y-249842571D01*
X155329809Y-249890190D01*
X154948857Y-249890190D01*
X156377428Y-249366380D02*
X156186952Y-249366380D01*
X156091714Y-249414000D01*
X156044095Y-249461619D01*
X155948857Y-249604476D01*
X155901238Y-249794952D01*
X155901238Y-250175904D01*
X155948857Y-250271142D01*
X155996476Y-250318761D01*
X156091714Y-250366380D01*
X156282190Y-250366380D01*
X156377428Y-250318761D01*
X156425047Y-250271142D01*
X156472666Y-250175904D01*
X156472666Y-249937809D01*
X156425047Y-249842571D01*
X156377428Y-249794952D01*
X156282190Y-249747333D01*
X156091714Y-249747333D01*
X155996476Y-249794952D01*
X155948857Y-249842571D01*
X155901238Y-249937809D01*
%TO.C,C19*%
X172598142Y-256481857D02*
X172645761Y-256529476D01*
X172693380Y-256672333D01*
X172693380Y-256767571D01*
X172645761Y-256910428D01*
X172550523Y-257005666D01*
X172455285Y-257053285D01*
X172264809Y-257100904D01*
X172121952Y-257100904D01*
X171931476Y-257053285D01*
X171836238Y-257005666D01*
X171741000Y-256910428D01*
X171693380Y-256767571D01*
X171693380Y-256672333D01*
X171741000Y-256529476D01*
X171788619Y-256481857D01*
X172693380Y-255529476D02*
X172693380Y-256100904D01*
X172693380Y-255815190D02*
X171693380Y-255815190D01*
X171836238Y-255910428D01*
X171931476Y-256005666D01*
X171979095Y-256100904D01*
X172693380Y-255053285D02*
X172693380Y-254862809D01*
X172645761Y-254767571D01*
X172598142Y-254719952D01*
X172455285Y-254624714D01*
X172264809Y-254577095D01*
X171883857Y-254577095D01*
X171788619Y-254624714D01*
X171741000Y-254672333D01*
X171693380Y-254767571D01*
X171693380Y-254958047D01*
X171741000Y-255053285D01*
X171788619Y-255100904D01*
X171883857Y-255148523D01*
X172121952Y-255148523D01*
X172217190Y-255100904D01*
X172264809Y-255053285D01*
X172312428Y-254958047D01*
X172312428Y-254767571D01*
X172264809Y-254672333D01*
X172217190Y-254624714D01*
X172121952Y-254577095D01*
%TO.C,U16*%
X113078095Y-260135714D02*
X113316190Y-260802380D01*
X113554285Y-260135714D01*
X114125714Y-259802380D02*
X114220952Y-259802380D01*
X114316190Y-259850000D01*
X114363809Y-259897619D01*
X114411428Y-259992857D01*
X114459047Y-260183333D01*
X114459047Y-260421428D01*
X114411428Y-260611904D01*
X114363809Y-260707142D01*
X114316190Y-260754761D01*
X114220952Y-260802380D01*
X114125714Y-260802380D01*
X114030476Y-260754761D01*
X113982857Y-260707142D01*
X113935238Y-260611904D01*
X113887619Y-260421428D01*
X113887619Y-260183333D01*
X113935238Y-259992857D01*
X113982857Y-259897619D01*
X114030476Y-259850000D01*
X114125714Y-259802380D01*
X114887619Y-260707142D02*
X114935238Y-260754761D01*
X114887619Y-260802380D01*
X114840000Y-260754761D01*
X114887619Y-260707142D01*
X114887619Y-260802380D01*
X115887619Y-260802380D02*
X115316190Y-260802380D01*
X115601904Y-260802380D02*
X115601904Y-259802380D01*
X115506666Y-259945238D01*
X115411428Y-260040476D01*
X115316190Y-260088095D01*
X117363809Y-261135714D02*
X117125714Y-261135714D01*
X117125714Y-259707142D01*
X117363809Y-259707142D01*
X117744761Y-260135714D02*
X117744761Y-261135714D01*
X117744761Y-260183333D02*
X117840000Y-260135714D01*
X118030476Y-260135714D01*
X118125714Y-260183333D01*
X118173333Y-260230952D01*
X118220952Y-260326190D01*
X118220952Y-260611904D01*
X118173333Y-260707142D01*
X118125714Y-260754761D01*
X118030476Y-260802380D01*
X117840000Y-260802380D01*
X117744761Y-260754761D01*
X118411428Y-260897619D02*
X119173333Y-260897619D01*
X119411428Y-260135714D02*
X119411428Y-261135714D01*
X119411428Y-260183333D02*
X119506666Y-260135714D01*
X119697142Y-260135714D01*
X119792380Y-260183333D01*
X119840000Y-260230952D01*
X119887619Y-260326190D01*
X119887619Y-260611904D01*
X119840000Y-260707142D01*
X119792380Y-260754761D01*
X119697142Y-260802380D01*
X119506666Y-260802380D01*
X119411428Y-260754761D01*
X120220952Y-261135714D02*
X120459047Y-261135714D01*
X120459047Y-259707142D01*
X120220952Y-259707142D01*
%TO.C,C12*%
X157279142Y-245565142D02*
X157231523Y-245612761D01*
X157088666Y-245660380D01*
X156993428Y-245660380D01*
X156850571Y-245612761D01*
X156755333Y-245517523D01*
X156707714Y-245422285D01*
X156660095Y-245231809D01*
X156660095Y-245088952D01*
X156707714Y-244898476D01*
X156755333Y-244803238D01*
X156850571Y-244708000D01*
X156993428Y-244660380D01*
X157088666Y-244660380D01*
X157231523Y-244708000D01*
X157279142Y-244755619D01*
X158231523Y-245660380D02*
X157660095Y-245660380D01*
X157945809Y-245660380D02*
X157945809Y-244660380D01*
X157850571Y-244803238D01*
X157755333Y-244898476D01*
X157660095Y-244946095D01*
X158612476Y-244755619D02*
X158660095Y-244708000D01*
X158755333Y-244660380D01*
X158993428Y-244660380D01*
X159088666Y-244708000D01*
X159136285Y-244755619D01*
X159183904Y-244850857D01*
X159183904Y-244946095D01*
X159136285Y-245088952D01*
X158564857Y-245660380D01*
X159183904Y-245660380D01*
%TO.C,JP9*%
X148909380Y-235111333D02*
X149623666Y-235111333D01*
X149766523Y-235158952D01*
X149861761Y-235254190D01*
X149909380Y-235397047D01*
X149909380Y-235492285D01*
X149909380Y-234635142D02*
X148909380Y-234635142D01*
X148909380Y-234254190D01*
X148957000Y-234158952D01*
X149004619Y-234111333D01*
X149099857Y-234063714D01*
X149242714Y-234063714D01*
X149337952Y-234111333D01*
X149385571Y-234158952D01*
X149433190Y-234254190D01*
X149433190Y-234635142D01*
X149909380Y-233587523D02*
X149909380Y-233397047D01*
X149861761Y-233301809D01*
X149814142Y-233254190D01*
X149671285Y-233158952D01*
X149480809Y-233111333D01*
X149099857Y-233111333D01*
X149004619Y-233158952D01*
X148957000Y-233206571D01*
X148909380Y-233301809D01*
X148909380Y-233492285D01*
X148957000Y-233587523D01*
X149004619Y-233635142D01*
X149099857Y-233682761D01*
X149337952Y-233682761D01*
X149433190Y-233635142D01*
X149480809Y-233587523D01*
X149528428Y-233492285D01*
X149528428Y-233301809D01*
X149480809Y-233206571D01*
X149433190Y-233158952D01*
X149337952Y-233111333D01*
%TO.C,J12*%
X135588476Y-265390380D02*
X135588476Y-266104666D01*
X135540857Y-266247523D01*
X135445619Y-266342761D01*
X135302761Y-266390380D01*
X135207523Y-266390380D01*
X136588476Y-266390380D02*
X136017047Y-266390380D01*
X136302761Y-266390380D02*
X136302761Y-265390380D01*
X136207523Y-265533238D01*
X136112285Y-265628476D01*
X136017047Y-265676095D01*
X136969428Y-265485619D02*
X137017047Y-265438000D01*
X137112285Y-265390380D01*
X137350380Y-265390380D01*
X137445619Y-265438000D01*
X137493238Y-265485619D01*
X137540857Y-265580857D01*
X137540857Y-265676095D01*
X137493238Y-265818952D01*
X136921809Y-266390380D01*
X137540857Y-266390380D01*
%TO.C,C11*%
X143261142Y-227906857D02*
X143308761Y-227954476D01*
X143356380Y-228097333D01*
X143356380Y-228192571D01*
X143308761Y-228335428D01*
X143213523Y-228430666D01*
X143118285Y-228478285D01*
X142927809Y-228525904D01*
X142784952Y-228525904D01*
X142594476Y-228478285D01*
X142499238Y-228430666D01*
X142404000Y-228335428D01*
X142356380Y-228192571D01*
X142356380Y-228097333D01*
X142404000Y-227954476D01*
X142451619Y-227906857D01*
X143356380Y-226954476D02*
X143356380Y-227525904D01*
X143356380Y-227240190D02*
X142356380Y-227240190D01*
X142499238Y-227335428D01*
X142594476Y-227430666D01*
X142642095Y-227525904D01*
X143356380Y-226002095D02*
X143356380Y-226573523D01*
X143356380Y-226287809D02*
X142356380Y-226287809D01*
X142499238Y-226383047D01*
X142594476Y-226478285D01*
X142642095Y-226573523D01*
%TO.C,U4*%
X130468619Y-189357095D02*
X129659095Y-189357095D01*
X129563857Y-189404714D01*
X129516238Y-189452333D01*
X129468619Y-189547571D01*
X129468619Y-189738047D01*
X129516238Y-189833285D01*
X129563857Y-189880904D01*
X129659095Y-189928523D01*
X130468619Y-189928523D01*
X130135285Y-190833285D02*
X129468619Y-190833285D01*
X130516238Y-190595190D02*
X129801952Y-190357095D01*
X129801952Y-190976142D01*
%TO.C,R4*%
X157209833Y-236745380D02*
X156876500Y-236269190D01*
X156638404Y-236745380D02*
X156638404Y-235745380D01*
X157019357Y-235745380D01*
X157114595Y-235793000D01*
X157162214Y-235840619D01*
X157209833Y-235935857D01*
X157209833Y-236078714D01*
X157162214Y-236173952D01*
X157114595Y-236221571D01*
X157019357Y-236269190D01*
X156638404Y-236269190D01*
X158066976Y-236078714D02*
X158066976Y-236745380D01*
X157828880Y-235697761D02*
X157590785Y-236412047D01*
X158209833Y-236412047D01*
%TO.C,JP10*%
X179777476Y-251906380D02*
X179777476Y-252620666D01*
X179729857Y-252763523D01*
X179634619Y-252858761D01*
X179491761Y-252906380D01*
X179396523Y-252906380D01*
X180253666Y-252906380D02*
X180253666Y-251906380D01*
X180634619Y-251906380D01*
X180729857Y-251954000D01*
X180777476Y-252001619D01*
X180825095Y-252096857D01*
X180825095Y-252239714D01*
X180777476Y-252334952D01*
X180729857Y-252382571D01*
X180634619Y-252430190D01*
X180253666Y-252430190D01*
X181777476Y-252906380D02*
X181206047Y-252906380D01*
X181491761Y-252906380D02*
X181491761Y-251906380D01*
X181396523Y-252049238D01*
X181301285Y-252144476D01*
X181206047Y-252192095D01*
X182396523Y-251906380D02*
X182491761Y-251906380D01*
X182587000Y-251954000D01*
X182634619Y-252001619D01*
X182682238Y-252096857D01*
X182729857Y-252287333D01*
X182729857Y-252525428D01*
X182682238Y-252715904D01*
X182634619Y-252811142D01*
X182587000Y-252858761D01*
X182491761Y-252906380D01*
X182396523Y-252906380D01*
X182301285Y-252858761D01*
X182253666Y-252811142D01*
X182206047Y-252715904D01*
X182158428Y-252525428D01*
X182158428Y-252287333D01*
X182206047Y-252096857D01*
X182253666Y-252001619D01*
X182301285Y-251954000D01*
X182396523Y-251906380D01*
%TO.C,JP11*%
X179904476Y-256224380D02*
X179904476Y-256938666D01*
X179856857Y-257081523D01*
X179761619Y-257176761D01*
X179618761Y-257224380D01*
X179523523Y-257224380D01*
X180380666Y-257224380D02*
X180380666Y-256224380D01*
X180761619Y-256224380D01*
X180856857Y-256272000D01*
X180904476Y-256319619D01*
X180952095Y-256414857D01*
X180952095Y-256557714D01*
X180904476Y-256652952D01*
X180856857Y-256700571D01*
X180761619Y-256748190D01*
X180380666Y-256748190D01*
X181904476Y-257224380D02*
X181333047Y-257224380D01*
X181618761Y-257224380D02*
X181618761Y-256224380D01*
X181523523Y-256367238D01*
X181428285Y-256462476D01*
X181333047Y-256510095D01*
X182856857Y-257224380D02*
X182285428Y-257224380D01*
X182571142Y-257224380D02*
X182571142Y-256224380D01*
X182475904Y-256367238D01*
X182380666Y-256462476D01*
X182285428Y-256510095D01*
%TO.C,J16*%
X180292476Y-175982380D02*
X180292476Y-176696666D01*
X180244857Y-176839523D01*
X180149619Y-176934761D01*
X180006761Y-176982380D01*
X179911523Y-176982380D01*
X181292476Y-176982380D02*
X180721047Y-176982380D01*
X181006761Y-176982380D02*
X181006761Y-175982380D01*
X180911523Y-176125238D01*
X180816285Y-176220476D01*
X180721047Y-176268095D01*
X182149619Y-175982380D02*
X181959142Y-175982380D01*
X181863904Y-176030000D01*
X181816285Y-176077619D01*
X181721047Y-176220476D01*
X181673428Y-176410952D01*
X181673428Y-176791904D01*
X181721047Y-176887142D01*
X181768666Y-176934761D01*
X181863904Y-176982380D01*
X182054380Y-176982380D01*
X182149619Y-176934761D01*
X182197238Y-176887142D01*
X182244857Y-176791904D01*
X182244857Y-176553809D01*
X182197238Y-176458571D01*
X182149619Y-176410952D01*
X182054380Y-176363333D01*
X181863904Y-176363333D01*
X181768666Y-176410952D01*
X181721047Y-176458571D01*
X181673428Y-176553809D01*
%TO.C,JP12*%
X138204380Y-222289523D02*
X138918666Y-222289523D01*
X139061523Y-222337142D01*
X139156761Y-222432380D01*
X139204380Y-222575238D01*
X139204380Y-222670476D01*
X139204380Y-221813333D02*
X138204380Y-221813333D01*
X138204380Y-221432380D01*
X138252000Y-221337142D01*
X138299619Y-221289523D01*
X138394857Y-221241904D01*
X138537714Y-221241904D01*
X138632952Y-221289523D01*
X138680571Y-221337142D01*
X138728190Y-221432380D01*
X138728190Y-221813333D01*
X139204380Y-220289523D02*
X139204380Y-220860952D01*
X139204380Y-220575238D02*
X138204380Y-220575238D01*
X138347238Y-220670476D01*
X138442476Y-220765714D01*
X138490095Y-220860952D01*
X138299619Y-219908571D02*
X138252000Y-219860952D01*
X138204380Y-219765714D01*
X138204380Y-219527619D01*
X138252000Y-219432380D01*
X138299619Y-219384761D01*
X138394857Y-219337142D01*
X138490095Y-219337142D01*
X138632952Y-219384761D01*
X139204380Y-219956190D01*
X139204380Y-219337142D01*
%TO.C,J18*%
X177244476Y-262342380D02*
X177244476Y-263056666D01*
X177196857Y-263199523D01*
X177101619Y-263294761D01*
X176958761Y-263342380D01*
X176863523Y-263342380D01*
X178244476Y-263342380D02*
X177673047Y-263342380D01*
X177958761Y-263342380D02*
X177958761Y-262342380D01*
X177863523Y-262485238D01*
X177768285Y-262580476D01*
X177673047Y-262628095D01*
X178815904Y-262770952D02*
X178720666Y-262723333D01*
X178673047Y-262675714D01*
X178625428Y-262580476D01*
X178625428Y-262532857D01*
X178673047Y-262437619D01*
X178720666Y-262390000D01*
X178815904Y-262342380D01*
X179006380Y-262342380D01*
X179101619Y-262390000D01*
X179149238Y-262437619D01*
X179196857Y-262532857D01*
X179196857Y-262580476D01*
X179149238Y-262675714D01*
X179101619Y-262723333D01*
X179006380Y-262770952D01*
X178815904Y-262770952D01*
X178720666Y-262818571D01*
X178673047Y-262866190D01*
X178625428Y-262961428D01*
X178625428Y-263151904D01*
X178673047Y-263247142D01*
X178720666Y-263294761D01*
X178815904Y-263342380D01*
X179006380Y-263342380D01*
X179101619Y-263294761D01*
X179149238Y-263247142D01*
X179196857Y-263151904D01*
X179196857Y-262961428D01*
X179149238Y-262866190D01*
X179101619Y-262818571D01*
X179006380Y-262770952D01*
%TO.C,JP7*%
X147463466Y-236434380D02*
X147463466Y-237148666D01*
X147415847Y-237291523D01*
X147320609Y-237386761D01*
X147177752Y-237434380D01*
X147082514Y-237434380D01*
X147939657Y-237434380D02*
X147939657Y-236434380D01*
X148320609Y-236434380D01*
X148415847Y-236482000D01*
X148463466Y-236529619D01*
X148511085Y-236624857D01*
X148511085Y-236767714D01*
X148463466Y-236862952D01*
X148415847Y-236910571D01*
X148320609Y-236958190D01*
X147939657Y-236958190D01*
X148844419Y-236434380D02*
X149511085Y-236434380D01*
X149082514Y-237434380D01*
%TO.C,C10*%
X139197142Y-227906857D02*
X139244761Y-227954476D01*
X139292380Y-228097333D01*
X139292380Y-228192571D01*
X139244761Y-228335428D01*
X139149523Y-228430666D01*
X139054285Y-228478285D01*
X138863809Y-228525904D01*
X138720952Y-228525904D01*
X138530476Y-228478285D01*
X138435238Y-228430666D01*
X138340000Y-228335428D01*
X138292380Y-228192571D01*
X138292380Y-228097333D01*
X138340000Y-227954476D01*
X138387619Y-227906857D01*
X139292380Y-226954476D02*
X139292380Y-227525904D01*
X139292380Y-227240190D02*
X138292380Y-227240190D01*
X138435238Y-227335428D01*
X138530476Y-227430666D01*
X138578095Y-227525904D01*
X138292380Y-226335428D02*
X138292380Y-226240190D01*
X138340000Y-226144952D01*
X138387619Y-226097333D01*
X138482857Y-226049714D01*
X138673333Y-226002095D01*
X138911428Y-226002095D01*
X139101904Y-226049714D01*
X139197142Y-226097333D01*
X139244761Y-226144952D01*
X139292380Y-226240190D01*
X139292380Y-226335428D01*
X139244761Y-226430666D01*
X139197142Y-226478285D01*
X139101904Y-226525904D01*
X138911428Y-226573523D01*
X138673333Y-226573523D01*
X138482857Y-226525904D01*
X138387619Y-226478285D01*
X138340000Y-226430666D01*
X138292380Y-226335428D01*
%TO.C,U8*%
X141923380Y-256285904D02*
X142732904Y-256285904D01*
X142828142Y-256238285D01*
X142875761Y-256190666D01*
X142923380Y-256095428D01*
X142923380Y-255904952D01*
X142875761Y-255809714D01*
X142828142Y-255762095D01*
X142732904Y-255714476D01*
X141923380Y-255714476D01*
X142351952Y-255095428D02*
X142304333Y-255190666D01*
X142256714Y-255238285D01*
X142161476Y-255285904D01*
X142113857Y-255285904D01*
X142018619Y-255238285D01*
X141971000Y-255190666D01*
X141923380Y-255095428D01*
X141923380Y-254904952D01*
X141971000Y-254809714D01*
X142018619Y-254762095D01*
X142113857Y-254714476D01*
X142161476Y-254714476D01*
X142256714Y-254762095D01*
X142304333Y-254809714D01*
X142351952Y-254904952D01*
X142351952Y-255095428D01*
X142399571Y-255190666D01*
X142447190Y-255238285D01*
X142542428Y-255285904D01*
X142732904Y-255285904D01*
X142828142Y-255238285D01*
X142875761Y-255190666D01*
X142923380Y-255095428D01*
X142923380Y-254904952D01*
X142875761Y-254809714D01*
X142828142Y-254762095D01*
X142732904Y-254714476D01*
X142542428Y-254714476D01*
X142447190Y-254762095D01*
X142399571Y-254809714D01*
X142351952Y-254904952D01*
%TO.C,C18*%
X168788142Y-256481857D02*
X168835761Y-256529476D01*
X168883380Y-256672333D01*
X168883380Y-256767571D01*
X168835761Y-256910428D01*
X168740523Y-257005666D01*
X168645285Y-257053285D01*
X168454809Y-257100904D01*
X168311952Y-257100904D01*
X168121476Y-257053285D01*
X168026238Y-257005666D01*
X167931000Y-256910428D01*
X167883380Y-256767571D01*
X167883380Y-256672333D01*
X167931000Y-256529476D01*
X167978619Y-256481857D01*
X168883380Y-255529476D02*
X168883380Y-256100904D01*
X168883380Y-255815190D02*
X167883380Y-255815190D01*
X168026238Y-255910428D01*
X168121476Y-256005666D01*
X168169095Y-256100904D01*
X168311952Y-254958047D02*
X168264333Y-255053285D01*
X168216714Y-255100904D01*
X168121476Y-255148523D01*
X168073857Y-255148523D01*
X167978619Y-255100904D01*
X167931000Y-255053285D01*
X167883380Y-254958047D01*
X167883380Y-254767571D01*
X167931000Y-254672333D01*
X167978619Y-254624714D01*
X168073857Y-254577095D01*
X168121476Y-254577095D01*
X168216714Y-254624714D01*
X168264333Y-254672333D01*
X168311952Y-254767571D01*
X168311952Y-254958047D01*
X168359571Y-255053285D01*
X168407190Y-255100904D01*
X168502428Y-255148523D01*
X168692904Y-255148523D01*
X168788142Y-255100904D01*
X168835761Y-255053285D01*
X168883380Y-254958047D01*
X168883380Y-254767571D01*
X168835761Y-254672333D01*
X168788142Y-254624714D01*
X168692904Y-254577095D01*
X168502428Y-254577095D01*
X168407190Y-254624714D01*
X168359571Y-254672333D01*
X168311952Y-254767571D01*
%TO.C,JP4*%
X129568380Y-221671333D02*
X130282666Y-221671333D01*
X130425523Y-221718952D01*
X130520761Y-221814190D01*
X130568380Y-221957047D01*
X130568380Y-222052285D01*
X130568380Y-221195142D02*
X129568380Y-221195142D01*
X129568380Y-220814190D01*
X129616000Y-220718952D01*
X129663619Y-220671333D01*
X129758857Y-220623714D01*
X129901714Y-220623714D01*
X129996952Y-220671333D01*
X130044571Y-220718952D01*
X130092190Y-220814190D01*
X130092190Y-221195142D01*
X129901714Y-219766571D02*
X130568380Y-219766571D01*
X129520761Y-220004666D02*
X130235047Y-220242761D01*
X130235047Y-219623714D01*
%TO.C,R5*%
X152233333Y-231211380D02*
X151900000Y-230735190D01*
X151661904Y-231211380D02*
X151661904Y-230211380D01*
X152042857Y-230211380D01*
X152138095Y-230259000D01*
X152185714Y-230306619D01*
X152233333Y-230401857D01*
X152233333Y-230544714D01*
X152185714Y-230639952D01*
X152138095Y-230687571D01*
X152042857Y-230735190D01*
X151661904Y-230735190D01*
X153138095Y-230211380D02*
X152661904Y-230211380D01*
X152614285Y-230687571D01*
X152661904Y-230639952D01*
X152757142Y-230592333D01*
X152995238Y-230592333D01*
X153090476Y-230639952D01*
X153138095Y-230687571D01*
X153185714Y-230782809D01*
X153185714Y-231020904D01*
X153138095Y-231116142D01*
X153090476Y-231163761D01*
X152995238Y-231211380D01*
X152757142Y-231211380D01*
X152661904Y-231163761D01*
X152614285Y-231116142D01*
%TO.C,U14*%
X179109619Y-180117904D02*
X178300095Y-180117904D01*
X178204857Y-180165523D01*
X178157238Y-180213142D01*
X178109619Y-180308380D01*
X178109619Y-180498857D01*
X178157238Y-180594095D01*
X178204857Y-180641714D01*
X178300095Y-180689333D01*
X179109619Y-180689333D01*
X178109619Y-181689333D02*
X178109619Y-181117904D01*
X178109619Y-181403619D02*
X179109619Y-181403619D01*
X178966761Y-181308380D01*
X178871523Y-181213142D01*
X178823904Y-181117904D01*
X178776285Y-182546476D02*
X178109619Y-182546476D01*
X179157238Y-182308380D02*
X178442952Y-182070285D01*
X178442952Y-182689333D01*
%TO.C,JP8*%
X153354380Y-235021333D02*
X154068666Y-235021333D01*
X154211523Y-235068952D01*
X154306761Y-235164190D01*
X154354380Y-235307047D01*
X154354380Y-235402285D01*
X154354380Y-234545142D02*
X153354380Y-234545142D01*
X153354380Y-234164190D01*
X153402000Y-234068952D01*
X153449619Y-234021333D01*
X153544857Y-233973714D01*
X153687714Y-233973714D01*
X153782952Y-234021333D01*
X153830571Y-234068952D01*
X153878190Y-234164190D01*
X153878190Y-234545142D01*
X153782952Y-233402285D02*
X153735333Y-233497523D01*
X153687714Y-233545142D01*
X153592476Y-233592761D01*
X153544857Y-233592761D01*
X153449619Y-233545142D01*
X153402000Y-233497523D01*
X153354380Y-233402285D01*
X153354380Y-233211809D01*
X153402000Y-233116571D01*
X153449619Y-233068952D01*
X153544857Y-233021333D01*
X153592476Y-233021333D01*
X153687714Y-233068952D01*
X153735333Y-233116571D01*
X153782952Y-233211809D01*
X153782952Y-233402285D01*
X153830571Y-233497523D01*
X153878190Y-233545142D01*
X153973428Y-233592761D01*
X154163904Y-233592761D01*
X154259142Y-233545142D01*
X154306761Y-233497523D01*
X154354380Y-233402285D01*
X154354380Y-233211809D01*
X154306761Y-233116571D01*
X154259142Y-233068952D01*
X154163904Y-233021333D01*
X153973428Y-233021333D01*
X153878190Y-233068952D01*
X153830571Y-233116571D01*
X153782952Y-233211809D01*
%TO.C,C20*%
X168318142Y-262561745D02*
X168365761Y-262609364D01*
X168413380Y-262752221D01*
X168413380Y-262847459D01*
X168365761Y-262990316D01*
X168270523Y-263085554D01*
X168175285Y-263133173D01*
X167984809Y-263180792D01*
X167841952Y-263180792D01*
X167651476Y-263133173D01*
X167556238Y-263085554D01*
X167461000Y-262990316D01*
X167413380Y-262847459D01*
X167413380Y-262752221D01*
X167461000Y-262609364D01*
X167508619Y-262561745D01*
X167508619Y-262180792D02*
X167461000Y-262133173D01*
X167413380Y-262037935D01*
X167413380Y-261799840D01*
X167461000Y-261704602D01*
X167508619Y-261656983D01*
X167603857Y-261609364D01*
X167699095Y-261609364D01*
X167841952Y-261656983D01*
X168413380Y-262228411D01*
X168413380Y-261609364D01*
X167413380Y-260990316D02*
X167413380Y-260895078D01*
X167461000Y-260799840D01*
X167508619Y-260752221D01*
X167603857Y-260704602D01*
X167794333Y-260656983D01*
X168032428Y-260656983D01*
X168222904Y-260704602D01*
X168318142Y-260752221D01*
X168365761Y-260799840D01*
X168413380Y-260895078D01*
X168413380Y-260990316D01*
X168365761Y-261085554D01*
X168318142Y-261133173D01*
X168222904Y-261180792D01*
X168032428Y-261228411D01*
X167794333Y-261228411D01*
X167603857Y-261180792D01*
X167508619Y-261133173D01*
X167461000Y-261085554D01*
X167413380Y-260990316D01*
%TO.C,C16*%
X158361142Y-264263142D02*
X158313523Y-264310761D01*
X158170666Y-264358380D01*
X158075428Y-264358380D01*
X157932571Y-264310761D01*
X157837333Y-264215523D01*
X157789714Y-264120285D01*
X157742095Y-263929809D01*
X157742095Y-263786952D01*
X157789714Y-263596476D01*
X157837333Y-263501238D01*
X157932571Y-263406000D01*
X158075428Y-263358380D01*
X158170666Y-263358380D01*
X158313523Y-263406000D01*
X158361142Y-263453619D01*
X159313523Y-264358380D02*
X158742095Y-264358380D01*
X159027809Y-264358380D02*
X159027809Y-263358380D01*
X158932571Y-263501238D01*
X158837333Y-263596476D01*
X158742095Y-263644095D01*
X160170666Y-263358380D02*
X159980190Y-263358380D01*
X159884952Y-263406000D01*
X159837333Y-263453619D01*
X159742095Y-263596476D01*
X159694476Y-263786952D01*
X159694476Y-264167904D01*
X159742095Y-264263142D01*
X159789714Y-264310761D01*
X159884952Y-264358380D01*
X160075428Y-264358380D01*
X160170666Y-264310761D01*
X160218285Y-264263142D01*
X160265904Y-264167904D01*
X160265904Y-263929809D01*
X160218285Y-263834571D01*
X160170666Y-263786952D01*
X160075428Y-263739333D01*
X159884952Y-263739333D01*
X159789714Y-263786952D01*
X159742095Y-263834571D01*
X159694476Y-263929809D01*
%TO.C,U15*%
X154057904Y-261381380D02*
X154057904Y-262190904D01*
X154105523Y-262286142D01*
X154153142Y-262333761D01*
X154248380Y-262381380D01*
X154438857Y-262381380D01*
X154534095Y-262333761D01*
X154581714Y-262286142D01*
X154629333Y-262190904D01*
X154629333Y-261381380D01*
X155629333Y-262381380D02*
X155057904Y-262381380D01*
X155343619Y-262381380D02*
X155343619Y-261381380D01*
X155248380Y-261524238D01*
X155153142Y-261619476D01*
X155057904Y-261667095D01*
X156534095Y-261381380D02*
X156057904Y-261381380D01*
X156010285Y-261857571D01*
X156057904Y-261809952D01*
X156153142Y-261762333D01*
X156391238Y-261762333D01*
X156486476Y-261809952D01*
X156534095Y-261857571D01*
X156581714Y-261952809D01*
X156581714Y-262190904D01*
X156534095Y-262286142D01*
X156486476Y-262333761D01*
X156391238Y-262381380D01*
X156153142Y-262381380D01*
X156057904Y-262333761D01*
X156010285Y-262286142D01*
%TO.C,JP3*%
X112042380Y-180665333D02*
X112756666Y-180665333D01*
X112899523Y-180712952D01*
X112994761Y-180808190D01*
X113042380Y-180951047D01*
X113042380Y-181046285D01*
X113042380Y-180189142D02*
X112042380Y-180189142D01*
X112042380Y-179808190D01*
X112090000Y-179712952D01*
X112137619Y-179665333D01*
X112232857Y-179617714D01*
X112375714Y-179617714D01*
X112470952Y-179665333D01*
X112518571Y-179712952D01*
X112566190Y-179808190D01*
X112566190Y-180189142D01*
X112042380Y-179284380D02*
X112042380Y-178665333D01*
X112423333Y-178998666D01*
X112423333Y-178855809D01*
X112470952Y-178760571D01*
X112518571Y-178712952D01*
X112613809Y-178665333D01*
X112851904Y-178665333D01*
X112947142Y-178712952D01*
X112994761Y-178760571D01*
X113042380Y-178855809D01*
X113042380Y-179141523D01*
X112994761Y-179236761D01*
X112947142Y-179284380D01*
%TO.C,J8*%
X204554666Y-247643880D02*
X204554666Y-248358166D01*
X204507047Y-248501023D01*
X204411809Y-248596261D01*
X204268952Y-248643880D01*
X204173714Y-248643880D01*
X205173714Y-248072452D02*
X205078476Y-248024833D01*
X205030857Y-247977214D01*
X204983238Y-247881976D01*
X204983238Y-247834357D01*
X205030857Y-247739119D01*
X205078476Y-247691500D01*
X205173714Y-247643880D01*
X205364190Y-247643880D01*
X205459428Y-247691500D01*
X205507047Y-247739119D01*
X205554666Y-247834357D01*
X205554666Y-247881976D01*
X205507047Y-247977214D01*
X205459428Y-248024833D01*
X205364190Y-248072452D01*
X205173714Y-248072452D01*
X205078476Y-248120071D01*
X205030857Y-248167690D01*
X204983238Y-248262928D01*
X204983238Y-248453404D01*
X205030857Y-248548642D01*
X205078476Y-248596261D01*
X205173714Y-248643880D01*
X205364190Y-248643880D01*
X205459428Y-248596261D01*
X205507047Y-248548642D01*
X205554666Y-248453404D01*
X205554666Y-248262928D01*
X205507047Y-248167690D01*
X205459428Y-248120071D01*
X205364190Y-248072452D01*
%TO.C,J9*%
X178228666Y-170902380D02*
X178228666Y-171616666D01*
X178181047Y-171759523D01*
X178085809Y-171854761D01*
X177942952Y-171902380D01*
X177847714Y-171902380D01*
X178752476Y-171902380D02*
X178942952Y-171902380D01*
X179038190Y-171854761D01*
X179085809Y-171807142D01*
X179181047Y-171664285D01*
X179228666Y-171473809D01*
X179228666Y-171092857D01*
X179181047Y-170997619D01*
X179133428Y-170950000D01*
X179038190Y-170902380D01*
X178847714Y-170902380D01*
X178752476Y-170950000D01*
X178704857Y-170997619D01*
X178657238Y-171092857D01*
X178657238Y-171330952D01*
X178704857Y-171426190D01*
X178752476Y-171473809D01*
X178847714Y-171521428D01*
X179038190Y-171521428D01*
X179133428Y-171473809D01*
X179181047Y-171426190D01*
X179228666Y-171330952D01*
D11*
%TO.C,J10*%
X111506000Y-173034000D02*
X111506000Y-170374000D01*
X108906000Y-170374000D02*
X110236000Y-170374000D01*
X111506000Y-170374000D02*
X134426000Y-170374000D01*
X111506000Y-173034000D02*
X134426000Y-173034000D01*
X134426000Y-173034000D02*
X134426000Y-170374000D01*
X108906000Y-171704000D02*
X108906000Y-170374000D01*
%TO.C,U7*%
X154540000Y-245648000D02*
X153280000Y-245648000D01*
X154540000Y-239638000D02*
X154540000Y-245648000D01*
X147720000Y-245648000D02*
X148980000Y-245648000D01*
X147720000Y-241888000D02*
X147720000Y-245648000D01*
%TO.C,U13*%
X167301000Y-202194000D02*
X170301000Y-202194000D01*
X167301000Y-204194000D02*
X170301000Y-204194000D01*
X167301000Y-203194000D02*
X170301000Y-203194000D01*
X167301000Y-205194000D02*
X170301000Y-205194000D01*
X167301000Y-201194000D02*
X170301000Y-201194000D01*
X165301000Y-200194000D02*
X167301000Y-200194000D01*
X167301000Y-200194000D02*
X167301000Y-208194000D01*
X167301000Y-208194000D02*
X165301000Y-208194000D01*
X165301000Y-208194000D02*
X165301000Y-200194000D01*
X206301000Y-198194000D02*
X165301000Y-198194000D01*
X165301000Y-198194000D02*
X165301000Y-239194000D01*
X165301000Y-239194000D02*
X206301000Y-239194000D01*
X206301000Y-239194000D02*
X206301000Y-198194000D01*
X206301000Y-234194000D02*
X202301000Y-234194000D01*
X202301000Y-234194000D02*
X202301000Y-224194000D01*
X202301000Y-224194000D02*
X206301000Y-224194000D01*
X206301000Y-224194000D02*
X206301000Y-234194000D01*
%TO.C,U6*%
X158108000Y-219709000D02*
X158108000Y-221209000D01*
X147708000Y-221209000D02*
X148658000Y-221209000D01*
X158108000Y-221209000D02*
X157158000Y-221209000D01*
X148658000Y-221209000D02*
X148658000Y-226334000D01*
X147708000Y-219709000D02*
X147708000Y-221209000D01*
X157158000Y-221209000D02*
X157158000Y-222309000D01*
%TO.C,Q1*%
X123226000Y-256794000D02*
X123226000Y-257444000D01*
X120106000Y-256794000D02*
X120106000Y-258469000D01*
X123226000Y-256794000D02*
X123226000Y-256144000D01*
X120106000Y-256794000D02*
X120106000Y-256144000D01*
%TO.C,C13*%
X157453000Y-243974252D02*
X157453000Y-243451748D01*
X155983000Y-243974252D02*
X155983000Y-243451748D01*
%TO.C,J11*%
X180026000Y-264354000D02*
X181356000Y-264354000D01*
X182626000Y-264354000D02*
X205546000Y-264354000D01*
X182626000Y-267014000D02*
X205546000Y-267014000D01*
X182626000Y-267014000D02*
X182626000Y-264354000D01*
X205546000Y-267014000D02*
X205546000Y-264354000D01*
X180026000Y-265684000D02*
X180026000Y-264354000D01*
%TO.C,J17*%
X111506000Y-172914000D02*
X134426000Y-172914000D01*
X111506000Y-175574000D02*
X134426000Y-175574000D01*
X111506000Y-175574000D02*
X111506000Y-172914000D01*
X108906000Y-172914000D02*
X110236000Y-172914000D01*
X134426000Y-175574000D02*
X134426000Y-172914000D01*
X108906000Y-174244000D02*
X108906000Y-172914000D01*
%TO.C,U5*%
X108331000Y-249174000D02*
X108331000Y-231394000D01*
X108331000Y-231394000D02*
X145161000Y-231394000D01*
X145161000Y-249174000D02*
X108331000Y-249174000D01*
X145161000Y-237109000D02*
X145161000Y-249174000D01*
X145161000Y-231394000D02*
X145161000Y-237109000D01*
%TO.C,J19*%
X111506000Y-264474000D02*
X111506000Y-261814000D01*
X111506000Y-264474000D02*
X134426000Y-264474000D01*
X134426000Y-264474000D02*
X134426000Y-261814000D01*
X108906000Y-261814000D02*
X110236000Y-261814000D01*
X111506000Y-261814000D02*
X134426000Y-261814000D01*
X108906000Y-263144000D02*
X108906000Y-261814000D01*
%TO.C,JP6*%
X156706000Y-251414000D02*
X156706000Y-252014000D01*
X154606000Y-250714000D02*
X156006000Y-250714000D01*
X153906000Y-252014000D02*
X153906000Y-251414000D01*
X156006000Y-252714000D02*
X154606000Y-252714000D01*
X154606000Y-250714000D02*
G75*
G03*
X153906000Y-251414000I-1J-699999D01*
G01*
X156706000Y-251414000D02*
G75*
G03*
X156006000Y-250714000I-700000J0D01*
G01*
X156006000Y-252714000D02*
G75*
G03*
X156706000Y-252014000I0J700000D01*
G01*
X153906000Y-252014000D02*
G75*
G03*
X154606000Y-252714000I699999J-1D01*
G01*
%TO.C,C19*%
X171296000Y-255577748D02*
X171296000Y-256100252D01*
X169826000Y-255577748D02*
X169826000Y-256100252D01*
%TO.C,C12*%
X157660748Y-247623000D02*
X158183252Y-247623000D01*
X157660748Y-246153000D02*
X158183252Y-246153000D01*
%TO.C,JP9*%
X150257000Y-232878000D02*
X152257000Y-232878000D01*
X152257000Y-235678000D02*
X150257000Y-235678000D01*
X150257000Y-235678000D02*
X150257000Y-232878000D01*
X152257000Y-232878000D02*
X152257000Y-235678000D01*
%TO.C,J12*%
X108906000Y-265684000D02*
X108906000Y-264354000D01*
X111506000Y-264354000D02*
X134426000Y-264354000D01*
X108906000Y-264354000D02*
X110236000Y-264354000D01*
X111506000Y-267014000D02*
X134426000Y-267014000D01*
X134426000Y-267014000D02*
X134426000Y-264354000D01*
X111506000Y-267014000D02*
X111506000Y-264354000D01*
%TO.C,C11*%
X140489000Y-227002748D02*
X140489000Y-227525252D01*
X141959000Y-227002748D02*
X141959000Y-227525252D01*
%TO.C,U4*%
X108331000Y-183134000D02*
X128651000Y-183134000D01*
X128651000Y-183134000D02*
X128651000Y-183134000D01*
X128651000Y-183134000D02*
X108331000Y-183134000D01*
X108331000Y-183134000D02*
X108331000Y-183134000D01*
X128651000Y-183134000D02*
X128651000Y-183134000D01*
X128651000Y-183134000D02*
X128651000Y-228854000D01*
X128651000Y-228854000D02*
X128651000Y-228854000D01*
X128651000Y-228854000D02*
X128651000Y-183134000D01*
X108331000Y-228854000D02*
X108331000Y-228854000D01*
X108331000Y-228854000D02*
X108331000Y-198374000D01*
X108331000Y-198374000D02*
X108331000Y-198374000D01*
X108331000Y-198374000D02*
X108331000Y-228854000D01*
X108331000Y-198374000D02*
X108331000Y-198374000D01*
X108331000Y-198374000D02*
X108331000Y-183134000D01*
X108331000Y-183134000D02*
X108331000Y-183134000D01*
X108331000Y-183134000D02*
X108331000Y-198374000D01*
X128651000Y-228854000D02*
X108331000Y-228854000D01*
X108331000Y-228854000D02*
X108331000Y-228854000D01*
X108331000Y-228854000D02*
X128651000Y-228854000D01*
X128651000Y-228854000D02*
X128651000Y-228854000D01*
%TO.C,R4*%
X157222564Y-228319000D02*
X156768436Y-228319000D01*
X157222564Y-229789000D02*
X156768436Y-229789000D01*
%TO.C,JP10*%
X180387000Y-253254000D02*
X181787000Y-253254000D01*
X182487000Y-253954000D02*
X182487000Y-254554000D01*
X179687000Y-254554000D02*
X179687000Y-253954000D01*
X181787000Y-255254000D02*
X180387000Y-255254000D01*
X179687000Y-254554000D02*
G75*
G03*
X180387000Y-255254000I699999J-1D01*
G01*
X182487000Y-253954000D02*
G75*
G03*
X181787000Y-253254000I-700000J0D01*
G01*
X180387000Y-253254000D02*
G75*
G03*
X179687000Y-253954000I-1J-699999D01*
G01*
X181787000Y-255254000D02*
G75*
G03*
X182487000Y-254554000I0J700000D01*
G01*
%TO.C,JP11*%
X181914000Y-259572000D02*
X180514000Y-259572000D01*
X182614000Y-258272000D02*
X182614000Y-258872000D01*
X180514000Y-257572000D02*
X181914000Y-257572000D01*
X179814000Y-258872000D02*
X179814000Y-258272000D01*
X179814000Y-258872000D02*
G75*
G03*
X180514000Y-259572000I699999J-1D01*
G01*
X180514000Y-257572000D02*
G75*
G03*
X179814000Y-258272000I-1J-699999D01*
G01*
X181914000Y-259572000D02*
G75*
G03*
X182614000Y-258872000I0J700000D01*
G01*
X182614000Y-258272000D02*
G75*
G03*
X181914000Y-257572000I-700000J0D01*
G01*
%TO.C,J16*%
X182626000Y-175574000D02*
X182626000Y-172914000D01*
X182626000Y-175574000D02*
X205546000Y-175574000D01*
X180026000Y-172914000D02*
X181356000Y-172914000D01*
X205546000Y-175574000D02*
X205546000Y-172914000D01*
X182626000Y-172914000D02*
X205546000Y-172914000D01*
X180026000Y-174244000D02*
X180026000Y-172914000D01*
%TO.C,JP12*%
X137652000Y-220153000D02*
X137652000Y-221553000D01*
X136352000Y-219453000D02*
X136952000Y-219453000D01*
X135652000Y-221553000D02*
X135652000Y-220153000D01*
X136952000Y-222253000D02*
X136352000Y-222253000D01*
X137652000Y-220153000D02*
G75*
G03*
X136952000Y-219453000I-699999J1D01*
G01*
X136352000Y-219453000D02*
G75*
G03*
X135652000Y-220153000I-1J-699999D01*
G01*
X136952000Y-222253000D02*
G75*
G03*
X137652000Y-221553000I0J700000D01*
G01*
X135652000Y-221553000D02*
G75*
G03*
X136352000Y-222253000I700000J0D01*
G01*
%TO.C,J18*%
X180026000Y-263144000D02*
X180026000Y-261814000D01*
X182626000Y-264474000D02*
X182626000Y-261814000D01*
X205546000Y-264474000D02*
X205546000Y-261814000D01*
X180026000Y-261814000D02*
X181356000Y-261814000D01*
X182626000Y-264474000D02*
X205546000Y-264474000D01*
X182626000Y-261814000D02*
X205546000Y-261814000D01*
%TO.C,JP7*%
X146515800Y-230108000D02*
X146515800Y-228108000D01*
X146515800Y-228108000D02*
X149315800Y-228108000D01*
X149315800Y-228108000D02*
X149315800Y-230108000D01*
X149315800Y-230108000D02*
X146515800Y-230108000D01*
%TO.C,C10*%
X137895000Y-227002748D02*
X137895000Y-227525252D01*
X136425000Y-227002748D02*
X136425000Y-227525252D01*
%TO.C,U8*%
X148112000Y-260644000D02*
X148112000Y-250404000D01*
X143471000Y-253673000D02*
X144981000Y-253673000D01*
X143471000Y-257374000D02*
X144981000Y-257374000D01*
X143471000Y-250404000D02*
X148112000Y-250404000D01*
X144981000Y-260644000D02*
X144981000Y-250404000D01*
X143471000Y-260644000D02*
X143471000Y-250404000D01*
X143471000Y-260644000D02*
X148112000Y-260644000D01*
%TO.C,C18*%
X166016000Y-255577748D02*
X166016000Y-256100252D01*
X167486000Y-255577748D02*
X167486000Y-256100252D01*
%TO.C,JP4*%
X132380000Y-222238000D02*
X131780000Y-222238000D01*
X131080000Y-221538000D02*
X131080000Y-220138000D01*
X133080000Y-220138000D02*
X133080000Y-221538000D01*
X131780000Y-219438000D02*
X132380000Y-219438000D01*
X131780000Y-219438000D02*
G75*
G03*
X131080000Y-220138000I-1J-699999D01*
G01*
X132380000Y-222238000D02*
G75*
G03*
X133080000Y-221538000I0J700000D01*
G01*
X133080000Y-220138000D02*
G75*
G03*
X132380000Y-219438000I-699999J1D01*
G01*
X131080000Y-221538000D02*
G75*
G03*
X131780000Y-222238000I700000J0D01*
G01*
%TO.C,R5*%
X152069436Y-228373000D02*
X152523564Y-228373000D01*
X152069436Y-229843000D02*
X152523564Y-229843000D01*
%TO.C,U14*%
X177546000Y-169799000D02*
X141986000Y-169799000D01*
X141986000Y-169799000D02*
X141986000Y-195199000D01*
X141986000Y-195199000D02*
X177546000Y-195199000D01*
X177546000Y-195199000D02*
X177546000Y-169799000D01*
%TO.C,JP8*%
X154702000Y-232788000D02*
X156702000Y-232788000D01*
X156702000Y-232788000D02*
X156702000Y-235588000D01*
X156702000Y-235588000D02*
X154702000Y-235588000D01*
X154702000Y-235588000D02*
X154702000Y-232788000D01*
%TO.C,C20*%
X163171000Y-264039888D02*
X162711000Y-264039888D01*
X163171000Y-262438888D02*
X161683000Y-262438888D01*
X166712000Y-262558888D02*
X165251000Y-262558888D01*
X166458000Y-263199888D02*
X165251000Y-263199888D01*
X163171000Y-263919888D02*
X162558000Y-263919888D01*
X164729000Y-264479888D02*
X163693000Y-264479888D01*
X166789000Y-262038888D02*
X161633000Y-262038888D01*
X166739000Y-262438888D02*
X165251000Y-262438888D01*
X166501000Y-263119888D02*
X165251000Y-263119888D01*
X163171000Y-264079888D02*
X162768000Y-264079888D01*
X163171000Y-263839888D02*
X162468000Y-263839888D01*
X166754000Y-262358888D02*
X165251000Y-262358888D01*
X166360000Y-263359888D02*
X165251000Y-263359888D01*
X165389000Y-264239888D02*
X163033000Y-264239888D01*
X166276000Y-263479888D02*
X165251000Y-263479888D01*
X165686000Y-259114113D02*
X165686000Y-259614113D01*
X163171000Y-263959888D02*
X162606000Y-263959888D01*
X166731000Y-262478888D02*
X165251000Y-262478888D01*
X165126000Y-264359888D02*
X163296000Y-264359888D01*
X166540000Y-263039888D02*
X165251000Y-263039888D01*
X163171000Y-263679888D02*
X162310000Y-263679888D01*
X165462000Y-264199888D02*
X165251000Y-264199888D01*
X166691000Y-262639888D02*
X165251000Y-262639888D01*
X163171000Y-263079888D02*
X161901000Y-263079888D01*
X163171000Y-262879888D02*
X161813000Y-262879888D01*
X163171000Y-262839888D02*
X161797000Y-262839888D01*
X165954000Y-263839888D02*
X165251000Y-263839888D01*
X166576000Y-262959888D02*
X165251000Y-262959888D01*
X163171000Y-263319888D02*
X162036000Y-263319888D01*
X166112000Y-263679888D02*
X165251000Y-263679888D01*
X166037000Y-263759888D02*
X165251000Y-263759888D01*
X165309000Y-264279888D02*
X163113000Y-264279888D01*
X166780000Y-262158888D02*
X165251000Y-262158888D01*
X163171000Y-262959888D02*
X161846000Y-262959888D01*
X163171000Y-263519888D02*
X162176000Y-263519888D01*
X163171000Y-263159888D02*
X161943000Y-263159888D01*
X165864000Y-263919888D02*
X165251000Y-263919888D01*
X163171000Y-263439888D02*
X162116000Y-263439888D01*
X163171000Y-262799888D02*
X161783000Y-262799888D01*
X163171000Y-262358888D02*
X161668000Y-262358888D01*
X166666000Y-262719888D02*
X165251000Y-262719888D01*
X165016000Y-264399888D02*
X163406000Y-264399888D01*
X163171000Y-263479888D02*
X162146000Y-263479888D01*
X163171000Y-262398888D02*
X161675000Y-262398888D01*
X163171000Y-262999888D02*
X161863000Y-262999888D01*
X165936000Y-259364113D02*
X165436000Y-259364113D01*
X166767000Y-262278888D02*
X165251000Y-262278888D01*
X166679000Y-262679888D02*
X165251000Y-262679888D01*
X163171000Y-262278888D02*
X161655000Y-262278888D01*
X166593000Y-262919888D02*
X165251000Y-262919888D01*
X163171000Y-262639888D02*
X161731000Y-262639888D01*
X163171000Y-263199888D02*
X161964000Y-263199888D01*
X166182000Y-263599888D02*
X165251000Y-263599888D01*
X163171000Y-263759888D02*
X162385000Y-263759888D01*
X166075000Y-263719888D02*
X165251000Y-263719888D01*
X166761000Y-262318888D02*
X165251000Y-262318888D01*
X163171000Y-262158888D02*
X161642000Y-262158888D01*
X163171000Y-263279888D02*
X162011000Y-263279888D01*
X164495000Y-264519888D02*
X163927000Y-264519888D01*
X166148000Y-263639888D02*
X165251000Y-263639888D01*
X166625000Y-262839888D02*
X165251000Y-262839888D01*
X163171000Y-262598888D02*
X161720000Y-262598888D01*
X166772000Y-262238888D02*
X165251000Y-262238888D01*
X163171000Y-263039888D02*
X161882000Y-263039888D01*
X163171000Y-263119888D02*
X161921000Y-263119888D01*
X166784000Y-262118888D02*
X161638000Y-262118888D01*
X166747000Y-262398888D02*
X165251000Y-262398888D01*
X163171000Y-263639888D02*
X162274000Y-263639888D01*
X166790000Y-261998888D02*
X161632000Y-261998888D01*
X166386000Y-263319888D02*
X165251000Y-263319888D01*
X166559000Y-262999888D02*
X165251000Y-262999888D01*
X165594000Y-264119888D02*
X165251000Y-264119888D01*
X163171000Y-262719888D02*
X161756000Y-262719888D01*
X166333000Y-263399888D02*
X165251000Y-263399888D01*
X163171000Y-262679888D02*
X161743000Y-262679888D01*
X163171000Y-264199888D02*
X162960000Y-264199888D01*
X163171000Y-263399888D02*
X162089000Y-263399888D01*
X166791000Y-261958888D02*
X161631000Y-261958888D01*
X163171000Y-262919888D02*
X161829000Y-262919888D01*
X165222000Y-264319888D02*
X163200000Y-264319888D01*
X166479000Y-263159888D02*
X165251000Y-263159888D01*
X166639000Y-262799888D02*
X165251000Y-262799888D01*
X166776000Y-262198888D02*
X165251000Y-262198888D01*
X165765000Y-263999888D02*
X165251000Y-263999888D01*
X165530000Y-264159888D02*
X165251000Y-264159888D01*
X166609000Y-262879888D02*
X165251000Y-262879888D01*
X163171000Y-262318888D02*
X161661000Y-262318888D01*
X163171000Y-263599888D02*
X162240000Y-263599888D01*
X163171000Y-263239888D02*
X161987000Y-263239888D01*
X163171000Y-262238888D02*
X161650000Y-262238888D01*
X166653000Y-262759888D02*
X165251000Y-262759888D01*
X163171000Y-263359888D02*
X162062000Y-263359888D01*
X165816000Y-263959888D02*
X165251000Y-263959888D01*
X163171000Y-262558888D02*
X161710000Y-262558888D01*
X163171000Y-263879888D02*
X162512000Y-263879888D01*
X163171000Y-263799888D02*
X162426000Y-263799888D01*
X163171000Y-262478888D02*
X161691000Y-262478888D01*
X163171000Y-264159888D02*
X162892000Y-264159888D01*
X165711000Y-264039888D02*
X165251000Y-264039888D01*
X163171000Y-262759888D02*
X161769000Y-262759888D01*
X163171000Y-262198888D02*
X161646000Y-262198888D01*
X163171000Y-264119888D02*
X162828000Y-264119888D01*
X166215000Y-263559888D02*
X165251000Y-263559888D01*
X163171000Y-262518888D02*
X161700000Y-262518888D01*
X166246000Y-263519888D02*
X165251000Y-263519888D01*
X166722000Y-262518888D02*
X165251000Y-262518888D01*
X166306000Y-263439888D02*
X165251000Y-263439888D01*
X165996000Y-263799888D02*
X165251000Y-263799888D01*
X166411000Y-263279888D02*
X165251000Y-263279888D01*
X165654000Y-264079888D02*
X165251000Y-264079888D01*
X166791000Y-261918888D02*
X161631000Y-261918888D01*
X163171000Y-263999888D02*
X162657000Y-263999888D01*
X163171000Y-263559888D02*
X162207000Y-263559888D01*
X166787000Y-262078888D02*
X161635000Y-262078888D01*
X166435000Y-263239888D02*
X165251000Y-263239888D01*
X166702000Y-262598888D02*
X165251000Y-262598888D01*
X163171000Y-263719888D02*
X162347000Y-263719888D01*
X164888000Y-264439888D02*
X163534000Y-264439888D01*
X166521000Y-263079888D02*
X165251000Y-263079888D01*
X165910000Y-263879888D02*
X165251000Y-263879888D01*
X166831000Y-261918888D02*
G75*
G03*
X166831000Y-261918888I-2620000J0D01*
G01*
%TO.C,C16*%
X155186748Y-263171000D02*
X155709252Y-263171000D01*
X155186748Y-264641000D02*
X155709252Y-264641000D01*
%TO.C,U15*%
X159396000Y-260839000D02*
X153386000Y-260839000D01*
X157146000Y-254019000D02*
X153386000Y-254019000D01*
X153386000Y-260839000D02*
X153386000Y-259579000D01*
X153386000Y-254019000D02*
X153386000Y-255279000D01*
%TO.C,JP3*%
X109936000Y-178290000D02*
X110536000Y-178290000D01*
X109236000Y-180390000D02*
X109236000Y-178990000D01*
X111236000Y-178990000D02*
X111236000Y-180390000D01*
X110536000Y-181090000D02*
X109936000Y-181090000D01*
X110536000Y-181090000D02*
G75*
G03*
X111236000Y-180390000I0J700000D01*
G01*
X109936000Y-178290000D02*
G75*
G03*
X109236000Y-178990000I-1J-699999D01*
G01*
X111236000Y-178990000D02*
G75*
G03*
X110536000Y-178290000I-699999J1D01*
G01*
X109236000Y-180390000D02*
G75*
G03*
X109936000Y-181090000I700000J0D01*
G01*
%TO.C,J8*%
X195538000Y-249341500D02*
X197438000Y-249341500D01*
X201438000Y-249341500D02*
X210238000Y-249341500D01*
X195338000Y-257691500D02*
X195338000Y-258741500D01*
X210238000Y-249341500D02*
X210238000Y-258541500D01*
X195538000Y-258541500D02*
X195538000Y-255941500D01*
X195538000Y-252041500D02*
X195538000Y-249341500D01*
X210238000Y-258541500D02*
X195538000Y-258541500D01*
X196388000Y-258741500D02*
X195338000Y-258741500D01*
%TO.C,J9*%
X180026000Y-171704000D02*
X180026000Y-170374000D01*
X182626000Y-173034000D02*
X205546000Y-173034000D01*
X182626000Y-173034000D02*
X182626000Y-170374000D01*
X205546000Y-173034000D02*
X205546000Y-170374000D01*
X182626000Y-170374000D02*
X205546000Y-170374000D01*
X180026000Y-170374000D02*
X181356000Y-170374000D01*
%TD*%
M02*
