%TF.GenerationSoftware,KiCad,Pcbnew,6.0.7-f9a2dced07~116~ubuntu20.04.1*%
%TF.CreationDate,2022-10-31T14:42:26+01:00*%
%TF.ProjectId,av_citynode_hw,61765f63-6974-4796-9e6f-64655f68772e,rev?*%
%TF.SameCoordinates,Original*%
%TF.FileFunction,Soldermask,Bot*%
%TF.FilePolarity,Negative*%
%FSLAX46Y46*%
G04 Gerber Fmt 4.6, Leading zero omitted, Abs format (unit mm)*
G04 Created by KiCad (PCBNEW 6.0.7-f9a2dced07~116~ubuntu20.04.1) date 2022-10-31 14:42:26*
%MOMM*%
%LPD*%
G01*
G04 APERTURE LIST*
G04 Aperture macros list*
%AMRoundRect*
0 Rectangle with rounded corners*
0 $1 Rounding radius*
0 $2 $3 $4 $5 $6 $7 $8 $9 X,Y pos of 4 corners*
0 Add a 4 corners polygon primitive as box body*
4,1,4,$2,$3,$4,$5,$6,$7,$8,$9,$2,$3,0*
0 Add four circle primitives for the rounded corners*
1,1,$1+$1,$2,$3*
1,1,$1+$1,$4,$5*
1,1,$1+$1,$6,$7*
1,1,$1+$1,$8,$9*
0 Add four rect primitives between the rounded corners*
20,1,$1+$1,$2,$3,$4,$5,0*
20,1,$1+$1,$4,$5,$6,$7,0*
20,1,$1+$1,$6,$7,$8,$9,0*
20,1,$1+$1,$8,$9,$2,$3,0*%
G04 Aperture macros list end*
%ADD10R,1.700000X1.700000*%
%ADD11O,1.700000X1.700000*%
%ADD12C,4.300000*%
%ADD13C,3.000000*%
%ADD14C,14.000000*%
%ADD15C,1.524000*%
%ADD16R,2.000000X1.905000*%
%ADD17O,2.000000X1.905000*%
%ADD18C,4.000000*%
%ADD19R,1.600000X1.600000*%
%ADD20C,1.600000*%
%ADD21R,3.500000X3.500000*%
%ADD22RoundRect,0.750000X0.750000X1.000000X-0.750000X1.000000X-0.750000X-1.000000X0.750000X-1.000000X0*%
%ADD23RoundRect,0.875000X0.875000X0.875000X-0.875000X0.875000X-0.875000X-0.875000X0.875000X-0.875000X0*%
G04 APERTURE END LIST*
D10*
%TO.C,J10*%
X110236000Y-171704000D03*
D11*
X112776000Y-171704000D03*
X115316000Y-171704000D03*
X117856000Y-171704000D03*
X120396000Y-171704000D03*
X122936000Y-171704000D03*
X125476000Y-171704000D03*
X128016000Y-171704000D03*
X130556000Y-171704000D03*
X133096000Y-171704000D03*
%TD*%
D10*
%TO.C,J11*%
X181356000Y-265684000D03*
D11*
X183896000Y-265684000D03*
X186436000Y-265684000D03*
X188976000Y-265684000D03*
X191516000Y-265684000D03*
X194056000Y-265684000D03*
X196596000Y-265684000D03*
X199136000Y-265684000D03*
X201676000Y-265684000D03*
X204216000Y-265684000D03*
%TD*%
D12*
%TO.C,H5*%
X139446000Y-176784000D03*
%TD*%
D10*
%TO.C,J17*%
X110236000Y-174244000D03*
D11*
X112776000Y-174244000D03*
X115316000Y-174244000D03*
X117856000Y-174244000D03*
X120396000Y-174244000D03*
X122936000Y-174244000D03*
X125476000Y-174244000D03*
X128016000Y-174244000D03*
X130556000Y-174244000D03*
X133096000Y-174244000D03*
%TD*%
D13*
%TO.C,U5*%
X141986000Y-243459000D03*
X141986000Y-235839000D03*
X111506000Y-235839000D03*
X111506000Y-243459000D03*
%TD*%
D10*
%TO.C,J19*%
X110236000Y-263144000D03*
D11*
X112776000Y-263144000D03*
X115316000Y-263144000D03*
X117856000Y-263144000D03*
X120396000Y-263144000D03*
X122936000Y-263144000D03*
X125476000Y-263144000D03*
X128016000Y-263144000D03*
X130556000Y-263144000D03*
X133096000Y-263144000D03*
%TD*%
D14*
%TO.C,H8*%
X136601200Y-209702400D03*
%TD*%
D10*
%TO.C,J12*%
X110236000Y-265684000D03*
D11*
X112776000Y-265684000D03*
X115316000Y-265684000D03*
X117856000Y-265684000D03*
X120396000Y-265684000D03*
X122936000Y-265684000D03*
X125476000Y-265684000D03*
X128016000Y-265684000D03*
X130556000Y-265684000D03*
X133096000Y-265684000D03*
%TD*%
D15*
%TO.C,U4*%
X110871000Y-198374000D03*
X110871000Y-200914000D03*
X110871000Y-203454000D03*
X110871000Y-205994000D03*
%TD*%
D10*
%TO.C,J16*%
X181356000Y-174244000D03*
D11*
X183896000Y-174244000D03*
X186436000Y-174244000D03*
X188976000Y-174244000D03*
X191516000Y-174244000D03*
X194056000Y-174244000D03*
X196596000Y-174244000D03*
X199136000Y-174244000D03*
X201676000Y-174244000D03*
X204216000Y-174244000D03*
%TD*%
D10*
%TO.C,J18*%
X181356000Y-263144000D03*
D11*
X183896000Y-263144000D03*
X186436000Y-263144000D03*
X188976000Y-263144000D03*
X191516000Y-263144000D03*
X194056000Y-263144000D03*
X196596000Y-263144000D03*
X199136000Y-263144000D03*
X201676000Y-263144000D03*
X204216000Y-263144000D03*
%TD*%
D16*
%TO.C,U8*%
X146741000Y-258064000D03*
D17*
X146741000Y-255524000D03*
X146741000Y-252984000D03*
%TD*%
D12*
%TO.C,H6*%
X140208000Y-263906000D03*
%TD*%
D13*
%TO.C,U14*%
X175006000Y-171999000D03*
X144006000Y-192999000D03*
X144006000Y-171999000D03*
D18*
X174256000Y-183749000D03*
D13*
X175006000Y-192999000D03*
D15*
X143256000Y-178689000D03*
X143256000Y-181229000D03*
X143256000Y-183769000D03*
X143256000Y-186309000D03*
%TD*%
D19*
%TO.C,C20*%
X164211000Y-260668888D03*
D20*
X164211000Y-263168888D03*
%TD*%
D21*
%TO.C,J8*%
X196438000Y-253941500D03*
D22*
X202438000Y-253941500D03*
D23*
X199438000Y-249241500D03*
%TD*%
D10*
%TO.C,J9*%
X181356000Y-171704000D03*
D11*
X183896000Y-171704000D03*
X186436000Y-171704000D03*
X188976000Y-171704000D03*
X191516000Y-171704000D03*
X194056000Y-171704000D03*
X196596000Y-171704000D03*
X199136000Y-171704000D03*
X201676000Y-171704000D03*
X204216000Y-171704000D03*
%TD*%
M02*
