%TF.GenerationSoftware,KiCad,Pcbnew,6.0.7-f9a2dced07~116~ubuntu20.04.1*%
%TF.CreationDate,2022-10-31T15:29:47+01:00*%
%TF.ProjectId,av_citynode_hw,61765f63-6974-4796-9e6f-64655f68772e,rev?*%
%TF.SameCoordinates,Original*%
%TF.FileFunction,Soldermask,Bot*%
%TF.FilePolarity,Negative*%
%FSLAX46Y46*%
G04 Gerber Fmt 4.6, Leading zero omitted, Abs format (unit mm)*
G04 Created by KiCad (PCBNEW 6.0.7-f9a2dced07~116~ubuntu20.04.1) date 2022-10-31 15:29:47*
%MOMM*%
%LPD*%
G01*
G04 APERTURE LIST*
G04 Aperture macros list*
%AMRoundRect*
0 Rectangle with rounded corners*
0 $1 Rounding radius*
0 $2 $3 $4 $5 $6 $7 $8 $9 X,Y pos of 4 corners*
0 Add a 4 corners polygon primitive as box body*
4,1,4,$2,$3,$4,$5,$6,$7,$8,$9,$2,$3,0*
0 Add four circle primitives for the rounded corners*
1,1,$1+$1,$2,$3*
1,1,$1+$1,$4,$5*
1,1,$1+$1,$6,$7*
1,1,$1+$1,$8,$9*
0 Add four rect primitives between the rounded corners*
20,1,$1+$1,$2,$3,$4,$5,0*
20,1,$1+$1,$4,$5,$6,$7,0*
20,1,$1+$1,$6,$7,$8,$9,0*
20,1,$1+$1,$8,$9,$2,$3,0*%
G04 Aperture macros list end*
%ADD10O,1.700000X1.700000*%
%ADD11R,1.700000X1.700000*%
%ADD12C,4.300000*%
%ADD13RoundRect,0.250000X-0.450000X0.262500X-0.450000X-0.262500X0.450000X-0.262500X0.450000X0.262500X0*%
%ADD14C,2.000000*%
%ADD15R,2.000000X2.000000*%
%ADD16C,1.524000*%
%ADD17C,3.500000*%
%ADD18C,4.000000*%
%ADD19C,14.000000*%
%ADD20RoundRect,0.250000X-0.250000X-0.475000X0.250000X-0.475000X0.250000X0.475000X-0.250000X0.475000X0*%
%ADD21C,3.000000*%
G04 APERTURE END LIST*
D10*
%TO.C,J3*%
X299224000Y234376000D03*
X296684000Y234376000D03*
X294144000Y234376000D03*
X291604000Y234376000D03*
X289064000Y234376000D03*
X286524000Y234376000D03*
X283984000Y234376000D03*
X281444000Y234376000D03*
X278904000Y234376000D03*
D11*
X276364000Y234376000D03*
%TD*%
D10*
%TO.C,J22*%
X228104000Y236916000D03*
X225564000Y236916000D03*
X223024000Y236916000D03*
X220484000Y236916000D03*
X217944000Y236916000D03*
X215404000Y236916000D03*
X212864000Y236916000D03*
X210324000Y236916000D03*
X207784000Y236916000D03*
D11*
X205244000Y236916000D03*
%TD*%
D10*
%TO.C,J24*%
X228104000Y142936000D03*
X225564000Y142936000D03*
X223024000Y142936000D03*
X220484000Y142936000D03*
X217944000Y142936000D03*
X215404000Y142936000D03*
X212864000Y142936000D03*
X210324000Y142936000D03*
X207784000Y142936000D03*
D11*
X205244000Y142936000D03*
%TD*%
D12*
%TO.C,H1*%
X234454000Y231836000D03*
%TD*%
%TO.C,H2*%
X235089000Y144714000D03*
%TD*%
D10*
%TO.C,J21*%
X299224000Y236916000D03*
X296684000Y236916000D03*
X294144000Y236916000D03*
X291604000Y236916000D03*
X289064000Y236916000D03*
X286524000Y236916000D03*
X283984000Y236916000D03*
X281444000Y236916000D03*
X278904000Y236916000D03*
D11*
X276364000Y236916000D03*
%TD*%
D10*
%TO.C,J23*%
X299224000Y142936000D03*
X296684000Y142936000D03*
X294144000Y142936000D03*
X291604000Y142936000D03*
X289064000Y142936000D03*
X286524000Y142936000D03*
X283984000Y142936000D03*
X281444000Y142936000D03*
X278904000Y142936000D03*
D11*
X276364000Y142936000D03*
%TD*%
%TO.C,J3*%
X248404500Y135737500D03*
D10*
X248404500Y133197500D03*
%TD*%
%TO.C,J14*%
X299224000Y145501000D03*
X296684000Y145501000D03*
X294144000Y145501000D03*
X291604000Y145501000D03*
X289064000Y145501000D03*
X286524000Y145501000D03*
X283984000Y145501000D03*
X281444000Y145501000D03*
X278904000Y145501000D03*
D11*
X276364000Y145501000D03*
%TD*%
D10*
%TO.C,J5*%
X228104000Y234376000D03*
X225564000Y234376000D03*
X223024000Y234376000D03*
X220484000Y234376000D03*
X217944000Y234376000D03*
X215404000Y234376000D03*
X212864000Y234376000D03*
X210324000Y234376000D03*
X207784000Y234376000D03*
D11*
X205244000Y234376000D03*
%TD*%
D10*
%TO.C,J15*%
X228104000Y145476000D03*
X225564000Y145476000D03*
X223024000Y145476000D03*
X220484000Y145476000D03*
X217944000Y145476000D03*
X215404000Y145476000D03*
X212864000Y145476000D03*
X210324000Y145476000D03*
X207784000Y145476000D03*
D11*
X205244000Y145476000D03*
%TD*%
D13*
%TO.C,R1*%
X242054500Y126633000D03*
X242054500Y124808000D03*
%TD*%
D14*
%TO.C,C15*%
X231510323Y155382000D03*
D15*
X228010323Y155382000D03*
%TD*%
D13*
%TO.C,R2*%
X239608500Y108784000D03*
X239608500Y106959000D03*
%TD*%
D11*
%TO.C,J3*%
X274344500Y117877500D03*
D10*
X274344500Y115337500D03*
%TD*%
%TO.C,J13*%
X244614000Y154615000D03*
X244614000Y157155000D03*
X244614000Y159695000D03*
X244614000Y162235000D03*
D11*
X244614000Y164775000D03*
%TD*%
D13*
%TO.C,R1*%
X267900500Y126622000D03*
X267900500Y124797000D03*
%TD*%
%TO.C,R1*%
X267994500Y108773000D03*
X267994500Y106948000D03*
%TD*%
D11*
%TO.C,J1*%
X205138000Y128131000D03*
D10*
X205138000Y125591000D03*
%TD*%
D11*
%TO.C,J4*%
X222918000Y128131000D03*
D10*
X222918000Y125591000D03*
%TD*%
D11*
%TO.C,J4*%
X223012000Y110282000D03*
D10*
X223012000Y107742000D03*
%TD*%
D13*
%TO.C,R1*%
X216662000Y108797500D03*
X216662000Y106972500D03*
%TD*%
D11*
%TO.C,J1*%
X205232000Y110282000D03*
D10*
X205232000Y107742000D03*
%TD*%
D16*
%TO.C,AFE1*%
X274967000Y195006000D03*
X277507000Y195006000D03*
X280047000Y195006000D03*
X282587000Y195006000D03*
X285127000Y195006000D03*
X287667000Y195006000D03*
D17*
X265315000Y231836000D03*
X265315000Y198562000D03*
X297319000Y198562000D03*
%TD*%
D11*
%TO.C,J4*%
X274344500Y110257500D03*
D10*
X274344500Y107717500D03*
%TD*%
D11*
%TO.C,J3*%
X248498500Y117888500D03*
D10*
X248498500Y115348500D03*
%TD*%
D13*
%TO.C,R2*%
X265360500Y126622000D03*
X265360500Y124797000D03*
%TD*%
D11*
%TO.C,J4*%
X274250500Y128106500D03*
D10*
X274250500Y125566500D03*
%TD*%
D11*
%TO.C,J1*%
X230718500Y110268500D03*
D10*
X230718500Y107728500D03*
%TD*%
D13*
%TO.C,R2*%
X239514500Y126633000D03*
X239514500Y124808000D03*
%TD*%
D18*
%TO.C,U12*%
X245608000Y220894000D03*
X220608000Y220894000D03*
X245608000Y176894000D03*
X220608000Y176894000D03*
D19*
X231608000Y198894000D03*
%TD*%
D11*
%TO.C,J1*%
X256470500Y128106500D03*
D10*
X256470500Y125566500D03*
%TD*%
D11*
%TO.C,J1*%
X256564500Y110257500D03*
D10*
X256564500Y107717500D03*
%TD*%
D11*
%TO.C,J2*%
X230624500Y135737500D03*
D10*
X230624500Y133197500D03*
%TD*%
D16*
%TO.C,AFE2*%
X287667000Y184846000D03*
X285127000Y184846000D03*
X282587000Y184846000D03*
X280047000Y184846000D03*
X277507000Y184846000D03*
X274967000Y184846000D03*
D17*
X265315000Y181290000D03*
X265315000Y148016000D03*
X297319000Y181290000D03*
%TD*%
D20*
%TO.C,C14*%
X224482000Y149286000D03*
X222582000Y149286000D03*
%TD*%
D16*
%TO.C,U11*%
X252369000Y169733000D03*
X252369000Y167193000D03*
X252369000Y164653000D03*
X252369000Y162113000D03*
X252369000Y159573000D03*
X252369000Y157033000D03*
X252369000Y154493000D03*
X252369000Y151953000D03*
X252369000Y149413000D03*
X252369000Y146873000D03*
D21*
X257449000Y148143000D03*
%TD*%
D11*
%TO.C,J3*%
X222918000Y135751000D03*
D10*
X222918000Y133211000D03*
%TD*%
D11*
%TO.C,J3*%
X274250500Y135726500D03*
D10*
X274250500Y133186500D03*
%TD*%
D11*
%TO.C,J2*%
X205138000Y135751000D03*
D10*
X205138000Y133211000D03*
%TD*%
D11*
%TO.C,J2*%
X256470500Y135726500D03*
D10*
X256470500Y133186500D03*
%TD*%
D11*
%TO.C,J3*%
X223012000Y117902000D03*
D10*
X223012000Y115362000D03*
%TD*%
D13*
%TO.C,R1*%
X216568000Y126646500D03*
X216568000Y124821500D03*
%TD*%
D16*
%TO.C,U10*%
X248424000Y236916000D03*
X248424000Y234376000D03*
X248424000Y231836000D03*
X248424000Y229296000D03*
D21*
X257314000Y230566000D03*
%TD*%
D11*
%TO.C,J2*%
X205232000Y117902000D03*
D10*
X205232000Y115362000D03*
%TD*%
D11*
%TO.C,J2*%
X230718500Y117888500D03*
D10*
X230718500Y115348500D03*
%TD*%
D13*
%TO.C,R2*%
X265454500Y108773000D03*
X265454500Y106948000D03*
%TD*%
%TO.C,R1*%
X242148500Y108784000D03*
X242148500Y106959000D03*
%TD*%
D11*
%TO.C,J2*%
X256564500Y117877500D03*
D10*
X256564500Y115337500D03*
%TD*%
D11*
%TO.C,J4*%
X248498500Y110268500D03*
D10*
X248498500Y107728500D03*
%TD*%
D13*
%TO.C,R2*%
X214028000Y126646500D03*
X214028000Y124821500D03*
%TD*%
D11*
%TO.C,J4*%
X248404500Y128117500D03*
D10*
X248404500Y125577500D03*
%TD*%
%TO.C,J20*%
X238010000Y166050000D03*
X238010000Y163510000D03*
X238010000Y160970000D03*
X238010000Y158430000D03*
X238010000Y155890000D03*
D11*
X238010000Y153350000D03*
%TD*%
%TO.C,J1*%
X230624500Y128117500D03*
D10*
X230624500Y125577500D03*
%TD*%
D13*
%TO.C,R2*%
X214122000Y108797500D03*
X214122000Y106972500D03*
%TD*%
M02*
