M48
; DRILL file {KiCad 6.0.7-f9a2dced07~116~ubuntu20.04.1} date Mon 31 Oct 2022 03:29:40 PM CET
; FORMAT={-:-/ absolute / metric / decimal}
; #@! TF.CreationDate,2022-10-31T15:29:40+01:00
; #@! TF.GenerationSoftware,Kicad,Pcbnew,6.0.7-f9a2dced07~116~ubuntu20.04.1
; #@! TF.FileFunction,Plated,1,2,PTH
FMAT,2
METRIC
; #@! TA.AperFunction,Plated,PTH,ViaDrill
T1C0.400
; #@! TA.AperFunction,Plated,PTH,ComponentDrill
T2C0.762
; #@! TA.AperFunction,Plated,PTH,ComponentDrill
T3C1.000
%
G90
G05
T1
X212.25Y124.575
X212.344Y106.726
X212.504Y132.068
X212.504Y129.147
X212.598Y114.219
X212.598Y111.298
X212.758Y136.513
X212.852Y118.664
X215.171Y124.194
X215.265Y106.345
X215.552Y129.274
X215.646Y111.425
X215.679Y132.068
X215.773Y114.219
X218.346Y124.448
X218.44Y106.599
X237.736Y124.561
X237.831Y106.712
X237.99Y132.054
X237.99Y129.133
X238.084Y114.206
X238.084Y111.284
X238.244Y136.499
X238.338Y118.65
X240.657Y124.18
X240.751Y106.331
X241.038Y129.261
X241.132Y111.411
X241.165Y132.054
X241.26Y114.206
X243.832Y124.434
X243.926Y106.585
X263.582Y124.55
X263.676Y106.701
X263.837Y132.043
X263.837Y129.123
X263.93Y114.194
X263.93Y111.273
X264.09Y136.488
X264.185Y118.639
X266.503Y124.169
X266.597Y106.32
X266.885Y129.249
X266.978Y111.4
X267.012Y132.043
X267.106Y114.194
X269.678Y124.423
X269.772Y106.575
T2
X248.424Y236.916
X248.424Y234.376
X248.424Y231.836
X248.424Y229.296
X252.369Y169.733
X252.369Y167.193
X252.369Y164.653
X252.369Y162.113
X252.369Y159.573
X252.369Y157.033
X252.369Y154.493
X252.369Y151.953
X252.369Y149.413
X252.369Y146.873
X274.967Y195.006
X274.967Y184.846
X277.507Y195.006
X277.507Y184.846
X280.047Y195.006
X280.047Y184.846
X282.587Y195.006
X282.587Y184.846
X285.127Y195.006
X285.127Y184.846
X287.667Y195.006
X287.667Y184.846
T3
X205.138Y135.751
X205.138Y133.211
X205.138Y128.131
X205.138Y125.591
X205.232Y117.902
X205.232Y115.362
X205.232Y110.282
X205.232Y107.742
X205.244Y236.916
X205.244Y234.376
X205.244Y145.476
X205.244Y142.936
X207.784Y236.916
X207.784Y234.376
X207.784Y145.476
X207.784Y142.936
X210.324Y236.916
X210.324Y234.376
X210.324Y145.476
X210.324Y142.936
X212.864Y236.916
X212.864Y234.376
X212.864Y145.476
X212.864Y142.936
X215.404Y236.916
X215.404Y234.376
X215.404Y145.476
X215.404Y142.936
X217.944Y236.916
X217.944Y234.376
X217.944Y145.476
X217.944Y142.936
X220.484Y236.916
X220.484Y234.376
X220.484Y145.476
X220.484Y142.936
X222.918Y135.751
X222.918Y133.211
X222.918Y128.131
X222.918Y125.591
X223.012Y117.902
X223.012Y115.362
X223.012Y110.282
X223.012Y107.742
X223.024Y236.916
X223.024Y234.376
X223.024Y145.476
X223.024Y142.936
X225.564Y236.916
X225.564Y234.376
X225.564Y145.476
X225.564Y142.936
X228.01Y155.382
X228.104Y236.916
X228.104Y234.376
X228.104Y145.476
X228.104Y142.936
X230.624Y135.737
X230.624Y133.197
X230.624Y128.118
X230.624Y125.578
X230.718Y117.888
X230.718Y115.349
X230.718Y110.268
X230.718Y107.728
X231.51Y155.382
X238.01Y166.05
X238.01Y163.51
X238.01Y160.97
X238.01Y158.43
X238.01Y155.89
X238.01Y153.35
X244.614Y164.775
X244.614Y162.235
X244.614Y159.695
X244.614Y157.155
X244.614Y154.615
X248.404Y135.737
X248.404Y133.197
X248.404Y128.118
X248.404Y125.578
X248.498Y117.888
X248.498Y115.349
X248.498Y110.268
X248.498Y107.728
X256.471Y135.726
X256.471Y133.186
X256.471Y128.106
X256.471Y125.566
X256.565Y117.877
X256.565Y115.337
X256.565Y110.257
X256.565Y107.718
X274.25Y135.726
X274.25Y133.186
X274.25Y128.106
X274.25Y125.566
X274.344Y117.877
X274.344Y115.337
X274.344Y110.257
X274.344Y107.718
X276.364Y236.916
X276.364Y234.376
X276.364Y145.501
X276.364Y142.936
X278.904Y236.916
X278.904Y234.376
X278.904Y145.501
X278.904Y142.936
X281.444Y236.916
X281.444Y234.376
X281.444Y145.501
X281.444Y142.936
X283.984Y236.916
X283.984Y234.376
X283.984Y145.501
X283.984Y142.936
X286.524Y236.916
X286.524Y234.376
X286.524Y145.501
X286.524Y142.936
X289.064Y236.916
X289.064Y234.376
X289.064Y145.501
X289.064Y142.936
X291.604Y236.916
X291.604Y234.376
X291.604Y145.501
X291.604Y142.936
X294.144Y236.916
X294.144Y234.376
X294.144Y145.501
X294.144Y142.936
X296.684Y236.916
X296.684Y234.376
X296.684Y145.501
X296.684Y142.936
X299.224Y236.916
X299.224Y234.376
X299.224Y145.501
X299.224Y142.936
T0
M30
