%TF.GenerationSoftware,KiCad,Pcbnew,6.0.7-f9a2dced07~116~ubuntu20.04.1*%
%TF.CreationDate,2022-10-31T15:29:47+01:00*%
%TF.ProjectId,av_citynode_hw,61765f63-6974-4796-9e6f-64655f68772e,rev?*%
%TF.SameCoordinates,Original*%
%TF.FileFunction,Profile,NP*%
%FSLAX46Y46*%
G04 Gerber Fmt 4.6, Leading zero omitted, Abs format (unit mm)*
G04 Created by KiCad (PCBNEW 6.0.7-f9a2dced07~116~ubuntu20.04.1) date 2022-10-31 15:29:47*
%MOMM*%
%LPD*%
G01*
G04 APERTURE LIST*
%TA.AperFunction,Profile*%
%ADD10C,0.100000*%
%TD*%
G04 APERTURE END LIST*
D10*
X202704000Y142936000D02*
X202704000Y236916000D01*
X253930500Y138266500D02*
X276790500Y138266500D01*
X276790500Y138266500D02*
X276790500Y123026500D01*
X276790500Y123026500D02*
X253930500Y123026500D01*
X253930500Y123026500D02*
X253930500Y138266500D01*
X202692000Y120442000D02*
X225552000Y120442000D01*
X225552000Y120442000D02*
X225552000Y105202000D01*
X225552000Y105202000D02*
X202692000Y105202000D01*
X202692000Y105202000D02*
X202692000Y120442000D01*
X228084500Y138277500D02*
X250944500Y138277500D01*
X250944500Y138277500D02*
X250944500Y123037500D01*
X250944500Y123037500D02*
X228084500Y123037500D01*
X228084500Y123037500D02*
X228084500Y138277500D01*
X205244000Y239456000D02*
G75*
G03*
X202704000Y236916000I0J-2540000D01*
G01*
X299224000Y140396000D02*
X205244000Y140396000D01*
X205244000Y239456000D02*
X298970000Y239456000D01*
X301764000Y236662000D02*
X301764000Y142936000D01*
X202598000Y138291000D02*
X225458000Y138291000D01*
X225458000Y138291000D02*
X225458000Y123051000D01*
X225458000Y123051000D02*
X202598000Y123051000D01*
X202598000Y123051000D02*
X202598000Y138291000D01*
X299224000Y140396000D02*
G75*
G03*
X301764000Y142936000I0J2540000D01*
G01*
X301764000Y236662000D02*
G75*
G03*
X298970000Y239456000I-2794000J0D01*
G01*
X228178500Y120428500D02*
X251038500Y120428500D01*
X251038500Y120428500D02*
X251038500Y105188500D01*
X251038500Y105188500D02*
X228178500Y105188500D01*
X228178500Y105188500D02*
X228178500Y120428500D01*
X202704000Y142936000D02*
G75*
G03*
X205244000Y140396000I2540000J0D01*
G01*
X254024500Y120417500D02*
X276884500Y120417500D01*
X276884500Y120417500D02*
X276884500Y105177500D01*
X276884500Y105177500D02*
X254024500Y105177500D01*
X254024500Y105177500D02*
X254024500Y120417500D01*
M02*
