%TF.GenerationSoftware,KiCad,Pcbnew,6.0.7-f9a2dced07~116~ubuntu20.04.1*%
%TF.CreationDate,2022-10-31T15:29:47+01:00*%
%TF.ProjectId,av_citynode_hw,61765f63-6974-4796-9e6f-64655f68772e,rev?*%
%TF.SameCoordinates,Original*%
%TF.FileFunction,Legend,Top*%
%TF.FilePolarity,Positive*%
%FSLAX46Y46*%
G04 Gerber Fmt 4.6, Leading zero omitted, Abs format (unit mm)*
G04 Created by KiCad (PCBNEW 6.0.7-f9a2dced07~116~ubuntu20.04.1) date 2022-10-31 15:29:47*
%MOMM*%
%LPD*%
G01*
G04 APERTURE LIST*
%ADD10C,0.150000*%
%ADD11C,0.300000*%
%ADD12C,0.120000*%
G04 APERTURE END LIST*
D10*
X228338500Y138023500D02*
X229608500Y138023500D01*
X229608500Y138023500D02*
X229608500Y136753500D01*
X229608500Y136753500D02*
X228338500Y136753500D01*
X228338500Y136753500D02*
X228338500Y138023500D01*
X202852000Y138037000D02*
X204122000Y138037000D01*
X204122000Y138037000D02*
X204122000Y136767000D01*
X204122000Y136767000D02*
X202852000Y136767000D01*
X202852000Y136767000D02*
X202852000Y138037000D01*
X228432500Y120174500D02*
X229702500Y120174500D01*
X229702500Y120174500D02*
X229702500Y118904500D01*
X229702500Y118904500D02*
X228432500Y118904500D01*
X228432500Y118904500D02*
X228432500Y120174500D01*
X202946000Y120188000D02*
X204216000Y120188000D01*
X204216000Y120188000D02*
X204216000Y118918000D01*
X204216000Y118918000D02*
X202946000Y118918000D01*
X202946000Y118918000D02*
X202946000Y120188000D01*
X254278500Y120163500D02*
X255548500Y120163500D01*
X255548500Y120163500D02*
X255548500Y118893500D01*
X255548500Y118893500D02*
X254278500Y118893500D01*
X254278500Y118893500D02*
X254278500Y120163500D01*
D11*
X247073642Y109578357D02*
X247145071Y109792642D01*
X247145071Y110149785D01*
X247073642Y110292642D01*
X247002214Y110364071D01*
X246859357Y110435500D01*
X246716500Y110435500D01*
X246573642Y110364071D01*
X246502214Y110292642D01*
X246430785Y110149785D01*
X246359357Y109864071D01*
X246287928Y109721214D01*
X246216500Y109649785D01*
X246073642Y109578357D01*
X245930785Y109578357D01*
X245787928Y109649785D01*
X245716500Y109721214D01*
X245645071Y109864071D01*
X245645071Y110221214D01*
X245716500Y110435500D01*
X247002214Y111935500D02*
X247073642Y111864071D01*
X247145071Y111649785D01*
X247145071Y111506928D01*
X247073642Y111292642D01*
X246930785Y111149785D01*
X246787928Y111078357D01*
X246502214Y111006928D01*
X246287928Y111006928D01*
X246002214Y111078357D01*
X245859357Y111149785D01*
X245716500Y111292642D01*
X245645071Y111506928D01*
X245645071Y111649785D01*
X245716500Y111864071D01*
X245787928Y111935500D01*
X247145071Y112578357D02*
X245645071Y112578357D01*
X245645071Y112935500D01*
X245716500Y113149785D01*
X245859357Y113292642D01*
X246002214Y113364071D01*
X246287928Y113435500D01*
X246502214Y113435500D01*
X246787928Y113364071D01*
X246930785Y113292642D01*
X247073642Y113149785D01*
X247145071Y112935500D01*
X247145071Y112578357D01*
X246145071Y114721214D02*
X247145071Y114721214D01*
X245573642Y114364071D02*
X246645071Y114006928D01*
X246645071Y114935500D01*
X245645071Y115792642D02*
X245645071Y115935500D01*
X245716500Y116078357D01*
X245787928Y116149785D01*
X245930785Y116221214D01*
X246216500Y116292642D01*
X246573642Y116292642D01*
X246859357Y116221214D01*
X247002214Y116149785D01*
X247073642Y116078357D01*
X247145071Y115935500D01*
X247145071Y115792642D01*
X247073642Y115649785D01*
X247002214Y115578357D01*
X246859357Y115506928D01*
X246573642Y115435500D01*
X246216500Y115435500D01*
X245930785Y115506928D01*
X245787928Y115578357D01*
X245716500Y115649785D01*
X245645071Y115792642D01*
X221493142Y127440857D02*
X221564571Y127655142D01*
X221564571Y128012285D01*
X221493142Y128155142D01*
X221421714Y128226571D01*
X221278857Y128298000D01*
X221136000Y128298000D01*
X220993142Y128226571D01*
X220921714Y128155142D01*
X220850285Y128012285D01*
X220778857Y127726571D01*
X220707428Y127583714D01*
X220636000Y127512285D01*
X220493142Y127440857D01*
X220350285Y127440857D01*
X220207428Y127512285D01*
X220136000Y127583714D01*
X220064571Y127726571D01*
X220064571Y128083714D01*
X220136000Y128298000D01*
X221421714Y129798000D02*
X221493142Y129726571D01*
X221564571Y129512285D01*
X221564571Y129369428D01*
X221493142Y129155142D01*
X221350285Y129012285D01*
X221207428Y128940857D01*
X220921714Y128869428D01*
X220707428Y128869428D01*
X220421714Y128940857D01*
X220278857Y129012285D01*
X220136000Y129155142D01*
X220064571Y129369428D01*
X220064571Y129512285D01*
X220136000Y129726571D01*
X220207428Y129798000D01*
X221564571Y130440857D02*
X220064571Y130440857D01*
X220064571Y130798000D01*
X220136000Y131012285D01*
X220278857Y131155142D01*
X220421714Y131226571D01*
X220707428Y131298000D01*
X220921714Y131298000D01*
X221207428Y131226571D01*
X221350285Y131155142D01*
X221493142Y131012285D01*
X221564571Y130798000D01*
X221564571Y130440857D01*
X220564571Y132583714D02*
X221564571Y132583714D01*
X219993142Y132226571D02*
X221064571Y131869428D01*
X221064571Y132798000D01*
X220064571Y133655142D02*
X220064571Y133798000D01*
X220136000Y133940857D01*
X220207428Y134012285D01*
X220350285Y134083714D01*
X220636000Y134155142D01*
X220993142Y134155142D01*
X221278857Y134083714D01*
X221421714Y134012285D01*
X221493142Y133940857D01*
X221564571Y133798000D01*
X221564571Y133655142D01*
X221493142Y133512285D01*
X221421714Y133440857D01*
X221278857Y133369428D01*
X220993142Y133298000D01*
X220636000Y133298000D01*
X220350285Y133369428D01*
X220207428Y133440857D01*
X220136000Y133512285D01*
X220064571Y133655142D01*
X221587142Y109591857D02*
X221658571Y109806142D01*
X221658571Y110163285D01*
X221587142Y110306142D01*
X221515714Y110377571D01*
X221372857Y110449000D01*
X221230000Y110449000D01*
X221087142Y110377571D01*
X221015714Y110306142D01*
X220944285Y110163285D01*
X220872857Y109877571D01*
X220801428Y109734714D01*
X220730000Y109663285D01*
X220587142Y109591857D01*
X220444285Y109591857D01*
X220301428Y109663285D01*
X220230000Y109734714D01*
X220158571Y109877571D01*
X220158571Y110234714D01*
X220230000Y110449000D01*
X221515714Y111949000D02*
X221587142Y111877571D01*
X221658571Y111663285D01*
X221658571Y111520428D01*
X221587142Y111306142D01*
X221444285Y111163285D01*
X221301428Y111091857D01*
X221015714Y111020428D01*
X220801428Y111020428D01*
X220515714Y111091857D01*
X220372857Y111163285D01*
X220230000Y111306142D01*
X220158571Y111520428D01*
X220158571Y111663285D01*
X220230000Y111877571D01*
X220301428Y111949000D01*
X221658571Y112591857D02*
X220158571Y112591857D01*
X220158571Y112949000D01*
X220230000Y113163285D01*
X220372857Y113306142D01*
X220515714Y113377571D01*
X220801428Y113449000D01*
X221015714Y113449000D01*
X221301428Y113377571D01*
X221444285Y113306142D01*
X221587142Y113163285D01*
X221658571Y112949000D01*
X221658571Y112591857D01*
X220658571Y114734714D02*
X221658571Y114734714D01*
X220087142Y114377571D02*
X221158571Y114020428D01*
X221158571Y114949000D01*
X220158571Y115806142D02*
X220158571Y115949000D01*
X220230000Y116091857D01*
X220301428Y116163285D01*
X220444285Y116234714D01*
X220730000Y116306142D01*
X221087142Y116306142D01*
X221372857Y116234714D01*
X221515714Y116163285D01*
X221587142Y116091857D01*
X221658571Y115949000D01*
X221658571Y115806142D01*
X221587142Y115663285D01*
X221515714Y115591857D01*
X221372857Y115520428D01*
X221087142Y115449000D01*
X220730000Y115449000D01*
X220444285Y115520428D01*
X220301428Y115591857D01*
X220230000Y115663285D01*
X220158571Y115806142D01*
X272919642Y109567357D02*
X272991071Y109781642D01*
X272991071Y110138785D01*
X272919642Y110281642D01*
X272848214Y110353071D01*
X272705357Y110424500D01*
X272562500Y110424500D01*
X272419642Y110353071D01*
X272348214Y110281642D01*
X272276785Y110138785D01*
X272205357Y109853071D01*
X272133928Y109710214D01*
X272062500Y109638785D01*
X271919642Y109567357D01*
X271776785Y109567357D01*
X271633928Y109638785D01*
X271562500Y109710214D01*
X271491071Y109853071D01*
X271491071Y110210214D01*
X271562500Y110424500D01*
X272848214Y111924500D02*
X272919642Y111853071D01*
X272991071Y111638785D01*
X272991071Y111495928D01*
X272919642Y111281642D01*
X272776785Y111138785D01*
X272633928Y111067357D01*
X272348214Y110995928D01*
X272133928Y110995928D01*
X271848214Y111067357D01*
X271705357Y111138785D01*
X271562500Y111281642D01*
X271491071Y111495928D01*
X271491071Y111638785D01*
X271562500Y111853071D01*
X271633928Y111924500D01*
X272991071Y112567357D02*
X271491071Y112567357D01*
X271491071Y112924500D01*
X271562500Y113138785D01*
X271705357Y113281642D01*
X271848214Y113353071D01*
X272133928Y113424500D01*
X272348214Y113424500D01*
X272633928Y113353071D01*
X272776785Y113281642D01*
X272919642Y113138785D01*
X272991071Y112924500D01*
X272991071Y112567357D01*
X271991071Y114710214D02*
X272991071Y114710214D01*
X271419642Y114353071D02*
X272491071Y113995928D01*
X272491071Y114924500D01*
X271491071Y115781642D02*
X271491071Y115924500D01*
X271562500Y116067357D01*
X271633928Y116138785D01*
X271776785Y116210214D01*
X272062500Y116281642D01*
X272419642Y116281642D01*
X272705357Y116210214D01*
X272848214Y116138785D01*
X272919642Y116067357D01*
X272991071Y115924500D01*
X272991071Y115781642D01*
X272919642Y115638785D01*
X272848214Y115567357D01*
X272705357Y115495928D01*
X272419642Y115424500D01*
X272062500Y115424500D01*
X271776785Y115495928D01*
X271633928Y115567357D01*
X271562500Y115638785D01*
X271491071Y115781642D01*
X246979642Y127427357D02*
X247051071Y127641642D01*
X247051071Y127998785D01*
X246979642Y128141642D01*
X246908214Y128213071D01*
X246765357Y128284500D01*
X246622500Y128284500D01*
X246479642Y128213071D01*
X246408214Y128141642D01*
X246336785Y127998785D01*
X246265357Y127713071D01*
X246193928Y127570214D01*
X246122500Y127498785D01*
X245979642Y127427357D01*
X245836785Y127427357D01*
X245693928Y127498785D01*
X245622500Y127570214D01*
X245551071Y127713071D01*
X245551071Y128070214D01*
X245622500Y128284500D01*
X246908214Y129784500D02*
X246979642Y129713071D01*
X247051071Y129498785D01*
X247051071Y129355928D01*
X246979642Y129141642D01*
X246836785Y128998785D01*
X246693928Y128927357D01*
X246408214Y128855928D01*
X246193928Y128855928D01*
X245908214Y128927357D01*
X245765357Y128998785D01*
X245622500Y129141642D01*
X245551071Y129355928D01*
X245551071Y129498785D01*
X245622500Y129713071D01*
X245693928Y129784500D01*
X247051071Y130427357D02*
X245551071Y130427357D01*
X245551071Y130784500D01*
X245622500Y130998785D01*
X245765357Y131141642D01*
X245908214Y131213071D01*
X246193928Y131284500D01*
X246408214Y131284500D01*
X246693928Y131213071D01*
X246836785Y131141642D01*
X246979642Y130998785D01*
X247051071Y130784500D01*
X247051071Y130427357D01*
X246051071Y132570214D02*
X247051071Y132570214D01*
X245479642Y132213071D02*
X246551071Y131855928D01*
X246551071Y132784500D01*
X245551071Y133641642D02*
X245551071Y133784500D01*
X245622500Y133927357D01*
X245693928Y133998785D01*
X245836785Y134070214D01*
X246122500Y134141642D01*
X246479642Y134141642D01*
X246765357Y134070214D01*
X246908214Y133998785D01*
X246979642Y133927357D01*
X247051071Y133784500D01*
X247051071Y133641642D01*
X246979642Y133498785D01*
X246908214Y133427357D01*
X246765357Y133355928D01*
X246479642Y133284500D01*
X246122500Y133284500D01*
X245836785Y133355928D01*
X245693928Y133427357D01*
X245622500Y133498785D01*
X245551071Y133641642D01*
X272825642Y127416357D02*
X272897071Y127630642D01*
X272897071Y127987785D01*
X272825642Y128130642D01*
X272754214Y128202071D01*
X272611357Y128273500D01*
X272468500Y128273500D01*
X272325642Y128202071D01*
X272254214Y128130642D01*
X272182785Y127987785D01*
X272111357Y127702071D01*
X272039928Y127559214D01*
X271968500Y127487785D01*
X271825642Y127416357D01*
X271682785Y127416357D01*
X271539928Y127487785D01*
X271468500Y127559214D01*
X271397071Y127702071D01*
X271397071Y128059214D01*
X271468500Y128273500D01*
X272754214Y129773500D02*
X272825642Y129702071D01*
X272897071Y129487785D01*
X272897071Y129344928D01*
X272825642Y129130642D01*
X272682785Y128987785D01*
X272539928Y128916357D01*
X272254214Y128844928D01*
X272039928Y128844928D01*
X271754214Y128916357D01*
X271611357Y128987785D01*
X271468500Y129130642D01*
X271397071Y129344928D01*
X271397071Y129487785D01*
X271468500Y129702071D01*
X271539928Y129773500D01*
X272897071Y130416357D02*
X271397071Y130416357D01*
X271397071Y130773500D01*
X271468500Y130987785D01*
X271611357Y131130642D01*
X271754214Y131202071D01*
X272039928Y131273500D01*
X272254214Y131273500D01*
X272539928Y131202071D01*
X272682785Y131130642D01*
X272825642Y130987785D01*
X272897071Y130773500D01*
X272897071Y130416357D01*
X271897071Y132559214D02*
X272897071Y132559214D01*
X271325642Y132202071D02*
X272397071Y131844928D01*
X272397071Y132773500D01*
X271397071Y133630642D02*
X271397071Y133773500D01*
X271468500Y133916357D01*
X271539928Y133987785D01*
X271682785Y134059214D01*
X271968500Y134130642D01*
X272325642Y134130642D01*
X272611357Y134059214D01*
X272754214Y133987785D01*
X272825642Y133916357D01*
X272897071Y133773500D01*
X272897071Y133630642D01*
X272825642Y133487785D01*
X272754214Y133416357D01*
X272611357Y133344928D01*
X272325642Y133273500D01*
X271968500Y133273500D01*
X271682785Y133344928D01*
X271539928Y133416357D01*
X271468500Y133487785D01*
X271397071Y133630642D01*
D10*
X254184500Y138012500D02*
X255454500Y138012500D01*
X255454500Y138012500D02*
X255454500Y136742500D01*
X255454500Y136742500D02*
X254184500Y136742500D01*
X254184500Y136742500D02*
X254184500Y138012500D01*
%TO.C,U1*%
X213901095Y137441619D02*
X213901095Y136632095D01*
X213948714Y136536857D01*
X213996333Y136489238D01*
X214091571Y136441619D01*
X214282047Y136441619D01*
X214377285Y136489238D01*
X214424904Y136536857D01*
X214472523Y136632095D01*
X214472523Y137441619D01*
X215472523Y136441619D02*
X214901095Y136441619D01*
X215186809Y136441619D02*
X215186809Y137441619D01*
X215091571Y137298761D01*
X214996333Y137203523D01*
X214901095Y137155904D01*
X239481595Y119579119D02*
X239481595Y118769595D01*
X239529214Y118674357D01*
X239576833Y118626738D01*
X239672071Y118579119D01*
X239862547Y118579119D01*
X239957785Y118626738D01*
X240005404Y118674357D01*
X240053023Y118769595D01*
X240053023Y119579119D01*
X241053023Y118579119D02*
X240481595Y118579119D01*
X240767309Y118579119D02*
X240767309Y119579119D01*
X240672071Y119436261D01*
X240576833Y119341023D01*
X240481595Y119293404D01*
X213995095Y119592619D02*
X213995095Y118783095D01*
X214042714Y118687857D01*
X214090333Y118640238D01*
X214185571Y118592619D01*
X214376047Y118592619D01*
X214471285Y118640238D01*
X214518904Y118687857D01*
X214566523Y118783095D01*
X214566523Y119592619D01*
X215566523Y118592619D02*
X214995095Y118592619D01*
X215280809Y118592619D02*
X215280809Y119592619D01*
X215185571Y119449761D01*
X215090333Y119354523D01*
X214995095Y119306904D01*
%TO.C,J3*%
X273046380Y234042666D02*
X273760666Y234042666D01*
X273903523Y233995047D01*
X273998761Y233899809D01*
X274046380Y233756952D01*
X274046380Y233661714D01*
X273046380Y234423619D02*
X273046380Y235042666D01*
X273427333Y234709333D01*
X273427333Y234852190D01*
X273474952Y234947428D01*
X273522571Y234995047D01*
X273617809Y235042666D01*
X273855904Y235042666D01*
X273951142Y234995047D01*
X273998761Y234947428D01*
X274046380Y234852190D01*
X274046380Y234566476D01*
X273998761Y234471238D01*
X273951142Y234423619D01*
%TO.C,J22*%
X230223380Y236233476D02*
X230937666Y236233476D01*
X231080523Y236185857D01*
X231175761Y236090619D01*
X231223380Y235947761D01*
X231223380Y235852523D01*
X230318619Y236662047D02*
X230271000Y236709666D01*
X230223380Y236804904D01*
X230223380Y237043000D01*
X230271000Y237138238D01*
X230318619Y237185857D01*
X230413857Y237233476D01*
X230509095Y237233476D01*
X230651952Y237185857D01*
X231223380Y236614428D01*
X231223380Y237233476D01*
X230318619Y237614428D02*
X230271000Y237662047D01*
X230223380Y237757285D01*
X230223380Y237995380D01*
X230271000Y238090619D01*
X230318619Y238138238D01*
X230413857Y238185857D01*
X230509095Y238185857D01*
X230651952Y238138238D01*
X231223380Y237566809D01*
X231223380Y238185857D01*
%TO.C,U1*%
X265233595Y137417119D02*
X265233595Y136607595D01*
X265281214Y136512357D01*
X265328833Y136464738D01*
X265424071Y136417119D01*
X265614547Y136417119D01*
X265709785Y136464738D01*
X265757404Y136512357D01*
X265805023Y136607595D01*
X265805023Y137417119D01*
X266805023Y136417119D02*
X266233595Y136417119D01*
X266519309Y136417119D02*
X266519309Y137417119D01*
X266424071Y137274261D01*
X266328833Y137179023D01*
X266233595Y137131404D01*
%TO.C,J24*%
X201926380Y142126476D02*
X202640666Y142126476D01*
X202783523Y142078857D01*
X202878761Y141983619D01*
X202926380Y141840761D01*
X202926380Y141745523D01*
X202021619Y142555047D02*
X201974000Y142602666D01*
X201926380Y142697904D01*
X201926380Y142936000D01*
X201974000Y143031238D01*
X202021619Y143078857D01*
X202116857Y143126476D01*
X202212095Y143126476D01*
X202354952Y143078857D01*
X202926380Y142507428D01*
X202926380Y143126476D01*
X202259714Y143983619D02*
X202926380Y143983619D01*
X201878761Y143745523D02*
X202593047Y143507428D01*
X202593047Y144126476D01*
%TO.C,U1*%
X239387595Y137428119D02*
X239387595Y136618595D01*
X239435214Y136523357D01*
X239482833Y136475738D01*
X239578071Y136428119D01*
X239768547Y136428119D01*
X239863785Y136475738D01*
X239911404Y136523357D01*
X239959023Y136618595D01*
X239959023Y137428119D01*
X240959023Y136428119D02*
X240387595Y136428119D01*
X240673309Y136428119D02*
X240673309Y137428119D01*
X240578071Y137285261D01*
X240482833Y137190023D01*
X240387595Y137142404D01*
%TO.C,J21*%
X273046380Y236106476D02*
X273760666Y236106476D01*
X273903523Y236058857D01*
X273998761Y235963619D01*
X274046380Y235820761D01*
X274046380Y235725523D01*
X273141619Y236535047D02*
X273094000Y236582666D01*
X273046380Y236677904D01*
X273046380Y236916000D01*
X273094000Y237011238D01*
X273141619Y237058857D01*
X273236857Y237106476D01*
X273332095Y237106476D01*
X273474952Y237058857D01*
X274046380Y236487428D01*
X274046380Y237106476D01*
X274046380Y238058857D02*
X274046380Y237487428D01*
X274046380Y237773142D02*
X273046380Y237773142D01*
X273189238Y237677904D01*
X273284476Y237582666D01*
X273332095Y237487428D01*
%TO.C,J23*%
X273046380Y142126476D02*
X273760666Y142126476D01*
X273903523Y142078857D01*
X273998761Y141983619D01*
X274046380Y141840761D01*
X274046380Y141745523D01*
X273141619Y142555047D02*
X273094000Y142602666D01*
X273046380Y142697904D01*
X273046380Y142936000D01*
X273094000Y143031238D01*
X273141619Y143078857D01*
X273236857Y143126476D01*
X273332095Y143126476D01*
X273474952Y143078857D01*
X274046380Y142507428D01*
X274046380Y143126476D01*
X273046380Y143459809D02*
X273046380Y144078857D01*
X273427333Y143745523D01*
X273427333Y143888380D01*
X273474952Y143983619D01*
X273522571Y144031238D01*
X273617809Y144078857D01*
X273855904Y144078857D01*
X273951142Y144031238D01*
X273998761Y143983619D01*
X274046380Y143888380D01*
X274046380Y143602666D01*
X273998761Y143507428D01*
X273951142Y143459809D01*
%TO.C,U18*%
X212023095Y148992285D02*
X212261190Y148325619D01*
X212499285Y148992285D01*
X213070714Y149325619D02*
X213165952Y149325619D01*
X213261190Y149278000D01*
X213308809Y149230380D01*
X213356428Y149135142D01*
X213404047Y148944666D01*
X213404047Y148706571D01*
X213356428Y148516095D01*
X213308809Y148420857D01*
X213261190Y148373238D01*
X213165952Y148325619D01*
X213070714Y148325619D01*
X212975476Y148373238D01*
X212927857Y148420857D01*
X212880238Y148516095D01*
X212832619Y148706571D01*
X212832619Y148944666D01*
X212880238Y149135142D01*
X212927857Y149230380D01*
X212975476Y149278000D01*
X213070714Y149325619D01*
X213832619Y148420857D02*
X213880238Y148373238D01*
X213832619Y148325619D01*
X213785000Y148373238D01*
X213832619Y148420857D01*
X213832619Y148325619D01*
X214832619Y148325619D02*
X214261190Y148325619D01*
X214546904Y148325619D02*
X214546904Y149325619D01*
X214451666Y149182761D01*
X214356428Y149087523D01*
X214261190Y149039904D01*
X216308809Y147992285D02*
X216070714Y147992285D01*
X216070714Y149420857D01*
X216308809Y149420857D01*
X216689761Y148992285D02*
X216689761Y147992285D01*
X216689761Y148944666D02*
X216785000Y148992285D01*
X216975476Y148992285D01*
X217070714Y148944666D01*
X217118333Y148897047D01*
X217165952Y148801809D01*
X217165952Y148516095D01*
X217118333Y148420857D01*
X217070714Y148373238D01*
X216975476Y148325619D01*
X216785000Y148325619D01*
X216689761Y148373238D01*
X217356428Y148230380D02*
X218118333Y148230380D01*
X218356428Y148992285D02*
X218356428Y147992285D01*
X218356428Y148944666D02*
X218451666Y148992285D01*
X218642142Y148992285D01*
X218737380Y148944666D01*
X218785000Y148897047D01*
X218832619Y148801809D01*
X218832619Y148516095D01*
X218785000Y148420857D01*
X218737380Y148373238D01*
X218642142Y148325619D01*
X218451666Y148325619D01*
X218356428Y148373238D01*
X219165952Y147992285D02*
X219404047Y147992285D01*
X219404047Y149420857D01*
X219165952Y149420857D01*
%TO.C,J14*%
X273046380Y144691476D02*
X273760666Y144691476D01*
X273903523Y144643857D01*
X273998761Y144548619D01*
X274046380Y144405761D01*
X274046380Y144310523D01*
X274046380Y145691476D02*
X274046380Y145120047D01*
X274046380Y145405761D02*
X273046380Y145405761D01*
X273189238Y145310523D01*
X273284476Y145215285D01*
X273332095Y145120047D01*
X273379714Y146548619D02*
X274046380Y146548619D01*
X272998761Y146310523D02*
X273713047Y146072428D01*
X273713047Y146691476D01*
%TO.C,J5*%
X230223380Y233534666D02*
X230937666Y233534666D01*
X231080523Y233487047D01*
X231175761Y233391809D01*
X231223380Y233248952D01*
X231223380Y233153714D01*
X230223380Y234487047D02*
X230223380Y234010857D01*
X230699571Y233963238D01*
X230651952Y234010857D01*
X230604333Y234106095D01*
X230604333Y234344190D01*
X230651952Y234439428D01*
X230699571Y234487047D01*
X230794809Y234534666D01*
X231032904Y234534666D01*
X231128142Y234487047D01*
X231175761Y234439428D01*
X231223380Y234344190D01*
X231223380Y234106095D01*
X231175761Y234010857D01*
X231128142Y233963238D01*
%TO.C,U1*%
X265327595Y119568119D02*
X265327595Y118758595D01*
X265375214Y118663357D01*
X265422833Y118615738D01*
X265518071Y118568119D01*
X265708547Y118568119D01*
X265803785Y118615738D01*
X265851404Y118663357D01*
X265899023Y118758595D01*
X265899023Y119568119D01*
X266899023Y118568119D02*
X266327595Y118568119D01*
X266613309Y118568119D02*
X266613309Y119568119D01*
X266518071Y119425261D01*
X266422833Y119330023D01*
X266327595Y119282404D01*
%TO.C,J15*%
X204180476Y148817619D02*
X204180476Y148103333D01*
X204132857Y147960476D01*
X204037619Y147865238D01*
X203894761Y147817619D01*
X203799523Y147817619D01*
X205180476Y147817619D02*
X204609047Y147817619D01*
X204894761Y147817619D02*
X204894761Y148817619D01*
X204799523Y148674761D01*
X204704285Y148579523D01*
X204609047Y148531904D01*
X206085238Y148817619D02*
X205609047Y148817619D01*
X205561428Y148341428D01*
X205609047Y148389047D01*
X205704285Y148436666D01*
X205942380Y148436666D01*
X206037619Y148389047D01*
X206085238Y148341428D01*
X206132857Y148246190D01*
X206132857Y148008095D01*
X206085238Y147912857D01*
X206037619Y147865238D01*
X205942380Y147817619D01*
X205704285Y147817619D01*
X205609047Y147865238D01*
X205561428Y147912857D01*
D12*
%TO.C,U1*%
X208028000Y135921000D02*
X208028000Y136421000D01*
X208028000Y136421000D02*
X208528000Y136421000D01*
X208528000Y135921000D02*
X208028000Y135921000D01*
X208528000Y136421000D02*
X208528000Y135921000D01*
X208528000Y136171000D02*
X219528000Y136171000D01*
X219528000Y136171000D02*
X219528000Y125171000D01*
X219528000Y125171000D02*
X208528000Y125171000D01*
X208528000Y125171000D02*
X208528000Y136171000D01*
X233608500Y118058500D02*
X233608500Y118558500D01*
X233608500Y118558500D02*
X234108500Y118558500D01*
X234108500Y118058500D02*
X233608500Y118058500D01*
X234108500Y118558500D02*
X234108500Y118058500D01*
X234108500Y118308500D02*
X245108500Y118308500D01*
X245108500Y118308500D02*
X245108500Y107308500D01*
X245108500Y107308500D02*
X234108500Y107308500D01*
X234108500Y107308500D02*
X234108500Y118308500D01*
X208122000Y118072000D02*
X208122000Y118572000D01*
X208122000Y118572000D02*
X208622000Y118572000D01*
X208622000Y118072000D02*
X208122000Y118072000D01*
X208622000Y118572000D02*
X208622000Y118072000D01*
X208622000Y118322000D02*
X219622000Y118322000D01*
X219622000Y118322000D02*
X219622000Y107322000D01*
X219622000Y107322000D02*
X208622000Y107322000D01*
X208622000Y107322000D02*
X208622000Y118322000D01*
%TO.C,J3*%
X300554000Y233046000D02*
X300554000Y235706000D01*
X277634000Y233046000D02*
X277634000Y235706000D01*
X277634000Y233046000D02*
X300554000Y233046000D01*
X275034000Y235706000D02*
X276364000Y235706000D01*
X277634000Y235706000D02*
X300554000Y235706000D01*
X275034000Y234376000D02*
X275034000Y235706000D01*
%TO.C,J22*%
X203914000Y236916000D02*
X203914000Y238246000D01*
X203914000Y238246000D02*
X205244000Y238246000D01*
X206514000Y235586000D02*
X229434000Y235586000D01*
X229434000Y235586000D02*
X229434000Y238246000D01*
X206514000Y235586000D02*
X206514000Y238246000D01*
X206514000Y238246000D02*
X229434000Y238246000D01*
%TO.C,U1*%
X259360500Y135896500D02*
X259360500Y136396500D01*
X259360500Y136396500D02*
X259860500Y136396500D01*
X259860500Y135896500D02*
X259360500Y135896500D01*
X259860500Y136396500D02*
X259860500Y135896500D01*
X259860500Y136146500D02*
X270860500Y136146500D01*
X270860500Y136146500D02*
X270860500Y125146500D01*
X270860500Y125146500D02*
X259860500Y125146500D01*
X259860500Y125146500D02*
X259860500Y136146500D01*
%TO.C,J24*%
X229434000Y141606000D02*
X229434000Y144266000D01*
X206514000Y141606000D02*
X206514000Y144266000D01*
X206514000Y141606000D02*
X229434000Y141606000D01*
X203914000Y142936000D02*
X203914000Y144266000D01*
X206514000Y144266000D02*
X229434000Y144266000D01*
X203914000Y144266000D02*
X205244000Y144266000D01*
%TO.C,U1*%
X233514500Y135907500D02*
X233514500Y136407500D01*
X233514500Y136407500D02*
X234014500Y136407500D01*
X234014500Y135907500D02*
X233514500Y135907500D01*
X234014500Y136407500D02*
X234014500Y135907500D01*
X234014500Y136157500D02*
X245014500Y136157500D01*
X245014500Y136157500D02*
X245014500Y125157500D01*
X245014500Y125157500D02*
X234014500Y125157500D01*
X234014500Y125157500D02*
X234014500Y136157500D01*
%TO.C,J21*%
X277634000Y235586000D02*
X300554000Y235586000D01*
X277634000Y235586000D02*
X277634000Y238246000D01*
X275034000Y238246000D02*
X276364000Y238246000D01*
X277634000Y238246000D02*
X300554000Y238246000D01*
X300554000Y235586000D02*
X300554000Y238246000D01*
X275034000Y236916000D02*
X275034000Y238246000D01*
%TO.C,J23*%
X277634000Y141606000D02*
X277634000Y144266000D01*
X275034000Y144266000D02*
X276364000Y144266000D01*
X300554000Y141606000D02*
X300554000Y144266000D01*
X277634000Y144266000D02*
X300554000Y144266000D01*
X277634000Y141606000D02*
X300554000Y141606000D01*
X275034000Y142936000D02*
X275034000Y144266000D01*
%TO.C,J14*%
X300554000Y144171000D02*
X300554000Y146831000D01*
X277634000Y144171000D02*
X300554000Y144171000D01*
X275034000Y146831000D02*
X276364000Y146831000D01*
X277634000Y144171000D02*
X277634000Y146831000D01*
X275034000Y145501000D02*
X275034000Y146831000D01*
X277634000Y146831000D02*
X300554000Y146831000D01*
%TO.C,J5*%
X206514000Y233046000D02*
X229434000Y233046000D01*
X203914000Y235706000D02*
X205244000Y235706000D01*
X206514000Y233046000D02*
X206514000Y235706000D01*
X206514000Y235706000D02*
X229434000Y235706000D01*
X229434000Y233046000D02*
X229434000Y235706000D01*
X203914000Y234376000D02*
X203914000Y235706000D01*
%TO.C,U1*%
X259454500Y118047500D02*
X259454500Y118547500D01*
X259454500Y118547500D02*
X259954500Y118547500D01*
X259954500Y118047500D02*
X259454500Y118047500D01*
X259954500Y118547500D02*
X259954500Y118047500D01*
X259954500Y118297500D02*
X270954500Y118297500D01*
X270954500Y118297500D02*
X270954500Y107297500D01*
X270954500Y107297500D02*
X259954500Y107297500D01*
X259954500Y107297500D02*
X259954500Y118297500D01*
%TO.C,J15*%
X229434000Y144146000D02*
X229434000Y146806000D01*
X203914000Y146806000D02*
X205244000Y146806000D01*
X203914000Y145476000D02*
X203914000Y146806000D01*
X206514000Y146806000D02*
X229434000Y146806000D01*
X206514000Y144146000D02*
X229434000Y144146000D01*
X206514000Y144146000D02*
X206514000Y146806000D01*
%TD*%
M02*
