%TF.GenerationSoftware,KiCad,Pcbnew,6.0.7-f9a2dced07~116~ubuntu20.04.1*%
%TF.CreationDate,2022-10-31T15:29:47+01:00*%
%TF.ProjectId,av_citynode_hw,61765f63-6974-4796-9e6f-64655f68772e,rev?*%
%TF.SameCoordinates,Original*%
%TF.FileFunction,Paste,Top*%
%TF.FilePolarity,Positive*%
%FSLAX46Y46*%
G04 Gerber Fmt 4.6, Leading zero omitted, Abs format (unit mm)*
G04 Created by KiCad (PCBNEW 6.0.7-f9a2dced07~116~ubuntu20.04.1) date 2022-10-31 15:29:47*
%MOMM*%
%LPD*%
G01*
G04 APERTURE LIST*
G04 Aperture macros list*
%AMRoundRect*
0 Rectangle with rounded corners*
0 $1 Rounding radius*
0 $2 $3 $4 $5 $6 $7 $8 $9 X,Y pos of 4 corners*
0 Add a 4 corners polygon primitive as box body*
4,1,4,$2,$3,$4,$5,$6,$7,$8,$9,$2,$3,0*
0 Add four circle primitives for the rounded corners*
1,1,$1+$1,$2,$3*
1,1,$1+$1,$4,$5*
1,1,$1+$1,$6,$7*
1,1,$1+$1,$8,$9*
0 Add four rect primitives between the rounded corners*
20,1,$1+$1,$2,$3,$4,$5,0*
20,1,$1+$1,$4,$5,$6,$7,0*
20,1,$1+$1,$6,$7,$8,$9,0*
20,1,$1+$1,$8,$9,$2,$3,0*%
G04 Aperture macros list end*
%ADD10RoundRect,0.200000X-0.550000X-0.200000X0.550000X-0.200000X0.550000X0.200000X-0.550000X0.200000X0*%
%ADD11RoundRect,0.200000X-0.200000X0.550000X-0.200000X-0.550000X0.200000X-0.550000X0.200000X0.550000X0*%
%ADD12RoundRect,0.200000X0.550000X0.200000X-0.550000X0.200000X-0.550000X-0.200000X0.550000X-0.200000X0*%
%ADD13RoundRect,0.200000X0.200000X-0.550000X0.200000X0.550000X-0.200000X0.550000X-0.200000X-0.550000X0*%
%ADD14R,2.300000X2.300000*%
G04 APERTURE END LIST*
D10*
%TO.C,U1*%
X209778000Y133171000D03*
X209778000Y131921000D03*
X209778000Y130671000D03*
X209778000Y129421000D03*
X209778000Y128171000D03*
D11*
X211528000Y126421000D03*
X212778000Y126421000D03*
X214028000Y126421000D03*
X215278000Y126421000D03*
X216528000Y126421000D03*
D12*
X218278000Y128171000D03*
X218278000Y129421000D03*
X218278000Y130671000D03*
X218278000Y131921000D03*
X218278000Y133171000D03*
D13*
X216528000Y134921000D03*
X215278000Y134921000D03*
X214028000Y134921000D03*
X212778000Y134921000D03*
X211528000Y134921000D03*
D14*
X212528000Y129171000D03*
X215528000Y129171000D03*
X215528000Y132171000D03*
X212528000Y132171000D03*
%TD*%
D10*
%TO.C,U1*%
X235358500Y115308500D03*
X235358500Y114058500D03*
X235358500Y112808500D03*
X235358500Y111558500D03*
X235358500Y110308500D03*
D11*
X237108500Y108558500D03*
X238358500Y108558500D03*
X239608500Y108558500D03*
X240858500Y108558500D03*
X242108500Y108558500D03*
D12*
X243858500Y110308500D03*
X243858500Y111558500D03*
X243858500Y112808500D03*
X243858500Y114058500D03*
X243858500Y115308500D03*
D13*
X242108500Y117058500D03*
X240858500Y117058500D03*
X239608500Y117058500D03*
X238358500Y117058500D03*
X237108500Y117058500D03*
D14*
X238108500Y111308500D03*
X241108500Y111308500D03*
X241108500Y114308500D03*
X238108500Y114308500D03*
%TD*%
D10*
%TO.C,U1*%
X209872000Y115322000D03*
X209872000Y114072000D03*
X209872000Y112822000D03*
X209872000Y111572000D03*
X209872000Y110322000D03*
D11*
X211622000Y108572000D03*
X212872000Y108572000D03*
X214122000Y108572000D03*
X215372000Y108572000D03*
X216622000Y108572000D03*
D12*
X218372000Y110322000D03*
X218372000Y111572000D03*
X218372000Y112822000D03*
X218372000Y114072000D03*
X218372000Y115322000D03*
D13*
X216622000Y117072000D03*
X215372000Y117072000D03*
X214122000Y117072000D03*
X212872000Y117072000D03*
X211622000Y117072000D03*
D14*
X212622000Y111322000D03*
X215622000Y111322000D03*
X215622000Y114322000D03*
X212622000Y114322000D03*
%TD*%
D10*
%TO.C,U1*%
X261110500Y133146500D03*
X261110500Y131896500D03*
X261110500Y130646500D03*
X261110500Y129396500D03*
X261110500Y128146500D03*
D11*
X262860500Y126396500D03*
X264110500Y126396500D03*
X265360500Y126396500D03*
X266610500Y126396500D03*
X267860500Y126396500D03*
D12*
X269610500Y128146500D03*
X269610500Y129396500D03*
X269610500Y130646500D03*
X269610500Y131896500D03*
X269610500Y133146500D03*
D13*
X267860500Y134896500D03*
X266610500Y134896500D03*
X265360500Y134896500D03*
X264110500Y134896500D03*
X262860500Y134896500D03*
D14*
X263860500Y129146500D03*
X266860500Y129146500D03*
X266860500Y132146500D03*
X263860500Y132146500D03*
%TD*%
D10*
%TO.C,U1*%
X235264500Y133157500D03*
X235264500Y131907500D03*
X235264500Y130657500D03*
X235264500Y129407500D03*
X235264500Y128157500D03*
D11*
X237014500Y126407500D03*
X238264500Y126407500D03*
X239514500Y126407500D03*
X240764500Y126407500D03*
X242014500Y126407500D03*
D12*
X243764500Y128157500D03*
X243764500Y129407500D03*
X243764500Y130657500D03*
X243764500Y131907500D03*
X243764500Y133157500D03*
D13*
X242014500Y134907500D03*
X240764500Y134907500D03*
X239514500Y134907500D03*
X238264500Y134907500D03*
X237014500Y134907500D03*
D14*
X238014500Y129157500D03*
X241014500Y129157500D03*
X241014500Y132157500D03*
X238014500Y132157500D03*
%TD*%
D10*
%TO.C,U1*%
X261204500Y115297500D03*
X261204500Y114047500D03*
X261204500Y112797500D03*
X261204500Y111547500D03*
X261204500Y110297500D03*
D11*
X262954500Y108547500D03*
X264204500Y108547500D03*
X265454500Y108547500D03*
X266704500Y108547500D03*
X267954500Y108547500D03*
D12*
X269704500Y110297500D03*
X269704500Y111547500D03*
X269704500Y112797500D03*
X269704500Y114047500D03*
X269704500Y115297500D03*
D13*
X267954500Y117047500D03*
X266704500Y117047500D03*
X265454500Y117047500D03*
X264204500Y117047500D03*
X262954500Y117047500D03*
D14*
X263954500Y111297500D03*
X266954500Y111297500D03*
X266954500Y114297500D03*
X263954500Y114297500D03*
%TD*%
M02*
