%TF.GenerationSoftware,KiCad,Pcbnew,6.0.7-f9a2dced07~116~ubuntu20.04.1*%
%TF.CreationDate,2022-10-31T14:44:56+01:00*%
%TF.ProjectId,av_citynode_hw,61765f63-6974-4796-9e6f-64655f68772e,rev?*%
%TF.SameCoordinates,Original*%
%TF.FileFunction,Legend,Bot*%
%TF.FilePolarity,Positive*%
%FSLAX46Y46*%
G04 Gerber Fmt 4.6, Leading zero omitted, Abs format (unit mm)*
G04 Created by KiCad (PCBNEW 6.0.7-f9a2dced07~116~ubuntu20.04.1) date 2022-10-31 14:44:56*
%MOMM*%
%LPD*%
G01*
G04 APERTURE LIST*
%ADD10C,0.150000*%
%ADD11C,0.120000*%
G04 APERTURE END LIST*
D10*
%TO.C,C14*%
X250070857Y-139832142D02*
X250118476Y-139879761D01*
X250261333Y-139927380D01*
X250356571Y-139927380D01*
X250499428Y-139879761D01*
X250594666Y-139784523D01*
X250642285Y-139689285D01*
X250689904Y-139498809D01*
X250689904Y-139355952D01*
X250642285Y-139165476D01*
X250594666Y-139070238D01*
X250499428Y-138975000D01*
X250356571Y-138927380D01*
X250261333Y-138927380D01*
X250118476Y-138975000D01*
X250070857Y-139022619D01*
X249118476Y-139927380D02*
X249689904Y-139927380D01*
X249404190Y-139927380D02*
X249404190Y-138927380D01*
X249499428Y-139070238D01*
X249594666Y-139165476D01*
X249689904Y-139213095D01*
X248261333Y-139260714D02*
X248261333Y-139927380D01*
X248499428Y-138879761D02*
X248737523Y-139594047D01*
X248118476Y-139594047D01*
%TO.C,U11*%
X276518619Y-141192095D02*
X275709095Y-141192095D01*
X275613857Y-141144476D01*
X275566238Y-141096857D01*
X275518619Y-141001619D01*
X275518619Y-140811142D01*
X275566238Y-140715904D01*
X275613857Y-140668285D01*
X275709095Y-140620666D01*
X276518619Y-140620666D01*
X275518619Y-139620666D02*
X275518619Y-140192095D01*
X275518619Y-139906380D02*
X276518619Y-139906380D01*
X276375761Y-140001619D01*
X276280523Y-140096857D01*
X276232904Y-140192095D01*
X275518619Y-138668285D02*
X275518619Y-139239714D01*
X275518619Y-138954000D02*
X276518619Y-138954000D01*
X276375761Y-139049238D01*
X276280523Y-139144476D01*
X276232904Y-139239714D01*
%TO.C,U10*%
X272708619Y-56356095D02*
X271899095Y-56356095D01*
X271803857Y-56308476D01*
X271756238Y-56260857D01*
X271708619Y-56165619D01*
X271708619Y-55975142D01*
X271756238Y-55879904D01*
X271803857Y-55832285D01*
X271899095Y-55784666D01*
X272708619Y-55784666D01*
X271708619Y-54784666D02*
X271708619Y-55356095D01*
X271708619Y-55070380D02*
X272708619Y-55070380D01*
X272565761Y-55165619D01*
X272470523Y-55260857D01*
X272422904Y-55356095D01*
X272708619Y-54165619D02*
X272708619Y-54070380D01*
X272661000Y-53975142D01*
X272613380Y-53927523D01*
X272518142Y-53879904D01*
X272327666Y-53832285D01*
X272089571Y-53832285D01*
X271899095Y-53879904D01*
X271803857Y-53927523D01*
X271756238Y-53975142D01*
X271708619Y-54070380D01*
X271708619Y-54165619D01*
X271756238Y-54260857D01*
X271803857Y-54308476D01*
X271899095Y-54356095D01*
X272089571Y-54403714D01*
X272327666Y-54403714D01*
X272518142Y-54356095D01*
X272613380Y-54308476D01*
X272661000Y-54260857D01*
X272708619Y-54165619D01*
%TO.C,J20*%
X264715523Y-135513380D02*
X264715523Y-136227666D01*
X264763142Y-136370523D01*
X264858380Y-136465761D01*
X265001238Y-136513380D01*
X265096476Y-136513380D01*
X264286952Y-135608619D02*
X264239333Y-135561000D01*
X264144095Y-135513380D01*
X263906000Y-135513380D01*
X263810761Y-135561000D01*
X263763142Y-135608619D01*
X263715523Y-135703857D01*
X263715523Y-135799095D01*
X263763142Y-135941952D01*
X264334571Y-136513380D01*
X263715523Y-136513380D01*
X263096476Y-135513380D02*
X263001238Y-135513380D01*
X262906000Y-135561000D01*
X262858380Y-135608619D01*
X262810761Y-135703857D01*
X262763142Y-135894333D01*
X262763142Y-136132428D01*
X262810761Y-136322904D01*
X262858380Y-136418142D01*
X262906000Y-136465761D01*
X263001238Y-136513380D01*
X263096476Y-136513380D01*
X263191714Y-136465761D01*
X263239333Y-136418142D01*
X263286952Y-136322904D01*
X263334571Y-136132428D01*
X263334571Y-135894333D01*
X263286952Y-135703857D01*
X263239333Y-135608619D01*
X263191714Y-135561000D01*
X263096476Y-135513380D01*
%TO.C,J13*%
X271319523Y-119428380D02*
X271319523Y-120142666D01*
X271367142Y-120285523D01*
X271462380Y-120380761D01*
X271605238Y-120428380D01*
X271700476Y-120428380D01*
X270319523Y-120428380D02*
X270890952Y-120428380D01*
X270605238Y-120428380D02*
X270605238Y-119428380D01*
X270700476Y-119571238D01*
X270795714Y-119666476D01*
X270890952Y-119714095D01*
X269986190Y-119428380D02*
X269367142Y-119428380D01*
X269700476Y-119809333D01*
X269557619Y-119809333D01*
X269462380Y-119856952D01*
X269414761Y-119904571D01*
X269367142Y-119999809D01*
X269367142Y-120237904D01*
X269414761Y-120333142D01*
X269462380Y-120380761D01*
X269557619Y-120428380D01*
X269843333Y-120428380D01*
X269938571Y-120380761D01*
X269986190Y-120333142D01*
%TO.C,AFE1*%
X309511238Y-98718666D02*
X309035047Y-98718666D01*
X309606476Y-99004380D02*
X309273142Y-98004380D01*
X308939809Y-99004380D01*
X308273142Y-98480571D02*
X308606476Y-98480571D01*
X308606476Y-99004380D02*
X308606476Y-98004380D01*
X308130285Y-98004380D01*
X307749333Y-98480571D02*
X307416000Y-98480571D01*
X307273142Y-99004380D02*
X307749333Y-99004380D01*
X307749333Y-98004380D01*
X307273142Y-98004380D01*
X306320761Y-99004380D02*
X306892190Y-99004380D01*
X306606476Y-99004380D02*
X306606476Y-98004380D01*
X306701714Y-98147238D01*
X306796952Y-98242476D01*
X306892190Y-98290095D01*
%TO.C,U12*%
X257905095Y-60158380D02*
X257905095Y-60967904D01*
X257857476Y-61063142D01*
X257809857Y-61110761D01*
X257714619Y-61158380D01*
X257524142Y-61158380D01*
X257428904Y-61110761D01*
X257381285Y-61063142D01*
X257333666Y-60967904D01*
X257333666Y-60158380D01*
X256333666Y-61158380D02*
X256905095Y-61158380D01*
X256619380Y-61158380D02*
X256619380Y-60158380D01*
X256714619Y-60301238D01*
X256809857Y-60396476D01*
X256905095Y-60444095D01*
X255952714Y-60253619D02*
X255905095Y-60206000D01*
X255809857Y-60158380D01*
X255571761Y-60158380D01*
X255476523Y-60206000D01*
X255428904Y-60253619D01*
X255381285Y-60348857D01*
X255381285Y-60444095D01*
X255428904Y-60586952D01*
X256000333Y-61158380D01*
X255381285Y-61158380D01*
%TO.C,AFE2*%
X306320761Y-95591333D02*
X306796952Y-95591333D01*
X306225523Y-95305619D02*
X306558857Y-96305619D01*
X306892190Y-95305619D01*
X307558857Y-95829428D02*
X307225523Y-95829428D01*
X307225523Y-95305619D02*
X307225523Y-96305619D01*
X307701714Y-96305619D01*
X308082666Y-95829428D02*
X308416000Y-95829428D01*
X308558857Y-95305619D02*
X308082666Y-95305619D01*
X308082666Y-96305619D01*
X308558857Y-96305619D01*
X308939809Y-96210380D02*
X308987428Y-96258000D01*
X309082666Y-96305619D01*
X309320761Y-96305619D01*
X309416000Y-96258000D01*
X309463619Y-96210380D01*
X309511238Y-96115142D01*
X309511238Y-96019904D01*
X309463619Y-95877047D01*
X308892190Y-95305619D01*
X309511238Y-95305619D01*
%TO.C,C15*%
X256299180Y-138306142D02*
X256346799Y-138353761D01*
X256489656Y-138401380D01*
X256584894Y-138401380D01*
X256727751Y-138353761D01*
X256822989Y-138258523D01*
X256870608Y-138163285D01*
X256918227Y-137972809D01*
X256918227Y-137829952D01*
X256870608Y-137639476D01*
X256822989Y-137544238D01*
X256727751Y-137449000D01*
X256584894Y-137401380D01*
X256489656Y-137401380D01*
X256346799Y-137449000D01*
X256299180Y-137496619D01*
X255346799Y-138401380D02*
X255918227Y-138401380D01*
X255632513Y-138401380D02*
X255632513Y-137401380D01*
X255727751Y-137544238D01*
X255822989Y-137639476D01*
X255918227Y-137687095D01*
X254442037Y-137401380D02*
X254918227Y-137401380D01*
X254965846Y-137877571D01*
X254918227Y-137829952D01*
X254822989Y-137782333D01*
X254584894Y-137782333D01*
X254489656Y-137829952D01*
X254442037Y-137877571D01*
X254394418Y-137972809D01*
X254394418Y-138210904D01*
X254442037Y-138306142D01*
X254489656Y-138353761D01*
X254584894Y-138401380D01*
X254822989Y-138401380D01*
X254918227Y-138353761D01*
X254965846Y-138306142D01*
D11*
%TO.C,C14*%
X249166748Y-137060000D02*
X249689252Y-137060000D01*
X249166748Y-138530000D02*
X249689252Y-138530000D01*
%TO.C,U11*%
X276995000Y-141478000D02*
X285885000Y-141478000D01*
X285885000Y-141478000D02*
X285885000Y-116078000D01*
X285885000Y-116078000D02*
X276995000Y-116078000D01*
X276995000Y-116078000D02*
X276995000Y-141478000D01*
%TO.C,U10*%
X273050000Y-59055000D02*
X285750000Y-59055000D01*
X285750000Y-59055000D02*
X285750000Y-48895000D01*
X285750000Y-48895000D02*
X273050000Y-48895000D01*
X273050000Y-48895000D02*
X273050000Y-59055000D01*
X284480000Y-52705000D02*
X281940000Y-52705000D01*
X281940000Y-52705000D02*
X281940000Y-50165000D01*
X281940000Y-50165000D02*
X284480000Y-50165000D01*
X284480000Y-50165000D02*
X284480000Y-52705000D01*
%TO.C,J20*%
X265236000Y-132461000D02*
X265236000Y-119701000D01*
X262576000Y-119701000D02*
X265236000Y-119701000D01*
X262576000Y-133731000D02*
X262576000Y-135061000D01*
X262576000Y-135061000D02*
X263906000Y-135061000D01*
X262576000Y-132461000D02*
X265236000Y-132461000D01*
X262576000Y-132461000D02*
X262576000Y-119701000D01*
%TO.C,J13*%
X271840000Y-123576000D02*
X271840000Y-133796000D01*
X271840000Y-120976000D02*
X270510000Y-120976000D01*
X271840000Y-123576000D02*
X269180000Y-123576000D01*
X271840000Y-122306000D02*
X271840000Y-120976000D01*
X269180000Y-123576000D02*
X269180000Y-133796000D01*
X271840000Y-133796000D02*
X269180000Y-133796000D01*
%TO.C,AFE1*%
X287655000Y-96901000D02*
X308737000Y-96901000D01*
X326771000Y-51943000D02*
X326771000Y-51689000D01*
X308737000Y-96901000D02*
X326771000Y-96901000D01*
X326771000Y-96901000D02*
X326771000Y-51943000D01*
X287655000Y-51689000D02*
X287655000Y-96901000D01*
X326771000Y-51689000D02*
X287655000Y-51689000D01*
X322709082Y-71247000D02*
G75*
G03*
X322709082Y-71247000I-15496082J0D01*
G01*
X293497000Y-88519000D02*
G75*
G03*
X293497000Y-88519000I-2286000J0D01*
G01*
X293381177Y-55245000D02*
G75*
G03*
X293381177Y-55245000I-2170177J0D01*
G01*
X325515068Y-88519000D02*
G75*
G03*
X325515068Y-88519000I-2300068J0D01*
G01*
%TO.C,U12*%
X282504000Y-61687000D02*
X226004000Y-61687000D01*
X222504000Y-65187000D02*
X222504000Y-133187000D01*
X257504000Y-114687000D02*
X282504000Y-114687000D01*
X246504000Y-136687000D02*
X257504000Y-114687000D01*
X286004000Y-65187000D02*
X286004000Y-111187000D01*
X226004000Y-136687000D02*
X246504000Y-136687000D01*
X222504000Y-133187000D02*
G75*
G03*
X226004000Y-136687000I3499999J-1D01*
G01*
X286004000Y-65187000D02*
G75*
G03*
X282504000Y-61687000I-3500000J0D01*
G01*
X226004000Y-61687000D02*
G75*
G03*
X222504000Y-65187000I0J-3500000D01*
G01*
X282504000Y-114687000D02*
G75*
G03*
X286004000Y-111187000I1J3499999D01*
G01*
%TO.C,AFE2*%
X326771000Y-142621000D02*
X326771000Y-97409000D01*
X287655000Y-97409000D02*
X287655000Y-142367000D01*
X287655000Y-142367000D02*
X287655000Y-142621000D01*
X305689000Y-97409000D02*
X287655000Y-97409000D01*
X287655000Y-142621000D02*
X326771000Y-142621000D01*
X326771000Y-97409000D02*
X305689000Y-97409000D01*
X293395991Y-139065000D02*
G75*
G03*
X293395991Y-139065000I-2184991J0D01*
G01*
X322709082Y-123063000D02*
G75*
G03*
X322709082Y-123063000I-15496082J0D01*
G01*
X325501000Y-105791000D02*
G75*
G03*
X325501000Y-105791000I-2286000J0D01*
G01*
X293511068Y-105791000D02*
G75*
G03*
X293511068Y-105791000I-2300068J0D01*
G01*
%TO.C,C15*%
X256857323Y-130458000D02*
X256857323Y-126761000D01*
X257457323Y-130458000D02*
X257457323Y-126945000D01*
X257137323Y-136561000D02*
X257137323Y-132940000D01*
X257497323Y-130458000D02*
X257497323Y-126961000D01*
X258257323Y-130458000D02*
X258257323Y-127328000D01*
X258137323Y-130458000D02*
X258137323Y-127259000D01*
X256617323Y-130458000D02*
X256617323Y-126709000D01*
X260057323Y-134278000D02*
X260057323Y-129120000D01*
X256016323Y-136767000D02*
X256016323Y-126631000D01*
X255656323Y-136779000D02*
X255656323Y-126619000D01*
X259817323Y-134644000D02*
X259817323Y-128754000D01*
X257617323Y-136389000D02*
X257617323Y-132940000D01*
X256176323Y-130458000D02*
X256176323Y-126645000D01*
X258257323Y-136070000D02*
X258257323Y-132940000D01*
X255736323Y-136779000D02*
X255736323Y-126619000D01*
X260537323Y-133209000D02*
X260537323Y-130189000D01*
X258897323Y-135624000D02*
X258897323Y-127774000D01*
X257417323Y-130458000D02*
X257417323Y-126931000D01*
X256176323Y-136753000D02*
X256176323Y-132940000D01*
X256977323Y-136606000D02*
X256977323Y-132940000D01*
X258217323Y-136094000D02*
X258217323Y-132940000D01*
X258177323Y-136116000D02*
X258177323Y-132940000D01*
X255896323Y-136774000D02*
X255896323Y-126624000D01*
X256817323Y-130458000D02*
X256817323Y-126752000D01*
X255696323Y-136779000D02*
X255696323Y-126619000D01*
X259257323Y-135300000D02*
X259257323Y-128098000D01*
X259457323Y-135091000D02*
X259457323Y-128307000D01*
X260417323Y-133545000D02*
X260417323Y-129853000D01*
X257137323Y-130458000D02*
X257137323Y-126837000D01*
X257057323Y-130458000D02*
X257057323Y-126814000D01*
X257417323Y-136467000D02*
X257417323Y-132940000D01*
X259617323Y-134905000D02*
X259617323Y-128493000D01*
X256697323Y-130458000D02*
X256697323Y-126725000D01*
X256857323Y-136637000D02*
X256857323Y-132940000D01*
X258017323Y-136203000D02*
X258017323Y-132940000D01*
X260497323Y-133329000D02*
X260497323Y-130069000D01*
X257897323Y-130458000D02*
X257897323Y-127135000D01*
X256216323Y-130458000D02*
X256216323Y-126649000D01*
X256457323Y-130458000D02*
X256457323Y-126681000D01*
X259497323Y-135046000D02*
X259497323Y-128352000D01*
X256977323Y-130458000D02*
X256977323Y-126792000D01*
X258457323Y-135946000D02*
X258457323Y-132940000D01*
X258977323Y-135557000D02*
X258977323Y-127841000D01*
X258377323Y-130458000D02*
X258377323Y-127401000D01*
X260657323Y-132761000D02*
X260657323Y-130637000D01*
X257537323Y-130458000D02*
X257537323Y-126976000D01*
X257777323Y-130458000D02*
X257777323Y-127078000D01*
X258817323Y-135688000D02*
X258817323Y-127710000D01*
X256497323Y-136710000D02*
X256497323Y-132940000D01*
X259217323Y-135339000D02*
X259217323Y-128059000D01*
X257857323Y-130458000D02*
X257857323Y-127115000D01*
X256817323Y-136646000D02*
X256817323Y-132940000D01*
X259057323Y-135488000D02*
X259057323Y-127910000D01*
X256336323Y-130458000D02*
X256336323Y-126664000D01*
X258937323Y-135591000D02*
X258937323Y-127807000D01*
X259857323Y-134588000D02*
X259857323Y-128810000D01*
X259577323Y-134953000D02*
X259577323Y-128445000D01*
X255976323Y-136769000D02*
X255976323Y-126629000D01*
X259417323Y-135135000D02*
X259417323Y-128263000D01*
X256256323Y-136744000D02*
X256256323Y-132940000D01*
X256937323Y-136617000D02*
X256937323Y-132940000D01*
X258857323Y-135656000D02*
X258857323Y-127742000D01*
X260457323Y-133441000D02*
X260457323Y-129957000D01*
X257297323Y-130458000D02*
X257297323Y-126888000D01*
X258457323Y-130458000D02*
X258457323Y-127452000D01*
X256577323Y-130458000D02*
X256577323Y-126702000D01*
X257057323Y-136584000D02*
X257057323Y-132940000D01*
X258377323Y-135997000D02*
X258377323Y-132940000D01*
X258497323Y-135920000D02*
X258497323Y-132940000D01*
X258697323Y-135779000D02*
X258697323Y-127619000D01*
X256697323Y-136673000D02*
X256697323Y-132940000D01*
X260337323Y-133736000D02*
X260337323Y-129662000D01*
X257017323Y-136596000D02*
X257017323Y-132940000D01*
X257217323Y-136536000D02*
X257217323Y-132940000D01*
X258297323Y-130458000D02*
X258297323Y-127352000D01*
X260297323Y-133824000D02*
X260297323Y-129574000D01*
X259697323Y-134805000D02*
X259697323Y-128593000D01*
X258417323Y-130458000D02*
X258417323Y-127426000D01*
X258537323Y-135893000D02*
X258537323Y-132940000D01*
X250176677Y-134574000D02*
X251176677Y-134574000D01*
X256777323Y-130458000D02*
X256777323Y-126743000D01*
X256136323Y-136757000D02*
X256136323Y-126641000D01*
X260737323Y-132298000D02*
X260737323Y-131100000D01*
X258097323Y-130458000D02*
X258097323Y-127237000D01*
X257497323Y-136437000D02*
X257497323Y-132940000D01*
X258417323Y-135972000D02*
X258417323Y-132940000D01*
X256256323Y-130458000D02*
X256256323Y-126654000D01*
X258337323Y-136022000D02*
X258337323Y-132940000D01*
X256897323Y-136627000D02*
X256897323Y-132940000D01*
X256737323Y-136664000D02*
X256737323Y-132940000D01*
X257977323Y-130458000D02*
X257977323Y-127174000D01*
X260137323Y-134138000D02*
X260137323Y-129260000D01*
X255776323Y-136778000D02*
X255776323Y-126620000D01*
X257817323Y-136302000D02*
X257817323Y-132940000D01*
X256377323Y-130458000D02*
X256377323Y-126669000D01*
X250676677Y-135074000D02*
X250676677Y-134074000D01*
X256377323Y-136729000D02*
X256377323Y-132940000D01*
X256737323Y-130458000D02*
X256737323Y-126734000D01*
X258017323Y-130458000D02*
X258017323Y-127195000D01*
X256497323Y-130458000D02*
X256497323Y-126688000D01*
X256657323Y-136681000D02*
X256657323Y-132940000D01*
X256777323Y-136655000D02*
X256777323Y-132940000D01*
X259017323Y-135523000D02*
X259017323Y-127875000D01*
X256096323Y-136761000D02*
X256096323Y-126637000D01*
X259337323Y-135219000D02*
X259337323Y-128179000D01*
X257697323Y-130458000D02*
X257697323Y-127042000D01*
X259177323Y-135378000D02*
X259177323Y-128020000D01*
X259657323Y-134855000D02*
X259657323Y-128543000D01*
X259137323Y-135415000D02*
X259137323Y-127983000D01*
X260377323Y-133643000D02*
X260377323Y-129755000D01*
X260097323Y-134209000D02*
X260097323Y-129189000D01*
X260697323Y-132561000D02*
X260697323Y-130837000D01*
X259297323Y-135260000D02*
X259297323Y-128138000D01*
X257297323Y-136510000D02*
X257297323Y-132940000D01*
X259897323Y-134529000D02*
X259897323Y-128869000D01*
X260577323Y-133077000D02*
X260577323Y-130321000D01*
X257577323Y-136406000D02*
X257577323Y-132940000D01*
X258097323Y-136161000D02*
X258097323Y-132940000D01*
X257377323Y-130458000D02*
X257377323Y-126916000D01*
X257337323Y-136496000D02*
X257337323Y-132940000D01*
X259097323Y-135452000D02*
X259097323Y-127946000D01*
X256216323Y-136749000D02*
X256216323Y-132940000D01*
X257857323Y-136283000D02*
X257857323Y-132940000D01*
X259737323Y-134753000D02*
X259737323Y-128645000D01*
X256657323Y-130458000D02*
X256657323Y-126717000D01*
X257257323Y-130458000D02*
X257257323Y-126875000D01*
X257737323Y-136338000D02*
X257737323Y-132940000D01*
X256537323Y-136703000D02*
X256537323Y-132940000D01*
X258617323Y-135837000D02*
X258617323Y-132940000D01*
X257217323Y-130458000D02*
X257217323Y-126862000D01*
X258057323Y-136182000D02*
X258057323Y-132940000D01*
X257257323Y-136523000D02*
X257257323Y-132940000D01*
X257537323Y-136422000D02*
X257537323Y-132940000D01*
X257177323Y-130458000D02*
X257177323Y-126849000D01*
X257017323Y-130458000D02*
X257017323Y-126802000D01*
X257377323Y-136482000D02*
X257377323Y-132940000D01*
X258657323Y-135809000D02*
X258657323Y-127589000D01*
X257737323Y-130458000D02*
X257737323Y-127060000D01*
X258777323Y-135719000D02*
X258777323Y-127679000D01*
X256296323Y-130458000D02*
X256296323Y-126659000D01*
X257097323Y-136573000D02*
X257097323Y-132940000D01*
X256617323Y-136689000D02*
X256617323Y-132940000D01*
X258737323Y-135749000D02*
X258737323Y-127649000D01*
X256897323Y-130458000D02*
X256897323Y-126771000D01*
X256537323Y-130458000D02*
X256537323Y-126695000D01*
X258217323Y-130458000D02*
X258217323Y-127304000D01*
X258177323Y-130458000D02*
X258177323Y-127282000D01*
X260017323Y-134344000D02*
X260017323Y-129054000D01*
X257817323Y-130458000D02*
X257817323Y-127096000D01*
X257937323Y-130458000D02*
X257937323Y-127154000D01*
X255856323Y-136776000D02*
X255856323Y-126622000D01*
X256296323Y-136739000D02*
X256296323Y-132940000D01*
X260257323Y-133908000D02*
X260257323Y-129490000D01*
X258577323Y-130458000D02*
X258577323Y-127533000D01*
X256577323Y-136696000D02*
X256577323Y-132940000D01*
X260177323Y-134064000D02*
X260177323Y-129334000D01*
X256417323Y-136723000D02*
X256417323Y-132940000D01*
X258137323Y-136139000D02*
X258137323Y-132940000D01*
X257457323Y-136453000D02*
X257457323Y-132940000D01*
X259377323Y-135177000D02*
X259377323Y-128221000D01*
X258617323Y-130458000D02*
X258617323Y-127561000D01*
X257937323Y-136244000D02*
X257937323Y-132940000D01*
X259537323Y-135000000D02*
X259537323Y-128398000D01*
X257977323Y-136224000D02*
X257977323Y-132940000D01*
X260217323Y-133988000D02*
X260217323Y-129410000D01*
X257657323Y-136373000D02*
X257657323Y-132940000D01*
X259777323Y-134699000D02*
X259777323Y-128699000D01*
X256417323Y-130458000D02*
X256417323Y-126675000D01*
X255816323Y-136777000D02*
X255816323Y-126621000D01*
X256937323Y-130458000D02*
X256937323Y-126781000D01*
X258057323Y-130458000D02*
X258057323Y-127216000D01*
X260617323Y-132929000D02*
X260617323Y-130469000D01*
X257337323Y-130458000D02*
X257337323Y-126902000D01*
X257617323Y-130458000D02*
X257617323Y-127009000D01*
X256056323Y-136764000D02*
X256056323Y-126634000D01*
X256336323Y-136734000D02*
X256336323Y-132940000D01*
X259937323Y-134469000D02*
X259937323Y-128929000D01*
X257577323Y-130458000D02*
X257577323Y-126992000D01*
X257777323Y-136320000D02*
X257777323Y-132940000D01*
X255936323Y-136772000D02*
X255936323Y-126626000D01*
X257897323Y-136263000D02*
X257897323Y-132940000D01*
X256457323Y-136717000D02*
X256457323Y-132940000D01*
X258577323Y-135865000D02*
X258577323Y-132940000D01*
X257697323Y-136356000D02*
X257697323Y-132940000D01*
X258297323Y-136046000D02*
X258297323Y-132940000D01*
X258337323Y-130458000D02*
X258337323Y-127376000D01*
X258537323Y-130458000D02*
X258537323Y-127505000D01*
X258497323Y-130458000D02*
X258497323Y-127478000D01*
X259977323Y-134408000D02*
X259977323Y-128990000D01*
X257097323Y-130458000D02*
X257097323Y-126825000D01*
X257657323Y-130458000D02*
X257657323Y-127025000D01*
X257177323Y-136549000D02*
X257177323Y-132940000D01*
X260776323Y-131699000D02*
G75*
G03*
X260776323Y-131699000I-5120000J0D01*
G01*
%TD*%
M02*
