M48
; DRILL file {KiCad 6.0.7-f9a2dced07~116~ubuntu20.04.1} date Mon 31 Oct 2022 02:45:00 PM CET
; FORMAT={-:-/ absolute / metric / decimal}
; #@! TF.CreationDate,2022-10-31T14:45:00+01:00
; #@! TF.GenerationSoftware,Kicad,Pcbnew,6.0.7-f9a2dced07~116~ubuntu20.04.1
; #@! TF.FileFunction,Plated,1,2,PTH
FMAT,2
METRIC
; #@! TA.AperFunction,Plated,PTH,ComponentDrill
T1C0.762
; #@! TA.AperFunction,Plated,PTH,ComponentDrill
T2C1.000
%
G90
G05
T1
X274.32Y-50.165
X274.32Y-52.705
X274.32Y-55.245
X274.32Y-57.785
X278.265Y-117.348
X278.265Y-119.888
X278.265Y-122.428
X278.265Y-124.968
X278.265Y-127.508
X278.265Y-130.048
X278.265Y-132.588
X278.265Y-135.128
X278.265Y-137.668
X278.265Y-140.208
X300.863Y-92.075
X300.863Y-102.235
X303.403Y-92.075
X303.403Y-102.235
X305.943Y-92.075
X305.943Y-102.235
X308.483Y-92.075
X308.483Y-102.235
X311.023Y-92.075
X311.023Y-102.235
X313.563Y-92.075
X313.563Y-102.235
T2
X231.14Y-50.165
X231.14Y-52.705
X231.14Y-141.605
X231.14Y-144.145
X233.68Y-50.165
X233.68Y-52.705
X233.68Y-141.605
X233.68Y-144.145
X236.22Y-50.165
X236.22Y-52.705
X236.22Y-141.605
X236.22Y-144.145
X238.76Y-50.165
X238.76Y-52.705
X238.76Y-141.605
X238.76Y-144.145
X241.3Y-50.165
X241.3Y-52.705
X241.3Y-141.605
X241.3Y-144.145
X243.84Y-50.165
X243.84Y-52.705
X243.84Y-141.605
X243.84Y-144.145
X246.38Y-50.165
X246.38Y-52.705
X246.38Y-141.605
X246.38Y-144.145
X248.92Y-50.165
X248.92Y-52.705
X248.92Y-141.605
X248.92Y-144.145
X251.46Y-50.165
X251.46Y-52.705
X251.46Y-141.605
X251.46Y-144.145
X253.906Y-131.699
X254.0Y-50.165
X254.0Y-52.705
X254.0Y-141.605
X254.0Y-144.145
X257.406Y-131.699
X263.906Y-121.031
X263.906Y-123.571
X263.906Y-126.111
X263.906Y-128.651
X263.906Y-131.191
X263.906Y-133.731
X270.51Y-122.306
X270.51Y-124.846
X270.51Y-127.386
X270.51Y-129.926
X270.51Y-132.466
X302.26Y-50.165
X302.26Y-52.705
X302.26Y-141.58
X302.26Y-144.145
X304.8Y-50.165
X304.8Y-52.705
X304.8Y-141.58
X304.8Y-144.145
X307.34Y-50.165
X307.34Y-52.705
X307.34Y-141.58
X307.34Y-144.145
X309.88Y-50.165
X309.88Y-52.705
X309.88Y-141.58
X309.88Y-144.145
X312.42Y-50.165
X312.42Y-52.705
X312.42Y-141.58
X312.42Y-144.145
X314.96Y-50.165
X314.96Y-52.705
X314.96Y-141.58
X314.96Y-144.145
X317.5Y-50.165
X317.5Y-52.705
X317.5Y-141.58
X317.5Y-144.145
X320.04Y-50.165
X320.04Y-52.705
X320.04Y-141.58
X320.04Y-144.145
X322.58Y-50.165
X322.58Y-52.705
X322.58Y-141.58
X322.58Y-144.145
X325.12Y-50.165
X325.12Y-52.705
X325.12Y-141.58
X325.12Y-144.145
T0
M30
