%TF.GenerationSoftware,KiCad,Pcbnew,6.0.7-f9a2dced07~116~ubuntu20.04.1*%
%TF.CreationDate,2022-10-31T14:44:56+01:00*%
%TF.ProjectId,av_citynode_hw,61765f63-6974-4796-9e6f-64655f68772e,rev?*%
%TF.SameCoordinates,Original*%
%TF.FileFunction,Soldermask,Top*%
%TF.FilePolarity,Negative*%
%FSLAX46Y46*%
G04 Gerber Fmt 4.6, Leading zero omitted, Abs format (unit mm)*
G04 Created by KiCad (PCBNEW 6.0.7-f9a2dced07~116~ubuntu20.04.1) date 2022-10-31 14:44:56*
%MOMM*%
%LPD*%
G01*
G04 APERTURE LIST*
%ADD10C,3.000000*%
%ADD11C,1.524000*%
%ADD12R,1.700000X1.700000*%
%ADD13O,1.700000X1.700000*%
%ADD14C,4.300000*%
%ADD15C,3.500000*%
%ADD16C,4.000000*%
%ADD17C,14.000000*%
%ADD18R,2.000000X2.000000*%
%ADD19C,2.000000*%
G04 APERTURE END LIST*
D10*
%TO.C,U11*%
X283345000Y-138938000D03*
D11*
X278265000Y-140208000D03*
X278265000Y-137668000D03*
X278265000Y-135128000D03*
X278265000Y-132588000D03*
X278265000Y-130048000D03*
X278265000Y-127508000D03*
X278265000Y-124968000D03*
X278265000Y-122428000D03*
X278265000Y-119888000D03*
X278265000Y-117348000D03*
%TD*%
D10*
%TO.C,U10*%
X283210000Y-56515000D03*
D11*
X274320000Y-57785000D03*
X274320000Y-55245000D03*
X274320000Y-52705000D03*
X274320000Y-50165000D03*
%TD*%
D12*
%TO.C,J20*%
X263906000Y-133731000D03*
D13*
X263906000Y-131191000D03*
X263906000Y-128651000D03*
X263906000Y-126111000D03*
X263906000Y-123571000D03*
X263906000Y-121031000D03*
%TD*%
D12*
%TO.C,J22*%
X231140000Y-50165000D03*
D13*
X233680000Y-50165000D03*
X236220000Y-50165000D03*
X238760000Y-50165000D03*
X241300000Y-50165000D03*
X243840000Y-50165000D03*
X246380000Y-50165000D03*
X248920000Y-50165000D03*
X251460000Y-50165000D03*
X254000000Y-50165000D03*
%TD*%
D12*
%TO.C,J3*%
X302260000Y-52705000D03*
D13*
X304800000Y-52705000D03*
X307340000Y-52705000D03*
X309880000Y-52705000D03*
X312420000Y-52705000D03*
X314960000Y-52705000D03*
X317500000Y-52705000D03*
X320040000Y-52705000D03*
X322580000Y-52705000D03*
X325120000Y-52705000D03*
%TD*%
D12*
%TO.C,J24*%
X231140000Y-144145000D03*
D13*
X233680000Y-144145000D03*
X236220000Y-144145000D03*
X238760000Y-144145000D03*
X241300000Y-144145000D03*
X243840000Y-144145000D03*
X246380000Y-144145000D03*
X248920000Y-144145000D03*
X251460000Y-144145000D03*
X254000000Y-144145000D03*
%TD*%
D14*
%TO.C,H1*%
X260350000Y-55245000D03*
%TD*%
%TO.C,H2*%
X260985000Y-142367000D03*
%TD*%
D12*
%TO.C,J13*%
X270510000Y-122306000D03*
D13*
X270510000Y-124846000D03*
X270510000Y-127386000D03*
X270510000Y-129926000D03*
X270510000Y-132466000D03*
%TD*%
D15*
%TO.C,AFE1*%
X323215000Y-88519000D03*
X291211000Y-88519000D03*
X291211000Y-55245000D03*
D11*
X313563000Y-92075000D03*
X311023000Y-92075000D03*
X308483000Y-92075000D03*
X305943000Y-92075000D03*
X303403000Y-92075000D03*
X300863000Y-92075000D03*
%TD*%
D16*
%TO.C,U12*%
X271504000Y-66187000D03*
X246504000Y-66187000D03*
X271504000Y-110187000D03*
X246504000Y-110187000D03*
D17*
X257504000Y-88187000D03*
%TD*%
D15*
%TO.C,AFE2*%
X323215000Y-105791000D03*
X291211000Y-139065000D03*
X291211000Y-105791000D03*
D11*
X300863000Y-102235000D03*
X303403000Y-102235000D03*
X305943000Y-102235000D03*
X308483000Y-102235000D03*
X311023000Y-102235000D03*
X313563000Y-102235000D03*
%TD*%
D12*
%TO.C,J15*%
X231140000Y-141605000D03*
D13*
X233680000Y-141605000D03*
X236220000Y-141605000D03*
X238760000Y-141605000D03*
X241300000Y-141605000D03*
X243840000Y-141605000D03*
X246380000Y-141605000D03*
X248920000Y-141605000D03*
X251460000Y-141605000D03*
X254000000Y-141605000D03*
%TD*%
D18*
%TO.C,C15*%
X253906323Y-131699000D03*
D19*
X257406323Y-131699000D03*
%TD*%
D12*
%TO.C,J21*%
X302260000Y-50165000D03*
D13*
X304800000Y-50165000D03*
X307340000Y-50165000D03*
X309880000Y-50165000D03*
X312420000Y-50165000D03*
X314960000Y-50165000D03*
X317500000Y-50165000D03*
X320040000Y-50165000D03*
X322580000Y-50165000D03*
X325120000Y-50165000D03*
%TD*%
D12*
%TO.C,J14*%
X302260000Y-141580000D03*
D13*
X304800000Y-141580000D03*
X307340000Y-141580000D03*
X309880000Y-141580000D03*
X312420000Y-141580000D03*
X314960000Y-141580000D03*
X317500000Y-141580000D03*
X320040000Y-141580000D03*
X322580000Y-141580000D03*
X325120000Y-141580000D03*
%TD*%
D12*
%TO.C,J5*%
X231140000Y-52705000D03*
D13*
X233680000Y-52705000D03*
X236220000Y-52705000D03*
X238760000Y-52705000D03*
X241300000Y-52705000D03*
X243840000Y-52705000D03*
X246380000Y-52705000D03*
X248920000Y-52705000D03*
X251460000Y-52705000D03*
X254000000Y-52705000D03*
%TD*%
D12*
%TO.C,J23*%
X302260000Y-144145000D03*
D13*
X304800000Y-144145000D03*
X307340000Y-144145000D03*
X309880000Y-144145000D03*
X312420000Y-144145000D03*
X314960000Y-144145000D03*
X317500000Y-144145000D03*
X320040000Y-144145000D03*
X322580000Y-144145000D03*
X325120000Y-144145000D03*
%TD*%
M02*
