M48
; DRILL file {KiCad 7.0.8-7.0.8~ubuntu20.04.1} date Sun 29 Oct 2023 03:28:42 PM CET
; FORMAT={-:-/ absolute / metric / decimal}
; #@! TF.CreationDate,2023-10-29T15:28:42+01:00
; #@! TF.GenerationSoftware,Kicad,Pcbnew,7.0.8-7.0.8~ubuntu20.04.1
; #@! TF.FileFunction,Plated,1,2,PTH
FMAT,2
METRIC
; #@! TA.AperFunction,Plated,PTH,ViaDrill
T1C0.400
; #@! TA.AperFunction,Plated,PTH,ComponentDrill
T2C0.800
; #@! TA.AperFunction,Plated,PTH,ComponentDrill
T3C1.000
%
G90
G05
T1
X81.6Y-43.9
X90.5Y-60.2
X92.6Y-61.1
X95.8Y-42.7
X97.2Y-57.4
X99.7Y-42.5
X101.3Y-53.2
X105.6Y-38.7
X145.2Y-39.2
T2
X89.255Y-41.0
X89.3Y-51.25
X91.755Y-41.0
X91.8Y-51.25
T3
X69.0Y-43.38
X69.0Y-45.92
X69.0Y-48.46
X69.0Y-51.0
X69.0Y-53.54
X69.0Y-56.08
X82.356Y-22.694
X82.356Y-25.234
X82.356Y-27.774
X82.356Y-30.314
X104.51Y-22.663
X104.51Y-25.203
X104.51Y-27.743
X104.51Y-30.283
X109.0Y-51.5
X109.0Y-55.0
X123.2Y-34.1
X123.2Y-36.64
X123.2Y-39.18
X123.2Y-41.72
X123.2Y-44.26
X123.2Y-46.8
X132.055Y-38.11
X132.055Y-55.89
X132.46Y-64.0
X134.595Y-38.11
X134.595Y-55.89
X135.0Y-64.0
X137.54Y-64.0
X139.675Y-38.11
X139.675Y-55.89
X140.08Y-64.0
X142.215Y-38.11
X142.215Y-55.89
X142.62Y-64.0
X143.08Y-23.38
X143.08Y-25.92
X143.08Y-28.46
X143.08Y-31.0
X154.0Y-23.84
X154.0Y-46.7
X155.61Y-54.385
X155.61Y-56.925
X155.61Y-62.005
X155.61Y-64.545
X156.54Y-23.84
X156.54Y-46.7
X159.08Y-23.84
X159.08Y-46.7
X161.62Y-23.84
X161.62Y-46.7
X164.16Y-23.84
X164.16Y-46.7
X166.7Y-23.84
X166.7Y-46.7
X169.24Y-23.84
X169.24Y-46.7
X171.78Y-23.84
X171.78Y-46.7
X173.39Y-54.385
X173.39Y-56.925
X173.39Y-62.005
X173.39Y-64.545
X174.32Y-23.84
X174.32Y-46.7
X176.86Y-23.84
X176.86Y-46.7
X179.4Y-23.84
X179.4Y-46.7
X181.94Y-23.84
X181.94Y-46.7
X184.48Y-23.84
X184.48Y-46.7
X188.11Y-54.385
X188.11Y-56.925
X188.11Y-62.005
X188.11Y-64.545
X196.04Y-24.57
X196.04Y-27.11
X196.04Y-29.65
X196.04Y-32.19
X196.04Y-34.73
X196.04Y-37.27
X196.04Y-39.81
X196.04Y-42.35
X196.04Y-44.89
X196.04Y-47.43
X205.18Y-34.15
X205.18Y-36.69
X205.18Y-39.23
X205.18Y-41.77
X205.18Y-44.31
X205.18Y-46.85
X205.89Y-54.385
X205.89Y-56.925
X205.89Y-62.005
X205.89Y-64.545
T3
G00X68.0Y-25.0
M15
G01X68.0Y-27.0
M16
G05
G00X70.0Y-30.7
M15
G01X72.0Y-30.7
M16
G05
G00X74.0Y-25.0
M15
G01X74.0Y-27.0
M16
G05
G00X208.0Y-27.043
M15
G01X208.0Y-25.043
M16
G05
G00X212.0Y-30.742
M15
G01X210.0Y-30.742
M16
G05
G00X214.0Y-27.043
M15
G01X214.0Y-25.043
M16
G05
T0
M30
