%TF.GenerationSoftware,KiCad,Pcbnew,7.0.8-7.0.8~ubuntu20.04.1*%
%TF.CreationDate,2023-10-29T15:28:37+01:00*%
%TF.ProjectId,Hardware_2,48617264-7761-4726-955f-322e6b696361,rev?*%
%TF.SameCoordinates,Original*%
%TF.FileFunction,Soldermask,Top*%
%TF.FilePolarity,Negative*%
%FSLAX46Y46*%
G04 Gerber Fmt 4.6, Leading zero omitted, Abs format (unit mm)*
G04 Created by KiCad (PCBNEW 7.0.8-7.0.8~ubuntu20.04.1) date 2023-10-29 15:28:37*
%MOMM*%
%LPD*%
G01*
G04 APERTURE LIST*
G04 Aperture macros list*
%AMRoundRect*
0 Rectangle with rounded corners*
0 $1 Rounding radius*
0 $2 $3 $4 $5 $6 $7 $8 $9 X,Y pos of 4 corners*
0 Add a 4 corners polygon primitive as box body*
4,1,4,$2,$3,$4,$5,$6,$7,$8,$9,$2,$3,0*
0 Add four circle primitives for the rounded corners*
1,1,$1+$1,$2,$3*
1,1,$1+$1,$4,$5*
1,1,$1+$1,$6,$7*
1,1,$1+$1,$8,$9*
0 Add four rect primitives between the rounded corners*
20,1,$1+$1,$2,$3,$4,$5,0*
20,1,$1+$1,$4,$5,$6,$7,0*
20,1,$1+$1,$6,$7,$8,$9,0*
20,1,$1+$1,$8,$9,$2,$3,0*%
G04 Aperture macros list end*
%ADD10C,3.500000*%
%ADD11C,1.700000*%
%ADD12C,3.000000*%
%ADD13C,4.000000*%
%ADD14C,14.000000*%
%ADD15RoundRect,0.250000X0.450000X-0.262500X0.450000X0.262500X-0.450000X0.262500X-0.450000X-0.262500X0*%
%ADD16RoundRect,0.875000X-0.875000X-0.875000X0.875000X-0.875000X0.875000X0.875000X-0.875000X0.875000X0*%
%ADD17RoundRect,0.750000X-0.750000X-1.000000X0.750000X-1.000000X0.750000X1.000000X-0.750000X1.000000X0*%
%ADD18R,3.500000X3.500000*%
%ADD19RoundRect,0.250000X-0.337500X-0.475000X0.337500X-0.475000X0.337500X0.475000X-0.337500X0.475000X0*%
%ADD20R,1.700000X1.700000*%
%ADD21O,1.700000X1.700000*%
%ADD22RoundRect,0.750000X0.750000X1.000000X-0.750000X1.000000X-0.750000X-1.000000X0.750000X-1.000000X0*%
%ADD23RoundRect,0.875000X0.875000X0.875000X-0.875000X0.875000X-0.875000X-0.875000X0.875000X-0.875000X0*%
%ADD24R,1.600000X1.600000*%
%ADD25C,1.600000*%
%ADD26R,2.000000X2.000000*%
%ADD27C,2.000000*%
G04 APERTURE END LIST*
D10*
%TO.C,AFE2*%
X160030000Y-56452000D03*
X126756000Y-56452000D03*
X126756000Y-24448000D03*
D11*
X123200000Y-46800000D03*
X123200000Y-44260000D03*
X123200000Y-41720000D03*
X123200000Y-39180000D03*
X123200000Y-36640000D03*
X123200000Y-34100000D03*
%TD*%
%TO.C,U2*%
X132055000Y-55890000D03*
X134595000Y-55890000D03*
X139675000Y-55890000D03*
X142215000Y-55890000D03*
X142215000Y-38110000D03*
X139675000Y-38110000D03*
X134595000Y-38110000D03*
X132055000Y-38110000D03*
%TD*%
%TO.C,U1*%
X184480000Y-23840000D03*
X181940000Y-23840000D03*
X179400000Y-23840000D03*
X176860000Y-23840000D03*
X174320000Y-23840000D03*
X171780000Y-23840000D03*
X169240000Y-23840000D03*
X166700000Y-23840000D03*
X164160000Y-23840000D03*
X161620000Y-23840000D03*
X159080000Y-23840000D03*
X156540000Y-23840000D03*
X154000000Y-23840000D03*
X154000000Y-46700000D03*
X156540000Y-46700000D03*
X159080000Y-46700000D03*
X161620000Y-46700000D03*
X164160000Y-46700000D03*
X166700000Y-46700000D03*
X169240000Y-46700000D03*
X171780000Y-46700000D03*
X174320000Y-46700000D03*
X176860000Y-46700000D03*
X179400000Y-46700000D03*
X181940000Y-46700000D03*
X184480000Y-46700000D03*
%TD*%
D10*
%TO.C,AFE1*%
X201624000Y-24498000D03*
X168350000Y-56502000D03*
X201624000Y-56502000D03*
D11*
X205180000Y-34150000D03*
X205180000Y-36690000D03*
X205180000Y-39230000D03*
X205180000Y-41770000D03*
X205180000Y-44310000D03*
X205180000Y-46850000D03*
%TD*%
D12*
%TO.C,U3*%
X190960000Y-25840000D03*
D11*
X196040000Y-24570000D03*
X196040000Y-27110000D03*
X196040000Y-29650000D03*
X196040000Y-32190000D03*
X196040000Y-34730000D03*
X196040000Y-37270000D03*
X196040000Y-39810000D03*
X196040000Y-42350000D03*
X196040000Y-44890000D03*
X196040000Y-47430000D03*
%TD*%
%TO.C,U5*%
X143080000Y-23380000D03*
X143080000Y-25920000D03*
X143080000Y-28460000D03*
X143080000Y-31000000D03*
D12*
X134190000Y-29730000D03*
%TD*%
D11*
%TO.C,U6*%
X104510000Y-30283000D03*
X104510000Y-27743000D03*
X104510000Y-25203000D03*
X104510000Y-22663000D03*
%TD*%
%TO.C,U11*%
X82356000Y-30314000D03*
X82356000Y-27774000D03*
X82356000Y-25234000D03*
X82356000Y-22694000D03*
%TD*%
D13*
%TO.C,U9*%
X25000000Y-37000000D03*
X25008000Y-61978000D03*
D14*
X47000000Y-48000000D03*
D13*
X69000000Y-62000000D03*
X69000000Y-37000000D03*
%TD*%
D11*
%TO.C,U12*%
X205890000Y-64545000D03*
X205890000Y-62005000D03*
X205890000Y-56925000D03*
X205890000Y-54385000D03*
X188110000Y-54385000D03*
X188110000Y-56925000D03*
X188110000Y-62005000D03*
X188110000Y-64545000D03*
%TD*%
%TO.C,U10*%
X173390000Y-64545000D03*
X173390000Y-62005000D03*
X173390000Y-56925000D03*
X173390000Y-54385000D03*
X155610000Y-54385000D03*
X155610000Y-56925000D03*
X155610000Y-62005000D03*
X155610000Y-64545000D03*
%TD*%
D15*
%TO.C,R2*%
X182000000Y-30825000D03*
X182000000Y-29000000D03*
%TD*%
D16*
%TO.C,J4*%
X71000000Y-30700000D03*
D17*
X68000000Y-26000000D03*
D18*
X74000000Y-26000000D03*
%TD*%
D19*
%TO.C,C1*%
X148962500Y-56000000D03*
X151037500Y-56000000D03*
%TD*%
%TO.C,C2*%
X148962500Y-59000000D03*
X151037500Y-59000000D03*
%TD*%
D20*
%TO.C,J1*%
X142620000Y-64000000D03*
D21*
X140080000Y-64000000D03*
X137540000Y-64000000D03*
X135000000Y-64000000D03*
X132460000Y-64000000D03*
%TD*%
D18*
%TO.C,J3*%
X208000000Y-26042500D03*
D22*
X214000000Y-26042500D03*
D23*
X211000000Y-30742500D03*
%TD*%
D24*
%TO.C,C3*%
X91755112Y-41000000D03*
D25*
X89255112Y-41000000D03*
%TD*%
D24*
%TO.C,C8*%
X89300000Y-51250000D03*
D25*
X91800000Y-51250000D03*
%TD*%
D26*
%TO.C,C14*%
X109000000Y-51500000D03*
D27*
X109000000Y-55000000D03*
%TD*%
D20*
%TO.C,J2*%
X69000000Y-43380000D03*
D21*
X69000000Y-45920000D03*
X69000000Y-48460000D03*
X69000000Y-51000000D03*
X69000000Y-53540000D03*
X69000000Y-56080000D03*
%TD*%
M02*
