%TF.GenerationSoftware,KiCad,Pcbnew,7.0.8-7.0.8~ubuntu20.04.1*%
%TF.CreationDate,2023-10-29T15:28:37+01:00*%
%TF.ProjectId,Hardware_2,48617264-7761-4726-955f-322e6b696361,rev?*%
%TF.SameCoordinates,Original*%
%TF.FileFunction,Legend,Top*%
%TF.FilePolarity,Positive*%
%FSLAX46Y46*%
G04 Gerber Fmt 4.6, Leading zero omitted, Abs format (unit mm)*
G04 Created by KiCad (PCBNEW 7.0.8-7.0.8~ubuntu20.04.1) date 2023-10-29 15:28:37*
%MOMM*%
%LPD*%
G01*
G04 APERTURE LIST*
%ADD10C,0.150000*%
%ADD11C,0.120000*%
G04 APERTURE END LIST*
D10*
X143633819Y-35061904D02*
X144443342Y-35061904D01*
X144443342Y-35061904D02*
X144538580Y-35014285D01*
X144538580Y-35014285D02*
X144586200Y-34966666D01*
X144586200Y-34966666D02*
X144633819Y-34871428D01*
X144633819Y-34871428D02*
X144633819Y-34680952D01*
X144633819Y-34680952D02*
X144586200Y-34585714D01*
X144586200Y-34585714D02*
X144538580Y-34538095D01*
X144538580Y-34538095D02*
X144443342Y-34490476D01*
X144443342Y-34490476D02*
X143633819Y-34490476D01*
X143729057Y-34061904D02*
X143681438Y-34014285D01*
X143681438Y-34014285D02*
X143633819Y-33919047D01*
X143633819Y-33919047D02*
X143633819Y-33680952D01*
X143633819Y-33680952D02*
X143681438Y-33585714D01*
X143681438Y-33585714D02*
X143729057Y-33538095D01*
X143729057Y-33538095D02*
X143824295Y-33490476D01*
X143824295Y-33490476D02*
X143919533Y-33490476D01*
X143919533Y-33490476D02*
X144062390Y-33538095D01*
X144062390Y-33538095D02*
X144633819Y-34109523D01*
X144633819Y-34109523D02*
X144633819Y-33490476D01*
X211695180Y-24348095D02*
X210885657Y-24348095D01*
X210885657Y-24348095D02*
X210790419Y-24395714D01*
X210790419Y-24395714D02*
X210742800Y-24443333D01*
X210742800Y-24443333D02*
X210695180Y-24538571D01*
X210695180Y-24538571D02*
X210695180Y-24729047D01*
X210695180Y-24729047D02*
X210742800Y-24824285D01*
X210742800Y-24824285D02*
X210790419Y-24871904D01*
X210790419Y-24871904D02*
X210885657Y-24919523D01*
X210885657Y-24919523D02*
X211695180Y-24919523D01*
X210695180Y-25919523D02*
X210695180Y-25348095D01*
X210695180Y-25633809D02*
X211695180Y-25633809D01*
X211695180Y-25633809D02*
X211552323Y-25538571D01*
X211552323Y-25538571D02*
X211457085Y-25443333D01*
X211457085Y-25443333D02*
X211409466Y-25348095D01*
X129834819Y-30491904D02*
X130644342Y-30491904D01*
X130644342Y-30491904D02*
X130739580Y-30444285D01*
X130739580Y-30444285D02*
X130787200Y-30396666D01*
X130787200Y-30396666D02*
X130834819Y-30301428D01*
X130834819Y-30301428D02*
X130834819Y-30110952D01*
X130834819Y-30110952D02*
X130787200Y-30015714D01*
X130787200Y-30015714D02*
X130739580Y-29968095D01*
X130739580Y-29968095D02*
X130644342Y-29920476D01*
X130644342Y-29920476D02*
X129834819Y-29920476D01*
X129834819Y-28968095D02*
X129834819Y-29444285D01*
X129834819Y-29444285D02*
X130311009Y-29491904D01*
X130311009Y-29491904D02*
X130263390Y-29444285D01*
X130263390Y-29444285D02*
X130215771Y-29349047D01*
X130215771Y-29349047D02*
X130215771Y-29110952D01*
X130215771Y-29110952D02*
X130263390Y-29015714D01*
X130263390Y-29015714D02*
X130311009Y-28968095D01*
X130311009Y-28968095D02*
X130406247Y-28920476D01*
X130406247Y-28920476D02*
X130644342Y-28920476D01*
X130644342Y-28920476D02*
X130739580Y-28968095D01*
X130739580Y-28968095D02*
X130787200Y-29015714D01*
X130787200Y-29015714D02*
X130834819Y-29110952D01*
X130834819Y-29110952D02*
X130834819Y-29349047D01*
X130834819Y-29349047D02*
X130787200Y-29444285D01*
X130787200Y-29444285D02*
X130739580Y-29491904D01*
X185538094Y-52966180D02*
X185538094Y-52156657D01*
X185538094Y-52156657D02*
X185490475Y-52061419D01*
X185490475Y-52061419D02*
X185442856Y-52013800D01*
X185442856Y-52013800D02*
X185347618Y-51966180D01*
X185347618Y-51966180D02*
X185157142Y-51966180D01*
X185157142Y-51966180D02*
X185061904Y-52013800D01*
X185061904Y-52013800D02*
X185014285Y-52061419D01*
X185014285Y-52061419D02*
X184966666Y-52156657D01*
X184966666Y-52156657D02*
X184966666Y-52966180D01*
X183966666Y-51966180D02*
X184538094Y-51966180D01*
X184252380Y-51966180D02*
X184252380Y-52966180D01*
X184252380Y-52966180D02*
X184347618Y-52823323D01*
X184347618Y-52823323D02*
X184442856Y-52728085D01*
X184442856Y-52728085D02*
X184538094Y-52680466D01*
X183585713Y-52870942D02*
X183538094Y-52918561D01*
X183538094Y-52918561D02*
X183442856Y-52966180D01*
X183442856Y-52966180D02*
X183204761Y-52966180D01*
X183204761Y-52966180D02*
X183109523Y-52918561D01*
X183109523Y-52918561D02*
X183061904Y-52870942D01*
X183061904Y-52870942D02*
X183014285Y-52775704D01*
X183014285Y-52775704D02*
X183014285Y-52680466D01*
X183014285Y-52680466D02*
X183061904Y-52537609D01*
X183061904Y-52537609D02*
X183633332Y-51966180D01*
X183633332Y-51966180D02*
X183014285Y-51966180D01*
X153038094Y-52966180D02*
X153038094Y-52156657D01*
X153038094Y-52156657D02*
X152990475Y-52061419D01*
X152990475Y-52061419D02*
X152942856Y-52013800D01*
X152942856Y-52013800D02*
X152847618Y-51966180D01*
X152847618Y-51966180D02*
X152657142Y-51966180D01*
X152657142Y-51966180D02*
X152561904Y-52013800D01*
X152561904Y-52013800D02*
X152514285Y-52061419D01*
X152514285Y-52061419D02*
X152466666Y-52156657D01*
X152466666Y-52156657D02*
X152466666Y-52966180D01*
X151466666Y-51966180D02*
X152038094Y-51966180D01*
X151752380Y-51966180D02*
X151752380Y-52966180D01*
X151752380Y-52966180D02*
X151847618Y-52823323D01*
X151847618Y-52823323D02*
X151942856Y-52728085D01*
X151942856Y-52728085D02*
X152038094Y-52680466D01*
X150847618Y-52966180D02*
X150752380Y-52966180D01*
X150752380Y-52966180D02*
X150657142Y-52918561D01*
X150657142Y-52918561D02*
X150609523Y-52870942D01*
X150609523Y-52870942D02*
X150561904Y-52775704D01*
X150561904Y-52775704D02*
X150514285Y-52585228D01*
X150514285Y-52585228D02*
X150514285Y-52347133D01*
X150514285Y-52347133D02*
X150561904Y-52156657D01*
X150561904Y-52156657D02*
X150609523Y-52061419D01*
X150609523Y-52061419D02*
X150657142Y-52013800D01*
X150657142Y-52013800D02*
X150752380Y-51966180D01*
X150752380Y-51966180D02*
X150847618Y-51966180D01*
X150847618Y-51966180D02*
X150942856Y-52013800D01*
X150942856Y-52013800D02*
X150990475Y-52061419D01*
X150990475Y-52061419D02*
X151038094Y-52156657D01*
X151038094Y-52156657D02*
X151085713Y-52347133D01*
X151085713Y-52347133D02*
X151085713Y-52585228D01*
X151085713Y-52585228D02*
X151038094Y-52775704D01*
X151038094Y-52775704D02*
X150990475Y-52870942D01*
X150990475Y-52870942D02*
X150942856Y-52918561D01*
X150942856Y-52918561D02*
X150847618Y-52966180D01*
X180804819Y-30079166D02*
X180328628Y-30412499D01*
X180804819Y-30650594D02*
X179804819Y-30650594D01*
X179804819Y-30650594D02*
X179804819Y-30269642D01*
X179804819Y-30269642D02*
X179852438Y-30174404D01*
X179852438Y-30174404D02*
X179900057Y-30126785D01*
X179900057Y-30126785D02*
X179995295Y-30079166D01*
X179995295Y-30079166D02*
X180138152Y-30079166D01*
X180138152Y-30079166D02*
X180233390Y-30126785D01*
X180233390Y-30126785D02*
X180281009Y-30174404D01*
X180281009Y-30174404D02*
X180328628Y-30269642D01*
X180328628Y-30269642D02*
X180328628Y-30650594D01*
X179900057Y-29698213D02*
X179852438Y-29650594D01*
X179852438Y-29650594D02*
X179804819Y-29555356D01*
X179804819Y-29555356D02*
X179804819Y-29317261D01*
X179804819Y-29317261D02*
X179852438Y-29222023D01*
X179852438Y-29222023D02*
X179900057Y-29174404D01*
X179900057Y-29174404D02*
X179995295Y-29126785D01*
X179995295Y-29126785D02*
X180090533Y-29126785D01*
X180090533Y-29126785D02*
X180233390Y-29174404D01*
X180233390Y-29174404D02*
X180804819Y-29745832D01*
X180804819Y-29745832D02*
X180804819Y-29126785D01*
X73666666Y-31454819D02*
X73666666Y-32169104D01*
X73666666Y-32169104D02*
X73619047Y-32311961D01*
X73619047Y-32311961D02*
X73523809Y-32407200D01*
X73523809Y-32407200D02*
X73380952Y-32454819D01*
X73380952Y-32454819D02*
X73285714Y-32454819D01*
X74571428Y-31788152D02*
X74571428Y-32454819D01*
X74333333Y-31407200D02*
X74095238Y-32121485D01*
X74095238Y-32121485D02*
X74714285Y-32121485D01*
X149833333Y-54679580D02*
X149785714Y-54727200D01*
X149785714Y-54727200D02*
X149642857Y-54774819D01*
X149642857Y-54774819D02*
X149547619Y-54774819D01*
X149547619Y-54774819D02*
X149404762Y-54727200D01*
X149404762Y-54727200D02*
X149309524Y-54631961D01*
X149309524Y-54631961D02*
X149261905Y-54536723D01*
X149261905Y-54536723D02*
X149214286Y-54346247D01*
X149214286Y-54346247D02*
X149214286Y-54203390D01*
X149214286Y-54203390D02*
X149261905Y-54012914D01*
X149261905Y-54012914D02*
X149309524Y-53917676D01*
X149309524Y-53917676D02*
X149404762Y-53822438D01*
X149404762Y-53822438D02*
X149547619Y-53774819D01*
X149547619Y-53774819D02*
X149642857Y-53774819D01*
X149642857Y-53774819D02*
X149785714Y-53822438D01*
X149785714Y-53822438D02*
X149833333Y-53870057D01*
X150785714Y-54774819D02*
X150214286Y-54774819D01*
X150500000Y-54774819D02*
X150500000Y-53774819D01*
X150500000Y-53774819D02*
X150404762Y-53917676D01*
X150404762Y-53917676D02*
X150309524Y-54012914D01*
X150309524Y-54012914D02*
X150214286Y-54060533D01*
X149833333Y-61359580D02*
X149785714Y-61407200D01*
X149785714Y-61407200D02*
X149642857Y-61454819D01*
X149642857Y-61454819D02*
X149547619Y-61454819D01*
X149547619Y-61454819D02*
X149404762Y-61407200D01*
X149404762Y-61407200D02*
X149309524Y-61311961D01*
X149309524Y-61311961D02*
X149261905Y-61216723D01*
X149261905Y-61216723D02*
X149214286Y-61026247D01*
X149214286Y-61026247D02*
X149214286Y-60883390D01*
X149214286Y-60883390D02*
X149261905Y-60692914D01*
X149261905Y-60692914D02*
X149309524Y-60597676D01*
X149309524Y-60597676D02*
X149404762Y-60502438D01*
X149404762Y-60502438D02*
X149547619Y-60454819D01*
X149547619Y-60454819D02*
X149642857Y-60454819D01*
X149642857Y-60454819D02*
X149785714Y-60502438D01*
X149785714Y-60502438D02*
X149833333Y-60550057D01*
X150214286Y-60550057D02*
X150261905Y-60502438D01*
X150261905Y-60502438D02*
X150357143Y-60454819D01*
X150357143Y-60454819D02*
X150595238Y-60454819D01*
X150595238Y-60454819D02*
X150690476Y-60502438D01*
X150690476Y-60502438D02*
X150738095Y-60550057D01*
X150738095Y-60550057D02*
X150785714Y-60645295D01*
X150785714Y-60645295D02*
X150785714Y-60740533D01*
X150785714Y-60740533D02*
X150738095Y-60883390D01*
X150738095Y-60883390D02*
X150166667Y-61454819D01*
X150166667Y-61454819D02*
X150785714Y-61454819D01*
X144404819Y-64333333D02*
X145119104Y-64333333D01*
X145119104Y-64333333D02*
X145261961Y-64380952D01*
X145261961Y-64380952D02*
X145357200Y-64476190D01*
X145357200Y-64476190D02*
X145404819Y-64619047D01*
X145404819Y-64619047D02*
X145404819Y-64714285D01*
X145404819Y-63333333D02*
X145404819Y-63904761D01*
X145404819Y-63619047D02*
X144404819Y-63619047D01*
X144404819Y-63619047D02*
X144547676Y-63714285D01*
X144547676Y-63714285D02*
X144642914Y-63809523D01*
X144642914Y-63809523D02*
X144690533Y-63904761D01*
D11*
%TO.C,U2*%
X129515000Y-58430000D02*
X131100000Y-58430000D01*
X131100000Y-58430000D02*
X131100000Y-56800000D01*
X131100000Y-56800000D02*
X129515000Y-56800000D01*
X129515000Y-56800000D02*
X129515000Y-58430000D01*
X129515000Y-58430000D02*
X144755000Y-58430000D01*
X144755000Y-58430000D02*
X144755000Y-35570000D01*
X144755000Y-35570000D02*
X129515000Y-35570000D01*
X129515000Y-35570000D02*
X129515000Y-58430000D01*
%TO.C,U1*%
X212420000Y-21300000D02*
X147650000Y-21300000D01*
X200990000Y-21300000D02*
X200990000Y-22570000D01*
X147650000Y-21300000D02*
X147650000Y-49240000D01*
X200990000Y-22570000D02*
X192100000Y-22570000D01*
X192100000Y-22570000D02*
X192100000Y-21300000D01*
X187020000Y-28920000D02*
X187020000Y-42890000D01*
X161620000Y-28920000D02*
X187020000Y-28920000D01*
X214960000Y-41620000D02*
X212420000Y-41620000D01*
X187020000Y-42890000D02*
X161620000Y-42890000D01*
X161620000Y-42890000D02*
X161620000Y-28920000D01*
X214960000Y-47970000D02*
X214960000Y-41620000D01*
X212420000Y-47970000D02*
X214960000Y-47970000D01*
X212420000Y-49240000D02*
X212420000Y-21300000D01*
X147650000Y-49240000D02*
X212420000Y-49240000D01*
%TO.C,U5*%
X132920000Y-25920000D02*
X135460000Y-25920000D01*
X135460000Y-25920000D02*
X135460000Y-23380000D01*
X135460000Y-23380000D02*
X132920000Y-23380000D01*
X132920000Y-23380000D02*
X132920000Y-25920000D01*
X144350000Y-32270000D02*
X131650000Y-32270000D01*
X131650000Y-32270000D02*
X131650000Y-22110000D01*
X131650000Y-22110000D02*
X144350000Y-22110000D01*
X144350000Y-22110000D02*
X144350000Y-32270000D01*
%TO.C,U12*%
X208430000Y-67085000D02*
X206800000Y-67085000D01*
X206800000Y-67085000D02*
X206800000Y-65500000D01*
X206800000Y-65500000D02*
X208430000Y-65500000D01*
X208430000Y-65500000D02*
X208430000Y-67085000D01*
X208430000Y-67085000D02*
X185570000Y-67085000D01*
X185570000Y-67085000D02*
X185570000Y-51845000D01*
X185570000Y-51845000D02*
X208430000Y-51845000D01*
X208430000Y-51845000D02*
X208430000Y-67085000D01*
%TO.C,U10*%
X175930000Y-67085000D02*
X174300000Y-67085000D01*
X174300000Y-67085000D02*
X174300000Y-65500000D01*
X174300000Y-65500000D02*
X175930000Y-65500000D01*
X175930000Y-65500000D02*
X175930000Y-67085000D01*
X175930000Y-67085000D02*
X153070000Y-67085000D01*
X153070000Y-67085000D02*
X153070000Y-51845000D01*
X153070000Y-51845000D02*
X175930000Y-51845000D01*
X175930000Y-51845000D02*
X175930000Y-67085000D01*
%TO.C,R2*%
X181265000Y-30139564D02*
X181265000Y-29685436D01*
X182735000Y-30139564D02*
X182735000Y-29685436D01*
%TO.C,J4*%
X74050000Y-21200000D02*
X75100000Y-21200000D01*
X75100000Y-22250000D02*
X75100000Y-21200000D01*
X69000000Y-30600000D02*
X60200000Y-30600000D01*
X74900000Y-21400000D02*
X74900000Y-24000000D01*
X74900000Y-27900000D02*
X74900000Y-30600000D01*
X74900000Y-30600000D02*
X73000000Y-30600000D01*
X60200000Y-30600000D02*
X60200000Y-21400000D01*
X60200000Y-21400000D02*
X74900000Y-21400000D01*
%TO.C,C1*%
X149738748Y-55265000D02*
X150261252Y-55265000D01*
X149738748Y-56735000D02*
X150261252Y-56735000D01*
%TO.C,U4*%
X76500000Y-20840000D02*
X117500000Y-20840000D01*
X117500000Y-20840000D02*
X117500000Y-61840000D01*
X117500000Y-61840000D02*
X76500000Y-61840000D01*
X76500000Y-61840000D02*
X76500000Y-20840000D01*
X112500000Y-20840000D02*
X102500000Y-20840000D01*
X102500000Y-20840000D02*
X102500000Y-24840000D01*
X102500000Y-24840000D02*
X112500000Y-24840000D01*
X112500000Y-24840000D02*
X112500000Y-20840000D01*
X78500000Y-61840000D02*
X86500000Y-61840000D01*
X86500000Y-61840000D02*
X86500000Y-59840000D01*
X86500000Y-59840000D02*
X78500000Y-59840000D01*
X78500000Y-59840000D02*
X78500000Y-61840000D01*
X80500000Y-59840000D02*
X80500000Y-56840000D01*
X79500000Y-59840000D02*
X79500000Y-56840000D01*
X83500000Y-59840000D02*
X83500000Y-56840000D01*
X82500000Y-59840000D02*
X82500000Y-56840000D01*
X81500000Y-59840000D02*
X81500000Y-56840000D01*
%TO.C,C2*%
X149738748Y-58265000D02*
X150261252Y-58265000D01*
X149738748Y-59735000D02*
X150261252Y-59735000D01*
%TO.C,J1*%
X141350000Y-65330000D02*
X131130000Y-65330000D01*
X143950000Y-62670000D02*
X143950000Y-64000000D01*
X141350000Y-62670000D02*
X131130000Y-62670000D01*
X131130000Y-62670000D02*
X131130000Y-65330000D01*
X141350000Y-62670000D02*
X141350000Y-65330000D01*
X142620000Y-62670000D02*
X143950000Y-62670000D01*
%TD*%
M02*
