%TF.GenerationSoftware,KiCad,Pcbnew,6.0.7-f9a2dced07~116~ubuntu20.04.1*%
%TF.CreationDate,2022-11-23T13:06:43+01:00*%
%TF.ProjectId,board,626f6172-642e-46b6-9963-61645f706362,rev?*%
%TF.SameCoordinates,Original*%
%TF.FileFunction,Legend,Top*%
%TF.FilePolarity,Positive*%
%FSLAX46Y46*%
G04 Gerber Fmt 4.6, Leading zero omitted, Abs format (unit mm)*
G04 Created by KiCad (PCBNEW 6.0.7-f9a2dced07~116~ubuntu20.04.1) date 2022-11-23 13:06:43*
%MOMM*%
%LPD*%
G01*
G04 APERTURE LIST*
%ADD10C,0.150000*%
%ADD11C,0.120000*%
G04 APERTURE END LIST*
D10*
%TO.C,J18*%
X215090476Y-221702380D02*
X215090476Y-222416666D01*
X215042857Y-222559523D01*
X214947619Y-222654761D01*
X214804761Y-222702380D01*
X214709523Y-222702380D01*
X216090476Y-222702380D02*
X215519047Y-222702380D01*
X215804761Y-222702380D02*
X215804761Y-221702380D01*
X215709523Y-221845238D01*
X215614285Y-221940476D01*
X215519047Y-221988095D01*
X216661904Y-222130952D02*
X216566666Y-222083333D01*
X216519047Y-222035714D01*
X216471428Y-221940476D01*
X216471428Y-221892857D01*
X216519047Y-221797619D01*
X216566666Y-221750000D01*
X216661904Y-221702380D01*
X216852380Y-221702380D01*
X216947619Y-221750000D01*
X216995238Y-221797619D01*
X217042857Y-221892857D01*
X217042857Y-221940476D01*
X216995238Y-222035714D01*
X216947619Y-222083333D01*
X216852380Y-222130952D01*
X216661904Y-222130952D01*
X216566666Y-222178571D01*
X216519047Y-222226190D01*
X216471428Y-222321428D01*
X216471428Y-222511904D01*
X216519047Y-222607142D01*
X216566666Y-222654761D01*
X216661904Y-222702380D01*
X216852380Y-222702380D01*
X216947619Y-222654761D01*
X216995238Y-222607142D01*
X217042857Y-222511904D01*
X217042857Y-222321428D01*
X216995238Y-222226190D01*
X216947619Y-222178571D01*
X216852380Y-222130952D01*
%TO.C,JP4*%
X173537666Y-157418380D02*
X173537666Y-158132666D01*
X173490047Y-158275523D01*
X173394809Y-158370761D01*
X173251952Y-158418380D01*
X173156714Y-158418380D01*
X174013857Y-158418380D02*
X174013857Y-157418380D01*
X174394809Y-157418380D01*
X174490047Y-157466000D01*
X174537666Y-157513619D01*
X174585285Y-157608857D01*
X174585285Y-157751714D01*
X174537666Y-157846952D01*
X174490047Y-157894571D01*
X174394809Y-157942190D01*
X174013857Y-157942190D01*
X175442428Y-157751714D02*
X175442428Y-158418380D01*
X175204333Y-157370761D02*
X174966238Y-158085047D01*
X175585285Y-158085047D01*
%TO.C,C3*%
X156656833Y-202385142D02*
X156609214Y-202432761D01*
X156466357Y-202480380D01*
X156371119Y-202480380D01*
X156228261Y-202432761D01*
X156133023Y-202337523D01*
X156085404Y-202242285D01*
X156037785Y-202051809D01*
X156037785Y-201908952D01*
X156085404Y-201718476D01*
X156133023Y-201623238D01*
X156228261Y-201528000D01*
X156371119Y-201480380D01*
X156466357Y-201480380D01*
X156609214Y-201528000D01*
X156656833Y-201575619D01*
X156990166Y-201480380D02*
X157609214Y-201480380D01*
X157275880Y-201861333D01*
X157418738Y-201861333D01*
X157513976Y-201908952D01*
X157561595Y-201956571D01*
X157609214Y-202051809D01*
X157609214Y-202289904D01*
X157561595Y-202385142D01*
X157513976Y-202432761D01*
X157418738Y-202480380D01*
X157133023Y-202480380D01*
X157037785Y-202432761D01*
X156990166Y-202385142D01*
%TO.C,JP7*%
X195051880Y-99270833D02*
X195766166Y-99270833D01*
X195909023Y-99318452D01*
X196004261Y-99413690D01*
X196051880Y-99556547D01*
X196051880Y-99651785D01*
X196051880Y-98794642D02*
X195051880Y-98794642D01*
X195051880Y-98413690D01*
X195099500Y-98318452D01*
X195147119Y-98270833D01*
X195242357Y-98223214D01*
X195385214Y-98223214D01*
X195480452Y-98270833D01*
X195528071Y-98318452D01*
X195575690Y-98413690D01*
X195575690Y-98794642D01*
X195051880Y-97889880D02*
X195051880Y-97223214D01*
X196051880Y-97651785D01*
%TO.C,JP8*%
X170396166Y-52279880D02*
X170396166Y-52994166D01*
X170348547Y-53137023D01*
X170253309Y-53232261D01*
X170110452Y-53279880D01*
X170015214Y-53279880D01*
X170872357Y-53279880D02*
X170872357Y-52279880D01*
X171253309Y-52279880D01*
X171348547Y-52327500D01*
X171396166Y-52375119D01*
X171443785Y-52470357D01*
X171443785Y-52613214D01*
X171396166Y-52708452D01*
X171348547Y-52756071D01*
X171253309Y-52803690D01*
X170872357Y-52803690D01*
X172015214Y-52708452D02*
X171919976Y-52660833D01*
X171872357Y-52613214D01*
X171824738Y-52517976D01*
X171824738Y-52470357D01*
X171872357Y-52375119D01*
X171919976Y-52327500D01*
X172015214Y-52279880D01*
X172205690Y-52279880D01*
X172300928Y-52327500D01*
X172348547Y-52375119D01*
X172396166Y-52470357D01*
X172396166Y-52517976D01*
X172348547Y-52613214D01*
X172300928Y-52660833D01*
X172205690Y-52708452D01*
X172015214Y-52708452D01*
X171919976Y-52756071D01*
X171872357Y-52803690D01*
X171824738Y-52898928D01*
X171824738Y-53089404D01*
X171872357Y-53184642D01*
X171919976Y-53232261D01*
X172015214Y-53279880D01*
X172205690Y-53279880D01*
X172300928Y-53232261D01*
X172348547Y-53184642D01*
X172396166Y-53089404D01*
X172396166Y-52898928D01*
X172348547Y-52803690D01*
X172300928Y-52756071D01*
X172205690Y-52708452D01*
X169932666Y-154072380D02*
X169932666Y-154786666D01*
X169885047Y-154929523D01*
X169789809Y-155024761D01*
X169646952Y-155072380D01*
X169551714Y-155072380D01*
X170408857Y-155072380D02*
X170408857Y-154072380D01*
X170789809Y-154072380D01*
X170885047Y-154120000D01*
X170932666Y-154167619D01*
X170980285Y-154262857D01*
X170980285Y-154405714D01*
X170932666Y-154500952D01*
X170885047Y-154548571D01*
X170789809Y-154596190D01*
X170408857Y-154596190D01*
X171551714Y-154500952D02*
X171456476Y-154453333D01*
X171408857Y-154405714D01*
X171361238Y-154310476D01*
X171361238Y-154262857D01*
X171408857Y-154167619D01*
X171456476Y-154120000D01*
X171551714Y-154072380D01*
X171742190Y-154072380D01*
X171837428Y-154120000D01*
X171885047Y-154167619D01*
X171932666Y-154262857D01*
X171932666Y-154310476D01*
X171885047Y-154405714D01*
X171837428Y-154453333D01*
X171742190Y-154500952D01*
X171551714Y-154500952D01*
X171456476Y-154548571D01*
X171408857Y-154596190D01*
X171361238Y-154691428D01*
X171361238Y-154881904D01*
X171408857Y-154977142D01*
X171456476Y-155024761D01*
X171551714Y-155072380D01*
X171742190Y-155072380D01*
X171837428Y-155024761D01*
X171885047Y-154977142D01*
X171932666Y-154881904D01*
X171932666Y-154691428D01*
X171885047Y-154596190D01*
X171837428Y-154548571D01*
X171742190Y-154500952D01*
%TO.C,J19*%
X147481976Y-117369880D02*
X147481976Y-118084166D01*
X147434357Y-118227023D01*
X147339119Y-118322261D01*
X147196261Y-118369880D01*
X147101023Y-118369880D01*
X148481976Y-118369880D02*
X147910547Y-118369880D01*
X148196261Y-118369880D02*
X148196261Y-117369880D01*
X148101023Y-117512738D01*
X148005785Y-117607976D01*
X147910547Y-117655595D01*
X148958166Y-118369880D02*
X149148642Y-118369880D01*
X149243880Y-118322261D01*
X149291500Y-118274642D01*
X149386738Y-118131785D01*
X149434357Y-117941309D01*
X149434357Y-117560357D01*
X149386738Y-117465119D01*
X149339119Y-117417500D01*
X149243880Y-117369880D01*
X149053404Y-117369880D01*
X148958166Y-117417500D01*
X148910547Y-117465119D01*
X148862928Y-117560357D01*
X148862928Y-117798452D01*
X148910547Y-117893690D01*
X148958166Y-117941309D01*
X149053404Y-117988928D01*
X149243880Y-117988928D01*
X149339119Y-117941309D01*
X149386738Y-117893690D01*
X149434357Y-117798452D01*
%TO.C,C5*%
X184208642Y-97764166D02*
X184256261Y-97811785D01*
X184303880Y-97954642D01*
X184303880Y-98049880D01*
X184256261Y-98192738D01*
X184161023Y-98287976D01*
X184065785Y-98335595D01*
X183875309Y-98383214D01*
X183732452Y-98383214D01*
X183541976Y-98335595D01*
X183446738Y-98287976D01*
X183351500Y-98192738D01*
X183303880Y-98049880D01*
X183303880Y-97954642D01*
X183351500Y-97811785D01*
X183399119Y-97764166D01*
X183303880Y-96859404D02*
X183303880Y-97335595D01*
X183780071Y-97383214D01*
X183732452Y-97335595D01*
X183684833Y-97240357D01*
X183684833Y-97002261D01*
X183732452Y-96907023D01*
X183780071Y-96859404D01*
X183875309Y-96811785D01*
X184113404Y-96811785D01*
X184208642Y-96859404D01*
X184256261Y-96907023D01*
X184303880Y-97002261D01*
X184303880Y-97240357D01*
X184256261Y-97335595D01*
X184208642Y-97383214D01*
%TO.C,C3*%
X157120333Y-100592642D02*
X157072714Y-100640261D01*
X156929857Y-100687880D01*
X156834619Y-100687880D01*
X156691761Y-100640261D01*
X156596523Y-100545023D01*
X156548904Y-100449785D01*
X156501285Y-100259309D01*
X156501285Y-100116452D01*
X156548904Y-99925976D01*
X156596523Y-99830738D01*
X156691761Y-99735500D01*
X156834619Y-99687880D01*
X156929857Y-99687880D01*
X157072714Y-99735500D01*
X157120333Y-99783119D01*
X157453666Y-99687880D02*
X158072714Y-99687880D01*
X157739380Y-100068833D01*
X157882238Y-100068833D01*
X157977476Y-100116452D01*
X158025095Y-100164071D01*
X158072714Y-100259309D01*
X158072714Y-100497404D01*
X158025095Y-100592642D01*
X157977476Y-100640261D01*
X157882238Y-100687880D01*
X157596523Y-100687880D01*
X157501285Y-100640261D01*
X157453666Y-100592642D01*
%TO.C,J26*%
X194816880Y-81033023D02*
X195531166Y-81033023D01*
X195674023Y-81080642D01*
X195769261Y-81175880D01*
X195816880Y-81318738D01*
X195816880Y-81413976D01*
X194912119Y-80604452D02*
X194864500Y-80556833D01*
X194816880Y-80461595D01*
X194816880Y-80223500D01*
X194864500Y-80128261D01*
X194912119Y-80080642D01*
X195007357Y-80033023D01*
X195102595Y-80033023D01*
X195245452Y-80080642D01*
X195816880Y-80652071D01*
X195816880Y-80033023D01*
X194816880Y-79175880D02*
X194816880Y-79366357D01*
X194864500Y-79461595D01*
X194912119Y-79509214D01*
X195054976Y-79604452D01*
X195245452Y-79652071D01*
X195626404Y-79652071D01*
X195721642Y-79604452D01*
X195769261Y-79556833D01*
X195816880Y-79461595D01*
X195816880Y-79271119D01*
X195769261Y-79175880D01*
X195721642Y-79128261D01*
X195626404Y-79080642D01*
X195388309Y-79080642D01*
X195293071Y-79128261D01*
X195245452Y-79175880D01*
X195197833Y-79271119D01*
X195197833Y-79461595D01*
X195245452Y-79556833D01*
X195293071Y-79604452D01*
X195388309Y-79652071D01*
%TO.C,U15*%
X184247880Y-109630595D02*
X185057404Y-109630595D01*
X185152642Y-109582976D01*
X185200261Y-109535357D01*
X185247880Y-109440119D01*
X185247880Y-109249642D01*
X185200261Y-109154404D01*
X185152642Y-109106785D01*
X185057404Y-109059166D01*
X184247880Y-109059166D01*
X185247880Y-108059166D02*
X185247880Y-108630595D01*
X185247880Y-108344880D02*
X184247880Y-108344880D01*
X184390738Y-108440119D01*
X184485976Y-108535357D01*
X184533595Y-108630595D01*
X184247880Y-107154404D02*
X184247880Y-107630595D01*
X184724071Y-107678214D01*
X184676452Y-107630595D01*
X184628833Y-107535357D01*
X184628833Y-107297261D01*
X184676452Y-107202023D01*
X184724071Y-107154404D01*
X184819309Y-107106785D01*
X185057404Y-107106785D01*
X185152642Y-107154404D01*
X185200261Y-107202023D01*
X185247880Y-107297261D01*
X185247880Y-107535357D01*
X185200261Y-107630595D01*
X185152642Y-107678214D01*
%TO.C,J17*%
X173643976Y-31517880D02*
X173643976Y-32232166D01*
X173596357Y-32375023D01*
X173501119Y-32470261D01*
X173358261Y-32517880D01*
X173263023Y-32517880D01*
X174643976Y-32517880D02*
X174072547Y-32517880D01*
X174358261Y-32517880D02*
X174358261Y-31517880D01*
X174263023Y-31660738D01*
X174167785Y-31755976D01*
X174072547Y-31803595D01*
X174977309Y-31517880D02*
X175643976Y-31517880D01*
X175215404Y-32517880D01*
%TO.C,U5*%
X201671119Y-90866595D02*
X200861595Y-90866595D01*
X200766357Y-90914214D01*
X200718738Y-90961833D01*
X200671119Y-91057071D01*
X200671119Y-91247547D01*
X200718738Y-91342785D01*
X200766357Y-91390404D01*
X200861595Y-91438023D01*
X201671119Y-91438023D01*
X201671119Y-92390404D02*
X201671119Y-91914214D01*
X201194928Y-91866595D01*
X201242547Y-91914214D01*
X201290166Y-92009452D01*
X201290166Y-92247547D01*
X201242547Y-92342785D01*
X201194928Y-92390404D01*
X201099690Y-92438023D01*
X200861595Y-92438023D01*
X200766357Y-92390404D01*
X200718738Y-92342785D01*
X200671119Y-92247547D01*
X200671119Y-92009452D01*
X200718738Y-91914214D01*
X200766357Y-91866595D01*
%TO.C,U6*%
X199345595Y-102035880D02*
X199345595Y-102845404D01*
X199393214Y-102940642D01*
X199440833Y-102988261D01*
X199536071Y-103035880D01*
X199726547Y-103035880D01*
X199821785Y-102988261D01*
X199869404Y-102940642D01*
X199917023Y-102845404D01*
X199917023Y-102035880D01*
X200821785Y-102035880D02*
X200631309Y-102035880D01*
X200536071Y-102083500D01*
X200488452Y-102131119D01*
X200393214Y-102273976D01*
X200345595Y-102464452D01*
X200345595Y-102845404D01*
X200393214Y-102940642D01*
X200440833Y-102988261D01*
X200536071Y-103035880D01*
X200726547Y-103035880D01*
X200821785Y-102988261D01*
X200869404Y-102940642D01*
X200917023Y-102845404D01*
X200917023Y-102607309D01*
X200869404Y-102512071D01*
X200821785Y-102464452D01*
X200726547Y-102416833D01*
X200536071Y-102416833D01*
X200440833Y-102464452D01*
X200393214Y-102512071D01*
X200345595Y-102607309D01*
%TO.C,C12*%
X209129642Y-113927357D02*
X209177261Y-113974976D01*
X209224880Y-114117833D01*
X209224880Y-114213071D01*
X209177261Y-114355928D01*
X209082023Y-114451166D01*
X208986785Y-114498785D01*
X208796309Y-114546404D01*
X208653452Y-114546404D01*
X208462976Y-114498785D01*
X208367738Y-114451166D01*
X208272500Y-114355928D01*
X208224880Y-114213071D01*
X208224880Y-114117833D01*
X208272500Y-113974976D01*
X208320119Y-113927357D01*
X209224880Y-112974976D02*
X209224880Y-113546404D01*
X209224880Y-113260690D02*
X208224880Y-113260690D01*
X208367738Y-113355928D01*
X208462976Y-113451166D01*
X208510595Y-113546404D01*
X208320119Y-112594023D02*
X208272500Y-112546404D01*
X208224880Y-112451166D01*
X208224880Y-112213071D01*
X208272500Y-112117833D01*
X208320119Y-112070214D01*
X208415357Y-112022595D01*
X208510595Y-112022595D01*
X208653452Y-112070214D01*
X209224880Y-112641642D01*
X209224880Y-112022595D01*
%TO.C,C20*%
X171479755Y-115039642D02*
X171432136Y-115087261D01*
X171289279Y-115134880D01*
X171194041Y-115134880D01*
X171051184Y-115087261D01*
X170955946Y-114992023D01*
X170908327Y-114896785D01*
X170860708Y-114706309D01*
X170860708Y-114563452D01*
X170908327Y-114372976D01*
X170955946Y-114277738D01*
X171051184Y-114182500D01*
X171194041Y-114134880D01*
X171289279Y-114134880D01*
X171432136Y-114182500D01*
X171479755Y-114230119D01*
X171860708Y-114230119D02*
X171908327Y-114182500D01*
X172003565Y-114134880D01*
X172241660Y-114134880D01*
X172336898Y-114182500D01*
X172384517Y-114230119D01*
X172432136Y-114325357D01*
X172432136Y-114420595D01*
X172384517Y-114563452D01*
X171813089Y-115134880D01*
X172432136Y-115134880D01*
X173051184Y-114134880D02*
X173146422Y-114134880D01*
X173241660Y-114182500D01*
X173289279Y-114230119D01*
X173336898Y-114325357D01*
X173384517Y-114515833D01*
X173384517Y-114753928D01*
X173336898Y-114944404D01*
X173289279Y-115039642D01*
X173241660Y-115087261D01*
X173146422Y-115134880D01*
X173051184Y-115134880D01*
X172955946Y-115087261D01*
X172908327Y-115039642D01*
X172860708Y-114944404D01*
X172813089Y-114753928D01*
X172813089Y-114515833D01*
X172860708Y-114325357D01*
X172908327Y-114230119D01*
X172955946Y-114182500D01*
X173051184Y-114134880D01*
%TO.C,J9*%
X216538166Y-28469880D02*
X216538166Y-29184166D01*
X216490547Y-29327023D01*
X216395309Y-29422261D01*
X216252452Y-29469880D01*
X216157214Y-29469880D01*
X217061976Y-29469880D02*
X217252452Y-29469880D01*
X217347690Y-29422261D01*
X217395309Y-29374642D01*
X217490547Y-29231785D01*
X217538166Y-29041309D01*
X217538166Y-28660357D01*
X217490547Y-28565119D01*
X217442928Y-28517500D01*
X217347690Y-28469880D01*
X217157214Y-28469880D01*
X217061976Y-28517500D01*
X217014357Y-28565119D01*
X216966738Y-28660357D01*
X216966738Y-28898452D01*
X217014357Y-28993690D01*
X217061976Y-29041309D01*
X217157214Y-29088928D01*
X217347690Y-29088928D01*
X217442928Y-29041309D01*
X217490547Y-28993690D01*
X217538166Y-28898452D01*
%TO.C,J18*%
X215553976Y-119909880D02*
X215553976Y-120624166D01*
X215506357Y-120767023D01*
X215411119Y-120862261D01*
X215268261Y-120909880D01*
X215173023Y-120909880D01*
X216553976Y-120909880D02*
X215982547Y-120909880D01*
X216268261Y-120909880D02*
X216268261Y-119909880D01*
X216173023Y-120052738D01*
X216077785Y-120147976D01*
X215982547Y-120195595D01*
X217125404Y-120338452D02*
X217030166Y-120290833D01*
X216982547Y-120243214D01*
X216934928Y-120147976D01*
X216934928Y-120100357D01*
X216982547Y-120005119D01*
X217030166Y-119957500D01*
X217125404Y-119909880D01*
X217315880Y-119909880D01*
X217411119Y-119957500D01*
X217458738Y-120005119D01*
X217506357Y-120100357D01*
X217506357Y-120147976D01*
X217458738Y-120243214D01*
X217411119Y-120290833D01*
X217315880Y-120338452D01*
X217125404Y-120338452D01*
X217030166Y-120386071D01*
X216982547Y-120433690D01*
X216934928Y-120528928D01*
X216934928Y-120719404D01*
X216982547Y-120814642D01*
X217030166Y-120862261D01*
X217125404Y-120909880D01*
X217315880Y-120909880D01*
X217411119Y-120862261D01*
X217458738Y-120814642D01*
X217506357Y-120719404D01*
X217506357Y-120528928D01*
X217458738Y-120433690D01*
X217411119Y-120386071D01*
X217315880Y-120338452D01*
%TO.C,JP12*%
X169863880Y-92191023D02*
X170578166Y-92191023D01*
X170721023Y-92238642D01*
X170816261Y-92333880D01*
X170863880Y-92476738D01*
X170863880Y-92571976D01*
X170863880Y-91714833D02*
X169863880Y-91714833D01*
X169863880Y-91333880D01*
X169911500Y-91238642D01*
X169959119Y-91191023D01*
X170054357Y-91143404D01*
X170197214Y-91143404D01*
X170292452Y-91191023D01*
X170340071Y-91238642D01*
X170387690Y-91333880D01*
X170387690Y-91714833D01*
X170863880Y-90191023D02*
X170863880Y-90762452D01*
X170863880Y-90476738D02*
X169863880Y-90476738D01*
X170006738Y-90571976D01*
X170101976Y-90667214D01*
X170149595Y-90762452D01*
X169959119Y-89810071D02*
X169911500Y-89762452D01*
X169863880Y-89667214D01*
X169863880Y-89429119D01*
X169911500Y-89333880D01*
X169959119Y-89286261D01*
X170054357Y-89238642D01*
X170149595Y-89238642D01*
X170292452Y-89286261D01*
X170863880Y-89857690D01*
X170863880Y-89238642D01*
%TO.C,C19*%
X173495642Y-107127642D02*
X173448023Y-107175261D01*
X173305166Y-107222880D01*
X173209928Y-107222880D01*
X173067071Y-107175261D01*
X172971833Y-107080023D01*
X172924214Y-106984785D01*
X172876595Y-106794309D01*
X172876595Y-106651452D01*
X172924214Y-106460976D01*
X172971833Y-106365738D01*
X173067071Y-106270500D01*
X173209928Y-106222880D01*
X173305166Y-106222880D01*
X173448023Y-106270500D01*
X173495642Y-106318119D01*
X174448023Y-107222880D02*
X173876595Y-107222880D01*
X174162309Y-107222880D02*
X174162309Y-106222880D01*
X174067071Y-106365738D01*
X173971833Y-106460976D01*
X173876595Y-106508595D01*
X174924214Y-107222880D02*
X175114690Y-107222880D01*
X175209928Y-107175261D01*
X175257547Y-107127642D01*
X175352785Y-106984785D01*
X175400404Y-106794309D01*
X175400404Y-106413357D01*
X175352785Y-106318119D01*
X175305166Y-106270500D01*
X175209928Y-106222880D01*
X175019452Y-106222880D01*
X174924214Y-106270500D01*
X174876595Y-106318119D01*
X174828976Y-106413357D01*
X174828976Y-106651452D01*
X174876595Y-106746690D01*
X174924214Y-106794309D01*
X175019452Y-106841928D01*
X175209928Y-106841928D01*
X175305166Y-106794309D01*
X175352785Y-106746690D01*
X175400404Y-106651452D01*
%TO.C,JP17*%
X171198380Y-182999523D02*
X171912666Y-182999523D01*
X172055523Y-183047142D01*
X172150761Y-183142380D01*
X172198380Y-183285238D01*
X172198380Y-183380476D01*
X172198380Y-182523333D02*
X171198380Y-182523333D01*
X171198380Y-182142380D01*
X171246000Y-182047142D01*
X171293619Y-181999523D01*
X171388857Y-181951904D01*
X171531714Y-181951904D01*
X171626952Y-181999523D01*
X171674571Y-182047142D01*
X171722190Y-182142380D01*
X171722190Y-182523333D01*
X172198380Y-180999523D02*
X172198380Y-181570952D01*
X172198380Y-181285238D02*
X171198380Y-181285238D01*
X171341238Y-181380476D01*
X171436476Y-181475714D01*
X171484095Y-181570952D01*
X171198380Y-180666190D02*
X171198380Y-179999523D01*
X172198380Y-180428095D01*
%TO.C,JP18*%
X171801880Y-87297023D02*
X172516166Y-87297023D01*
X172659023Y-87344642D01*
X172754261Y-87439880D01*
X172801880Y-87582738D01*
X172801880Y-87677976D01*
X172801880Y-86820833D02*
X171801880Y-86820833D01*
X171801880Y-86439880D01*
X171849500Y-86344642D01*
X171897119Y-86297023D01*
X171992357Y-86249404D01*
X172135214Y-86249404D01*
X172230452Y-86297023D01*
X172278071Y-86344642D01*
X172325690Y-86439880D01*
X172325690Y-86820833D01*
X172801880Y-85297023D02*
X172801880Y-85868452D01*
X172801880Y-85582738D02*
X171801880Y-85582738D01*
X171944738Y-85677976D01*
X172039976Y-85773214D01*
X172087595Y-85868452D01*
X172230452Y-84725595D02*
X172182833Y-84820833D01*
X172135214Y-84868452D01*
X172039976Y-84916071D01*
X171992357Y-84916071D01*
X171897119Y-84868452D01*
X171849500Y-84820833D01*
X171801880Y-84725595D01*
X171801880Y-84535119D01*
X171849500Y-84439880D01*
X171897119Y-84392261D01*
X171992357Y-84344642D01*
X172039976Y-84344642D01*
X172135214Y-84392261D01*
X172182833Y-84439880D01*
X172230452Y-84535119D01*
X172230452Y-84725595D01*
X172278071Y-84820833D01*
X172325690Y-84868452D01*
X172420928Y-84916071D01*
X172611404Y-84916071D01*
X172706642Y-84868452D01*
X172754261Y-84820833D01*
X172801880Y-84725595D01*
X172801880Y-84535119D01*
X172754261Y-84439880D01*
X172706642Y-84392261D01*
X172611404Y-84344642D01*
X172420928Y-84344642D01*
X172325690Y-84392261D01*
X172278071Y-84439880D01*
X172230452Y-84535119D01*
%TO.C,JP9*%
X176106166Y-52252380D02*
X176106166Y-52966666D01*
X176058547Y-53109523D01*
X175963309Y-53204761D01*
X175820452Y-53252380D01*
X175725214Y-53252380D01*
X176582357Y-53252380D02*
X176582357Y-52252380D01*
X176963309Y-52252380D01*
X177058547Y-52300000D01*
X177106166Y-52347619D01*
X177153785Y-52442857D01*
X177153785Y-52585714D01*
X177106166Y-52680952D01*
X177058547Y-52728571D01*
X176963309Y-52776190D01*
X176582357Y-52776190D01*
X177629976Y-53252380D02*
X177820452Y-53252380D01*
X177915690Y-53204761D01*
X177963309Y-53157142D01*
X178058547Y-53014285D01*
X178106166Y-52823809D01*
X178106166Y-52442857D01*
X178058547Y-52347619D01*
X178010928Y-52300000D01*
X177915690Y-52252380D01*
X177725214Y-52252380D01*
X177629976Y-52300000D01*
X177582357Y-52347619D01*
X177534738Y-52442857D01*
X177534738Y-52680952D01*
X177582357Y-52776190D01*
X177629976Y-52823809D01*
X177725214Y-52871428D01*
X177915690Y-52871428D01*
X178010928Y-52823809D01*
X178058547Y-52776190D01*
X178106166Y-52680952D01*
%TO.C,C16*%
X181430642Y-100748642D02*
X181383023Y-100796261D01*
X181240166Y-100843880D01*
X181144928Y-100843880D01*
X181002071Y-100796261D01*
X180906833Y-100701023D01*
X180859214Y-100605785D01*
X180811595Y-100415309D01*
X180811595Y-100272452D01*
X180859214Y-100081976D01*
X180906833Y-99986738D01*
X181002071Y-99891500D01*
X181144928Y-99843880D01*
X181240166Y-99843880D01*
X181383023Y-99891500D01*
X181430642Y-99939119D01*
X182383023Y-100843880D02*
X181811595Y-100843880D01*
X182097309Y-100843880D02*
X182097309Y-99843880D01*
X182002071Y-99986738D01*
X181906833Y-100081976D01*
X181811595Y-100129595D01*
X183240166Y-99843880D02*
X183049690Y-99843880D01*
X182954452Y-99891500D01*
X182906833Y-99939119D01*
X182811595Y-100081976D01*
X182763976Y-100272452D01*
X182763976Y-100653404D01*
X182811595Y-100748642D01*
X182859214Y-100796261D01*
X182954452Y-100843880D01*
X183144928Y-100843880D01*
X183240166Y-100796261D01*
X183287785Y-100748642D01*
X183335404Y-100653404D01*
X183335404Y-100415309D01*
X183287785Y-100320071D01*
X183240166Y-100272452D01*
X183144928Y-100224833D01*
X182954452Y-100224833D01*
X182859214Y-100272452D01*
X182811595Y-100320071D01*
X182763976Y-100415309D01*
%TO.C,C18*%
X173495642Y-100748642D02*
X173448023Y-100796261D01*
X173305166Y-100843880D01*
X173209928Y-100843880D01*
X173067071Y-100796261D01*
X172971833Y-100701023D01*
X172924214Y-100605785D01*
X172876595Y-100415309D01*
X172876595Y-100272452D01*
X172924214Y-100081976D01*
X172971833Y-99986738D01*
X173067071Y-99891500D01*
X173209928Y-99843880D01*
X173305166Y-99843880D01*
X173448023Y-99891500D01*
X173495642Y-99939119D01*
X174448023Y-100843880D02*
X173876595Y-100843880D01*
X174162309Y-100843880D02*
X174162309Y-99843880D01*
X174067071Y-99986738D01*
X173971833Y-100081976D01*
X173876595Y-100129595D01*
X175019452Y-100272452D02*
X174924214Y-100224833D01*
X174876595Y-100177214D01*
X174828976Y-100081976D01*
X174828976Y-100034357D01*
X174876595Y-99939119D01*
X174924214Y-99891500D01*
X175019452Y-99843880D01*
X175209928Y-99843880D01*
X175305166Y-99891500D01*
X175352785Y-99939119D01*
X175400404Y-100034357D01*
X175400404Y-100081976D01*
X175352785Y-100177214D01*
X175305166Y-100224833D01*
X175209928Y-100272452D01*
X175019452Y-100272452D01*
X174924214Y-100320071D01*
X174876595Y-100367690D01*
X174828976Y-100462928D01*
X174828976Y-100653404D01*
X174876595Y-100748642D01*
X174924214Y-100796261D01*
X175019452Y-100843880D01*
X175209928Y-100843880D01*
X175305166Y-100796261D01*
X175352785Y-100748642D01*
X175400404Y-100653404D01*
X175400404Y-100462928D01*
X175352785Y-100367690D01*
X175305166Y-100320071D01*
X175209928Y-100272452D01*
%TO.C,J16*%
X218138476Y-135342380D02*
X218138476Y-136056666D01*
X218090857Y-136199523D01*
X217995619Y-136294761D01*
X217852761Y-136342380D01*
X217757523Y-136342380D01*
X219138476Y-136342380D02*
X218567047Y-136342380D01*
X218852761Y-136342380D02*
X218852761Y-135342380D01*
X218757523Y-135485238D01*
X218662285Y-135580476D01*
X218567047Y-135628095D01*
X219995619Y-135342380D02*
X219805142Y-135342380D01*
X219709904Y-135390000D01*
X219662285Y-135437619D01*
X219567047Y-135580476D01*
X219519428Y-135770952D01*
X219519428Y-136151904D01*
X219567047Y-136247142D01*
X219614666Y-136294761D01*
X219709904Y-136342380D01*
X219900380Y-136342380D01*
X219995619Y-136294761D01*
X220043238Y-136247142D01*
X220090857Y-136151904D01*
X220090857Y-135913809D01*
X220043238Y-135818571D01*
X219995619Y-135770952D01*
X219900380Y-135723333D01*
X219709904Y-135723333D01*
X219614666Y-135770952D01*
X219567047Y-135818571D01*
X219519428Y-135913809D01*
%TO.C,U4*%
X168314619Y-148717095D02*
X167505095Y-148717095D01*
X167409857Y-148764714D01*
X167362238Y-148812333D01*
X167314619Y-148907571D01*
X167314619Y-149098047D01*
X167362238Y-149193285D01*
X167409857Y-149240904D01*
X167505095Y-149288523D01*
X168314619Y-149288523D01*
X167981285Y-150193285D02*
X167314619Y-150193285D01*
X168362238Y-149955190D02*
X167647952Y-149717095D01*
X167647952Y-150336142D01*
%TO.C,J17*%
X173180476Y-133310380D02*
X173180476Y-134024666D01*
X173132857Y-134167523D01*
X173037619Y-134262761D01*
X172894761Y-134310380D01*
X172799523Y-134310380D01*
X174180476Y-134310380D02*
X173609047Y-134310380D01*
X173894761Y-134310380D02*
X173894761Y-133310380D01*
X173799523Y-133453238D01*
X173704285Y-133548476D01*
X173609047Y-133596095D01*
X174513809Y-133310380D02*
X175180476Y-133310380D01*
X174751904Y-134310380D01*
%TO.C,C16*%
X180967142Y-202541142D02*
X180919523Y-202588761D01*
X180776666Y-202636380D01*
X180681428Y-202636380D01*
X180538571Y-202588761D01*
X180443333Y-202493523D01*
X180395714Y-202398285D01*
X180348095Y-202207809D01*
X180348095Y-202064952D01*
X180395714Y-201874476D01*
X180443333Y-201779238D01*
X180538571Y-201684000D01*
X180681428Y-201636380D01*
X180776666Y-201636380D01*
X180919523Y-201684000D01*
X180967142Y-201731619D01*
X181919523Y-202636380D02*
X181348095Y-202636380D01*
X181633809Y-202636380D02*
X181633809Y-201636380D01*
X181538571Y-201779238D01*
X181443333Y-201874476D01*
X181348095Y-201922095D01*
X182776666Y-201636380D02*
X182586190Y-201636380D01*
X182490952Y-201684000D01*
X182443333Y-201731619D01*
X182348095Y-201874476D01*
X182300476Y-202064952D01*
X182300476Y-202445904D01*
X182348095Y-202541142D01*
X182395714Y-202588761D01*
X182490952Y-202636380D01*
X182681428Y-202636380D01*
X182776666Y-202588761D01*
X182824285Y-202541142D01*
X182871904Y-202445904D01*
X182871904Y-202207809D01*
X182824285Y-202112571D01*
X182776666Y-202064952D01*
X182681428Y-202017333D01*
X182490952Y-202017333D01*
X182395714Y-202064952D01*
X182348095Y-202112571D01*
X182300476Y-202207809D01*
%TO.C,JP17*%
X171661880Y-81207023D02*
X172376166Y-81207023D01*
X172519023Y-81254642D01*
X172614261Y-81349880D01*
X172661880Y-81492738D01*
X172661880Y-81587976D01*
X172661880Y-80730833D02*
X171661880Y-80730833D01*
X171661880Y-80349880D01*
X171709500Y-80254642D01*
X171757119Y-80207023D01*
X171852357Y-80159404D01*
X171995214Y-80159404D01*
X172090452Y-80207023D01*
X172138071Y-80254642D01*
X172185690Y-80349880D01*
X172185690Y-80730833D01*
X172661880Y-79207023D02*
X172661880Y-79778452D01*
X172661880Y-79492738D02*
X171661880Y-79492738D01*
X171804738Y-79587976D01*
X171899976Y-79683214D01*
X171947595Y-79778452D01*
X171661880Y-78873690D02*
X171661880Y-78207023D01*
X172661880Y-78635595D01*
%TO.C,J11*%
X215553976Y-122957880D02*
X215553976Y-123672166D01*
X215506357Y-123815023D01*
X215411119Y-123910261D01*
X215268261Y-123957880D01*
X215173023Y-123957880D01*
X216553976Y-123957880D02*
X215982547Y-123957880D01*
X216268261Y-123957880D02*
X216268261Y-122957880D01*
X216173023Y-123100738D01*
X216077785Y-123195976D01*
X215982547Y-123243595D01*
X217506357Y-123957880D02*
X216934928Y-123957880D01*
X217220642Y-123957880D02*
X217220642Y-122957880D01*
X217125404Y-123100738D01*
X217030166Y-123195976D01*
X216934928Y-123243595D01*
%TO.C,R17*%
X191995142Y-115193880D02*
X191661809Y-114717690D01*
X191423714Y-115193880D02*
X191423714Y-114193880D01*
X191804666Y-114193880D01*
X191899904Y-114241500D01*
X191947523Y-114289119D01*
X191995142Y-114384357D01*
X191995142Y-114527214D01*
X191947523Y-114622452D01*
X191899904Y-114670071D01*
X191804666Y-114717690D01*
X191423714Y-114717690D01*
X192947523Y-115193880D02*
X192376095Y-115193880D01*
X192661809Y-115193880D02*
X192661809Y-114193880D01*
X192566571Y-114336738D01*
X192471333Y-114431976D01*
X192376095Y-114479595D01*
X193280857Y-114193880D02*
X193947523Y-114193880D01*
X193518952Y-115193880D01*
%TO.C,C13*%
X209354642Y-109924357D02*
X209402261Y-109971976D01*
X209449880Y-110114833D01*
X209449880Y-110210071D01*
X209402261Y-110352928D01*
X209307023Y-110448166D01*
X209211785Y-110495785D01*
X209021309Y-110543404D01*
X208878452Y-110543404D01*
X208687976Y-110495785D01*
X208592738Y-110448166D01*
X208497500Y-110352928D01*
X208449880Y-110210071D01*
X208449880Y-110114833D01*
X208497500Y-109971976D01*
X208545119Y-109924357D01*
X209449880Y-108971976D02*
X209449880Y-109543404D01*
X209449880Y-109257690D02*
X208449880Y-109257690D01*
X208592738Y-109352928D01*
X208687976Y-109448166D01*
X208735595Y-109543404D01*
X208449880Y-108638642D02*
X208449880Y-108019595D01*
X208830833Y-108352928D01*
X208830833Y-108210071D01*
X208878452Y-108114833D01*
X208926071Y-108067214D01*
X209021309Y-108019595D01*
X209259404Y-108019595D01*
X209354642Y-108067214D01*
X209402261Y-108114833D01*
X209449880Y-108210071D01*
X209449880Y-108495785D01*
X209402261Y-108591023D01*
X209354642Y-108638642D01*
%TO.C,J10*%
X173643976Y-28469880D02*
X173643976Y-29184166D01*
X173596357Y-29327023D01*
X173501119Y-29422261D01*
X173358261Y-29469880D01*
X173263023Y-29469880D01*
X174643976Y-29469880D02*
X174072547Y-29469880D01*
X174358261Y-29469880D02*
X174358261Y-28469880D01*
X174263023Y-28612738D01*
X174167785Y-28707976D01*
X174072547Y-28755595D01*
X175263023Y-28469880D02*
X175358261Y-28469880D01*
X175453500Y-28517500D01*
X175501119Y-28565119D01*
X175548738Y-28660357D01*
X175596357Y-28850833D01*
X175596357Y-29088928D01*
X175548738Y-29279404D01*
X175501119Y-29374642D01*
X175453500Y-29422261D01*
X175358261Y-29469880D01*
X175263023Y-29469880D01*
X175167785Y-29422261D01*
X175120166Y-29374642D01*
X175072547Y-29279404D01*
X175024928Y-29088928D01*
X175024928Y-28850833D01*
X175072547Y-28660357D01*
X175120166Y-28565119D01*
X175167785Y-28517500D01*
X175263023Y-28469880D01*
%TO.C,JP6*%
X224166166Y-112648880D02*
X224166166Y-113363166D01*
X224118547Y-113506023D01*
X224023309Y-113601261D01*
X223880452Y-113648880D01*
X223785214Y-113648880D01*
X224642357Y-113648880D02*
X224642357Y-112648880D01*
X225023309Y-112648880D01*
X225118547Y-112696500D01*
X225166166Y-112744119D01*
X225213785Y-112839357D01*
X225213785Y-112982214D01*
X225166166Y-113077452D01*
X225118547Y-113125071D01*
X225023309Y-113172690D01*
X224642357Y-113172690D01*
X226070928Y-112648880D02*
X225880452Y-112648880D01*
X225785214Y-112696500D01*
X225737595Y-112744119D01*
X225642357Y-112886976D01*
X225594738Y-113077452D01*
X225594738Y-113458404D01*
X225642357Y-113553642D01*
X225689976Y-113601261D01*
X225785214Y-113648880D01*
X225975690Y-113648880D01*
X226070928Y-113601261D01*
X226118547Y-113553642D01*
X226166166Y-113458404D01*
X226166166Y-113220309D01*
X226118547Y-113125071D01*
X226070928Y-113077452D01*
X225975690Y-113029833D01*
X225785214Y-113029833D01*
X225689976Y-113077452D01*
X225642357Y-113125071D01*
X225594738Y-113220309D01*
%TO.C,JP5*%
X165037880Y-91587833D02*
X165752166Y-91587833D01*
X165895023Y-91635452D01*
X165990261Y-91730690D01*
X166037880Y-91873547D01*
X166037880Y-91968785D01*
X166037880Y-91111642D02*
X165037880Y-91111642D01*
X165037880Y-90730690D01*
X165085500Y-90635452D01*
X165133119Y-90587833D01*
X165228357Y-90540214D01*
X165371214Y-90540214D01*
X165466452Y-90587833D01*
X165514071Y-90635452D01*
X165561690Y-90730690D01*
X165561690Y-91111642D01*
X165037880Y-89635452D02*
X165037880Y-90111642D01*
X165514071Y-90159261D01*
X165466452Y-90111642D01*
X165418833Y-90016404D01*
X165418833Y-89778309D01*
X165466452Y-89683071D01*
X165514071Y-89635452D01*
X165609309Y-89587833D01*
X165847404Y-89587833D01*
X165942642Y-89635452D01*
X165990261Y-89683071D01*
X166037880Y-89778309D01*
X166037880Y-90016404D01*
X165990261Y-90111642D01*
X165942642Y-90159261D01*
%TO.C,J11*%
X215090476Y-224750380D02*
X215090476Y-225464666D01*
X215042857Y-225607523D01*
X214947619Y-225702761D01*
X214804761Y-225750380D01*
X214709523Y-225750380D01*
X216090476Y-225750380D02*
X215519047Y-225750380D01*
X215804761Y-225750380D02*
X215804761Y-224750380D01*
X215709523Y-224893238D01*
X215614285Y-224988476D01*
X215519047Y-225036095D01*
X217042857Y-225750380D02*
X216471428Y-225750380D01*
X216757142Y-225750380D02*
X216757142Y-224750380D01*
X216661904Y-224893238D01*
X216566666Y-224988476D01*
X216471428Y-225036095D01*
%TO.C,JP4*%
X174001166Y-55625880D02*
X174001166Y-56340166D01*
X173953547Y-56483023D01*
X173858309Y-56578261D01*
X173715452Y-56625880D01*
X173620214Y-56625880D01*
X174477357Y-56625880D02*
X174477357Y-55625880D01*
X174858309Y-55625880D01*
X174953547Y-55673500D01*
X175001166Y-55721119D01*
X175048785Y-55816357D01*
X175048785Y-55959214D01*
X175001166Y-56054452D01*
X174953547Y-56102071D01*
X174858309Y-56149690D01*
X174477357Y-56149690D01*
X175905928Y-55959214D02*
X175905928Y-56625880D01*
X175667833Y-55578261D02*
X175429738Y-56292547D01*
X176048785Y-56292547D01*
%TO.C,J12*%
X173897976Y-122957880D02*
X173897976Y-123672166D01*
X173850357Y-123815023D01*
X173755119Y-123910261D01*
X173612261Y-123957880D01*
X173517023Y-123957880D01*
X174897976Y-123957880D02*
X174326547Y-123957880D01*
X174612261Y-123957880D02*
X174612261Y-122957880D01*
X174517023Y-123100738D01*
X174421785Y-123195976D01*
X174326547Y-123243595D01*
X175278928Y-123053119D02*
X175326547Y-123005500D01*
X175421785Y-122957880D01*
X175659880Y-122957880D01*
X175755119Y-123005500D01*
X175802738Y-123053119D01*
X175850357Y-123148357D01*
X175850357Y-123243595D01*
X175802738Y-123386452D01*
X175231309Y-123957880D01*
X175850357Y-123957880D01*
%TO.C,C10*%
X194847642Y-110117357D02*
X194895261Y-110164976D01*
X194942880Y-110307833D01*
X194942880Y-110403071D01*
X194895261Y-110545928D01*
X194800023Y-110641166D01*
X194704785Y-110688785D01*
X194514309Y-110736404D01*
X194371452Y-110736404D01*
X194180976Y-110688785D01*
X194085738Y-110641166D01*
X193990500Y-110545928D01*
X193942880Y-110403071D01*
X193942880Y-110307833D01*
X193990500Y-110164976D01*
X194038119Y-110117357D01*
X194942880Y-109164976D02*
X194942880Y-109736404D01*
X194942880Y-109450690D02*
X193942880Y-109450690D01*
X194085738Y-109545928D01*
X194180976Y-109641166D01*
X194228595Y-109736404D01*
X193942880Y-108545928D02*
X193942880Y-108450690D01*
X193990500Y-108355452D01*
X194038119Y-108307833D01*
X194133357Y-108260214D01*
X194323833Y-108212595D01*
X194561928Y-108212595D01*
X194752404Y-108260214D01*
X194847642Y-108307833D01*
X194895261Y-108355452D01*
X194942880Y-108450690D01*
X194942880Y-108545928D01*
X194895261Y-108641166D01*
X194847642Y-108688785D01*
X194752404Y-108736404D01*
X194561928Y-108784023D01*
X194323833Y-108784023D01*
X194133357Y-108736404D01*
X194038119Y-108688785D01*
X193990500Y-108641166D01*
X193942880Y-108545928D01*
%TO.C,U22*%
X162784880Y-109630595D02*
X163594404Y-109630595D01*
X163689642Y-109582976D01*
X163737261Y-109535357D01*
X163784880Y-109440119D01*
X163784880Y-109249642D01*
X163737261Y-109154404D01*
X163689642Y-109106785D01*
X163594404Y-109059166D01*
X162784880Y-109059166D01*
X162880119Y-108630595D02*
X162832500Y-108582976D01*
X162784880Y-108487738D01*
X162784880Y-108249642D01*
X162832500Y-108154404D01*
X162880119Y-108106785D01*
X162975357Y-108059166D01*
X163070595Y-108059166D01*
X163213452Y-108106785D01*
X163784880Y-108678214D01*
X163784880Y-108059166D01*
X162880119Y-107678214D02*
X162832500Y-107630595D01*
X162784880Y-107535357D01*
X162784880Y-107297261D01*
X162832500Y-107202023D01*
X162880119Y-107154404D01*
X162975357Y-107106785D01*
X163070595Y-107106785D01*
X163213452Y-107154404D01*
X163784880Y-107725833D01*
X163784880Y-107106785D01*
%TO.C,JP10*%
X223704976Y-108457880D02*
X223704976Y-109172166D01*
X223657357Y-109315023D01*
X223562119Y-109410261D01*
X223419261Y-109457880D01*
X223324023Y-109457880D01*
X224181166Y-109457880D02*
X224181166Y-108457880D01*
X224562119Y-108457880D01*
X224657357Y-108505500D01*
X224704976Y-108553119D01*
X224752595Y-108648357D01*
X224752595Y-108791214D01*
X224704976Y-108886452D01*
X224657357Y-108934071D01*
X224562119Y-108981690D01*
X224181166Y-108981690D01*
X225704976Y-109457880D02*
X225133547Y-109457880D01*
X225419261Y-109457880D02*
X225419261Y-108457880D01*
X225324023Y-108600738D01*
X225228785Y-108695976D01*
X225133547Y-108743595D01*
X226324023Y-108457880D02*
X226419261Y-108457880D01*
X226514500Y-108505500D01*
X226562119Y-108553119D01*
X226609738Y-108648357D01*
X226657357Y-108838833D01*
X226657357Y-109076928D01*
X226609738Y-109267404D01*
X226562119Y-109362642D01*
X226514500Y-109410261D01*
X226419261Y-109457880D01*
X226324023Y-109457880D01*
X226228785Y-109410261D01*
X226181166Y-109362642D01*
X226133547Y-109267404D01*
X226085928Y-109076928D01*
X226085928Y-108838833D01*
X226133547Y-108648357D01*
X226181166Y-108553119D01*
X226228785Y-108505500D01*
X226324023Y-108457880D01*
%TO.C,U14*%
X217419119Y-37685404D02*
X216609595Y-37685404D01*
X216514357Y-37733023D01*
X216466738Y-37780642D01*
X216419119Y-37875880D01*
X216419119Y-38066357D01*
X216466738Y-38161595D01*
X216514357Y-38209214D01*
X216609595Y-38256833D01*
X217419119Y-38256833D01*
X216419119Y-39256833D02*
X216419119Y-38685404D01*
X216419119Y-38971119D02*
X217419119Y-38971119D01*
X217276261Y-38875880D01*
X217181023Y-38780642D01*
X217133404Y-38685404D01*
X217085785Y-40113976D02*
X216419119Y-40113976D01*
X217466738Y-39875880D02*
X216752452Y-39637785D01*
X216752452Y-40256833D01*
%TO.C,J16*%
X218601976Y-33549880D02*
X218601976Y-34264166D01*
X218554357Y-34407023D01*
X218459119Y-34502261D01*
X218316261Y-34549880D01*
X218221023Y-34549880D01*
X219601976Y-34549880D02*
X219030547Y-34549880D01*
X219316261Y-34549880D02*
X219316261Y-33549880D01*
X219221023Y-33692738D01*
X219125785Y-33787976D01*
X219030547Y-33835595D01*
X220459119Y-33549880D02*
X220268642Y-33549880D01*
X220173404Y-33597500D01*
X220125785Y-33645119D01*
X220030547Y-33787976D01*
X219982928Y-33978452D01*
X219982928Y-34359404D01*
X220030547Y-34454642D01*
X220078166Y-34502261D01*
X220173404Y-34549880D01*
X220363880Y-34549880D01*
X220459119Y-34502261D01*
X220506738Y-34454642D01*
X220554357Y-34359404D01*
X220554357Y-34121309D01*
X220506738Y-34026071D01*
X220459119Y-33978452D01*
X220363880Y-33930833D01*
X220173404Y-33930833D01*
X220078166Y-33978452D01*
X220030547Y-34026071D01*
X219982928Y-34121309D01*
%TO.C,JP11*%
X223704976Y-104393880D02*
X223704976Y-105108166D01*
X223657357Y-105251023D01*
X223562119Y-105346261D01*
X223419261Y-105393880D01*
X223324023Y-105393880D01*
X224181166Y-105393880D02*
X224181166Y-104393880D01*
X224562119Y-104393880D01*
X224657357Y-104441500D01*
X224704976Y-104489119D01*
X224752595Y-104584357D01*
X224752595Y-104727214D01*
X224704976Y-104822452D01*
X224657357Y-104870071D01*
X224562119Y-104917690D01*
X224181166Y-104917690D01*
X225704976Y-105393880D02*
X225133547Y-105393880D01*
X225419261Y-105393880D02*
X225419261Y-104393880D01*
X225324023Y-104536738D01*
X225228785Y-104631976D01*
X225133547Y-104679595D01*
X226657357Y-105393880D02*
X226085928Y-105393880D01*
X226371642Y-105393880D02*
X226371642Y-104393880D01*
X226276404Y-104536738D01*
X226181166Y-104631976D01*
X226085928Y-104679595D01*
%TO.C,U4*%
X168778119Y-46924595D02*
X167968595Y-46924595D01*
X167873357Y-46972214D01*
X167825738Y-47019833D01*
X167778119Y-47115071D01*
X167778119Y-47305547D01*
X167825738Y-47400785D01*
X167873357Y-47448404D01*
X167968595Y-47496023D01*
X168778119Y-47496023D01*
X168444785Y-48400785D02*
X167778119Y-48400785D01*
X168825738Y-48162690D02*
X168111452Y-47924595D01*
X168111452Y-48543642D01*
%TO.C,J12*%
X173434476Y-224750380D02*
X173434476Y-225464666D01*
X173386857Y-225607523D01*
X173291619Y-225702761D01*
X173148761Y-225750380D01*
X173053523Y-225750380D01*
X174434476Y-225750380D02*
X173863047Y-225750380D01*
X174148761Y-225750380D02*
X174148761Y-224750380D01*
X174053523Y-224893238D01*
X173958285Y-224988476D01*
X173863047Y-225036095D01*
X174815428Y-224845619D02*
X174863047Y-224798000D01*
X174958285Y-224750380D01*
X175196380Y-224750380D01*
X175291619Y-224798000D01*
X175339238Y-224845619D01*
X175386857Y-224940857D01*
X175386857Y-225036095D01*
X175339238Y-225178952D01*
X174767809Y-225750380D01*
X175386857Y-225750380D01*
%TO.C,C11*%
X194876642Y-113734357D02*
X194924261Y-113781976D01*
X194971880Y-113924833D01*
X194971880Y-114020071D01*
X194924261Y-114162928D01*
X194829023Y-114258166D01*
X194733785Y-114305785D01*
X194543309Y-114353404D01*
X194400452Y-114353404D01*
X194209976Y-114305785D01*
X194114738Y-114258166D01*
X194019500Y-114162928D01*
X193971880Y-114020071D01*
X193971880Y-113924833D01*
X194019500Y-113781976D01*
X194067119Y-113734357D01*
X194971880Y-112781976D02*
X194971880Y-113353404D01*
X194971880Y-113067690D02*
X193971880Y-113067690D01*
X194114738Y-113162928D01*
X194209976Y-113258166D01*
X194257595Y-113353404D01*
X194971880Y-111829595D02*
X194971880Y-112401023D01*
X194971880Y-112115309D02*
X193971880Y-112115309D01*
X194114738Y-112210547D01*
X194209976Y-112305785D01*
X194257595Y-112401023D01*
%TO.C,U15*%
X183784380Y-211423095D02*
X184593904Y-211423095D01*
X184689142Y-211375476D01*
X184736761Y-211327857D01*
X184784380Y-211232619D01*
X184784380Y-211042142D01*
X184736761Y-210946904D01*
X184689142Y-210899285D01*
X184593904Y-210851666D01*
X183784380Y-210851666D01*
X184784380Y-209851666D02*
X184784380Y-210423095D01*
X184784380Y-210137380D02*
X183784380Y-210137380D01*
X183927238Y-210232619D01*
X184022476Y-210327857D01*
X184070095Y-210423095D01*
X183784380Y-208946904D02*
X183784380Y-209423095D01*
X184260571Y-209470714D01*
X184212952Y-209423095D01*
X184165333Y-209327857D01*
X184165333Y-209089761D01*
X184212952Y-208994523D01*
X184260571Y-208946904D01*
X184355809Y-208899285D01*
X184593904Y-208899285D01*
X184689142Y-208946904D01*
X184736761Y-208994523D01*
X184784380Y-209089761D01*
X184784380Y-209327857D01*
X184736761Y-209423095D01*
X184689142Y-209470714D01*
%TO.C,J10*%
X173180476Y-130262380D02*
X173180476Y-130976666D01*
X173132857Y-131119523D01*
X173037619Y-131214761D01*
X172894761Y-131262380D01*
X172799523Y-131262380D01*
X174180476Y-131262380D02*
X173609047Y-131262380D01*
X173894761Y-131262380D02*
X173894761Y-130262380D01*
X173799523Y-130405238D01*
X173704285Y-130500476D01*
X173609047Y-130548095D01*
X174799523Y-130262380D02*
X174894761Y-130262380D01*
X174990000Y-130310000D01*
X175037619Y-130357619D01*
X175085238Y-130452857D01*
X175132857Y-130643333D01*
X175132857Y-130881428D01*
X175085238Y-131071904D01*
X175037619Y-131167142D01*
X174990000Y-131214761D01*
X174894761Y-131262380D01*
X174799523Y-131262380D01*
X174704285Y-131214761D01*
X174656666Y-131167142D01*
X174609047Y-131071904D01*
X174561428Y-130881428D01*
X174561428Y-130643333D01*
X174609047Y-130452857D01*
X174656666Y-130357619D01*
X174704285Y-130310000D01*
X174799523Y-130262380D01*
%TO.C,JP5*%
X164574380Y-193380333D02*
X165288666Y-193380333D01*
X165431523Y-193427952D01*
X165526761Y-193523190D01*
X165574380Y-193666047D01*
X165574380Y-193761285D01*
X165574380Y-192904142D02*
X164574380Y-192904142D01*
X164574380Y-192523190D01*
X164622000Y-192427952D01*
X164669619Y-192380333D01*
X164764857Y-192332714D01*
X164907714Y-192332714D01*
X165002952Y-192380333D01*
X165050571Y-192427952D01*
X165098190Y-192523190D01*
X165098190Y-192904142D01*
X164574380Y-191427952D02*
X164574380Y-191904142D01*
X165050571Y-191951761D01*
X165002952Y-191904142D01*
X164955333Y-191808904D01*
X164955333Y-191570809D01*
X165002952Y-191475571D01*
X165050571Y-191427952D01*
X165145809Y-191380333D01*
X165383904Y-191380333D01*
X165479142Y-191427952D01*
X165526761Y-191475571D01*
X165574380Y-191570809D01*
X165574380Y-191808904D01*
X165526761Y-191904142D01*
X165479142Y-191951761D01*
%TO.C,J9*%
X216074666Y-130262380D02*
X216074666Y-130976666D01*
X216027047Y-131119523D01*
X215931809Y-131214761D01*
X215788952Y-131262380D01*
X215693714Y-131262380D01*
X216598476Y-131262380D02*
X216788952Y-131262380D01*
X216884190Y-131214761D01*
X216931809Y-131167142D01*
X217027047Y-131024285D01*
X217074666Y-130833809D01*
X217074666Y-130452857D01*
X217027047Y-130357619D01*
X216979428Y-130310000D01*
X216884190Y-130262380D01*
X216693714Y-130262380D01*
X216598476Y-130310000D01*
X216550857Y-130357619D01*
X216503238Y-130452857D01*
X216503238Y-130690952D01*
X216550857Y-130786190D01*
X216598476Y-130833809D01*
X216693714Y-130881428D01*
X216884190Y-130881428D01*
X216979428Y-130833809D01*
X217027047Y-130786190D01*
X217074666Y-130690952D01*
%TO.C,C13*%
X208891142Y-211716857D02*
X208938761Y-211764476D01*
X208986380Y-211907333D01*
X208986380Y-212002571D01*
X208938761Y-212145428D01*
X208843523Y-212240666D01*
X208748285Y-212288285D01*
X208557809Y-212335904D01*
X208414952Y-212335904D01*
X208224476Y-212288285D01*
X208129238Y-212240666D01*
X208034000Y-212145428D01*
X207986380Y-212002571D01*
X207986380Y-211907333D01*
X208034000Y-211764476D01*
X208081619Y-211716857D01*
X208986380Y-210764476D02*
X208986380Y-211335904D01*
X208986380Y-211050190D02*
X207986380Y-211050190D01*
X208129238Y-211145428D01*
X208224476Y-211240666D01*
X208272095Y-211335904D01*
X207986380Y-210431142D02*
X207986380Y-209812095D01*
X208367333Y-210145428D01*
X208367333Y-210002571D01*
X208414952Y-209907333D01*
X208462571Y-209859714D01*
X208557809Y-209812095D01*
X208795904Y-209812095D01*
X208891142Y-209859714D01*
X208938761Y-209907333D01*
X208986380Y-210002571D01*
X208986380Y-210288285D01*
X208938761Y-210383523D01*
X208891142Y-210431142D01*
%TO.C,U14*%
X216955619Y-139477904D02*
X216146095Y-139477904D01*
X216050857Y-139525523D01*
X216003238Y-139573142D01*
X215955619Y-139668380D01*
X215955619Y-139858857D01*
X216003238Y-139954095D01*
X216050857Y-140001714D01*
X216146095Y-140049333D01*
X216955619Y-140049333D01*
X215955619Y-141049333D02*
X215955619Y-140477904D01*
X215955619Y-140763619D02*
X216955619Y-140763619D01*
X216812761Y-140668380D01*
X216717523Y-140573142D01*
X216669904Y-140477904D01*
X216622285Y-141906476D02*
X215955619Y-141906476D01*
X217003238Y-141668380D02*
X216288952Y-141430285D01*
X216288952Y-142049333D01*
%TO.C,JP9*%
X175642666Y-154044880D02*
X175642666Y-154759166D01*
X175595047Y-154902023D01*
X175499809Y-154997261D01*
X175356952Y-155044880D01*
X175261714Y-155044880D01*
X176118857Y-155044880D02*
X176118857Y-154044880D01*
X176499809Y-154044880D01*
X176595047Y-154092500D01*
X176642666Y-154140119D01*
X176690285Y-154235357D01*
X176690285Y-154378214D01*
X176642666Y-154473452D01*
X176595047Y-154521071D01*
X176499809Y-154568690D01*
X176118857Y-154568690D01*
X177166476Y-155044880D02*
X177356952Y-155044880D01*
X177452190Y-154997261D01*
X177499809Y-154949642D01*
X177595047Y-154806785D01*
X177642666Y-154616309D01*
X177642666Y-154235357D01*
X177595047Y-154140119D01*
X177547428Y-154092500D01*
X177452190Y-154044880D01*
X177261714Y-154044880D01*
X177166476Y-154092500D01*
X177118857Y-154140119D01*
X177071238Y-154235357D01*
X177071238Y-154473452D01*
X177118857Y-154568690D01*
X177166476Y-154616309D01*
X177261714Y-154663928D01*
X177452190Y-154663928D01*
X177547428Y-154616309D01*
X177595047Y-154568690D01*
X177642666Y-154473452D01*
%TO.C,JP6*%
X223702666Y-214441380D02*
X223702666Y-215155666D01*
X223655047Y-215298523D01*
X223559809Y-215393761D01*
X223416952Y-215441380D01*
X223321714Y-215441380D01*
X224178857Y-215441380D02*
X224178857Y-214441380D01*
X224559809Y-214441380D01*
X224655047Y-214489000D01*
X224702666Y-214536619D01*
X224750285Y-214631857D01*
X224750285Y-214774714D01*
X224702666Y-214869952D01*
X224655047Y-214917571D01*
X224559809Y-214965190D01*
X224178857Y-214965190D01*
X225607428Y-214441380D02*
X225416952Y-214441380D01*
X225321714Y-214489000D01*
X225274095Y-214536619D01*
X225178857Y-214679476D01*
X225131238Y-214869952D01*
X225131238Y-215250904D01*
X225178857Y-215346142D01*
X225226476Y-215393761D01*
X225321714Y-215441380D01*
X225512190Y-215441380D01*
X225607428Y-215393761D01*
X225655047Y-215346142D01*
X225702666Y-215250904D01*
X225702666Y-215012809D01*
X225655047Y-214917571D01*
X225607428Y-214869952D01*
X225512190Y-214822333D01*
X225321714Y-214822333D01*
X225226476Y-214869952D01*
X225178857Y-214917571D01*
X225131238Y-215012809D01*
%TO.C,C11*%
X194413142Y-215526857D02*
X194460761Y-215574476D01*
X194508380Y-215717333D01*
X194508380Y-215812571D01*
X194460761Y-215955428D01*
X194365523Y-216050666D01*
X194270285Y-216098285D01*
X194079809Y-216145904D01*
X193936952Y-216145904D01*
X193746476Y-216098285D01*
X193651238Y-216050666D01*
X193556000Y-215955428D01*
X193508380Y-215812571D01*
X193508380Y-215717333D01*
X193556000Y-215574476D01*
X193603619Y-215526857D01*
X194508380Y-214574476D02*
X194508380Y-215145904D01*
X194508380Y-214860190D02*
X193508380Y-214860190D01*
X193651238Y-214955428D01*
X193746476Y-215050666D01*
X193794095Y-215145904D01*
X194508380Y-213622095D02*
X194508380Y-214193523D01*
X194508380Y-213907809D02*
X193508380Y-213907809D01*
X193651238Y-214003047D01*
X193746476Y-214098285D01*
X193794095Y-214193523D01*
%TO.C,C10*%
X194384142Y-211909857D02*
X194431761Y-211957476D01*
X194479380Y-212100333D01*
X194479380Y-212195571D01*
X194431761Y-212338428D01*
X194336523Y-212433666D01*
X194241285Y-212481285D01*
X194050809Y-212528904D01*
X193907952Y-212528904D01*
X193717476Y-212481285D01*
X193622238Y-212433666D01*
X193527000Y-212338428D01*
X193479380Y-212195571D01*
X193479380Y-212100333D01*
X193527000Y-211957476D01*
X193574619Y-211909857D01*
X194479380Y-210957476D02*
X194479380Y-211528904D01*
X194479380Y-211243190D02*
X193479380Y-211243190D01*
X193622238Y-211338428D01*
X193717476Y-211433666D01*
X193765095Y-211528904D01*
X193479380Y-210338428D02*
X193479380Y-210243190D01*
X193527000Y-210147952D01*
X193574619Y-210100333D01*
X193669857Y-210052714D01*
X193860333Y-210005095D01*
X194098428Y-210005095D01*
X194288904Y-210052714D01*
X194384142Y-210100333D01*
X194431761Y-210147952D01*
X194479380Y-210243190D01*
X194479380Y-210338428D01*
X194431761Y-210433666D01*
X194384142Y-210481285D01*
X194288904Y-210528904D01*
X194098428Y-210576523D01*
X193860333Y-210576523D01*
X193669857Y-210528904D01*
X193574619Y-210481285D01*
X193527000Y-210433666D01*
X193479380Y-210338428D01*
%TO.C,JP10*%
X223241476Y-210250380D02*
X223241476Y-210964666D01*
X223193857Y-211107523D01*
X223098619Y-211202761D01*
X222955761Y-211250380D01*
X222860523Y-211250380D01*
X223717666Y-211250380D02*
X223717666Y-210250380D01*
X224098619Y-210250380D01*
X224193857Y-210298000D01*
X224241476Y-210345619D01*
X224289095Y-210440857D01*
X224289095Y-210583714D01*
X224241476Y-210678952D01*
X224193857Y-210726571D01*
X224098619Y-210774190D01*
X223717666Y-210774190D01*
X225241476Y-211250380D02*
X224670047Y-211250380D01*
X224955761Y-211250380D02*
X224955761Y-210250380D01*
X224860523Y-210393238D01*
X224765285Y-210488476D01*
X224670047Y-210536095D01*
X225860523Y-210250380D02*
X225955761Y-210250380D01*
X226051000Y-210298000D01*
X226098619Y-210345619D01*
X226146238Y-210440857D01*
X226193857Y-210631333D01*
X226193857Y-210869428D01*
X226146238Y-211059904D01*
X226098619Y-211155142D01*
X226051000Y-211202761D01*
X225955761Y-211250380D01*
X225860523Y-211250380D01*
X225765285Y-211202761D01*
X225717666Y-211155142D01*
X225670047Y-211059904D01*
X225622428Y-210869428D01*
X225622428Y-210631333D01*
X225670047Y-210440857D01*
X225717666Y-210345619D01*
X225765285Y-210298000D01*
X225860523Y-210250380D01*
%TO.C,U6*%
X198882095Y-203828380D02*
X198882095Y-204637904D01*
X198929714Y-204733142D01*
X198977333Y-204780761D01*
X199072571Y-204828380D01*
X199263047Y-204828380D01*
X199358285Y-204780761D01*
X199405904Y-204733142D01*
X199453523Y-204637904D01*
X199453523Y-203828380D01*
X200358285Y-203828380D02*
X200167809Y-203828380D01*
X200072571Y-203876000D01*
X200024952Y-203923619D01*
X199929714Y-204066476D01*
X199882095Y-204256952D01*
X199882095Y-204637904D01*
X199929714Y-204733142D01*
X199977333Y-204780761D01*
X200072571Y-204828380D01*
X200263047Y-204828380D01*
X200358285Y-204780761D01*
X200405904Y-204733142D01*
X200453523Y-204637904D01*
X200453523Y-204399809D01*
X200405904Y-204304571D01*
X200358285Y-204256952D01*
X200263047Y-204209333D01*
X200072571Y-204209333D01*
X199977333Y-204256952D01*
X199929714Y-204304571D01*
X199882095Y-204399809D01*
%TO.C,C19*%
X173032142Y-208920142D02*
X172984523Y-208967761D01*
X172841666Y-209015380D01*
X172746428Y-209015380D01*
X172603571Y-208967761D01*
X172508333Y-208872523D01*
X172460714Y-208777285D01*
X172413095Y-208586809D01*
X172413095Y-208443952D01*
X172460714Y-208253476D01*
X172508333Y-208158238D01*
X172603571Y-208063000D01*
X172746428Y-208015380D01*
X172841666Y-208015380D01*
X172984523Y-208063000D01*
X173032142Y-208110619D01*
X173984523Y-209015380D02*
X173413095Y-209015380D01*
X173698809Y-209015380D02*
X173698809Y-208015380D01*
X173603571Y-208158238D01*
X173508333Y-208253476D01*
X173413095Y-208301095D01*
X174460714Y-209015380D02*
X174651190Y-209015380D01*
X174746428Y-208967761D01*
X174794047Y-208920142D01*
X174889285Y-208777285D01*
X174936904Y-208586809D01*
X174936904Y-208205857D01*
X174889285Y-208110619D01*
X174841666Y-208063000D01*
X174746428Y-208015380D01*
X174555952Y-208015380D01*
X174460714Y-208063000D01*
X174413095Y-208110619D01*
X174365476Y-208205857D01*
X174365476Y-208443952D01*
X174413095Y-208539190D01*
X174460714Y-208586809D01*
X174555952Y-208634428D01*
X174746428Y-208634428D01*
X174841666Y-208586809D01*
X174889285Y-208539190D01*
X174936904Y-208443952D01*
%TO.C,J19*%
X147018476Y-219162380D02*
X147018476Y-219876666D01*
X146970857Y-220019523D01*
X146875619Y-220114761D01*
X146732761Y-220162380D01*
X146637523Y-220162380D01*
X148018476Y-220162380D02*
X147447047Y-220162380D01*
X147732761Y-220162380D02*
X147732761Y-219162380D01*
X147637523Y-219305238D01*
X147542285Y-219400476D01*
X147447047Y-219448095D01*
X148494666Y-220162380D02*
X148685142Y-220162380D01*
X148780380Y-220114761D01*
X148828000Y-220067142D01*
X148923238Y-219924285D01*
X148970857Y-219733809D01*
X148970857Y-219352857D01*
X148923238Y-219257619D01*
X148875619Y-219210000D01*
X148780380Y-219162380D01*
X148589904Y-219162380D01*
X148494666Y-219210000D01*
X148447047Y-219257619D01*
X148399428Y-219352857D01*
X148399428Y-219590952D01*
X148447047Y-219686190D01*
X148494666Y-219733809D01*
X148589904Y-219781428D01*
X148780380Y-219781428D01*
X148875619Y-219733809D01*
X148923238Y-219686190D01*
X148970857Y-219590952D01*
%TO.C,R17*%
X191531642Y-216986380D02*
X191198309Y-216510190D01*
X190960214Y-216986380D02*
X190960214Y-215986380D01*
X191341166Y-215986380D01*
X191436404Y-216034000D01*
X191484023Y-216081619D01*
X191531642Y-216176857D01*
X191531642Y-216319714D01*
X191484023Y-216414952D01*
X191436404Y-216462571D01*
X191341166Y-216510190D01*
X190960214Y-216510190D01*
X192484023Y-216986380D02*
X191912595Y-216986380D01*
X192198309Y-216986380D02*
X192198309Y-215986380D01*
X192103071Y-216129238D01*
X192007833Y-216224476D01*
X191912595Y-216272095D01*
X192817357Y-215986380D02*
X193484023Y-215986380D01*
X193055452Y-216986380D01*
%TO.C,JP7*%
X194588380Y-201063333D02*
X195302666Y-201063333D01*
X195445523Y-201110952D01*
X195540761Y-201206190D01*
X195588380Y-201349047D01*
X195588380Y-201444285D01*
X195588380Y-200587142D02*
X194588380Y-200587142D01*
X194588380Y-200206190D01*
X194636000Y-200110952D01*
X194683619Y-200063333D01*
X194778857Y-200015714D01*
X194921714Y-200015714D01*
X195016952Y-200063333D01*
X195064571Y-200110952D01*
X195112190Y-200206190D01*
X195112190Y-200587142D01*
X194588380Y-199682380D02*
X194588380Y-199015714D01*
X195588380Y-199444285D01*
%TO.C,C18*%
X173032142Y-202541142D02*
X172984523Y-202588761D01*
X172841666Y-202636380D01*
X172746428Y-202636380D01*
X172603571Y-202588761D01*
X172508333Y-202493523D01*
X172460714Y-202398285D01*
X172413095Y-202207809D01*
X172413095Y-202064952D01*
X172460714Y-201874476D01*
X172508333Y-201779238D01*
X172603571Y-201684000D01*
X172746428Y-201636380D01*
X172841666Y-201636380D01*
X172984523Y-201684000D01*
X173032142Y-201731619D01*
X173984523Y-202636380D02*
X173413095Y-202636380D01*
X173698809Y-202636380D02*
X173698809Y-201636380D01*
X173603571Y-201779238D01*
X173508333Y-201874476D01*
X173413095Y-201922095D01*
X174555952Y-202064952D02*
X174460714Y-202017333D01*
X174413095Y-201969714D01*
X174365476Y-201874476D01*
X174365476Y-201826857D01*
X174413095Y-201731619D01*
X174460714Y-201684000D01*
X174555952Y-201636380D01*
X174746428Y-201636380D01*
X174841666Y-201684000D01*
X174889285Y-201731619D01*
X174936904Y-201826857D01*
X174936904Y-201874476D01*
X174889285Y-201969714D01*
X174841666Y-202017333D01*
X174746428Y-202064952D01*
X174555952Y-202064952D01*
X174460714Y-202112571D01*
X174413095Y-202160190D01*
X174365476Y-202255428D01*
X174365476Y-202445904D01*
X174413095Y-202541142D01*
X174460714Y-202588761D01*
X174555952Y-202636380D01*
X174746428Y-202636380D01*
X174841666Y-202588761D01*
X174889285Y-202541142D01*
X174936904Y-202445904D01*
X174936904Y-202255428D01*
X174889285Y-202160190D01*
X174841666Y-202112571D01*
X174746428Y-202064952D01*
%TO.C,JP18*%
X171338380Y-189089523D02*
X172052666Y-189089523D01*
X172195523Y-189137142D01*
X172290761Y-189232380D01*
X172338380Y-189375238D01*
X172338380Y-189470476D01*
X172338380Y-188613333D02*
X171338380Y-188613333D01*
X171338380Y-188232380D01*
X171386000Y-188137142D01*
X171433619Y-188089523D01*
X171528857Y-188041904D01*
X171671714Y-188041904D01*
X171766952Y-188089523D01*
X171814571Y-188137142D01*
X171862190Y-188232380D01*
X171862190Y-188613333D01*
X172338380Y-187089523D02*
X172338380Y-187660952D01*
X172338380Y-187375238D02*
X171338380Y-187375238D01*
X171481238Y-187470476D01*
X171576476Y-187565714D01*
X171624095Y-187660952D01*
X171766952Y-186518095D02*
X171719333Y-186613333D01*
X171671714Y-186660952D01*
X171576476Y-186708571D01*
X171528857Y-186708571D01*
X171433619Y-186660952D01*
X171386000Y-186613333D01*
X171338380Y-186518095D01*
X171338380Y-186327619D01*
X171386000Y-186232380D01*
X171433619Y-186184761D01*
X171528857Y-186137142D01*
X171576476Y-186137142D01*
X171671714Y-186184761D01*
X171719333Y-186232380D01*
X171766952Y-186327619D01*
X171766952Y-186518095D01*
X171814571Y-186613333D01*
X171862190Y-186660952D01*
X171957428Y-186708571D01*
X172147904Y-186708571D01*
X172243142Y-186660952D01*
X172290761Y-186613333D01*
X172338380Y-186518095D01*
X172338380Y-186327619D01*
X172290761Y-186232380D01*
X172243142Y-186184761D01*
X172147904Y-186137142D01*
X171957428Y-186137142D01*
X171862190Y-186184761D01*
X171814571Y-186232380D01*
X171766952Y-186327619D01*
%TO.C,C20*%
X171016255Y-216832142D02*
X170968636Y-216879761D01*
X170825779Y-216927380D01*
X170730541Y-216927380D01*
X170587684Y-216879761D01*
X170492446Y-216784523D01*
X170444827Y-216689285D01*
X170397208Y-216498809D01*
X170397208Y-216355952D01*
X170444827Y-216165476D01*
X170492446Y-216070238D01*
X170587684Y-215975000D01*
X170730541Y-215927380D01*
X170825779Y-215927380D01*
X170968636Y-215975000D01*
X171016255Y-216022619D01*
X171397208Y-216022619D02*
X171444827Y-215975000D01*
X171540065Y-215927380D01*
X171778160Y-215927380D01*
X171873398Y-215975000D01*
X171921017Y-216022619D01*
X171968636Y-216117857D01*
X171968636Y-216213095D01*
X171921017Y-216355952D01*
X171349589Y-216927380D01*
X171968636Y-216927380D01*
X172587684Y-215927380D02*
X172682922Y-215927380D01*
X172778160Y-215975000D01*
X172825779Y-216022619D01*
X172873398Y-216117857D01*
X172921017Y-216308333D01*
X172921017Y-216546428D01*
X172873398Y-216736904D01*
X172825779Y-216832142D01*
X172778160Y-216879761D01*
X172682922Y-216927380D01*
X172587684Y-216927380D01*
X172492446Y-216879761D01*
X172444827Y-216832142D01*
X172397208Y-216736904D01*
X172349589Y-216546428D01*
X172349589Y-216308333D01*
X172397208Y-216117857D01*
X172444827Y-216022619D01*
X172492446Y-215975000D01*
X172587684Y-215927380D01*
%TO.C,C5*%
X183745142Y-199556666D02*
X183792761Y-199604285D01*
X183840380Y-199747142D01*
X183840380Y-199842380D01*
X183792761Y-199985238D01*
X183697523Y-200080476D01*
X183602285Y-200128095D01*
X183411809Y-200175714D01*
X183268952Y-200175714D01*
X183078476Y-200128095D01*
X182983238Y-200080476D01*
X182888000Y-199985238D01*
X182840380Y-199842380D01*
X182840380Y-199747142D01*
X182888000Y-199604285D01*
X182935619Y-199556666D01*
X182840380Y-198651904D02*
X182840380Y-199128095D01*
X183316571Y-199175714D01*
X183268952Y-199128095D01*
X183221333Y-199032857D01*
X183221333Y-198794761D01*
X183268952Y-198699523D01*
X183316571Y-198651904D01*
X183411809Y-198604285D01*
X183649904Y-198604285D01*
X183745142Y-198651904D01*
X183792761Y-198699523D01*
X183840380Y-198794761D01*
X183840380Y-199032857D01*
X183792761Y-199128095D01*
X183745142Y-199175714D01*
%TO.C,JP12*%
X169400380Y-193983523D02*
X170114666Y-193983523D01*
X170257523Y-194031142D01*
X170352761Y-194126380D01*
X170400380Y-194269238D01*
X170400380Y-194364476D01*
X170400380Y-193507333D02*
X169400380Y-193507333D01*
X169400380Y-193126380D01*
X169448000Y-193031142D01*
X169495619Y-192983523D01*
X169590857Y-192935904D01*
X169733714Y-192935904D01*
X169828952Y-192983523D01*
X169876571Y-193031142D01*
X169924190Y-193126380D01*
X169924190Y-193507333D01*
X170400380Y-191983523D02*
X170400380Y-192554952D01*
X170400380Y-192269238D02*
X169400380Y-192269238D01*
X169543238Y-192364476D01*
X169638476Y-192459714D01*
X169686095Y-192554952D01*
X169495619Y-191602571D02*
X169448000Y-191554952D01*
X169400380Y-191459714D01*
X169400380Y-191221619D01*
X169448000Y-191126380D01*
X169495619Y-191078761D01*
X169590857Y-191031142D01*
X169686095Y-191031142D01*
X169828952Y-191078761D01*
X170400380Y-191650190D01*
X170400380Y-191031142D01*
%TO.C,U5*%
X201207619Y-192659095D02*
X200398095Y-192659095D01*
X200302857Y-192706714D01*
X200255238Y-192754333D01*
X200207619Y-192849571D01*
X200207619Y-193040047D01*
X200255238Y-193135285D01*
X200302857Y-193182904D01*
X200398095Y-193230523D01*
X201207619Y-193230523D01*
X201207619Y-194182904D02*
X201207619Y-193706714D01*
X200731428Y-193659095D01*
X200779047Y-193706714D01*
X200826666Y-193801952D01*
X200826666Y-194040047D01*
X200779047Y-194135285D01*
X200731428Y-194182904D01*
X200636190Y-194230523D01*
X200398095Y-194230523D01*
X200302857Y-194182904D01*
X200255238Y-194135285D01*
X200207619Y-194040047D01*
X200207619Y-193801952D01*
X200255238Y-193706714D01*
X200302857Y-193659095D01*
%TO.C,JP11*%
X223241476Y-206186380D02*
X223241476Y-206900666D01*
X223193857Y-207043523D01*
X223098619Y-207138761D01*
X222955761Y-207186380D01*
X222860523Y-207186380D01*
X223717666Y-207186380D02*
X223717666Y-206186380D01*
X224098619Y-206186380D01*
X224193857Y-206234000D01*
X224241476Y-206281619D01*
X224289095Y-206376857D01*
X224289095Y-206519714D01*
X224241476Y-206614952D01*
X224193857Y-206662571D01*
X224098619Y-206710190D01*
X223717666Y-206710190D01*
X225241476Y-207186380D02*
X224670047Y-207186380D01*
X224955761Y-207186380D02*
X224955761Y-206186380D01*
X224860523Y-206329238D01*
X224765285Y-206424476D01*
X224670047Y-206472095D01*
X226193857Y-207186380D02*
X225622428Y-207186380D01*
X225908142Y-207186380D02*
X225908142Y-206186380D01*
X225812904Y-206329238D01*
X225717666Y-206424476D01*
X225622428Y-206472095D01*
%TO.C,C12*%
X208666142Y-215719857D02*
X208713761Y-215767476D01*
X208761380Y-215910333D01*
X208761380Y-216005571D01*
X208713761Y-216148428D01*
X208618523Y-216243666D01*
X208523285Y-216291285D01*
X208332809Y-216338904D01*
X208189952Y-216338904D01*
X207999476Y-216291285D01*
X207904238Y-216243666D01*
X207809000Y-216148428D01*
X207761380Y-216005571D01*
X207761380Y-215910333D01*
X207809000Y-215767476D01*
X207856619Y-215719857D01*
X208761380Y-214767476D02*
X208761380Y-215338904D01*
X208761380Y-215053190D02*
X207761380Y-215053190D01*
X207904238Y-215148428D01*
X207999476Y-215243666D01*
X208047095Y-215338904D01*
X207856619Y-214386523D02*
X207809000Y-214338904D01*
X207761380Y-214243666D01*
X207761380Y-214005571D01*
X207809000Y-213910333D01*
X207856619Y-213862714D01*
X207951857Y-213815095D01*
X208047095Y-213815095D01*
X208189952Y-213862714D01*
X208761380Y-214434142D01*
X208761380Y-213815095D01*
%TO.C,U22*%
X162321380Y-211423095D02*
X163130904Y-211423095D01*
X163226142Y-211375476D01*
X163273761Y-211327857D01*
X163321380Y-211232619D01*
X163321380Y-211042142D01*
X163273761Y-210946904D01*
X163226142Y-210899285D01*
X163130904Y-210851666D01*
X162321380Y-210851666D01*
X162416619Y-210423095D02*
X162369000Y-210375476D01*
X162321380Y-210280238D01*
X162321380Y-210042142D01*
X162369000Y-209946904D01*
X162416619Y-209899285D01*
X162511857Y-209851666D01*
X162607095Y-209851666D01*
X162749952Y-209899285D01*
X163321380Y-210470714D01*
X163321380Y-209851666D01*
X162416619Y-209470714D02*
X162369000Y-209423095D01*
X162321380Y-209327857D01*
X162321380Y-209089761D01*
X162369000Y-208994523D01*
X162416619Y-208946904D01*
X162511857Y-208899285D01*
X162607095Y-208899285D01*
X162749952Y-208946904D01*
X163321380Y-209518333D01*
X163321380Y-208899285D01*
%TO.C,J26*%
X194353380Y-182825523D02*
X195067666Y-182825523D01*
X195210523Y-182873142D01*
X195305761Y-182968380D01*
X195353380Y-183111238D01*
X195353380Y-183206476D01*
X194448619Y-182396952D02*
X194401000Y-182349333D01*
X194353380Y-182254095D01*
X194353380Y-182016000D01*
X194401000Y-181920761D01*
X194448619Y-181873142D01*
X194543857Y-181825523D01*
X194639095Y-181825523D01*
X194781952Y-181873142D01*
X195353380Y-182444571D01*
X195353380Y-181825523D01*
X194353380Y-180968380D02*
X194353380Y-181158857D01*
X194401000Y-181254095D01*
X194448619Y-181301714D01*
X194591476Y-181396952D01*
X194781952Y-181444571D01*
X195162904Y-181444571D01*
X195258142Y-181396952D01*
X195305761Y-181349333D01*
X195353380Y-181254095D01*
X195353380Y-181063619D01*
X195305761Y-180968380D01*
X195258142Y-180920761D01*
X195162904Y-180873142D01*
X194924809Y-180873142D01*
X194829571Y-180920761D01*
X194781952Y-180968380D01*
X194734333Y-181063619D01*
X194734333Y-181254095D01*
X194781952Y-181349333D01*
X194829571Y-181396952D01*
X194924809Y-181444571D01*
D11*
%TO.C,J18*%
X243392000Y-223834000D02*
X243392000Y-221174000D01*
X220472000Y-223834000D02*
X220472000Y-221174000D01*
X217872000Y-221174000D02*
X219202000Y-221174000D01*
X220472000Y-223834000D02*
X243392000Y-223834000D01*
X217872000Y-222504000D02*
X217872000Y-221174000D01*
X220472000Y-221174000D02*
X243392000Y-221174000D01*
%TO.C,JP4*%
X172971000Y-160066000D02*
X172971000Y-159466000D01*
X175071000Y-160766000D02*
X173671000Y-160766000D01*
X173671000Y-158766000D02*
X175071000Y-158766000D01*
X175771000Y-159466000D02*
X175771000Y-160066000D01*
X172971000Y-160066000D02*
G75*
G03*
X173671000Y-160766000I699999J-1D01*
G01*
X175071000Y-160766000D02*
G75*
G03*
X175771000Y-160066000I0J700000D01*
G01*
X173671000Y-158766000D02*
G75*
G03*
X172971000Y-159466000I-1J-699999D01*
G01*
X175771000Y-159466000D02*
G75*
G03*
X175071000Y-158766000I-700000J0D01*
G01*
%TO.C,C3*%
X156562248Y-202973000D02*
X157084752Y-202973000D01*
X156562248Y-204443000D02*
X157084752Y-204443000D01*
%TO.C,JP7*%
X194099500Y-99837500D02*
G75*
G03*
X194799500Y-99137500I0J700000D01*
G01*
X193499500Y-97037500D02*
G75*
G03*
X192799500Y-97737500I-1J-699999D01*
G01*
X194799500Y-97737500D02*
G75*
G03*
X194099500Y-97037500I-699999J1D01*
G01*
X192799500Y-99137500D02*
G75*
G03*
X193499500Y-99837500I700000J0D01*
G01*
X194799500Y-97737500D02*
X194799500Y-99137500D01*
X192799500Y-99137500D02*
X192799500Y-97737500D01*
X194099500Y-99837500D02*
X193499500Y-99837500D01*
X193499500Y-97037500D02*
X194099500Y-97037500D01*
%TO.C,JP8*%
X173279500Y-50027500D02*
X173279500Y-52027500D01*
X173279500Y-52027500D02*
X169179500Y-52027500D01*
X172529500Y-49827500D02*
X172229500Y-49527500D01*
X172829500Y-49527500D02*
X172229500Y-49527500D01*
X169179500Y-52027500D02*
X169179500Y-50027500D01*
X172529500Y-49827500D02*
X172829500Y-49527500D01*
X169179500Y-50027500D02*
X173279500Y-50027500D01*
X172366000Y-151320000D02*
X171766000Y-151320000D01*
X172066000Y-151620000D02*
X172366000Y-151320000D01*
X172816000Y-151820000D02*
X172816000Y-153820000D01*
X172816000Y-153820000D02*
X168716000Y-153820000D01*
X168716000Y-153820000D02*
X168716000Y-151820000D01*
X172066000Y-151620000D02*
X171766000Y-151320000D01*
X168716000Y-151820000D02*
X172816000Y-151820000D01*
%TO.C,J19*%
X147215500Y-120711500D02*
X147215500Y-119381500D01*
X149815500Y-119381500D02*
X172735500Y-119381500D01*
X147215500Y-119381500D02*
X148545500Y-119381500D01*
X172735500Y-122041500D02*
X172735500Y-119381500D01*
X149815500Y-122041500D02*
X172735500Y-122041500D01*
X149815500Y-122041500D02*
X149815500Y-119381500D01*
%TO.C,C5*%
X190039500Y-98242388D02*
G75*
G03*
X190039500Y-98242388I-2620000J0D01*
G01*
X186379500Y-99163388D02*
X185005500Y-99163388D01*
X189356500Y-99963388D02*
X188459500Y-99963388D01*
X188973500Y-100323388D02*
X188459500Y-100323388D01*
X189995500Y-98402388D02*
X184843500Y-98402388D01*
X186379500Y-99803388D02*
X185354500Y-99803388D01*
X189454500Y-99843388D02*
X188459500Y-99843388D01*
X188802500Y-100443388D02*
X188459500Y-100443388D01*
X189999500Y-98282388D02*
X184839500Y-98282388D01*
X186379500Y-98602388D02*
X184863500Y-98602388D01*
X186379500Y-99763388D02*
X185324500Y-99763388D01*
X189423500Y-99883388D02*
X188459500Y-99883388D01*
X186379500Y-99243388D02*
X185037500Y-99243388D01*
X189962500Y-98682388D02*
X188459500Y-98682388D01*
X189024500Y-100283388D02*
X188459500Y-100283388D01*
X186379500Y-100283388D02*
X185814500Y-100283388D01*
X188894500Y-95437613D02*
X188894500Y-95937613D01*
X186379500Y-100363388D02*
X185919500Y-100363388D01*
X186379500Y-100403388D02*
X185976500Y-100403388D01*
X188430500Y-100643388D02*
X186408500Y-100643388D01*
X186379500Y-99043388D02*
X184964500Y-99043388D01*
X189514500Y-99763388D02*
X188459500Y-99763388D01*
X186379500Y-98963388D02*
X184939500Y-98963388D01*
X186379500Y-99363388D02*
X185090500Y-99363388D01*
X189390500Y-99923388D02*
X188459500Y-99923388D01*
X186379500Y-99643388D02*
X185244500Y-99643388D01*
X189920500Y-98882388D02*
X188459500Y-98882388D01*
X186379500Y-98562388D02*
X184858500Y-98562388D01*
X189767500Y-99323388D02*
X188459500Y-99323388D01*
X186379500Y-99203388D02*
X185021500Y-99203388D01*
X189997500Y-98362388D02*
X184841500Y-98362388D01*
X186379500Y-99323388D02*
X185071500Y-99323388D01*
X189784500Y-99283388D02*
X188459500Y-99283388D01*
X186379500Y-100483388D02*
X186100500Y-100483388D01*
X186379500Y-99003388D02*
X184951500Y-99003388D01*
X189939500Y-98802388D02*
X188459500Y-98802388D01*
X186379500Y-98882388D02*
X184918500Y-98882388D01*
X189245500Y-100083388D02*
X188459500Y-100083388D01*
X186379500Y-99443388D02*
X185129500Y-99443388D01*
X186379500Y-100163388D02*
X185676500Y-100163388D01*
X189666500Y-99523388D02*
X188459500Y-99523388D01*
X189541500Y-99723388D02*
X188459500Y-99723388D01*
X186379500Y-99963388D02*
X185482500Y-99963388D01*
X186379500Y-99563388D02*
X185195500Y-99563388D01*
X186379500Y-99923388D02*
X185448500Y-99923388D01*
X189144500Y-95687613D02*
X188644500Y-95687613D01*
X186379500Y-99123388D02*
X184991500Y-99123388D01*
X189072500Y-100243388D02*
X188459500Y-100243388D01*
X186379500Y-98642388D02*
X184869500Y-98642388D01*
X189980500Y-98562388D02*
X188459500Y-98562388D01*
X189320500Y-100003388D02*
X188459500Y-100003388D01*
X188738500Y-100483388D02*
X188459500Y-100483388D01*
X189162500Y-100163388D02*
X188459500Y-100163388D01*
X189748500Y-99363388D02*
X188459500Y-99363388D01*
X189984500Y-98522388D02*
X188459500Y-98522388D01*
X189619500Y-99603388D02*
X188459500Y-99603388D01*
X186379500Y-98802388D02*
X184899500Y-98802388D01*
X186379500Y-99403388D02*
X185109500Y-99403388D01*
X188334500Y-100683388D02*
X186504500Y-100683388D01*
X189687500Y-99483388D02*
X188459500Y-99483388D01*
X188919500Y-100363388D02*
X188459500Y-100363388D01*
X188096500Y-100763388D02*
X186742500Y-100763388D01*
X189930500Y-98842388D02*
X188459500Y-98842388D01*
X189947500Y-98762388D02*
X188459500Y-98762388D01*
X186379500Y-100043388D02*
X185555500Y-100043388D01*
X187703500Y-100843388D02*
X187135500Y-100843388D01*
X186379500Y-100243388D02*
X185766500Y-100243388D01*
X189283500Y-100043388D02*
X188459500Y-100043388D01*
X189975500Y-98602388D02*
X188459500Y-98602388D01*
X186379500Y-100523388D02*
X186168500Y-100523388D01*
X189709500Y-99443388D02*
X188459500Y-99443388D01*
X189988500Y-98482388D02*
X188459500Y-98482388D01*
X187937500Y-100803388D02*
X186901500Y-100803388D01*
X186379500Y-98842388D02*
X184908500Y-98842388D01*
X189833500Y-99163388D02*
X188459500Y-99163388D01*
X186379500Y-99283388D02*
X185054500Y-99283388D01*
X189568500Y-99683388D02*
X188459500Y-99683388D01*
X189484500Y-99803388D02*
X188459500Y-99803388D01*
X189899500Y-98963388D02*
X188459500Y-98963388D01*
X186379500Y-99603388D02*
X185219500Y-99603388D01*
X189801500Y-99243388D02*
X188459500Y-99243388D01*
X189847500Y-99123388D02*
X188459500Y-99123388D01*
X186379500Y-98922388D02*
X184928500Y-98922388D01*
X189999500Y-98242388D02*
X184839500Y-98242388D01*
X186379500Y-98722388D02*
X184883500Y-98722388D01*
X189204500Y-100123388D02*
X188459500Y-100123388D01*
X186379500Y-98482388D02*
X184850500Y-98482388D01*
X186379500Y-98762388D02*
X184891500Y-98762388D01*
X188224500Y-100723388D02*
X186614500Y-100723388D01*
X186379500Y-100323388D02*
X185865500Y-100323388D01*
X186379500Y-100443388D02*
X186036500Y-100443388D01*
X189643500Y-99563388D02*
X188459500Y-99563388D01*
X188517500Y-100603388D02*
X186321500Y-100603388D01*
X186379500Y-100083388D02*
X185593500Y-100083388D01*
X189969500Y-98642388D02*
X188459500Y-98642388D01*
X188597500Y-100563388D02*
X186241500Y-100563388D01*
X186379500Y-99883388D02*
X185415500Y-99883388D01*
X186379500Y-99483388D02*
X185151500Y-99483388D01*
X186379500Y-99843388D02*
X185384500Y-99843388D01*
X189729500Y-99403388D02*
X188459500Y-99403388D01*
X186379500Y-99683388D02*
X185270500Y-99683388D01*
X189887500Y-99003388D02*
X188459500Y-99003388D01*
X189594500Y-99643388D02*
X188459500Y-99643388D01*
X188862500Y-100403388D02*
X188459500Y-100403388D01*
X186379500Y-100203388D02*
X185720500Y-100203388D01*
X189998500Y-98322388D02*
X184840500Y-98322388D01*
X189861500Y-99083388D02*
X188459500Y-99083388D01*
X189992500Y-98442388D02*
X184846500Y-98442388D01*
X186379500Y-99083388D02*
X184977500Y-99083388D01*
X186379500Y-99523388D02*
X185172500Y-99523388D01*
X189118500Y-100203388D02*
X188459500Y-100203388D01*
X189910500Y-98922388D02*
X188459500Y-98922388D01*
X189817500Y-99203388D02*
X188459500Y-99203388D01*
X186379500Y-99723388D02*
X185297500Y-99723388D01*
X189874500Y-99043388D02*
X188459500Y-99043388D01*
X186379500Y-100003388D02*
X185518500Y-100003388D01*
X186379500Y-100123388D02*
X185634500Y-100123388D01*
X186379500Y-98682388D02*
X184876500Y-98682388D01*
X188670500Y-100523388D02*
X188459500Y-100523388D01*
X186379500Y-98522388D02*
X184854500Y-98522388D01*
X189955500Y-98722388D02*
X188459500Y-98722388D01*
%TO.C,C3*%
X157025748Y-102650500D02*
X157548252Y-102650500D01*
X157025748Y-101180500D02*
X157548252Y-101180500D01*
%TO.C,J26*%
X194392500Y-70606500D02*
X193062500Y-70606500D01*
X195662500Y-67946500D02*
X195722500Y-67946500D01*
X195662500Y-70606500D02*
X195722500Y-70606500D01*
X195662500Y-70606500D02*
X195662500Y-67946500D01*
X195722500Y-70606500D02*
X195722500Y-67946500D01*
X193062500Y-70606500D02*
X193062500Y-69276500D01*
%TO.C,U15*%
X176885500Y-110302500D02*
X178145500Y-110302500D01*
X183705500Y-110302500D02*
X182445500Y-110302500D01*
X176885500Y-106542500D02*
X176885500Y-110302500D01*
X183705500Y-104292500D02*
X183705500Y-110302500D01*
%TO.C,J17*%
X147215500Y-31811500D02*
X147215500Y-30481500D01*
X172735500Y-33141500D02*
X172735500Y-30481500D01*
X147215500Y-30481500D02*
X148545500Y-30481500D01*
X149815500Y-33141500D02*
X149815500Y-30481500D01*
X149815500Y-33141500D02*
X172735500Y-33141500D01*
X149815500Y-30481500D02*
X172735500Y-30481500D01*
%TO.C,U5*%
X182073500Y-57338500D02*
X187788500Y-57338500D01*
X187788500Y-57338500D02*
X199853500Y-57338500D01*
X199853500Y-57338500D02*
X199853500Y-94168500D01*
X182073500Y-94168500D02*
X182073500Y-57338500D01*
X199853500Y-94168500D02*
X182073500Y-94168500D01*
%TO.C,U6*%
X197704500Y-103254500D02*
X205304500Y-103254500D01*
X205304500Y-103254500D02*
X205304500Y-115054500D01*
X205304500Y-115054500D02*
X197704500Y-115054500D01*
X197704500Y-115054500D02*
X197704500Y-103254500D01*
%TO.C,C12*%
X207827500Y-113023248D02*
X207827500Y-113545752D01*
X206357500Y-113023248D02*
X206357500Y-113545752D01*
%TO.C,C20*%
X174742613Y-110932500D02*
G75*
G03*
X174742613Y-110932500I-2620000J0D01*
G01*
X170161613Y-112631500D02*
X170161613Y-111972500D01*
X170961613Y-113242500D02*
X170961613Y-111972500D01*
X169601613Y-111609500D02*
X169601613Y-110255500D01*
X170321613Y-109892500D02*
X170321613Y-109068500D01*
X171442613Y-113423500D02*
X171442613Y-111972500D01*
X170801613Y-113156500D02*
X170801613Y-111972500D01*
X171962613Y-113508500D02*
X171962613Y-108356500D01*
X170481613Y-109892500D02*
X170481613Y-108928500D01*
X170041613Y-109892500D02*
X170041613Y-109378500D01*
X172122613Y-113512500D02*
X172122613Y-108352500D01*
X169961613Y-112375500D02*
X169961613Y-111972500D01*
X170761613Y-113132500D02*
X170761613Y-111972500D01*
X170241613Y-112717500D02*
X170241613Y-111972500D01*
X170601613Y-113027500D02*
X170601613Y-111972500D01*
X171522613Y-113443500D02*
X171522613Y-111972500D01*
X170521613Y-112967500D02*
X170521613Y-111972500D01*
X171522613Y-109892500D02*
X171522613Y-108421500D01*
X170481613Y-112936500D02*
X170481613Y-111972500D01*
X169921613Y-109892500D02*
X169921613Y-109549500D01*
X171842613Y-109892500D02*
X171842613Y-108367500D01*
X171281613Y-109892500D02*
X171281613Y-108490500D01*
X170001613Y-112432500D02*
X170001613Y-111972500D01*
X169881613Y-109892500D02*
X169881613Y-109613500D01*
X171562613Y-109892500D02*
X171562613Y-108412500D01*
X170241613Y-109892500D02*
X170241613Y-109147500D01*
X170161613Y-109892500D02*
X170161613Y-109233500D01*
X171482613Y-109892500D02*
X171482613Y-108431500D01*
X170081613Y-112537500D02*
X170081613Y-111972500D01*
X170681613Y-109892500D02*
X170681613Y-108783500D01*
X171281613Y-113374500D02*
X171281613Y-111972500D01*
X171802613Y-109892500D02*
X171802613Y-108371500D01*
X170801613Y-109892500D02*
X170801613Y-108708500D01*
X170441613Y-109892500D02*
X170441613Y-108961500D01*
X171722613Y-109892500D02*
X171722613Y-108382500D01*
X171161613Y-113330500D02*
X171161613Y-111972500D01*
X169881613Y-112251500D02*
X169881613Y-111972500D01*
X170041613Y-112486500D02*
X170041613Y-111972500D01*
X171842613Y-113497500D02*
X171842613Y-111972500D01*
X171241613Y-113360500D02*
X171241613Y-111972500D01*
X170881613Y-113200500D02*
X170881613Y-111972500D01*
X169721613Y-111943500D02*
X169721613Y-109921500D01*
X171121613Y-109892500D02*
X171121613Y-108550500D01*
X172082613Y-113512500D02*
X172082613Y-108352500D01*
X170641613Y-109892500D02*
X170641613Y-108810500D01*
X169841613Y-109892500D02*
X169841613Y-109681500D01*
X171361613Y-109892500D02*
X171361613Y-108464500D01*
X170641613Y-113054500D02*
X170641613Y-111972500D01*
X171321613Y-109892500D02*
X171321613Y-108477500D01*
X169921613Y-112315500D02*
X169921613Y-111972500D01*
X171041613Y-113280500D02*
X171041613Y-111972500D01*
X170721613Y-113107500D02*
X170721613Y-111972500D01*
X172042613Y-113511500D02*
X172042613Y-108353500D01*
X170401613Y-109892500D02*
X170401613Y-108995500D01*
X171642613Y-113468500D02*
X171642613Y-111972500D01*
X171922613Y-113505500D02*
X171922613Y-108359500D01*
X170921613Y-109892500D02*
X170921613Y-108642500D01*
X171001613Y-109892500D02*
X171001613Y-108603500D01*
X171802613Y-113493500D02*
X171802613Y-111972500D01*
X171442613Y-109892500D02*
X171442613Y-108441500D01*
X171201613Y-113346500D02*
X171201613Y-111972500D01*
X170401613Y-112869500D02*
X170401613Y-111972500D01*
X169521613Y-111216500D02*
X169521613Y-110648500D01*
X170761613Y-109892500D02*
X170761613Y-108732500D01*
X171882613Y-109892500D02*
X171882613Y-108363500D01*
X171722613Y-113482500D02*
X171722613Y-111972500D01*
X170321613Y-112796500D02*
X170321613Y-111972500D01*
X170281613Y-109892500D02*
X170281613Y-109106500D01*
X170441613Y-112903500D02*
X170441613Y-111972500D01*
X170841613Y-109892500D02*
X170841613Y-108685500D01*
X171401613Y-109892500D02*
X171401613Y-108452500D01*
X171121613Y-113314500D02*
X171121613Y-111972500D01*
X171762613Y-109892500D02*
X171762613Y-108376500D01*
X171361613Y-113400500D02*
X171361613Y-111972500D01*
X171762613Y-113488500D02*
X171762613Y-111972500D01*
X174677388Y-112657500D02*
X174677388Y-112157500D01*
X171041613Y-109892500D02*
X171041613Y-108584500D01*
X171642613Y-109892500D02*
X171642613Y-108396500D01*
X170561613Y-109892500D02*
X170561613Y-108867500D01*
X169641613Y-111737500D02*
X169641613Y-110127500D01*
X171321613Y-113387500D02*
X171321613Y-111972500D01*
X171682613Y-109892500D02*
X171682613Y-108389500D01*
X171241613Y-109892500D02*
X171241613Y-108504500D01*
X170601613Y-109892500D02*
X170601613Y-108837500D01*
X170121613Y-112585500D02*
X170121613Y-111972500D01*
X170881613Y-109892500D02*
X170881613Y-108664500D01*
X170521613Y-109892500D02*
X170521613Y-108897500D01*
X171081613Y-109892500D02*
X171081613Y-108567500D01*
X171882613Y-113501500D02*
X171882613Y-111972500D01*
X169761613Y-112030500D02*
X169761613Y-109834500D01*
X170281613Y-112758500D02*
X170281613Y-111972500D01*
X170361613Y-112833500D02*
X170361613Y-111972500D01*
X170721613Y-109892500D02*
X170721613Y-108757500D01*
X171081613Y-113297500D02*
X171081613Y-111972500D01*
X170201613Y-112675500D02*
X170201613Y-111972500D01*
X171201613Y-109892500D02*
X171201613Y-108518500D01*
X171161613Y-109892500D02*
X171161613Y-108534500D01*
X170961613Y-109892500D02*
X170961613Y-108622500D01*
X171401613Y-113412500D02*
X171401613Y-111972500D01*
X169841613Y-112183500D02*
X169841613Y-111972500D01*
X170361613Y-109892500D02*
X170361613Y-109031500D01*
X171001613Y-113261500D02*
X171001613Y-111972500D01*
X169681613Y-111847500D02*
X169681613Y-110017500D01*
X171562613Y-113452500D02*
X171562613Y-111972500D01*
X170081613Y-109892500D02*
X170081613Y-109327500D01*
X174927388Y-112407500D02*
X174427388Y-112407500D01*
X170561613Y-112997500D02*
X170561613Y-111972500D01*
X169801613Y-112110500D02*
X169801613Y-109754500D01*
X170681613Y-113081500D02*
X170681613Y-111972500D01*
X171682613Y-113475500D02*
X171682613Y-111972500D01*
X170201613Y-109892500D02*
X170201613Y-109189500D01*
X169961613Y-109892500D02*
X169961613Y-109489500D01*
X170921613Y-113222500D02*
X170921613Y-111972500D01*
X171602613Y-113460500D02*
X171602613Y-111972500D01*
X172002613Y-113510500D02*
X172002613Y-108354500D01*
X169561613Y-111450500D02*
X169561613Y-110414500D01*
X170121613Y-109892500D02*
X170121613Y-109279500D01*
X170841613Y-113179500D02*
X170841613Y-111972500D01*
X171482613Y-113433500D02*
X171482613Y-111972500D01*
X171602613Y-109892500D02*
X171602613Y-108404500D01*
X170001613Y-109892500D02*
X170001613Y-109432500D01*
%TO.C,J9*%
X218335500Y-27941500D02*
X219665500Y-27941500D01*
X220935500Y-27941500D02*
X243855500Y-27941500D01*
X243855500Y-30601500D02*
X243855500Y-27941500D01*
X220935500Y-30601500D02*
X220935500Y-27941500D01*
X220935500Y-30601500D02*
X243855500Y-30601500D01*
X218335500Y-29271500D02*
X218335500Y-27941500D01*
%TO.C,J18*%
X220935500Y-119381500D02*
X243855500Y-119381500D01*
X220935500Y-122041500D02*
X243855500Y-122041500D01*
X218335500Y-119381500D02*
X219665500Y-119381500D01*
X243855500Y-122041500D02*
X243855500Y-119381500D01*
X220935500Y-122041500D02*
X220935500Y-119381500D01*
X218335500Y-120711500D02*
X218335500Y-119381500D01*
%TO.C,JP12*%
X167611500Y-91581500D02*
G75*
G03*
X168311500Y-92281500I700000J0D01*
G01*
X168911500Y-92281500D02*
G75*
G03*
X169611500Y-91581500I0J700000D01*
G01*
X169611500Y-90181500D02*
G75*
G03*
X168911500Y-89481500I-699999J1D01*
G01*
X168311500Y-89481500D02*
G75*
G03*
X167611500Y-90181500I-1J-699999D01*
G01*
X169611500Y-90181500D02*
X169611500Y-91581500D01*
X168911500Y-92281500D02*
X168311500Y-92281500D01*
X168311500Y-89481500D02*
X168911500Y-89481500D01*
X167611500Y-91581500D02*
X167611500Y-90181500D01*
%TO.C,C19*%
X174399752Y-104355500D02*
X173877248Y-104355500D01*
X174399752Y-105825500D02*
X173877248Y-105825500D01*
%TO.C,JP17*%
X174746000Y-182990000D02*
X175046000Y-183290000D01*
X174746000Y-182990000D02*
X175046000Y-182690000D01*
X174546000Y-183740000D02*
X172546000Y-183740000D01*
X172546000Y-183740000D02*
X172546000Y-179640000D01*
X174546000Y-179640000D02*
X174546000Y-183740000D01*
X172546000Y-179640000D02*
X174546000Y-179640000D01*
X175046000Y-183290000D02*
X175046000Y-182690000D01*
%TO.C,U13*%
X244610500Y-91761500D02*
X240610500Y-91761500D01*
X240610500Y-91761500D02*
X240610500Y-81761500D01*
X240610500Y-81761500D02*
X244610500Y-81761500D01*
X244610500Y-81761500D02*
X244610500Y-91761500D01*
X244610500Y-55761500D02*
X203610500Y-55761500D01*
X203610500Y-55761500D02*
X203610500Y-96761500D01*
X203610500Y-96761500D02*
X244610500Y-96761500D01*
X244610500Y-96761500D02*
X244610500Y-55761500D01*
X203610500Y-57761500D02*
X205610500Y-57761500D01*
X205610500Y-57761500D02*
X205610500Y-65761500D01*
X205610500Y-65761500D02*
X203610500Y-65761500D01*
X203610500Y-65761500D02*
X203610500Y-57761500D01*
X205610500Y-58761500D02*
X208610500Y-58761500D01*
X205610500Y-62761500D02*
X208610500Y-62761500D01*
X205610500Y-60761500D02*
X208610500Y-60761500D01*
X205610500Y-61761500D02*
X208610500Y-61761500D01*
X205610500Y-59761500D02*
X208610500Y-59761500D01*
%TO.C,JP18*%
X173149500Y-88037500D02*
X173149500Y-83937500D01*
X175649500Y-87587500D02*
X175649500Y-86987500D01*
X175349500Y-87287500D02*
X175649500Y-87587500D01*
X175149500Y-83937500D02*
X175149500Y-88037500D01*
X175149500Y-88037500D02*
X173149500Y-88037500D01*
X173149500Y-83937500D02*
X175149500Y-83937500D01*
X175349500Y-87287500D02*
X175649500Y-86987500D01*
%TO.C,JP9*%
X178989500Y-52000000D02*
X174889500Y-52000000D01*
X178539500Y-49500000D02*
X177939500Y-49500000D01*
X178989500Y-50000000D02*
X178989500Y-52000000D01*
X178239500Y-49800000D02*
X178539500Y-49500000D01*
X174889500Y-52000000D02*
X174889500Y-50000000D01*
X174889500Y-50000000D02*
X178989500Y-50000000D01*
X178239500Y-49800000D02*
X177939500Y-49500000D01*
%TO.C,C16*%
X181619248Y-102777500D02*
X182141752Y-102777500D01*
X181619248Y-101307500D02*
X182141752Y-101307500D01*
%TO.C,C18*%
X174399752Y-102904500D02*
X173877248Y-102904500D01*
X174399752Y-101434500D02*
X173877248Y-101434500D01*
%TO.C,J16*%
X243392000Y-134934000D02*
X243392000Y-132274000D01*
X220472000Y-132274000D02*
X243392000Y-132274000D01*
X217872000Y-133604000D02*
X217872000Y-132274000D01*
X220472000Y-134934000D02*
X220472000Y-132274000D01*
X217872000Y-132274000D02*
X219202000Y-132274000D01*
X220472000Y-134934000D02*
X243392000Y-134934000D01*
%TO.C,U4*%
X166497000Y-188214000D02*
X146177000Y-188214000D01*
X146177000Y-188214000D02*
X146177000Y-188214000D01*
X146177000Y-188214000D02*
X166497000Y-188214000D01*
X166497000Y-188214000D02*
X166497000Y-188214000D01*
X166497000Y-142494000D02*
X166497000Y-142494000D01*
X166497000Y-142494000D02*
X166497000Y-188214000D01*
X166497000Y-188214000D02*
X166497000Y-188214000D01*
X166497000Y-188214000D02*
X166497000Y-142494000D01*
X146177000Y-188214000D02*
X146177000Y-188214000D01*
X146177000Y-188214000D02*
X146177000Y-157734000D01*
X146177000Y-157734000D02*
X146177000Y-157734000D01*
X146177000Y-157734000D02*
X146177000Y-188214000D01*
X146177000Y-142494000D02*
X166497000Y-142494000D01*
X166497000Y-142494000D02*
X166497000Y-142494000D01*
X166497000Y-142494000D02*
X146177000Y-142494000D01*
X146177000Y-142494000D02*
X146177000Y-142494000D01*
X146177000Y-157734000D02*
X146177000Y-157734000D01*
X146177000Y-157734000D02*
X146177000Y-142494000D01*
X146177000Y-142494000D02*
X146177000Y-142494000D01*
X146177000Y-142494000D02*
X146177000Y-157734000D01*
%TO.C,J17*%
X149352000Y-134934000D02*
X149352000Y-132274000D01*
X146752000Y-133604000D02*
X146752000Y-132274000D01*
X149352000Y-132274000D02*
X172272000Y-132274000D01*
X146752000Y-132274000D02*
X148082000Y-132274000D01*
X172272000Y-134934000D02*
X172272000Y-132274000D01*
X149352000Y-134934000D02*
X172272000Y-134934000D01*
%TO.C,C16*%
X181155748Y-204570000D02*
X181678252Y-204570000D01*
X181155748Y-203100000D02*
X181678252Y-203100000D01*
%TO.C,JP17*%
X173009500Y-81947500D02*
X173009500Y-77847500D01*
X175509500Y-81497500D02*
X175509500Y-80897500D01*
X175009500Y-77847500D02*
X175009500Y-81947500D01*
X175209500Y-81197500D02*
X175509500Y-80897500D01*
X175009500Y-81947500D02*
X173009500Y-81947500D01*
X175209500Y-81197500D02*
X175509500Y-81497500D01*
X173009500Y-77847500D02*
X175009500Y-77847500D01*
%TO.C,J11*%
X218335500Y-123251500D02*
X218335500Y-121921500D01*
X243855500Y-124581500D02*
X243855500Y-121921500D01*
X220935500Y-124581500D02*
X220935500Y-121921500D01*
X220935500Y-124581500D02*
X243855500Y-124581500D01*
X220935500Y-121921500D02*
X243855500Y-121921500D01*
X218335500Y-121921500D02*
X219665500Y-121921500D01*
%TO.C,R17*%
X192865064Y-112356500D02*
X192410936Y-112356500D01*
X192865064Y-113826500D02*
X192410936Y-113826500D01*
%TO.C,C13*%
X206357500Y-109608752D02*
X206357500Y-109086248D01*
X207827500Y-109608752D02*
X207827500Y-109086248D01*
%TO.C,J10*%
X147215500Y-29271500D02*
X147215500Y-27941500D01*
X172735500Y-30601500D02*
X172735500Y-27941500D01*
X149815500Y-30601500D02*
X172735500Y-30601500D01*
X149815500Y-27941500D02*
X172735500Y-27941500D01*
X147215500Y-27941500D02*
X148545500Y-27941500D01*
X149815500Y-30601500D02*
X149815500Y-27941500D01*
%TO.C,JP6*%
X224299500Y-113996500D02*
G75*
G03*
X223599500Y-114696500I-1J-699999D01*
G01*
X225699500Y-115996500D02*
G75*
G03*
X226399500Y-115296500I0J700000D01*
G01*
X223599500Y-115296500D02*
G75*
G03*
X224299500Y-115996500I699999J-1D01*
G01*
X226399500Y-114696500D02*
G75*
G03*
X225699500Y-113996500I-700000J0D01*
G01*
X225699500Y-115996500D02*
X224299500Y-115996500D01*
X224299500Y-113996500D02*
X225699500Y-113996500D01*
X226399500Y-114696500D02*
X226399500Y-115296500D01*
X223599500Y-115296500D02*
X223599500Y-114696500D01*
%TO.C,JP5*%
X162785500Y-91454500D02*
G75*
G03*
X163485500Y-92154500I700000J0D01*
G01*
X164785500Y-90054500D02*
G75*
G03*
X164085500Y-89354500I-699999J1D01*
G01*
X164085500Y-92154500D02*
G75*
G03*
X164785500Y-91454500I0J700000D01*
G01*
X163485500Y-89354500D02*
G75*
G03*
X162785500Y-90054500I-1J-699999D01*
G01*
X163485500Y-89354500D02*
X164085500Y-89354500D01*
X162785500Y-91454500D02*
X162785500Y-90054500D01*
X164085500Y-92154500D02*
X163485500Y-92154500D01*
X164785500Y-90054500D02*
X164785500Y-91454500D01*
%TO.C,J11*%
X243392000Y-226374000D02*
X243392000Y-223714000D01*
X220472000Y-226374000D02*
X243392000Y-226374000D01*
X217872000Y-223714000D02*
X219202000Y-223714000D01*
X220472000Y-223714000D02*
X243392000Y-223714000D01*
X217872000Y-225044000D02*
X217872000Y-223714000D01*
X220472000Y-226374000D02*
X220472000Y-223714000D01*
%TO.C,JP4*%
X174134500Y-56973500D02*
G75*
G03*
X173434500Y-57673500I-1J-699999D01*
G01*
X175534500Y-58973500D02*
G75*
G03*
X176234500Y-58273500I0J700000D01*
G01*
X173434500Y-58273500D02*
G75*
G03*
X174134500Y-58973500I699999J-1D01*
G01*
X176234500Y-57673500D02*
G75*
G03*
X175534500Y-56973500I-700000J0D01*
G01*
X173434500Y-58273500D02*
X173434500Y-57673500D01*
X175534500Y-58973500D02*
X174134500Y-58973500D01*
X174134500Y-56973500D02*
X175534500Y-56973500D01*
X176234500Y-57673500D02*
X176234500Y-58273500D01*
%TO.C,J12*%
X149815500Y-124581500D02*
X149815500Y-121921500D01*
X172735500Y-124581500D02*
X172735500Y-121921500D01*
X149815500Y-124581500D02*
X172735500Y-124581500D01*
X147215500Y-121921500D02*
X148545500Y-121921500D01*
X149815500Y-121921500D02*
X172735500Y-121921500D01*
X147215500Y-123251500D02*
X147215500Y-121921500D01*
%TO.C,C10*%
X196905500Y-109735752D02*
X196905500Y-109213248D01*
X195435500Y-109735752D02*
X195435500Y-109213248D01*
%TO.C,U22*%
X162242500Y-110302500D02*
X160982500Y-110302500D01*
X155422500Y-106542500D02*
X155422500Y-110302500D01*
X155422500Y-110302500D02*
X156682500Y-110302500D01*
X162242500Y-104292500D02*
X162242500Y-110302500D01*
%TO.C,JP10*%
X226414500Y-110505500D02*
G75*
G03*
X225714500Y-109805500I-700000J0D01*
G01*
X224314500Y-109805500D02*
G75*
G03*
X223614500Y-110505500I-1J-699999D01*
G01*
X225714500Y-111805500D02*
G75*
G03*
X226414500Y-111105500I0J700000D01*
G01*
X223614500Y-111105500D02*
G75*
G03*
X224314500Y-111805500I699999J-1D01*
G01*
X224314500Y-109805500D02*
X225714500Y-109805500D01*
X226414500Y-110505500D02*
X226414500Y-111105500D01*
X223614500Y-111105500D02*
X223614500Y-110505500D01*
X225714500Y-111805500D02*
X224314500Y-111805500D01*
%TO.C,U14*%
X215855500Y-27366500D02*
X180295500Y-27366500D01*
X180295500Y-27366500D02*
X180295500Y-52766500D01*
X180295500Y-52766500D02*
X215855500Y-52766500D01*
X215855500Y-52766500D02*
X215855500Y-27366500D01*
%TO.C,J16*%
X218335500Y-31811500D02*
X218335500Y-30481500D01*
X220935500Y-30481500D02*
X243855500Y-30481500D01*
X243855500Y-33141500D02*
X243855500Y-30481500D01*
X218335500Y-30481500D02*
X219665500Y-30481500D01*
X220935500Y-33141500D02*
X243855500Y-33141500D01*
X220935500Y-33141500D02*
X220935500Y-30481500D01*
%TO.C,JP11*%
X225714500Y-107741500D02*
G75*
G03*
X226414500Y-107041500I0J700000D01*
G01*
X224314500Y-105741500D02*
G75*
G03*
X223614500Y-106441500I-1J-699999D01*
G01*
X223614500Y-107041500D02*
G75*
G03*
X224314500Y-107741500I699999J-1D01*
G01*
X226414500Y-106441500D02*
G75*
G03*
X225714500Y-105741500I-700000J0D01*
G01*
X223614500Y-107041500D02*
X223614500Y-106441500D01*
X225714500Y-107741500D02*
X224314500Y-107741500D01*
X226414500Y-106441500D02*
X226414500Y-107041500D01*
X224314500Y-105741500D02*
X225714500Y-105741500D01*
%TO.C,U4*%
X146640500Y-55941500D02*
X146640500Y-55941500D01*
X146640500Y-55941500D02*
X146640500Y-40701500D01*
X146640500Y-40701500D02*
X146640500Y-40701500D01*
X146640500Y-40701500D02*
X146640500Y-55941500D01*
X166960500Y-40701500D02*
X166960500Y-40701500D01*
X166960500Y-40701500D02*
X166960500Y-86421500D01*
X166960500Y-86421500D02*
X166960500Y-86421500D01*
X166960500Y-86421500D02*
X166960500Y-40701500D01*
X146640500Y-40701500D02*
X166960500Y-40701500D01*
X166960500Y-40701500D02*
X166960500Y-40701500D01*
X166960500Y-40701500D02*
X146640500Y-40701500D01*
X146640500Y-40701500D02*
X146640500Y-40701500D01*
X146640500Y-86421500D02*
X146640500Y-86421500D01*
X146640500Y-86421500D02*
X146640500Y-55941500D01*
X146640500Y-55941500D02*
X146640500Y-55941500D01*
X146640500Y-55941500D02*
X146640500Y-86421500D01*
X166960500Y-86421500D02*
X146640500Y-86421500D01*
X146640500Y-86421500D02*
X146640500Y-86421500D01*
X146640500Y-86421500D02*
X166960500Y-86421500D01*
X166960500Y-86421500D02*
X166960500Y-86421500D01*
%TO.C,J12*%
X146752000Y-225044000D02*
X146752000Y-223714000D01*
X149352000Y-226374000D02*
X149352000Y-223714000D01*
X172272000Y-226374000D02*
X172272000Y-223714000D01*
X149352000Y-223714000D02*
X172272000Y-223714000D01*
X149352000Y-226374000D02*
X172272000Y-226374000D01*
X146752000Y-223714000D02*
X148082000Y-223714000D01*
%TO.C,C11*%
X196905500Y-113145248D02*
X196905500Y-113667752D01*
X195435500Y-113145248D02*
X195435500Y-113667752D01*
%TO.C,U15*%
X176422000Y-208335000D02*
X176422000Y-212095000D01*
X176422000Y-212095000D02*
X177682000Y-212095000D01*
X183242000Y-206085000D02*
X183242000Y-212095000D01*
X183242000Y-212095000D02*
X181982000Y-212095000D01*
%TO.C,J10*%
X146752000Y-129734000D02*
X148082000Y-129734000D01*
X149352000Y-129734000D02*
X172272000Y-129734000D01*
X149352000Y-132394000D02*
X172272000Y-132394000D01*
X149352000Y-132394000D02*
X149352000Y-129734000D01*
X146752000Y-131064000D02*
X146752000Y-129734000D01*
X172272000Y-132394000D02*
X172272000Y-129734000D01*
%TO.C,JP5*%
X164322000Y-191847000D02*
X164322000Y-193247000D01*
X163022000Y-191147000D02*
X163622000Y-191147000D01*
X162322000Y-193247000D02*
X162322000Y-191847000D01*
X163622000Y-193947000D02*
X163022000Y-193947000D01*
X162322000Y-193247000D02*
G75*
G03*
X163022000Y-193947000I700000J0D01*
G01*
X163022000Y-191147000D02*
G75*
G03*
X162322000Y-191847000I-1J-699999D01*
G01*
X163622000Y-193947000D02*
G75*
G03*
X164322000Y-193247000I0J700000D01*
G01*
X164322000Y-191847000D02*
G75*
G03*
X163622000Y-191147000I-699999J1D01*
G01*
%TO.C,J9*%
X243392000Y-132394000D02*
X243392000Y-129734000D01*
X220472000Y-132394000D02*
X220472000Y-129734000D01*
X217872000Y-129734000D02*
X219202000Y-129734000D01*
X217872000Y-131064000D02*
X217872000Y-129734000D01*
X220472000Y-132394000D02*
X243392000Y-132394000D01*
X220472000Y-129734000D02*
X243392000Y-129734000D01*
%TO.C,C13*%
X205894000Y-211401252D02*
X205894000Y-210878748D01*
X207364000Y-211401252D02*
X207364000Y-210878748D01*
%TO.C,U14*%
X215392000Y-129159000D02*
X179832000Y-129159000D01*
X179832000Y-129159000D02*
X179832000Y-154559000D01*
X179832000Y-154559000D02*
X215392000Y-154559000D01*
X215392000Y-154559000D02*
X215392000Y-129159000D01*
%TO.C,JP9*%
X177776000Y-151592500D02*
X177476000Y-151292500D01*
X178526000Y-153792500D02*
X174426000Y-153792500D01*
X178526000Y-151792500D02*
X178526000Y-153792500D01*
X174426000Y-151792500D02*
X178526000Y-151792500D01*
X174426000Y-153792500D02*
X174426000Y-151792500D01*
X177776000Y-151592500D02*
X178076000Y-151292500D01*
X178076000Y-151292500D02*
X177476000Y-151292500D01*
%TO.C,JP6*%
X225936000Y-216489000D02*
X225936000Y-217089000D01*
X223836000Y-215789000D02*
X225236000Y-215789000D01*
X223136000Y-217089000D02*
X223136000Y-216489000D01*
X225236000Y-217789000D02*
X223836000Y-217789000D01*
X225936000Y-216489000D02*
G75*
G03*
X225236000Y-215789000I-700000J0D01*
G01*
X223136000Y-217089000D02*
G75*
G03*
X223836000Y-217789000I699999J-1D01*
G01*
X225236000Y-217789000D02*
G75*
G03*
X225936000Y-217089000I0J700000D01*
G01*
X223836000Y-215789000D02*
G75*
G03*
X223136000Y-216489000I-1J-699999D01*
G01*
%TO.C,C11*%
X196442000Y-214937748D02*
X196442000Y-215460252D01*
X194972000Y-214937748D02*
X194972000Y-215460252D01*
%TO.C,C10*%
X194972000Y-211528252D02*
X194972000Y-211005748D01*
X196442000Y-211528252D02*
X196442000Y-211005748D01*
%TO.C,JP10*%
X223851000Y-211598000D02*
X225251000Y-211598000D01*
X223151000Y-212898000D02*
X223151000Y-212298000D01*
X225251000Y-213598000D02*
X223851000Y-213598000D01*
X225951000Y-212298000D02*
X225951000Y-212898000D01*
X225951000Y-212298000D02*
G75*
G03*
X225251000Y-211598000I-700000J0D01*
G01*
X225251000Y-213598000D02*
G75*
G03*
X225951000Y-212898000I0J700000D01*
G01*
X223151000Y-212898000D02*
G75*
G03*
X223851000Y-213598000I699999J-1D01*
G01*
X223851000Y-211598000D02*
G75*
G03*
X223151000Y-212298000I-1J-699999D01*
G01*
%TO.C,U6*%
X197241000Y-205047000D02*
X204841000Y-205047000D01*
X204841000Y-205047000D02*
X204841000Y-216847000D01*
X204841000Y-216847000D02*
X197241000Y-216847000D01*
X197241000Y-216847000D02*
X197241000Y-205047000D01*
%TO.C,C19*%
X173936252Y-206148000D02*
X173413748Y-206148000D01*
X173936252Y-207618000D02*
X173413748Y-207618000D01*
%TO.C,J19*%
X149352000Y-223834000D02*
X172272000Y-223834000D01*
X149352000Y-221174000D02*
X172272000Y-221174000D01*
X146752000Y-222504000D02*
X146752000Y-221174000D01*
X146752000Y-221174000D02*
X148082000Y-221174000D01*
X149352000Y-223834000D02*
X149352000Y-221174000D01*
X172272000Y-223834000D02*
X172272000Y-221174000D01*
%TO.C,R17*%
X192401564Y-215619000D02*
X191947436Y-215619000D01*
X192401564Y-214149000D02*
X191947436Y-214149000D01*
%TO.C,JP7*%
X193036000Y-198830000D02*
X193636000Y-198830000D01*
X194336000Y-199530000D02*
X194336000Y-200930000D01*
X193636000Y-201630000D02*
X193036000Y-201630000D01*
X192336000Y-200930000D02*
X192336000Y-199530000D01*
X193636000Y-201630000D02*
G75*
G03*
X194336000Y-200930000I0J700000D01*
G01*
X192336000Y-200930000D02*
G75*
G03*
X193036000Y-201630000I700000J0D01*
G01*
X194336000Y-199530000D02*
G75*
G03*
X193636000Y-198830000I-699999J1D01*
G01*
X193036000Y-198830000D02*
G75*
G03*
X192336000Y-199530000I-1J-699999D01*
G01*
%TO.C,C18*%
X173936252Y-204697000D02*
X173413748Y-204697000D01*
X173936252Y-203227000D02*
X173413748Y-203227000D01*
%TO.C,JP18*%
X174686000Y-185730000D02*
X174686000Y-189830000D01*
X174886000Y-189080000D02*
X175186000Y-188780000D01*
X174686000Y-189830000D02*
X172686000Y-189830000D01*
X172686000Y-185730000D02*
X174686000Y-185730000D01*
X174886000Y-189080000D02*
X175186000Y-189380000D01*
X175186000Y-189380000D02*
X175186000Y-188780000D01*
X172686000Y-189830000D02*
X172686000Y-185730000D01*
%TO.C,C20*%
X169378113Y-211685000D02*
X169378113Y-211474000D01*
X170338113Y-211685000D02*
X170338113Y-210501000D01*
X170098113Y-214790000D02*
X170098113Y-213765000D01*
X171419113Y-215294000D02*
X171419113Y-213765000D01*
X170538113Y-211685000D02*
X170538113Y-210396000D01*
X169618113Y-211685000D02*
X169618113Y-211120000D01*
X169458113Y-211685000D02*
X169458113Y-211342000D01*
X171019113Y-211685000D02*
X171019113Y-210224000D01*
X170018113Y-214729000D02*
X170018113Y-213765000D01*
X169738113Y-214468000D02*
X169738113Y-213765000D01*
X171139113Y-211685000D02*
X171139113Y-210197000D01*
X169418113Y-211685000D02*
X169418113Y-211406000D01*
X171619113Y-215305000D02*
X171619113Y-210145000D01*
X169138113Y-213402000D02*
X169138113Y-212048000D01*
X170858113Y-215180000D02*
X170858113Y-213765000D01*
X170498113Y-211685000D02*
X170498113Y-210415000D01*
X169698113Y-214424000D02*
X169698113Y-213765000D01*
X169858113Y-214589000D02*
X169858113Y-213765000D01*
X170818113Y-211685000D02*
X170818113Y-210283000D01*
X170979113Y-215216000D02*
X170979113Y-213765000D01*
X170138113Y-214820000D02*
X170138113Y-213765000D01*
X169898113Y-214626000D02*
X169898113Y-213765000D01*
X171299113Y-211685000D02*
X171299113Y-210169000D01*
X169978113Y-214696000D02*
X169978113Y-213765000D01*
X170418113Y-211685000D02*
X170418113Y-210457000D01*
X169898113Y-211685000D02*
X169898113Y-210824000D01*
X171659113Y-215305000D02*
X171659113Y-210145000D01*
X170418113Y-214993000D02*
X170418113Y-213765000D01*
X170178113Y-214847000D02*
X170178113Y-213765000D01*
X169178113Y-213530000D02*
X169178113Y-211920000D01*
X169698113Y-211685000D02*
X169698113Y-211026000D01*
X169098113Y-213243000D02*
X169098113Y-212207000D01*
X170898113Y-215193000D02*
X170898113Y-213765000D01*
X171059113Y-215236000D02*
X171059113Y-213765000D01*
X170458113Y-215015000D02*
X170458113Y-213765000D01*
X169778113Y-214510000D02*
X169778113Y-213765000D01*
X169338113Y-213903000D02*
X169338113Y-211547000D01*
X169738113Y-211685000D02*
X169738113Y-210982000D01*
X170938113Y-211685000D02*
X170938113Y-210245000D01*
X170898113Y-211685000D02*
X170898113Y-210257000D01*
X171579113Y-215304000D02*
X171579113Y-210146000D01*
X169298113Y-213823000D02*
X169298113Y-211627000D01*
X170578113Y-211685000D02*
X170578113Y-210377000D01*
X171219113Y-215268000D02*
X171219113Y-213765000D01*
X170658113Y-211685000D02*
X170658113Y-210343000D01*
X170858113Y-211685000D02*
X170858113Y-210270000D01*
X170338113Y-214949000D02*
X170338113Y-213765000D01*
X170618113Y-215090000D02*
X170618113Y-213765000D01*
X171299113Y-215281000D02*
X171299113Y-213765000D01*
X170298113Y-214925000D02*
X170298113Y-213765000D01*
X170578113Y-215073000D02*
X170578113Y-213765000D01*
X174213888Y-214450000D02*
X174213888Y-213950000D01*
X171459113Y-215298000D02*
X171459113Y-210152000D01*
X171179113Y-215261000D02*
X171179113Y-213765000D01*
X169658113Y-211685000D02*
X169658113Y-211072000D01*
X170018113Y-211685000D02*
X170018113Y-210721000D01*
X170218113Y-211685000D02*
X170218113Y-210576000D01*
X170258113Y-214900000D02*
X170258113Y-213765000D01*
X171539113Y-215303000D02*
X171539113Y-210147000D01*
X170378113Y-211685000D02*
X170378113Y-210478000D01*
X170938113Y-215205000D02*
X170938113Y-213765000D01*
X170458113Y-211685000D02*
X170458113Y-210435000D01*
X169498113Y-211685000D02*
X169498113Y-211282000D01*
X169498113Y-214168000D02*
X169498113Y-213765000D01*
X169058113Y-213009000D02*
X169058113Y-212441000D01*
X169618113Y-214330000D02*
X169618113Y-213765000D01*
X169938113Y-214662000D02*
X169938113Y-213765000D01*
X170738113Y-215139000D02*
X170738113Y-213765000D01*
X169778113Y-211685000D02*
X169778113Y-210940000D01*
X171139113Y-215253000D02*
X171139113Y-213765000D01*
X171259113Y-211685000D02*
X171259113Y-210175000D01*
X170098113Y-211685000D02*
X170098113Y-210660000D01*
X169978113Y-211685000D02*
X169978113Y-210754000D01*
X169218113Y-213640000D02*
X169218113Y-211810000D01*
X169858113Y-211685000D02*
X169858113Y-210861000D01*
X170738113Y-211685000D02*
X170738113Y-210311000D01*
X169538113Y-211685000D02*
X169538113Y-211225000D01*
X171379113Y-215290000D02*
X171379113Y-213765000D01*
X171499113Y-215301000D02*
X171499113Y-210149000D01*
X171099113Y-215245000D02*
X171099113Y-213765000D01*
X169418113Y-214044000D02*
X169418113Y-213765000D01*
X169458113Y-214108000D02*
X169458113Y-213765000D01*
X171019113Y-215226000D02*
X171019113Y-213765000D01*
X170218113Y-214874000D02*
X170218113Y-213765000D01*
X170618113Y-211685000D02*
X170618113Y-210360000D01*
X170498113Y-215035000D02*
X170498113Y-213765000D01*
X170378113Y-214972000D02*
X170378113Y-213765000D01*
X174463888Y-214200000D02*
X173963888Y-214200000D01*
X170258113Y-211685000D02*
X170258113Y-210550000D01*
X171419113Y-211685000D02*
X171419113Y-210156000D01*
X169578113Y-214279000D02*
X169578113Y-213765000D01*
X169938113Y-211685000D02*
X169938113Y-210788000D01*
X169818113Y-211685000D02*
X169818113Y-210899000D01*
X171339113Y-211685000D02*
X171339113Y-210164000D01*
X170298113Y-211685000D02*
X170298113Y-210525000D01*
X169258113Y-213736000D02*
X169258113Y-211714000D01*
X169538113Y-214225000D02*
X169538113Y-213765000D01*
X170778113Y-211685000D02*
X170778113Y-210297000D01*
X171219113Y-211685000D02*
X171219113Y-210182000D01*
X170058113Y-211685000D02*
X170058113Y-210690000D01*
X170698113Y-215123000D02*
X170698113Y-213765000D01*
X170538113Y-215054000D02*
X170538113Y-213765000D01*
X169578113Y-211685000D02*
X169578113Y-211171000D01*
X170818113Y-215167000D02*
X170818113Y-213765000D01*
X169818113Y-214551000D02*
X169818113Y-213765000D01*
X170658113Y-215107000D02*
X170658113Y-213765000D01*
X171379113Y-211685000D02*
X171379113Y-210160000D01*
X171179113Y-211685000D02*
X171179113Y-210189000D01*
X170698113Y-211685000D02*
X170698113Y-210327000D01*
X170138113Y-211685000D02*
X170138113Y-210630000D01*
X169658113Y-214378000D02*
X169658113Y-213765000D01*
X170778113Y-215153000D02*
X170778113Y-213765000D01*
X171059113Y-211685000D02*
X171059113Y-210214000D01*
X169378113Y-213976000D02*
X169378113Y-213765000D01*
X171339113Y-215286000D02*
X171339113Y-213765000D01*
X171099113Y-211685000D02*
X171099113Y-210205000D01*
X170178113Y-211685000D02*
X170178113Y-210603000D01*
X170058113Y-214760000D02*
X170058113Y-213765000D01*
X171259113Y-215275000D02*
X171259113Y-213765000D01*
X170979113Y-211685000D02*
X170979113Y-210234000D01*
X174279113Y-212725000D02*
G75*
G03*
X174279113Y-212725000I-2620000J0D01*
G01*
%TO.C,C5*%
X189536000Y-200074888D02*
X184376000Y-200074888D01*
X185916000Y-201875888D02*
X185130000Y-201875888D01*
X189492000Y-200514888D02*
X187996000Y-200514888D01*
X189529000Y-200234888D02*
X184383000Y-200234888D01*
X189457000Y-200674888D02*
X187996000Y-200674888D01*
X189203000Y-201315888D02*
X187996000Y-201315888D01*
X185916000Y-200474888D02*
X184413000Y-200474888D01*
X189424000Y-200795888D02*
X187996000Y-200795888D01*
X185916000Y-200955888D02*
X184542000Y-200955888D01*
X188431000Y-197230113D02*
X188431000Y-197730113D01*
X185916000Y-201195888D02*
X184646000Y-201195888D01*
X189354000Y-200995888D02*
X187996000Y-200995888D01*
X185916000Y-202115888D02*
X185402000Y-202115888D01*
X185916000Y-201915888D02*
X185171000Y-201915888D01*
X185916000Y-201995888D02*
X185257000Y-201995888D01*
X185916000Y-201555888D02*
X184861000Y-201555888D01*
X189224000Y-201275888D02*
X187996000Y-201275888D01*
X189447000Y-200714888D02*
X187996000Y-200714888D01*
X185916000Y-201515888D02*
X184834000Y-201515888D01*
X189156000Y-201395888D02*
X187996000Y-201395888D01*
X187871000Y-202475888D02*
X186041000Y-202475888D01*
X185916000Y-201715888D02*
X184985000Y-201715888D01*
X188134000Y-202355888D02*
X185778000Y-202355888D01*
X189285000Y-201155888D02*
X187996000Y-201155888D01*
X188857000Y-201795888D02*
X187996000Y-201795888D01*
X189321000Y-201075888D02*
X187996000Y-201075888D01*
X187240000Y-202635888D02*
X186672000Y-202635888D01*
X189051000Y-201555888D02*
X187996000Y-201555888D01*
X189338000Y-201035888D02*
X187996000Y-201035888D01*
X185916000Y-201275888D02*
X184688000Y-201275888D01*
X188339000Y-202235888D02*
X187996000Y-202235888D01*
X185916000Y-202035888D02*
X185303000Y-202035888D01*
X185916000Y-201595888D02*
X184891000Y-201595888D01*
X189534000Y-200154888D02*
X184378000Y-200154888D01*
X188960000Y-201675888D02*
X187996000Y-201675888D01*
X187761000Y-202515888D02*
X186151000Y-202515888D01*
X185916000Y-202155888D02*
X185456000Y-202155888D01*
X188609000Y-202035888D02*
X187996000Y-202035888D01*
X189536000Y-200034888D02*
X184376000Y-200034888D01*
X188561000Y-202075888D02*
X187996000Y-202075888D01*
X185916000Y-200514888D02*
X184420000Y-200514888D01*
X189517000Y-200354888D02*
X187996000Y-200354888D01*
X185916000Y-200594888D02*
X184436000Y-200594888D01*
X189535000Y-200114888D02*
X184377000Y-200114888D01*
X185916000Y-201115888D02*
X184608000Y-201115888D01*
X188991000Y-201635888D02*
X187996000Y-201635888D01*
X188699000Y-201955888D02*
X187996000Y-201955888D01*
X188820000Y-201835888D02*
X187996000Y-201835888D01*
X189525000Y-200274888D02*
X187996000Y-200274888D01*
X185916000Y-202075888D02*
X185351000Y-202075888D01*
X188456000Y-202155888D02*
X187996000Y-202155888D01*
X185916000Y-200875888D02*
X184514000Y-200875888D01*
X189411000Y-200835888D02*
X187996000Y-200835888D01*
X185916000Y-200634888D02*
X184445000Y-200634888D01*
X185916000Y-201475888D02*
X184807000Y-201475888D01*
X189304000Y-201115888D02*
X187996000Y-201115888D01*
X189021000Y-201595888D02*
X187996000Y-201595888D01*
X189532000Y-200194888D02*
X184380000Y-200194888D01*
X185916000Y-202315888D02*
X185705000Y-202315888D01*
X188399000Y-202195888D02*
X187996000Y-202195888D01*
X185916000Y-202235888D02*
X185573000Y-202235888D01*
X185916000Y-200434888D02*
X184406000Y-200434888D01*
X185916000Y-201155888D02*
X184627000Y-201155888D01*
X189105000Y-201475888D02*
X187996000Y-201475888D01*
X185916000Y-201035888D02*
X184574000Y-201035888D01*
X189499000Y-200474888D02*
X187996000Y-200474888D01*
X185916000Y-200915888D02*
X184528000Y-200915888D01*
X185916000Y-201235888D02*
X184666000Y-201235888D01*
X185916000Y-201315888D02*
X184709000Y-201315888D01*
X185916000Y-200554888D02*
X184428000Y-200554888D01*
X185916000Y-200795888D02*
X184488000Y-200795888D01*
X185916000Y-200755888D02*
X184476000Y-200755888D01*
X185916000Y-200394888D02*
X184400000Y-200394888D01*
X189246000Y-201235888D02*
X187996000Y-201235888D01*
X185916000Y-201435888D02*
X184781000Y-201435888D01*
X185916000Y-202275888D02*
X185637000Y-202275888D01*
X189521000Y-200314888D02*
X187996000Y-200314888D01*
X185916000Y-201355888D02*
X184732000Y-201355888D01*
X188275000Y-202275888D02*
X187996000Y-202275888D01*
X189266000Y-201195888D02*
X187996000Y-201195888D01*
X185916000Y-200714888D02*
X184465000Y-200714888D01*
X185916000Y-201075888D02*
X184591000Y-201075888D01*
X189370000Y-200955888D02*
X187996000Y-200955888D01*
X185916000Y-201755888D02*
X185019000Y-201755888D01*
X185916000Y-201795888D02*
X185055000Y-201795888D01*
X185916000Y-200274888D02*
X184387000Y-200274888D01*
X189398000Y-200875888D02*
X187996000Y-200875888D01*
X188510000Y-202115888D02*
X187996000Y-202115888D01*
X189467000Y-200634888D02*
X187996000Y-200634888D01*
X188782000Y-201875888D02*
X187996000Y-201875888D01*
X185916000Y-200674888D02*
X184455000Y-200674888D01*
X188054000Y-202395888D02*
X185858000Y-202395888D01*
X189180000Y-201355888D02*
X187996000Y-201355888D01*
X189436000Y-200755888D02*
X187996000Y-200755888D01*
X185916000Y-202195888D02*
X185513000Y-202195888D01*
X185916000Y-200354888D02*
X184395000Y-200354888D01*
X185916000Y-201395888D02*
X184756000Y-201395888D01*
X188927000Y-201715888D02*
X187996000Y-201715888D01*
X185916000Y-201675888D02*
X184952000Y-201675888D01*
X189476000Y-200594888D02*
X187996000Y-200594888D01*
X185916000Y-200995888D02*
X184558000Y-200995888D01*
X189384000Y-200915888D02*
X187996000Y-200915888D01*
X185916000Y-201955888D02*
X185213000Y-201955888D01*
X188207000Y-202315888D02*
X187996000Y-202315888D01*
X185916000Y-201835888D02*
X185092000Y-201835888D01*
X188893000Y-201755888D02*
X187996000Y-201755888D01*
X189131000Y-201435888D02*
X187996000Y-201435888D01*
X185916000Y-201635888D02*
X184921000Y-201635888D01*
X187474000Y-202595888D02*
X186438000Y-202595888D01*
X189484000Y-200554888D02*
X187996000Y-200554888D01*
X187967000Y-202435888D02*
X185945000Y-202435888D01*
X189506000Y-200434888D02*
X187996000Y-200434888D01*
X188655000Y-201995888D02*
X187996000Y-201995888D01*
X185916000Y-200835888D02*
X184501000Y-200835888D01*
X188681000Y-197480113D02*
X188181000Y-197480113D01*
X188741000Y-201915888D02*
X187996000Y-201915888D01*
X189078000Y-201515888D02*
X187996000Y-201515888D01*
X189512000Y-200394888D02*
X187996000Y-200394888D01*
X187633000Y-202555888D02*
X186279000Y-202555888D01*
X185916000Y-200314888D02*
X184391000Y-200314888D01*
X189576000Y-200034888D02*
G75*
G03*
X189576000Y-200034888I-2620000J0D01*
G01*
%TO.C,JP12*%
X167848000Y-191274000D02*
X168448000Y-191274000D01*
X167148000Y-193374000D02*
X167148000Y-191974000D01*
X169148000Y-191974000D02*
X169148000Y-193374000D01*
X168448000Y-194074000D02*
X167848000Y-194074000D01*
X167848000Y-191274000D02*
G75*
G03*
X167148000Y-191974000I-1J-699999D01*
G01*
X167148000Y-193374000D02*
G75*
G03*
X167848000Y-194074000I700000J0D01*
G01*
X169148000Y-191974000D02*
G75*
G03*
X168448000Y-191274000I-699999J1D01*
G01*
X168448000Y-194074000D02*
G75*
G03*
X169148000Y-193374000I0J700000D01*
G01*
%TO.C,U13*%
X205147000Y-163554000D02*
X208147000Y-163554000D01*
X205147000Y-160554000D02*
X208147000Y-160554000D01*
X205147000Y-162554000D02*
X208147000Y-162554000D01*
X205147000Y-161554000D02*
X208147000Y-161554000D01*
X205147000Y-164554000D02*
X208147000Y-164554000D01*
X244147000Y-193554000D02*
X240147000Y-193554000D01*
X240147000Y-193554000D02*
X240147000Y-183554000D01*
X240147000Y-183554000D02*
X244147000Y-183554000D01*
X244147000Y-183554000D02*
X244147000Y-193554000D01*
X203147000Y-159554000D02*
X205147000Y-159554000D01*
X205147000Y-159554000D02*
X205147000Y-167554000D01*
X205147000Y-167554000D02*
X203147000Y-167554000D01*
X203147000Y-167554000D02*
X203147000Y-159554000D01*
X244147000Y-157554000D02*
X203147000Y-157554000D01*
X203147000Y-157554000D02*
X203147000Y-198554000D01*
X203147000Y-198554000D02*
X244147000Y-198554000D01*
X244147000Y-198554000D02*
X244147000Y-157554000D01*
%TO.C,U5*%
X181610000Y-195961000D02*
X181610000Y-159131000D01*
X199390000Y-159131000D02*
X199390000Y-195961000D01*
X187325000Y-159131000D02*
X199390000Y-159131000D01*
X181610000Y-159131000D02*
X187325000Y-159131000D01*
X199390000Y-195961000D02*
X181610000Y-195961000D01*
%TO.C,JP11*%
X225951000Y-208234000D02*
X225951000Y-208834000D01*
X225251000Y-209534000D02*
X223851000Y-209534000D01*
X223151000Y-208834000D02*
X223151000Y-208234000D01*
X223851000Y-207534000D02*
X225251000Y-207534000D01*
X225951000Y-208234000D02*
G75*
G03*
X225251000Y-207534000I-700000J0D01*
G01*
X223151000Y-208834000D02*
G75*
G03*
X223851000Y-209534000I699999J-1D01*
G01*
X223851000Y-207534000D02*
G75*
G03*
X223151000Y-208234000I-1J-699999D01*
G01*
X225251000Y-209534000D02*
G75*
G03*
X225951000Y-208834000I0J700000D01*
G01*
%TO.C,C12*%
X207364000Y-214815748D02*
X207364000Y-215338252D01*
X205894000Y-214815748D02*
X205894000Y-215338252D01*
%TO.C,U22*%
X154959000Y-212095000D02*
X156219000Y-212095000D01*
X161779000Y-206085000D02*
X161779000Y-212095000D01*
X161779000Y-212095000D02*
X160519000Y-212095000D01*
X154959000Y-208335000D02*
X154959000Y-212095000D01*
%TO.C,J26*%
X193929000Y-172399000D02*
X192599000Y-172399000D01*
X195199000Y-172399000D02*
X195199000Y-169739000D01*
X195199000Y-169739000D02*
X195259000Y-169739000D01*
X192599000Y-172399000D02*
X192599000Y-171069000D01*
X195199000Y-172399000D02*
X195259000Y-172399000D01*
X195259000Y-172399000D02*
X195259000Y-169739000D01*
%TD*%
M02*
