%TF.GenerationSoftware,KiCad,Pcbnew,6.0.7-f9a2dced07~116~ubuntu20.04.1*%
%TF.CreationDate,2022-11-23T13:06:43+01:00*%
%TF.ProjectId,board,626f6172-642e-46b6-9963-61645f706362,rev?*%
%TF.SameCoordinates,Original*%
%TF.FileFunction,Soldermask,Top*%
%TF.FilePolarity,Negative*%
%FSLAX46Y46*%
G04 Gerber Fmt 4.6, Leading zero omitted, Abs format (unit mm)*
G04 Created by KiCad (PCBNEW 6.0.7-f9a2dced07~116~ubuntu20.04.1) date 2022-11-23 13:06:43*
%MOMM*%
%LPD*%
G01*
G04 APERTURE LIST*
G04 Aperture macros list*
%AMRoundRect*
0 Rectangle with rounded corners*
0 $1 Rounding radius*
0 $2 $3 $4 $5 $6 $7 $8 $9 X,Y pos of 4 corners*
0 Add a 4 corners polygon primitive as box body*
4,1,4,$2,$3,$4,$5,$6,$7,$8,$9,$2,$3,0*
0 Add four circle primitives for the rounded corners*
1,1,$1+$1,$2,$3*
1,1,$1+$1,$4,$5*
1,1,$1+$1,$6,$7*
1,1,$1+$1,$8,$9*
0 Add four rect primitives between the rounded corners*
20,1,$1+$1,$2,$3,$4,$5,0*
20,1,$1+$1,$4,$5,$6,$7,0*
20,1,$1+$1,$6,$7,$8,$9,0*
20,1,$1+$1,$8,$9,$2,$3,0*%
%AMFreePoly0*
4,1,22,0.500000,-0.750000,0.000000,-0.750000,0.000000,-0.745033,-0.079941,-0.743568,-0.215256,-0.701293,-0.333266,-0.622738,-0.424486,-0.514219,-0.481581,-0.384460,-0.499164,-0.250000,-0.500000,-0.250000,-0.500000,0.250000,-0.499164,0.250000,-0.499963,0.256109,-0.478152,0.396186,-0.417904,0.524511,-0.324060,0.630769,-0.204165,0.706417,-0.067858,0.745374,0.000000,0.744959,0.000000,0.750000,
0.500000,0.750000,0.500000,-0.750000,0.500000,-0.750000,$1*%
%AMFreePoly1*
4,1,20,0.000000,0.744959,0.073905,0.744508,0.209726,0.703889,0.328688,0.626782,0.421226,0.519385,0.479903,0.390333,0.500000,0.250000,0.500000,-0.250000,0.499851,-0.262216,0.476331,-0.402017,0.414519,-0.529596,0.319384,-0.634700,0.198574,-0.708877,0.061801,-0.746166,0.000000,-0.745033,0.000000,-0.750000,-0.500000,-0.750000,-0.500000,0.750000,0.000000,0.750000,0.000000,0.744959,
0.000000,0.744959,$1*%
G04 Aperture macros list end*
%ADD10R,1.700000X1.700000*%
%ADD11O,1.700000X1.700000*%
%ADD12FreePoly0,0.000000*%
%ADD13FreePoly1,0.000000*%
%ADD14RoundRect,0.250000X-0.337500X-0.475000X0.337500X-0.475000X0.337500X0.475000X-0.337500X0.475000X0*%
%ADD15FreePoly1,270.000000*%
%ADD16FreePoly0,270.000000*%
%ADD17R,1.000000X1.500000*%
%ADD18C,1.600000*%
%ADD19R,1.600000X1.600000*%
%ADD20C,1.524000*%
%ADD21R,3.800000X2.000000*%
%ADD22R,1.500000X2.000000*%
%ADD23C,3.000000*%
%ADD24RoundRect,0.500000X3.000000X3.000000X-3.000000X3.000000X-3.000000X-3.000000X3.000000X-3.000000X0*%
%ADD25RoundRect,0.125000X0.125000X0.875000X-0.125000X0.875000X-0.125000X-0.875000X0.125000X-0.875000X0*%
%ADD26RoundRect,0.250000X-0.475000X0.250000X-0.475000X-0.250000X0.475000X-0.250000X0.475000X0.250000X0*%
%ADD27RoundRect,0.250000X0.250000X0.475000X-0.250000X0.475000X-0.250000X-0.475000X0.250000X-0.475000X0*%
%ADD28R,1.500000X1.000000*%
%ADD29RoundRect,0.250000X-0.250000X-0.475000X0.250000X-0.475000X0.250000X0.475000X-0.250000X0.475000X0*%
%ADD30C,2.000000*%
%ADD31RoundRect,0.250000X0.262500X0.450000X-0.262500X0.450000X-0.262500X-0.450000X0.262500X-0.450000X0*%
%ADD32RoundRect,0.250000X0.475000X-0.250000X0.475000X0.250000X-0.475000X0.250000X-0.475000X-0.250000X0*%
%ADD33C,4.300000*%
%ADD34C,4.000000*%
%ADD35C,14.000000*%
G04 APERTURE END LIST*
D10*
%TO.C,J18*%
X219202000Y-222504000D03*
D11*
X221742000Y-222504000D03*
X224282000Y-222504000D03*
X226822000Y-222504000D03*
X229362000Y-222504000D03*
X231902000Y-222504000D03*
X234442000Y-222504000D03*
X236982000Y-222504000D03*
X239522000Y-222504000D03*
X242062000Y-222504000D03*
%TD*%
D12*
%TO.C,JP4*%
X173721000Y-159766000D03*
D13*
X175021000Y-159766000D03*
%TD*%
D14*
%TO.C,C3*%
X155786000Y-203708000D03*
X157861000Y-203708000D03*
%TD*%
D15*
%TO.C,JP7*%
X193799500Y-99087500D03*
D16*
X193799500Y-97787500D03*
%TD*%
D17*
%TO.C,JP8*%
X169929500Y-51027500D03*
X171229500Y-51027500D03*
X172529500Y-51027500D03*
%TD*%
%TO.C,JP8*%
X172066000Y-152820000D03*
X170766000Y-152820000D03*
X169466000Y-152820000D03*
%TD*%
D11*
%TO.C,J19*%
X171405500Y-120711500D03*
X168865500Y-120711500D03*
X166325500Y-120711500D03*
X163785500Y-120711500D03*
X161245500Y-120711500D03*
X158705500Y-120711500D03*
X156165500Y-120711500D03*
X153625500Y-120711500D03*
X151085500Y-120711500D03*
D10*
X148545500Y-120711500D03*
%TD*%
D18*
%TO.C,C5*%
X187419500Y-99492388D03*
D19*
X187419500Y-96992388D03*
%TD*%
D14*
%TO.C,C3*%
X158324500Y-101915500D03*
X156249500Y-101915500D03*
%TD*%
D20*
%TO.C,U24*%
X148759500Y-92930500D03*
X148759500Y-95470500D03*
X148759500Y-98010500D03*
X148759500Y-100550500D03*
%TD*%
D10*
%TO.C,J26*%
X194392500Y-69276500D03*
%TD*%
D21*
%TO.C,U15*%
X180295500Y-111542500D03*
D22*
X177995500Y-105242500D03*
X180295500Y-105242500D03*
X182595500Y-105242500D03*
%TD*%
D20*
%TO.C,U25*%
X187409500Y-105640500D03*
X187409500Y-108180500D03*
X187409500Y-110720500D03*
X187409500Y-113260500D03*
%TD*%
D11*
%TO.C,J17*%
X171405500Y-31811500D03*
X168865500Y-31811500D03*
X166325500Y-31811500D03*
X163785500Y-31811500D03*
X161245500Y-31811500D03*
X158705500Y-31811500D03*
X156165500Y-31811500D03*
X153625500Y-31811500D03*
X151085500Y-31811500D03*
D10*
X148545500Y-31811500D03*
%TD*%
D23*
%TO.C,U5*%
X194138500Y-90993500D03*
X186518500Y-90993500D03*
X186518500Y-60513500D03*
X194138500Y-60513500D03*
%TD*%
D24*
%TO.C,U6*%
X201504500Y-107028500D03*
D25*
X204044500Y-113759500D03*
X202774500Y-113748389D03*
X201501166Y-113748389D03*
X200234500Y-113759500D03*
X198964500Y-113759500D03*
%TD*%
D26*
%TO.C,C12*%
X207092500Y-114234500D03*
X207092500Y-112334500D03*
%TD*%
D18*
%TO.C,C20*%
X170872613Y-110932500D03*
D19*
X173372613Y-110932500D03*
%TD*%
D11*
%TO.C,J9*%
X242525500Y-29271500D03*
X239985500Y-29271500D03*
X237445500Y-29271500D03*
X234905500Y-29271500D03*
X232365500Y-29271500D03*
X229825500Y-29271500D03*
X227285500Y-29271500D03*
X224745500Y-29271500D03*
X222205500Y-29271500D03*
D10*
X219665500Y-29271500D03*
%TD*%
D11*
%TO.C,J18*%
X242525500Y-120711500D03*
X239985500Y-120711500D03*
X237445500Y-120711500D03*
X234905500Y-120711500D03*
X232365500Y-120711500D03*
X229825500Y-120711500D03*
X227285500Y-120711500D03*
X224745500Y-120711500D03*
X222205500Y-120711500D03*
D10*
X219665500Y-120711500D03*
%TD*%
D15*
%TO.C,JP12*%
X168611500Y-91531500D03*
D16*
X168611500Y-90231500D03*
%TD*%
D27*
%TO.C,C19*%
X173188500Y-105090500D03*
X175088500Y-105090500D03*
%TD*%
D28*
%TO.C,JP17*%
X173546000Y-182990000D03*
X173546000Y-181690000D03*
X173546000Y-180390000D03*
%TD*%
%TO.C,JP18*%
X174149500Y-84687500D03*
X174149500Y-85987500D03*
X174149500Y-87287500D03*
%TD*%
D17*
%TO.C,JP9*%
X175639500Y-51000000D03*
X176939500Y-51000000D03*
X178239500Y-51000000D03*
%TD*%
D29*
%TO.C,C16*%
X182830500Y-102042500D03*
X180930500Y-102042500D03*
%TD*%
D27*
%TO.C,C18*%
X173188500Y-102169500D03*
X175088500Y-102169500D03*
%TD*%
D10*
%TO.C,J16*%
X219202000Y-133604000D03*
D11*
X221742000Y-133604000D03*
X224282000Y-133604000D03*
X226822000Y-133604000D03*
X229362000Y-133604000D03*
X231902000Y-133604000D03*
X234442000Y-133604000D03*
X236982000Y-133604000D03*
X239522000Y-133604000D03*
X242062000Y-133604000D03*
%TD*%
D30*
%TO.C,U4*%
X148717000Y-157734000D03*
X148717000Y-160274000D03*
X148717000Y-162814000D03*
X148717000Y-165354000D03*
%TD*%
D20*
%TO.C,U24*%
X148296000Y-202343000D03*
X148296000Y-199803000D03*
X148296000Y-197263000D03*
X148296000Y-194723000D03*
%TD*%
D10*
%TO.C,J17*%
X148082000Y-133604000D03*
D11*
X150622000Y-133604000D03*
X153162000Y-133604000D03*
X155702000Y-133604000D03*
X158242000Y-133604000D03*
X160782000Y-133604000D03*
X163322000Y-133604000D03*
X165862000Y-133604000D03*
X168402000Y-133604000D03*
X170942000Y-133604000D03*
%TD*%
D29*
%TO.C,C16*%
X180467000Y-203835000D03*
X182367000Y-203835000D03*
%TD*%
D28*
%TO.C,JP17*%
X174009500Y-78597500D03*
X174009500Y-79897500D03*
X174009500Y-81197500D03*
%TD*%
D11*
%TO.C,J11*%
X242525500Y-123251500D03*
X239985500Y-123251500D03*
X237445500Y-123251500D03*
X234905500Y-123251500D03*
X232365500Y-123251500D03*
X229825500Y-123251500D03*
X227285500Y-123251500D03*
X224745500Y-123251500D03*
X222205500Y-123251500D03*
D10*
X219665500Y-123251500D03*
%TD*%
D31*
%TO.C,R17*%
X191725500Y-113091500D03*
X193550500Y-113091500D03*
%TD*%
D32*
%TO.C,C13*%
X207092500Y-108397500D03*
X207092500Y-110297500D03*
%TD*%
D33*
%TO.C,H5*%
X176739500Y-40701500D03*
%TD*%
D11*
%TO.C,J10*%
X171405500Y-29271500D03*
X168865500Y-29271500D03*
X166325500Y-29271500D03*
X163785500Y-29271500D03*
X161245500Y-29271500D03*
X158705500Y-29271500D03*
X156165500Y-29271500D03*
X153625500Y-29271500D03*
X151085500Y-29271500D03*
D10*
X148545500Y-29271500D03*
%TD*%
D13*
%TO.C,JP6*%
X225649500Y-114996500D03*
D12*
X224349500Y-114996500D03*
%TD*%
D15*
%TO.C,JP5*%
X163785500Y-91404500D03*
D16*
X163785500Y-90104500D03*
%TD*%
D10*
%TO.C,J11*%
X219202000Y-225044000D03*
D11*
X221742000Y-225044000D03*
X224282000Y-225044000D03*
X226822000Y-225044000D03*
X229362000Y-225044000D03*
X231902000Y-225044000D03*
X234442000Y-225044000D03*
X236982000Y-225044000D03*
X239522000Y-225044000D03*
X242062000Y-225044000D03*
%TD*%
D13*
%TO.C,JP4*%
X175484500Y-57973500D03*
D12*
X174184500Y-57973500D03*
%TD*%
D11*
%TO.C,J12*%
X171405500Y-123251500D03*
X168865500Y-123251500D03*
X166325500Y-123251500D03*
X163785500Y-123251500D03*
X161245500Y-123251500D03*
X158705500Y-123251500D03*
X156165500Y-123251500D03*
X153625500Y-123251500D03*
X151085500Y-123251500D03*
D10*
X148545500Y-123251500D03*
%TD*%
D32*
%TO.C,C10*%
X196170500Y-108524500D03*
X196170500Y-110424500D03*
%TD*%
D21*
%TO.C,U22*%
X158832500Y-111542500D03*
D22*
X156532500Y-105242500D03*
X158832500Y-105242500D03*
X161132500Y-105242500D03*
%TD*%
D13*
%TO.C,JP10*%
X225664500Y-110805500D03*
D12*
X224364500Y-110805500D03*
%TD*%
D20*
%TO.C,U23*%
X148705500Y-105551500D03*
X148705500Y-108091500D03*
X148705500Y-110631500D03*
X148705500Y-113171500D03*
%TD*%
%TO.C,U14*%
X181565500Y-43876500D03*
X181565500Y-41336500D03*
X181565500Y-38796500D03*
X181565500Y-36256500D03*
D23*
X213315500Y-50566500D03*
D34*
X212565500Y-41316500D03*
D23*
X182315500Y-29566500D03*
X182315500Y-50566500D03*
X213315500Y-29566500D03*
%TD*%
D11*
%TO.C,J16*%
X242525500Y-31811500D03*
X239985500Y-31811500D03*
X237445500Y-31811500D03*
X234905500Y-31811500D03*
X232365500Y-31811500D03*
X229825500Y-31811500D03*
X227285500Y-31811500D03*
X224745500Y-31811500D03*
X222205500Y-31811500D03*
D10*
X219665500Y-31811500D03*
%TD*%
D13*
%TO.C,JP11*%
X225664500Y-106741500D03*
D12*
X224364500Y-106741500D03*
%TD*%
D35*
%TO.C,H8*%
X174910700Y-67269900D03*
%TD*%
D33*
%TO.C,H6*%
X198109500Y-121367500D03*
%TD*%
D30*
%TO.C,U4*%
X149180500Y-63561500D03*
X149180500Y-61021500D03*
X149180500Y-58481500D03*
X149180500Y-55941500D03*
%TD*%
D10*
%TO.C,J12*%
X148082000Y-225044000D03*
D11*
X150622000Y-225044000D03*
X153162000Y-225044000D03*
X155702000Y-225044000D03*
X158242000Y-225044000D03*
X160782000Y-225044000D03*
X163322000Y-225044000D03*
X165862000Y-225044000D03*
X168402000Y-225044000D03*
X170942000Y-225044000D03*
%TD*%
D26*
%TO.C,C11*%
X196170500Y-114356500D03*
X196170500Y-112456500D03*
%TD*%
D20*
%TO.C,U25*%
X186946000Y-215053000D03*
X186946000Y-212513000D03*
X186946000Y-209973000D03*
X186946000Y-207433000D03*
%TD*%
D33*
%TO.C,H6*%
X197646000Y-223160000D03*
%TD*%
D22*
%TO.C,U15*%
X182132000Y-207035000D03*
X179832000Y-207035000D03*
X177532000Y-207035000D03*
D21*
X179832000Y-213335000D03*
%TD*%
D10*
%TO.C,J10*%
X148082000Y-131064000D03*
D11*
X150622000Y-131064000D03*
X153162000Y-131064000D03*
X155702000Y-131064000D03*
X158242000Y-131064000D03*
X160782000Y-131064000D03*
X163322000Y-131064000D03*
X165862000Y-131064000D03*
X168402000Y-131064000D03*
X170942000Y-131064000D03*
%TD*%
D16*
%TO.C,JP5*%
X163322000Y-191897000D03*
D15*
X163322000Y-193197000D03*
%TD*%
D10*
%TO.C,J9*%
X219202000Y-131064000D03*
D11*
X221742000Y-131064000D03*
X224282000Y-131064000D03*
X226822000Y-131064000D03*
X229362000Y-131064000D03*
X231902000Y-131064000D03*
X234442000Y-131064000D03*
X236982000Y-131064000D03*
X239522000Y-131064000D03*
X242062000Y-131064000D03*
%TD*%
D32*
%TO.C,C13*%
X206629000Y-212090000D03*
X206629000Y-210190000D03*
%TD*%
D23*
%TO.C,U14*%
X181852000Y-152359000D03*
X212852000Y-152359000D03*
X181852000Y-131359000D03*
X212852000Y-131359000D03*
D34*
X212102000Y-143109000D03*
D20*
X181102000Y-138049000D03*
X181102000Y-140589000D03*
X181102000Y-143129000D03*
X181102000Y-145669000D03*
%TD*%
D33*
%TO.C,H5*%
X176276000Y-142494000D03*
%TD*%
D17*
%TO.C,JP9*%
X177776000Y-152792500D03*
X176476000Y-152792500D03*
X175176000Y-152792500D03*
%TD*%
D12*
%TO.C,JP6*%
X223886000Y-216789000D03*
D13*
X225186000Y-216789000D03*
%TD*%
D26*
%TO.C,C11*%
X195707000Y-214249000D03*
X195707000Y-216149000D03*
%TD*%
D32*
%TO.C,C10*%
X195707000Y-212217000D03*
X195707000Y-210317000D03*
%TD*%
D12*
%TO.C,JP10*%
X223901000Y-212598000D03*
D13*
X225201000Y-212598000D03*
%TD*%
D35*
%TO.C,H8*%
X174447200Y-169062400D03*
%TD*%
D25*
%TO.C,U6*%
X198501000Y-215552000D03*
X199771000Y-215552000D03*
X201037666Y-215540889D03*
X202311000Y-215540889D03*
X203581000Y-215552000D03*
D24*
X201041000Y-208821000D03*
%TD*%
D27*
%TO.C,C19*%
X174625000Y-206883000D03*
X172725000Y-206883000D03*
%TD*%
D10*
%TO.C,J19*%
X148082000Y-222504000D03*
D11*
X150622000Y-222504000D03*
X153162000Y-222504000D03*
X155702000Y-222504000D03*
X158242000Y-222504000D03*
X160782000Y-222504000D03*
X163322000Y-222504000D03*
X165862000Y-222504000D03*
X168402000Y-222504000D03*
X170942000Y-222504000D03*
%TD*%
D31*
%TO.C,R17*%
X193087000Y-214884000D03*
X191262000Y-214884000D03*
%TD*%
D16*
%TO.C,JP7*%
X193336000Y-199580000D03*
D15*
X193336000Y-200880000D03*
%TD*%
D27*
%TO.C,C18*%
X174625000Y-203962000D03*
X172725000Y-203962000D03*
%TD*%
D28*
%TO.C,JP18*%
X173686000Y-189080000D03*
X173686000Y-187780000D03*
X173686000Y-186480000D03*
%TD*%
D19*
%TO.C,C20*%
X172909113Y-212725000D03*
D18*
X170409113Y-212725000D03*
%TD*%
D19*
%TO.C,C5*%
X186956000Y-198784888D03*
D18*
X186956000Y-201284888D03*
%TD*%
D16*
%TO.C,JP12*%
X168148000Y-192024000D03*
D15*
X168148000Y-193324000D03*
%TD*%
D23*
%TO.C,U5*%
X193675000Y-162306000D03*
X186055000Y-162306000D03*
X186055000Y-192786000D03*
X193675000Y-192786000D03*
%TD*%
D12*
%TO.C,JP11*%
X223901000Y-208534000D03*
D13*
X225201000Y-208534000D03*
%TD*%
D20*
%TO.C,U23*%
X148242000Y-214964000D03*
X148242000Y-212424000D03*
X148242000Y-209884000D03*
X148242000Y-207344000D03*
%TD*%
D26*
%TO.C,C12*%
X206629000Y-214127000D03*
X206629000Y-216027000D03*
%TD*%
D22*
%TO.C,U22*%
X160669000Y-207035000D03*
X158369000Y-207035000D03*
X156069000Y-207035000D03*
D21*
X158369000Y-213335000D03*
%TD*%
D10*
%TO.C,J26*%
X193929000Y-171069000D03*
%TD*%
M02*
