%TF.GenerationSoftware,KiCad,Pcbnew,6.0.7-f9a2dced07~116~ubuntu20.04.1*%
%TF.CreationDate,2022-11-23T13:06:43+01:00*%
%TF.ProjectId,board,626f6172-642e-46b6-9963-61645f706362,rev?*%
%TF.SameCoordinates,Original*%
%TF.FileFunction,Profile,NP*%
%FSLAX46Y46*%
G04 Gerber Fmt 4.6, Leading zero omitted, Abs format (unit mm)*
G04 Created by KiCad (PCBNEW 6.0.7-f9a2dced07~116~ubuntu20.04.1) date 2022-11-23 13:06:43*
%MOMM*%
%LPD*%
G01*
G04 APERTURE LIST*
%TA.AperFunction,Profile*%
%ADD10C,0.100000*%
%TD*%
G04 APERTURE END LIST*
D10*
X242525500Y-125791500D02*
G75*
G03*
X245065500Y-123251500I0J2540000D01*
G01*
X202774500Y-101026500D02*
X242525500Y-101026500D01*
X242525500Y-52875400D02*
G75*
G03*
X245065500Y-50335449I0J2540000D01*
G01*
X245065500Y-103566500D02*
X245065500Y-123251500D01*
X146005500Y-29271500D02*
X146005500Y-123251500D01*
X200234500Y-55415449D02*
X200234500Y-98486500D01*
X242271500Y-26731500D02*
X148545500Y-26731500D01*
X245065500Y-29525500D02*
X245065500Y-50335449D01*
X202774500Y-52875500D02*
G75*
G03*
X200234500Y-55415449I-100J-2539900D01*
G01*
X245065500Y-29525500D02*
G75*
G03*
X242271500Y-26731500I-2794000J0D01*
G01*
X200234500Y-98486500D02*
G75*
G03*
X202774500Y-101026500I2540000J0D01*
G01*
X148545500Y-26731500D02*
G75*
G03*
X146005500Y-29271500I0J-2540000D01*
G01*
X245065500Y-103566500D02*
G75*
G03*
X242525500Y-101026500I-2540000J0D01*
G01*
X148545500Y-125791500D02*
X242525500Y-125791500D01*
X242062000Y-154667949D02*
X202311000Y-154667949D01*
X146005500Y-123251500D02*
G75*
G03*
X148545500Y-125791500I2540000J0D01*
G01*
X244602000Y-131318000D02*
G75*
G03*
X241808000Y-128524000I-2794001J-1D01*
G01*
X242525500Y-52875449D02*
X202774500Y-52875449D01*
X244602000Y-131318000D02*
X244602000Y-152127949D01*
X244602000Y-205359000D02*
G75*
G03*
X242062000Y-202819000I-2540001J-1D01*
G01*
X199771000Y-200279000D02*
G75*
G03*
X202311000Y-202819000I2540001J1D01*
G01*
X148082000Y-227584000D02*
X242062000Y-227584000D01*
X244602000Y-205359000D02*
X244602000Y-225044000D01*
X148082000Y-128524000D02*
G75*
G03*
X145542000Y-131064000I1J-2540001D01*
G01*
X241808000Y-128524000D02*
X148082000Y-128524000D01*
X199771000Y-157207949D02*
X199771000Y-200279000D01*
X242062000Y-227584000D02*
G75*
G03*
X244602000Y-225044000I-1J2540001D01*
G01*
X202311000Y-154667949D02*
G75*
G03*
X199771000Y-157207949I-13J-2539987D01*
G01*
X242062000Y-154667949D02*
G75*
G03*
X244602000Y-152127949I-83J2540083D01*
G01*
X145542000Y-131064000D02*
X145542000Y-225044000D01*
X202311000Y-202819000D02*
X242062000Y-202819000D01*
X145542000Y-225044000D02*
G75*
G03*
X148082000Y-227584000I2540001J1D01*
G01*
M02*
