M48
; DRILL file {KiCad 6.0.7-f9a2dced07~116~ubuntu20.04.1} date Wed 23 Nov 2022 01:06:46 PM CET
; FORMAT={-:-/ absolute / metric / decimal}
; #@! TF.CreationDate,2022-11-23T13:06:46+01:00
; #@! TF.GenerationSoftware,Kicad,Pcbnew,6.0.7-f9a2dced07~116~ubuntu20.04.1
; #@! TF.FileFunction,Plated,1,2,PTH
FMAT,2
METRIC
; #@! TA.AperFunction,Plated,PTH,ViaDrill
T1C0.400
; #@! TA.AperFunction,Plated,PTH,ComponentDrill
T2C0.762
; #@! TA.AperFunction,Plated,PTH,ComponentDrill
T3C0.800
; #@! TA.AperFunction,Plated,PTH,ComponentDrill
T4C1.000
; #@! TA.AperFunction,Plated,PTH,ComponentDrill
T5C1.500
; #@! TA.AperFunction,Plated,PTH,ComponentDrill
T6C1.524
%
G90
G05
T1
X150.376Y-184.7
X150.839Y-82.907
X170.536Y-150.53
X170.999Y-48.737
X176.736Y-150.53
X177.2Y-48.737
X192.706Y-159.24
X193.046Y-212.96
X193.169Y-57.447
X193.176Y-202.42
X193.51Y-111.167
X193.548Y-216.662
X193.639Y-100.627
X194.011Y-114.869
X194.437Y-158.115
X194.9Y-56.322
X195.072Y-156.845
X195.535Y-55.052
X209.677Y-209.042
X210.141Y-107.249
T2
X148.242Y-207.344
X148.242Y-209.884
X148.242Y-212.424
X148.242Y-214.964
X148.296Y-194.723
X148.296Y-197.263
X148.296Y-199.803
X148.296Y-202.343
X148.706Y-105.551
X148.706Y-108.091
X148.706Y-110.631
X148.706Y-113.171
X148.76Y-92.93
X148.76Y-95.471
X148.76Y-98.01
X148.76Y-100.55
X181.102Y-138.049
X181.102Y-140.589
X181.102Y-143.129
X181.102Y-145.669
X181.565Y-36.256
X181.565Y-38.797
X181.565Y-41.337
X181.565Y-43.877
X186.946Y-207.433
X186.946Y-209.973
X186.946Y-212.513
X186.946Y-215.053
X187.409Y-105.64
X187.409Y-108.18
X187.409Y-110.721
X187.409Y-113.26
T3
X170.409Y-212.725
X170.873Y-110.932
X172.909Y-212.725
X173.373Y-110.932
X186.956Y-198.785
X186.956Y-201.285
X187.419Y-96.992
X187.419Y-99.492
T4
X148.082Y-131.064
X148.082Y-133.604
X148.082Y-222.504
X148.082Y-225.044
X148.546Y-29.271
X148.546Y-31.811
X148.546Y-120.712
X148.546Y-123.251
X148.717Y-157.734
X148.717Y-160.274
X148.717Y-162.814
X148.717Y-165.354
X149.18Y-55.941
X149.18Y-58.481
X149.18Y-61.021
X149.18Y-63.561
X150.622Y-131.064
X150.622Y-133.604
X150.622Y-222.504
X150.622Y-225.044
X151.085Y-29.271
X151.085Y-31.811
X151.085Y-120.712
X151.085Y-123.251
X153.162Y-131.064
X153.162Y-133.604
X153.162Y-222.504
X153.162Y-225.044
X153.625Y-29.271
X153.625Y-31.811
X153.625Y-120.712
X153.625Y-123.251
X155.702Y-131.064
X155.702Y-133.604
X155.702Y-222.504
X155.702Y-225.044
X156.165Y-29.271
X156.165Y-31.811
X156.165Y-120.712
X156.165Y-123.251
X158.242Y-131.064
X158.242Y-133.604
X158.242Y-222.504
X158.242Y-225.044
X158.706Y-29.271
X158.706Y-31.811
X158.706Y-120.712
X158.706Y-123.251
X160.782Y-131.064
X160.782Y-133.604
X160.782Y-222.504
X160.782Y-225.044
X161.245Y-29.271
X161.245Y-31.811
X161.245Y-120.712
X161.245Y-123.251
X163.322Y-131.064
X163.322Y-133.604
X163.322Y-222.504
X163.322Y-225.044
X163.785Y-29.271
X163.785Y-31.811
X163.785Y-120.712
X163.785Y-123.251
X165.862Y-131.064
X165.862Y-133.604
X165.862Y-222.504
X165.862Y-225.044
X166.326Y-29.271
X166.326Y-31.811
X166.326Y-120.712
X166.326Y-123.251
X168.402Y-131.064
X168.402Y-133.604
X168.402Y-222.504
X168.402Y-225.044
X168.865Y-29.271
X168.865Y-31.811
X168.865Y-120.712
X168.865Y-123.251
X170.942Y-131.064
X170.942Y-133.604
X170.942Y-222.504
X170.942Y-225.044
X171.405Y-29.271
X171.405Y-31.811
X171.405Y-120.712
X171.405Y-123.251
X193.929Y-171.069
X194.392Y-69.276
X219.202Y-131.064
X219.202Y-133.604
X219.202Y-222.504
X219.202Y-225.044
X219.665Y-29.271
X219.665Y-31.811
X219.665Y-120.712
X219.665Y-123.251
X221.742Y-131.064
X221.742Y-133.604
X221.742Y-222.504
X221.742Y-225.044
X222.206Y-29.271
X222.206Y-31.811
X222.206Y-120.712
X222.206Y-123.251
X224.282Y-131.064
X224.282Y-133.604
X224.282Y-222.504
X224.282Y-225.044
X224.745Y-29.271
X224.745Y-31.811
X224.745Y-120.712
X224.745Y-123.251
X226.822Y-131.064
X226.822Y-133.604
X226.822Y-222.504
X226.822Y-225.044
X227.285Y-29.271
X227.285Y-31.811
X227.285Y-120.712
X227.285Y-123.251
X229.362Y-131.064
X229.362Y-133.604
X229.362Y-222.504
X229.362Y-225.044
X229.825Y-29.271
X229.825Y-31.811
X229.825Y-120.712
X229.825Y-123.251
X231.902Y-131.064
X231.902Y-133.604
X231.902Y-222.504
X231.902Y-225.044
X232.365Y-29.271
X232.365Y-31.811
X232.365Y-120.712
X232.365Y-123.251
X234.442Y-131.064
X234.442Y-133.604
X234.442Y-222.504
X234.442Y-225.044
X234.905Y-29.271
X234.905Y-31.811
X234.905Y-120.712
X234.905Y-123.251
X236.982Y-131.064
X236.982Y-133.604
X236.982Y-222.504
X236.982Y-225.044
X237.445Y-29.271
X237.445Y-31.811
X237.445Y-120.712
X237.445Y-123.251
X239.522Y-131.064
X239.522Y-133.604
X239.522Y-222.504
X239.522Y-225.044
X239.986Y-29.271
X239.986Y-31.811
X239.986Y-120.712
X239.986Y-123.251
X242.062Y-131.064
X242.062Y-133.604
X242.062Y-222.504
X242.062Y-225.044
X242.525Y-29.271
X242.525Y-31.811
X242.525Y-120.712
X242.525Y-123.251
T5
X193.675Y-162.306
X194.138Y-60.514
T6
X186.055Y-162.306
X186.055Y-192.786
X186.518Y-60.514
X186.518Y-90.993
X193.675Y-192.786
X194.138Y-90.993
T0
M30
