M48
; DRILL file {KiCad 6.0.7-f9a2dced07~116~ubuntu20.04.1} date Wed 23 Nov 2022 01:06:08 PM CET
; FORMAT={-:-/ absolute / metric / decimal}
; #@! TF.CreationDate,2022-11-23T13:06:08+01:00
; #@! TF.GenerationSoftware,Kicad,Pcbnew,6.0.7-f9a2dced07~116~ubuntu20.04.1
; #@! TF.FileFunction,Plated,1,2,PTH
FMAT,2
METRIC
; #@! TA.AperFunction,Plated,PTH,ViaDrill
T1C0.400
; #@! TA.AperFunction,Plated,PTH,ComponentDrill
T2C0.762
; #@! TA.AperFunction,Plated,PTH,ComponentDrill
T3C0.800
; #@! TA.AperFunction,Plated,PTH,ComponentDrill
T4C1.000
; #@! TA.AperFunction,Plated,PTH,ComponentDrill
T5C1.100
; #@! TA.AperFunction,Plated,PTH,ComponentDrill
T6C2.000
%
G90
G05
T1
X78.096Y-58.247
X78.427Y-159.893
X84.572Y-40.086
X84.904Y-141.732
X87.239Y-39.451
X87.571Y-141.097
X89.652Y-38.689
X89.984Y-140.335
X92.192Y-37.673
X92.524Y-139.319
X100.956Y-70.312
X101.287Y-171.958
X104.765Y-36.276
X105.097Y-137.922
X105.908Y-45.42
X106.24Y-147.066
X109.591Y-74.122
X109.923Y-175.768
X109.972Y-66.375
X110.304Y-168.021
X110.353Y-60.787
X110.685Y-162.433
X111.369Y-36.276
X111.496Y-45.293
X111.701Y-137.922
X111.828Y-146.939
X116.069Y-66.248
X116.4Y-167.894
X117.338Y-45.293
X117.67Y-146.939
X121.275Y-89.87
X121.607Y-191.516
X122.164Y-88.981
X122.496Y-190.627
X123.307Y-88.981
X123.639Y-190.627
T2
X40.404Y-39.828
X40.404Y-42.368
X40.404Y-47.448
X40.404Y-49.988
X40.488Y-56.738
X40.488Y-74.518
X40.735Y-141.474
X40.735Y-144.014
X40.735Y-149.094
X40.735Y-151.634
X40.82Y-158.384
X40.82Y-176.164
X43.029Y-56.738
X43.029Y-74.518
X43.36Y-158.384
X43.36Y-176.164
X48.108Y-56.738
X48.108Y-74.518
X48.44Y-158.384
X48.44Y-176.164
X50.648Y-56.738
X50.648Y-74.518
X50.98Y-158.384
X50.98Y-176.164
X58.183Y-39.828
X58.183Y-42.368
X58.183Y-47.448
X58.183Y-49.988
X58.515Y-141.474
X58.515Y-144.014
X58.515Y-149.094
X58.515Y-151.634
X75.743Y-64.388
X75.743Y-66.928
X75.743Y-72.008
X75.743Y-74.548
X76.075Y-166.034
X76.075Y-168.574
X76.075Y-173.654
X76.075Y-176.194
X76.885Y-30.942
X76.885Y-53.802
X77.216Y-132.588
X77.216Y-155.448
X79.424Y-30.942
X79.424Y-53.802
X79.756Y-132.588
X79.756Y-155.448
X81.965Y-30.942
X81.965Y-53.802
X82.296Y-132.588
X82.296Y-155.448
X84.504Y-30.942
X84.504Y-53.802
X84.836Y-132.588
X84.836Y-155.448
X87.044Y-30.942
X87.044Y-53.802
X87.376Y-132.588
X87.376Y-155.448
X89.584Y-30.942
X89.584Y-53.802
X89.916Y-132.588
X89.916Y-155.448
X92.124Y-30.942
X92.124Y-53.802
X92.456Y-132.588
X92.456Y-155.448
X93.523Y-64.388
X93.523Y-66.928
X93.523Y-72.008
X93.523Y-74.548
X93.855Y-166.034
X93.855Y-168.574
X93.855Y-173.654
X93.855Y-176.194
X94.664Y-30.942
X94.664Y-53.802
X94.996Y-132.588
X94.996Y-155.448
X97.204Y-30.942
X97.204Y-53.802
X97.536Y-132.588
X97.536Y-155.448
X99.745Y-30.942
X99.745Y-53.802
X100.076Y-132.588
X100.076Y-155.448
X100.303Y-64.388
X100.303Y-66.928
X100.303Y-72.008
X100.303Y-74.548
X100.635Y-166.034
X100.635Y-168.574
X100.635Y-173.654
X100.635Y-176.194
X102.284Y-30.942
X102.284Y-53.802
X102.616Y-132.588
X102.616Y-155.448
X104.825Y-30.942
X104.825Y-53.802
X105.156Y-132.588
X105.156Y-155.448
X107.364Y-30.942
X107.364Y-53.802
X107.696Y-132.588
X107.696Y-155.448
X118.084Y-64.388
X118.084Y-66.928
X118.084Y-72.008
X118.084Y-74.548
X118.415Y-166.034
X118.415Y-168.574
X118.415Y-173.654
X118.415Y-176.194
T3
X125.194Y-62.228
X125.194Y-64.768
X125.194Y-67.308
X125.194Y-69.848
X125.194Y-72.388
X125.194Y-74.928
X125.194Y-77.468
X125.194Y-80.008
X125.525Y-163.874
X125.525Y-166.414
X125.525Y-168.954
X125.525Y-171.494
X125.525Y-174.034
X125.525Y-176.574
X125.525Y-179.114
X125.525Y-181.654
X132.814Y-62.228
X132.814Y-64.768
X132.814Y-67.308
X132.814Y-69.848
X132.814Y-72.388
X132.814Y-74.928
X132.814Y-77.468
X132.814Y-80.008
X133.145Y-163.874
X133.145Y-166.414
X133.145Y-168.954
X133.145Y-171.494
X133.145Y-174.034
X133.145Y-176.574
X133.145Y-179.114
X133.145Y-181.654
T4
X39.273Y-33.678
X39.292Y-29.926
X39.292Y-123.906
X39.605Y-135.324
X39.624Y-131.572
X39.624Y-225.552
X41.813Y-33.678
X41.832Y-29.926
X41.832Y-123.906
X42.145Y-135.324
X42.164Y-131.572
X42.164Y-225.552
X44.353Y-33.678
X44.372Y-29.926
X44.372Y-123.906
X44.685Y-135.324
X44.704Y-131.572
X44.704Y-225.552
X46.893Y-33.678
X46.913Y-29.926
X46.913Y-123.906
X47.225Y-135.324
X47.244Y-131.572
X47.244Y-225.552
X49.453Y-29.926
X49.453Y-123.906
X49.784Y-131.572
X49.784Y-225.552
X51.992Y-29.926
X51.992Y-123.906
X52.324Y-131.572
X52.324Y-225.552
X54.532Y-29.926
X54.532Y-123.906
X54.864Y-131.572
X54.864Y-225.552
X57.072Y-29.926
X57.072Y-123.906
X57.404Y-131.572
X57.404Y-225.552
X59.612Y-29.926
X59.612Y-123.906
X59.944Y-131.572
X59.944Y-225.552
X62.152Y-29.926
X62.152Y-123.906
X62.484Y-131.572
X62.484Y-225.552
X98.663Y-123.748
X98.995Y-225.394
X104.163Y-123.808
X104.495Y-225.454
X110.412Y-29.926
X110.412Y-123.906
X110.744Y-131.572
X110.744Y-225.552
X112.953Y-29.926
X112.953Y-123.906
X113.284Y-131.572
X113.284Y-225.552
X115.492Y-29.926
X115.492Y-123.906
X115.824Y-131.572
X115.824Y-225.552
X118.032Y-29.926
X118.032Y-123.906
X118.364Y-131.572
X118.364Y-225.552
X120.572Y-29.926
X120.572Y-123.906
X120.904Y-131.572
X120.904Y-225.552
X123.112Y-29.926
X123.112Y-123.906
X123.444Y-131.572
X123.444Y-225.552
X125.466Y-44.912
X125.466Y-47.452
X125.652Y-29.926
X125.652Y-123.906
X125.798Y-146.558
X125.798Y-149.098
X125.984Y-131.572
X125.984Y-225.552
X128.192Y-29.926
X128.192Y-123.906
X128.524Y-131.572
X128.524Y-225.552
X130.732Y-29.926
X130.732Y-123.906
X131.064Y-131.572
X131.064Y-225.552
X133.273Y-29.926
X133.273Y-123.906
X133.604Y-131.572
X133.604Y-225.552
T5
X63.907Y-48.52
X63.907Y-55.02
X64.239Y-150.166
X64.239Y-156.666
X68.407Y-48.52
X68.407Y-55.02
X68.739Y-150.166
X68.739Y-156.666
T6
X40.963Y-109.458
X41.033Y-88.858
X41.295Y-211.104
X41.365Y-190.504
X112.963Y-109.458
X113.033Y-88.858
X113.295Y-211.104
X113.365Y-190.504
T4
G00X125.584Y-112.875
M15
G01X125.584Y-110.875
M16
G05
G00X125.915Y-214.521
M15
G01X125.915Y-212.521
M16
G05
G00X126.303Y-92.358
M15
G01X127.303Y-92.358
M16
G05
G00X126.303Y-96.958
M15
G01X127.303Y-96.958
M16
G05
G00X126.303Y-101.758
M15
G01X127.303Y-101.758
M16
G05
G00X126.635Y-194.004
M15
G01X127.635Y-194.004
M16
G05
G00X126.635Y-198.604
M15
G01X127.635Y-198.604
M16
G05
G00X126.635Y-203.404
M15
G01X127.635Y-203.404
M16
G05
G00X129.583Y-107.175
M15
G01X127.584Y-107.175
M16
G05
G00X129.915Y-208.821
M15
G01X127.915Y-208.821
M16
G05
G00X131.583Y-112.875
M15
G01X131.583Y-110.875
M16
G05
G00X131.103Y-92.358
M15
G01X132.103Y-92.358
M16
G05
G00X131.103Y-97.058
M15
G01X132.103Y-97.058
M16
G05
G00X131.103Y-101.758
M15
G01X132.103Y-101.758
M16
G05
G00X131.915Y-214.521
M15
G01X131.915Y-212.521
M16
G05
G00X131.435Y-194.004
M15
G01X132.435Y-194.004
M16
G05
G00X131.435Y-198.704
M15
G01X132.435Y-198.704
M16
G05
G00X131.435Y-203.404
M15
G01X132.435Y-203.404
M16
G05
T0
M30
