%TF.GenerationSoftware,KiCad,Pcbnew,6.0.7-f9a2dced07~116~ubuntu20.04.1*%
%TF.CreationDate,2022-11-23T13:06:06+01:00*%
%TF.ProjectId,board,626f6172-642e-46b6-9963-61645f706362,rev?*%
%TF.SameCoordinates,Original*%
%TF.FileFunction,Soldermask,Bot*%
%TF.FilePolarity,Negative*%
%FSLAX46Y46*%
G04 Gerber Fmt 4.6, Leading zero omitted, Abs format (unit mm)*
G04 Created by KiCad (PCBNEW 6.0.7-f9a2dced07~116~ubuntu20.04.1) date 2022-11-23 13:06:06*
%MOMM*%
%LPD*%
G01*
G04 APERTURE LIST*
G04 Aperture macros list*
%AMRoundRect*
0 Rectangle with rounded corners*
0 $1 Rounding radius*
0 $2 $3 $4 $5 $6 $7 $8 $9 X,Y pos of 4 corners*
0 Add a 4 corners polygon primitive as box body*
4,1,4,$2,$3,$4,$5,$6,$7,$8,$9,$2,$3,0*
0 Add four circle primitives for the rounded corners*
1,1,$1+$1,$2,$3*
1,1,$1+$1,$4,$5*
1,1,$1+$1,$6,$7*
1,1,$1+$1,$8,$9*
0 Add four rect primitives between the rounded corners*
20,1,$1+$1,$2,$3,$4,$5,0*
20,1,$1+$1,$4,$5,$6,$7,0*
20,1,$1+$1,$6,$7,$8,$9,0*
20,1,$1+$1,$8,$9,$2,$3,0*%
%AMFreePoly0*
4,1,22,0.500000,-0.750000,0.000000,-0.750000,0.000000,-0.745033,-0.079941,-0.743568,-0.215256,-0.701293,-0.333266,-0.622738,-0.424486,-0.514219,-0.481581,-0.384460,-0.499164,-0.250000,-0.500000,-0.250000,-0.500000,0.250000,-0.499164,0.250000,-0.499963,0.256109,-0.478152,0.396186,-0.417904,0.524511,-0.324060,0.630769,-0.204165,0.706417,-0.067858,0.745374,0.000000,0.744959,0.000000,0.750000,
0.500000,0.750000,0.500000,-0.750000,0.500000,-0.750000,$1*%
%AMFreePoly1*
4,1,20,0.000000,0.744959,0.073905,0.744508,0.209726,0.703889,0.328688,0.626782,0.421226,0.519385,0.479903,0.390333,0.500000,0.250000,0.500000,-0.250000,0.499851,-0.262216,0.476331,-0.402017,0.414519,-0.529596,0.319384,-0.634700,0.198574,-0.708877,0.061801,-0.746166,0.000000,-0.745033,0.000000,-0.750000,-0.500000,-0.750000,-0.500000,0.750000,0.000000,0.750000,0.000000,0.744959,
0.000000,0.744959,$1*%
G04 Aperture macros list end*
%ADD10C,1.524000*%
%ADD11R,1.700000X1.700000*%
%ADD12O,1.700000X1.700000*%
%ADD13C,4.300000*%
%ADD14FreePoly0,270.000000*%
%ADD15FreePoly1,270.000000*%
%ADD16C,2.000000*%
%ADD17R,1.600000X1.600000*%
%ADD18O,1.600000X1.600000*%
%ADD19C,3.200000*%
%ADD20R,3.500000X3.500000*%
%ADD21C,3.500000*%
%ADD22RoundRect,1.250000X-2.750000X-1.250000X2.750000X-1.250000X2.750000X1.250000X-2.750000X1.250000X0*%
%ADD23RoundRect,1.000000X-1.000000X-1.500000X1.000000X-1.500000X1.000000X1.500000X-1.000000X1.500000X0*%
%ADD24RoundRect,0.750000X0.750000X1.000000X-0.750000X1.000000X-0.750000X-1.000000X0.750000X-1.000000X0*%
%ADD25RoundRect,0.875000X0.875000X0.875000X-0.875000X0.875000X-0.875000X-0.875000X0.875000X-0.875000X0*%
%ADD26RoundRect,0.500000X1.000000X-0.500000X1.000000X0.500000X-1.000000X0.500000X-1.000000X-0.500000X0*%
%ADD27C,14.000000*%
G04 APERTURE END LIST*
D10*
%TO.C,U20*%
X100635047Y-166033953D03*
X100635047Y-168573953D03*
X100635047Y-173653953D03*
X100635047Y-176193953D03*
X118415047Y-176193953D03*
X118415047Y-173653953D03*
X118415047Y-168573953D03*
X118415047Y-166033953D03*
%TD*%
D11*
%TO.C,J25*%
X47225047Y-135323953D03*
D12*
X44685047Y-135323953D03*
X42145047Y-135323953D03*
X39605047Y-135323953D03*
%TD*%
D13*
%TO.C,H4*%
X89145047Y-223603953D03*
%TD*%
D11*
%TO.C,J1*%
X110744047Y-131571953D03*
D12*
X113284047Y-131571953D03*
X115824047Y-131571953D03*
X118364047Y-131571953D03*
X120904047Y-131571953D03*
X123444047Y-131571953D03*
X125984047Y-131571953D03*
X128524047Y-131571953D03*
X131064047Y-131571953D03*
X133604047Y-131571953D03*
%TD*%
D14*
%TO.C,JP2*%
X125925047Y-154147953D03*
D15*
X125925047Y-155447953D03*
%TD*%
D16*
%TO.C,SW3*%
X64239047Y-156665953D03*
X64239047Y-150165953D03*
X68739047Y-156665953D03*
X68739047Y-150165953D03*
%TD*%
D11*
%TO.C,J27*%
X104495047Y-225453953D03*
%TD*%
D17*
%TO.C,SW1*%
X133145047Y-181653953D03*
D18*
X133145047Y-179113953D03*
X133145047Y-176573953D03*
X133145047Y-174033953D03*
X133145047Y-171493953D03*
X133145047Y-168953953D03*
X133145047Y-166413953D03*
X133145047Y-163873953D03*
X125525047Y-163873953D03*
X125525047Y-166413953D03*
X125525047Y-168953953D03*
X125525047Y-171493953D03*
X125525047Y-174033953D03*
X125525047Y-176573953D03*
X125525047Y-179113953D03*
X125525047Y-181653953D03*
%TD*%
D10*
%TO.C,U1*%
X40735047Y-141473953D03*
X40735047Y-144013953D03*
X40735047Y-149093953D03*
X40735047Y-151633953D03*
X58515047Y-151633953D03*
X58515047Y-149093953D03*
X58515047Y-144013953D03*
X58515047Y-141473953D03*
%TD*%
%TO.C,U9*%
X107696047Y-132587953D03*
X105156047Y-132587953D03*
X102616047Y-132587953D03*
X100076047Y-132587953D03*
X97536047Y-132587953D03*
X94996047Y-132587953D03*
X92456047Y-132587953D03*
X89916047Y-132587953D03*
X87376047Y-132587953D03*
X84836047Y-132587953D03*
X82296047Y-132587953D03*
X79756047Y-132587953D03*
X77216047Y-132587953D03*
X77216047Y-155447953D03*
X79756047Y-155447953D03*
X82296047Y-155447953D03*
X84836047Y-155447953D03*
X87376047Y-155447953D03*
X89916047Y-155447953D03*
X92456047Y-155447953D03*
X94996047Y-155447953D03*
X97536047Y-155447953D03*
X100076047Y-155447953D03*
X102616047Y-155447953D03*
X105156047Y-155447953D03*
X107696047Y-155447953D03*
%TD*%
D13*
%TO.C,H3*%
X67818047Y-143001953D03*
%TD*%
%TO.C,H9*%
X119945047Y-216103953D03*
%TD*%
D11*
%TO.C,J6*%
X110744047Y-225551953D03*
D12*
X113284047Y-225551953D03*
X115824047Y-225551953D03*
X118364047Y-225551953D03*
X120904047Y-225551953D03*
X123444047Y-225551953D03*
X125984047Y-225551953D03*
X128524047Y-225551953D03*
X131064047Y-225551953D03*
X133604047Y-225551953D03*
%TD*%
D11*
%TO.C,J2*%
X39624047Y-131571953D03*
D12*
X42164047Y-131571953D03*
X44704047Y-131571953D03*
X47244047Y-131571953D03*
X49784047Y-131571953D03*
X52324047Y-131571953D03*
X54864047Y-131571953D03*
X57404047Y-131571953D03*
X59944047Y-131571953D03*
X62484047Y-131571953D03*
%TD*%
D11*
%TO.C,J7*%
X39624047Y-225551953D03*
D12*
X42164047Y-225551953D03*
X44704047Y-225551953D03*
X47244047Y-225551953D03*
X49784047Y-225551953D03*
X52324047Y-225551953D03*
X54864047Y-225551953D03*
X57404047Y-225551953D03*
X59944047Y-225551953D03*
X62484047Y-225551953D03*
%TD*%
D10*
%TO.C,U2*%
X50980047Y-158383953D03*
X48440047Y-158383953D03*
X43360047Y-158383953D03*
X40820047Y-158383953D03*
X40820047Y-176163953D03*
X43360047Y-176163953D03*
X48440047Y-176163953D03*
X50980047Y-176163953D03*
%TD*%
D19*
%TO.C,BT2*%
X49940047Y-211103953D03*
X105550047Y-211103953D03*
D20*
X41295047Y-211103953D03*
D21*
X113295047Y-211103953D03*
%TD*%
D10*
%TO.C,U3*%
X76075047Y-166033953D03*
X76075047Y-168573953D03*
X76075047Y-173653953D03*
X76075047Y-176193953D03*
X93855047Y-176193953D03*
X93855047Y-173653953D03*
X93855047Y-168573953D03*
X93855047Y-166033953D03*
%TD*%
D22*
%TO.C,U21*%
X85031047Y-205104953D03*
D23*
X94031047Y-205104953D03*
X101031047Y-205104953D03*
D22*
X110031047Y-205104953D03*
%TD*%
D20*
%TO.C,J8*%
X125915047Y-213521453D03*
D24*
X131915047Y-213521453D03*
D25*
X128915047Y-208821453D03*
%TD*%
D26*
%TO.C,SW2*%
X131935047Y-203403953D03*
X131935047Y-198703953D03*
X131935047Y-194003953D03*
X127135047Y-203403953D03*
X127135047Y-198603953D03*
X127135047Y-194003953D03*
%TD*%
D19*
%TO.C,BT1*%
X105620047Y-190503953D03*
X50010047Y-190503953D03*
D20*
X41365047Y-190503953D03*
D21*
X113365047Y-190503953D03*
%TD*%
D27*
%TO.C,H7*%
X65989247Y-169570353D03*
%TD*%
D22*
%TO.C,U19*%
X85177047Y-196976953D03*
D23*
X94177047Y-196976953D03*
X101177047Y-196976953D03*
D22*
X110177047Y-196976953D03*
%TD*%
D11*
%TO.C,J28*%
X98995047Y-225393953D03*
%TD*%
%TO.C,J4*%
X125798047Y-149097953D03*
D12*
X125798047Y-146557953D03*
%TD*%
D11*
%TO.C,J4*%
X125466500Y-47452000D03*
D12*
X125466500Y-44912000D03*
%TD*%
D11*
%TO.C,J28*%
X98663500Y-123748000D03*
%TD*%
D22*
%TO.C,U19*%
X84845500Y-95331000D03*
D23*
X93845500Y-95331000D03*
X100845500Y-95331000D03*
D22*
X109845500Y-95331000D03*
%TD*%
D27*
%TO.C,H7*%
X65657700Y-67924400D03*
%TD*%
D19*
%TO.C,BT1*%
X105288500Y-88858000D03*
X49678500Y-88858000D03*
D20*
X41033500Y-88858000D03*
D21*
X113033500Y-88858000D03*
%TD*%
D26*
%TO.C,SW2*%
X131603500Y-101758000D03*
X131603500Y-97058000D03*
X131603500Y-92358000D03*
X126803500Y-101758000D03*
X126803500Y-96958000D03*
X126803500Y-92358000D03*
%TD*%
D20*
%TO.C,J8*%
X125583500Y-111875500D03*
D24*
X131583500Y-111875500D03*
D25*
X128583500Y-107175500D03*
%TD*%
D22*
%TO.C,U21*%
X84699500Y-103459000D03*
D23*
X93699500Y-103459000D03*
X100699500Y-103459000D03*
D22*
X109699500Y-103459000D03*
%TD*%
D10*
%TO.C,U3*%
X75743500Y-64388000D03*
X75743500Y-66928000D03*
X75743500Y-72008000D03*
X75743500Y-74548000D03*
X93523500Y-74548000D03*
X93523500Y-72008000D03*
X93523500Y-66928000D03*
X93523500Y-64388000D03*
%TD*%
D19*
%TO.C,BT2*%
X49608500Y-109458000D03*
X105218500Y-109458000D03*
D20*
X40963500Y-109458000D03*
D21*
X112963500Y-109458000D03*
%TD*%
D10*
%TO.C,U2*%
X50648500Y-56738000D03*
X48108500Y-56738000D03*
X43028500Y-56738000D03*
X40488500Y-56738000D03*
X40488500Y-74518000D03*
X43028500Y-74518000D03*
X48108500Y-74518000D03*
X50648500Y-74518000D03*
%TD*%
D11*
%TO.C,J7*%
X39292500Y-123906000D03*
D12*
X41832500Y-123906000D03*
X44372500Y-123906000D03*
X46912500Y-123906000D03*
X49452500Y-123906000D03*
X51992500Y-123906000D03*
X54532500Y-123906000D03*
X57072500Y-123906000D03*
X59612500Y-123906000D03*
X62152500Y-123906000D03*
%TD*%
D11*
%TO.C,J2*%
X39292500Y-29926000D03*
D12*
X41832500Y-29926000D03*
X44372500Y-29926000D03*
X46912500Y-29926000D03*
X49452500Y-29926000D03*
X51992500Y-29926000D03*
X54532500Y-29926000D03*
X57072500Y-29926000D03*
X59612500Y-29926000D03*
X62152500Y-29926000D03*
%TD*%
D11*
%TO.C,J6*%
X110412500Y-123906000D03*
D12*
X112952500Y-123906000D03*
X115492500Y-123906000D03*
X118032500Y-123906000D03*
X120572500Y-123906000D03*
X123112500Y-123906000D03*
X125652500Y-123906000D03*
X128192500Y-123906000D03*
X130732500Y-123906000D03*
X133272500Y-123906000D03*
%TD*%
D13*
%TO.C,H9*%
X119613500Y-114458000D03*
%TD*%
%TO.C,H3*%
X67486500Y-41356000D03*
%TD*%
D10*
%TO.C,U9*%
X107364500Y-30942000D03*
X104824500Y-30942000D03*
X102284500Y-30942000D03*
X99744500Y-30942000D03*
X97204500Y-30942000D03*
X94664500Y-30942000D03*
X92124500Y-30942000D03*
X89584500Y-30942000D03*
X87044500Y-30942000D03*
X84504500Y-30942000D03*
X81964500Y-30942000D03*
X79424500Y-30942000D03*
X76884500Y-30942000D03*
X76884500Y-53802000D03*
X79424500Y-53802000D03*
X81964500Y-53802000D03*
X84504500Y-53802000D03*
X87044500Y-53802000D03*
X89584500Y-53802000D03*
X92124500Y-53802000D03*
X94664500Y-53802000D03*
X97204500Y-53802000D03*
X99744500Y-53802000D03*
X102284500Y-53802000D03*
X104824500Y-53802000D03*
X107364500Y-53802000D03*
%TD*%
%TO.C,U1*%
X40403500Y-39828000D03*
X40403500Y-42368000D03*
X40403500Y-47448000D03*
X40403500Y-49988000D03*
X58183500Y-49988000D03*
X58183500Y-47448000D03*
X58183500Y-42368000D03*
X58183500Y-39828000D03*
%TD*%
D17*
%TO.C,SW1*%
X132813500Y-80008000D03*
D18*
X132813500Y-77468000D03*
X132813500Y-74928000D03*
X132813500Y-72388000D03*
X132813500Y-69848000D03*
X132813500Y-67308000D03*
X132813500Y-64768000D03*
X132813500Y-62228000D03*
X125193500Y-62228000D03*
X125193500Y-64768000D03*
X125193500Y-67308000D03*
X125193500Y-69848000D03*
X125193500Y-72388000D03*
X125193500Y-74928000D03*
X125193500Y-77468000D03*
X125193500Y-80008000D03*
%TD*%
D11*
%TO.C,J27*%
X104163500Y-123808000D03*
%TD*%
D16*
%TO.C,SW3*%
X63907500Y-48520000D03*
X63907500Y-55020000D03*
X68407500Y-48520000D03*
X68407500Y-55020000D03*
%TD*%
D14*
%TO.C,JP2*%
X125593500Y-52502000D03*
D15*
X125593500Y-53802000D03*
%TD*%
D11*
%TO.C,J1*%
X110412500Y-29926000D03*
D12*
X112952500Y-29926000D03*
X115492500Y-29926000D03*
X118032500Y-29926000D03*
X120572500Y-29926000D03*
X123112500Y-29926000D03*
X125652500Y-29926000D03*
X128192500Y-29926000D03*
X130732500Y-29926000D03*
X133272500Y-29926000D03*
%TD*%
D13*
%TO.C,H4*%
X88813500Y-121958000D03*
%TD*%
D11*
%TO.C,J25*%
X46893500Y-33678000D03*
D12*
X44353500Y-33678000D03*
X41813500Y-33678000D03*
X39273500Y-33678000D03*
%TD*%
D10*
%TO.C,U20*%
X100303500Y-64388000D03*
X100303500Y-66928000D03*
X100303500Y-72008000D03*
X100303500Y-74548000D03*
X118083500Y-74548000D03*
X118083500Y-72008000D03*
X118083500Y-66928000D03*
X118083500Y-64388000D03*
%TD*%
M02*
