%TF.GenerationSoftware,KiCad,Pcbnew,6.0.7-f9a2dced07~116~ubuntu20.04.1*%
%TF.CreationDate,2022-11-23T13:06:06+01:00*%
%TF.ProjectId,board,626f6172-642e-46b6-9963-61645f706362,rev?*%
%TF.SameCoordinates,Original*%
%TF.FileFunction,Legend,Bot*%
%TF.FilePolarity,Positive*%
%FSLAX46Y46*%
G04 Gerber Fmt 4.6, Leading zero omitted, Abs format (unit mm)*
G04 Created by KiCad (PCBNEW 6.0.7-f9a2dced07~116~ubuntu20.04.1) date 2022-11-23 13:06:06*
%MOMM*%
%LPD*%
G01*
G04 APERTURE LIST*
%ADD10C,0.150000*%
%ADD11C,0.120000*%
G04 APERTURE END LIST*
D10*
%TO.C,JP2*%
X129425380Y-154250333D02*
X129425380Y-154964619D01*
X129472999Y-155107476D01*
X129568237Y-155202714D01*
X129711094Y-155250333D01*
X129806332Y-155250333D01*
X128949189Y-155250333D02*
X128949189Y-154250333D01*
X128568237Y-154250333D01*
X128472999Y-154297953D01*
X128425380Y-154345572D01*
X128377761Y-154440810D01*
X128377761Y-154583667D01*
X128425380Y-154678905D01*
X128472999Y-154726524D01*
X128568237Y-154774143D01*
X128949189Y-154774143D01*
X127996808Y-154345572D02*
X127949189Y-154297953D01*
X127853951Y-154250333D01*
X127615856Y-154250333D01*
X127520618Y-154297953D01*
X127472999Y-154345572D01*
X127425380Y-154440810D01*
X127425380Y-154536048D01*
X127472999Y-154678905D01*
X128044427Y-155250333D01*
X127425380Y-155250333D01*
%TO.C,U21*%
X81792951Y-209652572D02*
X81792951Y-208843048D01*
X81840570Y-208747810D01*
X81888189Y-208700191D01*
X81983427Y-208652572D01*
X82173904Y-208652572D01*
X82269142Y-208700191D01*
X82316761Y-208747810D01*
X82364380Y-208843048D01*
X82364380Y-209652572D01*
X82792951Y-209557333D02*
X82840570Y-209604953D01*
X82935808Y-209652572D01*
X83173904Y-209652572D01*
X83269142Y-209604953D01*
X83316761Y-209557333D01*
X83364380Y-209462095D01*
X83364380Y-209366857D01*
X83316761Y-209224000D01*
X82745332Y-208652572D01*
X83364380Y-208652572D01*
X84316761Y-208652572D02*
X83745332Y-208652572D01*
X84031047Y-208652572D02*
X84031047Y-209652572D01*
X83935808Y-209509714D01*
X83840570Y-209414476D01*
X83745332Y-209366857D01*
%TO.C,U19*%
X81938951Y-201524572D02*
X81938951Y-200715048D01*
X81986570Y-200619810D01*
X82034189Y-200572191D01*
X82129427Y-200524572D01*
X82319904Y-200524572D01*
X82415142Y-200572191D01*
X82462761Y-200619810D01*
X82510380Y-200715048D01*
X82510380Y-201524572D01*
X83510380Y-200524572D02*
X82938951Y-200524572D01*
X83224666Y-200524572D02*
X83224666Y-201524572D01*
X83129427Y-201381714D01*
X83034189Y-201286476D01*
X82938951Y-201238857D01*
X83986570Y-200524572D02*
X84177047Y-200524572D01*
X84272285Y-200572191D01*
X84319904Y-200619810D01*
X84415142Y-200762667D01*
X84462761Y-200953143D01*
X84462761Y-201334095D01*
X84415142Y-201429333D01*
X84367523Y-201476953D01*
X84272285Y-201524572D01*
X84081808Y-201524572D01*
X83986570Y-201476953D01*
X83938951Y-201429333D01*
X83891332Y-201334095D01*
X83891332Y-201096000D01*
X83938951Y-201000762D01*
X83986570Y-200953143D01*
X84081808Y-200905524D01*
X84272285Y-200905524D01*
X84367523Y-200953143D01*
X84415142Y-201000762D01*
X84462761Y-201096000D01*
X81607404Y-99878619D02*
X81607404Y-99069095D01*
X81655023Y-98973857D01*
X81702642Y-98926238D01*
X81797880Y-98878619D01*
X81988357Y-98878619D01*
X82083595Y-98926238D01*
X82131214Y-98973857D01*
X82178833Y-99069095D01*
X82178833Y-99878619D01*
X83178833Y-98878619D02*
X82607404Y-98878619D01*
X82893119Y-98878619D02*
X82893119Y-99878619D01*
X82797880Y-99735761D01*
X82702642Y-99640523D01*
X82607404Y-99592904D01*
X83655023Y-98878619D02*
X83845500Y-98878619D01*
X83940738Y-98926238D01*
X83988357Y-98973857D01*
X84083595Y-99116714D01*
X84131214Y-99307190D01*
X84131214Y-99688142D01*
X84083595Y-99783380D01*
X84035976Y-99831000D01*
X83940738Y-99878619D01*
X83750261Y-99878619D01*
X83655023Y-99831000D01*
X83607404Y-99783380D01*
X83559785Y-99688142D01*
X83559785Y-99450047D01*
X83607404Y-99354809D01*
X83655023Y-99307190D01*
X83750261Y-99259571D01*
X83940738Y-99259571D01*
X84035976Y-99307190D01*
X84083595Y-99354809D01*
X84131214Y-99450047D01*
%TO.C,U21*%
X81461404Y-108006619D02*
X81461404Y-107197095D01*
X81509023Y-107101857D01*
X81556642Y-107054238D01*
X81651880Y-107006619D01*
X81842357Y-107006619D01*
X81937595Y-107054238D01*
X81985214Y-107101857D01*
X82032833Y-107197095D01*
X82032833Y-108006619D01*
X82461404Y-107911380D02*
X82509023Y-107959000D01*
X82604261Y-108006619D01*
X82842357Y-108006619D01*
X82937595Y-107959000D01*
X82985214Y-107911380D01*
X83032833Y-107816142D01*
X83032833Y-107720904D01*
X82985214Y-107578047D01*
X82413785Y-107006619D01*
X83032833Y-107006619D01*
X83985214Y-107006619D02*
X83413785Y-107006619D01*
X83699500Y-107006619D02*
X83699500Y-108006619D01*
X83604261Y-107863761D01*
X83509023Y-107768523D01*
X83413785Y-107720904D01*
%TO.C,JP2*%
X129093833Y-52604380D02*
X129093833Y-53318666D01*
X129141452Y-53461523D01*
X129236690Y-53556761D01*
X129379547Y-53604380D01*
X129474785Y-53604380D01*
X128617642Y-53604380D02*
X128617642Y-52604380D01*
X128236690Y-52604380D01*
X128141452Y-52652000D01*
X128093833Y-52699619D01*
X128046214Y-52794857D01*
X128046214Y-52937714D01*
X128093833Y-53032952D01*
X128141452Y-53080571D01*
X128236690Y-53128190D01*
X128617642Y-53128190D01*
X127665261Y-52699619D02*
X127617642Y-52652000D01*
X127522404Y-52604380D01*
X127284309Y-52604380D01*
X127189071Y-52652000D01*
X127141452Y-52699619D01*
X127093833Y-52794857D01*
X127093833Y-52890095D01*
X127141452Y-53032952D01*
X127712880Y-53604380D01*
X127093833Y-53604380D01*
D11*
X124925047Y-154097953D02*
X124925047Y-155497953D01*
X125625047Y-156197953D02*
X126225047Y-156197953D01*
X126225047Y-153397953D02*
X125625047Y-153397953D01*
X126925047Y-155497953D02*
X126925047Y-154097953D01*
X125625047Y-153397953D02*
G75*
G03*
X124925047Y-154097953I-1J-699999D01*
G01*
X126225047Y-156197953D02*
G75*
G03*
X126925047Y-155497953I0J700000D01*
G01*
X126925047Y-154097953D02*
G75*
G03*
X126225047Y-153397953I-699999J1D01*
G01*
X124925047Y-155497953D02*
G75*
G03*
X125625047Y-156197953I700000J0D01*
G01*
%TO.C,U21*%
X80831047Y-207904953D02*
X114231047Y-207904953D01*
X114231047Y-207904953D02*
X114231047Y-202304953D01*
X114231047Y-202304953D02*
X80831047Y-202304953D01*
X80831047Y-202304953D02*
X80831047Y-207904953D01*
%TO.C,U19*%
X80977047Y-199776953D02*
X114377047Y-199776953D01*
X114377047Y-199776953D02*
X114377047Y-194176953D01*
X114377047Y-194176953D02*
X80977047Y-194176953D01*
X80977047Y-194176953D02*
X80977047Y-199776953D01*
X80645500Y-98131000D02*
X114045500Y-98131000D01*
X114045500Y-98131000D02*
X114045500Y-92531000D01*
X114045500Y-92531000D02*
X80645500Y-92531000D01*
X80645500Y-92531000D02*
X80645500Y-98131000D01*
%TO.C,U21*%
X80499500Y-106259000D02*
X113899500Y-106259000D01*
X113899500Y-106259000D02*
X113899500Y-100659000D01*
X113899500Y-100659000D02*
X80499500Y-100659000D01*
X80499500Y-100659000D02*
X80499500Y-106259000D01*
%TO.C,JP2*%
X125893500Y-51752000D02*
X125293500Y-51752000D01*
X125293500Y-54552000D02*
X125893500Y-54552000D01*
X126593500Y-53852000D02*
X126593500Y-52452000D01*
X124593500Y-52452000D02*
X124593500Y-53852000D01*
X125293500Y-51752000D02*
G75*
G03*
X124593500Y-52452000I-1J-699999D01*
G01*
X126593500Y-52452000D02*
G75*
G03*
X125893500Y-51752000I-699999J1D01*
G01*
X125893500Y-54552000D02*
G75*
G03*
X126593500Y-53852000I0J700000D01*
G01*
X124593500Y-53852000D02*
G75*
G03*
X125293500Y-54552000I700000J0D01*
G01*
%TD*%
M02*
